<svg width="120" height="120" viewBox="0 0 120 120" fill="none" xmlns="http://www.w3.org/2000/svg">
<g clip-path="url(#clip0_190_7137)">
<path d="M39.0014 86.9077H34.0918V67.4512H39.0014V86.9077Z" fill="#212529"/>
<mask id="mask0_190_7137" style="mask-type:luminance" maskUnits="userSpaceOnUse" x="0" y="25" width="120" height="70">
<path d="M0 94.1826H120V25.8167H0V94.1826Z" fill="white"/>
</mask>
<g mask="url(#mask0_190_7137)">
<path d="M78.5894 73.0259C78.3873 72.9232 76.8072 71.9871 74.459 71.9871C71.2849 71.9871 69.0828 74.1953 69.0828 77.1766C69.0828 80.0676 71.19 82.3708 74.459 82.3708C76.7668 82.3708 78.3733 81.4533 78.5894 81.3382V86.5603C77.9736 86.7314 76.2956 87.2524 74.1153 87.2524C68.5929 87.2524 63.7455 83.4454 63.7455 77.175C63.7455 71.3666 68.1311 67.1054 74.1153 67.1054C76.4169 67.1054 78.1245 67.6653 78.5894 67.8037V73.0259ZM27.3426 73.0259C27.1451 72.9232 25.5666 71.9871 23.2183 71.9871C20.038 71.9871 17.8375 74.1953 17.8375 77.1766C17.8375 80.0676 19.9463 82.3708 23.2183 82.3708C25.5262 82.3708 27.1311 81.4533 27.3426 81.3382V86.5603C26.733 86.7314 25.0565 87.2524 22.8637 87.2524C17.3461 87.2524 12.5049 83.4454 12.5049 77.175C12.5049 71.3666 16.8904 67.1054 22.8653 67.1054C25.1763 67.1054 26.8807 67.6653 27.3426 67.8037V73.0259ZM94.0336 72.0602C91.1208 72.0602 88.9576 74.3524 88.9576 77.1766C88.9576 80.0069 91.1208 82.2977 94.0336 82.2977C96.9433 82.2977 99.1128 80.0069 99.1128 77.1766C99.1128 74.3524 96.9433 72.0602 94.0336 72.0602ZM104.315 77.1766C104.315 82.7424 100.018 87.2524 94.0352 87.2524C88.0494 87.2524 83.7588 82.7425 83.7588 77.175C83.7588 71.62 88.051 67.1054 94.0336 67.1054C100.018 67.1054 104.315 71.62 104.315 77.1766ZM57.6198 71.8735C57.5467 71.8502 55.4799 71.2794 53.7817 71.2794C51.8144 71.2794 50.7445 71.9389 50.7445 72.8735C50.7445 74.0585 52.1877 74.4721 52.9948 74.7272L54.3493 75.158C57.5374 76.172 58.9883 78.3538 58.9883 80.7239C58.9883 85.6117 54.6899 87.2539 50.9326 87.2539C48.3215 87.2539 45.8753 86.7718 45.6343 86.7221V82.2432C46.0666 82.3521 48.1256 82.9679 50.2702 82.9679C52.7133 82.9679 53.8361 82.2526 53.8361 81.1516C53.8361 80.1656 52.8641 79.5964 51.6465 79.2138C51.351 79.1143 50.9031 78.9743 50.5983 78.8748C47.8643 78.0101 45.5845 76.4021 45.5845 73.1829C45.5845 69.5439 48.3091 67.1007 52.8346 67.1007C55.2249 67.1007 57.4736 67.6808 57.6198 67.7197V71.8719V71.8735Z" fill="#212529"/>
<path d="M7.29825 46.5415C7.29825 45.201 6.20342 44.1139 4.86133 44.1139C3.51923 44.1139 2.42285 45.2009 2.42285 46.5399V51.6486C2.43891 52.2845 2.70279 52.8889 3.1582 53.333C3.61361 53.777 4.2245 54.0255 4.86056 54.0255C5.49662 54.0255 6.1075 53.777 6.5629 53.333C7.01831 52.8889 7.28219 52.2845 7.29825 51.6486V46.5415ZM20.6865 39.8388C20.6865 39.1923 20.4297 38.5723 19.9726 38.1151C19.5154 37.658 18.8954 37.4011 18.2488 37.4011C17.6023 37.4011 16.9823 37.658 16.5251 38.1151C16.068 38.5723 15.8111 39.1923 15.8111 39.8388V51.6486C15.8111 52.2952 16.068 52.9152 16.5251 53.3724C16.9823 53.8295 17.6023 54.0863 18.2488 54.0863C18.8954 54.0863 19.5154 53.8295 19.9726 53.3724C20.4297 52.9152 20.6865 52.2952 20.6865 51.6486V39.8372V39.8388ZM34.0764 30.6665C34.0764 29.326 32.9816 28.2374 31.6395 28.2374C30.2958 28.2374 29.201 29.326 29.201 30.6665V56.5022C29.2171 57.1381 29.4809 57.7425 29.9363 58.1866C30.3917 58.6306 31.0026 58.8792 31.6387 58.8792C32.2747 58.8792 32.8856 58.6306 33.341 58.1866C33.7964 57.7425 34.0603 57.1381 34.0764 56.5022V30.6665ZM47.4647 39.8388C47.4647 39.1923 47.2078 38.5723 46.7507 38.1151C46.2935 37.658 45.6735 37.4011 45.027 37.4011C44.3805 37.4011 43.7604 37.658 43.3033 38.1151C42.8461 38.5723 42.5893 39.1923 42.5893 39.8388V51.6486C42.5893 52.2952 42.8461 52.9152 43.3033 53.3724C43.7604 53.8295 44.3805 54.0863 45.027 54.0863C45.6735 54.0863 46.2935 53.8295 46.7507 53.3724C47.2078 52.9152 47.4647 52.2952 47.4647 51.6486V39.8372V39.8388ZM60.839 46.5415C60.8394 45.8984 60.5844 45.2814 60.13 44.8262C59.6757 44.3709 59.0592 44.1147 58.416 44.1139C57.7715 44.1135 57.1531 44.3687 56.6963 44.8234C56.2395 45.2782 55.9816 45.8954 55.9791 46.5399V51.6486C55.9791 52.2931 56.2351 52.9112 56.6908 53.3669C57.1465 53.8226 57.7646 54.0786 58.409 54.0786C59.0535 54.0786 59.6716 53.8226 60.1273 53.3669C60.583 52.9112 60.839 52.2931 60.839 51.6486V46.5415ZM74.2335 39.8388C74.2175 39.205 73.9544 38.6025 73.5005 38.1599C73.0465 37.7173 72.4376 37.4696 71.8036 37.4696C71.1696 37.4696 70.5606 37.7173 70.1067 38.1599C69.6527 38.6025 69.3897 39.205 69.3736 39.8388V51.6486C69.3736 52.2931 69.6296 52.9112 70.0854 53.3669C70.541 53.8226 71.1591 54.0786 71.8036 54.0786C72.448 54.0786 73.0661 53.8226 73.5218 53.3669C73.9775 52.9112 74.2335 52.2931 74.2335 51.6486V39.8372V39.8388ZM87.6311 30.6665C87.6311 30.0221 87.3751 29.404 86.9194 28.9483C86.4637 28.4926 85.8456 28.2366 85.2012 28.2366C84.5567 28.2366 83.9387 28.4926 83.483 28.9483C83.0273 29.404 82.7713 30.0221 82.7713 30.6665V56.5022C82.7569 56.8303 82.8091 57.1578 82.9247 57.4652C83.0403 57.7725 83.217 58.0533 83.4441 58.2905C83.6711 58.5277 83.9439 58.7165 84.2458 58.8455C84.5478 58.9745 84.8728 59.041 85.2012 59.041C85.5295 59.041 85.8545 58.9745 86.1565 58.8455C86.4585 58.7165 86.7312 58.5277 86.9583 58.2905C87.1853 58.0533 87.362 57.7725 87.4776 57.4652C87.5933 57.1578 87.6455 56.8303 87.6311 56.5022V30.6665ZM101.026 39.8388C101.026 38.4967 99.9386 37.4065 98.5654 37.4065C97.921 37.407 97.3031 37.6632 96.8476 38.119C96.3921 38.5748 96.1362 39.1928 96.1362 39.8372V51.6486C96.1362 52.997 97.2248 54.084 98.5654 54.084C99.9386 54.084 101.026 52.997 101.026 51.6486V39.8372V39.8388ZM114.395 46.5415C114.395 45.8965 114.139 45.2777 113.683 44.8216C113.227 44.3655 112.608 44.1092 111.963 44.1092C111.318 44.1092 110.699 44.3655 110.243 44.8216C109.787 45.2777 109.531 45.8965 109.531 46.5415V51.6486C109.531 52.997 110.621 54.0855 111.963 54.0855C113.304 54.0855 114.394 52.997 114.394 51.6486V46.5415H114.395Z" fill="#212529"/>
<path d="M111.585 84.345V84.6497H110.717V86.9062H110.36V84.6514H109.489V84.345H111.585ZM111.767 84.345H112.325L113.092 86.446H113.104L113.846 84.3465H114.394V86.9062H114.028V84.8068H114.016L113.238 86.9062H112.901L112.142 84.8068H112.125V86.9062H111.767V84.345Z" fill="#212529"/>
</g>
</g>
<defs>
<clipPath id="clip0_190_7137">
<rect width="120" height="120" fill="white"/>
</clipPath>
</defs>
</svg>
