<svg width="120" height="120" viewBox="0 0 120 120" fill="none" xmlns="http://www.w3.org/2000/svg">
<g clip-path="url(#clip0_190_7257)">
<path fill-rule="evenodd" clip-rule="evenodd" d="M35.8153 47.6098V54.0862H41.4655V72.4003H48.8608V54.0862H54.5117V47.6098H35.8153ZM70.4695 62.5224C73.312 61.5556 75.0975 58.9135 75.0975 55.5062C75.0975 53.1978 74.4046 51.3345 73.0362 49.9674C71.4942 48.4254 69.1553 47.6105 66.2697 47.6105H56.5213V72.401H63.9557V64.9939L68.6809 72.3997H78.0459L70.4695 62.5224ZM63.9557 53.6585C64.9138 53.6647 66.205 53.7619 66.873 54.4292C67.2098 54.7667 67.3742 55.2398 67.3742 55.8779C67.3742 57.4312 66.3768 58.0755 63.9564 58.0954L63.9557 53.6585ZM86.5879 72.4003V47.5986H79.2206V72.4003H86.5879ZM106.429 59.0205L114.633 47.626H105.513L102.108 52.8766L99.1677 47.626H90.0717L97.6904 58.9794L87.7626 72.4003H96.7591L101.995 65.0972L106.133 72.4003H115.044L106.429 59.0205ZM26.3706 47.5986V72.4003H33.8057V47.5986H26.3706Z" fill="#212529"/>
<path fill-rule="evenodd" clip-rule="evenodd" d="M30.0878 46.0927C31.3247 46.0927 32.5109 45.6013 33.3854 44.7267C34.26 43.8522 34.7513 42.666 34.7513 41.4291C34.7513 40.1923 34.26 39.0061 33.3854 38.1315C32.5109 37.257 31.3247 36.7656 30.0878 36.7656C28.851 36.7656 27.6648 37.257 26.7902 38.1315C25.9156 39.0061 25.4243 40.1923 25.4243 41.4291C25.4243 42.666 25.9156 43.8522 26.7902 44.7267C27.6648 45.6013 28.851 46.0927 30.0878 46.0927ZM82.9379 83.2345C84.1745 83.2345 85.3605 82.7433 86.235 81.8688C87.1095 80.9943 87.6007 79.8083 87.6007 78.5716C87.6007 77.335 87.1095 76.1489 86.235 75.2745C85.3605 74.4 84.1745 73.9088 82.9379 73.9088C81.7012 73.9088 80.5152 74.4 79.6407 75.2745C78.7662 76.1489 78.275 77.335 78.275 78.5716C78.275 79.8083 78.7662 80.9943 79.6407 81.8688C80.5152 82.7433 81.7012 83.2345 82.9379 83.2345Z" fill="#212529"/>
<path fill-rule="evenodd" clip-rule="evenodd" d="M20.2022 62.6563C19.0997 64.4816 16.9363 65.6557 14.7487 65.6557C11.6247 65.6557 9.33622 63.1244 9.33622 59.9999C9.33622 56.8759 11.6247 54.344 14.7487 54.344C16.9369 54.344 19.1003 55.5194 20.2022 57.3447L24.1105 51.0196C21.748 48.5568 18.4304 47.0166 14.748 47.0166C7.57752 47.0166 1.76416 52.8293 1.76416 59.9999C1.76416 67.171 7.57752 72.9837 14.748 72.9837C18.4304 72.9837 21.7474 71.4429 24.1105 68.9807L20.2022 62.6563ZM116.24 48.5966C116.24 48.332 116.345 48.0781 116.533 47.891C116.72 47.7038 116.974 47.5987 117.238 47.5987C117.503 47.5987 117.757 47.7038 117.944 47.891C118.131 48.0781 118.236 48.332 118.236 48.5966C118.227 48.8552 118.118 49.1001 117.932 49.2798C117.746 49.4595 117.497 49.5599 117.238 49.5599C116.98 49.5599 116.731 49.4595 116.545 49.2798C116.359 49.1001 116.249 48.8552 116.24 48.5966ZM117.238 49.4601C117.352 49.46 117.464 49.4376 117.569 49.3941C117.674 49.3506 117.769 49.2869 117.849 49.2066C117.929 49.1263 117.993 49.031 118.036 48.9261C118.08 48.8212 118.102 48.7089 118.102 48.5954C118.102 48.4819 118.079 48.3696 118.036 48.2648C117.992 48.1599 117.928 48.0647 117.848 47.9846C117.768 47.9044 117.673 47.8408 117.568 47.7974C117.463 47.7541 117.35 47.7318 117.237 47.7319C117.008 47.7321 116.788 47.8233 116.626 47.9854C116.464 48.1476 116.373 48.3675 116.374 48.5966C116.374 48.8258 116.465 49.0455 116.627 49.2075C116.789 49.3694 117.009 49.4603 117.238 49.4601ZM117.419 48.6284C117.546 48.6091 117.687 48.5474 117.687 48.3588C117.687 48.0973 117.452 48.0419 117.216 48.0419H116.848V49.1382H117.027V48.7056H117.216C117.416 48.7056 117.492 48.7685 117.492 49C117.492 49.0617 117.496 49.0984 117.507 49.1382H117.686C117.672 49.1127 117.666 49.033 117.666 48.9565C117.667 48.761 117.583 48.6632 117.419 48.6284ZM117.027 48.5742V48.1739H117.216C117.391 48.1739 117.493 48.2356 117.493 48.3588C117.493 48.5039 117.398 48.5742 117.216 48.5742H117.027Z" fill="#212529"/>
</g>
<defs>
<clipPath id="clip0_190_7257">
<rect width="120" height="120" fill="white"/>
</clipPath>
</defs>
</svg>
