<svg width="200" height="72" viewBox="0 0 200 72" fill="none" xmlns="http://www.w3.org/2000/svg">
<g clip-path="url(#clip0_190_7276)">
<path d="M0.0195312 0H199.98V72H0.0195312V0Z" fill="#212529"/>
<path d="M126.239 59.958H127.295V55.4292L130.875 59.958H132.02V53.8485H130.964V58.3596L127.384 53.8485H126.239V59.958ZM133.47 59.958H138.428V58.9812H134.544V57.294H138.231V56.3172H134.544V54.8253H138.356V53.8485H133.488L133.47 59.958ZM139.376 54.8253H141.578V59.958H142.634V54.8253H144.817V53.8485H139.448L139.376 54.8253ZM147.681 59.958H148.791C148.791 59.958 150.151 55.7666 150.33 55.2693C150.473 55.7666 151.851 59.958 151.851 59.958H152.943L154.984 53.8485H153.874L152.46 58.4307L150.939 53.8485H149.757L148.29 58.4307C148.129 57.9334 146.858 53.8485 146.858 53.8485H145.712L147.681 59.958ZM158.635 53.7064C158.185 53.6821 157.736 53.75 157.314 53.9058C156.892 54.0617 156.507 54.3021 156.183 54.6122C155.633 55.2543 155.331 56.0695 155.331 56.9122C155.331 57.7548 155.633 58.57 156.183 59.2121C156.509 59.5196 156.894 59.7584 157.315 59.9141C157.737 60.0697 158.186 60.1391 158.635 60.1179C159.079 60.1507 159.526 60.0922 159.947 59.946C160.367 59.7998 160.753 59.569 161.08 59.2681C161.406 58.9672 161.667 58.6027 161.845 58.1973C162.023 57.7919 162.115 57.3544 162.115 56.9122C162.115 56.4699 162.023 56.0324 161.845 55.627C161.667 55.2216 161.406 54.8571 161.08 54.5562C160.753 54.2553 160.367 54.0245 159.947 53.8783C159.526 53.7321 159.079 53.6736 158.635 53.7064ZM156.952 58.5195C156.559 58.0809 156.354 57.5075 156.38 56.921C156.35 56.334 156.556 55.7592 156.952 55.3226C157.176 55.1119 157.441 54.9483 157.73 54.8415C158.019 54.7347 158.327 54.6869 158.635 54.701C158.947 54.6734 159.261 54.7104 159.558 54.8099C159.854 54.9093 160.127 55.069 160.358 55.2787C160.589 55.4883 160.773 55.7434 160.899 56.0277C161.026 56.312 161.091 56.6193 161.091 56.9299C161.091 57.2406 161.026 57.5478 160.899 57.8321C160.773 58.1164 160.589 58.3715 160.358 58.5812C160.127 58.7909 159.854 58.9505 159.558 59.0499C159.261 59.1494 158.947 59.1865 158.635 59.1588C158.327 59.173 158.019 59.1252 157.73 59.0184C157.441 58.9116 157.176 58.7479 156.952 58.5372M163.145 59.958H164.219V57.4716H166.367C166.976 57.4716 167.334 57.667 167.387 58.7503V58.9279C167.387 59.5318 167.387 59.7449 167.584 59.9225H168.765L168.622 59.7627C168.443 59.5496 168.407 59.2831 168.372 58.2175C168.39 57.9609 168.332 57.7046 168.204 57.4804C168.077 57.2563 167.886 57.0741 167.656 56.9566C167.924 56.8218 168.147 56.6121 168.296 56.3533C168.445 56.0945 168.515 55.798 168.497 55.5002C168.51 55.2776 168.475 55.0548 168.395 54.8464C168.315 54.638 168.192 54.4487 168.033 54.2911C167.874 54.1334 167.683 54.0109 167.473 53.9315C167.263 53.8522 167.039 53.8179 166.814 53.8308H163.127L163.145 59.958ZM164.219 54.8253H166.546C167.137 54.8253 167.459 55.1273 167.459 55.6601C167.459 56.1929 167.351 56.4948 166.528 56.4948H164.219V54.8253ZM170.054 59.9758H171.128V57.9867L172.059 57.1342L174.403 59.9758H175.853L172.864 56.4238C173.025 56.2994 175.746 53.8663 175.746 53.8663H174.224L171.128 56.6902V53.8663H170.054V59.9758ZM176.676 55.6068C176.676 56.9566 178.037 57.1874 178.466 57.2585L179.791 57.4894C180.489 57.6137 180.775 57.8268 180.775 58.2531C180.78 58.3477 180.764 58.4422 180.731 58.5308C180.697 58.6194 180.645 58.7002 180.578 58.7681C180.226 59.0512 179.778 59.1908 179.325 59.1588C178.663 59.1588 177.536 58.999 177.536 57.9156V57.7913H176.462V57.8801C176.451 58.15 176.495 58.4193 176.59 58.6723C176.686 58.9253 176.83 59.1571 177.017 59.3542C177.633 59.8737 178.429 60.1348 179.236 60.0824C179.997 60.1197 180.744 59.8726 181.33 59.3897C181.504 59.2118 181.638 58.9999 181.725 58.7674C181.811 58.535 181.847 58.2872 181.831 58.0399C181.831 56.7612 180.471 56.5126 180.041 56.4415L178.609 56.1929C177.84 56.0508 177.75 55.7311 177.75 55.518C177.747 55.3277 177.818 55.1434 177.947 55.0029C178.241 54.7562 178.619 54.6293 179.003 54.6477C180.31 54.6477 180.543 55.2161 180.614 55.6601V55.7489H181.67V55.6245C181.67 54.3991 180.65 53.6887 179.093 53.6887C177.536 53.6887 176.659 54.3991 176.659 55.5713M76.3919 28.5402C75.7804 27.9587 75.0594 27.5025 74.2701 27.1978C73.4808 26.893 72.6387 26.7457 71.792 26.7642C70.8398 26.7002 69.8867 26.8749 69.0204 27.2722C68.154 27.6694 67.4022 28.2765 66.8342 29.0375V27.9008C66.6248 27.622 66.3556 27.393 66.0461 27.2302C65.7365 27.0674 65.3943 26.9749 65.0443 26.9595C64.6927 26.9671 64.3477 27.0561 64.0369 27.2195C63.7261 27.383 63.4582 27.6163 63.2545 27.9008V53.8308H67.031V44.1514C67.6098 44.8862 68.3608 45.4693 69.2187 45.8501C70.0766 46.2308 71.0154 46.3976 71.9531 46.3359C72.7945 46.3546 73.6312 46.2072 74.4147 45.9023C75.1982 45.5974 75.9129 45.1411 76.5172 44.5599C78.4144 42.6418 78.6292 39.3562 78.6292 36.4612C78.6292 33.5663 78.4144 30.3162 76.5172 28.3981M70.9508 42.8372C67.5501 42.8372 67.031 39.8535 67.031 36.4612C67.031 33.069 67.5501 30.1386 70.9508 30.1386C74.3515 30.1386 74.8526 33.069 74.8526 36.4612C74.8526 39.8535 74.3694 42.8372 70.9508 42.8372ZM92.3393 46.1761V44.4001C91.7119 45.0875 90.9337 45.6228 90.0648 45.9646C89.1959 46.3064 88.2595 46.4456 87.3278 46.3715C86.4106 46.4446 85.4882 46.3242 84.6213 46.0181C83.7545 45.712 82.9628 45.2271 82.2984 44.5954C81.2948 43.4655 80.7635 41.9982 80.8128 40.4928C80.8128 37.2782 82.9964 34.9871 87.292 34.9871H92.2678V33.6374C92.2678 31.222 91.0686 30.0853 88.1511 30.0853C87.3674 29.9859 86.5711 30.0984 85.8464 30.411C85.1218 30.7236 84.4958 31.2247 84.0345 31.8613L81.5466 29.4815C82.3531 28.5033 83.392 27.7396 84.5699 27.259C85.7479 26.7785 87.0277 26.5962 88.2943 26.7286C93.449 26.7286 96.0443 28.9664 96.0443 33.2999V46.0695L92.3393 46.1761ZM92.3393 37.74H87.9184C85.6991 37.74 84.5536 38.7523 84.5536 40.4751C84.5536 42.1978 85.6275 43.1924 87.99 43.1924C88.6302 43.2813 89.2823 43.2305 89.9006 43.0433C90.5189 42.8562 91.0885 42.5373 91.5697 42.109C92.2024 41.3091 92.4976 40.2967 92.393 39.2851L92.3393 37.74ZM105.584 42.8905C104.063 42.8905 103.544 42.1445 103.544 40.6704V19.3581C103.324 19.0631 103.038 18.8229 102.709 18.6564C102.38 18.4899 102.016 18.4018 101.646 18.3991C101.294 18.4114 100.949 18.5043 100.638 18.6707C100.328 18.837 100.06 19.0723 99.8567 19.3581V40.9013C99.779 41.6015 99.8572 42.31 100.086 42.9769C100.314 43.6438 100.687 44.2528 101.179 44.7609C101.671 45.269 102.269 45.6639 102.931 45.9176C103.593 46.1714 104.303 46.2778 105.011 46.2294H107.338V42.9437L105.584 42.8905ZM122.033 44.1337C121.303 44.8799 120.425 45.4673 119.455 45.8587C118.484 46.2501 117.442 46.4368 116.395 46.407C115.353 46.4373 114.316 46.2506 113.351 45.8591C112.386 45.4676 111.515 44.8798 110.793 44.1337C109.003 42.2511 108.573 39.8357 108.573 36.6033C108.573 33.371 109.021 30.9911 110.793 29.1085C111.515 28.3624 112.386 27.7746 113.351 27.3831C114.316 26.9915 115.353 26.8049 116.395 26.8352C117.442 26.8054 118.484 26.9921 119.455 27.3835C120.425 27.7748 121.303 28.3623 122.033 29.1085C123.823 30.9911 124.252 33.4065 124.252 36.6033C124.252 39.8002 123.805 42.2511 122.033 44.1337ZM119.169 31.3641C118.805 31.0061 118.371 30.7255 117.894 30.5392C117.417 30.353 116.907 30.265 116.395 30.2807C115.888 30.2646 115.383 30.3526 114.912 30.539C114.44 30.7254 114.013 31.0063 113.656 31.3641C112.799 32.9794 112.351 34.7776 112.351 36.6033C112.351 38.429 112.799 40.2273 113.656 41.8426C114.011 42.2051 114.438 42.4914 114.909 42.6839C115.38 42.8763 115.885 42.9708 116.395 42.9615C116.909 42.9705 117.42 42.876 117.897 42.6837C118.374 42.4914 118.807 42.2053 119.169 41.8426C120.026 40.2273 120.475 38.429 120.475 36.6033C120.475 34.7776 120.026 32.9794 119.169 31.3641ZM151.905 42.8905C150.384 42.8905 149.865 42.1445 149.865 40.6704V19.3581C149.645 19.0631 149.359 18.8229 149.03 18.6564C148.701 18.4899 148.337 18.4018 147.967 18.3991C147.597 18.399 147.233 18.4859 146.903 18.6526C146.573 18.8193 146.288 19.0611 146.07 19.3581V40.9013C145.993 41.6015 146.071 42.31 146.299 42.9769C146.528 43.6438 146.901 44.2528 147.393 44.7609C147.884 45.269 148.482 45.6639 149.144 45.9176C149.807 46.1714 150.517 46.2778 151.225 46.2294H153.57V42.9437L151.905 42.8905ZM138.088 46.1761V44.4001C137.46 45.0875 136.682 45.6228 135.813 45.9646C134.944 46.3064 134.008 46.4456 133.076 46.3715C132.159 46.4446 131.236 46.3242 130.37 46.0181C129.503 45.712 128.711 45.2271 128.047 44.5954C127.043 43.4655 126.512 41.9982 126.561 40.4928C126.561 37.2782 128.745 34.9871 133.04 34.9871H138.016V33.6374C138.016 31.222 136.817 30.0853 133.899 30.0853C133.116 29.9859 132.319 30.0984 131.595 30.411C130.87 30.7236 130.244 31.2247 129.783 31.8613L127.295 29.4815C128.101 28.5033 129.14 27.7396 130.318 27.259C131.496 26.7785 132.776 26.5962 134.043 26.7286C139.197 26.7286 141.793 28.9664 141.793 33.2999V46.0695L138.088 46.1761ZM138.088 37.74H133.667C131.447 37.74 130.302 38.7523 130.302 40.4751C130.302 42.1978 131.376 43.1924 133.738 43.1924C134.378 43.2813 135.03 43.2305 135.649 43.0433C136.267 42.8562 136.837 42.5373 137.318 42.109C137.951 41.3091 138.246 40.2967 138.141 39.2851L138.088 37.74ZM164.004 30.3517V27.4035H160.425V21.6137C160.2 21.3216 159.91 21.0847 159.578 20.9215C159.246 20.7583 158.88 20.6731 158.51 20.6724C158.158 20.6886 157.814 20.7833 157.504 20.9493C157.195 21.1153 156.926 21.3485 156.72 21.6314V27.4035H154.572V30.3517H156.72V40.8658C156.661 41.5621 156.752 42.263 156.987 42.9216C157.222 43.5803 157.596 44.1817 158.084 44.6858C158.571 45.1899 159.162 45.5852 159.815 45.8452C160.469 46.1052 161.171 46.2241 161.875 46.1939H164.13V42.9082H162.573C161.176 42.9082 160.514 42.0912 160.514 40.6882V30.3695L164.004 30.3517ZM179.737 44.1337C179.008 44.8799 178.13 45.4673 177.159 45.8587C176.188 46.2501 175.146 46.4368 174.099 46.407C173.057 46.4384 172.02 46.2523 171.055 45.8607C170.09 45.469 169.218 44.8807 168.497 44.1337C166.707 42.2511 166.278 39.8357 166.278 36.6033C166.278 33.371 166.725 30.9911 168.497 29.1085C169.218 28.3615 170.09 27.7731 171.055 27.3815C172.02 26.9899 173.057 26.8038 174.099 26.8352C175.146 26.8054 176.188 26.9921 177.159 27.3835C178.13 27.7748 179.008 28.3623 179.737 29.1085C181.527 30.9911 181.956 33.4065 181.956 36.6033C181.956 39.8002 181.509 42.2511 179.737 44.1337ZM176.873 31.3641C176.509 31.0061 176.075 30.7255 175.599 30.5392C175.122 30.353 174.611 30.265 174.099 30.2807C173.592 30.2646 173.087 30.3526 172.616 30.539C172.145 30.7254 171.717 31.0063 171.361 31.3641C170.503 32.9794 170.055 34.7776 170.055 36.6033C170.055 38.429 170.503 40.2273 171.361 41.8426C171.716 42.2051 172.142 42.4914 172.613 42.6839C173.084 42.8763 173.59 42.9708 174.099 42.9615C174.631 42.9781 175.161 42.884 175.654 42.6852C176.147 42.4864 176.593 42.1872 176.963 41.8071C177.82 40.1918 178.268 38.3935 178.268 36.5678C178.268 34.7421 177.82 32.9439 176.963 31.3285M185.16 57.5604C184.667 57.5604 184.193 57.3658 183.844 57.0194C183.495 56.673 183.299 56.2032 183.299 55.7133C183.299 55.2235 183.495 54.7537 183.844 54.4073C184.193 54.0609 184.667 53.8663 185.16 53.8663C185.654 53.8663 186.127 54.0609 186.477 54.4073C186.826 54.7537 187.022 55.2235 187.022 55.7133C187.022 56.2032 186.826 56.673 186.477 57.0194C186.127 57.3658 185.654 57.5604 185.16 57.5604ZM185.16 54.1327C184.956 54.1373 184.754 54.1818 184.567 54.2638C184.38 54.3457 184.211 54.4635 184.07 54.6102C183.928 54.757 183.818 54.93 183.744 55.1193C183.67 55.3086 183.634 55.5104 183.639 55.7133C183.639 56.1137 183.799 56.4977 184.085 56.7808C184.37 57.0639 184.757 57.223 185.16 57.223C185.564 57.223 185.951 57.0639 186.236 56.7808C186.521 56.4977 186.682 56.1137 186.682 55.7133C186.686 55.5104 186.651 55.3086 186.577 55.1193C186.503 54.93 186.392 54.757 186.251 54.6102C186.11 54.4635 185.941 54.3457 185.754 54.2638C185.566 54.1818 185.365 54.1373 185.16 54.1327ZM185.608 56.7257L185.142 55.8909H184.838V56.7257H184.57V54.701H185.25C185.331 54.6986 185.412 54.7125 185.488 54.7418C185.564 54.7711 185.633 54.8152 185.692 54.8715C185.75 54.9278 185.797 54.9952 185.828 55.0696C185.86 55.144 185.876 55.224 185.876 55.3049C185.88 55.4317 185.839 55.5558 185.76 55.6561C185.682 55.7564 185.571 55.8268 185.447 55.8554L185.93 56.7257H185.608ZM185.214 54.9497H184.838V55.6601H185.214C185.262 55.6625 185.311 55.6551 185.356 55.6383C185.402 55.6215 185.444 55.5958 185.479 55.5625C185.514 55.5293 185.542 55.4893 185.561 55.445C185.58 55.4007 185.59 55.353 185.59 55.3049C185.59 55.2567 185.58 55.209 185.561 55.1647C185.542 55.1204 185.514 55.0804 185.479 55.0472C185.444 55.014 185.402 54.9882 185.356 54.9714C185.311 54.9547 185.262 54.9473 185.214 54.9497ZM52.0501 37.2072C52.1323 36.787 52.3526 36.4057 52.6764 36.1229C53.0003 35.8401 53.4095 35.6718 53.84 35.6443V23.5851C53.8447 22.8504 53.7035 22.122 53.4245 21.4414C53.1455 20.7609 52.7342 20.1415 52.214 19.6187C51.6938 19.096 51.0749 18.6799 50.3926 18.3945C49.7104 18.109 48.9782 17.9597 48.2378 17.9551H23.5022C22.7618 17.9597 22.0296 18.109 21.3474 18.3945C20.6651 18.6799 20.0462 19.096 19.526 19.6187C19.0058 20.1415 18.5944 20.7609 18.3155 21.4414C18.0365 22.122 17.8953 22.8504 17.9 23.5851V48.3606C17.8953 49.0953 18.0365 49.8237 18.3155 50.5042C18.5944 51.1848 19.0058 51.8041 19.526 52.3269C20.0462 52.8497 20.6651 53.2657 21.3474 53.5512C22.0296 53.8366 22.7618 53.986 23.5022 53.9906H48.2199C48.9603 53.986 49.6925 53.8366 50.3747 53.5512C51.057 53.2657 51.6759 52.8497 52.1961 52.3269C52.7163 51.8041 53.1276 51.1848 53.4066 50.5042C53.6856 49.8237 53.8268 49.0953 53.8221 48.3606V40.5461C53.5709 40.6867 53.2871 40.7602 52.9987 40.7592C52.8025 40.7641 52.6077 40.7244 52.4292 40.6432C52.2507 40.562 52.0933 40.4414 51.969 40.2906C51.8447 40.1399 51.7567 39.9629 51.7119 39.7732C51.667 39.5836 51.6664 39.3863 51.71 39.1963L52.0501 37.2072ZM22.7684 40.3152L22.4283 42.3044C22.3461 42.7246 22.1258 43.1059 21.802 43.3887C21.4781 43.6715 21.069 43.8398 20.6385 43.8673C20.4422 43.8722 20.2474 43.8325 20.0689 43.7513C19.8905 43.6701 19.7331 43.5495 19.6088 43.3987C19.4844 43.2479 19.3965 43.0709 19.3516 42.8813C19.3067 42.6916 19.3061 42.4943 19.3498 42.3044L19.6899 40.3152C19.7721 39.895 19.9923 39.5137 20.3162 39.2309C20.64 38.9481 21.0492 38.7798 21.4797 38.7523C21.676 38.7474 21.8708 38.7871 22.0492 38.8683C22.2277 38.9495 22.3851 39.0701 22.5094 39.2209C22.6337 39.3717 22.7217 39.5487 22.7666 39.7383C22.8114 39.928 22.8121 40.1253 22.7684 40.3152ZM28.1379 40.3152L26.9208 47.2595C26.8451 47.6843 26.6272 48.0714 26.3025 48.3582C25.9777 48.645 25.565 48.8148 25.131 48.8401C24.9328 48.8457 24.736 48.8059 24.5559 48.7236C24.3758 48.6414 24.2172 48.5191 24.0925 48.3662C23.9678 48.2132 23.8804 48.0338 23.837 47.8419C23.7936 47.6499 23.7954 47.4506 23.8423 47.2595L25.0415 40.3152C25.1237 39.895 25.3439 39.5137 25.6678 39.2309C25.9916 38.9481 26.4008 38.7798 26.8313 38.7523C27.0276 38.7474 27.2224 38.7871 27.4008 38.8683C27.5793 38.9495 27.7367 39.0701 27.861 39.2209C27.9853 39.3717 28.0733 39.5487 28.1182 39.7383C28.1631 39.928 28.1637 40.1253 28.12 40.3152M33.9907 37.1539L31.6639 50.4563C31.5881 50.8811 31.3703 51.2682 31.0455 51.555C30.7208 51.8418 30.308 52.0116 29.874 52.037C29.6759 52.0426 29.4791 52.0027 29.299 51.9205C29.1188 51.8383 28.9603 51.716 28.8356 51.563C28.7109 51.4101 28.6234 51.2306 28.58 51.0387C28.5366 50.8468 28.5385 50.6475 28.5853 50.4563L30.8942 37.1539C30.97 36.7291 31.1878 36.342 31.5126 36.0552C31.8373 35.7684 32.2501 35.5986 32.6841 35.5732C32.8826 35.5684 33.0797 35.6086 33.2603 35.6907C33.4409 35.7728 33.6002 35.8947 33.7262 36.0471C33.8521 36.1995 33.9414 36.3784 33.9873 36.5702C34.0331 36.762 34.0342 36.9616 33.9907 37.1539ZM40.3983 30.8135L37.284 48.7513C37.2024 49.1735 36.9828 49.5572 36.6593 49.8429C36.3357 50.1287 35.9261 50.3006 35.4941 50.332C35.297 50.3341 35.102 50.2919 34.9237 50.2086C34.7454 50.1253 34.5884 50.003 34.4644 49.851C34.3405 49.699 34.2528 49.5211 34.2079 49.3306C34.1631 49.1402 34.1622 48.9421 34.2054 48.7513L37.3198 30.8135C37.4075 30.3959 37.6294 30.0178 37.9521 29.736C38.2749 29.4542 38.681 29.2839 39.1096 29.2506C39.3059 29.2457 39.5007 29.2854 39.6791 29.3666C39.8576 29.4478 40.015 29.5684 40.1393 29.7192C40.2636 29.87 40.3516 30.0469 40.3965 30.2366C40.4413 30.4262 40.442 30.6236 40.3983 30.8135ZM46.0005 29.0375L43.6916 42.3576C43.6122 42.7792 43.3928 43.1622 43.0684 43.4455C42.744 43.7288 42.3332 43.8961 41.9017 43.9205C41.704 43.9282 41.5071 43.8906 41.3264 43.8106C41.1456 43.7306 40.9859 43.6104 40.8596 43.4592C40.7332 43.3081 40.6436 43.1301 40.5978 42.9391C40.5519 42.748 40.551 42.5491 40.5952 42.3576L42.904 29.0375C42.9918 28.6199 43.2137 28.2418 43.5364 27.96C43.8592 27.6782 44.2653 27.5079 44.6939 27.4746C44.8901 27.4697 45.0849 27.5094 45.2634 27.5906C45.4419 27.6718 45.5993 27.7924 45.7236 27.9432C45.8479 28.0939 45.9359 28.2709 45.9807 28.4606C46.0256 28.6502 46.0263 28.8475 45.9826 29.0375M50.7435 32.2343L49.5443 39.1963C49.4566 39.6139 49.2347 39.992 48.9119 40.2738C48.5892 40.5556 48.1831 40.7259 47.7545 40.7592C47.5582 40.7641 47.3634 40.7244 47.185 40.6432C47.0065 40.562 46.8491 40.4414 46.7248 40.2906C46.6005 40.1399 46.5125 39.9629 46.4676 39.7732C46.4227 39.5836 46.4221 39.3863 46.4658 39.1963L47.6829 32.2343C47.7651 31.8141 47.9854 31.4328 48.3092 31.15C48.6331 30.8672 49.0423 30.6989 49.4727 30.6714C49.669 30.6665 49.8638 30.7062 50.0423 30.7874C50.2207 30.8686 50.3781 30.9892 50.5024 31.14C50.6268 31.2908 50.7147 31.4677 50.7596 31.6574C50.8045 31.8471 50.8051 32.0444 50.7614 32.2343" fill="white"/>
</g>
<defs>
<clipPath id="clip0_190_7276">
<rect width="200" height="72" fill="white"/>
</clipPath>
</defs>
</svg>
