<svg width="160" height="24" viewBox="0 0 160 24" fill="none" xmlns="http://www.w3.org/2000/svg">
<g clip-path="url(#clip0_190_7173)">
<path d="M68.7433 22.1896L61.7345 2.99429C61.6401 2.73897 61.5221 2.3676 61.5221 2.06586C61.5221 1.23027 62.2301 0.441101 63.2684 0.441101C64.1652 0.441101 64.7551 1.02137 65.0147 1.83375L70.82 18.3599L76.6725 1.78733C76.9321 0.998161 77.4749 0.441101 78.3717 0.441101H78.5604C79.5044 0.441101 80.0708 1.02137 80.354 1.78733L86.1593 18.3367L92.059 1.7177C92.295 1.02137 92.7669 0.394679 93.7109 0.394679C94.702 0.394679 95.41 1.13743 95.41 1.97302C95.41 2.27476 95.2684 2.62292 95.1976 2.90145L88.1416 22.12C87.7876 23.1181 87.0796 23.6519 86.2537 23.6519H86.1121C85.2153 23.6519 84.5545 23.1181 84.2242 22.12L78.466 5.82601L72.6607 22.12C72.354 23.1181 71.6696 23.6519 70.7964 23.6519H70.702C69.8053 23.7216 69.0973 23.1877 68.7433 22.1896ZM119.811 2.08907C119.811 1.16064 120.566 0.371468 121.51 0.371468C122.501 0.371468 123.257 1.11422 123.257 2.08907V5.98849C124.956 2.20512 128.708 0.41789 131.209 0.41789C132.248 0.41789 132.909 1.16064 132.909 2.13549C132.909 3.06392 132.271 3.71383 131.375 3.85309C126.914 4.38694 123.233 7.68288 123.233 14.2283V21.9343C123.233 22.8628 122.525 23.6519 121.534 23.6519C120.543 23.6519 119.788 22.9092 119.788 21.9343L119.811 2.08907ZM143.953 23.8608C137.723 23.8608 132.649 19.1258 132.649 12.1626V12.0697C132.649 5.59391 137.251 0.371468 143.504 0.371468C150.206 0.371468 154.029 5.8028 154.029 11.768C154.029 12.6732 153.274 13.3463 152.448 13.3463H136.071C136.543 18.2206 140.012 20.9595 144.047 20.9595C146.855 20.9595 148.909 19.8686 150.584 18.3367C150.844 18.1278 151.15 17.9421 151.552 17.9421C152.378 17.9421 153.038 18.592 153.038 19.3811C153.038 19.7757 152.873 20.1703 152.519 20.472C150.348 22.4914 147.799 23.8608 143.953 23.8608ZM150.655 10.8396C150.301 6.75445 147.941 3.17998 143.434 3.17998C139.493 3.17998 136.519 6.4295 136.071 10.8396H150.655ZM95.3864 16.8279V16.7351C95.3864 11.9537 99.3982 9.42369 105.227 9.42369C108.177 9.42369 110.254 9.81828 112.33 10.3985V9.60938C112.33 5.52427 109.782 3.4353 105.463 3.4353C103.15 3.4353 101.805 3.73704 100.106 4.47979C99.8938 4.57263 99.6578 4.61905 99.4926 4.61905C98.6902 4.61905 97.9823 3.96915 97.9823 3.17998C97.9823 2.48365 98.2891 2.04265 98.9262 1.76412C101.192 0.789263 102.914 0.464312 105.841 0.464312C109.097 0.464312 111.599 1.2999 113.274 2.97108C114.832 4.503 115.634 6.70803 115.634 9.58617V22.0968C115.634 23.0485 114.926 23.768 113.982 23.768C113.015 23.768 112.354 23.0717 112.354 22.1896V20.031C110.749 22.0968 108.059 23.9305 104.024 23.9305C99.7286 23.884 95.3864 21.4701 95.3864 16.8279ZM112.378 15.0639V12.8821C110.678 12.3947 108.413 11.9073 105.605 11.9073C101.286 11.9073 98.879 13.7409 98.879 16.5958V16.6887C98.879 19.5436 101.546 21.2148 104.684 21.2148C108.909 21.2148 112.378 18.6616 112.378 15.0639ZM6.30086 1.90338C5.5457 0.278625 3.6814 -0.464122 1.93508 0.301836C0.188771 1.06779 -0.448397 2.97108 0.330364 4.59584L7.646 20.2399C8.80234 22.7003 10.0059 23.9769 12.295 23.9769C14.7256 23.9769 15.7876 22.5842 16.9439 20.2399C16.9439 20.2399 23.3156 6.56876 23.3864 6.4295C23.4572 6.29023 23.646 5.84922 24.3068 5.84922C24.8495 5.84922 25.3215 6.29023 25.3215 6.8705V20.2399C25.3215 22.3057 26.4779 24.0001 28.7197 24.0001C30.9616 24.0001 32.1652 22.3057 32.1652 20.2399V9.30764C32.1652 7.19545 33.6991 5.82601 35.7994 5.82601C37.8997 5.82601 39.292 7.24187 39.292 9.30764V20.2399C39.292 22.3057 40.4484 24.0001 42.6902 24.0001C44.9321 24.0001 46.1357 22.3057 46.1357 20.2399V9.30764C46.1357 7.19545 47.6696 5.82601 49.7699 5.82601C51.8702 5.82601 53.2625 7.24187 53.2625 9.30764V20.2399C53.2625 22.3057 54.4189 24.0001 56.6607 24.0001C58.9026 24.0001 60.1062 22.3057 60.1062 20.2399V7.79893C60.1062 3.2264 56.3776 0.0233058 51.8702 0.0233058C47.3864 0.0233058 44.5546 3.08714 44.5546 3.08714C43.0678 1.16064 40.9911 9.50097e-05 37.4985 9.50097e-05C33.8171 9.50097e-05 30.5841 3.06392 30.5841 3.06392C29.0973 1.16064 26.5487 9.50097e-05 24.4248 9.50097e-05C21.1681 0.0233058 18.5723 1.43917 16.9911 4.99042L12.3186 15.8299L6.30086 1.90338ZM154.289 3.17998C154.289 1.62485 155.54 0.348258 157.145 0.348258C158.749 0.348258 160 1.60164 160 3.13356V3.15677C160 4.68868 158.749 5.98849 157.145 5.98849C155.54 5.98849 154.289 4.71189 154.289 3.17998ZM159.457 3.15677C159.457 1.88017 158.466 0.858896 157.145 0.858896C155.847 0.858896 154.832 1.90338 154.832 3.15677V3.17998C154.832 4.43336 155.823 5.47785 157.145 5.47785C158.442 5.47785 159.457 4.41015 159.457 3.15677Z" fill="#212529"/>
<path d="M156.059 2.06541C156.059 1.90294 156.201 1.76367 156.366 1.76367H157.31C157.664 1.76367 157.947 1.85652 158.112 2.0422C158.278 2.18147 158.348 2.41358 158.348 2.66889C158.348 3.08669 158.136 3.36522 157.806 3.50448L158.23 4.01512C158.278 4.08475 158.325 4.15439 158.325 4.24723C158.325 4.40971 158.183 4.52576 158.042 4.52576C157.9 4.52576 157.806 4.45613 157.735 4.36328L157.145 3.62054H156.649V4.20081C156.649 4.36328 156.508 4.50255 156.342 4.50255C156.177 4.50255 156.036 4.36328 156.036 4.20081L156.059 2.06541ZM157.286 3.08669C157.593 3.08669 157.735 2.92421 157.735 2.69211C157.735 2.43679 157.57 2.29752 157.263 2.29752H156.649V3.08669H157.286Z" fill="#212529"/>
</g>
<defs>
<clipPath id="clip0_190_7173">
<rect width="160" height="24" fill="white"/>
</clipPath>
</defs>
</svg>
