<svg width="120" height="126" viewBox="0 0 120 126" fill="none" xmlns="http://www.w3.org/2000/svg">
<path d="M23.2256 14.6896C23.2256 6.57565 29.7931 -0.00195312 37.8945 -0.00195312H78.2342C86.3355 -0.00195312 92.903 6.57565 92.903 14.6896V55.0913C92.903 63.2051 86.3355 69.7827 78.2342 69.7827H37.8945C29.7931 69.7827 23.2256 63.2051 23.2256 55.0913V14.6896Z" fill="#212529"/>
<path fill-rule="evenodd" clip-rule="evenodd" d="M74.5664 29.3823H41.5613C38.5232 29.3823 36.0604 31.849 36.0604 34.8916C36.0604 37.9345 38.5232 40.401 41.5613 40.401H74.5664C77.6045 40.401 80.0672 37.9345 80.0672 34.8916C80.0672 31.849 77.6045 29.3823 74.5664 29.3823ZM41.5613 23.873C35.4852 23.873 30.5596 28.8062 30.5596 34.8916C30.5596 40.9771 35.4852 45.9104 41.5613 45.9104H74.5664C80.6424 45.9104 85.568 40.9771 85.568 34.8916C85.568 28.8062 80.6424 23.873 74.5664 23.873H41.5613Z" fill="white"/>
<path fill-rule="evenodd" clip-rule="evenodd" d="M52.5648 18.3624V51.4182C52.5648 54.461 55.0277 56.9275 58.0656 56.9275C61.1038 56.9275 63.5665 54.461 63.5665 51.4182V18.3624C63.5665 15.3197 61.1038 12.8531 58.0656 12.8531C55.0277 12.8531 52.5648 15.3197 52.5648 18.3624ZM47.064 51.4182C47.064 57.5037 51.9896 62.4368 58.0656 62.4368C64.1417 62.4368 69.0673 57.5037 69.0673 51.4182V18.3624C69.0673 12.277 64.1417 7.34375 58.0656 7.34375C51.9896 7.34375 47.064 12.277 47.064 18.3624V51.4182Z" fill="white"/>
<path d="M0 120.49H1.21133C1.35455 120.209 1.49793 119.858 1.64115 119.437C1.79745 119.017 1.93422 118.545 2.05144 118.022C2.18174 117.499 2.28589 116.931 2.36404 116.319C2.44219 115.707 2.48127 115.063 2.48127 114.387V112.646H10.5503V120.49H11.8593V125.253H9.2608V122.536H2.5985V125.253H0V120.49ZM7.77595 120.49V114.674H5.06023V114.923C5.06023 115.535 5.02115 116.122 4.943 116.683C4.87792 117.244 4.7867 117.767 4.66947 118.251C4.55225 118.723 4.42856 119.151 4.29826 119.533C4.16796 119.916 4.04427 120.235 3.92705 120.49H7.77595ZM18.0141 122.785C17.2195 122.785 16.5032 122.664 15.865 122.422C15.2267 122.179 14.6796 121.835 14.2238 121.389C13.768 120.93 13.4163 120.381 13.1688 119.744C12.9212 119.106 12.7976 118.392 12.7976 117.601C12.7976 116.81 12.9212 116.096 13.1688 115.459C13.4163 114.808 13.768 114.26 14.2238 113.813C14.6796 113.354 15.2267 113.004 15.865 112.761C16.5032 112.506 17.2195 112.379 18.0141 112.379C18.8087 112.379 19.5249 112.506 20.1632 112.761C20.8144 113.004 21.3681 113.354 21.8239 113.813C22.2797 114.26 22.6314 114.808 22.8789 115.459C23.1265 116.096 23.2501 116.81 23.2501 117.601C23.2501 118.392 23.1265 119.106 22.8789 119.744C22.6314 120.381 22.2797 120.93 21.8239 121.389C21.3681 121.835 20.8144 122.179 20.1632 122.422C19.5249 122.664 18.8087 122.785 18.0141 122.785ZM18.0141 120.757C18.483 120.757 18.8737 120.668 19.1863 120.49C19.512 120.311 19.766 120.075 19.9483 119.782C20.1437 119.476 20.2804 119.138 20.3586 118.768C20.4367 118.385 20.4758 117.996 20.4758 117.601C20.4758 117.206 20.4367 116.817 20.3586 116.434C20.2804 116.052 20.1437 115.714 19.9483 115.42C19.766 115.127 19.512 114.891 19.1863 114.712C18.8737 114.521 18.483 114.426 18.0141 114.426C17.5452 114.426 17.1544 114.521 16.8418 114.712C16.5292 114.891 16.2752 115.127 16.0799 115.42C15.8976 115.714 15.7673 116.052 15.6891 116.434C15.611 116.817 15.5719 117.206 15.5719 117.601C15.5719 117.996 15.611 118.385 15.6891 118.768C15.7673 119.138 15.8976 119.476 16.0799 119.782C16.2752 120.075 16.5292 120.311 16.8418 120.49C17.1544 120.668 17.5452 120.757 18.0141 120.757ZM29.8603 122.785C28.8834 122.785 28.0758 122.607 27.4376 122.249C26.7994 121.892 26.2914 121.427 25.9137 120.853C25.549 120.279 25.295 119.635 25.1518 118.921C25.0084 118.207 24.9368 117.486 24.9368 116.759C24.9368 115.892 24.9759 115.063 25.0541 114.272C25.1322 113.469 25.3145 112.742 25.6011 112.092C25.8876 111.441 26.2978 110.88 26.832 110.408C27.379 109.924 28.1148 109.56 29.0397 109.318C29.3262 109.241 29.6583 109.19 30.0361 109.165C30.4269 109.139 30.7981 109.107 31.1498 109.069C31.5015 109.031 31.7945 108.98 32.029 108.916C32.2763 108.84 32.4066 108.719 32.4197 108.553H34.8619C34.8098 109.165 34.673 109.649 34.4516 110.007C34.2432 110.364 33.937 110.651 33.5334 110.867C33.1295 111.072 32.6346 111.225 32.0485 111.327C31.4624 111.416 30.772 111.499 29.9775 111.575C29.3523 111.639 28.8248 111.786 28.395 112.015C27.9652 112.245 27.6135 112.538 27.34 112.895C27.0664 113.239 26.858 113.635 26.7148 114.081C26.5845 114.515 26.4932 114.974 26.4412 115.459H26.4998C26.6171 115.127 26.7798 114.795 26.9883 114.464C27.2097 114.132 27.4832 113.832 27.8089 113.565C28.1344 113.297 28.5187 113.08 28.9616 112.914C29.4043 112.736 29.9123 112.646 30.4855 112.646C31.1236 112.646 31.7228 112.768 32.283 113.01C32.856 113.252 33.3509 113.597 33.7678 114.043C34.1846 114.489 34.5102 115.025 34.7447 115.65C34.9921 116.262 35.1159 116.951 35.1159 117.716C35.1159 118.494 34.9921 119.195 34.7447 119.82C34.5102 120.445 34.165 120.981 33.7092 121.427C33.2532 121.861 32.6997 122.198 32.0485 122.441C31.3972 122.67 30.6678 122.785 29.8603 122.785ZM30.0557 120.757C30.759 120.757 31.3125 120.496 31.7164 119.973C32.1331 119.45 32.3416 118.691 32.3416 117.697C32.3416 116.727 32.1396 115.975 31.7359 115.439C31.3321 114.891 30.759 114.617 30.0166 114.617C29.3132 114.617 28.7596 114.891 28.3559 115.439C27.9521 115.988 27.7502 116.747 27.7502 117.716C27.7502 118.711 27.9521 119.469 28.3559 119.992C28.7727 120.502 29.3393 120.757 30.0557 120.757ZM36.9216 112.646H39.5592V113.909H39.5983C39.9369 113.373 40.3667 112.984 40.8877 112.742C41.4086 112.5 41.9819 112.379 42.6071 112.379C43.4015 112.379 44.0853 112.525 44.6585 112.819C45.2316 113.112 45.7069 113.501 46.0847 113.986C46.4624 114.47 46.7424 115.038 46.9249 115.688C47.1072 116.326 47.1984 116.995 47.1984 117.697C47.1984 118.36 47.1072 118.997 46.9249 119.61C46.7424 120.222 46.4624 120.764 46.0847 121.236C45.72 121.708 45.2576 122.084 44.6976 122.364C44.1505 122.645 43.5058 122.785 42.7634 122.785C42.1382 122.785 41.5585 122.664 41.0245 122.422C40.5035 122.167 40.0736 121.797 39.735 121.312H39.696V125.999H36.9216V112.646ZM42.0209 120.757C42.4768 120.757 42.8544 120.668 43.1541 120.49C43.4667 120.311 43.7141 120.082 43.8965 119.801C44.0919 119.508 44.2287 119.176 44.3068 118.806C44.385 118.424 44.4241 118.028 44.4241 117.62C44.4241 117.225 44.3784 116.836 44.2873 116.453C44.2091 116.071 44.0724 115.733 43.877 115.439C43.6816 115.133 43.4276 114.891 43.115 114.712C42.8154 114.521 42.4441 114.426 42.0014 114.426C41.5454 114.426 41.1613 114.521 40.8487 114.712C40.549 114.891 40.3016 115.127 40.1063 115.42C39.9238 115.714 39.7936 116.058 39.7155 116.453C39.6373 116.836 39.5983 117.225 39.5983 117.62C39.5983 118.028 39.6373 118.424 39.7155 118.806C39.8066 119.176 39.9433 119.508 40.1258 119.801C40.3212 120.082 40.5685 120.311 40.8682 120.49C41.1808 120.668 41.565 120.757 42.0209 120.757ZM53.7693 122.785C52.9749 122.785 52.2585 122.664 51.6202 122.422C50.9821 122.179 50.435 121.835 49.979 121.389C49.5232 120.93 49.1715 120.381 48.924 119.744C48.6766 119.106 48.5528 118.392 48.5528 117.601C48.5528 116.81 48.6766 116.096 48.924 115.459C49.1715 114.808 49.5232 114.26 49.979 113.813C50.435 113.354 50.9821 113.004 51.6202 112.761C52.2585 112.506 52.9749 112.379 53.7693 112.379C54.5639 112.379 55.2803 112.506 55.9184 112.761C56.5698 113.004 57.1233 113.354 57.5791 113.813C58.0351 114.26 58.3868 114.808 58.6342 115.459C58.8817 116.096 59.0054 116.81 59.0054 117.601C59.0054 118.392 58.8817 119.106 58.6342 119.744C58.3868 120.381 58.0351 120.93 57.5791 121.389C57.1233 121.835 56.5698 122.179 55.9184 122.422C55.2803 122.664 54.5639 122.785 53.7693 122.785ZM53.7693 120.757C54.2382 120.757 54.629 120.668 54.9416 120.49C55.2672 120.311 55.5212 120.075 55.7035 119.782C55.8989 119.476 56.0357 119.138 56.1138 118.768C56.192 118.385 56.2311 117.996 56.2311 117.601C56.2311 117.206 56.192 116.817 56.1138 116.434C56.0357 116.052 55.8989 115.714 55.7035 115.42C55.5212 115.127 55.2672 114.891 54.9416 114.712C54.629 114.521 54.2382 114.426 53.7693 114.426C53.3004 114.426 52.9097 114.521 52.5971 114.712C52.2845 114.891 52.0305 115.127 51.8351 115.42C51.6528 115.714 51.5225 116.052 51.4443 116.434C51.3662 116.817 51.3271 117.206 51.3271 117.601C51.3271 117.996 51.3662 118.385 51.4443 118.768C51.5225 119.138 51.6528 119.476 51.8351 119.782C52.0305 120.075 52.2845 120.311 52.5971 120.49C52.9097 120.668 53.3004 120.757 53.7693 120.757ZM60.907 112.646H68.5266V114.693H63.6813V122.536H60.907V112.646ZM74.5661 122.785C73.7716 122.785 73.0553 122.664 72.417 122.422C71.7787 122.179 71.2317 121.835 70.7759 121.389C70.32 120.93 69.9684 120.381 69.7208 119.744C69.4733 119.106 69.3496 118.392 69.3496 117.601C69.3496 116.81 69.4733 116.096 69.7208 115.459C69.9684 114.808 70.32 114.26 70.7759 113.813C71.2317 113.354 71.7787 113.004 72.417 112.761C73.0553 112.506 73.7716 112.379 74.5661 112.379C75.3607 112.379 76.077 112.506 76.7153 112.761C77.3665 113.004 77.9201 113.354 78.376 113.813C78.8328 114.26 79.1845 114.808 79.431 115.459C79.679 116.096 79.8022 116.81 79.8022 117.601C79.8022 118.392 79.679 119.106 79.431 119.744C79.1845 120.381 78.8328 120.93 78.376 121.389C77.9201 121.835 77.3665 122.179 76.7153 122.422C76.077 122.664 75.3607 122.785 74.5661 122.785ZM74.5661 120.757C75.035 120.757 75.4258 120.668 75.7384 120.49C76.0641 120.311 76.3181 120.075 76.5004 119.782C76.6957 119.476 76.8325 119.138 76.9107 118.768C76.9888 118.385 77.0279 117.996 77.0279 117.601C77.0279 117.206 76.9888 116.817 76.9107 116.434C76.8325 116.052 76.6957 115.714 76.5004 115.42C76.3181 115.127 76.0641 114.891 75.7384 114.712C75.4258 114.521 75.035 114.426 74.5661 114.426C74.0972 114.426 73.7065 114.521 73.3939 114.712C73.0813 114.891 72.8273 115.127 72.6319 115.42C72.4496 115.714 72.3193 116.052 72.2412 116.434C72.163 116.817 72.124 117.206 72.124 117.601C72.124 117.996 72.163 118.385 72.2412 118.768C72.3193 119.138 72.4496 119.476 72.6319 119.782C72.8273 120.075 73.0813 120.311 73.3939 120.49C73.7065 120.668 74.0972 120.757 74.5661 120.757ZM86.1264 120.49H87.3377C87.4805 120.209 87.6232 119.858 87.7675 119.437C87.9238 119.017 88.0606 118.545 88.1778 118.022C88.3071 117.499 88.4123 116.931 88.4904 116.319C88.5686 115.707 88.6076 115.063 88.6076 114.387V112.646H96.6766V120.49H97.9857V125.253H95.3872V122.536H88.7249V125.253H86.1264V120.49ZM93.9023 120.49V114.674H91.1866V114.923C91.1866 115.535 91.1475 116.122 91.0694 116.683C91.0033 117.244 90.9131 117.767 90.7958 118.251C90.6786 118.723 90.5539 119.151 90.4246 119.533C90.2939 119.916 90.1706 120.235 90.0534 120.49H93.9023ZM99.2361 112.646H102.01V116.243H105.937V112.646H108.712V122.536H105.937V118.385H102.01V122.536H99.2361V112.646ZM112.966 118.825C112.25 118.711 111.663 118.373 111.208 117.811C110.765 117.25 110.544 116.562 110.544 115.745C110.544 115.312 110.622 114.91 110.778 114.54C110.948 114.158 111.183 113.826 111.482 113.546C111.781 113.265 112.132 113.048 112.537 112.895C112.941 112.729 113.39 112.646 113.885 112.646H120V122.536H117.226V119.055H115.917L113.162 122.536H109.762L112.966 118.825ZM117.226 114.617H115.018C114.379 114.617 113.943 114.732 113.709 114.961C113.474 115.178 113.357 115.471 113.357 115.841C113.357 116.224 113.468 116.53 113.689 116.759C113.924 116.989 114.367 117.104 115.018 117.104H117.226V114.617Z" fill="#212529"/>
<path d="M8.34283 100.799C7.4695 100.799 6.64517 100.703 5.86984 100.511C5.09452 100.344 4.40855 100.057 3.80904 99.65C3.23547 99.2192 2.77142 98.6807 2.42267 98.0346C2.09697 97.3644 1.93555 96.5628 1.93555 95.6294C1.93555 94.5765 2.12291 93.715 2.49761 93.0448C2.8723 92.3747 3.35941 91.8362 3.95892 91.4294C4.58437 90.9987 5.28187 90.6756 6.0572 90.4602C6.85558 90.2448 7.66838 90.0653 8.49271 89.9218C9.36603 89.7541 10.1904 89.6346 10.9657 89.5628C11.7641 89.467 12.4645 89.3474 13.064 89.2038C13.6635 89.0362 14.1391 88.8089 14.4878 88.5218C14.8366 88.2106 15.0124 87.7679 15.0124 87.1935C15.0124 86.5234 14.874 85.9849 14.6002 85.5782C14.3495 85.1714 14.0122 84.8602 13.5885 84.6448C13.1879 84.4294 12.7268 84.2859 12.2022 84.2141C11.7036 84.1423 11.202 84.1064 10.7034 84.1064C9.3545 84.1064 8.23042 84.3577 7.33116 84.8602C6.4319 85.3388 5.94478 86.2602 5.86984 87.6243H2.68496C2.73396 86.4756 2.9847 85.5064 3.43433 84.7166C3.88397 83.9269 4.4835 83.2926 5.23289 82.8141C5.98227 82.3115 6.8325 81.9525 7.78076 81.7371C8.75497 81.5218 9.79261 81.4141 10.8907 81.4141C11.7641 81.4141 12.6259 81.474 13.4761 81.5935C14.3495 81.7131 15.1363 81.9644 15.8367 82.3474C16.5371 82.7064 17.0991 83.2208 17.5228 83.891C17.9465 84.5612 18.1598 85.4346 18.1598 86.5115V96.0602C18.1598 96.7782 18.1972 97.3048 18.2722 97.6397C18.3731 97.9747 18.6728 98.1423 19.1715 98.1423C19.3963 98.1423 19.722 98.0823 20.1457 97.9628V100.332C19.5952 100.643 18.8342 100.799 17.86 100.799C17.0357 100.799 16.3728 100.583 15.8741 100.153C15.3986 99.6977 15.1622 98.9679 15.1622 97.9628C14.2889 98.9679 13.2628 99.6977 12.0898 100.153C10.9397 100.583 9.69172 100.799 8.34283 100.799ZM9.05473 98.1423C10.1039 98.1423 11.0031 98.0106 11.7525 97.7474C12.5019 97.4602 13.1129 97.1131 13.5885 96.7064C14.0641 96.2756 14.4129 95.8208 14.6377 95.3423C14.8625 94.8397 14.9749 94.373 14.9749 93.9423V90.8192C14.5743 91.1304 14.0497 91.3458 13.4012 91.4653C12.7527 91.5849 12.0638 91.6926 11.3404 91.7884C10.64 91.8842 9.92806 91.9798 9.20461 92.0756C8.48116 92.1714 7.82979 92.3388 7.25622 92.5782C6.68265 92.8176 6.20707 93.1644 5.83237 93.6192C5.48362 94.05 5.30783 94.6483 5.30783 95.4141C5.30783 95.9166 5.40867 96.3474 5.60755 96.7064C5.83237 97.0413 6.10621 97.3166 6.43191 97.532C6.78066 97.7474 7.18129 97.9029 7.63093 97.9987C8.08056 98.0945 8.5561 98.1423 9.05473 98.1423ZM23.1086 81.8448H38.9207V100.404H35.7358V84.5371H26.2935V100.404H23.1086V81.8448ZM48.3947 84.5371H41.4628V81.8448H58.5114V84.5371H51.5795V100.404H48.3947V84.5371ZM69.2968 100.799C67.749 100.799 66.3886 100.559 65.2127 100.081C64.0655 99.6022 63.1028 98.932 62.3275 98.0705C61.555 97.2089 60.9671 96.1798 60.5665 94.9833C60.1918 93.7868 60.0044 92.4824 60.0044 91.0705C60.0044 89.6823 60.2292 88.4022 60.6789 87.2294C61.1285 86.033 61.7539 85.0038 62.5523 84.1423C63.3766 83.2807 64.3393 82.6106 65.4375 82.132C66.5616 81.6535 67.7865 81.4141 69.1094 81.4141C70.833 81.4141 72.2569 81.7612 73.381 82.4551C74.531 83.1253 75.4418 83.9868 76.1162 85.0397C76.8166 86.0926 77.2922 87.2413 77.54 88.4859C77.8167 89.7304 77.9292 90.915 77.8773 92.0397H63.3766C63.3536 92.8535 63.4516 93.6311 63.6764 94.373C63.9012 95.091 64.2644 95.7371 64.763 96.3115C65.2645 96.8618 65.9015 97.3048 66.6739 97.6397C67.4493 97.9747 68.3601 98.1423 69.4092 98.1423C70.7581 98.1423 71.8591 97.8432 72.7065 97.2448C73.5827 96.6465 74.1563 95.7371 74.4301 94.5166H77.5775C77.1538 96.6227 76.2171 98.2022 74.7673 99.2551C73.3204 100.284 71.496 100.799 69.2968 100.799ZM74.5051 89.3474C74.4561 88.6294 74.2802 87.9474 73.9805 87.3012C73.7066 86.6551 73.3204 86.1048 72.8189 85.65C72.3462 85.1714 71.7698 84.8003 71.0953 84.5371C70.4468 84.25 69.7234 84.1064 68.9221 84.1064C68.0978 84.1064 67.3484 84.25 66.6739 84.5371C66.0254 84.8003 65.4634 85.1714 64.9878 85.65C64.5151 86.1285 64.1404 86.691 63.8638 87.3371C63.5899 87.9593 63.4285 88.6294 63.3766 89.3474H74.5051ZM81.1803 81.8448H84.3652V90.7115L93.2455 81.8448H97.4795L88.8991 89.8859L98.4912 100.404H94.407L86.3137 91.573L84.3652 93.4038V100.404H81.1803V81.8448ZM106.262 100.799C105.386 100.799 104.561 100.703 103.789 100.511C103.013 100.344 102.327 100.057 101.728 99.65C101.151 99.2192 100.69 98.6807 100.342 98.0346C100.016 97.3644 99.8545 96.5628 99.8545 95.6294C99.8545 94.5765 100.042 93.715 100.417 93.0448C100.791 92.3747 101.278 91.8362 101.878 91.4294C102.5 90.9987 103.201 90.6756 103.976 90.4602C104.774 90.2448 105.587 90.0653 106.412 89.9218C107.285 89.7541 108.109 89.6346 108.885 89.5628C109.683 89.467 110.383 89.3474 110.983 89.2038C111.582 89.0362 112.055 88.8089 112.407 88.5218C112.755 88.2106 112.931 87.7679 112.931 87.1935C112.931 86.5234 112.793 85.9849 112.519 85.5782C112.268 85.1714 111.931 84.8602 111.507 84.6448C111.107 84.4294 110.646 84.2859 110.121 84.2141C109.62 84.1423 109.121 84.1064 108.622 84.1064C107.273 84.1064 106.149 84.3577 105.25 84.8602C104.351 85.3388 103.864 86.2602 103.789 87.6243H100.604C100.653 86.4756 100.904 85.5064 101.353 84.7166C101.803 83.9269 102.402 83.2926 103.152 82.8141C103.901 82.3115 104.749 81.9525 105.7 81.7371C106.674 81.5218 107.709 81.4141 108.81 81.4141C109.683 81.4141 110.545 81.474 111.395 81.5935C112.268 81.7131 113.055 81.9644 113.756 82.3474C114.453 82.7064 115.015 83.2208 115.442 83.891C115.865 84.5612 116.079 85.4346 116.079 86.5115V96.0602C116.079 96.7782 116.116 97.3048 116.191 97.6397C116.289 97.9747 116.589 98.1423 117.09 98.1423C117.315 98.1423 117.638 98.0823 118.065 97.9628V100.332C117.514 100.643 116.753 100.799 115.779 100.799C114.955 100.799 114.292 100.583 113.793 100.153C113.318 99.6977 113.081 98.9679 113.081 97.9628C112.205 98.9679 111.182 99.6977 110.009 100.153C108.859 100.583 107.611 100.799 106.262 100.799ZM106.974 98.1423C108.023 98.1423 108.922 98.0106 109.671 97.7474C110.421 97.4602 111.032 97.1131 111.507 96.7064C111.98 96.2756 112.332 95.8208 112.557 95.3423C112.781 94.8397 112.894 94.373 112.894 93.9423V90.8192C112.493 91.1304 111.969 91.3458 111.32 91.4653C110.669 91.5849 109.983 91.6926 109.259 91.7884C108.559 91.8842 107.847 91.9798 107.124 92.0756C106.397 92.1714 105.749 92.3388 105.175 92.5782C104.599 92.8176 104.126 93.1644 103.751 93.6192C103.4 94.05 103.227 94.6483 103.227 95.4141C103.227 95.9166 103.325 96.3474 103.527 96.7064C103.751 97.0413 104.025 97.3166 104.351 97.532C104.7 97.7474 105.1 97.9029 105.55 97.9987C105.999 98.0945 106.472 98.1423 106.974 98.1423Z" fill="#212529"/>
</svg>
