<svg width="200" height="56" viewBox="0 0 200 56" fill="none" xmlns="http://www.w3.org/2000/svg">
<path d="M76.6866 27.844C76.6418 27.4736 76.597 27.1032 76.7214 26.3921C77.0159 25.7975 76.9473 25.6023 76.685 25.4659C76.6952 22.4622 74.9141 22.6188 72.523 23.353C72.523 27.0344 72.523 30.7514 72.523 34.7149C71.2525 34.7149 70.2738 34.7149 69.2046 34.138C69.0487 32.9557 68.9832 32.3504 68.9177 31.745C68.9238 31.3999 68.9298 31.0548 69.0171 30.1923C69.0307 29.3139 68.9631 28.9527 68.8955 28.5915C68.9113 27.2394 68.9271 25.8872 69.0228 23.8503C69.0343 20.4975 68.9661 17.8294 68.8979 15.1613C68.9156 14.8072 68.9334 14.4531 69.0351 13.5816C69.08 12.7048 69.041 12.3455 69.0019 11.9861C69.0455 11.6326 69.089 11.279 69.111 10.6591C69.0894 10.3927 69.3115 10.1245 69.453 9.71059C71.6007 8.65351 73.607 8.01035 75.6133 7.36719C76.6731 7.54487 77.7328 7.72255 79.045 8.0242C79.6574 16.1979 79.9806 24.2494 80.404 32.2959C80.5063 34.2401 80.0742 35.3436 77.4639 34.6759C76.9883 34.3 76.8513 34.201 76.6693 34.1627C76.6241 33.7926 76.5788 33.4226 76.7539 32.6208C76.862 31.5314 76.7497 30.8737 76.6374 30.2159C76.6071 29.8463 76.5767 29.4766 76.7174 28.7684C77.0167 28.176 76.9495 27.9807 76.6866 27.844ZM76.3601 12.5968C75.1752 12.0522 73.9903 11.5075 72.5277 10.8353C72.5277 14.4164 72.5277 16.9926 72.5277 19.692C73.8092 19.692 74.9125 19.692 76.3711 19.692C76.3711 17.455 76.3711 15.3937 76.3601 12.5968Z" fill="#212529"/>
<path d="M11.4969 22.2693C7.39833 22.2693 3.69917 22.2693 0 22.2693C0.000983645 22.0936 0.00196744 21.9179 0.00294868 21.7422C14.9186 21.7422 29.8343 21.7422 44.75 21.7422C44.7524 21.9179 44.7549 22.0936 44.7574 22.2693C33.8037 22.2693 22.85 22.2693 11.4969 22.2693Z" fill="#212529"/>
<path d="M172.514 21.4785C181.941 21.4785 190.97 21.4785 200 21.4785C200 21.6591 199.999 21.8397 199.999 22.0203C187.567 22.0203 175.135 22.0203 162.703 22.0203C162.7 21.8397 162.697 21.6591 162.694 21.4785C165.835 21.4785 168.976 21.4785 172.514 21.4785Z" fill="#212529"/>
<path d="M101.345 42.4746C100.825 42.7836 100.475 42.8139 99.8628 42.8582C98.124 42.0429 95.1797 42.4184 96.6887 39.0163C97.6901 38.9371 98.8467 38.8456 100.316 38.7294C100.316 28.2842 100.225 17.816 100.37 7.35092C100.415 4.06881 103.24 3.98069 105.662 4.00201C108.98 4.03122 111.636 6.43377 111.654 9.39931C111.704 17.5653 111.664 25.7318 111.66 33.8982C111.66 35.3377 111.66 36.7773 112.332 37.7895C113.329 39.06 114.327 40.3306 115.792 42.1959C110.161 42.1959 105.839 42.1959 101.345 42.4746ZM103.683 33.5653C103.683 35.2019 103.683 36.8385 103.683 38.6951C104.841 38.6951 106.394 38.6951 107.936 38.6951C107.936 28.3262 107.936 17.9256 107.936 7.42481C106.483 7.42481 105.213 7.42481 103.683 7.42481C103.683 16.0247 103.683 24.4203 103.683 33.5653Z" fill="#212529"/>
<path d="M145.595 35.0074C144.527 34.2942 143.176 33.5255 143.156 32.7243C142.995 26.303 142.964 19.8724 143.14 13.4511C143.262 8.95444 144.835 7.72321 149.411 7.88018C153.458 8.01904 154.758 9.43712 154.777 13.9484C154.804 20.6366 154.763 27.3251 154.756 34.3714C153.603 34.818 152.444 34.9069 150.686 35.0416C150.686 31.2738 150.686 27.712 150.222 23.6954C148.886 23.2407 148.013 23.2407 146.999 23.2407C146.999 25.0789 146.999 26.8408 146.999 28.6026C146.643 30.714 146.286 32.8254 145.595 35.0074ZM150.653 19.5469C150.653 16.7241 150.653 13.9013 150.653 10.768C149.046 10.9371 147.673 11.0816 146.012 11.2563C146.274 13.9089 146.355 16.2253 146.771 18.4812C147.109 20.3096 148.212 21.1838 150.653 19.5469Z" fill="#212529"/>
<path d="M85.2103 9.64428C88.6211 8.89969 92.0052 8.1269 95.8195 7.25586C95.8195 16.74 95.8195 25.251 95.8195 33.7491C92.1364 34.8908 92.287 32.4903 92.3173 30.156C92.3461 27.9416 92.3235 25.7267 92.3235 23.3025C90.9201 23.3025 89.8156 23.3025 88.3574 23.3025C88.3574 26.2832 88.5696 29.175 88.2456 32.0069C88.1277 33.0373 86.7319 33.9249 85.9191 34.8777C85.382 33.9647 84.3296 33.0112 84.3993 32.1459C84.6672 28.8221 85.3287 25.5309 85.7595 22.2168C85.8453 21.5571 85.4897 20.8535 85.4603 20.165C85.3198 16.8758 85.2215 13.5849 85.178 9.97682C85.2479 9.65898 85.1837 9.61609 85.2103 9.64428ZM88.3709 16.9879C87.9614 20.2858 89.8142 20.1258 92.0961 19.551C92.0961 16.677 92.0961 14.0089 92.0961 11.0846C90.7491 11.1698 89.6565 11.239 88.3649 11.3208C88.3649 13.1623 88.3649 14.7071 88.3709 16.9879Z" fill="#212529"/>
<path d="M61.4372 35.0084C59.0163 35.0352 56.8663 34.9842 54.3601 34.9049C54.0039 26.0768 54.0039 17.277 54.0039 8.23633C56.8866 8.23633 59.6154 8.23633 62.521 8.23633C63.5912 12.647 59.5448 10.3132 57.9561 11.6062C57.9561 14.1034 57.9561 16.795 57.9561 19.4739C65.3632 20.5924 67.1479 23.7042 65.2272 32.2344C64.0791 33.3489 62.8936 34.1398 61.4372 35.0084ZM61.8322 23.7125C60.5771 23.4486 59.3221 23.1847 57.9928 22.9052C57.9928 26.2185 57.9928 28.9062 57.9928 31.6543C59.3765 31.6543 60.4984 31.6543 61.9072 31.6543C61.9072 29.1228 61.9072 26.7864 61.8322 23.7125Z" fill="#212529"/>
<path d="M128.198 9.16852C131.141 8.73489 134.19 8.44506 137.184 8.72703C138.082 8.81152 139.493 10.4751 139.518 11.444C139.603 14.7676 139.177 18.104 138.624 21.8324C138.073 22.466 137.845 22.7028 137.618 22.9396C137.618 22.9396 137.394 22.8697 136.966 22.9495C135.115 23.1107 133.693 23.1921 132.091 23.2838C132.18 24.4264 132.25 25.3231 132.32 26.2197C132.258 27.3225 132.196 28.4254 132.121 30.1635C132.061 32.1198 132.013 33.441 131.964 34.7622C131.964 34.7622 131.882 34.5629 131.797 34.4944C128.997 34.3062 128.141 33.0162 128.229 30.2705C128.449 23.3638 128.291 16.4452 128.198 9.16852ZM135.933 14.0264C136.212 10.9714 134.834 10.4139 132.181 11.5395C132.181 14.3443 132.181 17.0382 132.181 20.0539C133.533 19.953 134.63 19.8712 135.935 19.7738C135.935 17.8946 135.935 16.3402 135.933 14.0264Z" fill="#212529"/>
<path d="M89.4875 42.7234C78.5503 42.7384 67.8954 42.779 57.2429 42.6415C56.1371 42.6272 55.0452 41.5553 53.9468 40.9742C55.0569 40.2651 56.1583 38.9559 57.2786 38.9399C68.4638 38.7797 79.6521 38.8326 91.213 38.7892C91.5864 38.7531 91.9227 38.878 92.1362 39.2123C92.3624 40.3826 92.375 41.2185 92.3876 42.0544C91.5152 42.2689 90.6429 42.4834 89.4875 42.7234Z" fill="#212529"/>
<path d="M124.356 31.8082C123.341 32.8522 122.5 34.4042 121.27 34.8128C119.693 35.3364 117.803 34.94 115.842 34.94C115.842 26.065 115.842 17.3178 115.842 8.81056C118.167 8.81056 120.486 8.69386 122.778 8.88564C123.419 8.93926 123.983 9.90257 124.494 10.8092C124.406 11.1699 124.399 11.1416 124.047 11.1138C122.436 11.0861 121.179 11.0861 119.764 11.0861C119.764 12.9406 119.764 14.4446 119.705 16.2071C119.683 16.8147 119.721 17.1639 119.759 17.5131C119.354 19.0912 119.701 19.9021 121.621 19.9562C122.691 19.9864 123.739 20.7868 124.797 21.2401C124.753 21.6068 124.709 21.9736 124.665 22.3404C123.114 22.7067 121.562 23.0729 119.613 23.5328C119.613 25.5508 119.402 27.7866 119.729 29.9425C119.843 30.6869 121.297 31.2325 122.736 31.8536C123.674 31.8284 124.015 31.8183 124.356 31.8082Z" fill="#212529"/>
<path d="M154.712 42.4002C143.522 42.5839 132.348 42.6498 120.799 42.7227C120.106 41.6908 119.789 40.6518 119.271 38.9512C131.274 38.9512 142.661 38.9512 154.411 39.0065C154.78 39.3777 154.785 39.6937 154.81 40.5071C154.83 41.3583 154.829 41.7121 154.828 42.0658C154.828 42.0658 154.728 42.2822 154.712 42.4002Z" fill="#212529"/>
<path d="M68.7258 15.3848C68.966 17.8297 69.0343 20.4978 68.9941 23.5137C68.775 21.1103 68.6644 18.3591 68.7258 15.3848Z" fill="#212529"/>
<path d="M76.5593 30.5C76.7498 30.8766 76.8621 31.5343 76.822 32.3493C76.6067 31.9315 76.5439 31.3563 76.5593 30.5Z" fill="#212529"/>
<path d="M68.7567 31.9121C68.9825 32.3559 69.048 32.9612 69.0142 33.8569C68.8088 33.4561 68.7026 32.7649 68.7567 31.9121Z" fill="#212529"/>
<path d="M68.7464 28.7148C68.9634 28.9547 69.0311 29.3159 68.9921 29.9363C68.7893 29.7424 68.6932 29.2893 68.7464 28.7148Z" fill="#212529"/>
<path d="M68.8516 12.1074C69.041 12.3459 69.08 12.7053 69.0105 13.317C68.835 13.1223 68.7682 12.6753 68.8516 12.1074Z" fill="#212529"/>
<path d="M76.6168 28.0256C76.9485 27.9821 77.0157 28.1773 76.7857 28.499C76.6839 28.5668 76.548 28.2058 76.6168 28.0256Z" fill="#212529"/>
<path d="M76.6164 34.3334C76.8511 34.204 76.9881 34.303 77.1199 34.5854C77.1596 34.7082 76.8075 34.7564 76.8075 34.7564C76.8075 34.7564 76.5636 34.501 76.6164 34.3334Z" fill="#212529"/>
<path d="M76.6171 25.6506C76.9471 25.607 77.0156 25.8022 76.7884 26.123C76.6865 26.1898 76.5496 25.8306 76.6171 25.6506Z" fill="#212529"/>
</svg>
