<svg width="200" height="60" viewBox="0 0 200 60" fill="none" xmlns="http://www.w3.org/2000/svg">
<g clip-path="url(#clip0_188_4773)">
<path d="M38.6872 0.492188C39.6076 0.836246 40.3121 1.15677 40.9882 1.52872C43.1215 2.70225 43.8181 4.74115 42.8328 7.37534C42.3568 8.64788 41.6053 9.8177 40.7039 11.1999C37.1212 12.497 33.8131 13.6282 30.3869 14.7218C30.1717 14.5536 30.0746 14.4228 29.9926 14.1354C29.7295 13.706 29.4515 13.4333 29.0851 13.0305C28.3925 12.5022 27.7883 12.1039 27.1095 11.5915C26.7934 11.3529 26.552 11.2283 26.2261 11.0147C26.0042 10.8303 25.8528 10.7699 25.5836 10.6131C24.3615 9.98898 23.2432 9.49634 21.9398 8.92899C20.4034 8.68595 19.0521 8.51761 17.6968 8.17804C20.7147 6.01796 23.6528 3.88198 26.7938 2.10291C28.3424 1.22581 30.2658 1.00821 32.0195 0.492188C34.1658 0.492188 36.312 0.492188 38.6872 0.492188Z" fill="#212529"/>
<path d="M66.2068 60.4918C66.0098 54.5502 66.0098 48.6085 66.0098 42.2712C66.8792 42.4779 68.082 42.764 69.809 43.1747C70.6826 42.4252 72.6214 41.3922 74.2142 42.793C75.3653 43.8054 75.626 45.8275 76.2784 47.4015C76.3073 47.4713 76.2818 47.5633 76.2821 47.645C76.3158 54.649 76.0829 54.9236 69.4975 55.7639C68.4502 57.0865 70.4504 59.2269 68.0599 60.3177C67.4548 60.4918 66.9293 60.4918 66.2068 60.4918ZM69.1887 51.2397C69.252 51.8449 69.3153 52.4502 69.3754 53.0239C72.7673 53.1532 72.906 53.0221 72.9154 49.8549C72.9183 48.8751 73.1381 47.823 72.8498 46.9365C72.5825 46.1148 71.8783 45.0141 71.1731 44.8463C69.8757 44.5375 69.0977 45.3988 69.1748 46.8717C69.2431 48.1746 69.1888 49.4838 69.1887 51.2397Z" fill="#212529"/>
<path d="M200.493 30.8224C199.088 30.7205 197.682 30.4546 195.671 30.0742C194.798 30.7467 192.89 31.9093 191.282 30.4165C190.142 29.3578 189.514 27.4018 189.311 25.7655C188.993 23.1978 189.227 20.562 189.227 17.8262C190.353 17.8262 191.308 17.8262 192.626 17.8262C192.626 20.2898 192.627 22.8693 192.625 25.4487C192.624 26.8626 192.468 28.4902 194.537 28.4462C196.404 28.4065 196.306 26.9319 196.288 25.572C196.254 23.0405 196.278 20.5083 196.278 17.8361C197.448 17.8361 198.468 17.8361 199.395 17.8361C199.623 21.8806 199.848 25.8799 200.283 29.9409C200.493 30.2213 200.493 30.4398 200.493 30.8224Z" fill="#212529"/>
<path d="M1.02916 7.80894C0.931032 7.68167 0.832901 7.55441 0.613523 7.40229C0.492276 5.72378 0.492276 4.07012 0.624588 2.11646C0.997099 1.37503 1.2373 0.933608 1.4775 0.492188C2.16168 0.492188 2.84586 0.492188 3.7353 0.492188C3.94055 0.492188 3.95436 0.722513 3.78435 0.885615C3.40213 2.53981 3.18993 4.03091 2.89552 5.64797C2.21859 6.45227 1.62388 7.13061 1.02916 7.80894Z" fill="#212529"/>
<path d="M0.492188 36.6052C0.889117 35.635 1.28605 34.8799 1.9587 34.1562C2.29261 36.6103 2.3508 39.0329 2.40898 41.4556C1.87137 40.9517 1.33377 40.4477 0.644179 39.8882C0.492187 38.8286 0.492188 37.8245 0.492188 36.6052Z" fill="#212529"/>
<path d="M1.2316 0.492188C1.23771 0.933608 0.997511 1.37503 0.625 1.89202C0.656892 1.47579 0.821096 0.983991 1.2316 0.492188Z" fill="#FBFDFE"/>
<path d="M54.964 25.5602C54.9639 27.3427 54.9639 28.8835 54.9639 30.5988C53.7838 30.5988 52.77 30.5988 51.5967 30.5988C51.5967 24.8318 51.5967 19.0748 51.5967 13.1558C52.6455 13.1558 53.6581 13.1558 54.8941 13.1558C54.8941 15.4555 54.8941 17.7089 54.8941 20.0889C56.8616 20.0889 58.6138 20.0889 60.5515 20.0889C60.5515 17.7742 60.5515 15.5157 60.5515 13.1289C61.7537 13.1289 62.7743 13.1289 63.9275 13.1289C63.9275 18.9474 63.9275 24.7138 63.9275 30.6282C62.9088 30.6282 61.8882 30.6282 60.6706 30.6282C60.6706 28.2099 60.6706 25.7949 60.6706 23.2206C58.739 23.2206 56.9961 23.2206 54.964 23.2206C54.964 23.9176 54.964 24.618 54.964 25.5602Z" fill="#212529"/>
<path d="M56.7153 43.3875C57.404 42.3481 58.0997 41.5178 58.5638 40.5739C59.665 38.3343 61.2444 37.1926 64.1113 38.082C62.767 40.1695 61.5645 42.3434 60.0565 44.2803C58.8759 45.7966 59.0618 46.9186 60.1072 48.3547C61.7236 50.575 63.159 52.9265 64.7338 55.3174C62.1171 56.0711 60.4008 55.527 59.1791 53.1726C58.1535 51.1961 56.7372 49.4217 55.0503 47.6734C55.0503 50.227 55.0503 52.7807 55.0503 55.4597C53.7649 55.4597 52.7364 55.4597 51.5737 55.4597C51.5737 49.6827 51.5737 43.9079 51.5737 37.9913C52.6246 37.9913 53.6499 37.9913 54.964 37.9913C54.964 40.3529 54.964 42.7348 54.964 45.1167C55.1166 45.1572 55.2692 45.1978 55.4218 45.2383C55.8202 44.6738 56.2187 44.1093 56.7153 43.3875Z" fill="#212529"/>
<path d="M113.856 55.591C113.097 55.2473 112.542 54.9039 111.987 54.5605C112.001 54.7545 112.016 54.9486 112.031 55.1426C110.353 55.198 108.52 55.7044 107.034 55.1974C105.074 54.5282 105.122 52.3964 105.136 50.5558C105.155 47.8737 105.141 45.1914 105.141 42.4453C106.375 42.4453 107.339 42.4453 108.478 42.4453C108.478 45.3021 108.484 48.0735 108.475 50.8449C108.471 52.072 108.563 53.2001 110.226 53.1725C111.839 53.1458 112.273 52.2406 112.233 50.7637C112.161 48.0716 112.213 45.3762 112.213 42.5203C113.321 42.5203 114.317 42.5203 115.612 42.5203C115.612 46.8053 115.612 51.0303 115.612 55.4604C115.3 55.4868 114.68 55.5391 113.856 55.591Z" fill="#212529"/>
<path d="M68.0079 18.1877C70.9424 17.7596 73.7046 17.43 76.8339 17.0566C76.8339 21.9699 76.8339 26.1779 76.8339 30.8261C75.7558 30.6379 74.5236 30.4228 73.2913 30.2078C73.3388 30.0771 73.3863 29.9465 73.4338 29.8158C72.2318 30.1948 70.9936 30.951 69.8389 30.8401C68.8096 30.7412 67.1811 29.8266 67.0142 29.0239C66.266 25.4244 65.3323 21.6829 68.0079 18.1877ZM72.7151 19.6718C70.5036 19.3978 69.505 20.3245 69.6731 22.5865C69.7758 23.9689 69.5262 25.3975 69.7814 26.7397C69.9042 27.3858 70.9117 28.3985 71.3707 28.325C72.1117 28.2064 73.2667 27.3623 73.3061 26.7631C73.4595 24.427 73.2429 22.0666 72.7151 19.6718Z" fill="#212529"/>
<path d="M90.187 53.8271C90.7283 53.0826 91.4092 52.5905 91.5557 51.9723C91.8729 50.633 91.9291 49.2304 92.0699 47.8515C92.5117 43.5235 94.5801 41.7588 98.8678 42.0848C99.8373 42.1585 100.803 42.279 101.773 42.3783C103.004 46.6227 100.239 51.3955 104.443 55.5728C99.4077 55.5728 95.1806 55.6045 90.9566 55.5061C90.6544 55.499 90.3745 54.5391 90.187 53.8271ZM95.0312 51.1614C94.9741 51.927 94.9169 52.6925 94.8614 53.437C96.3271 53.437 97.4513 53.437 98.6424 53.437C98.6424 50.4225 98.6424 47.528 98.6424 44.5929C96.6566 44.2657 95.6792 44.986 95.5092 46.8407C95.3897 48.1442 95.209 49.4422 95.0312 51.1614Z" fill="#212529"/>
<path d="M82.445 30.9068C80.2337 30.4297 79.4211 28.9355 79.3496 27.1092C79.2286 24.0178 79.3164 20.9184 79.3164 17.7188C80.4249 17.7188 81.3758 17.7188 82.6885 17.7188C82.6885 20.3636 82.6849 23.0249 82.6901 25.6862C82.6925 26.9166 82.5187 28.3279 84.3258 28.4041C86.144 28.4808 86.3473 27.2831 86.3009 25.7936C86.2195 23.1873 86.2782 20.5766 86.2782 17.7905C87.4106 17.7905 88.4184 17.7905 89.4334 17.7905C90.5906 21.6904 88.1316 26.1915 91.2995 30.226C90.8719 31.0204 90.2964 32.0899 89.7455 33.1135C88.724 31.6151 87.8779 30.374 87.3053 29.5342C85.3668 30.1164 84.0023 30.5261 82.445 30.9068Z" fill="#212529"/>
<path d="M133.67 17.5801C134.09 18.3244 134.448 19.023 134.459 19.7272C134.518 23.3129 134.486 26.9001 134.486 30.8594C133.497 30.6546 132.279 30.4023 131.473 30.2355C129.45 30.3243 127.537 30.886 126 30.3582C123.941 29.6514 124.133 27.3841 124.038 25.4796C123.694 18.5607 124.73 16.3572 133.67 17.5801ZM128.502 28.3758C129.81 28.4656 131.041 28.4415 131.042 26.6343C131.044 24.3599 131.043 22.0855 131.043 19.206C129.672 19.7748 127.79 20.1555 127.765 20.6334C127.634 23.1368 127.973 25.6648 128.502 28.3758Z" fill="#212529"/>
<path d="M118.293 22.0063C118.297 20.4893 118.297 19.2003 118.297 17.8053C119.463 17.8053 120.42 17.8053 121.533 17.8053C121.533 21.9593 121.533 26.1818 121.533 30.5795C120.599 30.5795 119.592 30.5795 118.346 30.5795C118.346 28.9603 118.346 27.3696 118.346 25.6854C117.086 25.6854 116.052 25.6854 114.785 25.6854C114.785 27.2592 114.785 28.848 114.785 30.5931C113.544 30.5931 112.531 30.5931 111.421 30.5931C111.421 26.3027 111.421 22.0868 111.421 17.7832C112.477 17.7832 113.434 17.7832 114.655 17.7832C114.655 19.4487 114.655 21.1192 114.655 23.3967C116.126 22.9263 117.207 22.5803 118.293 22.0063Z" fill="#212529"/>
<path d="M170.068 30.1619C170.029 28.5732 170.029 27.1955 170.029 25.7007C168.853 25.7007 167.818 25.7007 166.549 25.7007C166.549 27.2224 166.549 28.8112 166.549 30.5757C165.31 30.5757 164.298 30.5757 163.161 30.5757C163.161 26.3347 163.161 22.1196 163.161 17.7988C164.169 17.7988 165.122 17.7988 166.345 17.7988C166.345 19.4279 166.345 21.0946 166.345 22.8873C167.633 22.8873 168.658 22.8873 169.957 22.8873C169.957 21.2421 169.957 19.5713 169.957 17.8045C171.186 17.8045 172.145 17.8045 173.256 17.8045C173.256 21.9584 173.256 26.1825 173.256 30.8053C172.226 30.6638 171.166 30.5184 170.068 30.1619Z" fill="#212529"/>
<path d="M186.634 25.9914C186.713 27.6082 186.793 28.9907 186.902 30.8622C185.567 30.6376 184.321 30.428 183.432 30.2784C181.531 30.3934 179.736 30.937 178.243 30.4856C176.233 29.878 176.206 27.7918 176.238 25.9219C176.283 23.2422 176.249 20.5612 176.249 17.7891C177.413 17.7891 178.368 17.7891 179.581 17.7891C179.581 20.3326 179.548 22.8514 179.595 25.3687C179.619 26.676 179.146 28.4595 181.329 28.4408C183.281 28.4241 183.291 26.9337 183.255 25.4424C183.196 22.924 183.239 20.4032 183.239 17.7904C184.379 17.7904 185.334 17.7904 186.634 17.7904C186.634 20.4271 186.634 23.092 186.634 25.9914Z" fill="#212529"/>
<path d="M139.945 30.4879C138.92 30.6786 138.039 30.7214 136.662 30.7883C137.235 27.1962 137.576 23.8138 138.363 20.5381C138.96 18.0516 141.15 17.2489 143.529 17.2327C144.906 17.2233 146.285 17.4627 147.721 17.5956C147.721 21.9938 147.721 26.2326 147.721 30.616C146.65 30.616 145.637 30.616 144.414 30.616C144.414 26.9297 144.414 23.3624 144.414 19.8118C142.357 19.4625 141.484 20.2628 141.267 22.0995C140.941 24.8541 140.489 27.5938 139.945 30.4879Z" fill="#212529"/>
<path d="M79.4924 43.5115C81.7904 41.6549 84.2002 41.5573 86.5264 42.7628C89.8624 44.4915 88.455 47.7293 88.8052 50.6671C86.4206 50.6671 84.1673 50.6671 81.9242 50.6671C81.8459 53.2549 81.8459 53.2549 88.3375 53.605C88.9419 54.9243 88.7213 55.709 87.0347 55.6602C86.953 55.6578 86.8705 55.6601 86.7891 55.6681C84.041 55.9384 80.7004 56.9036 79.1951 53.9719C77.556 50.7798 77.62 47.0672 79.4924 43.5115ZM85.4788 47.7786C85.1592 46.7597 85.0109 45.6223 84.4296 44.7842C84.2179 44.479 82.491 44.6397 82.2973 45.0177C81.8055 45.9778 81.7896 47.1809 81.5134 48.6603C83.156 48.4386 84.2497 48.291 85.4788 47.7786Z" fill="#212529"/>
<path d="M103.487 30.9767C99.5036 30.3678 98.3651 29.1031 98.2651 25.3621C98.2411 24.4659 98.2382 23.5678 98.2657 22.6718C98.378 19.0095 100.178 17.2026 103.685 17.211C107.157 17.2193 108.931 19.0825 108.957 22.7501C108.963 23.5654 108.96 24.3807 108.957 25.196C108.944 29.2332 107.803 30.4872 103.487 30.9767ZM104.09 28.5314C104.385 28.4065 104.929 28.2958 104.937 28.1545C105.086 25.5525 105.222 22.9461 105.182 20.3433C105.178 20.108 103.903 19.6325 103.304 19.7408C102.729 19.8449 101.864 20.5279 101.822 21.0169C101.646 23.032 101.598 25.0849 101.816 27.09C101.875 27.6333 103.033 28.0574 104.09 28.5314Z" fill="#212529"/>
<path d="M160.252 29.0724C157.406 31.7485 154.084 30.3621 150.829 30.8203C150.829 26.359 150.829 22.0971 150.829 17.7207C151.775 17.7207 152.72 17.7207 153.849 17.7207C153.911 18.9454 153.972 20.1431 154.034 21.3411C160.668 22.2223 162.194 24.0465 160.252 29.0724ZM157.054 24.3191C156.069 24.2031 155.084 24.0872 153.908 23.9488C153.908 24.9526 153.889 25.5928 153.913 26.2315C153.936 26.8565 154.002 27.48 154.046 28.0724C157.579 28.5427 158.084 27.9858 157.054 24.3191Z" fill="#212529"/>
<path d="M124.737 47.681C124.734 50.2194 124.732 52.5081 124.724 54.7968C124.724 54.9574 124.677 55.1178 124.627 55.4341C123.641 55.4341 122.629 55.4341 121.432 55.4341C121.432 52.1174 121.432 48.7918 121.432 45.2935C120.064 45.2295 118.869 45.1735 117.489 45.1089C117.489 44.2331 117.489 43.407 117.489 42.4648C121.284 42.4648 125.021 42.4648 128.92 42.4648C128.92 43.3126 128.92 44.1468 128.92 45.1661C127.584 45.1661 126.297 45.1661 124.737 45.1661C124.737 46.0391 124.737 46.7351 124.737 47.681Z" fill="#212529"/>
<path d="M133.483 46.662C133.483 43.7287 133.483 41.0327 133.483 37.9525C135.589 37.9525 137.595 37.914 139.597 37.995C139.891 38.0069 140.399 38.6045 140.377 38.9004C140.355 39.2095 139.848 39.6637 139.492 39.731C138.779 39.8656 137.962 39.6034 137.305 39.8357C136.693 40.0523 136.234 40.6979 135.304 41.5037C141.16 42.3622 141.932 43.1344 141.429 46.8902C141.082 49.4727 139.569 49.9895 133.483 49.4388C133.483 48.6185 133.483 47.7589 133.483 46.662ZM137.122 47.7603C139.184 48.0073 139.505 46.7339 139.236 45.1754C138.868 43.0406 137.363 43.7653 135.532 43.9301C135.968 45.3694 136.327 46.5555 137.122 47.7603Z" fill="#212529"/>
<path d="M41.3277 28.0332C41.9778 30.1138 42.9703 32.157 43.2038 34.2832C43.6337 38.1988 41.6362 40.8761 37.6196 42.0977C38.3274 37.7983 39.1818 33.703 40.1408 29.6323C40.2805 29.0392 40.9197 28.5633 41.3277 28.0332Z" fill="#212529"/>
<path d="M95.9929 21.1951C95.9929 24.4341 95.9929 27.4331 95.9929 30.5956C94.8403 30.5956 93.8323 30.5956 92.71 30.5956C92.71 26.3547 92.71 22.1599 92.71 17.8281C93.7242 17.8281 94.7307 17.8281 95.9929 17.8281C95.9929 18.889 95.9929 19.9219 95.9929 21.1951Z" fill="#212529"/>
<path d="M30.5054 14.7586C33.8134 13.6274 37.1215 12.4962 40.5979 11.3418C39.9702 14.9959 39.1742 18.6733 38.1902 22.3666C37.8546 22.2226 37.707 22.0626 37.507 21.7512C36.3092 20.6042 35.1637 19.6086 33.955 18.464C32.7629 17.1295 31.6342 15.9441 30.5054 14.7586Z" fill="#212529"/>
<path d="M41.3402 27.8589C40.9197 28.564 40.2805 29.0399 40.1408 29.633C39.1818 33.7037 38.3274 37.799 37.4388 42.091C36.5439 42.3753 35.6497 42.455 34.6157 42.2325C34.9708 39.2611 35.4657 36.5919 36.0347 33.7738C37.0274 32.0499 38.2866 30.5712 38.7675 28.8728C39.235 27.2218 38.9044 25.3456 38.9243 23.5684C39.7337 24.9402 40.5432 26.3121 41.3402 27.8589Z" fill="#212529"/>
<path d="M9.87648 42.3734C9.32899 42.4687 8.78149 42.5641 8.06235 42.4085C7.88768 35.9464 7.84888 29.7348 7.92586 23.5247C7.93576 22.7263 8.54669 21.9353 9.01276 21.2051C9.54631 21.5565 9.94628 21.8437 10.3464 22.2535C10.3466 22.376 10.3504 22.6211 10.2036 22.7657C9.9967 29.398 9.93659 35.8857 9.87648 42.3734Z" fill="#212529"/>
<path d="M4.04199 27.5334C5.13925 23.897 4.77136 20.2778 4.09334 16.5293C4.97576 16.8473 5.6795 17.3003 6.40024 17.9039C6.58296 18.4253 6.74868 18.7961 6.76586 19.311C6.54619 20.3418 6.41757 21.2282 6.41304 22.1152C6.37836 28.8962 6.36785 35.6774 6.34983 42.4585C5.99007 42.4429 5.63031 42.4273 5.09752 42.13C4.92465 37.8106 4.96864 33.7719 4.88514 29.7359C4.86984 28.9962 4.33631 28.2673 4.04199 27.5334Z" fill="#212529"/>
<path d="M160.408 49.5601C159.027 49.7782 158.541 49.243 158.669 48.0886C158.915 45.8555 159.158 43.6217 159.47 41.3976C159.475 41.3652 160.347 41.4541 160.902 41.4925C160.985 42.4186 161.056 43.2066 161.134 44.0716C162.666 43.5438 162.473 40.4806 165.302 41.7159C163.298 44.223 162.58 46.8297 165.843 49.1392C163.631 49.6514 163.631 49.6514 161.296 46.6292C161.055 47.6367 160.83 48.5762 160.408 49.5601Z" fill="#212529"/>
<path d="M146.895 48.9856C144.063 50.2118 142.901 49.5056 142.779 46.6599C142.754 46.0909 142.765 45.5199 142.774 44.95C142.821 41.9459 143.607 41.1736 146.582 41.238C147.312 41.2538 148.04 41.3394 149.046 41.4133C149.046 44.0692 149.046 46.697 149.046 49.6899C148.373 49.4215 147.715 49.1596 146.895 48.9856ZM145.024 43.3656C144.954 44.2449 144.721 45.1522 144.865 45.995C144.991 46.7289 145.543 47.3899 145.907 48.0831C146.314 47.4227 146.846 46.8045 147.087 46.0885C147.282 45.5072 147.109 44.8081 147.128 44.1621C147.172 42.7014 146.449 42.5147 145.024 43.3656Z" fill="#212529"/>
<path d="M155.749 49.5518C155.39 48.9976 155.092 48.466 155.121 47.9528C155.222 46.1674 154.298 46.1429 152.898 46.5039C152.827 47.4757 152.764 48.3564 152.696 49.2864C151.376 49.9048 150.69 49.6791 150.725 48.0855C150.771 45.9679 150.736 43.8485 150.736 41.5603C153.714 40.9707 152.339 43.4197 153.059 44.5641C154.281 44.9486 155.288 44.9557 155.094 43.0275C154.946 41.56 155.607 41.1673 157.141 41.5941C157.141 43.9213 157.196 46.2004 157.088 48.4718C157.07 48.859 156.354 49.2132 155.749 49.5518Z" fill="#212529"/>
<path d="M6.48442 42.5501C6.36843 35.6786 6.37893 28.8975 6.41361 22.1164C6.41815 21.2294 6.54676 20.3431 6.87988 19.3185C7.14185 19.1807 7.36889 19.1962 7.43826 19.3349C7.96491 20.0289 8.42219 20.5842 8.87947 21.1395C8.54697 21.9339 7.93604 22.7249 7.92614 23.5233C7.84916 29.7335 7.88796 35.945 7.89546 42.3722C7.47279 42.6057 7.04561 42.6231 6.48442 42.5501Z" fill="#212529"/>
<path d="M3.97636 27.7109C4.33679 28.2696 4.87032 28.9986 4.88562 29.7382C4.96912 33.7743 4.92513 37.8129 4.9246 42.0828C4.16066 42.1132 3.3971 41.9115 2.52158 41.5849C2.35145 39.0374 2.29327 36.6148 2.08154 34.0502C2.58875 31.9009 3.24949 29.8935 3.97636 27.7109Z" fill="#212529"/>
<path d="M10.0586 42.4044C9.93666 35.8837 9.99677 29.396 10.3333 22.8223C10.8513 23.0179 11.0929 23.2996 11.3331 23.8134C11.3317 30.119 11.3315 36.1927 11.3314 42.2663C10.9678 42.3233 10.6042 42.3803 10.0586 42.4044Z" fill="#212529"/>
<path d="M17.7603 40.8919C17.2286 41.0968 16.697 41.3018 15.976 41.277C15.7833 36.3617 15.7801 31.6762 15.9259 27.0703C16.8094 27.5994 17.5438 28.0488 18.1241 28.6391C17.9001 32.8174 17.8302 36.8546 17.7603 40.8919Z" fill="#212529"/>
<path d="M11.517 42.2938C11.3313 36.1914 11.3314 30.1178 11.4924 23.834C12.2011 23.9472 12.7488 24.2707 13.2983 24.7147C13.3001 24.8354 13.3044 25.0767 13.1575 25.2213C12.9457 30.9691 12.8808 36.5724 12.8158 42.1756C12.4448 42.2246 12.0738 42.2736 11.517 42.2938Z" fill="#212529"/>
<path d="M24.6531 36.3957C23.2845 37.5294 21.916 38.6631 20.3473 39.6176C20.0102 36.9236 19.8396 34.4097 19.7808 31.8932C19.7739 31.5955 20.3791 31.2836 20.833 31.0742C22.1947 32.9121 23.4239 34.6539 24.6531 36.3957Z" fill="#212529"/>
<path d="M20.6998 30.9806C20.3784 31.286 19.7732 31.5979 19.7801 31.8956C19.8389 34.4121 20.0094 36.926 20.1729 39.6456C19.5009 40.1926 18.8024 40.5347 17.9319 40.8853C17.8299 36.8567 17.8998 32.8194 18.2821 28.6431C18.8058 28.4921 19.0171 28.4801 19.3399 28.5536C19.6726 28.9405 19.8937 29.2419 20.1809 29.658C20.4001 29.8457 20.5531 29.9188 20.6986 29.9951C20.6912 29.9983 20.7026 29.9839 20.6919 30.1499C20.6874 30.5374 20.6936 30.759 20.6998 30.9806Z" fill="#212529"/>
<path d="M38.8973 23.4411C38.9047 25.3461 39.2352 27.2222 38.7678 28.8732C38.2869 30.5716 37.0276 32.0503 35.8514 33.7823C34.8886 34.1142 34.1833 34.2887 33.2829 34.4539C32.5659 34.4543 32.044 34.4641 31.3695 34.403C30.6462 34.0238 30.0756 33.7155 29.73 33.4083C32.1826 33.4614 34.5171 33.847 36.1322 31.4033C38.6 28.3301 36.9169 25.4909 36.1543 22.6205C36.7488 22.3792 37.1541 22.1418 37.5594 21.9043C37.707 22.0643 37.8546 22.2242 38.0726 22.5342C38.3854 22.894 38.6277 23.1037 38.8973 23.4411Z" fill="#212529"/>
<path d="M29.5051 33.4058C30.0758 33.7142 30.6465 34.0225 31.3721 34.6069C31.1942 36.8769 30.8615 38.8708 30.5287 40.8647C29.2705 39.9716 28.0122 39.0785 26.8564 37.9999C27.3105 36.2266 27.6621 34.6387 28.1758 33.0332C28.7269 33.1456 29.116 33.2757 29.5051 33.4058Z" fill="#212529"/>
<path d="M33.4776 34.4616C34.1829 34.287 34.8882 34.1124 35.777 33.9297C35.4656 36.5906 34.9707 39.2597 34.4699 42.1351C33.7573 42.1822 33.0506 42.0229 32.1826 41.5806C32.5067 39.0189 32.9922 36.7403 33.4776 34.4616Z" fill="#212529"/>
<path d="M12.9528 42.1974C12.8809 36.5755 12.9458 30.9722 13.2641 25.2773C13.653 25.2799 13.7454 25.4057 13.7942 25.7943C13.8082 31.3306 13.8226 36.6357 13.837 41.9408C13.5879 42.0326 13.3388 42.1243 12.9528 42.1974Z" fill="#212529"/>
<path d="M20.8328 31.0742C20.6941 30.7566 20.6879 30.5351 20.8716 30.1504C22.9305 30.8174 24.7996 31.6474 26.6649 32.6585C26.1162 34.0065 25.5712 35.1734 25.0263 36.3403C25.0263 36.3403 24.8407 36.3765 24.7467 36.3861C23.4236 34.6539 22.1944 32.9121 20.8328 31.0742Z" fill="#212529"/>
<path d="M13.9998 41.943C13.8227 36.6345 13.8083 31.3294 13.9519 25.8105C14.506 25.9119 14.9022 26.227 15.1479 26.685C14.9252 31.8021 14.853 36.7763 14.7807 41.7505C14.5746 41.8158 14.3686 41.8812 13.9998 41.943Z" fill="#212529"/>
<path d="M14.9171 41.7746C14.8534 36.7776 14.9256 31.8034 15.2507 26.7349C15.6357 26.7259 15.7271 26.843 15.7776 26.9919C15.7808 31.6774 15.784 36.3629 15.8014 41.2963C15.5614 41.6286 15.3072 41.713 14.9171 41.7746Z" fill="#212529"/>
<path d="M193.795 16.5148C192.375 16.2564 191.014 16.1326 191.606 14.3516C193.514 14.3516 195.394 14.3516 197.497 14.3516C197.543 16.8948 195.507 16.3488 193.795 16.5148Z" fill="#212529"/>
<path d="M33.2829 34.4531C32.9926 36.7412 32.5071 39.0198 32.021 41.495C31.5747 41.4997 31.1291 41.308 30.606 40.9908C30.8612 38.8713 31.194 36.8774 31.5244 34.6783C32.044 34.4633 32.5658 34.4535 33.2829 34.4531Z" fill="#212529"/>
<path d="M25.1094 36.4787C25.5713 35.1737 26.1162 34.0068 26.7314 32.6503C26.8016 32.4607 26.9362 32.453 27.0545 32.5568C27.4529 32.7907 27.7331 32.9208 28.0133 33.051C27.6617 34.6388 27.3101 36.2267 26.7833 37.8543C26.1363 37.4684 25.6643 37.0427 25.1094 36.4787Z" fill="#212529"/>
<path d="M26.9364 32.453C26.9364 32.453 26.8018 32.4607 26.7353 32.4692C24.7998 31.6476 22.9307 30.8176 20.8825 29.9846C20.7033 29.9818 20.6919 29.9961 20.6528 29.8643C20.4477 29.6687 20.2816 29.6049 20.1155 29.5411C19.8944 29.2397 19.6733 28.9383 19.315 28.3816C18.2181 26.2795 17.2585 24.4328 16.3199 22.4026C15.9746 21.2019 15.608 20.1847 15.2666 18.9697C15.0687 17.5988 14.8456 16.4256 14.6548 15.0387C14.7155 13.8176 14.744 12.8102 14.8677 11.6673C15.4847 10.6704 16.0065 9.80892 16.5283 8.94745C16.6333 8.97299 16.7307 8.95599 17.0662 8.84784C17.4538 8.64286 17.5961 8.48647 17.7383 8.33008C17.7383 8.33008 17.7302 8.36033 17.7156 8.35459C19.0525 8.51719 20.4038 8.68553 21.8173 9.03144C18.6867 10.5012 18.5331 11.491 21.2309 13.8815C21.4278 14.0806 21.5649 14.1702 21.7595 14.4101C22.563 15.4761 23.309 16.3918 24.091 17.4648C24.5603 18.3294 24.9935 19.0366 25.465 19.9225C25.9432 21.2803 26.3829 22.4595 26.866 23.8631C26.9184 26.876 26.9274 29.6645 26.9364 32.453Z" fill="#212529"/>
<path d="M30.3878 14.7209C31.6347 15.9438 32.7635 17.1293 33.9448 18.6538C34.0131 19.373 34.0288 19.7532 33.8661 20.1445C32.9701 20.4848 32.2526 20.814 31.4233 21.131C31.3115 21.1189 31.0873 21.1018 31.0106 20.9568C29.8261 19.7556 28.7183 18.6993 27.5522 17.5287C27.3578 17.1972 27.2216 16.9799 27.1104 16.5956C27.944 15.7192 28.7528 15.01 29.6657 14.2961C29.7699 14.2915 29.9785 14.291 29.9785 14.291C30.0756 14.4218 30.1726 14.5526 30.3878 14.7209Z" fill="#212529"/>
<path d="M21.1707 13.7713C18.5327 11.4903 18.6863 10.5005 22.0019 9.10547C23.2431 9.49524 24.3615 9.98788 25.5554 10.6439C25.6309 10.8074 25.5759 10.8726 25.3822 10.8582C22.7071 10.2574 22.3188 12.534 21.1707 13.7713Z" fill="#212529"/>
<path d="M27.1842 11.7051C27.7884 12.1034 28.3926 12.5017 29.0435 13.0747C29.0903 13.2494 29.0064 13.3377 28.8413 13.3214C28.1535 13.1276 27.6309 12.95 27.1029 12.618C27.0807 12.2585 27.0639 12.0536 27.0816 11.8129C27.116 11.7772 27.1842 11.7051 27.1842 11.7051Z" fill="#212529"/>
<path d="M29.9926 14.1372C29.9776 14.2938 29.769 14.2943 29.5464 14.2134C29.218 13.8683 29.1122 13.6042 29.0063 13.34C29.0063 13.34 29.0902 13.2518 29.1318 13.207C29.4515 13.435 29.7296 13.7078 29.9926 14.1372Z" fill="#212529"/>
<path d="M26.311 11.1035C26.5524 11.2281 26.7938 11.3526 27.1099 11.5913C27.1845 11.7054 27.1163 11.7775 26.9413 11.79C26.5414 11.645 26.3165 11.4876 26.147 11.2739C26.2023 11.2178 26.311 11.1035 26.311 11.1035Z" fill="#212529"/>
<path d="M25.6594 10.7759C25.853 10.7693 26.0045 10.8298 26.2264 11.0145C26.3108 11.1036 26.2022 11.2181 26.0419 11.2214C25.7501 11.1334 25.6483 11.0162 25.5762 10.8732C25.5762 10.8732 25.6311 10.8079 25.6594 10.7759Z" fill="#212529"/>
<path d="M69.1881 51.0124C69.1882 49.4813 69.2424 48.172 69.1742 46.8692C69.0971 45.3963 69.8751 44.5349 71.1724 44.8437C71.8777 45.0116 72.5819 46.1122 72.8491 46.934C73.1374 47.8205 72.9177 48.8725 72.9148 49.8523C72.9054 53.0195 72.7667 53.1507 69.3747 53.0214C69.3147 52.4476 69.2514 51.8424 69.1881 51.0124Z" fill="#ECECEC"/>
<path d="M16.4154 8.82155C16.0062 9.80863 15.4844 10.6701 14.6862 11.6694C11.7343 13.7895 9.0588 15.7718 6.38334 17.7542C5.67961 17.3012 4.97587 16.8482 4.12925 16.3294C3.98037 16.1766 3.97437 16.0896 4.15596 15.8681C5.4108 15.0531 6.55159 14.4636 7.53052 13.6741C9.81738 11.8296 12.0265 9.8891 14.4353 7.95333C14.7159 7.89793 14.8283 7.8767 14.9407 7.85547C15.3947 8.13562 15.8487 8.41578 16.4154 8.82155Z" fill="#212529"/>
<path d="M14.8667 7.69662C14.8279 7.8767 14.7154 7.89793 14.2722 7.90405C13.2332 7.56418 12.5249 7.23943 11.6607 6.82155C10.7982 6.59446 10.0917 6.46048 9.31658 6.1926C8.77742 5.54364 8.30677 5.0286 7.85303 4.34869C7.87916 4.07372 7.88838 3.96362 7.89761 3.85352C10.1961 5.0816 12.4946 6.30969 14.8667 7.69662Z" fill="#212529"/>
<path d="M7.83444 3.69966C7.88929 3.96509 7.88006 4.07519 7.73449 4.41833C7.53106 4.91741 7.46398 5.18345 7.19182 5.43793C6.3051 5.37771 5.62348 5.32905 4.9375 5.06589C4.94016 3.68152 4.94717 2.51166 4.95419 1.3418C5.89292 2.07597 6.83165 2.81015 7.83444 3.69966Z" fill="#212529"/>
<path d="M4.87066 1.23404C4.94679 2.5094 4.93978 3.67926 4.74311 5.10653C4.02831 5.41613 3.50317 5.46832 2.97803 5.52051C3.19023 4.02942 3.40243 2.53832 3.81251 0.996094C4.26942 1.00615 4.52847 1.06735 4.87066 1.23404Z" fill="#212529"/>
<path d="M17.5693 8.34375C17.5957 8.48819 17.4534 8.64484 17.1404 8.83669C17.1134 8.69992 17.257 8.52794 17.5693 8.34375Z" fill="#212529"/>
<path d="M11.8171 6.91406C12.5253 7.23882 13.2336 7.56357 14.1045 7.93761C12.0265 9.88849 9.81741 11.829 7.53055 13.6734C6.55162 14.463 5.41083 15.0525 4.16776 15.7372C3.61857 15.2052 3.24521 14.6689 3.04541 13.9528C6.64073 12.181 9.70621 10.1439 11.8171 6.91406Z" fill="#212529"/>
<path d="M11.6612 6.82318C9.70629 10.1461 6.6408 12.1832 3.02513 13.7828C2.69494 13.4054 2.55866 13.0203 2.57447 12.4085C4.94625 10.2306 7.16593 8.27937 9.38561 6.32812C10.0922 6.4621 10.7988 6.59608 11.6612 6.82318Z" fill="#212529"/>
<path d="M9.31714 6.19486C7.16597 8.28001 4.94629 10.2313 2.5655 12.2491C2.2514 11.938 2.0984 11.5603 2.01758 10.8709C2.85159 9.83629 3.61804 9.11816 4.37411 8.38928C5.38581 7.41397 6.38946 6.43034 7.39657 5.45028C7.46365 5.18424 7.53073 4.9182 7.71725 4.58398C8.30734 5.03086 8.77798 5.5459 9.31714 6.19486Z" fill="#212529"/>
<path d="M7.19169 5.4369C6.38967 6.42852 5.38602 7.41215 4.37432 8.38746C3.61825 9.11634 2.8518 9.83448 2.01063 10.7086C1.62853 9.96637 1.32577 9.07293 1.02637 7.99408C1.62443 7.13034 2.21915 6.45201 2.89607 5.6477C3.50342 5.46955 4.02857 5.41735 4.74772 5.32227C5.62335 5.32802 6.30498 5.37668 7.19169 5.4369Z" fill="#212529"/>
<path d="M72.9394 19.696C73.2427 22.0691 73.4592 24.4295 73.3059 26.7656C73.2665 27.3648 72.1115 28.2089 71.3705 28.3275C70.9115 28.401 69.904 27.3883 69.7812 26.7422C69.526 25.4 69.7756 23.9714 69.6728 22.589C69.5048 20.327 70.5034 19.4003 72.9394 19.696Z" fill="#F0F0F0"/>
<path d="M34.0437 20.1333C34.028 19.7531 34.0123 19.373 34.0073 18.8027C35.1635 19.6083 36.3089 20.6039 37.5067 21.7509C37.1538 22.1398 36.7485 22.3773 36.0261 22.523C35.1539 21.6653 34.5988 20.8993 34.0437 20.1333Z" fill="#212529"/>
<path d="M14.6217 15.25C14.8447 16.4232 15.0678 17.5964 15.0947 18.9903C13.3808 20.1831 11.8632 21.1551 10.3455 22.1271C9.94553 21.8399 9.54555 21.5527 9.01201 21.2013C8.42116 20.5817 7.96388 20.0264 7.62109 19.325C8.76076 18.6128 9.79293 18.0589 10.8093 17.4776C12.0869 16.7468 13.3515 15.9936 14.6217 15.25Z" fill="#212529"/>
<path d="M10.3457 22.255C11.8632 21.1604 13.3809 20.1884 15.0696 19.1934C15.6072 20.1876 15.9737 21.2048 16.1713 22.4815C15.1003 23.3602 14.1982 23.9795 13.2961 24.5988C12.7483 24.2754 12.2005 23.9519 11.4932 23.6067C11.0921 23.3031 10.8506 23.0214 10.4793 22.6811C10.3497 22.6226 10.3459 22.3775 10.3457 22.255Z" fill="#212529"/>
<path d="M14.6545 15.0363C13.3521 15.9936 12.0875 16.7469 10.8099 17.4776C9.79354 18.059 8.76136 18.6128 7.55233 19.1863C7.36847 19.1938 7.14143 19.1782 7.02799 19.172C6.74883 18.7949 6.58312 18.4241 6.40039 17.9027C9.05884 15.7697 11.7343 13.7874 14.591 11.8027C14.7437 12.8078 14.7152 13.8152 14.6545 15.0363Z" fill="#212529"/>
<path d="M13.2983 24.7166C14.1987 23.9767 15.1008 23.3574 16.1507 22.6621C17.2581 24.4328 18.2178 26.2796 19.2031 28.2961C19.0174 28.4779 18.8061 28.4899 18.4365 28.5C17.5439 28.0487 16.8094 27.5993 15.926 27.0702C15.7264 26.8417 15.635 26.7246 15.4004 26.5906C14.9019 26.227 14.5058 25.9119 13.9521 25.5793C13.7452 25.4044 13.6529 25.2787 13.4109 25.1316C13.3044 25.0786 13.3001 24.8373 13.2983 24.7166Z" fill="#212529"/>
<path d="M20.1816 29.6555C20.2816 29.6045 20.4477 29.6684 20.6603 29.8611C20.5538 29.9167 20.4008 29.8435 20.1816 29.6555Z" fill="#212529"/>
<path d="M31.0864 21.0996C31.0864 21.0996 31.3106 21.1167 31.4886 21.2813C33.9155 24.444 36.2336 27.4124 35.9716 31.4837C34.5167 33.843 32.1822 33.4573 29.7296 33.4042C29.1154 33.273 28.7263 33.1429 28.1751 33.0305C27.7329 32.918 27.4527 32.7879 27.0543 32.554C26.927 29.6617 26.918 26.8733 27.0632 23.8465C28.5071 22.772 29.7967 21.9358 31.0864 21.0996Z" fill="#212529"/>
<path d="M36.132 31.3996C36.2338 27.4126 33.9157 24.4443 31.6006 21.2937C32.2519 20.812 32.9694 20.4829 33.8654 20.1426C34.5989 20.8974 35.154 21.6635 35.837 22.525C36.9167 25.4871 38.5997 28.3263 36.132 31.3996Z" fill="#212529"/>
<path d="M31.0104 20.9564C29.7975 21.9376 28.5079 22.7738 27.0206 23.6238C26.3833 22.4584 25.9436 21.2793 25.6309 19.8548C26.3754 18.9539 26.9928 18.2982 27.6103 17.6426C28.7181 18.6988 29.8259 19.7551 31.0104 20.9564Z" fill="#212529"/>
<path d="M25.3822 10.8568C25.648 11.0139 25.7498 11.1309 25.9863 11.2749C26.3161 11.4852 26.541 11.6427 26.9065 11.8234C27.0638 12.0516 27.0806 12.2565 26.9369 12.6354C26.0538 13.2998 25.3311 13.7904 24.4508 14.209C23.4294 14.1773 22.5655 14.2175 21.7016 14.2577C21.5645 14.1681 21.4274 14.0784 21.2305 13.8793C22.3188 12.5326 22.7071 10.2559 25.3822 10.8568Z" fill="#212529"/>
<path d="M27.5521 17.5277C26.9929 18.2977 26.3755 18.9533 25.5925 19.6756C24.9939 19.035 24.5607 18.3278 24.1709 17.3157C24.6925 16.5771 25.1707 16.1434 25.7815 15.7773C26.3045 16.1505 26.695 16.4561 27.0854 16.7616C27.2216 16.9789 27.3577 17.1961 27.5521 17.5277Z" fill="#212529"/>
<path d="M25.6483 15.7127C25.17 16.1464 24.6918 16.58 24.1341 17.1613C23.3088 16.3932 22.5628 15.4775 21.7593 14.4115C22.5657 14.2211 23.4296 14.1809 24.5179 14.3445C25.0443 14.9364 25.3463 15.3246 25.6483 15.7127Z" fill="#212529"/>
<path d="M25.7807 15.7759C25.3462 15.3202 25.0442 14.9321 24.6753 14.412C25.3311 13.7895 26.0538 13.299 26.9424 12.7891C27.6308 12.9472 28.1534 13.1247 28.8412 13.3185C29.1121 13.599 29.218 13.8631 29.4422 14.2128C28.7519 15.0076 27.9431 15.7168 27.1095 16.5932C26.6942 16.4547 26.3037 16.1491 25.7807 15.7759Z" fill="#212529"/>
</g>
<defs>
<clipPath id="clip0_188_4773">
<rect width="200" height="60" fill="white"/>
</clipPath>
</defs>
</svg>
