<svg width="200" height="26" viewBox="0 0 200 26" fill="none" xmlns="http://www.w3.org/2000/svg">
<g clip-path="url(#clip0_188_5183)">
<path d="M53.6096 8.75759C53.6096 9.65861 53.5297 10.1866 53.3706 10.3431C53.2293 10.4996 52.698 10.5762 51.7767 10.5762H50.7141V16.3475C50.7141 17.1964 51.0685 17.6216 51.7767 17.6216C52.6447 17.6216 53.1502 17.699 53.2907 17.8555C53.4328 18.012 53.5039 18.5574 53.5039 19.4924C53.1502 19.5098 52.8215 19.5184 52.5212 19.5184C51.0685 19.5184 50.0156 19.2766 49.3607 18.7913C48.7228 18.2886 48.4047 17.4745 48.4047 16.3475V10.6031H46.9432L46.9699 9.27683C47.7491 9.27683 48.1835 9.22466 48.2715 9.12033C48.3611 9.01679 48.4047 8.63505 48.4047 7.97667V6.07978H50.6616V8.75755L53.6096 8.75759ZM45.7222 19.4147C44.5885 19.4147 43.9248 19.338 43.7294 19.1815C43.5525 19.025 43.4645 18.471 43.4645 17.5178V8.75734C44.5982 8.75734 45.2523 8.8348 45.4299 8.9905C45.6237 9.12961 45.7222 9.65836 45.7222 10.576V19.4147ZM45.7222 8.08158C44.5885 8.08158 43.9248 8.00412 43.7294 7.84684C43.5525 7.69114 43.4645 7.13709 43.4645 6.1839V5.45597C44.6862 5.45597 45.3411 5.48127 45.4299 5.53343C45.6237 5.63697 45.7222 6.12305 45.7222 6.98929V8.08158ZM41.2338 19.4147C40.3658 19.4147 39.8611 19.3546 39.7198 19.2337C39.5777 19.0946 39.5074 18.6433 39.5074 17.8822C38.9051 18.991 37.5154 19.5443 35.3377 19.5443C32.2394 19.5443 30.6891 17.717 30.6891 14.0599C30.6891 10.4037 32.2305 8.57477 35.311 8.57477C37.1529 8.57477 38.3835 9.06085 39.0028 10.0314V4.70117C40.1187 4.70117 40.7639 4.78021 40.9407 4.9367C41.1353 5.0924 41.2338 5.63697 41.2338 6.57277V19.4147ZM39.0294 14.0599C39.0294 12.8815 38.8437 12.0239 38.4715 11.4865C38.012 10.7925 37.1884 10.4472 36.0014 10.4472C34.4963 10.4472 33.621 10.6029 33.3723 10.9135C33.1252 11.2091 33.0009 12.2579 33.0009 14.0599C33.0009 15.2558 33.1866 16.1307 33.558 16.6855C34.0183 17.3613 34.8241 17.6988 35.9748 17.6988C37.4977 17.6988 38.3835 17.5518 38.6313 17.257C38.897 16.9456 39.0294 15.8801 39.0294 14.0599ZM29.4948 13.202C29.4948 14.0864 29.3979 14.6057 29.2033 14.7614C29.0079 14.9005 28.3263 14.97 27.1579 14.97H21.4742C21.4742 15.7841 21.7309 16.4338 22.2445 16.9191C22.7758 17.4044 23.5276 17.6478 24.5014 17.6478H26.8915C27.7773 17.6478 28.2908 17.7253 28.4329 17.8818C28.592 18.0201 28.6719 18.5401 28.6719 19.4404H24.5821C20.9873 19.4404 19.1907 17.6478 19.1907 14.0603C19.1907 10.4381 21.005 8.62733 24.6346 8.62733C26.2108 8.62733 27.4325 9.06836 28.3005 9.95278C29.0967 10.7677 29.4948 11.8505 29.4948 13.202ZM27.1579 13.202C27.1757 13.1672 27.1757 13.1498 27.1579 13.1498C27.1935 11.2782 26.281 10.3432 24.4222 10.3432C22.9696 10.3432 22.1121 10.4634 21.8464 10.7068C21.5985 10.9494 21.4742 11.7809 21.4742 13.202H27.1579ZM18.8983 8.70581C18.8983 9.67559 18.8354 10.2383 18.7118 10.3948C18.606 10.5339 18.1902 10.6027 17.4643 10.6027C16.5607 10.6027 16.0044 10.7845 15.7904 11.1488C15.6313 11.4429 15.5514 12.2316 15.5514 13.5144V19.4145C14.4185 19.4145 13.7548 19.3378 13.5594 19.1814C13.3825 19.0249 13.2945 18.4882 13.2945 17.5698V8.75797C14.1617 8.75797 14.6656 8.81722 14.8077 8.93817C14.949 9.06068 15.0209 9.49301 15.0209 10.2383C15.5692 9.12944 16.8619 8.61808 18.8983 8.70581ZM11.3824 19.4665H7.24005C4.90243 19.4665 3.21967 18.7995 2.19338 17.4661C1.37864 16.3904 0.97168 14.8223 0.97168 12.761C0.97168 8.30652 3.0606 6.08005 7.24005 6.08005H11.3824C11.3824 7.03244 11.3024 7.58728 11.1434 7.74299C11.002 7.89948 10.4788 7.97693 9.57687 7.97693H7.24005C5.77046 7.97693 4.85802 8.0291 4.50435 8.13343C3.97304 8.27174 3.63632 8.6693 3.49502 9.32926C3.4062 9.81454 3.36179 10.9574 3.36179 12.761C3.36179 14.303 3.60968 15.4364 4.10546 16.1652C4.70783 17.0844 5.75189 17.5428 7.24005 17.5428H9.44363C10.4174 17.5428 10.9835 17.621 11.1434 17.7775C11.3024 17.934 11.3824 18.496 11.3824 19.4665Z" fill="#212529"/>
<path d="M82.4318 13.0005C82.4318 19.7747 76.8231 25.2646 69.9015 25.2646C62.9799 25.2646 57.3696 19.7747 57.3696 13.0005C57.3696 6.22702 62.9799 0.736328 69.9015 0.736328C76.8231 0.736328 82.4318 6.22702 82.4318 13.0005Z" fill="white"/>
<path d="M64.1514 12.9995L69.9021 18.6269L75.6521 12.9995L69.9013 7.37204L64.1514 12.9995ZM58.2568 12.9995C58.2568 6.70418 63.4707 1.60156 69.9021 1.60156C76.3328 1.60156 81.5466 6.70418 81.5466 12.9995C81.5466 19.2948 76.3328 24.3974 69.9021 24.3974C63.4707 24.3974 58.2568 19.2948 58.2568 12.9995Z" fill="#212529"/>
<path d="M199.028 19.4147C197.56 19.4147 196.675 19.3799 196.373 19.3103C196.001 19.225 195.594 18.9389 195.152 18.4536L191.699 14.6322C191.415 14.32 191.274 14.0599 191.274 13.8521C191.274 13.6442 191.415 13.3842 191.699 13.0728L195.55 8.73126H198.604L193.371 13.8007L199.028 19.4147ZM191.088 19.4147C189.956 19.4147 189.292 19.338 189.096 19.1815C188.919 19.025 188.83 18.4797 188.83 17.5431V4.70117C189.964 4.70117 190.619 4.78021 190.796 4.9367C190.991 5.07502 191.088 5.60219 191.088 6.52139V19.4147ZM186.787 19.4147C185.652 19.4147 184.989 19.338 184.794 19.1815C184.618 19.025 184.53 18.4797 184.53 17.5431V13.4877C184.53 12.431 184.379 11.6944 184.077 11.2778C183.687 10.7412 182.953 10.4724 181.872 10.4724C180.474 10.4724 179.652 10.6029 179.403 10.8629C179.174 11.1055 179.057 11.9805 179.057 13.4877V19.4147C177.925 19.4147 177.262 19.338 177.067 19.1815C176.889 19.025 176.801 18.4797 176.801 17.5431V8.78264C177.668 8.78264 178.172 8.84428 178.315 8.96521C178.455 9.08614 178.527 9.51926 178.527 10.2654C179.094 9.17308 180.421 8.62693 182.511 8.62693C184.175 8.62693 185.334 9.08614 185.99 10.0045C186.521 10.768 186.787 11.9892 186.787 13.6703V19.4147ZM174.863 19.4147C174.011 19.4147 173.517 19.3467 173.375 19.2076C173.233 19.0693 173.163 18.6006 173.163 17.8023C172.879 18.271 172.392 18.6607 171.701 18.9736C170.904 19.338 169.984 19.5182 168.94 19.5182C167.7 19.5182 166.7 19.2582 165.938 18.7397C165.107 18.1675 164.69 17.3526 164.69 16.2951C164.69 15.2392 165.044 14.3982 165.753 13.7738C166.532 13.098 167.683 12.7606 169.205 12.7606H172.631C172.631 11.9805 172.392 11.4256 171.915 11.0968C171.455 10.768 170.702 10.6029 169.656 10.6029H167.426C166.594 10.6029 166.107 10.5341 165.965 10.395C165.823 10.2385 165.753 9.71053 165.753 8.80951H169.577C171.613 8.80951 173.03 9.21576 173.826 10.0314C174.516 10.7064 174.863 11.8153 174.863 13.3581V19.4147ZM172.631 14.84V14.5017H169.55C168.294 14.5017 167.558 14.5792 167.347 14.7357C167.134 14.8748 167.028 15.3846 167.028 16.269C167.028 17.2917 167.842 17.8023 169.47 17.8023C171.046 17.8023 171.968 17.6822 172.233 17.4388C172.498 17.1803 172.631 16.3133 172.631 14.84ZM163.337 15.542C163.337 18.1407 161.531 19.4408 157.918 19.4408H154.732C153.635 19.4408 152.987 19.3626 152.793 19.2077C152.616 19.0504 152.527 18.505 152.527 17.5692V8.00341C152.527 7.04944 152.616 6.49618 152.793 6.3389C152.987 6.18399 153.635 6.10495 154.732 6.10495H157.838C161.221 6.10495 162.911 7.26679 162.911 9.58889C162.911 11.1483 162.309 12.0667 161.105 12.3441C161.795 12.5346 162.354 12.9503 162.779 13.5921C163.15 14.1643 163.337 14.814 163.337 15.542ZM160.627 9.90109C160.627 8.63492 159.724 8.00341 157.918 8.00341H154.864V11.7719H158.052C159.344 11.7719 160.097 11.6944 160.309 11.5387C160.521 11.3822 160.627 10.8369 160.627 9.90109ZM160.946 15.5159C160.946 14.1991 159.981 13.5399 158.052 13.5399H154.864V17.5692H157.998C159.468 17.5692 160.326 17.4831 160.574 17.3092C160.823 17.1361 160.946 16.5378 160.946 15.5159Z" fill="#212529"/>
<path d="M150.074 13.2006C150.074 14.085 149.977 14.6043 149.782 14.76C149.587 14.8991 148.906 14.9686 147.737 14.9686H142.055C142.055 15.7827 142.311 16.4324 142.825 16.9177C143.356 17.403 144.108 17.6464 145.081 17.6464H147.471C148.357 17.6464 148.871 17.7239 149.012 17.8804C149.171 18.0187 149.251 18.5387 149.251 19.439H145.161C141.568 19.439 139.771 17.6464 139.771 14.0589C139.771 10.4367 141.585 8.62595 145.214 8.62595C146.79 8.62595 148.012 9.06697 148.88 9.9514C149.676 10.7663 150.074 11.8491 150.074 13.2006ZM147.737 13.2006C147.755 13.1658 147.755 13.1484 147.737 13.1484C147.773 11.2768 146.86 10.3418 145.001 10.3418C143.55 10.3418 142.692 10.462 142.426 10.7054C142.179 10.9481 142.055 11.7795 142.055 13.2006H147.737ZM138.363 14.1099C138.363 17.7677 136.832 19.5959 133.769 19.5959C131.927 19.5959 130.697 19.1106 130.077 18.14V23.5208C128.961 23.5208 128.306 23.4434 128.111 23.2861C127.935 23.1478 127.847 22.6198 127.847 21.7014V8.75596C128.696 8.75596 129.193 8.82551 129.333 8.96383C129.475 9.08475 129.546 9.52736 129.546 10.2893C130.201 9.18039 131.591 8.62555 133.716 8.62555C136.813 8.62555 138.363 10.4537 138.363 14.1099ZM136.077 14.1099C136.077 12.9149 135.892 12.0305 135.521 11.459C135.043 10.7833 134.238 10.4458 133.105 10.4458C131.582 10.4458 130.688 10.6015 130.423 10.9121C130.174 11.2251 130.051 12.2905 130.051 14.1099C130.051 15.3065 130.227 16.1728 130.582 16.7102C131.043 17.4034 131.865 17.7504 133.05 17.7504C134.574 17.7504 135.46 17.6026 135.706 17.3085C135.956 16.9963 136.077 15.9301 136.077 14.1099ZM126.042 14.0848C126.042 17.7237 124.234 19.5431 120.623 19.5431C117.046 19.5431 115.258 17.7237 115.258 14.0848C115.258 10.4618 117.056 8.65261 120.649 8.65261C124.243 8.65261 126.042 10.4618 126.042 14.0848ZM123.73 14.0848C123.73 12.9404 123.535 12.0923 123.147 11.5375C122.668 10.8261 121.835 10.4713 120.649 10.4713C119.109 10.4713 118.206 10.627 117.94 10.9391C117.693 11.2347 117.569 12.282 117.569 14.0848C117.569 16.5112 118.586 17.7237 120.623 17.7237C122.181 17.7237 123.085 17.5775 123.332 17.2826C123.598 16.9697 123.73 15.9042 123.73 14.0848ZM114.992 8.70445C114.992 9.67424 114.93 10.237 114.808 10.3935C114.701 10.5326 114.286 10.6013 113.558 10.6013C112.656 10.6013 112.099 10.7831 111.885 11.1475C111.726 11.4415 111.646 12.2303 111.646 13.5131V19.4132C110.513 19.4132 109.851 19.3365 109.655 19.18C109.477 19.0235 109.39 18.4868 109.39 17.5684V8.75662C110.256 8.75662 110.761 8.81587 110.903 8.93682C111.044 9.05933 111.114 9.49166 111.114 10.237C111.664 9.12809 112.957 8.61672 114.992 8.70445ZM107.184 19.4133C106.317 19.4133 105.812 19.3533 105.67 19.2323C105.531 19.0932 105.459 18.6419 105.459 17.8808C104.875 18.9897 103.547 19.5429 101.476 19.5429C99.7928 19.5429 98.6243 19.0932 97.9695 18.1914C97.4382 17.4469 97.1733 16.2424 97.1733 14.5778V8.75599C98.2876 8.75599 98.9344 8.83345 99.1112 8.98915C99.3059 9.14564 99.4036 9.70918 99.4036 10.679V14.7604C99.4036 15.7998 99.5626 16.519 99.8816 16.9181C100.271 17.4208 101.015 17.6714 102.113 17.6714C103.511 17.6714 104.325 17.5504 104.555 17.3078C104.787 17.0485 104.902 16.1641 104.902 14.6561V8.75599C106.034 8.75599 106.689 8.83345 106.867 8.98915C107.06 9.14564 107.159 9.70918 107.159 10.679L107.184 19.4133ZM95.4737 19.4133H88.3284C87.1794 19.4133 86.5051 19.3367 86.3097 19.1802C86.1151 19.0237 86.019 18.4696 86.019 17.5164V8.00277C86.019 7.04801 86.1151 6.49475 86.3097 6.33746C86.5051 6.18255 87.1794 6.10352 88.3284 6.10352H93.5616C94.5176 6.10352 95.0748 6.18255 95.2339 6.33746C95.3937 6.49475 95.4737 7.04801 95.4737 8.00277H88.3284V11.693H92.9237C93.862 11.693 94.4111 11.7705 94.5709 11.927C94.7292 12.0827 94.8091 12.6209 94.8091 13.5385H88.3284V17.5164H93.4025C94.4474 17.5164 95.049 17.5931 95.208 17.7504C95.3849 17.9053 95.4737 18.4617 95.4737 19.4133Z" fill="#212529"/>
</g>
<defs>
<clipPath id="clip0_188_5183">
<rect width="200" height="26" fill="white"/>
</clipPath>
</defs>
</svg>
