<svg width="120" height="48" viewBox="0 0 120 48" fill="none" xmlns="http://www.w3.org/2000/svg">
<path d="M15.5466 10.4355C7.08833 10.4355 0.0400391 13.9943 0.0400391 24.731C0.0400391 33.2368 4.7795 38.5932 15.765 38.5932C28.6955 38.5932 29.5244 30.1459 29.5244 30.1459H23.259C23.259 30.1459 21.9156 34.6945 15.3828 34.6945C10.062 34.6945 6.23514 31.1298 6.23514 26.1335H30.1796V22.9982C30.1796 18.0552 27.0156 10.4355 15.5466 10.4355ZM15.3282 14.4426C20.393 14.4426 23.8459 17.5198 23.8459 22.1318H6.37371C6.37371 17.2356 10.8806 14.4426 15.3282 14.4426Z" fill="#212529"/>
<path d="M30.175 0.0390625V33.2015C30.175 35.0839 30.0396 37.727 30.0396 37.727H36.0154C36.0154 37.727 36.2299 35.8287 36.2299 34.0938C36.2299 34.0938 39.1824 38.6747 47.2104 38.6747C55.6642 38.6747 61.4066 32.854 61.4066 24.5146C61.4066 16.7566 56.132 10.517 47.2241 10.517C38.8824 10.517 36.2903 14.9843 36.2903 14.9843V0.0390625H30.175ZM45.6816 14.6188C51.4224 14.6188 55.0729 18.8442 55.0729 24.5146C55.0729 30.595 50.8567 34.5728 45.7226 34.5728C39.5954 34.5728 36.2903 29.8283 36.2903 24.5687C36.2903 19.6678 39.2561 14.6188 45.6816 14.6188Z" fill="#212529"/>
<path d="M76.258 10.4355C63.5332 10.4355 62.7171 17.3455 62.7171 18.4497H69.0508C69.0508 18.4497 69.3829 14.4155 75.8212 14.4155C80.005 14.4155 83.2469 16.3147 83.2469 19.9658V21.2654H75.8212C65.9631 21.2654 60.7515 24.1255 60.7515 29.9293C60.7515 35.6411 65.5669 38.7489 72.0743 38.7489C80.9429 38.7489 83.7998 33.889 83.7998 33.889C83.7998 35.822 83.95 37.7268 83.95 37.7268H89.5806C89.5806 37.7268 89.3622 35.3657 89.3622 33.8552V20.7984C89.3622 12.2372 82.3992 10.4355 76.258 10.4355ZM83.2469 25.1642V26.897C83.2469 29.157 81.8407 34.7757 73.5621 34.7757C69.0288 34.7757 67.0851 32.5319 67.0851 29.9293C67.0851 25.1947 73.6307 25.1642 83.2469 25.1642Z" fill="#212529"/>
<path d="M85.9521 11.5195H93.0761L103.302 31.8375L113.506 11.5195H119.96L101.376 47.6915H94.6061L99.9681 37.6075L85.9521 11.5195Z" fill="#212529"/>
</svg>
