<svg width="120" height="120" viewBox="0 0 120 120" fill="none" xmlns="http://www.w3.org/2000/svg">
<g clip-path="url(#clip0_178_1495)">
<path fill-rule="evenodd" clip-rule="evenodd" d="M92.2575 60.0501V39.4861C102.899 40.1616 111.37 49.0516 111.37 59.8578C111.373 64.1653 110.006 68.362 107.465 71.8406L95.4132 60.2382L102.717 51.0101H99.3938L92.2575 60.0501ZM92.2575 37.1621V32.1699H89.5351V37.1684C80.1763 37.7504 72.3204 44.0382 69.4193 52.5802C69.3477 52.7906 69.2792 53.0023 69.2138 53.2158H71.6542C71.7232 53.0154 71.7954 52.8162 71.8709 52.6182C74.6418 45.3524 81.455 40.0545 89.5357 39.4942V66.9853H92.2581V60.6714L105.959 73.6771C102.224 77.7274 96.8787 80.2724 90.9557 80.2724C82.3714 80.2724 75.1318 75.4694 72.1236 67.9372H69.6465C72.768 76.773 81.0734 82.5926 90.9557 82.5926C97.5386 82.5926 103.482 79.7694 107.641 75.2727L112.533 79.9188H115.856L109.151 73.4623C112 69.6648 113.691 64.9533 113.691 59.8584C113.691 47.7741 104.177 37.8413 92.2575 37.1621ZM62.834 66.9847H65.087L68.8633 57.898H68.963L68.8633 58.9607V66.9853H71.6468V54.1278H67.165L63.9614 63.9193L60.929 54.1278H56.2754V66.9847H59.0582V58.9601L58.9586 57.8974H59.0582L62.834 66.9847ZM12.4218 61.6345C9.35952 61.6345 6.98885 61.9116 6.99508 57.5873C7.00068 53.6093 9.07003 52.7688 12.4679 53.3098L12.4218 61.6345ZM15.8876 61.6345C18.9505 61.6345 21.3205 61.9116 21.3149 57.5873C21.3093 53.6093 19.24 52.7688 15.8421 53.3098L15.8876 61.6345ZM12.6036 66.2358H15.7481V64.3464C20.3369 64.3464 24.9886 64.385 25.0204 57.2674C25.054 49.6156 20.2037 50.6671 15.7481 50.6671V48.6208H12.6036V50.4859C7.36114 50.4859 3.49324 51.0475 3.46834 57.8575C3.44655 63.7057 7.91521 64.4155 12.6036 64.3464V66.2358ZM30.2896 57.6502C30.2535 56.7899 30.604 55.4626 32.6783 55.6444C33.995 55.7595 35.3291 55.4937 35.3291 57.898C35.3291 58.058 35.4885 59.9281 35.3646 59.9424L34.8442 59.9991C34.2814 59.5428 33.6271 59.0703 32.1423 59.0148C29.4361 58.9134 26.7996 59.7053 26.8432 63.0988C26.8675 64.9957 26.789 66.8876 30.8624 66.8876C32.5775 66.8876 33.9913 66.7419 35.2775 65.5479L35.2725 66.4369L38.3541 66.4624L38.3311 57.949C38.3242 55.1152 36.7168 54.0768 32.6789 54.0768C26.7828 54.0768 27.3599 56.7158 27.3599 57.6515H30.2896V57.6502ZM31.1792 61.0263H33.8929C34.645 61.0263 35.26 61.6414 35.26 62.3928V63.4275C35.2589 63.7896 35.1145 64.1366 34.8583 64.3927C34.6022 64.6487 34.2551 64.793 33.8929 64.794H31.1792C30.817 64.793 30.4699 64.6487 30.2136 64.3927C29.9574 64.1367 29.8128 63.7897 29.8115 63.4275V62.3928C29.813 62.0306 29.9576 61.6837 30.2138 61.4277C30.47 61.1717 30.817 61.0275 31.1792 61.0263ZM77.7639 57.6502C77.7272 56.7899 78.0789 55.4626 80.1533 55.6444C81.47 55.7595 82.8041 55.4937 82.8041 57.898C82.8041 58.058 82.9635 59.9281 82.8396 59.9424L82.3179 59.9991C81.7563 59.5428 81.102 59.0703 79.616 59.0148C76.9104 58.9134 74.2745 59.7053 74.3169 63.0988C74.3412 64.9957 74.2621 66.8876 78.3367 66.8876C80.0512 66.8876 81.465 66.7419 82.7518 65.5479L82.7468 66.4369L85.8278 66.4624L85.806 57.949C85.7973 55.1152 84.1911 54.0768 80.1533 54.0768C74.2571 54.0768 74.8336 56.7158 74.8336 57.6515H77.7639V57.6502ZM78.6542 61.0263H81.3679C82.1193 61.0263 82.7344 61.6414 82.7344 62.3928V63.4275C82.7332 63.7895 82.5889 64.1364 82.3328 64.3925C82.0768 64.6485 81.7299 64.7928 81.3679 64.794H78.6542C78.2919 64.7931 77.9447 64.649 77.6884 64.3929C77.4321 64.1368 77.2876 63.7898 77.2864 63.4275V62.3928C77.2864 61.642 77.9015 61.0263 78.6542 61.0263ZM41.4195 53.9983V71.7086H44.4215V65.7639L44.9842 65.777C45.5975 66.0129 46.9546 66.8459 48.3796 66.7581C52.5165 66.5041 53.591 64.4516 53.591 60.2519C53.591 55.4701 52.0383 53.7369 48.4294 53.7935C46.7174 53.8209 45.303 54.568 44.9102 55.3294L44.3492 55.3138H44.2783V53.9983H41.4195ZM50.3375 58.3668V62.3679C50.3362 62.9022 50.1235 63.4143 49.7458 63.7923C49.368 64.1702 48.8561 64.3833 48.3217 64.385H46.7971C46.2628 64.3833 45.7508 64.1702 45.3731 63.7923C44.9954 63.4143 44.7826 62.9022 44.7813 62.3679V58.3668C44.7828 57.8325 44.9956 57.3206 45.3733 56.9428C45.751 56.565 46.2629 56.352 46.7971 56.3503H48.3217C48.856 56.352 49.3678 56.565 49.7455 56.9428C50.1232 57.3206 50.3361 57.8325 50.3375 58.3668Z" fill="#212529"/>
</g>
<defs>
<clipPath id="clip0_178_1495">
<rect width="120" height="120" fill="white"/>
</clipPath>
</defs>
</svg>
