<svg width="140" height="35" viewBox="0 0 140 35" fill="none" xmlns="http://www.w3.org/2000/svg">
<g clip-path="url(#clip0_188_4152)">
<path d="M98.4004 0.699219C98.5417 7.77599 98.3719 14.8525 98.2313 21.9297C98.1881 24.108 98.2246 26.2878 98.2246 29.5525C91.1688 21.6123 84.7671 14.408 77.954 6.74089C77.954 14.4973 77.954 21.6268 77.954 29.0315C76.6842 29.0315 75.5194 29.0315 74.2654 29.0315C74.2654 21.0508 74.301 13.1655 74.2307 5.28113C74.2188 3.95202 73.7497 2.62698 73.4961 0.999639C74.9295 0.699219 76.3586 0.699219 78.1814 0.922137C79.5092 1.98319 80.5272 2.74578 81.3638 3.67214C85.6965 8.46936 89.9828 13.3084 94.5003 18.374C94.5003 12.1708 94.5003 6.43499 94.5003 0.699219C95.7004 0.699219 96.9004 0.699219 98.4004 0.699219Z" fill="#212529"/>
<path d="M61.272 0.699219C62.0613 0.968397 62.4954 1.31137 62.9889 1.49474C66.1145 2.65628 68.1441 4.70541 68.1671 8.19021C68.1904 11.7123 66.4538 14.1323 63.1682 15.4317C62.6478 15.6375 62.1454 15.8887 61.3461 16.2489C64.4372 20.5834 67.3866 24.7194 70.3214 28.8348C66.4961 29.7677 65.0217 29.295 62.8273 26.2169C60.0105 22.2658 57.2508 18.2741 54.3437 14.1245C61.7098 13.5325 64.2663 11.6635 63.6697 7.59197C63.0959 3.67589 59.0675 2.04614 52.9621 3.38532C52.9621 11.9041 52.9621 20.4695 52.9621 29.1698C51.3631 29.1698 49.7625 29.1698 48.1973 29.1698C48.1973 19.8537 48.1973 10.6013 48.2485 1.02408C52.5146 0.699218 56.7294 0.699218 61.272 0.699219Z" fill="#212529"/>
<path d="M119.467 0.699219C119.308 1.76816 118.916 2.8371 118.576 3.76629C114.976 3.76629 111.658 3.76629 108.143 3.76629C108.143 6.97097 108.143 10.0468 108.143 13.4817C111.454 13.4817 114.642 13.4817 118.41 13.4817C115.963 18.9515 111.164 14.9342 108.121 17.1288C108.121 19.8907 108.121 22.8747 108.121 26.1274C111.808 26.1274 115.464 26.1274 119.134 26.1274C118.504 29.2421 118.504 29.2624 115.677 29.2755C111.613 29.2944 107.549 29.2803 103.324 29.2803C103.324 20.1047 103.324 11.1033 103.626 1.75801C105.201 1.40173 106.477 1.43916 107.747 1.36756C111.266 1.16908 114.782 0.925173 118.3 0.699219C118.611 0.699219 118.922 0.699219 119.467 0.699219Z" fill="#212529"/>
<path d="M22.7854 0.699219C22.2367 1.8352 21.4271 3.01767 20.4993 4.09866C17.4075 7.70097 14.2733 11.2669 11.0448 14.9737C17.0952 22.5928 20.8379 32.1808 31.0062 35.4815C29.141 35.6992 27.4816 35.6992 25.4198 35.4647C20.6987 34.0083 17.3404 31.4493 14.7453 27.8359C12.3708 24.5297 9.97869 21.2356 7.65234 17.8957C6.92658 16.8538 6.38961 15.6803 6.04883 14.5889C9.61743 10.9524 12.9593 7.34137 16.1376 3.5918C16.7056 2.92177 16.5967 1.67805 16.8004 0.699219C18.6904 0.699219 20.5804 0.699219 22.7854 0.699219Z" fill="#212529"/>
<path d="M128.494 0.699219C128.8 9.13566 128.8 17.5721 128.8 26.0826C132.807 26.0826 136.476 26.0826 140.422 25.9909C140.7 25.8992 140.7 26.2492 140.7 26.4242C139.484 28.7487 137.778 29.5449 135.208 29.3484C131.531 29.0671 127.816 29.2767 123.929 29.2767C123.929 19.7733 123.929 10.5272 123.915 0.990156C125.329 0.699219 126.758 0.699219 128.494 0.699219Z" fill="#212529"/>
<path d="M5.85989 14.6056C5.85989 19.3641 5.85989 24.1225 5.85989 29.2835C4.78069 29.2835 3.4393 29.2835 1.70474 29.0043C1.34102 19.3831 1.37046 10.0412 1.3999 0.699219C2.59995 0.699219 3.8 0.699219 5.57619 0.922153C6.05485 5.63192 5.95737 10.1188 5.85989 14.6056Z" fill="#212529"/>
<path d="M1.05011 0.699219C1.37067 10.0412 1.34123 19.3831 1.40519 29.0387C1.36636 29.3745 1.23412 29.3967 0.900999 29.4091C0.700106 19.8326 0.700106 10.2659 1.05011 0.699219Z" fill="#212529"/>
<path d="M43.7718 0.699219C44.0667 1.11208 44.0336 1.52495 43.6546 1.79645C38.1878 1.44736 33.0669 1.23963 27.9461 1.0319C27.9461 1.0319 27.8455 0.844957 27.9227 0.772088C33.1478 0.699219 38.2958 0.699219 43.7718 0.699219Z" fill="#212529"/>
<path d="M117.972 0.699219C114.782 0.925172 111.265 1.16908 107.746 1.36756C106.477 1.43916 105.201 1.40173 103.574 1.43771C103.038 1.35416 102.945 1.19503 102.919 0.841599C107.814 0.699219 112.729 0.699219 117.972 0.699219Z" fill="#212529"/>
<path d="M27.7813 1.35536C33.0673 1.24014 38.1881 1.44786 43.4884 1.92507C42.7672 2.74967 41.8982 3.71003 40.9598 3.78344C38.2129 3.99833 35.4383 3.85989 32.4999 3.85989C32.4999 7.17615 32.4999 10.1578 32.4999 13.5932C35.6579 13.5932 38.8419 13.5932 42.0469 13.5932C42.324 17.014 40.2133 16.6246 38.4031 16.635C36.5493 16.6456 34.6954 16.6374 32.5805 16.6374C32.5805 20.1217 32.5805 23.4219 32.5805 27.1187C36.0913 27.1187 39.6308 27.1187 43.1703 27.1187C43.274 27.4187 43.3778 27.7187 43.4815 28.0188C42.7553 28.4578 42.0386 29.2577 41.3015 29.2769C36.7807 29.3947 32.2552 29.3359 27.6162 29.3359C27.6162 19.959 27.6162 10.8187 27.7813 1.35536Z" fill="#212529"/>
</g>
<defs>
<clipPath id="clip0_188_4152">
<rect width="140" height="35" fill="white"/>
</clipPath>
</defs>
</svg>
