<svg width="120" height="90" viewBox="0 0 120 90" fill="none" xmlns="http://www.w3.org/2000/svg">
<g clip-path="url(#clip0_188_4228)">
<path d="M30.7515 63.836C36.5467 63.8138 42.3418 63.775 48.137 63.7726C62.0985 63.767 76.06 63.7785 90.2393 63.8824C90.543 64.0596 90.6411 64.1164 90.7723 64.306C90.9034 65.1924 91.1062 65.9244 91.1095 66.6573C91.1357 72.5276 91.0759 78.3988 91.1569 84.2681C91.178 85.7993 90.7696 86.2882 89.1832 86.2839C70.0731 86.2319 50.9628 86.2334 31.8527 86.2826C30.3426 86.2865 29.9552 85.8229 29.9701 84.3669C30.0391 77.6228 30.0012 70.8776 30.1076 64.1268C30.393 64.0259 30.5722 63.931 30.7515 63.836ZM75.6655 72.0503C75.308 72.1618 74.9504 72.2733 74.5414 72.0672C74.5414 71.3317 74.5414 70.5962 74.5414 69.833C72.5931 69.0841 72.1183 70.6408 71.4594 71.7421C70.7825 72.8733 70.2561 74.0946 69.6281 75.3478C68.0973 73.2779 67.9513 70.2041 64.8123 69.4747C64.6169 73.3112 64.4443 76.7002 64.2667 80.1877C64.8756 80.1877 65.458 80.1877 66.2616 80.1877C66.2616 77.8243 66.2616 75.567 66.2616 73.3096C66.4185 73.2692 66.5755 73.2288 66.7324 73.1884C67.2053 74.2244 67.6895 75.2554 68.1474 76.298C68.4967 77.0932 68.4086 78.4678 69.7426 78.0812C70.2653 77.9297 70.5507 76.8316 70.8676 76.1301C71.2498 75.284 71.5506 74.4012 71.8866 73.5343C72.4912 75.5344 72.7294 77.4098 73.1602 79.24C73.262 79.6728 73.9652 80.1371 74.4723 80.2633C75.364 80.4851 75.5089 79.8853 75.5731 79.0927C75.7824 78.7896 75.9918 78.4865 76.4129 78.3391C76.6742 78.605 76.9199 78.8889 77.1995 79.134C79.0902 80.7905 81.7759 81.0674 83.9742 79.8428C85.8505 78.7976 86.8339 76.8594 86.5019 74.8611C86.0824 72.3357 84.3392 70.5622 81.7047 69.7881C80.0251 68.6186 76.9787 69.8202 76.0577 72.0701C76.0577 72.0701 75.9496 72.0825 75.6655 72.0503ZM45.5719 74.5159C45.3882 74.3034 45.2044 74.091 44.9957 73.5696C44.9286 73.0505 44.8615 72.5314 44.7253 71.4775C44.1772 72.2985 43.92 72.5681 43.7952 72.8892C42.9409 75.0863 43.6017 77.567 45.4353 79.1553C47.3216 80.7893 50.0155 81.0521 52.2289 79.8182C54.3238 78.6504 54.9852 76.9458 54.4577 74.0743C54.0548 71.8808 51.7719 69.9914 49.6805 70.1206C46.4651 70.3191 45.8886 70.934 45.799 74.2565C45.7957 74.3803 45.7698 74.5036 45.5719 74.5159ZM42.7225 70.9504C42.8088 70.6627 42.8951 70.3749 42.9814 70.0871C42.4694 69.9931 41.8424 69.6632 41.466 69.8469C40.0576 70.5343 38.7313 71.3896 37.2694 72.2432C37.2147 71.4463 37.1615 70.6718 37.096 69.7182C36.3476 69.783 35.7263 69.8368 35.3218 69.8719C35.3218 73.4231 35.3218 76.6887 35.3218 80.1051C36.0045 80.1758 36.5808 80.2355 37.2698 80.3069C37.3541 79.0382 37.4252 77.9678 37.4928 76.9503C39.2225 78.1185 40.8394 79.2176 42.4641 80.3052C43.5223 81.0136 44.0282 80.502 44.3537 79.3868C43.6344 78.98 42.9188 78.6205 42.2503 78.1883C40.7581 77.2234 38.4416 76.3994 38.8672 74.4559C39.1575 73.1305 41.2043 72.1897 42.7225 70.9504ZM55.5526 76.4536C56.4434 79.1449 57.9825 80.274 61.0395 80.2427C61.8074 80.2349 62.5703 79.7444 63.3354 79.4758C62.6274 79.2223 61.9357 78.8247 61.2084 78.7431C59.2437 78.5225 57.8014 77.3927 57.4667 75.6305C57.1365 73.8922 57.9125 72.6605 59.9764 71.782C60.8794 71.3976 61.8296 71.124 63.3906 70.5796C62.4338 70.0108 61.8931 69.4046 61.4105 69.4477C57.4901 69.7981 55.32 72.3189 55.5526 76.4536Z" fill="#212529"/>
<path d="M66.7494 10.1301C61.4754 11.9058 56.5928 14.3096 52.9967 18.774C51.1788 17.6169 49.4806 16.3492 47.6236 15.3881C41.3832 12.1581 35.1196 13.8872 31.2133 19.6663C30.8365 18.8314 30.4172 18.0956 30.406 17.3535C30.3419 13.1087 30.435 8.86121 30.3427 4.61749C30.3096 3.09838 30.7071 2.58733 32.3065 2.59183C51.7868 2.64661 71.2672 2.63047 90.7489 2.80779C90.7501 7.13102 90.7501 11.2792 90.7501 15.5555C89.2217 14.1162 88.0234 12.6428 86.5157 11.63C81.1358 8.01642 75.1191 7.7227 68.956 8.75177C68.1658 8.88372 67.4824 9.65502 66.7494 10.1301Z" fill="#212529"/>
<path d="M62.6141 30.753C62.9015 30.7863 63.1889 30.8196 63.7547 30.7731C64.1985 30.1358 64.3451 29.5719 64.5332 29.0222C64.9763 27.7271 65.578 26.642 67.2121 26.607C68.5234 26.5788 69.5826 27.1204 69.6572 28.3616C69.7309 29.5869 69.6148 31.1737 68.8967 32.0215C67.5312 33.6337 65.7545 34.9438 63.9973 36.161C62.9049 36.9176 62.0667 36.2584 61.8624 34.8943C61.2226 30.6235 60.0944 26.4669 57.4908 22.9749C56.4094 21.5244 56.7649 20.8322 57.8725 19.9443C61.2675 17.2228 65.1515 15.5556 69.5269 14.5945C70.4141 14.4684 71.1415 14.2947 71.8758 14.2581C74.9832 14.1032 78.0717 14.157 81.0859 15.4821C81.6311 15.7553 82.1032 15.9255 82.5753 16.0958C82.91 16.3793 83.2447 16.6628 83.6131 17.1898C84.0421 17.9825 84.4375 18.5317 84.8329 19.0808C84.8329 19.0808 84.794 19.0979 84.7847 19.2348C84.8126 19.7374 84.7772 20.1294 84.8986 20.4644C85.6621 22.5704 86.1527 24.6684 85.5439 26.9368C85.0699 28.7027 84.7973 30.5226 84.4352 32.3186C84.4352 32.3186 84.4253 32.2823 84.3157 32.3241C84.0054 32.5961 83.7532 32.7985 83.6117 33.0606C79.8099 40.1041 73.6504 44.3102 66.4688 47.2565C65.2056 47.7747 63.8401 48.044 62.6223 48.3989C62.6223 46.3274 62.6738 44.5431 62.6038 42.7635C62.5586 41.6137 63.025 41.156 64.1221 40.8429C68.3059 39.6488 71.5796 37.1753 73.6783 33.3396C75.5043 30.0025 74.579 25.5817 71.823 23.7408C68.1895 21.3137 65.3802 21.7183 62.485 25.0856C61.0581 26.7452 61.1298 29.8926 62.6141 30.753Z" fill="#212529"/>
<path d="M29.3237 33.6882C29.5549 33.629 29.9795 33.4941 29.99 33.5211C34.8655 45.9982 44.6777 51.3006 57.3814 52.4253C57.5559 52.4408 57.7222 52.5485 58.2623 52.7538C57.2381 55.6792 56.253 58.6027 55.1585 61.4847C55.0159 61.8604 54.311 62.2489 53.8658 62.2498C45.8136 62.2656 37.7612 62.2227 29.6276 61.9699C29.499 61.5262 29.4518 61.3049 29.4045 61.0837C29.4009 52.6002 29.3973 44.1168 29.4712 35.3383C29.4737 34.5916 29.3987 34.1399 29.3237 33.6882Z" fill="#212529"/>
<path d="M91.7854 28.5559C91.7345 38.7954 91.6863 49.035 91.631 59.2745C91.6117 62.8401 92.0335 62.2706 88.7138 62.2785C78.7845 62.3019 68.8551 62.3001 58.9258 62.3036C58.6262 62.3037 58.3266 62.2535 58.1064 62.2339C59.0365 59.1488 59.8985 56.1129 60.91 53.1277C61.0589 52.6882 61.8865 52.2947 62.4508 52.2071C73.7912 50.4468 82.6219 44.842 88.5409 34.9688C89.7241 32.9951 90.197 30.5957 91.1591 28.2969C91.4757 28.3194 91.6305 28.4376 91.7854 28.5559ZM71.4398 50.6214C68.7102 51.3785 65.9438 52.0295 63.2725 52.955C62.4325 53.246 61.6656 54.1706 61.1989 54.9942C60.7625 55.7644 60.8454 56.8102 60.5605 57.6896C60.1752 58.8792 59.6569 60.0257 59.1536 61.2969C59.719 61.4044 59.9579 61.4893 60.1969 61.4895C69.8132 61.4982 79.4295 61.4793 89.0456 61.5217C90.5564 61.5284 90.771 60.7673 90.7666 59.5243C90.7386 51.4692 90.7547 43.4139 90.7461 35.3587C90.7456 34.8936 90.6551 34.4285 90.6065 33.9634C86.0507 41.5888 79.7327 47.0284 71.4398 50.6214Z" fill="#212529"/>
<path d="M90.7476 2.6321C71.2672 2.62983 51.7868 2.64596 32.3065 2.59118C30.7072 2.58669 30.3097 3.09773 30.3427 4.61684C30.435 8.86057 30.3419 13.1081 30.406 17.3529C30.4172 18.0949 30.8365 18.8308 31.0959 19.7101C30.5429 20.9522 29.9615 22.0538 29.4194 22.9377C29.4462 22.2586 29.4336 21.7972 29.4211 21.3357C29.414 15.2272 29.4069 9.11857 29.4681 2.74558C29.5412 2.25951 29.546 2.03785 29.5508 1.81619C29.9692 1.74975 30.3876 1.62532 30.806 1.62518C50.5252 1.61864 70.2444 1.62288 90.1402 1.70049C90.3169 1.77508 90.3666 1.90164 90.4124 1.9942C90.5547 2.26854 90.6512 2.45032 90.7476 2.6321Z" fill="#212529"/>
<path d="M58.7572 42.1811C58.7606 44.6471 58.7606 46.9445 58.7606 49.4443C54.43 49.4077 50.6324 48.5633 47.0871 46.8154C40.8869 43.7588 35.7983 39.6045 34.2903 32.3959C33.9125 30.5896 33.7415 28.6682 33.8961 26.8353C34.4335 20.4634 40.1321 16.8515 46.1715 18.9755C47.3343 19.3845 48.3867 20.1025 49.4996 20.6589C50.7097 21.2638 50.7336 21.9902 50.1377 23.1899C47.4232 28.655 48.131 34.4707 52.1159 37.7726C53.6408 39.0361 55.7432 39.5859 57.522 40.5703C58.04 40.8569 58.349 41.5213 58.7572 42.1811ZM51.0334 47.4538C52.8606 47.7612 54.6813 48.1325 56.5207 48.3223C56.8926 48.3607 57.6693 47.732 57.69 47.3775C57.8054 45.4035 57.7454 43.4193 57.7454 42.2697C55.0155 40.4495 52.4736 39.3337 50.7268 37.472C46.8401 33.3296 47.0604 28.4263 49.099 23.4199C49.3337 22.8435 49.4036 21.7514 49.0664 21.4621C46.5131 19.272 41.1894 18.4793 38.4766 20.4711C35.0696 22.9724 34.4262 26.2368 34.7686 30.3054C35.514 39.1609 43.8795 45.3597 51.0334 47.4538Z" fill="#212529"/>
<path d="M30.0018 64.1315C30.0014 70.8762 30.0393 77.6214 29.9703 84.3655C29.9554 85.8215 30.3428 86.2851 31.8529 86.2812C50.963 86.232 70.0733 86.2305 89.1833 86.2825C90.7697 86.2868 91.1782 85.7979 91.1571 84.2667C91.076 78.3974 91.1358 72.5262 91.1097 66.6559C91.1064 65.923 90.9036 65.1911 90.9091 64.2939C91.2986 64.1311 91.5724 64.1331 91.8461 64.1351C91.8461 71.6818 91.8461 79.2285 91.8461 86.9206C71.003 86.9206 50.1912 86.9206 29.1572 86.9206C29.1572 79.4103 29.1572 71.9375 29.3278 64.2944C29.6661 64.1265 29.834 64.129 30.0018 64.1315Z" fill="#212529"/>
<path d="M62.5943 30.6009C61.1295 29.8933 61.0579 26.7459 62.4848 25.0862C65.3799 21.719 68.1893 21.3144 71.8228 23.7415C74.5788 25.5824 75.504 30.0032 73.6781 33.3403C71.5793 37.176 68.3056 39.6495 64.1218 40.8436C63.0248 41.1567 62.5583 41.6144 62.6035 42.7642C62.6736 44.5438 62.622 46.3281 62.622 48.3996C63.8398 48.0446 65.2053 47.7754 66.4686 47.2571C73.6501 44.3109 79.8096 40.1047 83.6115 33.0613C83.753 32.7992 84.0052 32.5968 84.3334 32.3301C83.4968 34.0708 82.8038 36.0792 81.5206 37.5844C76.3998 43.5918 69.9586 47.5709 62.2246 49.3615C62.0567 49.4004 61.8671 49.3461 61.6387 49.3324C61.6387 46.6432 61.5707 43.9785 61.711 41.3248C61.7324 40.9202 62.6694 40.3713 63.2666 40.2207C67.4624 39.163 70.8329 36.9985 72.9096 33.1229C74.7653 29.6599 73.8622 25.8846 70.8498 24.0684C68.6932 22.7681 66.2679 22.8483 64.3495 24.2833C62.4019 25.7401 61.8023 27.8232 62.5943 30.6009Z" fill="#212529"/>
<path d="M69.3703 14.6109C65.1514 15.5566 61.2673 17.2238 57.8724 19.9454C56.7648 20.8332 56.4093 21.5254 57.4907 22.9759C60.0943 26.468 61.2225 30.6245 61.8623 34.8953C62.0666 36.2595 62.9048 36.9187 63.9972 36.162C65.7544 34.9449 67.5311 33.6347 68.8966 32.0226C69.6147 31.1748 69.7308 29.588 69.6571 28.3626C69.5825 27.1215 68.5233 26.5798 67.212 26.608C65.5779 26.6431 64.9762 27.7281 64.5331 29.0232C64.345 29.5729 64.1984 30.1369 63.8944 30.7234C63.8996 29.6694 63.8115 28.4827 64.2391 27.5267C64.9571 25.9212 66.939 25.2859 68.5382 25.8585C70.1408 26.4322 70.9577 27.894 70.7119 29.748C70.1923 33.6666 65.5374 37.4992 61.3521 37.3041C60.7003 31.5894 59.3728 26.0549 55.3892 21.4028C58.091 18.2668 61.4416 16.3289 65.1701 15.0007C66.3123 14.5938 67.5577 14.4766 68.9652 14.2812C69.2698 14.4061 69.3351 14.4978 69.3703 14.6109Z" fill="#212529"/>
<path d="M90.7492 2.80645C90.6515 2.44962 90.555 2.26784 90.5405 1.93371C90.6964 1.72338 90.7703 1.6654 90.8443 1.60742C91.1065 2.20429 91.5849 2.79676 91.5971 3.39871C91.7036 8.63755 91.7266 13.8781 91.67 19.2788C91.4256 19.4529 91.2855 19.4662 91.1454 19.4795C89.3066 12.9176 84.321 10.1138 78.157 9.45968C74.5224 9.07397 70.763 9.86439 66.9048 10.1273C67.4827 9.65367 68.1662 8.88238 68.9564 8.75043C75.1194 7.72136 81.1361 8.01508 86.516 11.6287C88.0237 12.6414 89.222 14.1148 90.7505 15.5542C90.7505 11.2779 90.7505 7.12967 90.7492 2.80645Z" fill="#212529"/>
<path d="M58.1042 36.5137C57.6263 36.7292 57.0583 37.0054 56.6558 36.8508C53.7462 35.7337 52.0052 33.0178 52.1588 29.585C52.232 27.9504 52.714 26.334 53.1041 24.1992C56.4617 28.0201 57.2229 32.2193 58.1042 36.5137ZM52.9114 28.191C52.7577 32.5844 54.1108 35.2106 56.9513 35.7883C56.3438 32.5535 56.0643 29.2795 53.6395 26.406C53.327 27.1385 53.1645 27.5193 52.9114 28.191Z" fill="#212529"/>
<path d="M69.5268 14.5938C69.3351 14.4961 69.2698 14.4044 69.0977 14.2961C73.3564 12.9344 77.6144 12.7345 81.6383 15.2448C81.3932 15.3642 81.203 15.3714 81.0128 15.3785C78.0716 14.1563 74.983 14.1025 71.8757 14.2575C71.1414 14.2941 70.414 14.4678 69.5268 14.5938Z" fill="#212529"/>
<path d="M84.5459 32.267C84.7972 30.5223 85.0698 28.7023 85.5438 26.9364C86.1526 24.6681 85.6621 22.5701 84.8986 20.4641C84.7771 20.129 84.8125 19.7371 84.7926 19.2148C86.1399 20.4047 86.1879 22.1107 86.2925 23.8637C86.4682 26.8089 85.9349 29.5752 84.5459 32.267Z" fill="#212529"/>
<path d="M84.8221 18.948C84.4374 18.5323 84.042 17.9832 83.6553 17.293C84.0465 17.7062 84.429 18.2604 84.8221 18.948Z" fill="#212529"/>
<path d="M29.861 33.0596C29.581 32.8513 29.3808 32.4981 29.1807 32.1449C29.3405 32.077 29.5004 32.0092 29.6602 31.9414C29.7538 32.2658 29.8474 32.5902 29.861 33.0596Z" fill="#212529"/>
<path d="M91.1265 19.6169C91.2855 19.4676 91.4256 19.4543 91.6708 19.4316C91.776 19.7658 91.776 20.1092 91.776 20.9976C91.3873 20.2738 91.2474 20.0133 91.1265 19.6169Z" fill="#212529"/>
<path d="M91.8285 28.4224C91.6306 28.4379 91.4757 28.3197 91.2285 28.1699C91.2523 27.9164 91.3684 27.6945 91.4845 27.4727C91.6135 27.7447 91.7425 28.0167 91.8285 28.4224Z" fill="#212529"/>
<path d="M81.0859 15.4806C81.2031 15.3706 81.3933 15.3634 81.726 15.3438C82.0822 15.515 82.296 15.6986 82.5425 15.9883C82.1032 15.9241 81.6311 15.7538 81.0859 15.4806Z" fill="#212529"/>
<path d="M91.7965 64.0007C91.5725 64.1325 91.2988 64.1304 90.8884 64.1392C90.6415 64.1143 90.5433 64.0576 90.4131 63.9067C90.8281 63.8449 91.2874 63.8559 91.7965 64.0007Z" fill="#212529"/>
<path d="M30.108 64.1256C29.8341 64.1291 29.6663 64.1266 29.3726 64.1233C29.657 63.9948 30.0674 63.8671 30.6148 63.7871C30.5726 63.9297 30.3933 64.0246 30.108 64.1256Z" fill="#212529"/>
<path d="M29.2852 33.8184C29.3986 34.14 29.4736 34.5917 29.4796 35.1656C29.356 34.8413 29.3013 34.3949 29.2852 33.8184Z" fill="#212529"/>
<path d="M29.3614 21.4824C29.434 21.7969 29.4466 22.2584 29.3749 22.8064C29.2942 22.4718 29.2978 22.0506 29.3614 21.4824Z" fill="#212529"/>
<path d="M29.3467 61.1914C29.4515 61.3061 29.4988 61.5273 29.5013 61.8579C29.4007 61.7441 29.345 61.5211 29.3467 61.1914Z" fill="#212529"/>
<path d="M29.4531 1.89062C29.5462 2.03772 29.5413 2.25938 29.472 2.57251C29.3901 2.43106 29.3726 2.19813 29.4531 1.89062Z" fill="#212529"/>
<path d="M90.7549 1.57231C90.7703 1.66626 90.6964 1.72424 90.4947 1.84201C90.3669 1.9018 90.3173 1.77524 90.3115 1.70753C90.4257 1.60532 90.5456 1.57083 90.7549 1.57231Z" fill="#212529"/>
<path d="M75.2814 79.1432C75.5088 79.8833 75.3639 80.4831 74.4722 80.2612C73.9652 80.1351 73.262 79.6707 73.1601 79.2379C72.7293 77.4078 72.4911 75.5323 71.8865 73.5322C71.5505 74.3991 71.2497 75.282 70.8675 76.1281C70.5506 76.8296 70.2653 77.9277 69.7426 78.0792C68.4085 78.4657 68.4966 77.0912 68.1473 76.2959C67.6894 75.2534 67.2053 74.2224 66.7324 73.1864C66.5754 73.2268 66.4185 73.2672 66.2615 73.3076C66.2615 75.5649 66.2615 77.8223 66.2615 80.1857C65.4579 80.1857 64.8755 80.1857 64.2666 80.1857C64.4442 76.6981 64.6168 73.3092 64.8122 69.4727C67.9512 70.202 68.0973 73.2759 69.6281 75.3457C70.2561 74.0925 70.7825 72.8713 71.4593 71.7401C72.1183 70.6388 72.593 69.0821 74.5414 69.831C74.5414 70.5941 74.5414 71.3296 74.5318 72.3948C74.7752 74.864 75.0283 77.0036 75.2814 79.1432Z" fill="white"/>
<path d="M45.7543 74.6261C45.7697 74.5025 45.7957 74.3793 45.799 74.2555C45.8886 70.933 46.465 70.318 49.6804 70.1195C51.7718 69.9904 54.0548 71.8798 54.4577 74.0733C54.9851 76.9448 54.3237 78.6493 52.2289 79.8171C50.0154 81.0511 47.3215 80.7882 45.4352 79.1543C43.6017 77.566 42.9408 75.0852 43.7951 72.8882C43.92 72.5671 44.1771 72.2975 44.7253 71.4765C44.8615 72.5303 44.9286 73.0494 44.9753 73.8775C44.8095 75.8925 45.2701 77.2791 46.9738 78.007C48.7258 78.7554 50.4382 78.7144 51.8702 77.3933C53.1614 76.2021 53.0683 74.6651 52.4893 72.9916C50.7501 70.6615 48.1546 70.5423 47.3036 72.7711C47.0008 73.5643 47.6238 74.794 48.0461 75.7237C48.1534 75.9601 49.5509 75.9596 49.5998 75.814C49.8251 75.1434 49.7831 74.3831 49.8645 73.282C50.3604 73.5988 50.9433 73.9712 51.5602 74.4803C51.1062 75.5221 50.8267 76.8057 50.0698 77.2226C49.3561 77.6157 47.9868 77.3601 47.191 76.8984C46.5039 76.4998 46.2177 75.4102 45.7543 74.6261Z" fill="white"/>
<path d="M81.7531 70.0293C84.3395 70.5621 86.0827 72.3356 86.5022 74.861C86.8342 76.8593 85.8508 78.7975 83.9745 79.8427C81.7762 81.0673 79.0905 80.7904 77.1998 79.1339C76.9202 78.8888 76.6745 78.6049 76.2718 78.1314C75.1432 76.0053 74.9789 74.0614 75.9499 72.0824C75.9499 72.0824 76.058 72.07 76.2293 72.0614C76.5013 72.6699 76.7151 73.2933 76.6812 73.903C76.5848 75.6392 76.9052 77.1253 78.6209 77.9763C80.2989 78.8087 82.3757 78.5852 83.6973 77.4278C85.0179 76.2712 85.1553 74.5999 84.0598 72.8691C83.6987 72.326 83.4049 71.8171 82.9661 71.5293C81.7626 70.7401 80.0624 71.1644 79.1901 72.424C78.311 73.6934 78.7462 74.8384 79.7745 75.7095C80.1209 76.003 80.9643 76.0025 81.4019 75.7819C81.6501 75.6568 81.5762 74.8126 81.5677 74.2935C81.5636 74.0424 81.3757 73.7943 81.2711 73.5448C81.3783 73.4234 81.4855 73.3019 81.5928 73.1805C82.1449 73.5381 82.697 73.8956 83.271 74.407C83.3245 76.3967 82.5756 77.3955 81.043 77.5618C79.488 77.7304 78.0078 76.585 77.6925 74.9691C77.2029 72.4596 78.6053 70.7536 81.7531 70.0293Z" fill="white"/>
<path d="M42.5941 71.0123C41.2043 72.1883 39.1575 73.129 38.8672 74.4544C38.4416 76.3979 40.7581 77.222 42.2503 78.1868C42.9188 78.6191 43.6343 78.9786 44.3537 79.3853C44.0282 80.5006 43.5223 81.0121 42.4641 80.3038C40.8394 79.2162 39.2225 78.1171 37.4928 76.9489C37.4252 77.9664 37.3541 79.0368 37.2698 80.3055C36.5808 80.2341 36.0045 80.1744 35.3218 80.1036C35.3218 76.6873 35.3218 73.4216 35.3218 69.8705C35.7263 69.8354 36.3476 69.7816 37.0959 69.7168C37.1615 70.6703 37.2147 71.4448 37.2694 72.2417C38.7313 71.3882 40.0576 70.5328 41.466 69.8455C41.8424 69.6618 42.4694 69.9916 42.9814 70.0857C42.8951 70.3735 42.8088 70.6612 42.5941 71.0123Z" fill="white"/>
<path d="M55.5312 76.2939C55.32 72.3168 57.4901 69.7959 61.4105 69.4455C61.8931 69.4024 62.4337 70.0087 63.3906 70.5774C61.8295 71.1219 60.8793 71.3955 59.9763 71.7799C57.9124 72.6583 57.1364 73.89 57.4666 75.6284C57.8014 77.3905 59.2437 78.5203 61.2083 78.7409C61.9356 78.8226 62.6274 79.2201 63.3353 79.4736C62.5702 79.7423 61.8073 80.2327 61.0395 80.2406C57.9825 80.2718 56.4433 79.1427 55.5312 76.2939Z" fill="white"/>
<path d="M81.7289 69.9074C78.6052 70.7524 77.2028 72.4584 77.6924 74.9679C78.0077 76.5838 79.4879 77.7292 81.0429 77.5606C82.5755 77.3944 83.3244 76.3955 83.3875 74.346C83.6751 73.7559 83.868 73.3794 84.0609 73.0029C85.1552 74.5987 85.0178 76.27 83.6972 77.4266C82.3756 78.584 80.2987 78.8075 78.6207 77.9751C76.9051 77.1241 76.5846 75.638 76.6811 73.9018C76.7149 73.2922 76.5012 72.6687 76.2646 72.0189C76.9789 69.8189 80.0252 68.6173 81.7289 69.9074Z" fill="#212529"/>
<path d="M52.5001 73.127C53.0685 74.6662 53.1616 76.2032 51.8704 77.3944C50.4384 78.7156 48.726 78.7565 46.974 78.0081C45.2703 77.2802 44.8097 75.8936 44.9879 74.0331C45.2046 74.091 45.3883 74.3035 45.6633 74.5716C46.2179 75.4113 46.5041 76.5009 47.1912 76.8995C47.987 77.3612 49.3563 77.6168 50.07 77.2237C50.8269 76.8068 51.1064 75.5232 51.6845 74.4217C52.0164 73.8592 52.2583 73.4931 52.5001 73.127Z" fill="#212529"/>
<path d="M75.8076 72.0664C74.9787 74.0615 75.1429 76.0054 76.1657 78.0537C75.9918 78.4865 75.7825 78.7897 75.4273 79.119C75.0284 77.0057 74.7753 74.8661 74.5576 72.5557C74.9505 72.2734 75.308 72.1619 75.8076 72.0664Z" fill="#212529"/>
<path d="M75.176 70.2943C75.1565 70.3057 75.1955 70.2829 75.176 70.2943V70.2943Z" fill="#212529"/>
<path d="M71.5796 50.5876C79.7328 47.0298 86.0508 41.5902 90.6067 33.9648C90.6553 34.4299 90.7458 34.895 90.7463 35.3602C90.7549 43.4154 90.7388 51.4706 90.7668 59.5257C90.7711 60.7687 90.5565 61.5298 89.0458 61.5231C79.4297 61.4807 69.8133 61.4996 60.1971 61.4909C59.9581 61.4907 59.7192 61.4058 59.1538 61.2983C59.6571 60.0271 60.1754 58.8806 60.5607 57.691C60.8456 56.8116 60.7627 55.7659 61.1991 54.9956C61.6658 54.172 62.4326 53.2474 63.2727 52.9564C65.944 52.0309 68.7103 51.3799 71.5796 50.5876Z" fill="#212529"/>
<path d="M50.8907 47.3969C43.8795 45.3591 35.514 39.1604 34.7686 30.3048C34.4261 26.2363 35.0696 22.9719 38.4765 20.4705C41.1893 18.4788 46.5131 19.2715 49.0663 21.4616C49.4036 21.7509 49.3337 22.843 49.0989 23.4194C47.0604 28.4257 46.84 33.329 50.7267 37.4714C52.4735 39.3332 55.0154 40.449 57.7454 42.2692C57.7454 43.4187 57.8054 45.403 57.69 47.377C57.6693 47.7314 56.8925 48.3601 56.5206 48.3217C54.6812 48.1319 52.8606 47.7606 50.8907 47.3969Z" fill="#212529"/>
<path d="M52.9572 28.0458C53.1649 27.5196 53.3274 27.1388 53.6399 26.4062C56.0647 29.2798 56.3442 32.5538 56.9517 35.7885C54.1113 35.2109 52.7581 32.5846 52.9572 28.0458Z" fill="#212529"/>
<path d="M52.4895 72.9922C52.2582 73.4925 52.0163 73.8586 51.6504 74.2844C50.9435 73.9717 50.3605 73.5993 49.8647 73.2826C49.7832 74.3836 49.8252 75.144 49.5999 75.8145C49.551 75.9601 48.1536 75.9607 48.0462 75.7242C47.624 74.7945 47.0009 73.5649 47.3038 72.7716C48.1548 70.5428 50.7503 70.662 52.4895 72.9922Z" fill="#212529"/>
<path d="M84.0596 72.8677C83.8678 73.3793 83.675 73.7557 83.3655 74.192C82.6968 73.8943 82.1446 73.5367 81.5925 73.1791C81.4853 73.3006 81.3781 73.422 81.2708 73.5434C81.3755 73.7929 81.5633 74.041 81.5674 74.2922C81.576 74.8112 81.6498 75.6554 81.4017 75.7805C80.9641 76.0011 80.1207 76.0016 79.7743 75.7082C78.7459 74.8371 78.3108 73.692 79.1898 72.4226C80.0621 71.1631 81.7623 70.7387 82.9658 71.5279C83.4046 71.8157 83.6984 72.3246 84.0596 72.8677Z" fill="#212529"/>
</g>
<defs>
<clipPath id="clip0_188_4228">
<rect width="120" height="90" fill="white"/>
</clipPath>
</defs>
</svg>
