<svg width="140" height="32" viewBox="0 0 140 32" fill="none" xmlns="http://www.w3.org/2000/svg">
<path d="M22.0001 4.33178C20.1601 6.31659 16.1601 10.4482 13.1201 13.6077C10.0801 16.7267 7.6001 19.3596 7.6001 19.4811C7.6001 19.5622 10.0801 19.6027 13.0801 19.5217L18.6001 19.4001L21.0801 16.6862L23.5601 13.9723L23.6001 16.8887V19.8457H29.8001H36.0001V18.4685C36.0001 16.8077 36.3201 15.7951 36.8801 15.7951C37.0801 15.7951 37.2001 16.6457 37.1601 17.6989L37.0401 19.6432H43.2001C49.3601 19.6432 49.4001 19.6432 49.4001 18.752C49.4401 17.6179 49.4801 17.6179 51.8801 18.752C53.7601 19.6432 54.1201 19.6432 71.2001 19.6432H88.6001L90.7201 18.59L92.8001 17.5368V18.7115V19.8457H107.6H122.4V18.833C122.4 17.6179 122.84 17.5368 123.48 18.59C123.92 19.3191 124.52 19.4001 129.6 19.5217C132.68 19.6027 135.2 19.5622 135.2 19.4406C135.2 19.3191 133.68 17.6989 131.8 15.7951C129.92 13.8913 128.4 12.19 128.4 12.028C128.4 11.8254 130.68 9.23304 133.44 6.23558L138.48 0.807728H133.16H127.84L125.12 3.52165L122.4 6.23558V3.52165V0.807728H107.6H92.8001V1.86089C92.8001 2.42798 92.6801 2.83304 92.5201 2.75203C89.0001 0.929247 90.1201 1.01026 71.0001 1.01026C53.0801 1.01026 53.0001 1.01026 51.3201 1.9014C49.2401 3.03558 49.2801 3.03558 49.5201 1.82039L49.6801 0.807728H43.2801C37.0801 0.807728 36.8801 0.848234 37.0801 1.61786C37.3601 2.63051 36.9201 4.4533 36.4001 4.4533C36.1601 4.4533 36.0001 3.64317 36.0001 2.63051V0.807728H30.6801H25.3601L22.0001 4.33178ZM33.6001 7.24823V11.2584L36.6001 8.13937C38.4801 6.19507 39.6001 4.65583 39.6001 4.12925C39.6001 3.27861 39.7601 3.23811 43.2001 3.23811H46.8001V10.1242V17.0103H43.2001H39.6001V13.0406L39.5601 9.11153L36.6001 12.2305C34.8801 14.0533 33.6001 15.7141 33.6001 16.2001C33.6001 16.9698 33.3601 17.0103 29.8001 17.0103H26.0001V12.352V7.73431L22.4401 11.4609C20.4801 13.5267 18.5601 15.5925 18.1201 16.1191C17.5201 16.8887 17.0801 17.0508 15.5201 16.9292L13.6401 16.8077L19.9201 10.0027L26.2001 3.23811H29.8801H33.6001V7.24823ZM69.2001 10.1242V17.0103H61.6801C54.5601 17.0103 54.0401 16.9698 52.3601 16.0786C48.1201 13.8103 47.2401 9.35456 50.3201 5.99254C52.5601 3.60266 53.9201 3.27861 62.1201 3.23811H69.2001V10.1242ZM88.4401 3.72418C90.6801 4.37228 93.0801 6.60013 93.6401 8.54444C94.2801 10.6103 93.6401 12.8786 91.9601 14.5799C89.7601 16.7672 88.6401 17.0103 80.5601 17.0103H73.2001V10.1242V3.23811H80.0401C84.0801 3.23811 87.5601 3.44064 88.4401 3.72418ZM108 4.25077C108 5.22292 107.92 5.26342 105.4 5.26342H102.8V7.28874V9.31406H105.4C107.92 9.31406 108 9.35456 108 10.3267C108 11.2989 107.92 11.3394 105.4 11.3394H102.8V13.3647V15.39H106.6C110.4 15.39 110.4 15.39 110.4 16.4027V17.4153L102.92 17.3343L95.4001 17.2128L95.2801 10.7318C95.2401 7.20773 95.2801 4.04823 95.3601 3.76469C95.5201 3.35963 97.0801 3.23811 101.8 3.23811H108V4.25077ZM120 7.97735V12.7571L124.44 7.97735C128.8 3.31912 128.88 3.23811 130.64 3.23811C131.6 3.23811 132.4 3.35963 132.4 3.48115C132.4 3.64317 130.72 5.46596 128.72 7.57229C126.68 9.67861 124.96 11.5419 124.88 11.7039C124.8 11.9065 125.8 13.1622 127.04 14.5394L129.28 17.0103H127.36C125.6 17.0103 125.28 16.8482 124.12 15.5115L122.88 13.9723L121.32 15.471L119.76 17.0103H116.08H112.4V10.1242V3.23811H116.2H120V7.97735Z" fill="#212529"/>
<path d="M59.4 5.74817C56.52 7.32791 55.44 9.8393 56.56 12.2292C57.28 13.7279 59.72 15.3887 61.16 15.3887C61.96 15.3887 62 15.2266 62 10.3254C62 5.3431 62 5.26209 61.12 5.26209C60.6 5.26209 59.84 5.50513 59.4 5.74817Z" fill="#212529"/>
<path d="M80.3999 10.2849C80.3999 15.3077 80.3999 15.3887 81.3199 15.3887C82.5199 15.3887 84.5999 14.052 85.4399 12.7153C87.2799 9.87981 85.3599 6.15323 81.6799 5.42412L80.3999 5.14057V10.2849Z" fill="#212529"/>
<path d="M1.00009 26.4894C0.120089 27.1375 -0.0399105 29.5679 0.76009 30.54C1.72009 31.6742 4.80009 31.1881 4.80009 29.8919C4.80009 29.3654 4.00009 29.5274 3.36009 30.1755C2.52009 31.0261 1.20009 30.2565 1.20009 28.9603C1.20009 26.8135 2.00009 26.2464 3.60009 27.2185C4.56009 27.8261 5.08009 27.3805 4.40009 26.5299C3.76009 25.7603 2.00009 25.7603 1.00009 26.4894Z" fill="#212529"/>
<path d="M6 28.5568C6 31.7163 6.6 31.9998 8.04 29.4479L9 27.7467L9.12 29.4479C9.32 32.2024 10 31.4732 10 28.5568C10 25.3973 9.44 25.1543 8 27.6656L7 29.3669L6.88 27.6251C6.68 24.9112 6 25.6403 6 28.5568Z" fill="#212529"/>
<path d="M11.8798 26.6531C11.0398 27.5847 10.9998 29.7316 11.8398 30.5417C12.6398 31.3518 14.5598 31.3923 15.1998 30.5822C15.9598 29.6506 15.3998 29.4075 14.2798 30.1771C13.2798 30.8252 13.2398 30.7847 12.5598 29.7721C11.3598 27.9088 13.1998 25.6809 14.7198 27.2202C15.3998 27.9088 15.8398 27.3012 15.1998 26.5316C14.5198 25.6809 12.6798 25.7619 11.8798 26.6531Z" fill="#212529"/>
<path d="M16.4004 26.3287C16.4004 26.5312 16.7604 26.7338 17.2004 26.7338C17.9204 26.7338 18.0004 27.0173 18.0004 28.9616C18.0004 30.1768 18.2004 31.1895 18.4004 31.1895C18.6404 31.1895 18.8004 30.1768 18.8004 28.9616C18.8004 27.0173 18.8804 26.7338 19.6004 26.7338C20.0404 26.7338 20.4004 26.5312 20.4004 26.3287C20.4004 26.0857 19.5204 25.9236 18.4004 25.9236C17.3204 25.9236 16.4004 26.0857 16.4004 26.3287Z" fill="#212529"/>
<path d="M21.2002 28.5565V31.1895H23.4402C24.8002 31.1895 25.5602 31.0274 25.4002 30.7844C25.2802 30.5414 24.5202 30.3793 23.7602 30.3793C22.6802 30.3793 22.4002 30.2173 22.4002 29.5692C22.4002 28.9211 22.6802 28.7591 23.8402 28.7591C24.6802 28.7591 25.1602 28.597 25.0002 28.354C24.8802 28.111 24.2402 27.9489 23.5602 27.9489C22.8002 27.9489 22.4002 27.7464 22.4002 27.3414C22.4002 26.9363 22.8402 26.7338 23.8002 26.7338C24.5602 26.7338 25.2002 26.5312 25.2002 26.3287C25.2002 26.0857 24.3202 25.9236 23.2002 25.9236H21.2002V28.5565Z" fill="#212529"/>
<path d="M26.3999 28.5539C26.3999 30.0526 26.5599 31.1868 26.7999 31.1868C27.0399 31.1868 27.1999 30.3361 27.1999 29.3235C27.1999 27.1361 27.7999 27.2577 28.1599 29.5665C28.4799 31.7539 29.5199 31.7539 29.8399 29.5665C30.1999 27.2577 30.7999 27.1361 30.7999 29.3235C30.7999 30.3361 30.9999 31.1868 31.1999 31.1868C31.4399 31.1868 31.5999 30.0526 31.5999 28.5539C31.5999 26.2045 31.5199 25.921 30.7999 25.921C30.2399 25.921 29.9199 26.3665 29.5999 27.5412C29.3599 28.4323 29.0799 29.1615 28.9999 29.1615C28.9199 29.1615 28.6399 28.4323 28.3999 27.5412C28.0799 26.3665 27.7599 25.921 27.1999 25.921C26.4799 25.921 26.3999 26.2045 26.3999 28.5539Z" fill="#212529"/>
<path d="M32.8003 28.5556C32.8003 31.7151 33.4803 32.0392 34.8803 29.5683C35.4003 28.6772 35.9203 27.948 36.0803 27.948C36.2003 27.948 36.2403 28.6772 36.1203 29.5683C35.9203 30.905 36.0003 31.1886 36.5603 31.1886C37.0803 31.1886 37.2003 30.7025 37.2003 28.5556C37.2003 25.3961 36.5203 25.0721 35.1203 27.543C34.6003 28.4341 34.0803 29.1632 33.9203 29.1632C33.7203 29.1632 33.6003 28.4341 33.6003 27.543C33.6003 26.6518 33.4403 25.9227 33.2003 25.9227C32.9603 25.9227 32.8003 27.0569 32.8003 28.5556Z" fill="#212529"/>
<path d="M42.4004 28.5565V31.1895H44.6404C46.0004 31.1895 46.7604 31.0274 46.6004 30.7844C46.4804 30.5414 45.7204 30.3793 44.9604 30.3793C43.8804 30.3793 43.6004 30.2173 43.6004 29.5692C43.6004 28.9211 43.8804 28.7591 45.0404 28.7591C45.8804 28.7591 46.3604 28.597 46.2004 28.354C46.0804 28.111 45.4404 27.9489 44.7604 27.9489C44.0004 27.9489 43.6004 27.7464 43.6004 27.3414C43.6004 26.9363 44.0404 26.7338 45.0004 26.7338C45.7604 26.7338 46.4004 26.5312 46.4004 26.3287C46.4004 26.0857 45.5204 25.9236 44.4004 25.9236H42.4004V28.5565Z" fill="#212529"/>
<path d="M47.6001 28.5565C47.6001 30.6629 47.7201 31.1895 48.2401 31.1895C48.6801 31.1895 48.8401 30.8654 48.7201 30.0553C48.6001 29.1236 48.7601 28.9616 49.7201 28.8401C50.6801 28.7186 50.8001 28.8401 50.8001 29.9338C50.8001 30.7844 51.0001 31.1895 51.4001 31.1895C51.8801 31.1895 52.0001 30.6224 52.0001 28.5565C52.0001 26.4907 51.8801 25.9236 51.4001 25.9236C51.0401 25.9236 50.8001 26.2882 50.8001 26.9363C50.8001 27.7869 50.6001 27.9489 49.6001 27.9489C48.5201 27.9489 48.4001 27.8679 48.6401 26.9363C48.8401 26.1667 48.7201 25.9236 48.2401 25.9236C47.7201 25.9236 47.6001 26.4097 47.6001 28.5565Z" fill="#212529"/>
<path d="M53.2002 28.5565V31.1895H55.2002C56.3202 31.1895 57.2002 30.9869 57.2002 30.7844C57.2002 30.5414 56.4802 30.3793 55.5602 30.3793C54.2402 30.3793 53.9602 30.2578 54.0802 29.6907C54.1602 29.2046 54.6402 28.9211 55.5202 28.8401C57.2402 28.6781 57.1602 27.9489 55.4002 27.9489C54.4402 27.9489 54.0002 27.7464 54.0002 27.3414C54.0002 26.8958 54.4402 26.7338 55.6002 26.7338C56.4802 26.7338 57.2002 26.5312 57.2002 26.3287C57.2002 26.0857 56.3202 25.9236 55.2002 25.9236H53.2002V28.5565Z" fill="#212529"/>
<path d="M58.4004 28.516C58.4004 30.0148 58.5604 31.1895 58.8004 31.1895C59.0404 31.1895 59.2004 30.7439 59.2004 30.2173C59.2004 29.4072 59.4404 29.2046 60.4404 29.0831C63.2804 28.7996 62.9604 26.2072 60.0404 26.0046L58.4004 25.8831V28.516ZM61.1204 27.6249C61.2404 28.1515 61.0004 28.354 60.2404 28.354C59.4404 28.354 59.2004 28.1515 59.2004 27.5034C59.2004 26.8958 59.4004 26.6932 60.0804 26.8148C60.6004 26.8958 61.0404 27.2603 61.1204 27.6249Z" fill="#212529"/>
<path d="M63.5196 28.5565C63.4396 30.4603 63.5196 31.1895 63.9196 31.1895C64.2396 31.1895 64.3996 30.4603 64.3996 28.9616C64.3996 26.7743 64.3996 26.7338 65.5996 26.7338C66.2796 26.7338 66.7996 26.5312 66.7996 26.3287C66.7996 26.0857 66.0796 25.9236 65.2396 25.9236H63.6796L63.5196 28.5565Z" fill="#212529"/>
<path d="M68.2396 26.4486C67.3596 27.0967 67.1996 29.6081 67.9596 30.5398C68.6396 31.3904 70.9596 31.3904 71.7596 30.5398C72.6396 29.6891 72.5596 27.4208 71.6796 26.6106C70.7996 25.8005 69.2396 25.7195 68.2396 26.4486ZM71.1196 27.2182C71.7996 27.9068 71.7196 29.4056 70.9596 30.1347C70.1996 30.9448 69.7996 30.9448 69.0396 30.1347C67.8396 28.96 68.4796 26.7322 69.9996 26.7322C70.3596 26.7322 70.8396 26.9347 71.1196 27.2182Z" fill="#212529"/>
<path d="M73.5598 26.5717C73.1198 27.1388 73.1998 27.1793 74.5198 26.9363C75.7198 26.6933 75.9998 26.7743 75.9998 27.3008C75.9998 27.6654 75.7198 28.0705 75.3598 28.2325C74.7998 28.435 74.8398 28.5565 75.5998 29.1641C76.3598 29.7312 76.3998 29.8933 75.8798 30.3388C75.3998 30.7439 75.0798 30.7439 74.4398 30.2983C73.5998 29.7717 72.9598 30.0553 73.3998 30.7439C73.5198 30.9869 74.3598 31.1895 75.2398 31.1895C77.0398 31.1895 77.6398 30.3793 76.8398 29.0426C76.4798 28.516 76.4798 28.111 76.7598 27.8274C77.0398 27.5439 77.0398 27.1793 76.7598 26.6527C76.2798 25.7211 74.3198 25.6806 73.5598 26.5717Z" fill="#212529"/>
<path d="M79.2399 27.6249C78.1199 30.3388 77.8799 31.1895 78.3999 31.1895C78.6399 31.1895 78.9199 30.9059 79.0399 30.5819C79.3599 29.7717 81.4399 29.7717 81.7599 30.5819C81.8799 30.9059 82.2399 31.1895 82.5599 31.1895C82.9999 31.1895 82.8799 30.5819 82.0399 28.5565C81.4799 27.0983 80.7599 25.9236 80.4799 25.9236C80.1999 25.9236 79.6399 26.6933 79.2399 27.6249ZM80.9599 28.192C81.3199 29.1236 81.2799 29.1641 80.3999 29.1641C79.5199 29.1641 79.4799 29.1236 79.8399 28.192C80.1599 27.3819 80.6399 27.3819 80.9599 28.192Z" fill="#212529"/>
<path d="M84 28.5956V31.2285L85.84 31.107C88.12 30.945 89 30.0133 87.88 28.8791C87.52 28.4741 86.72 28.15 86.08 28.1095C85.4 28.1095 84.96 27.826 84.88 27.4209C84.76 26.8538 85.08 26.7323 86.36 26.7323C87.28 26.7323 88 26.5298 88 26.3272C88 26.0842 87.12 25.9222 86 25.9222H84V28.5956ZM87.12 29.6488C87.24 30.2159 87 30.3779 86.04 30.3779C85.04 30.3779 84.8 30.2159 84.8 29.5272C84.8 28.8791 85 28.7171 85.88 28.8386C86.56 28.9197 87.04 29.2437 87.12 29.6488Z" fill="#212529"/>
<path d="M89.2002 28.5565V31.1895H91.2002C92.3202 31.1895 93.2002 30.9869 93.2002 30.7844C93.2002 30.5414 92.5602 30.3793 91.8002 30.3793C90.6802 30.3793 90.4002 30.2173 90.4002 29.5692C90.4002 28.9211 90.6802 28.7591 91.8402 28.7591C92.6802 28.7591 93.1602 28.597 93.0002 28.354C92.8802 28.111 92.2402 27.9489 91.5602 27.9489C90.8002 27.9489 90.4002 27.7464 90.4002 27.3414C90.4002 26.9363 90.8402 26.7338 91.8002 26.7338C92.5602 26.7338 93.2002 26.5312 93.2002 26.3287C93.2002 26.0857 92.3202 25.9236 91.2002 25.9236H89.2002V28.5565Z" fill="#212529"/>
<path d="M94.68 26.2072C94.08 26.8148 94.48 27.0983 95.6 26.8553C96.52 26.6933 96.8 26.7743 96.8 27.2603C96.8 27.6249 96.52 28.0705 96.12 28.273C95.56 28.6376 95.56 28.7186 96.32 29.1236C96.8 29.4072 97.2 29.7717 97.2 29.9338C97.2 30.5819 96 30.7844 95.2 30.2983C94.8 30.0148 94.28 29.9338 94.12 30.0958C93.64 30.5819 94.84 31.1895 96.32 31.1895C97.84 31.1895 98.4001 30.2983 97.6401 29.0831C97.2801 28.4755 97.2801 28.1515 97.6401 27.7059C98.0001 27.2603 98.0001 27.0173 97.6 26.5312C97.08 25.9236 95.16 25.6806 94.68 26.2072Z" fill="#212529"/>
<path d="M99.2002 28.5565C99.2002 30.3793 99.3602 31.1895 99.7202 31.1895C100.04 31.1895 100.2 30.5008 100.2 29.0831C100.2 27.0578 100.24 26.9363 101.32 26.8148C102.4 26.6933 102.4 26.7338 102.4 28.9211C102.4 30.6629 102.52 31.1895 103 31.1895C103.48 31.1895 103.6 30.6224 103.6 28.5565V25.9236H101.4H99.2002V28.5565Z" fill="#212529"/>
<path d="M104.8 28.5565V31.1895H106.8C107.92 31.1895 108.8 30.9869 108.8 30.7844C108.8 30.5414 108.08 30.3793 107.2 30.3793C105.88 30.3793 105.6 30.2578 105.6 29.5692C105.6 28.9211 105.88 28.7591 107 28.7591C107.76 28.7591 108.4 28.5565 108.4 28.354C108.4 28.111 107.76 27.9489 107 27.9489C106.04 27.9489 105.6 27.7464 105.6 27.3414C105.6 26.8958 106.04 26.7338 107.2 26.7338C108.08 26.7338 108.8 26.5312 108.8 26.3287C108.8 26.0857 107.92 25.9236 106.8 25.9236H104.8V28.5565Z" fill="#212529"/>
<path d="M109.6 27.0173C109.6 28.6781 110.16 29.2857 111.56 29.2857C112.6 29.2857 112.8 29.4477 112.8 30.2578C112.8 30.8249 113.04 31.1895 113.4 31.1895C113.88 31.1895 114 30.6224 114 28.5565C114 26.5312 113.88 25.9236 113.44 25.9236C113.08 25.9236 112.8 26.4097 112.72 27.2198C112.64 28.2325 112.4 28.5565 111.8 28.5565C111.2 28.5565 110.96 28.2325 110.88 27.2198C110.72 25.5996 109.6 25.397 109.6 27.0173Z" fill="#212529"/>
<path d="M115.2 28.5565V31.1895H117.2C118.32 31.1895 119.2 30.9869 119.2 30.7844C119.2 30.5414 118.48 30.3793 117.56 30.3793C116.24 30.3793 115.96 30.2578 116.08 29.6907C116.16 29.2046 116.64 28.9211 117.52 28.8401C119.24 28.6781 119.16 27.9489 117.4 27.9489C116.44 27.9489 116 27.7464 116 27.3414C116 26.8958 116.44 26.7338 117.6 26.7338C118.48 26.7338 119.2 26.5312 119.2 26.3287C119.2 26.0857 118.32 25.9236 117.2 25.9236H115.2V28.5565Z" fill="#212529"/>
<path d="M120.4 28.5565C120.4 30.0553 120.56 31.1895 120.8 31.1895C121.04 31.1895 121.2 30.6224 121.2 29.9743C121.2 28.8806 121.32 28.7591 122.4 28.7591C123.48 28.7591 123.6 28.8806 123.6 29.9743C123.6 30.6224 123.8 31.1895 124 31.1895C124.24 31.1895 124.4 30.0553 124.4 28.5565C124.4 27.0578 124.24 25.9236 124 25.9236C123.8 25.9236 123.6 26.3692 123.6 26.9363C123.6 27.7869 123.4 27.9489 122.4 27.9489C121.4 27.9489 121.2 27.7869 121.2 26.9363C121.2 26.3692 121.04 25.9236 120.8 25.9236C120.56 25.9236 120.4 27.0578 120.4 28.5565Z" fill="#212529"/>
<path d="M125.92 28.5552C125.84 30.459 125.92 31.1881 126.32 31.1881C126.6 31.1881 126.8 30.6615 126.8 29.9324C126.8 28.8387 126.92 28.7172 127.92 28.8387C128.76 28.9197 129.04 29.2033 129.12 30.0539C129.36 32.2412 130 31.1476 130 28.5552C130 27.0564 129.84 25.9222 129.6 25.9222C129.4 25.9222 129.2 26.3678 129.2 26.9349C129.2 27.7855 129 27.9476 128 27.9476C127 27.9476 126.8 27.7855 126.8 26.9349C126.8 26.3678 126.64 25.9222 126.44 25.9222C126.24 25.9222 126 27.0969 125.92 28.5552Z" fill="#212529"/>
<path d="M131.68 26.4097C131.04 27.0578 131.08 27.7869 131.84 28.5565C132.44 29.1641 132.44 29.2857 131.6 30.2173C130.68 31.1489 130.68 31.1895 131.48 31.1895C131.92 31.1895 132.52 30.7439 132.8 30.1768C133.52 28.7996 134.96 28.7996 134.72 30.1768C134.56 30.8654 134.68 31.1895 135.04 31.1895C135.44 31.1895 135.6 30.5008 135.6 28.5565V25.9236H133.88C132.92 25.9236 131.96 26.1262 131.68 26.4097ZM134.6 27.5439C134.6 28.4755 132.64 28.354 132.48 27.4224C132.36 26.8148 132.56 26.6933 133.48 26.8148C134.16 26.8958 134.6 27.1793 134.6 27.5439Z" fill="#212529"/>
</svg>
