<svg width="120" height="62" viewBox="0 0 120 62" fill="none" xmlns="http://www.w3.org/2000/svg">
<path fill-rule="evenodd" clip-rule="evenodd" d="M75.5517 4.47326C78.8554 7.35151 79.6887 10.8917 78.0516 15.0937C77.3138 16.6654 76.4806 18.156 75.5517 19.5655C72.4741 23.2189 68.5854 25.4548 63.8856 26.2731C63.1951 25.343 62.269 24.6909 61.108 24.3167C61.7957 23.931 61.7957 23.6515 61.108 23.4783C64.9611 22.2352 68.3865 20.1856 71.3852 17.3296C74.4512 12.8327 73.8029 9.01311 69.4409 5.87069C65.3183 4.00266 61.0591 3.53687 56.6637 4.47326C56.6637 3.54163 56.6637 2.61005 56.6637 1.67841C55.5527 1.67841 54.4416 1.67841 53.3306 1.67841C60.2452 -0.810742 67.0966 -0.531257 73.8851 2.51687C74.5573 3.09769 75.1128 3.74984 75.5517 4.47326Z" fill="#212529"/>
<path fill-rule="evenodd" clip-rule="evenodd" d="M53.3311 1.67773C54.4422 1.67773 55.5532 1.67773 56.6643 1.67773C56.6643 2.60937 56.6643 3.54095 56.6643 4.47259C52.985 5.20467 49.8374 6.88158 47.2203 9.50332C46.9942 8.79801 46.8092 8.05274 46.6648 7.26744C46.9564 6.88041 47.327 6.60092 47.7758 6.42898C46.8786 6.39421 46.1381 6.30103 45.5537 6.1495C47.6158 3.80534 50.2085 2.31474 53.3311 1.67773Z" fill="#212529"/>
<path fill-rule="evenodd" clip-rule="evenodd" d="M45.5531 6.15039C46.1375 6.30193 46.8781 6.39511 47.7752 6.42988C47.3264 6.60182 46.9558 6.8813 46.6642 7.26833C46.8086 8.05363 46.9936 8.7989 47.2197 9.50421C40.25 18.0963 41.9166 24.4313 52.2195 28.5092C54.3977 29.3574 56.6198 30.289 58.8858 31.3041C55.8387 31.9478 52.6911 32.041 49.4418 31.5835C47.9469 31.4965 46.6508 31.0307 45.5531 30.1861C46.1375 30.2697 46.6931 30.1765 47.2197 29.9066C45.5731 29.4369 45.3881 28.878 46.6642 28.2297C44.8759 26.2444 43.3021 24.1017 41.9422 21.8016C41.6844 18.5875 41.7772 15.5131 42.2199 12.5786C41.7711 12.4066 41.4005 12.1271 41.1089 11.7401C41.7333 10.9497 42.2888 10.1113 42.7755 9.22473C42.6488 9.00181 42.4633 8.90869 42.2199 8.94524C42.9782 7.62618 44.0893 6.69455 45.5531 6.15039Z" fill="#212529"/>
<path fill-rule="evenodd" clip-rule="evenodd" d="M61.1082 23.4779C56.6734 23.899 53.0625 22.4084 50.2754 19.0061C49.7904 14.7316 51.5498 11.7504 55.5529 10.0626C59.4588 8.83768 62.8842 9.58295 65.8302 12.2985C66.3168 14.2085 65.6685 15.6059 63.8858 16.4908C61.9015 17.2761 59.8644 17.4624 57.775 17.0497C57.0162 15.7184 57.2012 14.5073 58.3306 13.4164C59.766 12.9174 61.2476 12.7311 62.7748 12.8575C62.8692 12.1184 62.6842 11.4663 62.2193 10.9011C60.5527 10.5284 58.8861 10.5284 57.2195 10.9011C56.9106 11.1149 56.7256 11.3944 56.664 11.7395C52.362 12.8262 51.1581 15.4348 53.053 19.5651C53.7552 20.7429 54.7735 21.3018 56.1084 21.242C62.2442 22.7465 67.1512 20.8833 70.8299 15.6523C71.2005 14.907 71.2005 14.1617 70.8299 13.4164C69.5222 17.4425 66.8368 19.6784 62.7748 20.1241C62.6292 19.298 62.8142 18.5527 63.3303 17.8882C67.2796 16.2085 68.0206 13.6931 65.5524 10.3421C64.1886 9.60894 62.7998 8.95685 61.386 8.38569C60.8777 7.03298 61.3404 6.28765 62.7748 6.14981C66.3229 6.48799 69.0084 8.1649 70.8299 11.1805C70.4544 8.19313 68.695 6.42304 65.5524 5.87033C60.7527 4.42818 56.3084 5.08033 52.2197 7.82672C45.7034 10.6937 43.574 15.5382 45.8312 22.36C47.6716 25.0087 50.1715 26.5924 53.3308 27.1112C56.9128 27.5406 60.431 27.2611 63.8858 26.2727C68.5856 25.4545 72.4743 23.2186 75.5519 19.5651C75.7086 20.2793 76.0791 20.8383 76.663 21.242C69.4989 26.7735 61.351 29.1957 52.2197 28.5086C41.9169 24.4307 40.2503 18.0957 47.22 9.50363C49.8371 6.8819 52.9847 5.20498 56.664 4.4729C61.0593 3.53651 65.3185 4.0023 69.4411 5.87033C73.8031 9.01275 74.4514 12.8324 71.3855 17.3292C68.3867 20.1853 64.9613 22.2349 61.1082 23.4779Z" fill="#EFF2F4"/>
<path fill-rule="evenodd" clip-rule="evenodd" d="M52.2196 7.82819C53.224 7.82338 54.1501 8.10286 54.9972 8.66664C54.8123 8.85295 54.6267 9.03931 54.4417 9.22561C54.9506 9.38123 55.3206 9.66071 55.5528 10.0641C51.5496 11.7519 49.7903 14.733 50.2753 19.0076C53.0623 22.4099 56.6733 23.9005 61.1081 23.4794C61.7958 23.6526 61.7958 23.9321 61.1081 24.3178C62.2691 24.692 63.1952 25.3441 63.8857 26.2742C60.4309 27.2626 56.9127 27.5421 53.3307 27.1127C50.1714 26.5939 47.6715 25.0102 45.831 22.3614C43.5739 15.5396 45.7033 10.6952 52.2196 7.82819Z" fill="#212529"/>
<path fill-rule="evenodd" clip-rule="evenodd" d="M42.2199 8.94523C42.4632 8.90867 42.6488 9.0018 42.7754 9.22471C42.2888 10.1112 41.7333 10.9497 41.1089 11.7401C41.4005 12.1271 41.771 12.4066 42.2199 12.5785C41.7772 15.5131 41.6844 18.5875 41.9421 21.8015C43.3021 24.1017 44.8759 26.2444 46.6641 28.2297C45.3881 28.8779 45.5731 29.4369 47.2197 29.9066C46.693 30.1765 46.1375 30.2697 45.5531 30.1861C39.2278 27.1467 36.728 22.116 38.0534 15.0939C39.1739 12.8325 40.5628 10.7829 42.2199 8.94523Z" fill="#212529"/>
<path fill-rule="evenodd" clip-rule="evenodd" d="M56.6641 11.7383C56.7219 13.1857 56.3513 14.49 55.553 15.6511C56.5702 17.5065 57.6813 19.2766 58.8862 20.9613C57.9785 21.2371 57.0524 21.3303 56.1086 21.2408C54.7736 21.3006 53.7554 20.7416 53.0532 19.5639C51.1583 15.4335 52.3621 12.825 56.6641 11.7383Z" fill="#212529"/>
<path fill-rule="evenodd" clip-rule="evenodd" d="M56.1084 21.2395C57.0523 21.3291 57.9783 21.2359 58.8861 20.96C57.6811 19.2753 56.5701 17.5052 55.5529 15.6498C56.3512 14.4888 56.7217 13.1845 56.664 11.737C56.7256 11.3919 56.9106 11.1124 57.2195 10.8986C58.8861 10.5259 60.5527 10.5259 62.2192 10.8986C62.6842 11.4639 62.8692 12.116 62.7748 12.855C61.2476 12.7286 59.766 12.9149 58.3305 13.4139C57.2012 14.5048 57.0162 15.7159 57.775 17.0473C59.8644 17.4599 61.9015 17.2736 63.8858 16.4883C65.6685 15.6034 66.3168 14.206 65.8302 12.296C62.8842 9.58048 59.4588 8.8352 55.5529 10.0601C55.3207 9.65677 54.9507 9.37729 54.4418 9.22167C54.6268 9.03537 54.8124 8.84901 54.9974 8.6627C54.1502 8.09892 53.2241 7.81944 52.2197 7.82425C56.3084 5.07786 60.7526 4.42571 65.5524 5.86785C68.695 6.42056 70.4544 8.19065 70.8299 11.1781C69.0084 8.16242 66.3229 6.48551 62.7748 6.14734C61.3404 6.28518 60.8776 7.03051 61.3859 8.38322C62.7998 8.95437 64.1886 9.60647 65.5524 10.3396C68.0206 13.6906 67.2796 16.206 63.3303 17.8857C62.8142 18.5502 62.6292 19.2955 62.7748 20.1216C66.8368 19.6759 69.5222 17.44 70.8299 13.4139C71.2005 14.1592 71.2005 14.9046 70.8299 15.6498C67.1512 20.8808 62.2442 22.744 56.1084 21.2395Z" fill="#212529"/>
<path fill-rule="evenodd" clip-rule="evenodd" d="M75.5519 4.47317C77.8773 7.92772 78.3406 11.6542 76.9407 15.6526C74.8436 19.534 71.7882 22.3288 67.7745 24.0371C67.3 23.466 66.7445 23.0002 66.1079 22.6397C69.3483 20.8696 71.8482 18.3543 73.6075 15.0936C75.0852 9.58865 73.1409 5.95534 67.7745 4.19369C65.1907 3.69134 62.5981 3.22549 59.9971 2.79626C60.3676 2.23729 60.7376 1.67832 61.1081 1.11935C66.3829 0.303757 71.1976 1.4217 75.5519 4.47317Z" fill="#E6E9EB"/>
<path fill-rule="evenodd" clip-rule="evenodd" d="M76.663 21.2422C76.668 22.253 76.3902 23.1847 75.8297 24.037C71.891 27.48 67.354 29.8091 62.2192 31.0242C61.1232 31.3011 60.0121 31.3943 58.8861 31.3037C56.6201 30.2886 54.398 29.357 52.2197 28.5088C61.351 29.1958 69.4989 26.7736 76.663 21.2422Z" fill="#212529"/>
<path fill-rule="evenodd" clip-rule="evenodd" d="M76.6631 35.7758C76.6964 35.4722 76.8814 35.2859 77.2186 35.2168C77.7597 36.4704 77.9452 37.7746 77.7741 39.1296C79.1957 38.961 80.4923 39.1474 81.6628 39.6886C80.1812 39.6886 78.7002 39.6886 77.2186 39.6886C77.3864 38.258 77.2008 36.9537 76.6631 35.7758Z" fill="#212529"/>
<path fill-rule="evenodd" clip-rule="evenodd" d="M26.6654 54.7806C27.2689 54.7135 27.6392 54.3407 27.7765 53.6627C27.0791 51.6006 27.0791 49.5514 27.7765 47.514C27.3182 47.0189 26.7627 46.8326 26.1099 46.955C26.1714 46.6099 26.3566 46.3304 26.6654 46.1166C28.508 45.838 30.3598 45.7448 32.2207 45.8371C32.7863 42.903 31.6753 41.2261 28.8876 40.8063C29.0564 42.3338 28.4083 43.2655 26.9432 43.6012C24.2673 41.78 24.5451 40.3825 27.7765 39.4089C30.7218 38.9062 33.2218 39.7446 35.2761 41.9243C35.4611 45.8371 35.6467 49.7499 35.8317 53.6627C36.9922 55.0551 36.6222 55.8002 34.7206 55.8985C33.714 55.9025 32.8807 55.5296 32.2207 54.7806C30.2864 56.2267 28.4347 56.2267 26.6654 54.7806Z" fill="#212529"/>
<path fill-rule="evenodd" clip-rule="evenodd" d="M81.6631 39.6895C82.1653 40.0858 82.3503 40.6447 82.2186 41.3664C80.737 41.3664 79.256 41.3664 77.7744 41.3664C79.2516 41.1331 80.5476 40.5741 81.6631 39.6895Z" fill="#212529"/>
<path fill-rule="evenodd" clip-rule="evenodd" d="M103.884 54.7781C101.662 55.5232 99.4399 55.5232 97.2178 54.7781C97.9161 52.7798 98.2866 50.6373 98.3288 48.35C98.2872 46.1015 97.9166 43.9587 97.2178 41.9218C98.5138 41.1765 99.8104 40.4312 101.106 39.6859C101.477 40.2449 101.847 40.8039 102.218 41.3628C103.222 40.2513 104.426 39.506 105.828 39.127C107.658 39.4835 108.213 40.6015 107.495 42.4808C106.172 43.2445 104.969 43.0582 103.884 41.9218C103.162 42.2516 102.7 42.8106 102.495 43.5987C102.125 47.1388 102.125 50.6792 102.495 54.2192C102.868 54.6395 103.331 54.8262 103.884 54.7781Z" fill="#212529"/>
<path fill-rule="evenodd" clip-rule="evenodd" d="M17.2217 54.2234C17.4029 49.4627 17.2177 44.8047 16.6662 40.2492C16.6447 39.547 16.9225 38.988 17.4995 38.5723C17.9574 43.8876 17.8648 49.1049 17.2217 54.2234Z" fill="#212529"/>
<path fill-rule="evenodd" clip-rule="evenodd" d="M69.9969 39.127C70.7208 40.723 70.7208 42.3999 69.9969 44.1577C69.6597 44.0886 69.4747 43.9023 69.4414 43.5987C69.9819 42.2304 70.1669 40.7398 69.9969 39.127Z" fill="#212529"/>
<path fill-rule="evenodd" clip-rule="evenodd" d="M74.4405 39.6895C74.4405 44.3475 74.4405 49.0058 74.4405 53.6637C74.2194 49.3669 73.6639 45.0816 72.7739 40.8074C73.25 40.2902 73.8055 39.9176 74.4405 39.6895Z" fill="#212529"/>
<path fill-rule="evenodd" clip-rule="evenodd" d="M111.662 39.127C113.925 39.405 116.147 39.405 118.328 39.127C119.068 40.8039 119.068 42.4808 118.328 44.1577C116.855 40.6887 114.818 40.1297 112.217 42.4808C112.426 43.5333 112.982 44.3717 113.884 44.9961C115.982 46.1767 117.927 47.5741 119.717 49.1884C120.554 52.2689 119.536 54.412 116.661 55.6166C114.207 55.7183 111.8 55.8111 109.439 55.8961C108.699 54.2192 108.699 52.5422 109.439 50.8653C110.421 53.5014 112.272 54.526 114.995 53.9397C116.139 53.1051 116.324 52.0805 115.55 50.8653C113.147 49.5193 111.018 47.8424 109.162 45.8346C108.791 44.344 108.791 42.8534 109.162 41.3628C110.088 40.6735 110.921 39.9282 111.662 39.127Z" fill="#212529"/>
<path fill-rule="evenodd" clip-rule="evenodd" d="M12.2216 48.0715C12.7408 48.6685 12.9259 49.4136 12.7772 50.3074C12.2936 51.7674 11.9232 53.2582 11.6661 54.7792C10.8451 54.9256 10.1044 54.7395 9.44399 54.2202C7.65779 49.1045 5.71344 44.0739 3.61094 39.128C3.24056 44.1587 3.24056 49.1895 3.61094 54.2202C4.0278 54.5701 4.49078 54.8496 4.99976 55.0587C3.30312 55.5176 1.63653 55.4248 0 54.7792C0.458311 54.2839 1.01384 54.0978 1.66659 54.2202C1.66659 48.0715 1.66659 41.9229 1.66659 35.7742C1.01384 35.8966 0.458311 35.7103 0 35.2152C2.03696 34.4699 4.07386 34.4699 6.11081 35.2152C7.79573 39.7658 9.64748 44.2375 11.6661 48.6305C12.0031 48.5612 12.1883 48.375 12.2216 48.0715Z" fill="#212529"/>
<path fill-rule="evenodd" clip-rule="evenodd" d="M26.1099 46.9524C26.7626 46.83 27.3181 47.0163 27.7764 47.5114C27.0791 49.5488 27.0791 51.598 27.7764 53.6601C27.6391 54.3381 27.2688 54.7109 26.6654 54.778C26.3376 52.3197 26.1524 49.7109 26.1099 46.9524Z" fill="#212529"/>
<path fill-rule="evenodd" clip-rule="evenodd" d="M95.5515 48.0723C92.8821 48.624 90.1045 48.8107 87.2185 48.6312C87.2185 49.1902 87.2185 49.7492 87.2185 50.3081C86.6997 49.7112 86.5141 48.9661 86.663 48.0723C89.6256 48.0723 92.5888 48.0723 95.5515 48.0723Z" fill="#212529"/>
<path fill-rule="evenodd" clip-rule="evenodd" d="M28.8875 47.5137C29.9986 47.5137 31.1096 47.5137 32.2207 47.5137C32.3123 49.3862 32.2197 51.2493 31.9429 53.1034C29.1534 54.9798 27.7646 54.1414 27.7764 50.588C27.9197 49.465 28.29 48.4399 28.8875 47.5137Z" fill="#EAEEF2"/>
<path fill-rule="evenodd" clip-rule="evenodd" d="M57.7751 54.2227C58.0074 54.6263 58.3773 54.9057 58.8862 55.0611C56.8491 55.434 54.8125 55.434 52.7754 55.0611C53.0843 54.8471 53.2693 54.5676 53.3309 54.2227C53.7003 52.3686 53.8859 50.4122 53.8864 48.3535C53.8798 46.1725 53.5092 44.2161 52.7754 42.4843C53.702 41.1664 54.9981 40.2348 56.6641 39.6895C57.0346 44.6219 57.4046 49.4664 57.7751 54.2227Z" fill="#212529"/>
<path fill-rule="evenodd" clip-rule="evenodd" d="M76.663 35.7734C77.2008 36.9514 77.3863 38.2557 77.2186 39.6862C78.7002 39.6862 80.1812 39.6862 81.6628 39.6862C80.5473 40.5709 79.2513 41.1298 77.7741 41.3631C77.6819 45.4665 77.7741 49.5655 78.0519 53.6605C79.4974 53.8835 80.8862 53.8835 82.2183 53.6605C80.1929 55.926 77.7858 56.3922 74.9965 55.0579C74.5787 54.6828 74.3932 54.2172 74.4409 53.6605C74.4409 49.0026 74.4409 44.3443 74.4409 39.6862C75.6098 38.6399 76.3503 37.3356 76.663 35.7734Z" fill="#212529"/>
<path fill-rule="evenodd" clip-rule="evenodd" d="M26.1098 46.9551C26.1523 49.7136 26.3375 52.3223 26.6653 54.7807C25.9555 54.623 25.4 54.2502 24.9988 53.6627C24.2999 51.5945 24.2999 49.5453 24.9988 47.514C25.3691 47.3279 25.7394 47.1414 26.1098 46.9551Z" fill="#212529"/>
<path fill-rule="evenodd" clip-rule="evenodd" d="M56.108 38.0096C55.0087 38.9417 53.7126 39.3143 52.2193 39.1275C51.8344 37.0158 51.1861 37.0158 50.275 39.1275C50.3661 41.7294 50.3661 44.3379 50.275 46.9531C49.7211 47.9721 49.0728 48.9039 48.3306 49.748C46.3507 50.2639 44.3136 50.45 42.2198 50.3069C42.1254 51.0459 42.3104 51.6982 42.7754 52.2633C44.4419 52.4495 46.1085 52.6362 47.7751 52.8223C51.7283 54.8335 52.0982 57.4416 48.8862 60.6479C45.4113 62.5372 41.9854 62.4439 38.6089 60.3684C37.2956 58.147 37.5734 56.1906 39.4422 54.4992C38.5033 52.5288 38.8733 50.8519 40.5532 49.4685C37.4006 45.9964 37.5862 42.829 41.1088 39.966C43.5114 39.2027 45.9185 38.9232 48.3306 39.1275C49.7456 35.6186 52.1527 34.5938 55.5525 36.0532C56.0175 36.6185 56.2025 37.2706 56.108 38.0096Z" fill="#212529"/>
<path fill-rule="evenodd" clip-rule="evenodd" d="M43.3309 40.8066C46.1452 40.8528 47.4412 42.3434 47.2196 45.2784C47.2162 47.1549 46.3829 48.4589 44.7197 49.1912C43.6158 48.8256 42.8753 48.0805 42.4976 46.9553C41.9493 44.7335 42.227 42.6839 43.3309 40.8066Z" fill="#EEF3F5"/>
<path fill-rule="evenodd" clip-rule="evenodd" d="M52.7754 43.0414C52.7754 42.8551 52.7754 42.6687 52.7754 42.4824C53.5092 44.2142 53.8798 46.1706 53.8864 48.3516C53.8859 50.4103 53.7003 52.3667 53.3309 54.2208C53.5109 50.3896 53.3259 46.663 52.7754 43.0414Z" fill="#212529"/>
<path fill-rule="evenodd" clip-rule="evenodd" d="M69.9969 39.127C70.1669 40.7398 69.9819 42.2304 69.4414 43.5987C68.4698 41.1093 66.7104 40.3641 64.1639 41.3628C63.7933 42.1081 63.7933 42.8534 64.1639 43.5987C66.4888 45.3288 68.7109 47.192 70.8302 49.1884C71.9785 53.5445 70.2197 55.7804 65.5527 55.8961C63.8533 55.4142 62.1868 55.4142 60.5529 55.8961C59.8124 54.2192 59.8124 52.5422 60.5529 50.8653C61.819 53.554 63.8561 54.5786 66.6638 53.9397C68.1454 52.8217 68.1454 51.7038 66.6638 50.5858C64.6705 49.2572 62.7262 47.8597 60.8307 46.3936C59.1891 43.1736 60.0224 40.8445 63.3306 39.4064C65.6155 39.3315 67.8376 39.2384 69.9969 39.127Z" fill="#212529"/>
<path fill-rule="evenodd" clip-rule="evenodd" d="M95.5509 48.0725C92.5882 48.0725 89.625 48.0725 86.6624 48.0725C86.5135 48.9663 86.6991 49.7114 87.2179 50.3084C88.1951 54.5767 90.4172 55.3218 93.8843 52.5442C94.602 54.1714 94.0465 55.196 92.2177 55.6186C88.3929 56.5744 85.523 55.3637 83.607 51.9853C83.2365 49.0043 83.2365 46.0229 83.607 43.0417C87.4735 37.8923 91.3622 37.8923 95.2731 43.0417C95.5498 44.7084 95.6425 46.3853 95.5509 48.0725Z" fill="#212529"/>
<path fill-rule="evenodd" clip-rule="evenodd" d="M87.2182 43.6016C87.2182 44.5332 87.2182 45.4648 87.2182 46.3964C88.8848 46.3964 90.5513 46.3964 92.2179 46.3964C90.4819 46.9439 88.6303 47.1302 86.6626 46.9554C86.4988 45.7059 86.6843 44.5879 87.2182 43.6016Z" fill="#212529"/>
<path fill-rule="evenodd" clip-rule="evenodd" d="M92.218 46.3951C90.5514 46.3951 88.8848 46.3951 87.2183 46.3951C87.2183 45.4635 87.2183 44.5319 87.2183 43.6002C87.3244 41.3458 88.4354 40.5073 90.5514 41.0849C91.7908 42.621 92.3463 44.3911 92.218 46.3951Z" fill="#F0F4F4"/>
<path fill-rule="evenodd" clip-rule="evenodd" d="M22.2212 35.7756C21.5773 41.8267 21.4847 47.9756 21.9434 54.2216C22.3161 54.6419 22.779 54.8286 23.3323 54.7805C23.3323 54.9667 23.3323 55.1534 23.3323 55.3395C20.8144 55.5173 18.4072 55.3311 16.1104 54.7805C16.4808 54.5944 16.8511 54.4077 17.2214 54.2216C17.8645 49.1031 17.9571 43.8858 17.4992 38.5704C16.9222 38.9862 16.6445 39.5451 16.6659 40.2473C15.6561 43.7608 14.3599 47.1147 12.7772 50.3088C12.926 49.415 12.7408 48.6699 12.2217 48.0729C13.7202 43.576 15.2016 39.1043 16.6659 34.6576C18.8957 34.5651 21.1178 34.6583 23.3323 34.9371C23.0299 35.338 22.6596 35.6175 22.2212 35.7756Z" fill="#212529"/>
<path fill-rule="evenodd" clip-rule="evenodd" d="M17.2216 35.2175C18.5309 35.1262 19.8272 35.2194 21.1103 35.497C21.0709 38.1337 20.9783 40.8353 20.8326 43.602C20.1694 42.4151 19.7991 41.1108 19.7215 39.6892C19.6289 40.3414 19.5364 40.9935 19.4438 41.6456C19.6039 43.7756 19.7891 45.9183 19.9993 48.0738C20.448 46.9987 20.7258 45.8808 20.8326 44.72C21.2934 47.7183 21.2008 50.6998 20.5548 53.6635C20.0084 50.0145 19.3603 50.0145 18.6105 53.6635C18.4253 48.2599 18.2401 42.8568 18.0549 37.4534C17.3949 36.8589 17.1171 36.1137 17.2216 35.2175Z" fill="#212529"/>
<path fill-rule="evenodd" clip-rule="evenodd" d="M16.1102 54.7793C18.407 55.3299 20.8143 55.516 23.3321 55.3383C20.8238 56.0716 18.2313 56.0716 15.5547 55.3383C15.6234 54.999 15.8085 54.8128 16.1102 54.7793Z" fill="#212529"/>
<path fill-rule="evenodd" clip-rule="evenodd" d="M97.2176 54.7793C99.4398 55.5244 101.662 55.5244 103.884 54.7793C104.186 54.8128 104.371 54.999 104.44 55.3383C101.847 56.0834 99.2548 56.0834 96.6621 55.3383C96.731 54.999 96.916 54.8128 97.2176 54.7793Z" fill="#212529"/>
<path fill-rule="evenodd" clip-rule="evenodd" d="M47.7757 56.4579C45.3686 56.4579 42.9609 56.4579 40.5538 56.4579C40.5538 57.203 40.5538 57.9487 40.5538 58.6938C39.8278 57.7307 39.8278 56.7055 40.5538 55.6195C42.591 55.2466 44.6275 55.2466 46.6646 55.6195C47.1735 55.7749 47.5435 56.0543 47.7757 56.4579Z" fill="#212529"/>
<path fill-rule="evenodd" clip-rule="evenodd" d="M47.7756 56.457C48.6672 58.4805 47.9267 59.6918 45.5535 60.0903C43.5302 60.6884 41.8636 60.2223 40.5537 58.6929C40.5537 57.9478 40.5537 57.2021 40.5537 56.457C42.9608 56.457 45.3685 56.457 47.7756 56.457Z" fill="#EAEEF1"/>
</svg>
