<svg width="120" height="120" viewBox="0 0 120 120" fill="none" xmlns="http://www.w3.org/2000/svg">
<path d="M58.0748 107.553L68.8969 102.457L53.9156 89.3262C53.7354 89.3337 53.5566 89.34 53.3765 89.3488L53.2095 107.023C54.8006 107.293 56.4258 107.469 58.0748 107.553Z" fill="#212529"/>
<path d="M53.2098 107.022L53.3768 89.3477C53.1572 89.3577 52.935 89.364 52.7154 89.3753L37.8091 100.998C42.3614 103.964 47.5779 106.063 53.2098 107.022Z" fill="#212529"/>
<path d="M27.9507 47.1264L38.661 59.6617L41.1423 36.0566C35.9338 38.7742 31.4274 42.5704 27.9507 47.1264Z" fill="#212529"/>
<path d="M54.7229 31.7734C50.4112 32.3436 46.3203 33.5755 42.5596 35.3549L52.736 37.6179C53.4408 35.6877 54.1127 33.7425 54.7229 31.7734Z" fill="#212529"/>
<path d="M20.3158 69.4402C20.3158 69.4628 20.3145 69.4854 20.3145 69.5081C20.3145 72.6124 20.7129 75.6275 21.4519 78.5171L38.6607 59.6602L20.3158 69.4402Z" fill="#212529"/>
<path d="M23.335 54.9913L38.6594 59.6603L27.9491 47.125C26.1016 49.5462 24.5513 52.1858 23.335 54.9913Z" fill="#212529"/>
<path d="M38.6615 59.6593L23.337 54.9902C21.4053 59.447 20.3271 64.3245 20.3179 69.4393L38.6615 59.6593Z" fill="#212529"/>
<path d="M23.2642 83.8637C26.1058 80.9929 28.8054 77.9941 31.3643 74.8848L21.8296 79.8615C22.2346 81.2265 22.708 82.5652 23.2642 83.8637Z" fill="#212529"/>
<path d="M31.3641 74.8841C34.9894 70.4788 38.3163 65.8411 41.3275 61.0013L38.6595 59.6602L21.4507 78.5171C21.5664 78.9692 21.6953 79.415 21.8281 79.8608L31.3641 74.8841Z" fill="#212529"/>
<path d="M52.7151 89.377C44.4611 89.8102 36.4044 90.9442 28.6094 92.7261C31.1933 95.9271 34.3058 98.7163 37.8088 100.999L52.7151 89.377Z" fill="#212529"/>
<path d="M45.5079 53.7734L38.6597 59.6568L41.3277 60.998C42.7978 58.6371 44.1943 56.2298 45.5079 53.7734Z" fill="#212529"/>
<path d="M52.7359 37.6145L42.5595 35.3516C42.0822 35.5776 41.6088 35.8099 41.142 36.0523L38.6606 59.6574L45.5089 53.774C48.2861 48.5813 50.7017 43.1839 52.7359 37.6145Z" fill="#212529"/>
<path d="M92.3332 78.7679L97.8507 82.1472C99.313 78.194 100.115 73.9469 100.116 69.5215L91.4653 77.7833C91.7533 78.1136 92.0426 78.4414 92.3332 78.7679Z" fill="#212529"/>
<path d="M89.0973 95.752C89.2866 95.5624 89.4668 95.3652 89.6509 95.1731L85.2458 91.3907C80.2542 90.4991 75.1654 89.8724 69.9976 89.5195L68.897 102.459L89.0973 95.752Z" fill="#212529"/>
<path d="M69.9974 89.5192C66.7758 89.2994 63.5265 89.1738 60.247 89.1738C58.1234 89.1738 56.0155 89.2354 53.9155 89.327L68.8968 102.458L69.9974 89.5192Z" fill="#212529"/>
<path d="M70.6456 32.7394C69.0177 32.3175 67.3503 31.9872 65.6475 31.7637C66.5258 34.5992 67.5134 37.3883 68.5864 40.1373L75.8607 40.6597L70.6456 32.7394Z" fill="#212529"/>
<path d="M75.8593 40.663L68.585 40.1406C69.8 43.2575 71.1307 46.3204 72.5851 49.3179L75.8593 40.663Z" fill="#212529"/>
<path d="M80.5147 102.287C83.6838 100.489 86.5714 98.2874 89.0987 95.752L68.8984 102.458L80.5147 102.287Z" fill="#212529"/>
<path d="M72.5869 49.3157C73.3246 50.8365 74.0965 52.3397 74.8933 53.8278L94.043 49.3358C93.972 49.2278 93.8997 49.1211 93.8274 49.0131L75.8612 40.6621L72.5869 49.3157Z" fill="#212529"/>
<path d="M82.0112 65.5582C84.8542 69.7224 87.9404 73.7183 91.2527 77.5321L92.9687 65.459L82.0112 65.5582Z" fill="#212529"/>
<path d="M80.7103 36.8341C77.6044 35.0521 74.2236 33.667 70.647 32.7402L75.8608 40.6617L80.7103 36.8341Z" fill="#212529"/>
<path d="M77.2666 58.0566C78.763 60.6109 80.3423 63.115 82.011 65.5587L92.9671 65.4595L77.2666 58.0566Z" fill="#212529"/>
<path d="M93.8261 49.0126C90.4966 44.0535 86.0047 39.8717 80.7094 36.834L75.8599 40.6616L93.8261 49.0126Z" fill="#212529"/>
<path d="M77.2669 58.0574L92.9674 65.4603L94.3179 49.7491C94.2285 49.6097 94.1325 49.4753 94.0418 49.3359L74.8921 53.8279C75.6561 55.2545 76.4503 56.6622 77.2669 58.0574Z" fill="#212529"/>
<path d="M58.0747 107.554C58.7835 107.59 59.4962 107.614 60.2154 107.614C67.6265 107.614 74.5629 105.664 80.5131 102.287L68.8968 102.458L58.0747 107.554Z" fill="#212529"/>
<path d="M91.2524 77.5325C91.3248 77.6154 91.3944 77.6995 91.4668 77.7824L100.118 69.5205C100.118 69.5168 100.118 69.5118 100.118 69.508C100.118 67.7122 99.9864 65.9441 99.7339 64.2148L92.9684 65.4606L91.2524 77.5325Z" fill="#212529"/>
<path d="M99.7322 64.2128C98.9669 58.9761 97.0826 54.0786 94.3172 49.7461L92.9668 65.4573L99.7322 64.2128Z" fill="#212529"/>
<path d="M97.1497 83.9056C97.3982 83.3266 97.631 82.7389 97.8505 82.1449L92.333 78.7656C93.8925 80.5187 95.4955 82.2366 97.1497 83.9056Z" fill="#212529"/>
<path d="M89.8576 92.2941C88.3297 91.9688 86.7925 91.6649 85.2461 91.3887L89.6512 95.1711C89.7538 95.0631 89.8576 94.9576 89.9589 94.8484C90.6058 94.1564 91.237 93.4507 91.8301 92.7148C91.1765 92.5654 90.5164 92.4335 89.8576 92.2941Z" fill="#212529"/>
<path fill-rule="evenodd" clip-rule="evenodd" d="M24.2124 85.8783C25.0895 87.6302 26.0994 89.3066 27.2355 90.899C37.9392 88.3798 48.969 87.104 60.2474 87.104C71.5047 87.104 82.5174 88.3761 93.2067 90.8864C94.3296 89.3104 95.3316 87.6515 96.2008 85.9185C80.8448 70.5652 69.5651 51.8603 63.373 31.5278C62.3316 31.4462 61.2796 31.3984 60.2158 31.3984C59.1323 31.3984 58.0619 31.4474 57.0021 31.5315C50.8178 51.8515 39.5526 70.5351 24.2124 85.8783Z" fill="white"/>
<path fill-rule="evenodd" clip-rule="evenodd" d="M60.1355 80.6818C48.2154 80.6818 36.9515 83.2574 26.9565 87.8298C46.2272 75.9776 59.1611 56.091 60.1026 33.375C61.0414 56.0093 73.8846 75.837 93.0421 87.7042C83.1143 83.211 71.9464 80.6818 60.1355 80.6818Z" fill="#212529"/>
<path d="M49.128 79.8305C48.5455 76.6433 48.2549 75.0497 47.6724 71.8625C49.3345 71.585 50.1695 71.4694 51.8434 71.2836C52.8677 71.1693 53.7172 71.3338 54.3379 71.7306C54.969 72.1325 55.3109 72.6901 55.3648 73.4159C55.4187 74.1418 55.1676 74.7483 54.6456 75.2418C54.1301 75.7291 53.3911 76.0317 52.4364 76.1385C51.6119 76.2301 51.1991 76.2829 50.3772 76.3984C50.5718 77.6655 50.6704 78.2984 50.8651 79.5655C50.1695 79.6622 49.8223 79.715 49.128 79.8305ZM50.1603 74.9919C50.9479 74.8814 51.3437 74.8312 52.134 74.742C53.0308 74.6403 53.5278 74.2372 53.4621 73.5942C53.3964 72.95 52.8099 72.6411 51.8855 72.7453C51.0715 72.837 50.6652 72.8897 49.8539 73.0028C49.9762 73.7977 50.038 74.1958 50.1603 74.9919Z" fill="white"/>
<path d="M57.1123 78.9756C56.9387 75.7444 56.8533 74.1295 56.6797 70.8983C58.3602 70.8167 59.2005 70.7979 60.8823 70.8067C61.9132 70.8117 62.7337 71.0729 63.3005 71.5388C63.8751 72.011 64.1434 72.6037 64.1052 73.3308C64.0671 74.0579 63.741 74.6305 63.1598 75.06C62.5865 75.4845 61.8146 75.6992 60.856 75.6942C60.0276 75.6904 59.612 75.6942 58.7836 75.713C58.8165 76.9927 58.8336 77.6331 58.8651 78.9128C58.163 78.9291 57.8132 78.9417 57.1123 78.9756ZM58.7455 74.2915C59.5397 74.2726 59.9368 74.2689 60.7324 74.2714C61.6344 74.2739 62.1775 73.9323 62.1946 73.2856C62.2104 72.6389 61.6686 72.2646 60.7403 72.2609C59.9224 72.2584 59.5121 72.2621 58.6942 72.281C58.7152 73.0859 58.7258 73.4878 58.7455 74.2915Z" fill="white"/>
<path d="M66.2444 78.1145C65.4278 77.2531 65.0359 76.2196 65.1201 74.9977C65.2056 73.7645 65.746 72.7812 66.7743 72.0817C67.8118 71.3772 69.1175 71.1085 70.6074 71.3044C71.5502 71.4275 72.3576 71.7251 73.0414 72.1772C72.923 72.8377 72.8625 73.168 72.7442 73.8285C72.1051 73.3024 71.3214 72.9721 70.3983 72.8515C69.5015 72.7347 68.7244 72.9043 68.0787 73.34C67.441 73.7695 67.0938 74.3723 67.0175 75.1434C66.9426 75.9144 67.1753 76.5724 67.6842 77.1225C68.1944 77.6738 68.8664 77.9927 69.7185 78.1045C70.6573 78.2288 71.4805 78.1221 72.2129 77.7629C72.092 78.4235 72.0315 78.7525 71.9118 79.413C71.1504 79.6843 70.3273 79.7571 69.4108 79.6378C68.0998 79.4658 67.057 78.9697 66.2444 78.1145Z" fill="white"/>
<path d="M17.3206 77.5868L8.84176 78.6454L8.38021 75.2799C8.16456 73.7064 8.94697 72.6678 10.3145 72.4971C11.6834 72.3263 12.7301 73.1363 12.9457 74.7098L13.3336 77.5441L17.2456 77.0556L17.3206 77.5868ZM12.8142 77.6081L12.4329 74.8203C12.2567 73.5356 11.5151 72.8876 10.3882 73.0283C9.27439 73.1677 8.73262 73.9764 8.90751 75.2598L9.28886 78.0477L12.8142 77.6081Z" fill="#212529"/>
<path d="M15.4256 67.5038C14.4972 68.177 13.4071 68.4457 12.1448 68.3076C10.8942 68.1719 9.89618 67.6746 9.1506 66.8194C8.40633 65.9504 8.09602 64.9433 8.23409 63.7955C8.37084 62.6477 8.90996 61.7435 9.83964 61.0591C10.7693 60.3735 11.8594 60.1047 13.1086 60.2416C14.3591 60.3785 15.369 60.8758 16.1133 61.7435C16.8576 62.6113 17.1574 63.6071 17.0193 64.7537C16.8838 65.9015 16.3552 66.8182 15.4256 67.5038ZM16.4867 64.6972C16.6051 63.7114 16.3395 62.8486 15.6794 62.0964C15.0192 61.3429 14.1501 60.9084 13.0455 60.7879C11.9409 60.6673 10.9902 60.9034 10.1697 61.4949C9.34917 62.0864 8.8863 62.87 8.76927 63.8545C8.65092 64.8403 8.91787 65.703 9.57797 66.4553C10.2381 67.2087 11.1073 67.6445 12.2118 67.7638C13.3164 67.8844 14.2658 67.647 15.0876 67.0568C15.9055 66.4653 16.3684 65.6817 16.4867 64.6972Z" fill="#212529"/>
<path d="M18.4318 57.2885L10.4014 54.4856L10.5947 53.982L18.1307 56.6116L19.8375 52.1523L20.3306 52.3244L18.4318 57.2885Z" fill="#212529"/>
<path d="M22.2947 48.8945L15.3544 45.058L13.8199 47.5897L13.3662 47.3385L16.7167 41.8105L17.1704 42.0617L15.6358 44.5934L22.5761 48.4298L22.2947 48.8945Z" fill="#212529"/>
<path d="M24.7723 44.8943L20.8984 36.6802L21.2456 36.3047L30.2438 38.9757L29.8559 39.3952L27.2181 38.6178L24.0333 42.0625L25.1668 44.4661L24.7723 44.8943ZM23.7979 41.6142L26.7158 38.4584L21.6177 36.9602L23.7979 41.6142Z" fill="#212529"/>
<path d="M34.1993 36.1142L26.0137 31.6788L26.5147 31.3259L33.9455 35.3532L32.1085 27.3903L32.6003 27.0449L34.6135 35.8254L34.1993 36.1142Z" fill="#212529"/>
<path d="M38.6411 33.0706L38.6766 24.0641L39.1566 23.8594L46.1876 29.8482L45.6524 30.0768L43.5893 28.3262L39.1987 30.2024L39.1895 32.8383L38.6411 33.0706ZM39.1763 29.7013L43.2001 27.9834L39.2105 24.6041L39.1763 29.7013Z" fill="#212529"/>
<path d="M28.3281 108.433C28.1572 107.323 28.4333 106.278 29.1829 105.283C29.9324 104.29 30.8831 103.707 32.0324 103.522C33.1882 103.326 34.2638 103.577 35.2553 104.257C36.0088 104.776 36.544 105.403 36.8451 106.141L36.4887 106.615C36.1771 105.811 35.6656 105.172 34.9516 104.681C34.0995 104.094 33.1619 103.881 32.1415 104.055C31.1277 104.221 30.298 104.743 29.6484 105.604C28.9988 106.465 28.7437 107.382 28.8936 108.361C29.0501 109.332 29.5589 110.113 30.4216 110.707C31.2447 111.274 32.1192 111.53 33.0633 111.476L32.699 111.958C31.8101 111.979 30.9396 111.696 30.0876 111.109C29.0961 110.428 28.507 109.533 28.3281 108.433Z" fill="#212529"/>
<path d="M36.9032 113.68C36.4995 112.637 36.5469 111.563 37.0518 110.451C37.5515 109.349 38.3391 108.582 39.4135 108.15C40.4996 107.722 41.5989 107.733 42.7087 108.191C43.8186 108.651 44.5668 109.404 44.9823 110.454C45.3978 111.504 45.3492 112.577 44.8495 113.679C44.3498 114.78 43.5569 115.559 42.4707 115.986C41.3846 116.414 40.3011 116.398 39.1926 115.937C38.0827 115.477 37.3187 114.729 36.9032 113.68ZM39.4056 115.466C40.3576 115.86 41.2991 115.869 42.2459 115.485C43.1913 115.102 43.8803 114.433 44.3235 113.459C44.7653 112.486 44.8048 111.549 44.451 110.628C44.0973 109.707 43.4477 109.055 42.4957 108.661C41.5437 108.267 40.6022 108.259 39.6567 108.642C38.7113 109.026 38.0209 109.693 37.5804 110.668C37.1386 111.641 37.0991 112.578 37.4529 113.5C37.804 114.421 38.4536 115.072 39.4056 115.466Z" fill="#212529"/>
<path d="M47.415 118.587L48.8575 110.537L49.423 110.63L51.9622 115.271L55.9728 111.701L56.5145 111.789L55.072 119.839L54.5171 119.748L55.8137 112.515L52.0384 115.874L51.6768 115.815L49.2626 111.444L47.966 118.678L47.415 118.587Z" fill="#212529"/>
<path d="M59.7316 120.004L59.3647 111.845L62.9164 111.699C64.5759 111.631 65.5924 112.465 65.6515 113.783C65.7107 115.1 64.7744 116.025 63.115 116.093L60.1248 116.216L60.2944 119.981L59.7316 120.004ZM60.1011 115.715L63.0427 115.595C64.3984 115.539 65.1387 114.89 65.09 113.806C65.0414 112.734 64.2445 112.147 62.8901 112.204L59.9486 112.325L60.1011 115.715Z" fill="#212529"/>
<path d="M68.0342 119.546L69.9001 110.717L70.4116 110.604L76.0909 117.783L75.5202 117.908L73.8515 115.809L69.1624 116.835L68.6167 119.418L68.0342 119.546ZM69.244 116.339L73.5412 115.399L70.3143 111.344L69.244 116.339Z" fill="#212529"/>
<path d="M79.6497 116.531L75.998 109.15L76.4504 108.946L84.9515 113.106L81.7168 106.568L82.2243 106.34L85.876 113.72L85.4341 113.92L76.9172 109.753L80.1572 116.301L79.6497 116.531Z" fill="#212529"/>
<path d="M91.6811 110.012L89.3037 106.992L83.8809 105.4L84.4266 105.008L89.2143 106.413L89.1407 101.624L89.6574 101.252L89.7442 106.659L92.1296 109.688L91.6811 110.012Z" fill="#212529"/>
<path d="M73.0542 29.5889L76.0786 21.9512L79.4028 23.1517C80.9571 23.713 81.5475 24.8608 81.0583 26.094C80.5705 27.3272 79.3278 27.8258 77.7736 27.2644L74.974 26.2535L73.5789 29.7772L73.0542 29.5889ZM75.1621 25.7851L77.9156 26.7797C79.1832 27.238 80.1326 26.9203 80.5337 25.9044C80.9308 24.901 80.4403 24.0622 79.1727 23.605L76.4192 22.6105L75.1621 25.7851Z" fill="#212529"/>
<path d="M79.3896 31.9906L83.5962 24.8828L88.572 27.5689L88.3142 28.006L83.8263 25.5848L82.2694 28.2144L85.9802 30.2174L85.7225 30.6532L82.0117 28.6502L80.1366 31.8185L84.7928 34.3326L84.5351 34.7696L79.3896 31.9906Z" fill="#212529"/>
<path d="M86.7471 36.4318L91.6742 30.3814L89.2547 28.5831L89.5769 28.1875L94.8617 32.1118L94.5395 32.5087L92.12 30.7104L87.1928 36.7608L86.7471 36.4318Z" fill="#212529"/>
<path d="M89.917 38.8381L96.1617 33.2637L98.7469 35.9046C99.8567 37.0373 99.8712 38.3006 98.881 39.1847C97.9895 39.9809 96.8297 40.0098 95.7883 39.1671L94.7442 43.7709L94.2931 43.31L95.3188 38.7389L93.2346 36.6091L90.2996 39.2287L89.917 38.8381ZM93.6199 36.2675L95.7883 38.4815C96.689 39.402 97.6686 39.5326 98.4892 38.7992C99.2834 38.0909 99.2308 37.1315 98.3301 36.2123L96.1617 33.9971L93.6199 36.2675Z" fill="#212529"/>
<path d="M96.3223 44.1108C96.5984 43.0295 97.2677 42.1656 98.3381 41.5138C99.398 40.8671 100.5 40.6523 101.644 40.8683C102.794 41.0944 103.699 41.6909 104.35 42.6641C105.001 43.6373 105.179 44.6633 104.909 45.7546C104.638 46.8459 103.97 47.7099 102.91 48.3566C101.849 49.0033 100.737 49.2243 99.5873 48.9983C98.4367 48.7723 97.5478 48.1795 96.8982 47.2063C96.2473 46.2318 96.0514 45.2021 96.3223 44.1108ZM97.3506 46.9288C97.9094 47.7639 98.684 48.2737 99.6938 48.4621C100.702 48.6492 101.665 48.4646 102.602 47.8932C103.539 47.3218 104.121 46.5671 104.368 45.6139C104.616 44.6608 104.458 43.7742 103.899 42.9391C103.342 42.104 102.566 41.5942 101.557 41.4058C100.549 41.2174 99.586 41.4033 98.6484 41.9747C97.7122 42.5461 97.1297 43.3008 96.8838 44.2539C96.6352 45.2071 96.7917 46.0937 97.3506 46.9288Z" fill="#212529"/>
<path d="M99.5703 51.3669L107.453 48.2148L107.67 48.7096L100.273 51.6683L102.192 56.0459L101.708 56.2393L99.5703 51.3669Z" fill="#212529"/>
<path d="M101.801 56.6371L110.076 54.5977L111.504 59.8808L110.995 60.0063L109.708 55.2419L106.647 55.9966L107.712 59.936L107.203 60.0616L106.138 56.1222L102.45 57.0314L103.786 61.9754L103.277 62.101L101.801 56.6371Z" fill="#212529"/>
<path d="M104.284 63.3151C104.885 62.6671 105.793 62.2841 106.997 62.1812L111.873 61.7617L111.923 62.2967L107.047 62.7161C105.005 62.8907 103.898 64.0284 104.057 65.7124C104.215 67.3839 105.515 68.3144 107.559 68.1386L112.435 67.7192L112.485 68.2529L107.609 68.6723C106.405 68.7753 105.452 68.553 104.728 68.0193C104.015 67.4831 103.613 66.7221 103.522 65.7589C103.43 64.7819 103.684 63.9644 104.284 63.3151Z" fill="#212529"/>
<path d="M104.01 70.0078L112.512 70.8178L112.456 71.3628L107.79 74.1042L111.797 77.6719L111.742 78.193L103.239 77.3831L103.294 76.8494L110.936 77.5765L107.164 74.2185L107.201 73.8706L111.594 71.2661L103.953 70.539L104.01 70.0078Z" fill="#212529"/>
<path fill-rule="evenodd" clip-rule="evenodd" d="M106.355 96.8672C107.499 97.2628 108.635 97.6709 109.764 98.0941C109.946 98.1619 110.125 98.236 110.306 98.3051C111.281 98.6756 112.252 99.0498 113.215 99.4403C113.655 99.6187 114.088 99.8095 114.526 99.9929C115.227 100.285 115.93 100.574 116.626 100.878C117.759 101.374 118.884 101.884 120 102.409C119.986 102.399 119.97 102.389 119.955 102.379C118.913 101.707 117.88 101.023 116.857 100.324C116.314 99.9527 115.78 99.5684 115.242 99.1892C114.764 98.8526 114.283 98.5211 113.809 98.1783C113.082 97.6508 112.365 97.1108 111.65 96.5709C111.384 96.3712 111.115 96.1753 110.852 95.9731C110.02 95.3352 109.198 94.6834 108.382 94.0266C108.248 93.9186 108.112 93.8131 107.977 93.7051C107.086 92.9831 106.206 92.2484 105.336 91.5037C105.283 91.4585 105.229 91.4158 105.177 91.3706C104.26 90.5845 103.354 89.7871 102.46 88.9784C102.455 88.9746 102.451 88.9696 102.451 88.9696C100.633 87.3245 98.8674 85.6367 97.1514 83.9037C82.7027 69.319 71.7715 51.5295 65.6477 31.7621C64.4787 27.9897 63.4859 24.1457 62.6746 20.2402C62.668 20.2088 62.6602 20.1775 62.6549 20.1461C62.4011 18.9217 62.1697 17.6897 61.9527 16.454C61.9356 16.3573 61.9159 16.2619 61.8988 16.1652C61.6976 15.0049 61.5201 13.8382 61.3518 12.6678C61.3268 12.4958 61.2965 12.3238 61.2729 12.1517C61.1203 11.0604 60.9915 9.96161 60.8679 8.86154C60.8403 8.61164 60.8048 8.36551 60.7785 8.11435C60.6654 7.05195 60.576 5.98327 60.4918 4.91334C60.4694 4.62953 60.4379 4.34824 60.4168 4.06317C60.3182 2.71571 60.242 1.36197 60.1867 0.00195312C60.1328 1.36323 60.0552 2.71822 59.9566 4.06945C59.9369 4.34824 59.9053 4.62451 59.883 4.9033C59.7975 5.98076 59.7068 7.05572 59.5937 8.12565C59.5687 8.36551 59.5345 8.60159 59.5069 8.84019C59.382 9.95157 59.2518 11.0617 59.0979 12.1643C59.0756 12.3275 59.0467 12.4895 59.023 12.654C58.8534 13.8332 58.6745 15.0086 58.472 16.1765C58.4563 16.2669 58.4378 16.3573 58.4221 16.4478C58.2038 17.6897 57.971 18.9267 57.7172 20.1561C57.712 20.1812 57.7054 20.2063 57.7001 20.2327C56.8888 24.1445 55.8934 27.9935 54.7231 31.7709C48.6046 51.5144 37.6905 69.2876 23.2642 83.861C20.6474 86.5057 17.9149 89.0449 15.076 91.4724C15.0615 91.4849 15.0457 91.4975 15.0299 91.51C14.1042 92.3012 13.1666 93.0798 12.2186 93.847C12.1265 93.9224 12.0305 93.994 11.9385 94.0681C11.064 94.7713 10.183 95.4658 9.29015 96.1477C9.06003 96.3235 8.82465 96.4917 8.59322 96.6663C7.82661 97.244 7.05868 97.8204 6.27891 98.3817C5.83051 98.7044 5.3729 99.0159 4.92056 99.3336C4.3433 99.7392 3.76999 100.15 3.18483 100.547C2.13419 101.26 1.073 101.959 0 102.645C1.12954 102.109 2.26829 101.588 3.41493 101.08C4.17235 100.745 4.9403 100.427 5.70428 100.106C6.09482 99.9414 6.48011 99.7693 6.87196 99.6086C7.88185 99.1942 8.90224 98.7974 9.92527 98.4056C10.0778 98.3478 10.2264 98.285 10.3789 98.2272C16.2607 96.002 22.345 94.1597 28.5976 92.7294C38.7517 90.4062 49.3489 89.173 60.2485 89.173C71.1271 89.173 81.7033 90.4037 91.8403 92.7181C96.7608 93.842 101.579 95.2196 106.275 96.8396C106.301 96.8471 106.327 96.8572 106.355 96.8672ZM27.2353 90.8997C26.0992 89.3074 25.0893 87.6309 24.2122 85.8791C39.5525 70.5358 50.8177 51.8522 57.0019 31.5336C58.0631 31.4494 59.1334 31.4004 60.2156 31.4004C61.2794 31.4004 62.3314 31.4482 63.3728 31.5298C69.565 51.861 80.8446 70.5672 96.2007 85.9205C95.3302 87.6535 94.3295 89.3124 93.2065 90.8884C82.5186 88.3768 71.5045 87.106 60.2472 87.106C48.9689 87.1047 37.939 88.3806 27.2353 90.8997Z" fill="#212529"/>
</svg>
