<svg width="120" height="120" viewBox="0 0 120 120" fill="none" xmlns="http://www.w3.org/2000/svg">
<g clip-path="url(#clip0_188_4617)">
<path d="M120.533 61.6442C120.045 65.0419 119.711 68.2503 119.043 71.3874C114.174 94.2427 100.489 109.29 78.4905 116.89C77.5954 117.199 76.5986 117.214 75.2401 117.32C75.5413 116.766 76.1809 116.047 76.9723 115.782C100.631 107.859 115.189 91.7083 118.028 66.9212C120.777 42.922 110.853 24.0701 90.287 11.2589C85.9219 8.53974 80.8009 7.02866 76.012 4.99909C74.963 4.5545 74.9312 4.62944 75.2042 3.61914C80.9923 4.15834 86.0447 6.75779 90.8677 9.66052C106.522 19.0823 116.038 32.8669 119.325 50.8617C119.813 53.533 119.872 56.2825 120.331 59.0978C120.533 59.9405 120.533 60.6813 120.533 61.6442Z" fill="#212529"/>
<path d="M1.1475 68.2602C1.03979 68.1003 0.932078 67.9404 0.678785 67.7571C0.533204 63.1002 0.533204 58.4668 0.533203 53.5835C0.698713 53.2513 0.864224 53.169 1.25537 53.0274C1.83182 53.0261 2.18263 53.0841 2.52559 53.4055C2.53403 58.532 2.55031 63.3952 2.38921 68.2594C1.85705 68.2602 1.50228 68.2602 1.1475 68.2602Z" fill="#212529"/>
<path d="M73.7393 2.75328C74.0254 4.36456 73.173 4.22145 71.9221 4.08871C67.2349 3.59133 62.5288 3.2725 57.4738 2.81057C56.9407 2.79414 56.7637 2.85388 56.5867 2.91361C47.9745 3.70749 39.7571 5.84448 32.1453 10.0656C32.0016 10.1453 31.7037 9.94689 31.3276 9.74291C31.8044 9.02905 32.3402 8.27191 33.0718 7.89849C45.9326 1.33447 59.4703 -0.0239927 73.7393 2.75328Z" fill="#212529"/>
<path d="M31.0301 9.52539C30.4919 10.3729 29.8576 11.346 28.967 11.9246C19.1091 18.3291 11.6911 26.8076 6.7355 37.8071C6.46719 38.1472 6.41794 38.2679 6.40084 38.4017C6.40084 38.4017 6.39988 38.3997 6.26057 38.4508C5.84549 38.2554 5.56972 38.0091 5.29395 37.7627C10.1718 25.5344 18.6208 16.4152 29.7828 9.6676C30.0643 9.49745 30.4682 9.52989 31.0301 9.52539Z" fill="#212529"/>
<path d="M5.16576 37.8789C5.56968 38.008 5.84545 38.2543 6.2612 38.4499C5.15391 43.1979 3.90664 47.9967 2.59642 52.968C2.18264 53.0826 1.83182 53.0245 1.31201 52.8918C2.32924 48.7114 3.53428 44.611 4.68547 40.4955C4.91012 39.6924 4.92563 38.8308 5.16576 37.8789Z" fill="#212529"/>
<path d="M69.3143 117.539C70.7235 117.5 72.1327 117.461 73.4982 117.678C73.326 118.059 73.1973 118.186 73.0687 118.312C72.5955 118.401 72.1223 118.49 71.3039 118.542C70.7737 118.614 70.5888 118.722 70.404 118.83C69.7446 118.918 69.0852 119.005 68.0818 119.046C67.5663 119.081 67.3949 119.163 67.2234 119.244C35.5755 123.152 6.4225 101.045 1.51992 70.1493C1.43632 69.4448 1.3088 69.1279 1.18128 68.8109C1.14887 68.7208 1.11646 68.6307 1.11572 68.4006C1.50216 68.2606 1.85694 68.2606 2.3891 68.2598C6.59704 94.6084 26.6013 114.323 53.1152 117.684C58.033 118.307 63.1011 117.745 68.4688 117.767C68.9966 117.716 69.1555 117.627 69.3143 117.539Z" fill="#212529"/>
<path d="M1.16113 68.9844C1.30891 69.1271 1.43644 69.444 1.5426 69.9402C1.39446 69.7992 1.26767 69.4789 1.16113 68.9844Z" fill="#212529"/>
<path d="M67.3691 119.274C67.3951 119.163 67.5665 119.081 67.8839 119.02C67.8581 119.127 67.6864 119.215 67.3691 119.274Z" fill="#212529"/>
<path d="M73.2087 118.338C73.1975 118.185 73.3261 118.059 73.5888 117.9C73.7496 117.966 73.7764 118.064 73.7164 118.286C73.5359 118.396 73.4422 118.38 73.2087 118.338Z" fill="#212529"/>
<path d="M70.5688 118.849C70.5889 118.722 70.7738 118.613 71.1237 118.523C71.1037 118.651 70.9187 118.76 70.5688 118.849Z" fill="#212529"/>
<path d="M29.2656 46.2639C29.2656 46.2639 29.2583 46.0556 29.5522 45.9439C32.8361 45.831 35.8301 45.7441 38.8139 45.8794C39.743 45.9215 40.6449 46.5649 41.5593 46.933C39.462 53.0954 37.3647 59.2579 35.2378 65.5072C32.6268 65.0669 32.8014 63.4812 33.3637 61.7638C34.8683 57.1679 36.4021 52.5814 37.9932 47.7834C36.6538 47.7834 35.6199 47.7834 34.4504 47.7834C32.9824 52.2864 31.3555 56.8332 30.0371 61.4677C29.0589 64.9063 30.5417 67.0292 34.3866 68.0814C33.0683 72.5246 31.7497 76.9686 30.3358 81.7336C43.6349 81.7336 56.7341 81.7336 70.1833 81.9978C71.404 82.1446 72.2749 82.0273 73.1458 81.91C76.9021 82.3222 82.2091 79.2022 83.6586 75.4038C85.16 71.4696 86.3417 67.4134 87.8339 62.8937C89.1042 63.5883 90.1882 64.284 91.3536 64.7931C92.9146 65.4751 94.5213 66.4682 96.1387 66.5298C101.791 66.7451 107.457 66.6173 113.436 66.7872C113.914 67.0448 114.075 67.135 114.236 67.2252C114.223 67.6255 114.209 68.0259 114.053 68.6604C113.878 68.9457 113.804 69.0213 113.818 69.0436C113.878 69.1425 113.964 69.2261 114.04 69.3152C110.427 94.1168 87.1233 117.524 54.8715 114.601C25.1538 111.907 7.72993 87.2151 6.24805 67.3028C9.26576 67.3028 12.2711 67.3006 15.2765 67.3034C19.6983 67.3074 22.3708 65.6571 23.9801 61.4578C25.5602 57.3346 26.8497 53.1 28.4425 48.6389C28.6542 48.1924 28.6902 48.0212 28.7262 47.85C28.7262 47.85 28.7161 47.6469 28.8864 47.4389C29.1263 46.9087 29.196 46.5863 29.2656 46.2639Z" fill="#212529"/>
<path d="M109.884 64.4394C108.17 64.083 106.287 64.0437 104.803 63.2542C103.876 62.7613 103.552 61.1367 102.957 60.0199C103.869 59.6042 104.763 59.1409 105.701 58.7951C106.095 58.6497 106.643 58.8834 107.009 58.7096C107.474 58.4892 107.825 58.0293 108.225 57.6727C107.864 57.3754 107.484 56.8026 107.145 56.8256C105.035 56.9682 102.845 56.9511 100.858 57.5623C99.0365 58.1227 98.0301 59.5913 99.2973 61.6784C99.7745 62.4644 100.061 63.3663 100.803 65.0544C98.337 64.5341 96.4572 64.3833 94.7862 63.7125C93.2615 63.1003 93.2593 62.0428 94.8144 61.0848C96.0051 60.3514 97.0426 59.3692 98.1483 58.4977C98.0616 58.2124 97.975 57.9271 97.8883 57.6418C96.1158 57.4537 94.3433 57.2656 92.673 57.0883C91.3529 58.5249 92.6533 61.725 88.8299 61.1428C91.3311 51.1665 95.1423 41.6259 98.2607 31.5921C91.447 31.5921 84.7999 31.1635 78.2399 31.7346C73.4293 32.1534 70.3696 35.6416 69.3138 40.4117C68.8037 42.7161 67.6682 43.2184 65.458 43.1972C53.821 43.0855 42.1824 43.1449 30.2682 43.1449C30.7348 41.5442 31.1456 40.1349 31.7995 37.8919C30.1493 38.5081 28.6787 38.6339 27.969 39.4344C27.1659 40.3402 27.0454 41.8514 26.6943 42.9013C23.0086 43.1467 19.5342 43.3699 16.0653 43.6592C15.9852 43.6659 15.9673 44.4185 15.9054 44.9519C19.1802 44.9519 22.2644 44.9519 25.6693 44.9519C25.4769 45.7604 25.3815 46.4144 25.1663 47.0262C23.409 52.0231 21.6224 57.0096 19.8596 62.0045C19.0883 64.19 17.4223 65.3535 15.2563 65.476C12.092 65.6551 8.91006 65.5221 5.52972 65.5221C4.87608 57.7957 5.79147 50.3846 8.24268 43.1755C11.6108 33.2697 17.3138 24.8871 25.5678 18.473C30.6683 14.5095 35.9424 10.6833 42.6204 9.47961C45.9394 8.8814 49.1095 7.46121 52.4276 6.85301C54.6978 6.43691 57.139 7.0304 59.4482 6.73632C65.5457 5.9598 71.4767 6.77743 77.0859 8.95892C81.8875 10.8263 86.7009 13.0034 90.9609 15.8608C104.667 25.0538 112.153 38.1796 113.996 54.7835C113.947 55.185 114.006 55.3195 114.065 55.454C114.1 58.1442 114.135 60.8343 114.017 63.8127C113.737 64.1875 113.654 64.3049 113.615 64.4532C112.689 64.4825 111.763 64.5118 110.567 64.4169C110.159 64.3417 110.022 64.3905 109.884 64.4394Z" fill="#212529"/>
<path d="M84.2047 64.5254C83.3818 67.192 82.6715 69.8999 81.7124 72.5166C79.7636 77.8338 77.3958 79.8972 71.0396 79.3972C69.154 79.2893 67.6393 79.3948 66.1245 79.5003C55.9792 79.5367 45.8339 79.5731 35.4484 79.3758C35.0685 78.7258 34.9288 78.3097 34.7891 77.8935C35.6515 74.8678 36.4924 71.8358 37.3868 68.8196C37.7541 67.581 38.0633 66.9716 39.9491 66.9383C42.122 66.9 44.2635 65.0797 46.806 64.0014C47.6199 63.9795 48.0464 63.9895 48.4729 63.9995C48.5686 66.101 49.9233 66.6193 51.7247 66.6099C59.8809 66.5676 68.0371 66.5336 76.4855 66.6078C76.8212 66.7576 76.8647 66.7962 76.9081 66.8348C76.8407 66.7415 76.7733 66.6482 76.7058 66.5549C77.865 66.0765 79.0243 65.598 80.4635 65.0587C80.8619 64.935 80.959 64.8485 81.035 64.7381C81.2786 64.5164 81.5222 64.2946 82.1107 64.0324C83.0386 64.1698 83.6217 64.3476 84.2047 64.5254Z" fill="#212529"/>
<path d="M67.4269 45.7015C65.9761 50.2809 64.541 54.8653 63.0659 59.4369C62.5447 61.0522 61.9255 62.6358 61.3511 64.2339C61.0064 64.1634 60.6617 64.0928 60.317 64.0223C60.4125 63.0159 60.4183 61.9909 60.6214 61.0066C61.1184 58.5977 60.5133 57.7251 58.0232 57.5849C56.6942 57.51 55.3494 57.4395 54.0317 57.5697C53.4572 57.6264 52.9329 58.1919 52.5609 59.0903C54.006 59.3076 55.4511 59.5248 57.2479 59.795C56.7997 61.6345 56.3933 63.3028 55.9102 65.286C54.4888 65.1649 53.1248 65.0487 51.7607 64.9324C51.7274 64.605 51.6941 64.2775 51.6609 63.95C52.8737 63.4967 54.0865 63.0434 55.2954 62.5916C54.6895 60.932 52.5876 60.8575 48.7078 62.4139C48.5151 62.3915 48.547 62.4174 48.547 62.4174C48.6015 61.0789 49.0917 58.7848 48.6316 58.5751C47.038 57.8485 45.1171 57.8182 43.3105 57.6137C43.1303 57.5933 42.7826 58.1695 42.7034 58.5128C42.6636 58.685 43.0085 59.051 43.2559 59.1684C45.8126 60.3817 46.0116 61.4173 43.745 63.1975C42.6038 64.0938 41.1514 64.5939 39.8396 65.2731C39.6252 65.1338 39.4107 64.9945 39.1963 64.8551C41.301 58.2492 43.4057 51.6434 45.5908 44.7852C52.5562 44.7852 59.6356 44.7852 66.9894 45.0427C67.3182 45.4339 67.3725 45.5677 67.4269 45.7015Z" fill="#212529"/>
<path d="M72.0136 44.7466C73.6254 44.705 75.2372 44.6634 77.2297 44.855C79.861 44.9231 82.1116 44.758 84.3622 44.5929C84.7103 44.5327 85.0585 44.4724 85.6447 44.5839C86.0343 44.6611 86.1859 44.5666 86.3375 44.4721C87.8132 44.3378 89.2889 44.2035 91.1827 44.0312C89.5731 48.8622 88.084 53.3317 86.349 58.0323C85.4799 58.4025 84.8567 58.5416 84.2335 58.6807C84.2335 58.6807 84.2688 58.6772 84.2326 58.5028C83.8037 58.1069 83.4109 57.8853 83.0181 57.6638C81.4334 57.5131 79.8458 57.2364 78.2651 57.2713C77.595 57.2861 76.9394 57.9553 76.2771 58.327C76.3777 58.5409 76.4783 58.7548 76.5789 58.9688C78.068 59.1608 79.557 59.3529 81.046 59.5449C81.0511 59.8201 81.0563 60.0953 81.0615 60.3705C79.7669 60.5529 78.4723 60.7353 76.4137 61.0253C77.1753 62.0013 77.7435 62.7295 78.6311 63.8671C76.7148 64.3244 74.4828 64.8569 71.6594 65.5306C72.74 62.6206 76.7769 61.0529 74.2235 58.4849C72.8678 57.1213 69.8384 57.4219 67.2861 56.9162C68.4013 53.5129 69.7031 49.5399 71.2869 45.3811C71.7172 45.0458 71.8654 44.8962 72.0136 44.7466Z" fill="#212529"/>
<path d="M94.2978 34.1216C93.9157 35.3828 93.6391 36.6884 93.1305 37.8963C91.906 40.8053 89.8741 42.7181 86.5086 42.726C81.7323 42.7372 76.956 42.7289 71.9473 42.7289C73.2947 39.4296 73.7116 35.3569 78.3093 33.8331C78.5493 33.8765 78.7803 33.8795 78.7803 33.8795L78.9204 33.6695C83.5607 33.5979 88.201 33.5263 93.1571 33.6466C93.7478 33.9329 94.0228 34.0273 94.2978 34.1216Z" fill="#212529"/>
<path d="M67.3281 58.7539C68.4904 59.1113 69.4914 59.5991 70.5891 60.1339C70.3711 62.4813 68.6283 63.6309 66.6742 64.4592C66.3711 64.5876 65.1135 63.5149 65.1856 63.3099C65.7197 61.7903 66.4786 60.3497 67.3281 58.7539Z" fill="#212529"/>
<path d="M41.6502 46.744C40.6453 46.5656 39.7434 45.9222 38.8143 45.8801C35.8305 45.7449 32.8365 45.8318 29.5981 45.8509C29.7664 45.5475 30.1778 44.9552 30.6005 44.9471C34.3823 44.8744 38.1661 44.9047 42.1869 44.9047C41.9984 45.6015 41.8696 46.0779 41.6502 46.744Z" fill="#212529"/>
<path d="M84.2517 58.8933C84.8565 58.5414 85.4797 58.4023 86.244 58.1992C85.7126 60.1462 85.0401 62.1571 84.2861 64.3468C83.6214 64.3478 83.0384 64.1701 82.269 63.9868C82.8119 62.3562 83.541 60.7312 84.2517 58.8933Z" fill="#212529"/>
<path d="M84.1096 44.5527C82.1117 44.7594 79.8611 44.9245 77.4634 44.9211C79.4964 44.6722 81.6766 44.5917 84.1096 44.5527Z" fill="#212529"/>
<path d="M66.3584 79.5655C67.6388 79.3957 69.1536 79.2903 70.808 79.3479C69.496 79.5506 68.0444 79.5901 66.3584 79.5655Z" fill="#212529"/>
<path d="M48.5213 63.7816C48.0462 63.9902 47.6197 63.9802 46.9805 63.9532C47.2437 63.4254 47.7196 62.9146 48.3712 62.41C48.5468 62.4163 48.5149 62.3904 48.4964 62.3809C48.5086 62.7686 48.5393 63.1658 48.5213 63.7816Z" fill="#212529"/>
<path d="M72.9087 81.8923C72.2749 82.0286 71.404 82.1459 70.4155 82.0789C71.0891 81.8875 71.8803 81.8804 72.9087 81.8923Z" fill="#212529"/>
<path d="M34.7148 78.1055C34.9285 78.31 35.0682 78.7262 35.2046 79.3153C35.0145 79.0978 34.8277 78.7075 34.7148 78.1055Z" fill="#212529"/>
<path d="M83.0981 57.8066C83.4106 57.8851 83.8033 58.1066 84.2206 58.5159C83.8895 58.4523 83.534 58.201 83.0981 57.8066Z" fill="#212529"/>
<path d="M29.1421 46.3809C29.1962 46.5873 29.1265 46.9096 28.9324 47.3491C28.878 47.1431 28.9481 46.82 29.1421 46.3809Z" fill="#212529"/>
<path d="M94.3093 33.9386C94.0229 34.0272 93.748 33.9328 93.4004 33.7078C93.6587 33.6366 93.9897 33.6961 94.3093 33.9386Z" fill="#212529"/>
<path d="M69.1751 117.523C69.1556 117.626 68.9967 117.715 68.6978 117.79C68.717 117.688 68.8764 117.599 69.1751 117.523Z" fill="#212529"/>
<path d="M114.083 69.1926C113.964 69.227 113.879 69.1434 113.818 69.0445C113.804 69.0222 113.878 68.9466 113.993 68.8541C114.076 68.8126 114.125 69.0691 114.083 69.1926Z" fill="#212529"/>
<path d="M114.264 67.0464C114.076 67.1361 113.915 67.0459 113.683 66.8357C113.838 66.766 114.065 66.8163 114.264 67.0464Z" fill="#212529"/>
<path d="M80.9386 64.7676C80.9587 64.8504 80.8616 64.9369 80.6523 65.0371C80.6295 64.9558 80.7232 64.8626 80.9386 64.7676Z" fill="#212529"/>
<path d="M113.753 64.4669C113.654 64.3037 113.737 64.1863 113.965 64.0566C114.007 64.1697 113.949 64.3258 113.753 64.4669Z" fill="#212529"/>
<path d="M110.008 64.4737C110.022 64.3905 110.159 64.3417 110.339 64.3727C110.382 64.4526 110.131 64.508 110.008 64.4737Z" fill="#212529"/>
<path d="M56.73 2.9598C56.7637 2.85377 56.9407 2.79403 57.2609 2.75C57.2272 2.84583 57.0502 2.92596 56.73 2.9598Z" fill="#212529"/>
<path d="M114.091 55.3276C114.006 55.3194 113.947 55.1849 113.966 55.0022C114.044 54.9541 114.118 55.2013 114.091 55.3276Z" fill="#212529"/>
<path d="M28.621 47.9355C28.6904 48.022 28.6544 48.1931 28.5123 48.4477C28.4427 48.3608 28.4792 48.1905 28.621 47.9355Z" fill="#212529"/>
<path d="M86.1892 44.4414C86.1861 44.5661 86.0345 44.6606 85.8184 44.6321C85.8495 44.4765 85.9451 44.4439 86.1892 44.4414Z" fill="#212529"/>
<path d="M71.8371 44.7363C71.8656 44.8971 71.7173 45.0467 71.4124 45.238C71.3906 45.0948 71.5255 44.91 71.8371 44.7363Z" fill="#212529"/>
<path d="M67.5901 45.6132C67.3726 45.5664 67.3183 45.4326 67.2368 45.084C67.3909 45.0882 67.572 45.3073 67.5901 45.6132Z" fill="#212529"/>
<path d="M6.47292 38.3349C6.41795 38.2685 6.4672 38.1478 6.62049 37.9727C6.67726 38.0397 6.62813 38.1605 6.47292 38.3349Z" fill="#212529"/>
<path d="M78.7928 33.6487C78.9206 33.6685 78.7805 33.8785 78.7805 33.8785C78.7805 33.8785 78.5495 33.8754 78.492 33.8106C78.4344 33.7458 78.6651 33.6289 78.7928 33.6487Z" fill="#212529"/>
<path d="M76.7171 66.6074C76.7731 66.6479 76.8405 66.7412 76.908 66.8345C76.8645 66.7959 76.821 66.7573 76.7254 66.6427C76.6733 66.5667 76.7286 66.6603 76.7171 66.6074Z" fill="#212529"/>
</g>
<defs>
<clipPath id="clip0_188_4617">
<rect width="120" height="120" fill="white"/>
</clipPath>
</defs>
</svg>
