<svg width="120" height="32" viewBox="0 0 120 32" fill="none" xmlns="http://www.w3.org/2000/svg">
<g clip-path="url(#clip0_188_3436)">
<path fill-rule="evenodd" clip-rule="evenodd" d="M0 0.548828H31.539V32.002H0V0.548828Z" fill="#212529"/>
<path fill-rule="evenodd" clip-rule="evenodd" d="M0.912109 1.45898H30.6267V31.0934H0.912109V1.45898Z" fill="white"/>
<path fill-rule="evenodd" clip-rule="evenodd" d="M2.48852 25.1054L6.36475 29.0459L15.4466 19.8567L24.8323 29.2353L28.7652 25.3512L19.4737 16.0863L21.2599 14.3622V10.6865L22.3811 9.73931V12.619L23.8252 13.7936L28.1377 9.49281L29.5245 10.5537C30.3418 7.54124 25.6107 0.701222 21.6969 4.49064L17.1365 8.99981L18.0679 10.1179L15.7498 12.3725L13.5082 10.1744L14.686 9.11285L9.68928 4.30066C5.92776 1.21193 2.07065 5.91176 1.9375 10.4965L3.30514 9.36003L7.50365 13.8699L9.00444 12.6197V9.85303L9.93509 10.5537V14.1729L11.7588 15.9917L2.48852 25.1054Z" fill="#212529"/>
<path fill-rule="evenodd" clip-rule="evenodd" d="M39.5947 4.3191V7.04762H40.7726C42.3874 6.7446 41.9504 4.43282 40.7726 4.3191H39.5947ZM36.2511 1.60965V13.9639H39.5947V9.94705L42.4447 13.9639H46.3967L42.8824 9.01894C46.9484 7.0483 45.4285 1.66685 41.1536 1.61033L36.2511 1.60965ZM51.7164 7.78644C52.8184 7.78644 53.7109 8.61991 53.7109 9.64336C53.7109 10.6661 52.8178 11.5003 51.7164 11.5003C50.6335 11.5003 49.7404 10.6661 49.7404 9.64336C49.7404 8.61991 50.6335 7.78644 51.7164 7.78644ZM51.0131 5.05792C51.9253 5.05792 52.7802 5.36094 53.4828 5.85326V5.38H56.7507L56.7698 13.9632H53.4637L53.4828 13.4328C52.7802 13.9251 51.9253 14.2097 51.0131 14.2097C48.581 14.2097 46.5866 12.1635 46.5866 9.64336C46.5866 7.12321 48.5817 5.05792 51.0131 5.05792ZM58.4993 5.38H61.9761V13.9632H58.4993V5.38ZM60.2466 0.472484C61.2544 0.472484 62.071 1.30595 62.071 2.31034C62.071 3.31472 61.2544 4.14819 60.2466 4.14819C59.221 4.14819 58.4037 3.31404 58.4037 2.31034C58.4044 1.30663 59.221 0.472484 60.2466 0.472484ZM86.6373 5.38H90.1141V13.9632H86.6373V5.38ZM88.3662 0.472484C89.3924 0.472484 90.209 1.30595 90.209 2.31034C90.209 3.31472 89.3924 4.14819 88.3662 4.14819C87.359 4.14819 86.5424 3.31404 86.5424 2.31034C86.5424 1.30663 87.359 0.472484 88.3662 0.472484ZM62.622 5.38V8.10852H63.819V13.9632H67.1824V8.10852H70.3363V13.9632H73.813V8.07107H75.9789V5.41814H73.7175V3.5047C73.6608 2.80402 75.3138 2.51938 75.884 3.08797V0.283184C72.6919 -0.7212 70.1082 1.0792 70.1266 3.86424V5.38H67.1626V3.5047C67.1244 2.80402 68.5692 2.51938 69.4042 3.08797V0.283184C66.63 -0.531218 63.6667 0.813634 63.6858 3.84517V5.36094L62.622 5.38ZM80.9373 14.2097C83.9205 14.1907 85.0218 12.9595 85.6684 11.1591H82.6477C81.2794 12.9023 79.2843 11.6331 79.3799 10.2119H85.764C85.764 6.72554 83.9014 5.07699 80.938 5.07699C77.9747 5.07699 76.1127 7.16134 76.1127 9.70056C76.1127 12.2398 78.2778 14.2288 80.9373 14.2097ZM79.8162 8.18479C79.8544 7.14227 82.1343 7.14227 82.2859 8.18479H79.8162ZM104.611 14.2097C107.612 14.1907 108.715 12.9595 109.36 11.1591H106.32C104.953 12.9023 102.958 11.6331 103.053 10.2119H109.437C109.437 6.72554 107.594 5.07699 104.611 5.07699C101.647 5.07699 99.7859 7.16134 99.7859 9.70056C99.7859 12.2398 101.95 14.2288 104.611 14.2097ZM103.489 8.18479C103.528 7.14227 105.808 7.14227 105.959 8.18479H103.489ZM98.873 5.55092L97.8468 7.63527C96.5549 7.23692 95.3006 7.31319 95.3389 7.67272C95.3771 7.90016 95.1682 8.29782 97.1817 8.58246C100.183 9.05571 99.9368 14.6265 94.9019 14.2097C93.5151 14.1151 92.394 13.7549 91.4633 13.2053L92.5845 10.9691C94.1617 11.7461 95.681 12.201 95.795 11.424C95.9281 10.4578 94.1419 10.7989 93.059 9.98383C91.1212 8.79014 92.2226 5.09537 95.3962 5.05724C96.5167 4.98234 97.6761 5.17164 98.873 5.55092ZM110.767 5.38V13.9632H114.016V8.71456C114.111 7.40716 116.695 7.17972 116.714 8.71456V13.9632H120V8.58246C119.924 5.56999 116.751 4.11074 113.882 6.02417V5.38H110.767ZM38.1697 19.2119L36.0039 31.9448H42.1409C46.3018 31.9448 48.0116 26.7914 45.0475 25.0292C47.5746 22.6983 46.2827 19.1935 43.5659 19.1554L38.1697 19.2119ZM40.6585 26.8098L40.2215 28.9132H41.6465C43.2613 28.9888 43.0715 26.8098 42.1409 26.8098H40.6585ZM41.3802 22.2434L41.0197 23.9492L41.4567 23.9676C42.7677 24.0431 43.5276 22.2434 41.9504 22.2434H41.3802ZM46.4343 31.9638H50.1583L51.2794 29.7276H55.497L56.1239 32.002H59.5624L56.58 19.2875H53.0649L46.4343 31.9638ZM52.4955 27.0563H54.8136L54.0727 23.702L52.4955 27.0563ZM60.7409 32.002H64.1802L65.0535 24.0248L69.9744 31.9638H73.6601L75.1991 19.2112H71.7606L70.7917 27.1884L65.8701 19.1731H62.3175L60.7409 32.002ZM77.6695 19.1738L75.2565 31.9638H78.8855L79.8544 27.1884L83.1032 31.9638H87.8718L83.2172 25.2559L89.1644 19.1547H84.5473L80.4812 23.6639L81.1272 19.1547L77.6695 19.1738Z" fill="#212529"/>
</g>
<defs>
<clipPath id="clip0_188_3436">
<rect width="120" height="32" fill="white"/>
</clipPath>
</defs>
</svg>
