<svg width="120" height="120" viewBox="0 0 120 120" fill="none" xmlns="http://www.w3.org/2000/svg">
<g clip-path="url(#clip0_178_1120)">
<path d="M104.964 106.975V105.803H13.9064V106.975H104.964ZM10.6124 84.0723H1.76416V85.4637H2.88226C3.1705 85.4637 3.61687 85.9206 3.61687 86.2089V89.5731H9.04798V85.4624H10.6124V84.0723ZM36.8186 102.378V96.87H33.8839V99.2276C33.8839 100.039 33.4992 100.988 32.7988 100.988H29.6052C29.3169 100.988 28.888 100.587 28.888 100.3V94.137C28.888 93.8482 29.1084 93.624 29.3966 93.624H30.3024C30.5907 93.624 31.0308 94.086 31.0308 94.3742V95.544H33.7358V90.017H31.0943V91.1619C31.0943 91.4501 30.6143 91.9637 30.3261 91.9637H29.3972C29.109 91.9637 28.8886 91.6362 28.8886 91.3467V86.0669C28.8886 85.7787 29.3175 85.4649 29.6058 85.4649H32.7154C33.1182 85.4649 33.4731 85.8316 33.4731 86.235V88.7638H36.2011V84.0723H21.5979V85.4637H22.716C23.0043 85.4637 23.45 85.9206 23.45 86.2089V100.343C23.45 100.631 23.0211 100.988 22.7328 100.988H21.616V102.377L36.8186 102.378ZM42.2491 91.0915L48.3103 102.378H53.6598V86.1566C53.6598 85.8683 54.0888 85.4637 54.377 85.4637H55.4945V84.0723H49.4944V85.4637H50.6174C50.9057 85.4637 51.3352 85.8665 51.3352 86.1541V95.6828L44.8252 84.0723H38.0718V85.4637H39.1893C39.4782 85.4637 39.9245 85.8988 39.9245 86.1871V100.321C39.9245 100.61 39.495 100.988 39.2074 100.988H38.0899V102.377H44.09V100.988H42.9675C42.6787 100.988 42.2497 100.612 42.2497 100.325L42.2491 91.0915ZM59.6998 90.6981L56.7172 100.386C56.6063 100.684 56.432 100.99 56.1438 100.99H54.9796V102.379H60.567L60.5552 100.99H59.4396C59.1513 100.99 58.8481 100.678 58.9309 100.389L60.1144 96.0731C60.1418 95.9605 60.2153 95.8609 60.3311 95.8609H62.6015V94.1756L60.9661 94.1769C60.8496 94.1769 60.7121 94.0629 60.7475 93.9484L61.6664 90.6981H59.6998Z" fill="#212529"/>
<path d="M62.6023 95.8596H64.7059C64.8217 95.8596 64.9225 95.9592 64.9493 96.0725L66.1334 100.389C66.2174 100.677 65.913 100.989 65.6254 100.989H64.5079L64.4967 102.378H73.6588V100.989H72.4952C72.207 100.989 72.032 100.684 71.9212 100.385L67.1232 84.0723H59.0513V85.4637H59.9646C60.8062 85.4668 61.1287 86.0763 60.9619 86.6783L59.6993 90.6968H61.666L62.5562 87.6189L64.3629 93.9453C64.3996 94.0611 64.2365 94.1756 64.1207 94.1756H62.601V95.8596H62.6023ZM87.4183 98.1157L87.4196 86.2163C87.4196 85.9275 87.8628 85.4649 88.1511 85.4649H89.2636V84.0735H83.6924V85.4649H84.8098C85.0981 85.4649 85.5407 85.938 85.5407 86.2263L85.5395 98.1798C85.5027 101.46 79.606 101.804 79.5692 98.046V86.202C79.5692 85.9131 80.0119 85.4649 80.3001 85.4649H81.4126V84.0735H72.2948V85.4649H73.4135C73.7017 85.4649 74.1443 85.9212 74.1443 86.2107V98.1717C74.1437 104.067 87.4183 104.38 87.4183 98.1157ZM97.8435 86.1939C97.8435 85.9051 98.293 85.4637 98.5825 85.4637H99.7025V84.0723H90.5578V85.4637H91.6766C91.9648 85.4637 92.4112 85.8988 92.4112 86.1871V100.321C92.4112 100.609 91.9829 100.988 91.6946 100.988H90.7851V102.377H104.961V96.8476H102.025V99.2052C102.025 100.016 101.642 100.987 100.941 100.987H98.5595C98.27 100.987 97.8423 100.565 97.8423 100.276L97.8435 86.1939Z" fill="#212529"/>
<path d="M110.653 102.378H115.217V100.989H114.1C113.811 100.989 113.369 100.582 113.369 100.294V85.7745C113.369 85.6014 113.505 85.4663 113.679 85.4663C115.009 85.5173 115.582 85.9494 115.582 87.7672V89.4631H118.236V84.0718H103.071V89.4631H105.725V87.7672C105.725 85.9494 106.298 85.5173 107.627 85.4663C107.801 85.4663 107.938 85.6014 107.938 85.7745V100.292C107.938 100.582 107.496 100.988 107.207 100.988H106.09V102.377L110.653 102.378ZM9.61847 93.5015C9.84196 93.5015 10.1489 93.7263 10.2759 93.961L10.2939 93.9778L13.9925 102.377H20.3325V100.988H19.8874C19.5064 100.988 19.3147 100.508 19.0837 100.11L15.2376 93.3316C17.5852 93.3316 18.7625 91.4826 18.7905 89.0204C18.7625 86.534 17.6537 84.0705 14.7576 84.0705H10.6127V85.4613H11.1107C13.6613 85.4613 13.6987 92.0964 11.1107 92.0964H9.04821V89.5714H3.6171V100.348C3.6171 100.636 3.18878 100.986 2.90054 100.986H1.78369V102.375H10.891V100.986H9.76601C9.47777 100.986 9.04884 100.61 9.04884 100.322L9.05444 93.5009H9.67823H9.61847V93.5015ZM60.3736 60.5065L54.7962 70.169C54.6144 70.4803 54.1475 70.2151 54.267 69.8926L58.91 59.2327L49.6621 43.2158L36.9894 43.2189C37.0056 43.3857 37.1189 43.6061 37.1438 43.6671L53.4098 71.8424C53.5088 71.9906 53.7005 72.1948 53.9508 72.1973H66.0089C66.2536 72.1948 66.4478 72.0342 66.5126 71.9296L82.7972 43.7039C82.8495 43.6211 82.9603 43.3714 83.0973 43.0371H70.4676L60.0076 61.1377L60.3736 60.5065Z" fill="#212529"/>
<path d="M68.6493 43.1076H82.9666C83.0722 43.1082 83.1738 43.0679 83.2504 42.9953C83.327 42.9227 83.3725 42.8233 83.3775 42.7178C83.3949 42.358 83.3128 41.959 83.136 41.6439L66.837 13.4462C66.6534 13.1412 66.3309 13.0111 65.9891 13.0266H54.0293C53.6944 13.0179 53.3308 13.1599 53.1341 13.4431L53.1148 13.473L36.9005 41.6452C36.705 41.9944 36.5861 42.4601 36.56 42.8579C36.5528 42.9666 36.5891 43.0738 36.6609 43.1557C36.7327 43.2377 36.8341 43.2878 36.9428 43.295L36.9696 43.2956H51.3922L59.6534 57.532C59.6896 57.5942 59.7416 57.6459 59.804 57.6817C59.8665 57.7175 59.9373 57.7363 60.0093 57.7362C60.0813 57.7361 60.152 57.717 60.2143 57.681C60.2766 57.6449 60.3284 57.5931 60.3644 57.5308L68.6212 43.1623C68.6323 43.145 68.6417 43.1267 68.6493 43.1076ZM67.8848 42.795L60.007 56.5036L52.0826 42.8467L60.0083 29.1201L67.8848 42.795ZM51.3492 42.4732H37.4533C37.4957 42.3182 37.5448 42.1905 37.6183 42.0467L53.8114 13.91L53.9017 13.8596C53.9359 13.8447 53.982 13.8478 54.0162 13.8478C54.0748 13.849 66.0345 13.8478 66.0601 13.8453C66.0739 13.8431 66.0881 13.8447 66.1011 13.8498C66.1141 13.855 66.1255 13.8635 66.1342 13.8745L82.4175 42.0474C82.4586 42.1271 82.4879 42.198 82.5109 42.2846H68.5391L60.3644 28.0923C60.3283 28.0299 60.2764 27.978 60.2139 27.9419C60.1514 27.9058 60.0806 27.8868 60.0084 27.8867C59.9363 27.8867 59.8654 27.9056 59.8029 27.9415C59.7404 27.9775 59.6884 28.0293 59.6522 28.0917L51.3492 42.4732Z" fill="#212529"/>
<path d="M49.5418 42.5257H51.7431L60.0081 28.298L68.1292 42.4118L70.3592 42.413L61.0758 26.3357L65.7729 15.6615C65.8968 15.3745 65.3969 15.1423 65.2319 15.4255L49.5418 42.5257ZM53.1071 71.9872C53.2914 72.3109 53.5902 72.5058 53.96 72.5463L53.9825 72.5487H66.0761C66.3986 72.5375 66.7354 72.3695 66.9128 72.0943L83.2279 43.8144C83.2939 43.6687 83.3313 43.175 83.3518 42.9366L82.5338 42.865L82.4902 43.3556L82.4722 43.4795L66.2249 71.6423C66.2044 71.6675 66.1789 71.688 66.1499 71.7025C66.1209 71.717 66.0892 71.7251 66.0568 71.7264H54.0316C53.9463 71.7195 53.8611 71.6492 53.8206 71.5788L37.5665 43.4234C37.5201 43.3212 37.4812 43.2157 37.45 43.1078C37.4368 42.9996 37.3812 42.901 37.2953 42.8338C37.2094 42.7666 37.1004 42.7363 36.9922 42.7495C36.8839 42.7627 36.7854 42.8184 36.7182 42.9043C36.651 42.9901 36.6207 43.0992 36.6339 43.2074C36.6451 43.2977 36.6694 43.4041 36.7017 43.4888L36.8269 43.7876L53.1071 71.9872Z" fill="#212529"/>
</g>
<defs>
<clipPath id="clip0_178_1120">
<rect width="120" height="120" fill="white"/>
</clipPath>
</defs>
</svg>
