<svg width="120" height="40" viewBox="0 0 120 40" fill="none" xmlns="http://www.w3.org/2000/svg">
<g clip-path="url(#clip0_178_1207)">
<path d="M119.925 9.52322C118.293 0.116541 90.1423 -2.819 57.0458 2.96627C43.1465 5.39715 30.596 8.98256 20.8223 13.0162C22.3237 13.0492 23.4371 13.3949 24.1137 14.0723C24.6426 14.604 24.9098 15.3337 24.9098 16.2428V17.1759H21.6645V16.352C21.6645 15.6655 21.2544 15.2401 20.5283 15.2401C19.9181 15.2401 19.5421 15.5167 19.4208 16.0616C19.3801 16.277 19.3846 16.4985 19.434 16.712C19.7812 18.1372 24.6002 19.0223 25.1244 21.6524C25.1931 21.9909 25.2863 22.7151 25.1393 23.7515C24.8387 25.8727 22.9823 26.6912 20.6191 26.6912C17.3206 26.6912 15.9806 25.1226 15.9806 22.96L15.983 21.9368H19.462L19.4638 23.2114C19.4638 23.9279 19.9826 24.3233 20.6891 24.3233C21.3584 24.3233 21.7493 24.0527 21.8844 23.4994C21.9471 23.245 21.9746 22.87 21.8605 22.5831C21.2168 20.9617 16.7169 20.2045 16.1629 17.5827C16.0392 16.9935 16.029 16.4918 16.1318 15.8576C16.1846 15.5431 16.2816 15.2378 16.4199 14.9508C5.57879 20.0412 -0.763069 25.6423 0.0748624 30.4782C1.70829 39.8861 29.8585 42.8186 62.9544 37.0334C77.5029 34.4909 90.5822 30.6847 100.536 26.4194C100.392 26.4266 100.253 26.4422 100.103 26.4422C97.8379 26.4422 95.8154 25.5901 95.6056 23.2654C95.5686 22.8424 95.562 22.6653 95.5608 22.4241L95.562 17.0799C95.562 16.8495 95.5889 16.445 95.6146 16.2362C95.883 13.9895 97.6521 13.063 100.104 13.063C102.002 13.063 104.329 13.6097 104.584 16.238C104.618 16.568 104.615 16.9203 104.614 17.0361V17.5407H101.337V16.7877C101.337 16.7715 101.332 16.49 101.296 16.3142C101.242 16.046 101.015 15.4243 100.081 15.4243C99.1588 15.4243 98.9197 16.0472 98.8599 16.3148C98.8259 16.4618 98.8097 16.673 98.8097 16.9071V22.7151C98.8068 22.9168 98.8169 23.0746 98.8372 23.1904C98.8534 23.2816 99.0189 24.0821 100.092 24.0821C101.158 24.0821 101.323 23.2816 101.338 23.1904C101.366 23.0332 101.37 22.846 101.368 22.7151V20.9155H100.079V18.9773H104.639V22.4253C104.638 22.6599 104.635 22.8334 104.595 23.2654C104.54 23.8751 104.349 24.3911 104.049 24.8322C114.606 19.7994 120.752 14.289 119.925 9.52322ZM34.1067 26.1949L32.4464 14.868H32.3866L30.6839 26.1949H27.1845L29.5381 13.4033H35.2477L37.5869 26.1949H34.1067ZM50.9383 26.1949L50.8612 15.0871H50.805L48.746 26.1949H45.4618L43.413 15.0871H43.3545L43.2797 26.1949H40.0254L40.3075 13.4033H45.5419L47.066 22.9054H47.1407L48.6689 13.4033H53.9009L54.1818 26.1949H50.9383ZM66.2631 23.7161C65.9129 26.1937 63.4953 26.627 61.7866 26.627C58.9494 26.627 57.1947 25.4094 57.1947 22.9318L57.1965 21.9212H60.6337L60.636 23.1802C60.636 23.8637 61.116 24.2819 61.8571 24.2819C62.5181 24.2819 62.9054 24.0155 63.0399 23.4682C63.102 23.2132 63.1277 22.8412 63.0178 22.5603C62.3842 20.9695 57.9196 20.19 57.377 17.6092C57.2526 17.0241 57.2437 16.5272 57.3459 15.8996C57.7236 13.5599 59.9601 13.0738 61.7603 13.0738C63.3704 13.0738 64.5424 13.4267 65.2453 14.1324C65.7694 14.6592 66.0348 15.3823 66.0348 16.2818V17.2047H62.8205V16.3904C62.8205 15.6931 62.3896 15.2899 61.6969 15.2899C61.0825 15.2899 60.7108 15.5641 60.5888 16.1036C60.5493 16.3167 60.5546 16.5359 60.6044 16.7469C60.9486 18.1654 65.7252 19.0325 66.2482 21.638C66.3157 21.9705 66.4083 22.6839 66.2631 23.7161ZM78.1674 22.5537C78.1722 22.7937 78.1489 23.2732 78.1358 23.3962C77.9397 25.5037 76.4384 26.5748 73.6849 26.5748C70.9207 26.5748 69.4182 25.5037 69.2234 23.3962C69.2013 23.1167 69.1907 22.8365 69.1917 22.5561V13.4003H72.48V22.8448C72.4765 23.056 72.4872 23.212 72.5081 23.3206C72.5488 23.5306 72.7568 24.2123 73.6849 24.2123C74.6101 24.2123 74.8181 23.53 74.8618 23.323C74.8803 23.2114 74.8916 23.0476 74.8916 22.8442V13.4003H78.1674V22.5537ZM92.3352 26.0647H87.7594L84.688 15.9326H84.6366L84.807 26.0647H81.6178V13.4033H86.3854L89.2243 23.1364H89.2907L89.1227 13.4033H92.3352V26.0647Z" fill="#212529"/>
</g>
<defs>
<clipPath id="clip0_178_1207">
<rect width="120" height="40" fill="white"/>
</clipPath>
</defs>
</svg>
