<svg width="120" height="120" viewBox="0 0 120 120" fill="none" xmlns="http://www.w3.org/2000/svg">
<g clip-path="url(#clip0_188_4575)">
<path fill-rule="evenodd" clip-rule="evenodd" d="M12.75 59.1124V67.218C12.75 68.3324 13.1839 68.6418 13.4311 68.6418C13.8333 68.6418 14.1115 67.9607 14.1115 67.218V60.4733C14.1115 58.4314 13.6166 57.627 12.9667 56.6372L9.74933 51.7483C8.6661 50.1396 8.41895 48.3448 8.41895 46.0551V37.825C8.41895 34.7926 8.60446 30.0898 11.6369 30.0898H15.2259C18.259 30.0898 18.4445 34.7926 18.4445 37.825V43.5188H14.1122V36.2786C14.1122 35.5359 13.8339 34.8555 13.4317 34.8555C13.1846 34.8555 12.7506 35.1649 12.7506 36.2786V42.5284C12.7506 45.0036 13.0295 45.2514 13.71 46.3658L16.8352 51.5018C17.825 53.1104 18.4445 54.5336 18.4445 57.5654V65.6716C18.4445 68.7034 18.259 73.4068 15.2259 73.4068H11.6369C8.60446 73.4068 8.41895 68.7034 8.41895 65.6716V59.1124H12.75ZM32.7376 37.825C32.7376 34.7926 32.9231 30.0898 35.9561 30.0898H39.5458C42.5776 30.0898 42.7631 34.7926 42.7631 37.825V65.671C42.7631 68.7028 42.5776 73.4062 39.5458 73.4062H35.9561C32.9231 73.4062 32.7376 68.7028 32.7376 65.671V37.825ZM38.4314 36.278C38.4314 35.5353 38.1525 34.8548 37.7503 34.8548C37.5026 34.8548 37.0693 35.1642 37.0693 36.278V67.218C37.0693 68.3324 37.5026 68.6418 37.7503 68.6418C38.1525 68.6418 38.4314 67.9607 38.4314 67.218V36.278ZM67.0823 65.671C67.0823 68.7028 66.8974 73.4062 63.8638 73.4062H60.2754C57.2436 73.4062 57.0574 68.7028 57.0574 65.671V37.825C57.0574 34.7926 57.2436 30.0898 60.2754 30.0898H63.8638C66.8974 30.0898 67.0823 34.7926 67.0823 37.825V43.9509H62.75V36.278C62.75 35.5353 62.4717 34.8548 62.0702 34.8548C61.8224 34.8548 61.3891 35.1642 61.3891 36.278V67.218C61.3891 68.3324 61.8218 68.6418 62.0702 68.6418C62.4717 68.6418 62.75 67.9607 62.75 67.218V58.2459H67.0823V65.671ZM106.469 73.4062L104.983 57.3793H104.674V73.4062H100.342V30.0898H107.149C110.183 30.0898 110.368 34.7926 110.368 37.825V51.2534C110.368 52.4288 110.337 55.2751 108.791 56.5133L110.925 73.4062H106.469ZM105.231 52.6143C105.696 52.6143 106.036 51.8099 106.036 50.4491V37.0201C106.036 35.6592 105.696 34.8548 105.231 34.8548H104.674V52.6143H105.231Z" fill="#212529"/>
<path fill-rule="evenodd" clip-rule="evenodd" d="M5.29395 79.4638H69.7993L70.7282 75.2448H5.29395V79.4638ZM95.6009 75.2441L96.3678 79.4632H114.705V75.2441H95.6009Z" fill="#595D6A"/>
<path fill-rule="evenodd" clip-rule="evenodd" d="M5.29443 83.6448H68.8784L69.8085 79.4258H5.29443V83.6448ZM96.3627 79.4258L97.1285 83.6448H114.706V79.4258H96.3627Z" fill="#D7DAE4"/>
<path fill-rule="evenodd" clip-rule="evenodd" d="M5.29443 87.8251H67.9577L68.8865 83.6055H5.29443V87.8251ZM97.1216 83.6055L97.8898 87.8251H114.706V83.6055H97.1216Z" fill="#212529"/>
<path fill-rule="evenodd" clip-rule="evenodd" d="M83.3413 36.1254L84.5752 43.3108L82.6845 39.9434L83.3413 36.1254ZM85.9498 51.3099L89.0663 69.4485L80.8113 58.5041L85.9498 51.3099ZM90.3014 76.639L92.918 91.8646L95.519 91.4183L84.6462 28.1387H82.0452L71.1724 91.4183L73.7734 91.8646L73.8344 91.5104L90.3014 76.639ZM74.5615 87.2796L79.126 60.6812L89.212 74.0647L74.5615 87.2796ZM80.1109 54.9438L81.9723 44.0996L84.5734 48.6971L80.1109 54.9438Z" fill="#212529"/>
</g>
<defs>
<clipPath id="clip0_188_4575">
<rect width="120" height="120" fill="white"/>
</clipPath>
</defs>
</svg>
