<svg width="200" height="34" viewBox="0 0 200 34" fill="none" xmlns="http://www.w3.org/2000/svg">
<g clip-path="url(#clip0_188_3462)">
<path d="M148.387 18.7575H148.635C148.914 18.7801 149.194 18.7523 149.462 18.6756H149.793L149.628 18.4298L147.312 14.4154L146.981 14.5792L148.387 18.5937V18.7575ZM139.206 11.9575C139.617 11.7573 139.978 11.4699 140.263 11.116C140.549 10.762 140.753 10.35 140.86 9.90935V10.5648C140.857 11.4988 140.94 12.4312 141.108 13.3503C140.899 13.0055 140.624 12.705 140.297 12.466C139.971 12.227 139.6 12.0542 139.206 11.9575ZM89.909 17.3648L85.7734 11.8756L89.909 6.46838V17.3648ZM148.139 10.6467C149.132 10.6467 149.793 11.384 149.793 12.613C149.851 13.0225 149.757 13.4389 149.529 13.7853C149.301 14.1316 148.954 14.3845 148.553 14.4973L148.304 14.5792L148.47 14.825L150.538 18.5118L150.62 18.6756H150.786C152.036 18.4027 153.169 17.7513 154.029 16.8118C154.888 15.8723 155.432 14.6912 155.583 13.4322C155.997 17.0371 158.561 18.9214 161.125 18.9214C161.795 18.9433 162.462 18.8312 163.088 18.5919C163.713 18.3526 164.283 17.991 164.764 17.5286V18.4298H170.389V6.14067H164.93V12.1214C164.959 12.3875 164.932 12.6568 164.85 12.9119C164.768 13.167 164.633 13.4024 164.454 13.6029C164.275 13.8034 164.055 13.9647 163.81 14.0764C163.564 14.1881 163.298 14.2477 163.027 14.2515C162.755 14.2538 162.486 14.1983 162.237 14.0886C161.988 13.9789 161.766 13.8177 161.586 13.6158C161.406 13.4138 161.271 13.176 161.192 12.9182C161.112 12.6604 161.089 12.3887 161.125 12.1214C161.102 11.8565 161.134 11.5898 161.219 11.3375C161.303 11.0852 161.438 10.8524 161.616 10.6533C161.794 10.4542 162.011 10.2929 162.253 10.1791C162.496 10.0653 162.759 10.0014 163.027 9.99127H163.358L163.193 9.74549L160.794 5.64911L160.711 5.56718H160.629C157.899 5.81296 155.914 8.02501 155.583 11.1383C155.409 9.78052 154.725 8.5375 153.668 7.65686C152.61 6.77623 151.256 6.32263 149.876 6.38645C148.472 6.31355 147.09 6.75052 145.988 7.61537C146.567 5.73103 148.304 5.15754 151.034 4.58404C152.605 4.25633 155.252 3.68284 155.335 0.15995V-0.00390625H150.868V0.15995C150.786 0.569588 150.289 0.733444 149.132 0.979227C148.635 1.06115 147.974 1.22501 147.229 1.38887C143.59 2.29007 141.522 4.82983 141.108 8.92622C140.943 6.87802 138.792 5.64911 135.484 5.64911C133.735 5.65516 132 5.96003 130.356 6.55031V6.14067H124.648V12.1214C124.678 12.3875 124.65 12.6568 124.568 12.9119C124.486 13.167 124.352 13.4024 124.173 13.6029C123.993 13.8034 123.774 13.9647 123.528 14.0764C123.283 14.1881 123.016 14.2477 122.746 14.2515C122.474 14.2538 122.204 14.1983 121.956 14.0886C121.707 13.9789 121.485 13.8177 121.305 13.6158C121.125 13.4138 120.99 13.176 120.911 12.9182C120.831 12.6604 120.808 12.3887 120.844 12.1214C120.821 11.8565 120.853 11.5898 120.937 11.3375C121.022 11.0852 121.157 10.8524 121.335 10.6533C121.513 10.4542 121.729 10.2929 121.972 10.1791C122.215 10.0653 122.478 10.0014 122.746 9.99127H123.077L122.911 9.74549L120.513 5.64911L120.43 5.56718H120.347C117.287 5.81296 115.219 8.51657 115.219 12.1214C115.233 12.6166 115.289 13.1099 115.385 13.5961C114.051 14.2352 112.63 14.6768 111.166 14.9069C110.091 14.9069 110.091 14.4973 110.091 14.4154C110.091 14.1696 110.091 13.8419 111.166 13.678C113.069 13.3503 115.054 12.6949 115.054 9.90935C115.054 7.77922 113.565 5.48525 109.512 5.48525C107.87 5.48298 106.252 5.87663 104.797 6.63224L104.632 6.71417L104.715 6.87802L106.038 9.58164L106.121 9.74549L106.286 9.66356C106.969 9.19976 107.774 8.9435 108.602 8.92622C109.677 8.92622 109.76 9.41778 109.76 9.58164C109.76 10.0732 109.181 10.2371 108.354 10.319C108.237 10.3067 108.12 10.3358 108.023 10.4009C106.369 10.6467 105.294 11.384 104.88 12.613V12.0395C104.88 7.77923 102.068 5.48525 99.2556 5.48525C97.8401 5.45798 96.4716 5.98839 95.4508 6.95995V6.14067H83.5401L83.4574 6.2226L81.0587 10.4009V6.14067H71.5467L71.464 6.30453L69.8098 10.9744L67.4938 6.30453L67.5765 6.14067H60.9595L61.1249 6.38645L67.2457 16.6274L64.268 22.6901L64.1026 22.9359H70.0579L70.1406 22.8539L75.4342 10.8106V18.184H81.2242V13.5142L83.871 18.1021L83.9537 18.184H89.9917V22.9359H95.5335V12.1214C95.5043 11.8552 95.5316 11.586 95.6135 11.3309C95.6955 11.0758 95.8303 10.8404 96.0094 10.6399C96.1885 10.4394 96.4079 10.2781 96.6535 10.1664C96.8992 10.0547 97.1656 9.99507 97.4359 9.99127C97.7038 10.0021 97.9668 10.0664 98.209 10.1805C98.4512 10.2945 98.6677 10.4558 98.8454 10.6548C99.0231 10.8537 99.1583 11.0862 99.243 11.3382C99.3277 11.5903 99.3601 11.8566 99.3383 12.1214C99.3688 12.3812 99.3452 12.6445 99.2689 12.8949C99.1926 13.1453 99.0652 13.3775 98.8947 13.5772C98.7241 13.7769 98.5139 13.9398 98.2773 14.0557C98.0406 14.1717 97.7823 14.2384 97.5186 14.2515H97.1878L97.3532 14.4973L99.9173 18.5118L100 18.5937H100.083C102.399 18.3479 104.136 16.6274 104.797 14.1696C104.797 15.4804 105.376 18.5937 110.753 18.5937C112.986 18.5678 115.166 17.9144 117.039 16.7093C117.527 17.306 118.145 17.7855 118.847 18.1118C119.549 18.4382 120.316 18.6029 121.092 18.5937C121.762 18.6156 122.429 18.5036 123.055 18.2643C123.68 18.025 124.25 17.6633 124.731 17.2009V18.1021H130.356V9.82742C131.728 9.31003 133.189 9.05967 134.657 9.09007C135.732 9.09007 136.228 9.33585 136.228 9.90935C136.228 10.2371 135.815 10.4828 135.153 10.4828H132.754V13.678H134.988C135.897 13.678 136.311 13.8419 136.311 14.2515C136.311 14.6612 135.897 15.0708 134.988 15.0708C133.784 15.0081 132.617 14.6415 131.596 14.0057L131.266 13.8419V18.266L131.431 18.3479C132.738 18.7776 134.106 18.9988 135.484 19.0033C140.116 19.0033 141.77 16.9551 141.77 15.1527C142.175 16.0979 142.81 16.9292 143.618 17.5724C144.427 18.2157 145.383 18.6509 146.402 18.8395L146.65 18.9214V12.613C146.567 11.384 147.146 10.6467 148.139 10.6467ZM199.752 17.9383L195.203 11.8756L199.256 6.46838L199.504 6.14067H192.887L192.804 6.2226L190.488 10.4009V6.14067H184.698V18.184H190.488V13.5142L193.135 18.1021L193.218 18.184H200L199.752 17.9383ZM164.185 10.7286L164.516 10.5648L163.027 6.2226V6.14067H162.945C162.542 5.99342 162.127 5.88371 161.704 5.81296L161.29 5.73103L161.456 6.05875L164.185 10.7286ZM32.9198 20.8057C32.7543 20.7238 32.2581 20.3961 32.2581 19.331C32.2581 18.4298 33.2506 17.4467 34.4086 16.2997C36.0629 14.6612 37.8825 12.8587 37.8825 10.319C37.8565 8.72172 37.5486 7.14128 36.9727 5.64911L51.9438 12.7768L32.9198 20.8057ZM33.1679 0.733444L32.5062 0.405732L32.9198 0.979227C32.9198 0.979227 35.3184 4.58405 35.3184 7.77923C35.3184 10.7286 33.6642 12.3672 32.0926 13.8419C30.6038 15.3166 29.0323 16.8732 29.0323 19.4949C29.0443 21.2683 29.6888 22.9804 30.8519 24.3286L30.9347 24.4106L31.0174 24.3286L57.7337 13.0226L58.1472 12.8587L57.8164 12.6949L33.1679 0.733444ZM15.55 14.4154C15.55 12.1214 19.5203 10.2371 21.0091 9.58164C20.0599 10.9899 19.5428 12.6403 19.5203 14.3334C19.6074 16.0536 20.2123 17.7086 21.2572 19.0852C19.6857 18.6756 15.55 17.0371 15.55 14.4154ZM30.1075 12.4491C31.5136 10.4828 33.0025 8.43465 33.0025 6.63224C33.0025 3.76477 30.1075 0.569588 30.0248 0.405732L29.9421 0.323806L29.8594 0.405732L0.413565 12.6949L0 12.8587L0.413565 13.0226L26.7163 23.5093L26.8817 23.1816C26.799 23.0997 22.4152 18.7575 22.4152 15.2346C22.4152 12.3672 23.9868 10.9744 25.5583 9.66356C26.6535 8.82347 27.5557 7.76223 28.2051 6.55031C28.515 5.71167 28.6555 4.82091 28.6187 3.92862C28.9988 4.28601 29.2985 4.71888 29.498 5.1989C29.6976 5.67892 29.7925 6.19528 29.7767 6.71417C29.7767 7.94308 28.7014 9.49971 27.5434 11.1383C26.22 13.0226 24.8139 14.9069 24.8139 16.7093C24.8139 20.0684 28.9495 24.5744 29.115 24.7383L29.4458 24.4925C29.4458 24.4106 27.4607 20.5599 27.4607 17.5286C27.5434 16.1359 28.7841 14.3334 30.1075 12.4491ZM124.152 10.7286L124.483 10.5648L122.994 6.14067V6.05875H122.911C122.509 5.9115 122.094 5.80178 121.671 5.73103L121.257 5.64911L121.423 5.97682L124.152 10.7286ZM96.4433 14.2515L96.1125 14.4154L97.5186 18.4298V18.5118H97.6013C97.9322 18.5937 98.3457 18.6756 98.7593 18.7575H99.0902L98.9247 18.4298L96.4433 14.2515ZM176.344 18.266H176.51V14.0877H178.329V18.266H184.119V6.14067H178.329V9.82742H176.51V6.14067H170.72V18.184H176.344V18.266Z" fill="#212529"/>
<path d="M178.246 21.1328C177.881 21.6891 177.402 22.1635 176.84 22.5256C175.269 23.3449 174.276 23.181 173.035 24.328C172.438 24.983 172.087 25.8223 172.043 26.7039C172.043 26.9497 171.96 27.1955 171.96 27.3593C171.96 27.2774 171.96 27.2774 172.043 27.1955C172.126 27.0316 172.126 26.9497 172.208 26.7858C172.291 26.622 172.374 26.54 172.456 26.3762C172.634 26.1187 172.858 25.8964 173.118 25.7208C173.397 25.5358 173.704 25.3974 174.028 25.3111C174.359 25.2292 174.607 25.1473 174.938 25.0653C175.226 25.033 175.506 24.9498 175.765 24.8196C176.027 24.7451 176.278 24.6348 176.509 24.4919C176.592 24.4099 176.758 24.328 176.84 24.2461C176.923 24.2461 176.923 24.1641 177.006 24.1641L177.088 24.0822C177.254 23.9184 177.336 23.7545 177.502 23.5906L177.585 23.5087L177.667 23.4268C177.715 23.3843 177.744 23.3258 177.75 23.2629C177.842 23.1437 177.899 23.0022 177.915 22.8533V22.9352C177.915 23.0172 177.833 23.0991 177.833 23.2629C177.833 23.3449 177.75 23.4268 177.75 23.5087C177.75 23.5304 177.741 23.5513 177.726 23.5666C177.71 23.582 177.689 23.5906 177.667 23.5906C177.661 23.6536 177.632 23.712 177.585 23.7545C177.488 23.9531 177.378 24.1447 177.254 24.328C177.082 24.5391 176.888 24.7314 176.675 24.9015C176.445 25.0688 176.195 25.2065 175.93 25.3111C175.682 25.3931 175.351 25.475 175.021 25.5569C174.69 25.6388 174.442 25.7208 174.111 25.8027C173.843 25.8613 173.59 25.9728 173.366 26.1304C173.156 26.2735 172.962 26.4383 172.787 26.622C172.705 26.7039 172.622 26.8678 172.539 26.9497C172.452 27.04 172.394 27.1542 172.374 27.2774C172.291 27.3593 172.291 27.5232 172.208 27.6051C172.208 27.687 172.126 27.8509 172.126 27.9328C172.126 28.0147 172.043 28.1786 172.043 28.2605C172.043 28.3425 171.96 28.4244 171.96 28.5063C171.96 28.6702 171.877 28.834 171.877 28.9979V29.2437L172.043 29.4075C172.153 28.776 172.473 28.1991 172.953 27.769C173.78 27.1135 174.855 27.2774 175.848 27.0316C176.33 26.9392 176.786 26.745 177.186 26.4623C177.586 26.1795 177.919 25.8149 178.164 25.3931C178.755 24.286 178.903 22.9985 178.577 21.7882C178.412 21.7063 178.329 21.3786 178.246 21.1328Z" fill="#212529"/>
<path d="M186.104 33.7507H188.751V31.7025H189.826V33.7507H192.473V28.0977H189.826V29.9001H188.751V28.0977H186.104V33.7507Z" fill="#212529"/>
<path d="M192.804 33.7507H195.451V31.2928L196.857 33.7507H199.918L197.684 30.8013L199.669 28.0977H196.774L195.451 30.3916V28.0977H192.804V33.7507Z" fill="#212529"/>
<path d="M175.352 33.9936L174.69 32.0273L175.848 33.9117C175.692 33.9785 175.521 34.0066 175.352 33.9936Z" fill="#212529"/>
<path d="M182.961 30.1455L181.637 27.8516C181.841 27.8563 182.04 27.9127 182.216 28.0154L182.961 30.1455Z" fill="#212529"/>
<path d="M182.217 29.8179C182.08 29.8221 181.947 29.8531 181.823 29.9092C181.699 29.9652 181.587 30.0451 181.495 30.1443C181.402 30.2434 181.331 30.3598 181.284 30.4867C181.238 30.6135 181.217 30.7482 181.224 30.883C181.21 31.0236 181.224 31.1656 181.267 31.3004C181.309 31.4353 181.379 31.5602 181.472 31.6674C181.565 31.7747 181.679 31.8622 181.807 31.9245C181.935 31.9868 182.074 32.0227 182.217 32.03C182.796 32.03 183.209 31.6203 183.209 30.883V28.0975H185.691V33.7505H183.126V33.177C182.902 33.4371 182.623 33.6453 182.309 33.7869C181.994 33.9284 181.652 33.9999 181.307 33.9962C179.983 33.9962 178.743 32.9312 178.743 30.9649C178.743 29.3264 179.735 28.0155 181.141 27.9336L182.217 29.8179Z" fill="#212529"/>
<path d="M175.848 28.2612C175.474 28.2206 175.096 28.2744 174.749 28.4177C174.402 28.561 174.097 28.789 173.863 29.0805C173.311 28.6759 172.647 28.4473 171.961 28.425C171.785 28.9817 171.702 29.5626 171.712 30.1455C171.712 31.0467 171.878 33.4226 174.276 33.9142V31.1287C174.276 30.4732 174.607 30.0636 175.104 30.0636C175.683 30.0636 176.013 30.4732 176.013 31.1287C176.013 31.7021 175.765 32.0299 175.352 32.1118L176.344 33.9142C177.007 33.7611 177.594 33.3815 178.003 32.8421C178.411 32.3027 178.615 31.638 178.578 30.9648C178.59 30.6064 178.528 30.2493 178.395 29.9156C178.263 29.5819 178.062 29.2789 177.806 29.0253C177.55 28.7717 177.244 28.573 176.907 28.4416C176.57 28.3101 176.21 28.2487 175.848 28.2612Z" fill="#212529"/>
<path d="M153.516 33.6666H156.162V31.1268L157.569 33.6666H160.629L158.396 30.6353L160.381 27.9316H157.486L156.162 30.3075V27.9316H153.516V33.6666Z" fill="#212529"/>
<path d="M151.117 31.9414L152.11 33.58C152.275 33.498 152.358 33.4161 152.523 33.3342L151.117 31.9414Z" fill="#212529"/>
<path d="M150.29 32.4343C150.158 32.4291 150.028 32.3967 149.909 32.3392C149.79 32.2816 149.684 32.2002 149.599 32.1C149.513 31.9999 149.449 31.8832 149.412 31.7574C149.374 31.6316 149.363 31.4994 149.38 31.3692H153.599C153.599 30.1403 153.268 27.6825 150.207 27.6825C149.773 27.6435 149.335 27.6954 148.923 27.8347C148.51 27.9741 148.132 28.1978 147.812 28.4913C147.492 28.7848 147.238 29.1417 147.067 29.5387C146.895 29.9357 146.81 30.364 146.816 30.7957C146.792 31.225 146.863 31.6543 147.023 32.0539C147.183 32.4535 147.429 32.8138 147.744 33.11C148.058 33.4061 148.434 33.6309 148.845 33.7689C149.257 33.9068 149.693 33.9547 150.125 33.909C150.632 33.9212 151.137 33.8378 151.613 33.6632L150.786 32.2704C150.649 32.3866 150.471 32.4454 150.29 32.4343ZM150.29 29.1572C150.416 29.1604 150.539 29.1886 150.654 29.2402C150.768 29.2917 150.871 29.3656 150.956 29.4574C151.041 29.5491 151.106 29.6569 151.148 29.7742C151.19 29.8916 151.208 30.0161 151.2 30.1403H149.463C149.442 29.9015 149.517 29.664 149.672 29.4798C149.827 29.2956 150.049 29.1796 150.29 29.1572Z" fill="#212529"/>
<path d="M162.614 31.6172L163.359 33.9112C163.556 33.9305 163.754 33.9024 163.938 33.8292L162.614 31.6172Z" fill="#212529"/>
<path d="M163.111 27.6836C160.629 27.6836 159.637 29.1583 159.637 30.7968C159.617 31.5379 159.878 32.2594 160.368 32.8201C160.857 33.3807 161.54 33.7402 162.284 33.8282V30.7149C162.284 30.5966 162.307 30.4794 162.353 30.37C162.399 30.2607 162.466 30.1614 162.55 30.0777C162.635 29.994 162.735 29.9276 162.845 29.8823C162.956 29.837 163.074 29.8137 163.193 29.8137C163.319 29.8159 163.444 29.8434 163.558 29.8946C163.673 29.9458 163.776 30.0197 163.862 30.1117C163.947 30.2036 164.012 30.3118 164.054 30.4296C164.095 30.5474 164.112 30.6724 164.103 30.7968C164.116 31.0339 164.038 31.2672 163.885 31.4496C163.732 31.632 163.514 31.7501 163.276 31.78L164.517 33.7462C165.18 33.5931 165.767 33.2135 166.175 32.6742C166.584 32.1348 166.787 31.4701 166.75 30.7968C166.667 29.1583 165.592 27.6836 163.111 27.6836Z" fill="#212529"/>
<path d="M169.148 32.0284C169.787 32.0284 170.306 31.5148 170.306 30.8814C170.306 30.2479 169.787 29.7344 169.148 29.7344C168.508 29.7344 167.99 30.2479 167.99 30.8814C167.99 31.5148 168.508 32.0284 169.148 32.0284Z" fill="#212529"/>
</g>
<defs>
<clipPath id="clip0_188_3462">
<rect width="200" height="34" fill="white"/>
</clipPath>
</defs>
</svg>
