<svg width="120" height="51" viewBox="0 0 120 51" fill="none" xmlns="http://www.w3.org/2000/svg">
<g clip-path="url(#clip0_178_1762)">
<path d="M14.4176 8.54228C14.4176 8.54228 14.386 8.50428 14.3909 8.43539C14.3525 8.29535 14.3092 8.2242 14.2659 8.15306C14.2659 8.15306 14.2739 8.15359 14.2721 8.10544C14.1785 7.91262 14.0866 7.76796 13.9947 7.6233C13.2983 6.95302 12.6019 6.28274 11.9348 5.57152C12.1176 5.52864 12.2723 5.51272 12.4241 5.52717C13.1116 5.59262 13.2193 5.44041 12.9587 4.79864C12.8995 4.65271 12.8991 4.47779 12.8957 4.3157C12.8765 3.41998 12.9161 2.51937 12.8334 1.62982C12.7717 0.965795 12.2 0.611809 11.4482 0.512184C11.1448 0.471985 10.8639 0.264285 10.5728 0.132812C10.6719 0.132812 10.771 0.132812 10.9197 0.132812C12.0495 0.503415 13.1297 0.874017 14.2079 1.30857C14.3209 1.43809 14.4359 1.50366 14.551 1.56923C14.551 1.56923 14.5394 1.57525 14.5473 1.61844C14.815 2.0881 15.0748 2.51457 15.3069 2.89557C15.1976 3.1485 15.0501 3.4169 14.9676 3.7038C14.9004 3.93746 14.8982 4.19283 14.8897 4.43934C14.866 5.12144 14.746 5.8234 14.8658 6.48118C15.0041 7.24085 14.9612 7.9042 14.5064 8.54269C14.4768 8.54282 14.4176 8.54228 14.4176 8.54228Z" fill="#212529"/>
<path d="M10.5231 0.132812C10.8638 0.264285 11.1447 0.471985 11.4481 0.512184C12.1999 0.611809 12.7716 0.965795 12.8333 1.62982C12.916 2.51937 12.8764 3.41998 12.8956 4.3157C12.899 4.47779 12.8994 4.65271 12.9586 4.79864C13.2192 5.44041 13.1115 5.59262 12.424 5.52717C12.2722 5.51272 12.1175 5.52864 11.9054 5.53606C10.9309 5.45301 10.0152 5.36446 9.05371 5.22029C9.31132 5.10823 9.61255 5.02614 9.91855 5.00051C10.6348 4.94051 10.7234 4.71265 10.5808 4.03652C10.4407 3.37213 10.2391 2.52306 10.5277 2.01546C10.9105 1.34204 10.4801 1.10828 10.2846 0.692227C10.2062 0.52541 10.2099 0.320425 10.1762 0.132812C10.2753 0.132812 10.3744 0.132812 10.5231 0.132812Z" fill="#212529"/>
<path d="M10.1149 0.132812C10.2101 0.320425 10.2065 0.52541 10.2849 0.692227C10.4804 1.10828 10.9108 1.34204 10.528 2.01546C10.2394 2.52306 10.441 3.37213 10.5811 4.03652C10.7237 4.71265 10.635 4.94051 9.91883 5.00051C9.61282 5.02614 9.3116 5.10823 8.99801 5.21677C8.76099 5.3596 8.53415 5.45031 8.2699 5.49923C8.22059 5.03112 7.96607 4.56467 8.44619 4.21728C8.47915 4.19342 8.46163 4.09155 8.45707 4.0267C8.37638 2.88011 8.29406 1.73364 8.20334 0.464666C7.75017 0.552094 7.42262 0.632277 7.09019 0.673767C6.84698 0.704122 6.59735 0.683616 6.35059 0.685781C6.94843 0.530838 7.54627 0.375894 8.16909 0.176882C8.8138 0.132812 9.43353 0.132812 10.1149 0.132812Z" fill="#212529"/>
<path d="M9.38303 33.0626C10.877 32.4253 11.1944 31.1681 11.2113 29.804C11.2459 27.0006 11.1073 24.1906 11.2513 21.394C11.4573 17.3932 12.9778 14.0527 16.8671 12.2929C19.7023 11.0101 22.6071 11.209 25.4696 12.3149C31.029 14.4626 32.1506 19.6266 30.978 24.1779C30.0482 27.7874 27.7764 30.1519 23.9823 30.8311C21.9938 31.1871 20.0427 30.8883 18.0946 30.3343C18.0946 28.2871 18.0946 26.2552 18.0946 24.1385C18.4938 24.3133 18.8468 24.5344 19.2306 24.6227C20.141 24.8321 21.0709 25.1425 21.9842 25.1161C23.8837 25.0611 25.3324 23.5171 25.5142 21.5868C25.7066 19.5448 24.7797 18.197 22.7799 17.6106C19.8424 16.7492 17.4775 18.4585 17.3304 21.7073C17.2008 24.5711 17.301 27.4446 17.2308 30.3121C17.2037 31.4186 17.1145 32.5542 16.831 33.6179C16.1292 36.2514 14.3259 37.8942 11.7132 38.5854C9.3262 39.2168 6.94406 39.0633 4.68635 38.0248C2.24283 36.9008 1.05896 34.807 0.553476 32.2932C0.365393 31.3579 0.295376 30.3855 0.29087 29.4295C0.266401 24.2382 0.279251 19.0468 0.279251 13.6974C0.457866 13.9791 0.572497 14.1413 0.668369 14.3139C1.94724 16.6155 3.70476 18.4206 6.11136 19.5734C6.28592 19.657 6.46348 19.9485 6.46463 20.1443C6.48386 23.4299 6.47105 26.7157 6.47781 30.0014C6.4787 30.4351 6.49147 30.8826 6.59563 31.2997C6.94815 32.7115 7.87564 33.2984 9.38303 33.0626Z" fill="#212529"/>
<path d="M3.29258 15.9056C2.90012 15.4551 2.50765 15.0047 2.15918 14.5063C2.30556 14.3245 2.4879 14.1961 2.49751 14.0559C2.56586 13.0593 2.64199 12.06 2.63466 11.0621C2.61658 8.60155 2.55503 6.14133 2.5297 3.63821C2.57769 3.4457 2.60694 3.29597 2.63619 3.14624C2.63619 3.14624 2.64312 3.15366 2.67 3.13869C2.72108 3.08618 2.74528 3.04863 2.76948 3.01109C2.76948 3.01109 2.77288 3.02084 2.80034 3.00596C2.85175 2.95227 2.8757 2.91348 2.89965 2.87468C2.89965 2.87468 2.9012 2.88571 2.929 2.87289C2.98202 2.82157 3.00725 2.78306 3.03247 2.74456C3.03247 2.74456 3.03423 2.75507 3.06204 2.74176C3.11468 2.6898 3.13951 2.65115 3.16434 2.61251C3.16434 2.61251 3.1659 2.62311 3.19349 2.61062C3.24687 2.56078 3.27267 2.52343 3.29846 2.48609C3.29846 2.48609 3.30199 2.49565 3.32919 2.48105C3.38115 2.42896 3.40592 2.39148 3.43068 2.35399C3.43068 2.35399 3.43396 2.36475 3.48097 2.36405C3.81828 2.24975 4.10859 2.13615 4.44157 2.00586C4.54869 2.53794 4.83868 3.09512 4.7158 3.53931C4.39191 4.71014 4.88643 5.89323 4.43318 7.09552C4.15634 7.82989 4.54297 8.7998 4.57915 9.66609C4.61561 10.539 4.58718 11.4146 4.58718 12.4243C4.60518 12.5831 4.65954 12.888 4.67065 13.1944C4.70163 14.0486 4.72663 14.9035 4.72593 15.758C4.72577 15.9582 4.67113 16.2311 4.53615 16.3348C4.43381 16.4135 4.15571 16.2988 3.97085 16.2301C3.7368 16.1431 3.51797 16.0156 3.29258 15.9056Z" fill="#212529"/>
<path d="M14.5359 8.54297C14.961 7.90462 15.004 7.24126 14.8656 6.48159C14.7459 5.82382 14.8658 5.12186 14.8895 4.43976C14.8981 4.19324 14.9003 3.93788 14.9675 3.70421C15.05 3.41731 15.1975 3.14891 15.3068 2.89599C15.0747 2.51499 14.8149 2.08852 14.5506 1.61328C15.0635 1.87704 15.581 2.18957 16.1189 2.58954C16.2636 2.74986 16.3878 2.82273 16.512 2.89561C16.512 2.89561 16.5201 2.8941 16.5335 2.92492C16.572 2.98903 16.6042 3.01261 16.6436 3.02647C16.7697 3.16896 16.8959 3.31144 17.0508 3.5258C17.1177 3.62396 17.1559 3.65025 17.1941 3.67654C17.1941 3.67654 17.184 3.67844 17.2003 3.70633C17.2594 3.75421 17.3022 3.77419 17.345 3.79417C17.345 3.79417 17.328 3.79774 17.3383 3.82576C17.389 3.88047 17.4294 3.90718 17.4699 3.93389C17.4699 3.93389 17.4543 3.93593 17.4655 3.96237C17.5141 4.01635 17.5514 4.04388 17.5888 4.07141C17.5888 4.07141 17.5789 4.07416 17.5892 4.09853C17.6177 4.16079 17.6458 4.18877 17.6839 4.20682C17.6839 4.20682 17.7093 4.2609 17.7042 4.33786C17.5949 4.61188 17.3499 4.88861 17.4096 4.99288C17.7618 5.60834 17.6927 6.21553 17.6068 6.87899C17.541 7.38775 17.7174 7.92648 17.7758 8.453C17.7891 8.57265 17.7825 8.70392 17.7467 8.8179C17.567 9.38973 17.3745 9.9576 17.1865 10.5269C17.1865 10.5269 17.1808 10.5181 17.1311 10.5187C16.9016 10.6174 16.7219 10.7155 16.5422 10.8137C16.5422 10.8137 16.5304 10.8007 16.4979 10.7967C16.396 10.8276 16.3267 10.8627 16.2574 10.8977C16.2574 10.8977 16.2011 10.9151 16.1386 10.9289C16.0497 10.9805 16.0232 11.0182 15.9968 11.0559C15.9968 11.0559 15.9946 11.045 15.958 11.0485C15.8572 11.0949 15.7929 11.1376 15.7287 11.1804C15.7287 11.1804 15.7279 11.1738 15.6898 11.1778C15.5894 11.2258 15.527 11.2697 15.4646 11.3136C15.4031 11.3552 15.3416 11.3967 15.2187 11.3905C15.1269 11.0902 15.1199 10.832 15.0594 10.5868C14.9981 10.3389 14.8839 10.104 14.7928 9.86345C14.7602 9.79701 14.7276 9.73056 14.7292 9.5918C14.6816 9.28077 14.5998 9.04205 14.518 8.80334C14.518 8.80334 14.5026 8.78297 14.5152 8.71729C14.5305 8.61539 14.5332 8.57918 14.5359 8.54297Z" fill="#212529"/>
<path d="M113.236 37.3239C113.39 37.2388 113.592 37.1904 113.69 37.0629C114.615 35.8657 115.537 34.6655 116.426 33.4416C116.69 33.0785 116.975 32.9395 117.413 32.9686C117.933 33.003 118.456 32.9767 119.003 32.9767C119.003 34.8615 119.003 36.6674 119.003 38.5054C118.577 38.5054 118.19 38.5054 117.71 38.5054C117.71 37.0363 117.71 35.5841 117.71 34.1319C117.653 34.1126 117.595 34.0933 117.538 34.074C116.443 35.5322 115.349 36.9903 114.172 38.4328C113.63 38.4055 113.169 38.3633 112.712 38.391C112.242 38.4194 112.046 38.2948 112.059 37.7804C112.093 36.429 112.078 35.0762 112.066 33.7241C112.062 33.3502 112.097 33.1161 112.582 33.1095C113.098 33.1024 113.147 33.3507 113.134 33.7544C113.114 34.4081 113.115 35.0632 113.133 35.717C113.148 36.2532 113.2 36.7883 113.236 37.3239Z" fill="#212529"/>
<path d="M73.5919 38.4696C72.8917 38.3174 72.514 37.8876 72.4908 37.2671C72.4519 36.2226 72.4674 35.1724 72.5328 34.1291C72.5775 33.4162 73.0827 33.0229 73.7689 32.9933C74.9532 32.9422 76.1452 32.8983 77.3257 32.9752C78.4534 33.0488 78.8556 33.5942 78.8722 34.8041C78.4626 34.8041 78.0527 34.8041 77.6037 34.8041C77.5009 34.1629 77.0362 34.0187 76.4507 34.0324C75.8345 34.0469 75.2175 34.0473 74.6012 34.036C74.0528 34.0259 73.7772 34.2991 73.7603 34.8216C73.7412 35.4122 73.7461 36.0041 73.7575 36.5951C73.7676 37.1212 74.0571 37.4081 74.5821 37.4208C75.308 37.4384 76.0437 37.4995 76.757 37.4054C77.1081 37.359 77.4182 37.0057 77.7469 36.7913C77.7161 36.7398 77.6852 36.6883 77.6544 36.6368C78.0467 36.6368 78.439 36.6368 78.8275 36.6368C78.9976 37.9135 78.5299 38.4983 77.276 38.518C76.0663 38.5371 74.8557 38.4987 73.5919 38.4696Z" fill="#212529"/>
<path d="M53.3628 35.7734C53.8373 36.6832 54.2877 37.5503 54.8001 38.5367C54.3782 38.5367 54.0584 38.5134 53.7436 38.5428C53.3862 38.5761 53.1424 38.4704 53.0397 38.1171C52.7982 37.2867 52.2437 36.9995 51.4071 37.1494C51.1726 37.1914 50.92 37.1861 50.683 37.1522C49.7248 37.0154 48.9599 37.1799 48.6713 38.2619C48.6388 38.3837 48.3845 38.5054 48.2219 38.5226C47.8543 38.5614 47.4796 38.5348 47.0078 38.5348C47.5977 37.4013 48.1488 36.3404 48.7019 35.2805C48.9145 34.8732 49.1895 34.4876 49.3348 34.0583C49.643 33.1475 50.2244 32.8634 51.1718 32.9477C51.7212 32.9966 52.037 33.1064 52.2604 33.6337C52.566 34.3553 52.9744 35.0338 53.3628 35.7734ZM51.1829 34.4824C51.1053 34.3433 51.0278 34.2041 50.9022 33.979C50.5167 34.717 50.1786 35.3642 49.8098 36.0701C50.5642 36.0701 51.2263 36.0701 51.9896 36.0701C51.7146 35.5217 51.4743 35.0425 51.1829 34.4824Z" fill="#212529"/>
<path d="M92.6823 33.0739C92.7152 33.7336 92.7152 34.3427 92.7152 35.1712C93.1874 34.992 93.5483 34.9103 93.8462 34.7273C94.1789 34.523 94.4999 34.2637 94.7463 33.9636C95.5297 33.0091 96.5299 32.7848 97.7848 33.0516C96.7481 33.8933 95.743 34.7094 94.6645 35.585C95.7541 36.5438 96.8136 37.4761 97.9703 38.494C96.9408 38.5417 96.0328 38.7602 95.3182 37.8603C94.9274 37.3682 94.4194 36.9576 93.9207 36.5649C93.6276 36.3342 93.2491 36.2107 92.7492 35.9583C92.7492 36.9503 92.7492 37.7038 92.7492 38.4962C92.266 38.4962 91.8592 38.4962 91.4116 38.4962C91.4116 36.6745 91.4116 34.8672 91.4116 33.0232C91.8361 33.0232 92.2428 33.0232 92.6823 33.0739Z" fill="#212529"/>
<path d="M108.324 37.7313C108.332 37.8691 108.339 38.007 108.286 38.2061C107.897 38.307 107.569 38.3465 107.18 38.3934C107.18 37.1252 107.187 35.9892 107.173 34.8535C107.17 34.6289 107.082 34.4053 107.034 34.1813C106.877 34.2658 106.669 34.3121 106.571 34.4409C105.556 35.7735 104.559 37.1194 103.472 38.441C102.929 38.4082 102.467 38.3655 102.01 38.3926C101.542 38.4203 101.343 38.2994 101.355 37.7828C101.388 36.4083 101.349 35.0321 101.384 33.6577C101.389 33.4375 101.626 33.223 101.756 33.0059C101.9 32.9978 102.044 32.9897 102.262 33.0425C102.365 34.3127 102.386 35.5223 102.428 36.7311C102.437 36.972 102.529 37.21 102.582 37.4493C102.738 37.3091 102.919 37.1888 103.043 37.0255C104.017 35.7498 104.979 34.4658 106.041 33.1565C106.867 33.1732 107.597 33.2177 108.326 33.2622C108.333 33.3588 108.34 33.4554 108.288 33.617C108.19 33.756 108.118 33.8296 108.118 33.9037C108.109 35.0619 108.104 36.2204 108.118 37.3785C108.12 37.4969 108.252 37.6137 108.324 37.7313Z" fill="#212529"/>
<path d="M44.4345 33.9435C44.475 34.5354 44.5614 35.0829 44.5051 35.6154C44.434 36.2864 44.0215 36.7512 43.3135 36.8137C42.5511 36.8809 41.7829 36.8837 41.0171 36.9095C40.7598 36.9181 40.502 36.9108 40.1896 36.9108C40.1896 37.4706 40.1896 37.9635 40.1896 38.495C39.73 38.495 39.3274 38.495 38.8892 38.495C38.8892 36.6726 38.8892 34.8698 38.8892 33.0323C40.3795 33.0323 41.8648 32.9755 43.34 33.0716C43.7154 33.096 44.0589 33.6057 44.4345 33.9435ZM41.6889 35.7808C41.9301 35.7776 42.1713 35.7689 42.4124 35.7724C42.9478 35.7804 43.2097 35.5392 43.238 34.9904C43.2674 34.4221 43.0355 34.1017 42.469 34.0838C41.7303 34.0605 40.9902 34.0781 40.2198 34.0781C40.2198 34.6636 40.2198 35.1947 40.2198 35.7808C40.6922 35.7808 41.1262 35.7808 41.6889 35.7808Z" fill="#212529"/>
<path d="M64.2228 33.0195C64.2799 33.6789 64.3371 34.3383 64.3988 35.0505C65.4721 35.0505 66.5785 35.0505 67.7358 35.0505C67.7358 34.3756 67.7358 33.7247 67.7358 33.0244C68.187 33.0244 68.5905 33.0244 69.0414 33.0244C69.0414 34.8229 69.0414 36.6279 69.0414 38.485C68.6387 38.485 68.2351 38.485 67.7684 38.485C67.7684 37.7776 67.7684 37.0645 67.7684 36.2888C66.6232 36.2888 65.5367 36.2888 64.3287 36.2888C64.3287 36.7958 64.3287 37.3325 64.2716 37.9439C64.0534 38.3713 63.7375 38.4995 63.429 38.3454C63.2762 38.2691 63.1902 37.9372 63.183 37.7174C63.1554 36.8705 63.1718 36.0221 63.1718 35.1743C63.1718 34.5086 63.1718 33.8429 63.1718 33.2047C63.5928 33.1305 63.9078 33.075 64.2228 33.0195Z" fill="#212529"/>
<path d="M2.51102 3.68093C2.55509 6.14128 2.61664 8.6015 2.63472 11.062C2.64205 12.0599 2.56592 13.0593 2.49757 14.0559C2.48796 14.196 2.30562 14.3244 2.14704 14.4619C0.151687 11.5768 -0.100121 8.52095 1.20612 5.32677C1.39362 4.86828 1.69961 4.45771 1.99861 3.96725C2.08075 3.87932 2.10115 3.84167 2.10767 3.79657C2.10767 3.79657 2.10902 3.80708 2.13705 3.79283C2.18913 3.73845 2.21317 3.69833 2.23721 3.6582C2.23721 3.6582 2.23399 3.67138 2.2762 3.67336C2.38261 3.6772 2.44681 3.67907 2.51102 3.68093Z" fill="#212529"/>
<path d="M29.6038 38.5128C29.5449 38.5194 29.486 38.5261 29.3653 38.4927C29.2399 38.4274 29.1762 38.4022 29.1126 38.377C29.1057 38.3185 29.0987 38.26 29.1334 38.1146C29.1871 36.3883 29.1994 34.7488 29.2116 33.1093C29.5833 33.1093 29.9549 33.1093 30.4118 33.1093C30.4118 33.7601 30.4118 34.3795 30.4118 35.219C30.8948 35.0191 31.2547 34.9236 31.5528 34.7327C31.9005 34.51 32.2429 34.2434 32.5023 33.9267C33.2747 32.9836 34.2653 32.8027 35.4926 33.0535C34.9488 33.4931 34.4374 33.906 33.9265 34.3196C33.4196 34.73 32.9132 35.141 32.3647 35.5857C33.4593 36.5479 34.5231 37.4829 35.6865 38.5056C34.6437 38.5423 33.7292 38.7398 33.0193 37.8488C32.6413 37.3745 32.1044 37.0287 31.6907 36.5781C31.3365 36.1923 30.9522 36.0659 30.3902 36.281C30.2889 37.0048 30.2587 37.6506 30.2293 38.2809C29.9979 38.3667 29.8009 38.4398 29.6038 38.5128Z" fill="#212529"/>
<path d="M83.518 33.0254C83.573 33.6827 83.628 34.34 83.6901 35.0814C84.5951 35.0814 85.4928 35.063 86.3894 35.0863C87.4151 35.1129 87.9182 35.5515 88.0122 36.4426C88.1395 37.6494 87.8088 38.2027 86.6938 38.4557C85.3984 38.4061 84.1952 38.3814 82.9923 38.3898C82.5945 38.3926 82.4518 38.2632 82.4598 37.8629C82.4806 36.8178 82.4668 35.7719 82.4667 34.7263C82.4667 34.212 82.4667 33.6977 82.4667 33.2044C82.8856 33.1331 83.2018 33.0792 83.518 33.0254ZM85.672 36.1545C85.0002 36.1545 84.3284 36.1545 83.6602 36.1545C83.6602 36.6224 83.6602 37.0045 83.6602 37.4354C84.5048 37.4354 85.3111 37.4682 86.1113 37.4125C86.3137 37.3984 86.6164 37.1257 86.6553 36.9291C86.697 36.7186 86.5281 36.4154 86.3612 36.2347C86.2615 36.1266 85.9893 36.176 85.672 36.1545Z" fill="#212529"/>
<path d="M63.8498 45.1323C64.6389 45.1428 65.374 45.0884 66.0867 45.1899C66.4691 45.2444 67.0001 45.4885 67.1269 45.7881C67.2871 46.1669 67.104 46.6894 67.0618 47.2435C67.4917 47.4707 67.4942 48.0203 67.3442 48.5703C67.1961 49.1132 66.736 49.2873 66.2137 49.291C65.1155 49.2989 64.0173 49.2934 62.8853 49.2934C62.8853 47.919 62.8853 46.5705 62.8853 45.1323C63.1908 45.1323 63.4886 45.1323 63.8498 45.1323ZM65.9665 47.5839C65.2727 47.5839 64.5789 47.5839 63.8835 47.5839C63.8835 47.9264 63.8835 48.2127 63.8835 48.5161C64.5622 48.5161 65.1966 48.5397 65.8273 48.5021C66.0239 48.4904 66.3571 48.3273 66.3684 48.209C66.387 48.0146 66.1938 47.8003 65.9665 47.5839ZM63.8345 46.2392C63.8451 46.4258 63.8557 46.6123 63.8676 46.8209C64.5432 46.8209 65.1753 46.85 65.8011 46.8006C65.9598 46.788 66.2056 46.5311 66.2145 46.3754C66.2225 46.235 65.981 45.9849 65.8143 45.9502C65.4796 45.8806 65.1185 45.8984 64.7729 45.9299C64.4577 45.9586 64.1485 46.0531 63.8345 46.2392Z" fill="#212529"/>
<path d="M24.4131 35.3267C23.9341 36.0904 23.4985 36.8251 23.0282 37.5372C22.4075 38.4772 21.9911 38.639 20.7759 38.4667C20.7759 38.173 20.7759 37.8744 20.7759 37.5768C20.811 37.5481 20.841 37.5024 20.8757 37.4985C21.9167 37.3817 21.9497 37.3051 21.3758 36.4299C20.6471 35.3184 19.9271 34.2013 19.1313 32.9757C19.5814 32.9757 19.9303 32.9271 20.2564 32.9919C20.4936 33.039 20.7833 33.183 20.9073 33.3748C21.4638 34.2358 21.9693 35.1292 22.5377 36.0858C22.9874 35.2763 23.444 34.5565 23.7963 33.7893C24.0925 33.1441 24.4943 32.8335 25.2115 32.9719C25.3776 33.0039 25.5523 32.9916 25.8232 33.0044C25.3385 33.8053 24.8898 34.5465 24.4131 35.3267Z" fill="#212529"/>
<path d="M79.3653 48.5864C78.8609 49.672 77.9411 49.2139 77.1382 49.3205C77.1382 47.9098 77.1382 46.5615 77.1382 45.1711C77.4549 45.1711 77.7485 45.1711 78.1014 45.1711C78.1014 46.265 78.1014 47.346 78.1014 48.427C78.1451 48.4456 78.1888 48.4642 78.2325 48.4828C78.8453 47.6766 79.5471 46.921 80.0475 46.0509C80.6266 45.0439 81.4381 45.0255 82.4168 45.192C82.4168 46.5497 82.4168 47.8959 82.4168 49.2768C82.0999 49.2768 81.8015 49.2768 81.4313 49.2768C81.4313 48.1998 81.4313 47.1227 81.4313 46.0456C81.3872 46.031 81.3431 46.0164 81.299 46.0018C80.6646 46.8508 80.0302 47.6998 79.3653 48.5864Z" fill="#212529"/>
<path d="M74.9271 47.4506C74.9271 48.0831 74.9271 48.6503 74.9271 49.2639C74.5909 49.2639 74.2804 49.2639 73.9161 49.2639C73.9161 48.1806 73.9161 47.1186 73.9161 46.0566C73.8727 46.0366 73.8292 46.0166 73.7857 45.9965C73.3489 46.5769 72.9118 47.1571 72.4754 47.7378C72.3703 47.8778 72.2442 48.0081 72.1676 48.1624C71.6483 49.2082 70.8229 49.5683 69.6499 49.2342C69.6499 47.9183 69.6499 46.5567 69.6499 45.1634C69.9397 45.1634 70.217 45.1634 70.5554 45.1634C70.5554 46.244 70.5554 47.3263 70.5554 48.4086C70.6025 48.4328 70.6497 48.457 70.6968 48.4812C70.847 48.2929 71.0008 48.1074 71.1467 47.9159C71.6779 47.2188 72.2457 46.5451 72.7232 45.8131C73.0767 45.2712 73.4904 45.0264 74.1314 45.128C74.3643 45.1649 74.6081 45.1339 74.9271 45.1339C74.9271 45.9146 74.9271 46.6498 74.9271 47.4506Z" fill="#212529"/>
<path d="M3.29248 15.9519C3.51812 16.0162 3.73694 16.1437 3.971 16.2307C4.15586 16.2993 4.43395 16.414 4.5363 16.3354C4.67128 16.2317 4.72591 15.9588 4.72608 15.7586C4.72678 14.9041 4.70178 14.0492 4.6708 13.195C4.65969 12.8886 4.60532 12.5837 4.58732 12.4249C4.58732 11.4152 4.61576 10.5396 4.5793 9.66668C4.54312 8.80039 4.15649 7.83047 4.43333 7.09611C4.88657 5.89382 4.39206 4.71072 4.71595 3.5399C4.83883 3.0957 4.54884 2.53853 4.44172 2.00645C4.10874 2.13674 3.81843 2.25034 3.47661 2.36125C4.00936 1.96441 4.59363 1.57027 5.2297 1.22852C5.32323 1.53625 5.40512 1.79242 5.39982 2.04678C5.37541 3.21725 5.28647 4.38773 5.30134 5.55719C5.31067 6.29107 5.46281 7.02315 5.55091 7.80598C5.58881 8.04065 5.62666 8.22538 5.66452 8.41011C5.63041 9.16327 5.59631 9.91644 5.5074 10.7338C5.40482 10.9703 5.2626 11.2407 5.32426 11.2995C5.80211 11.7549 5.44077 12.2084 5.39338 12.6755C5.22597 14.3255 5.13956 15.9783 5.50212 17.6133C5.38753 17.6172 5.32206 17.6203 5.2566 17.6233C4.60181 17.0814 3.94702 16.5395 3.29248 15.9519Z" fill="#212529"/>
<path d="M8.07684 13.5363C8.07684 13.5363 8.13694 13.5411 8.18638 13.5909C8.28467 13.7134 8.31982 13.8328 8.38453 13.8516C8.98439 14.026 9.10789 14.3928 8.89987 14.95C8.86108 15.0538 8.94373 15.2802 9.0406 15.3433C9.47994 15.6291 9.40412 15.9583 9.23747 16.3645C9.13447 16.6155 9.10835 16.9197 9.12804 17.1943C9.17717 17.8797 9.24321 18.5565 8.67586 19.1673C8.55978 19.1773 8.36522 19.1939 8.17066 19.2106C8.17066 19.2106 8.18885 19.2058 8.18258 19.1642C7.61488 18.8805 7.05344 18.6383 6.49201 18.3961C6.49201 18.3961 6.48356 18.4027 6.48056 18.3678C6.47757 18.3329 6.47784 18.2731 6.52309 18.2467C6.62552 17.9997 6.70622 17.7822 6.73589 17.5579C6.8791 16.4757 6.45791 15.3529 6.9745 14.2914C7.01515 14.2079 6.93926 14.0266 6.86315 13.9359C6.56025 13.5748 6.65937 13.232 6.90534 12.8824C6.96516 12.8806 6.98905 12.8788 7.01294 12.877C7.01294 12.877 7.00312 12.8805 7.01131 12.9242C7.23997 13.0674 7.46044 13.1669 7.68091 13.2664C7.68091 13.2664 7.67007 13.2736 7.68354 13.3003C7.73556 13.353 7.77411 13.3789 7.81267 13.4048C7.81267 13.4048 7.87205 13.411 7.9181 13.4464C7.99528 13.5132 8.03284 13.5313 8.07684 13.5363Z" fill="#212529"/>
<path d="M99.4168 45.6997C99.2307 45.812 99.0472 45.9198 98.8615 45.9238C98.0044 45.9424 97.1466 45.932 96.245 45.932C96.245 46.2244 96.245 46.494 96.245 46.824C97.2492 46.824 98.25 46.824 99.2974 46.824C99.3152 47.0873 99.3292 47.2947 99.348 47.5738C98.2863 47.5738 97.2649 47.5738 96.228 47.5738C96.228 47.9152 96.228 48.1877 96.228 48.4985C97.2817 48.4985 98.3098 48.4985 99.3781 48.4985C99.3781 48.7674 99.3781 48.9979 99.3781 49.2722C98.013 49.2722 96.6394 49.2722 95.2217 49.2722C95.2217 47.9314 95.2217 46.5846 95.2217 45.1836C96.5743 45.1836 97.9473 45.1836 99.3738 45.1836C99.3862 45.313 99.4023 45.4802 99.4168 45.6997Z" fill="#212529"/>
<path d="M14.0977 49.2774C13.3417 49.116 13.0857 48.6375 13.0838 47.9756C13.0824 47.4513 13.0707 46.9264 13.0905 46.4028C13.1233 45.5308 13.4555 45.1603 14.3283 45.1127C15.1165 45.0697 15.9105 45.074 16.6993 45.1126C17.4918 45.1514 17.8305 45.4555 17.8973 46.2258C17.9554 46.8967 17.9512 47.58 17.8968 48.2516C17.8388 48.9684 17.5129 49.2618 16.7889 49.2861C15.9117 49.3156 15.0325 49.2888 14.0977 49.2774ZM16.2539 48.4874C16.7591 48.4872 16.959 48.222 16.9294 47.7379C16.9148 47.4987 16.9313 47.2578 16.93 47.0176C16.9248 46.0321 16.8317 45.9184 15.8493 45.9196C13.9158 45.9219 14.0559 45.823 14.0921 47.8428C14.0999 48.275 14.3288 48.479 14.7507 48.4838C15.2116 48.4891 15.6726 48.4883 16.2539 48.4874Z" fill="#212529"/>
<path d="M55.9279 46.2188C56.0124 45.4009 56.5217 45.1285 57.2027 45.1068C57.9706 45.0823 58.7413 45.0742 59.5082 45.1113C60.3301 45.151 60.6734 45.4613 60.7333 46.27C60.7846 46.9629 60.7609 47.6658 60.7114 48.3601C60.6698 48.943 60.2845 49.2664 59.7053 49.2835C58.8276 49.3094 57.9473 49.3234 57.0706 49.2856C56.3341 49.2538 55.9663 48.865 55.9229 48.1098C55.8878 47.5004 55.9196 46.8872 55.9279 46.2188ZM57.9777 48.4927C58.2191 48.4927 58.4605 48.4935 58.7019 48.4924C59.6855 48.488 59.7513 48.4232 59.7565 47.456C59.7571 47.3469 59.7567 47.2377 59.7566 47.1286C59.7552 45.9813 59.6894 45.9165 58.5265 45.9158C56.8806 45.9148 56.8806 45.9148 56.9104 47.5311C56.926 48.3719 56.9989 48.446 57.9777 48.4927Z" fill="#212529"/>
<path d="M28.2912 45.1309C29.3205 45.1309 30.2849 45.1309 31.2895 45.1309C31.2895 45.3997 31.2895 45.6284 31.2895 45.9262C30.2546 45.9262 29.2132 45.9262 28.1389 45.9262C28.1389 46.2463 28.1389 46.4983 28.1389 46.8064C29.1441 46.8064 30.1445 46.8064 31.1841 46.8064C31.1841 47.0888 31.1841 47.3165 31.1841 47.5909C30.1589 47.5909 29.1558 47.5909 28.129 47.5909C28.129 47.9096 28.129 48.182 28.129 48.4951C29.1776 48.4951 30.2041 48.4951 31.2932 48.4951C31.3099 48.7594 31.3244 48.9878 31.342 49.2644C29.9293 49.2644 28.5399 49.2644 27.1216 49.2644C27.1216 47.9086 27.1216 46.5611 27.1216 45.1309C27.4931 45.1309 27.8597 45.1309 28.2912 45.1309Z" fill="#212529"/>
<path d="M88.0435 45.5371C88.1474 44.7552 88.6843 45.3486 89.0353 44.9707C89.0353 46.2537 89.0353 47.3349 89.0353 48.4529C89.9031 48.4529 90.7058 48.4529 91.5732 48.4529C91.5732 47.383 91.5732 46.3016 91.5732 45.1766C91.9323 45.1766 92.2283 45.1766 92.6182 45.1766C92.6182 46.0623 92.6043 46.9501 92.6271 47.837C92.6335 48.087 92.4204 48.4961 92.9648 48.5191C93.001 48.5206 93.0519 48.7421 93.0547 48.8622C93.0653 49.3198 93.059 49.7779 93.059 50.2811C92.7602 50.2811 92.4905 50.2811 92.1748 50.2811C92.1546 49.9793 92.1347 49.6811 92.1104 49.3179C90.7715 49.3179 89.4404 49.3179 88.0435 49.3179C88.0435 48.0345 88.0435 46.8157 88.0435 45.5371Z" fill="#212529"/>
<path d="M20.4708 45.1357C20.8879 45.0844 20.976 45.2628 20.9705 45.5924C20.9545 46.5331 20.9649 47.4742 20.9649 48.4537C21.8028 48.4537 22.6102 48.4537 23.4809 48.4537C23.4809 47.3949 23.4809 46.3114 23.4809 45.1811C23.8368 45.1811 24.1312 45.1811 24.505 45.1811C24.505 45.8092 24.4513 46.4439 24.5215 47.0647C24.5807 47.5877 24.138 48.2855 24.9603 48.6013C24.9603 49.1423 24.9603 49.6872 24.9603 50.2785C24.6753 50.2785 24.4046 50.2785 24.0857 50.2785C24.0691 49.9877 24.0521 49.689 24.0319 49.3345C22.6999 49.3345 21.3664 49.3345 19.9587 49.3345C19.9587 47.9957 19.9485 46.7111 19.9784 45.4274C19.9807 45.3269 20.2625 45.2328 20.4708 45.1357Z" fill="#212529"/>
<path d="M43.6714 48.482C43.6714 47.3518 43.6714 46.2845 43.6714 45.1744C44.0148 45.1744 44.3079 45.1744 44.6652 45.1744C44.6652 45.6904 44.6652 46.2065 44.6652 46.7228C45.5342 46.7228 46.3402 46.7228 47.2057 46.7228C47.2057 46.2037 47.2057 45.71 47.2057 45.1738C47.56 45.1738 47.8551 45.1738 48.1921 45.1738C48.1921 46.5396 48.1921 47.9019 48.1921 49.2833C47.8745 49.2833 47.5767 49.2833 47.2259 49.2833C47.2259 48.7192 47.2259 48.182 47.2259 47.6148C46.3678 47.6148 45.5625 47.6148 44.6883 47.6148C44.6883 48.157 44.6883 48.7123 44.6883 49.2832C44.323 49.2832 44.0265 49.2832 43.6714 49.2832C43.6714 49.0177 43.6714 48.7813 43.6714 48.482Z" fill="#212529"/>
<path d="M106.064 45.5459C106.064 46.8246 106.064 48.0442 106.064 49.2867C105.72 49.2867 105.438 49.2867 105.087 49.2867C105.087 48.7469 105.087 48.1941 105.087 47.6124C104.216 47.6124 103.413 47.6124 102.532 47.6124C102.532 48.1585 102.532 48.7109 102.532 49.2835C102.158 49.2835 101.86 49.2835 101.532 49.2835C101.532 47.9103 101.532 46.5636 101.532 45.173C101.833 45.173 102.128 45.173 102.511 45.173C102.511 45.6843 102.511 46.1943 102.511 46.7249C103.401 46.7249 104.206 46.7249 105.054 46.7249C105.054 46.207 105.054 45.7093 105.054 45.1456C105.435 45.2485 105.914 44.793 106.064 45.5459Z" fill="#212529"/>
<path d="M4.6953 49.2868C4.39659 49.3072 4.15502 49.3072 3.81923 49.3072C3.81923 48.7659 3.81923 48.2306 3.81923 47.6952C3.81923 47.1526 3.81923 46.6099 3.81923 46.0279C2.9586 46.0279 2.1384 46.0279 1.2668 46.0279C1.2668 47.1094 1.2668 48.172 1.2668 49.2724C0.920717 49.2724 0.624673 49.2724 0.294434 49.2724C0.294434 47.9196 0.294434 46.5551 0.294434 45.1602C1.78679 45.1602 3.25213 45.1602 4.75244 45.1602C4.75244 46.5331 4.75244 47.8998 4.6953 49.2868Z" fill="#212529"/>
<path d="M37.6651 46.5422C37.523 46.5349 37.3858 46.5592 37.3573 46.5147C36.6843 45.4641 35.6781 46.0329 34.8008 45.9857C34.7798 45.9846 34.7531 45.9888 34.7375 46.0011C34.0899 46.5095 34.4607 47.2108 34.41 47.825C34.3771 48.2241 34.6391 48.4721 35.0672 48.4792C35.5287 48.4867 35.9985 48.5391 36.4492 48.4708C36.7766 48.4212 37.0788 48.2072 37.3923 48.0666C37.3688 48.0054 37.3454 47.9443 37.3219 47.8832C37.6018 47.8832 37.8817 47.8832 38.1576 47.8832C38.2987 48.8699 37.9945 49.264 37.0393 49.293C36.2488 49.3171 35.4563 49.3154 34.6658 49.2904C33.7859 49.2625 33.4617 48.925 33.4284 48.0321C33.4081 47.4864 33.406 46.9386 33.4263 46.3929C33.4586 45.5209 33.7819 45.165 34.6692 45.1106C35.4137 45.065 36.165 45.0701 36.9103 45.1092C37.8375 45.1579 38.1592 45.5186 38.2307 46.5076C38.0607 46.519 37.8907 46.5304 37.6651 46.5422Z" fill="#212529"/>
<path d="M114.322 48.2332C114.322 47.1878 114.322 46.2069 114.322 45.2157C115.5 45.2157 116.653 45.1672 117.799 45.2365C118.357 45.2703 118.625 45.844 118.614 46.6216C118.602 47.4918 118.34 47.9517 117.647 48.0247C116.914 48.102 116.166 48.042 115.377 48.042C115.352 48.5052 115.331 48.8835 115.309 49.2859C114.979 49.2859 114.681 49.2859 114.322 49.2859C114.322 48.9409 114.322 48.6193 114.322 48.2332ZM117.439 47.1313C117.808 46.3141 117.615 45.9935 116.747 45.987C116.295 45.9835 115.842 45.9863 115.391 45.9863C115.391 46.444 115.391 46.8378 115.391 47.2786C116.075 47.2451 116.705 47.2143 117.439 47.1313Z" fill="#212529"/>
<path d="M7.062 45.1372C8.00161 45.1343 8.88028 45.1124 9.75708 45.1431C10.7945 45.1795 11.1471 45.5769 11.1478 46.6236C11.1484 47.6419 10.7561 48.059 9.73078 48.0915C9.12169 48.1107 8.51148 48.095 7.85657 48.095C7.85657 48.5269 7.85657 48.8922 7.85657 49.2828C7.51407 49.2828 7.21771 49.2828 6.88242 49.2828C6.88242 47.9365 6.8812 46.6099 6.88739 45.2834C6.88761 45.2359 6.96096 45.1888 7.062 45.1372ZM8.54162 45.9821C8.33071 45.9821 8.1198 45.9821 7.89839 45.9821C7.89839 46.4401 7.89839 46.8208 7.89839 47.2435C8.48108 47.2435 9.02468 47.2493 9.56808 47.2416C10.0167 47.2352 10.1812 46.9645 10.1644 46.5552C10.1479 46.1502 9.91383 45.9776 9.52123 45.9821C9.23606 45.9853 8.95081 45.9822 8.54162 45.9821Z" fill="#212529"/>
<path d="M17.2407 10.5256C17.3746 9.95725 17.5671 9.38938 17.7468 8.81755C17.7827 8.70357 17.7892 8.5723 17.776 8.45266C17.7175 7.92613 17.5411 7.3874 17.6069 6.87864C17.6928 6.21519 17.762 5.608 17.4097 4.99253C17.3501 4.88827 17.595 4.61154 17.7076 4.36719C18.8639 5.51268 19.4272 7.01456 19.9511 8.53327C20.1065 8.98384 20.2032 9.45445 20.33 9.92777C19.3016 10.13 18.2982 10.3273 17.2407 10.5256Z" fill="#212529"/>
<path d="M8.19629 19.251C8.36551 19.1935 8.56007 19.1768 8.67615 19.1668C9.2435 18.556 9.17746 17.8793 9.12832 17.1938C9.10864 16.9192 9.13476 16.6151 9.23776 16.364C9.40441 15.9578 9.48023 15.6287 9.04089 15.3428C8.94401 15.2798 8.86137 15.0534 8.90016 14.9495C9.10818 14.3923 8.98468 14.0255 8.38482 13.8512C8.32011 13.8323 8.28496 13.7129 8.21538 13.5996C9.4093 13.8857 10.6239 14.2123 11.8785 14.5496C10.5783 16.0508 10.1694 17.9027 10.0051 19.9177C9.36507 19.6931 8.79335 19.4925 8.19629 19.251Z" fill="#212529"/>
<path d="M6.30442 0.680128C6.59709 0.681841 6.84672 0.702347 7.08993 0.671992C7.42236 0.630502 7.74991 0.550319 8.20308 0.462891C8.2938 1.73186 8.37612 2.87834 8.45681 4.02492C8.46137 4.08978 8.47889 4.19165 8.44592 4.2155C7.96581 4.5629 8.22032 5.02934 8.22331 5.50043C8.21439 5.54521 8.20838 5.53968 8.15826 5.53332C7.96551 5.62732 7.82287 5.72767 7.68024 5.82803C7.35911 6.11575 7.03798 6.40346 6.6687 6.65614C6.67759 6.0273 6.80023 5.431 6.7776 4.8402C6.73424 3.70836 6.60833 2.57964 6.51668 1.44962C6.58683 1.42567 6.65698 1.40172 6.72713 1.37777C6.38091 1.23406 6.0347 1.09035 5.68848 0.946645C5.87849 0.856513 6.0685 0.766382 6.30442 0.680128Z" fill="#212529"/>
<path d="M6.86944 12.8818C6.6594 13.2313 6.56028 13.5741 6.86318 13.9352C6.93929 14.0259 7.01518 14.2072 6.97454 14.2907C6.45794 15.3522 6.87913 16.4749 6.73593 17.5572C6.70625 17.7814 6.62556 17.999 6.48556 18.2463C6.37799 18.2764 6.35322 18.2797 6.32845 18.2831C6.32845 18.2831 6.3404 18.2841 6.32063 18.2516C6.22333 18.1951 6.1458 18.171 6.06826 18.1469C6.06826 18.1469 6.07772 18.1416 6.07233 18.1016C5.89491 17.9119 5.72288 17.7622 5.55084 17.6125C5.13915 15.9785 5.22557 14.3257 5.39297 12.6757C5.44036 12.2086 5.80171 11.7551 5.32386 11.2997C5.26219 11.2409 5.40442 10.9705 5.49999 10.7891C5.72961 11.1746 5.91144 11.5693 6.09234 12.0598C6.31223 12.3072 6.53304 12.4588 6.75385 12.6103C6.75385 12.6103 6.74414 12.6154 6.75799 12.6437C6.81319 12.6945 6.85454 12.717 6.89589 12.7396C6.89589 12.7396 6.88576 12.7462 6.87961 12.777C6.87212 12.8325 6.87078 12.8572 6.86944 12.8818Z" fill="#212529"/>
<path d="M5.657 0.945312C6.03468 1.09196 6.3809 1.23567 6.72712 1.37938C6.65697 1.40333 6.58681 1.42728 6.51666 1.45123C6.60831 2.58124 6.73422 3.70996 6.77758 4.84181C6.80021 5.43261 6.67757 6.02891 6.62835 6.67498C6.63616 6.72724 6.62836 6.72405 6.59659 6.73038C6.53725 6.77403 6.50967 6.81136 6.48209 6.84868C6.48209 6.84868 6.47881 6.83683 6.43408 6.83905C6.13323 6.96519 5.87713 7.08911 5.62102 7.21302C5.65954 7.23761 5.69807 7.2622 5.73659 7.28678C5.6746 7.44333 5.6126 7.59987 5.55061 7.75642C5.46254 7.02353 5.3104 6.29144 5.30107 5.55756C5.28621 4.3881 5.37515 3.21763 5.39956 2.04716C5.40486 1.79279 5.32296 1.53663 5.27657 1.22597C5.27191 1.17065 5.27464 1.17415 5.31648 1.17411C5.41998 1.12599 5.48164 1.0779 5.5433 1.02982C5.5519 0.983162 5.57931 0.954013 5.657 0.945312Z" fill="#212529"/>
<path d="M109.162 45.9915C108.751 45.9915 108.405 45.9915 108.024 45.9915C108.024 45.686 108.024 45.4385 108.024 45.1621C109.515 45.1621 110.975 45.1621 112.456 45.1621C112.456 45.4336 112.456 45.6705 112.456 45.9567C111.913 45.9567 111.373 45.9567 110.765 45.9567C110.765 47.0809 110.765 48.1596 110.765 49.275C110.403 49.275 110.106 49.275 109.715 49.275C109.715 48.3315 109.693 47.3804 109.724 46.4309C109.738 46.0229 109.564 45.9436 109.162 45.9915Z" fill="#212529"/>
<path d="M52.8496 45.9878C52.3084 45.9877 51.8304 45.9877 51.3059 45.9877C51.3059 47.1124 51.3059 48.1758 51.3059 49.2743C50.9627 49.2743 50.6667 49.2743 50.3438 49.2743C50.3438 47.9155 50.3438 46.5665 50.3438 45.1738C51.4911 45.1738 52.622 45.1738 53.8064 45.1738C53.8064 45.41 53.8064 45.6567 53.8064 45.9878C53.5108 45.9878 53.2118 45.9878 52.8496 45.9878Z" fill="#212529"/>
<path d="M41.4949 48.7468C41.5403 49.721 40.8793 49.1478 40.5093 49.3313C40.5093 47.91 40.5093 46.5617 40.5093 45.168C40.8172 45.168 41.1123 45.168 41.4944 45.168C41.4944 46.3355 41.4944 47.5095 41.4949 48.7468Z" fill="#212529"/>
<path d="M113.406 31.453C113.85 31.3846 114.243 31.1794 114.607 31.7191C114.751 31.9318 115.553 31.9131 115.912 31.7261C116.492 31.4227 116.442 31.3275 117.101 31.4092C117.214 31.9789 116.955 32.3759 116.413 32.4394C115.684 32.5247 114.936 32.5168 114.201 32.4749C113.64 32.4429 113.349 32.0796 113.406 31.453Z" fill="#212529"/>
<path d="M79.4506 44.3266C79.7482 44.2354 79.9842 44.1274 80.2298 44.0494C80.4605 43.976 80.7014 43.9344 80.9484 43.8763C80.9912 44.5969 80.8207 44.7669 80.0785 44.8281C78.7092 44.9411 78.3145 44.7629 78.2192 43.793C78.6733 43.9979 79.0332 44.1604 79.4506 44.3266Z" fill="#212529"/>
<path d="M58.0122 35.7538C58.0122 34.8157 58.0122 33.9433 58.0122 33.0273C58.456 33.0273 58.8597 33.0273 59.3031 33.0273C59.3031 34.8349 59.3031 36.6406 59.3031 38.4911C58.8985 38.4911 58.4947 38.4911 58.0122 38.4911C58.0122 37.6001 58.0122 36.7098 58.0122 35.7538ZM58.856 33.127C58.3277 33.0425 58.1201 33.2243 58.137 33.7943C58.1771 35.1481 58.1613 36.504 58.1427 37.8587C58.1373 38.2568 58.27 38.3957 58.6728 38.3929C59.0616 38.3903 59.2198 38.281 59.2141 37.8698C59.1946 36.4496 59.2139 35.0288 59.1964 33.6085C59.1945 33.4502 59.0512 33.2936 58.856 33.127Z" fill="#212529"/>
<path d="M113.243 37.2633C113.2 36.7883 113.148 36.2532 113.133 35.717C113.115 35.0632 113.114 34.4081 113.134 33.7544C113.147 33.3507 113.098 33.1024 112.582 33.1095C112.097 33.1161 112.062 33.3502 112.066 33.7241C112.078 35.0762 112.093 36.429 112.059 37.7804C112.046 38.2948 112.243 38.4194 112.712 38.391C113.169 38.3633 113.63 38.4055 114.132 38.449C113.454 38.4809 112.734 38.4809 111.967 38.4809C111.967 36.6893 111.967 34.883 111.967 33.0273C112.36 33.0273 112.764 33.0273 113.251 33.0273C113.251 34.415 113.251 35.8088 113.243 37.2633Z" fill="#212529"/>
<path d="M83.4603 33.0057C83.202 33.0789 82.8857 33.1328 82.4669 33.2041C82.4669 33.6975 82.4669 34.2117 82.4669 34.726C82.4669 35.7716 82.4808 36.8175 82.46 37.8626C82.452 38.263 82.5947 38.3923 82.9924 38.3895C84.1954 38.3811 85.3986 38.4058 86.6449 38.4496C85.2611 38.4816 83.8341 38.4816 82.3525 38.4816C82.3525 36.6837 82.3525 34.8644 82.3525 32.9863C82.7108 32.9863 83.0566 32.9863 83.4603 33.0057Z" fill="#212529"/>
<path d="M57.1101 31.7107C57.5192 31.5985 57.9202 31.5471 58.3794 31.4883C58.3794 31.8958 58.3794 32.228 58.3794 32.5946C57.975 32.5946 57.5864 32.5946 57.1021 32.5946C57.1021 32.3205 57.1021 32.046 57.1101 31.7107Z" fill="#212529"/>
<path d="M64.1647 33.0022C63.908 33.0755 63.593 33.131 63.172 33.2052C63.172 33.8434 63.172 34.5091 63.172 35.1748C63.172 36.0226 63.1556 36.871 63.1832 37.7179C63.1904 37.9377 63.2764 38.2696 63.4292 38.3459C63.7377 38.5 64.0536 38.3718 64.2582 38.0045C64.4035 38.3766 64.2892 38.5767 63.8521 38.5404C63.5953 38.5191 63.3353 38.5365 63.0449 38.5365C63.0449 36.6595 63.0449 34.8536 63.0449 32.9844C63.4146 32.9844 63.7605 32.9844 64.1647 33.0022Z" fill="#212529"/>
<path d="M108.337 37.67C108.253 37.6132 108.12 37.4964 108.118 37.378C108.104 36.2199 108.109 35.0615 108.118 33.9032C108.118 33.8291 108.191 33.7555 108.278 33.6641C108.334 34.9673 108.342 36.2883 108.337 37.67Z" fill="#212529"/>
<path d="M101.699 32.9939C101.627 33.2219 101.39 33.4363 101.384 33.6566C101.349 35.031 101.388 36.4072 101.355 37.7817C101.343 38.2982 101.542 38.4192 102.01 38.3914C102.467 38.3643 102.929 38.4071 103.43 38.4522C102.755 38.4853 102.037 38.4853 101.228 38.4853C101.228 37.7703 101.228 37.0381 101.228 36.3059C101.228 35.3476 101.237 34.3891 101.222 33.4309C101.217 33.1188 101.265 32.914 101.699 32.9939Z" fill="#212529"/>
<path d="M107.025 34.2402C107.082 34.4037 107.17 34.6272 107.173 34.8519C107.187 35.9876 107.18 37.1236 107.18 38.3918C107.569 38.3448 107.897 38.3053 108.275 38.2554C108.206 38.3431 108.097 38.5052 107.966 38.526C107.69 38.5698 107.402 38.5393 107.017 38.5393C107.017 37.1066 107.017 35.7037 107.025 34.2402Z" fill="#212529"/>
<path d="M29.1763 33.0781C29.1994 34.7491 29.1872 36.3886 29.1431 38.0716C29.1211 36.4255 29.131 34.7361 29.1763 33.0781Z" fill="#212529"/>
<path d="M102.574 37.3884C102.529 37.209 102.437 36.9711 102.428 36.7302C102.386 35.5214 102.365 34.3118 102.315 33.0527C102.381 33.153 102.543 33.3016 102.545 33.453C102.569 34.7446 102.563 36.0366 102.574 37.3884Z" fill="#212529"/>
<path d="M60.2658 32.0755C60.3113 32.4751 60.224 32.6773 59.8194 32.6325C59.5618 32.604 59.2983 32.6272 58.9863 32.6272C58.9863 32.2736 58.9863 31.9433 58.9863 31.4609C59.3777 31.8545 60.1328 30.9587 60.2658 32.0755ZM59.0901 32.2581C59.3168 32.3271 59.5415 32.4363 59.7712 32.448C59.8837 32.4538 60.104 32.2756 60.1015 32.1855C60.097 32.0238 59.9876 31.7533 59.8752 31.727C59.5257 31.6455 59.0983 31.5573 59.0901 32.2581Z" fill="#212529"/>
<path d="M5.55078 7.80648C5.61274 7.6 5.67473 7.44346 5.73673 7.28691C5.6982 7.26232 5.65968 7.23774 5.62115 7.21315C5.87726 7.08924 6.13337 6.96532 6.43835 6.84375C6.22615 7.33843 5.96508 7.83077 5.6842 8.36686C5.62653 8.22589 5.58868 8.04115 5.55078 7.80648Z" fill="#212529"/>
<path d="M6.521 18.4297C7.05386 18.6372 7.6153 18.8794 8.17655 19.17C7.6341 18.967 7.09183 18.7157 6.521 18.4297Z" fill="#212529"/>
<path d="M29.6631 38.5239C29.8009 38.4388 29.9979 38.3658 30.2293 38.28C30.2588 37.6496 30.2889 37.0039 30.3586 36.3203C30.398 37.0143 30.398 37.7459 30.398 38.536C30.1461 38.536 29.9342 38.536 29.6631 38.5239Z" fill="#212529"/>
<path d="M14.79 9.91992C14.8839 10.104 14.9982 10.3389 15.0594 10.5868C15.12 10.832 15.127 11.0902 15.1795 11.392C15.1133 11.4072 14.9547 11.3837 14.9478 11.3375C14.8798 10.886 14.8371 10.4307 14.79 9.91992Z" fill="#212529"/>
<path d="M108.335 33.206C107.597 33.2172 106.867 33.1724 106.077 33.1289C106.793 33.1368 107.568 33.1435 108.335 33.206Z" fill="#212529"/>
<path d="M6.73702 12.5683C6.53315 12.4579 6.31233 12.3064 6.09375 12.1055C6.30401 12.2131 6.51205 12.3702 6.73702 12.5683Z" fill="#212529"/>
<path d="M5.50208 17.6133C5.72325 17.762 5.89528 17.9118 6.07042 18.1063C5.81603 18.0015 5.55854 17.8518 5.27881 17.6627C5.32203 17.6203 5.38749 17.6173 5.50208 17.6133Z" fill="#212529"/>
<path d="M7.65754 13.2286C7.46051 13.1663 7.24004 13.0668 7.01514 12.9199C7.2185 12.9789 7.4263 13.0851 7.65754 13.2286Z" fill="#212529"/>
<path d="M2.5294 3.63896C2.44646 3.67987 2.38225 3.678 2.27002 3.67063C2.3332 3.50379 2.4444 3.34246 2.59575 3.16406C2.60665 3.29672 2.57739 3.44645 2.5294 3.63896Z" fill="#212529"/>
<path d="M14.5176 8.85352C14.6 9.04103 14.6818 9.27974 14.7355 9.55295C14.644 9.35986 14.5805 9.13229 14.5176 8.85352Z" fill="#212529"/>
<path d="M16.5889 10.8079C16.722 10.7156 16.9017 10.6174 17.1356 10.5215C17.005 10.6165 16.8202 10.7092 16.5889 10.8079Z" fill="#212529"/>
<path d="M7.72363 5.81883C7.82282 5.72877 7.96546 5.62841 8.16202 5.5332C8.06632 5.62842 7.9167 5.71848 7.72363 5.81883Z" fill="#212529"/>
<path d="M14.0005 7.66602C14.0863 7.76695 14.1782 7.91161 14.269 8.10717C14.1807 8.00862 14.0937 7.85918 14.0005 7.66602Z" fill="#212529"/>
<path d="M16.4971 2.85586C16.3881 2.82174 16.2639 2.74887 16.1401 2.62695C16.2543 2.65764 16.3681 2.73738 16.4971 2.85586Z" fill="#212529"/>
<path d="M14.5358 1.53067C14.4357 1.50238 14.3207 1.43681 14.2354 1.34375C14.3503 1.3753 14.4356 1.43435 14.5358 1.53067Z" fill="#212529"/>
<path d="M14.2656 8.19531C14.309 8.2229 14.3523 8.29404 14.3945 8.40974C14.3509 8.38248 14.3082 8.31068 14.2656 8.19531Z" fill="#212529"/>
<path d="M6.08789 18.1826C6.146 18.1707 6.22353 18.1949 6.31889 18.2574C6.26025 18.2701 6.18378 18.2444 6.08789 18.1826Z" fill="#212529"/>
<path d="M5.50321 1.0332C5.48196 1.07737 5.4203 1.12572 5.31641 1.17349C5.33705 1.12773 5.39992 1.08256 5.50321 1.0332Z" fill="#212529"/>
<path d="M15.5044 11.3115C15.527 11.2699 15.5894 11.2258 15.6924 11.1797C15.67 11.2215 15.6071 11.2652 15.5044 11.3115Z" fill="#212529"/>
<path d="M29.1123 38.417C29.1763 38.4006 29.2399 38.4259 29.3218 38.4813C29.264 38.4938 29.188 38.4763 29.1123 38.417Z" fill="#212529"/>
<path d="M15.7695 11.1782C15.7933 11.1371 15.8575 11.0941 15.9629 11.0508C15.9394 11.0924 15.8747 11.1344 15.7695 11.1782Z" fill="#212529"/>
<path d="M16.2983 10.9083C16.3269 10.8613 16.3962 10.826 16.5066 10.7969C16.4782 10.842 16.4086 10.8811 16.2983 10.9083Z" fill="#212529"/>
<path d="M2.99719 2.75391C3.00717 2.78294 2.98194 2.82165 2.92335 2.87263C2.91399 2.84447 2.93799 2.80403 2.99719 2.75391Z" fill="#212529"/>
<path d="M17.6875 4.17384C17.6457 4.18963 17.6176 4.16151 17.5913 4.09421C17.6191 4.08998 17.6551 4.11494 17.6875 4.17384Z" fill="#212529"/>
<path d="M6.88507 12.7046C6.85483 12.7173 6.81348 12.6946 6.75879 12.638C6.78829 12.6259 6.83112 12.6476 6.88507 12.7046Z" fill="#212529"/>
<path d="M16.0326 11.0465C16.0232 11.0163 16.0497 10.9784 16.1092 10.9277C16.1176 10.9563 16.093 10.9976 16.0326 11.0465Z" fill="#212529"/>
<path d="M3.39649 2.36523C3.40613 2.39344 3.38137 2.43112 3.32458 2.48178C3.31573 2.45474 3.33891 2.41473 3.39649 2.36523Z" fill="#212529"/>
<path d="M3.2636 2.49609C3.27266 2.52442 3.24687 2.56197 3.18813 2.61141C3.17971 2.58397 3.20423 2.54465 3.2636 2.49609Z" fill="#212529"/>
<path d="M6.51796 6.83932C6.50992 6.81084 6.5375 6.77332 6.59987 6.72656C6.60764 6.75498 6.58061 6.79262 6.51796 6.83932Z" fill="#212529"/>
<path d="M3.12931 2.62305C3.13954 2.65203 3.11471 2.69089 3.05676 2.74239C3.04718 2.71432 3.07072 2.67362 3.12931 2.62305Z" fill="#212529"/>
<path d="M6.90559 12.8819C6.871 12.8572 6.87234 12.8324 6.87981 12.7705C6.92252 12.7585 6.95909 12.7834 7.00443 12.8424C6.98931 12.8782 6.96542 12.88 6.90559 12.8819Z" fill="#212529"/>
<path d="M2.86476 2.88477C2.87563 2.91365 2.85168 2.95266 2.79531 3.00514C2.78523 2.97737 2.80759 2.93613 2.86476 2.88477Z" fill="#212529"/>
<path d="M16.6354 2.99506C16.6044 3.01226 16.5722 2.98855 16.5332 2.92819C16.5663 2.90304 16.6022 2.92391 16.6354 2.99506Z" fill="#212529"/>
<path d="M2.73491 3.02148C2.7452 3.04962 2.721 3.08737 2.66515 3.1384C2.6558 3.11149 2.67811 3.0713 2.73491 3.02148Z" fill="#212529"/>
<path d="M17.58 4.03441C17.5513 4.04211 17.5139 4.01443 17.4663 3.95235C17.4945 3.94499 17.533 3.97201 17.58 4.03441Z" fill="#212529"/>
<path d="M17.4598 3.89745C17.4294 3.90668 17.3889 3.87983 17.3398 3.81627C17.3707 3.80684 17.4103 3.83411 17.4598 3.89745Z" fill="#212529"/>
<path d="M17.1834 3.6418C17.1561 3.64981 17.1179 3.62338 17.0669 3.5638C17.0936 3.55622 17.133 3.58179 17.1834 3.6418Z" fill="#212529"/>
<path d="M7.80111 13.3692C7.77443 13.378 7.73588 13.352 7.68457 13.2926C7.71096 13.2843 7.7501 13.3093 7.80111 13.3692Z" fill="#212529"/>
<path d="M14.5066 8.54102C14.5335 8.57729 14.5308 8.6137 14.5211 8.70468C14.4809 8.71515 14.4476 8.67104 14.416 8.58377C14.4178 8.54061 14.477 8.54115 14.5066 8.54102Z" fill="#212529"/>
<path d="M2.07307 3.80664C2.10099 3.84218 2.08059 3.88004 2.01792 3.92679C2.0059 3.90092 2.02227 3.85868 2.07307 3.80664Z" fill="#212529"/>
<path d="M2.20247 3.66992C2.21317 3.69894 2.18912 3.73928 2.13174 3.79346C2.12152 3.76527 2.14463 3.72326 2.20247 3.66992Z" fill="#212529"/>
<path d="M6.33936 18.318C6.35332 18.2805 6.37809 18.2771 6.44042 18.2734C6.47798 18.2732 6.4777 18.3332 6.47924 18.3631C6.43724 18.3794 6.3937 18.3657 6.33936 18.318Z" fill="#212529"/>
<path d="M8.06476 13.5012C8.03308 13.5304 7.99552 13.5122 7.94678 13.4542C7.97025 13.4408 8.01135 13.4539 8.06476 13.5012Z" fill="#212529"/>
<path d="M17.3315 3.76075C17.3021 3.77476 17.2593 3.75467 17.2012 3.70149C17.23 3.68782 17.2741 3.70724 17.3315 3.76075Z" fill="#212529"/>
<path d="M58.9149 33.1309C59.0514 33.2929 59.1946 33.4495 59.1966 33.6078C59.2141 35.0281 59.1948 36.4488 59.2143 37.8691C59.2199 38.2803 59.0617 38.3895 58.673 38.3922C58.2702 38.395 58.1375 38.2561 58.1429 37.8579C58.1614 36.5032 58.1773 35.1473 58.1372 33.7936C58.1203 33.2235 58.3279 33.0418 58.9149 33.1309Z" fill="#212529"/>
<path d="M59.085 32.2027C59.0983 31.5566 59.5256 31.6447 59.8751 31.7263C59.9875 31.7525 60.0969 32.023 60.1014 32.1847C60.1039 32.2749 59.8836 32.453 59.7711 32.4473C59.5415 32.4356 59.3168 32.3264 59.085 32.2027Z" fill="#212529"/>
</g>
<defs>
<clipPath id="clip0_178_1762">
<rect width="120" height="51" fill="white"/>
</clipPath>
</defs>
</svg>
