<svg width="120" height="37" viewBox="0 0 120 37" fill="none" xmlns="http://www.w3.org/2000/svg">
<g clip-path="url(#clip0_178_1238)">
<path d="M17.3533 28.4952L20.3238 12.6331C20.3238 12.6331 21.6012 13.2453 22.9354 13.2453C24.2683 13.2453 25.7933 12.6331 25.7933 12.6331L22.8179 28.4952H17.3533ZM27.1313 23.7302C28.0917 24.1805 29.9146 24.886 31.5404 24.8574C32.6275 24.8574 33.0763 24.4378 33.0763 23.9261C33.0763 23.3421 32.5946 22.8939 31.2267 22.2787C29.4371 21.405 27.7029 20.0835 27.7029 17.9863C27.7029 14.4726 30.7725 12.2761 35.1192 12.2761C37.1325 12.2761 38.6363 12.6684 39.4675 13.1175L38.22 16.9226C37.52 16.6316 36.3671 16.2465 34.8996 16.2465C33.87 16.2465 33.2038 16.5723 33.2038 17.2148C33.2038 17.6647 33.7792 18.1495 34.9933 18.6977C36.6875 19.5025 38.7654 20.694 38.7654 23.0835C38.7654 26.855 35.5363 28.89 31.0342 28.8559C28.9242 28.7895 26.8787 28.2727 25.855 27.5327L27.1313 23.7302ZM57.4583 34.8819L60.4621 18.9878C60.7788 17.1164 61.2 14.1202 61.3892 12.4746H66.2458L66.0221 14.6635H66.0846C67.2988 13.0863 69.0617 12.2761 70.8496 12.2761C74.2708 12.2761 76.0229 15.0188 76.0229 18.4059C76.0229 23.8824 72.5113 28.8559 66.9483 28.8559C65.8692 28.8559 64.7421 28.5629 64.2367 28.2114H64.1725L62.8933 34.8819H57.4583ZM64.9992 24.0173C65.4167 24.4378 65.9621 24.7283 66.7254 24.7283C68.7704 24.7283 70.3071 21.5038 70.3071 18.8247C70.3071 17.7622 69.8296 16.7308 68.6763 16.7308C67.1121 16.7308 65.9288 18.4762 65.4804 21.0207L64.9992 24.0173ZM105.741 28.4952C105.778 27.5941 105.837 26.6653 105.871 25.7572H105.815C104.471 28.1125 102.516 28.8555 100.858 28.8555C98.0158 28.8555 95.9958 26.6653 95.9958 23.2096C95.9958 17.9556 99.2875 12.2757 107.404 12.2757C109.45 12.2757 111.596 12.6966 113.002 13.1507L111.339 21.4719C111.016 23.1798 110.672 26.4328 110.733 28.4947L105.741 28.4952ZM106.898 16.5025C106.542 16.4403 106.159 16.405 105.903 16.405C103.351 16.405 101.687 19.8552 101.687 22.1778C101.687 23.665 102.293 24.4378 103.254 24.4378C104.243 24.4378 105.549 23.4325 106.261 19.6946L106.898 16.5025ZM117.306 9.43932C118.653 9.43932 119.697 10.4963 119.697 11.8111C119.697 13.157 118.653 14.1976 117.293 14.1976C115.946 14.1976 114.867 13.157 114.867 11.8111C114.867 10.4963 115.946 9.43932 117.293 9.43932H117.306ZM117.28 9.91948C116.249 9.91948 115.474 10.7684 115.474 11.8111C115.474 12.8702 116.249 13.709 117.306 13.709C118.341 13.7187 119.095 12.8702 119.095 11.8111C119.095 10.7684 118.341 9.91948 117.293 9.91948H117.28ZM116.923 13.0426H116.376V10.6906C116.591 10.6418 116.897 10.5989 117.28 10.5989C117.723 10.5989 117.92 10.6755 118.1 10.7848C118.229 10.8869 118.321 11.0749 118.321 11.2923C118.321 11.5664 118.123 11.7707 117.842 11.8557V11.8822C118.066 11.9562 118.194 12.1433 118.267 12.4637C118.341 12.824 118.38 12.9686 118.438 13.0426H117.857C117.779 12.9547 117.737 12.7491 117.67 12.4805C117.622 12.2164 117.481 12.1033 117.18 12.1033H116.923L116.923 13.0426ZM116.941 11.7127H117.194C117.498 11.7127 117.738 11.6105 117.738 11.3667C117.738 11.1497 117.583 11.0064 117.238 11.0064C117.089 11.0064 116.995 11.0169 116.941 11.0328V11.7127ZM13.0908 8.73464C11.2971 12.7849 7.62542 21.1742 6.96792 22.983H6.90625C6.71333 20.3737 5.62458 6.76481 5.62458 6.76481H0L2.68792 28.4956H9.07958L20.2529 6.34057C20.2529 6.34057 19.1883 6.44232 17.1313 7.02297C15.4825 7.49724 13.5521 8.49078 13.0908 8.73464ZM40.2654 28.4952H45.7317L47.0425 21.5291C47.6154 18.4762 48.8263 16.6674 50.2717 16.6674C51.1646 16.6674 51.4867 17.2795 51.4867 18.1486C51.4867 18.7309 51.4225 19.3734 51.2946 20.0175L49.6963 28.4947H55.1575L56.8183 19.5016C57.0129 18.567 57.1396 17.3081 57.1396 16.6026C57.1396 14.0214 55.8938 12.2753 53.1471 12.2753C51.2283 12.2753 49.6958 13.1166 48.4133 14.3418H48.35L49.5079 8.3247C47.7329 8.05897 45.9713 7.75961 44.2192 7.45352L40.2654 28.4952ZM89.9925 12.2761C88.0704 12.2761 86.5379 13.1175 85.2617 14.3427H85.1975L86.8538 5.60352H86.7608C84.9225 6.67441 82.9654 7.59479 80.8821 8.35959L77.1133 28.4956H82.5788L83.885 21.5295C84.4638 18.4766 85.6771 16.6678 87.1225 16.6678C88.0054 16.6678 88.33 17.28 88.33 18.149C88.33 18.7314 88.2592 19.3738 88.1329 20.018L86.5379 28.4952H92.0033L93.6642 19.5021C93.8604 18.5674 93.9871 17.3085 93.9871 16.603C93.9875 14.0223 92.7358 12.2761 89.9925 12.2761Z" fill="#212529"/>
<path d="M25.5168 0.533099C21.9922 1.21087 19.0339 2.78589 16.6018 4.23646C16.2218 4.46309 15.4826 4.90835 13.8218 6.17434C14.4639 5.81611 16.6743 4.78978 20.9051 4.10906C25.5284 3.37411 33.5159 2.94398 45.3168 5.11353C71.613 9.94203 83.663 4.65776 87.6247 2.16278L87.9501 1.93868C87.9501 1.93868 88.343 1.65025 88.6843 1.39083C87.2697 2.00763 85.6701 2.55086 83.8139 3.03775C74.1272 5.59117 63.1776 4.53372 54.7197 3.32534C52.1889 2.96963 49.5676 2.46509 47.0389 1.98072C39.873 0.612565 32.4718 -0.799321 25.5168 0.533099Z" fill="#212529"/>
<path fill-rule="evenodd" clip-rule="evenodd" d="M20.5576 11.228C21.1572 10.4653 21.8035 9.77532 22.488 9.18374C22.1839 8.93567 21.9893 8.62748 21.8809 8.26631C22.1064 8.69307 22.3326 9.02144 22.5655 9.12656C22.7593 8.95711 22.9668 8.79272 23.1751 8.64346C22.8976 8.23099 22.773 7.78321 22.7651 7.31776C22.878 7.89673 23.0264 8.36638 23.2722 8.58333C24.5018 7.70879 25.8551 7.19037 27.338 7.22947C26.8089 7.2404 26.293 7.33963 25.7884 7.50571C26.1684 7.60788 26.3834 7.72644 26.703 8.00773C26.3101 7.76849 25.9455 7.58938 25.6459 7.54649C25.3889 7.63815 25.1184 7.74999 24.8559 7.87613C25.4059 7.99385 25.8872 8.24865 26.2884 8.60561C25.6414 8.20744 25.0539 7.95013 24.6551 7.98839C24.4314 8.09434 24.2239 8.21796 24.0197 8.34914C24.5851 8.46056 25.063 8.72166 25.4814 9.07568C24.8297 8.68508 24.2501 8.42314 23.843 8.46056C23.6601 8.57786 23.4818 8.70821 23.3076 8.83897C23.9814 8.95922 24.5576 9.26194 25.063 9.69207C24.286 9.23798 23.591 8.92306 23.1122 8.98276C22.9576 9.1089 22.8014 9.22663 22.6493 9.35949C23.3485 9.47554 23.9426 9.78835 24.4518 10.2265C23.6559 9.75177 22.943 9.43559 22.4684 9.51674C22.3439 9.62185 22.2268 9.73453 22.1014 9.84175C22.9843 9.96831 23.7134 10.3501 24.3434 10.8853C23.3147 10.2815 22.4268 9.88842 21.863 10.0831C21.4105 10.5157 21.006 10.9698 20.653 11.3991C26.2126 14.3856 25.9393 8.03169 29.5939 6.92674C24.1326 4.56463 21.4039 6.43859 20.5576 11.228Z" fill="#212529"/>
</g>
<defs>
<clipPath id="clip0_178_1238">
<rect width="120" height="37" fill="white"/>
</clipPath>
</defs>
</svg>
