<svg width="32" height="32" viewBox="0 0 32 32" fill="none" xmlns="http://www.w3.org/2000/svg">
<g clip-path="url(#clip0_410_8789)">
<path d="M5.53953 18.3887C5.42626 18.3538 5.15953 18.2806 4.74117 18.1676C4.32281 18.0546 3.85877 17.998 3.34541 17.998C2.62378 17.998 2.04464 18.1377 1.60801 18.4136C1.17138 18.6912 0.952148 19.1683 0.952148 19.8449V26.0636" fill="#0078E6"/>
<path d="M-18.2872 20.0031C-19.0179 19.3781 -19.8729 18.8893 -20.8503 18.5336C-21.8277 18.1779 -22.8672 18 -23.9689 18C-25.0888 18 -26.1338 18.1779 -27.102 18.5336C-28.0703 18.8893 -28.9198 19.3797 -29.6506 20.0031C-30.3814 20.6281 -30.9568 21.3645 -31.3734 22.214C-31.7917 23.0634 -32 23.9926 -32 24.9983C-32 26.004 -31.7917 26.9333 -31.3734 27.7827C-30.955 28.6321 -30.3814 29.3702 -29.6506 29.9936C-28.9198 30.6186 -28.0703 31.109 -27.102 31.4631C-26.1338 31.8188 -25.0888 31.9967 -23.9689 31.9967C-22.8672 31.9967 -21.8277 31.8188 -20.8503 31.4631C-19.8729 31.1073 -19.0179 30.617 -18.2872 29.9936C-17.5564 29.3686 -16.9828 28.6321 -16.5644 27.7827C-16.146 26.9333 -15.9378 26.0057 -15.9378 24.9983C-15.9378 23.9926 -16.146 23.0651 -16.5644 22.214C-16.9828 21.3645 -17.5564 20.6281 -18.2872 20.0031ZM-20.8796 26.2999C-21.0403 26.6989 -21.2742 27.0413 -21.5774 27.3272C-21.8807 27.6132 -22.237 27.8392 -22.6462 28.0038C-23.0554 28.1684 -23.4957 28.2515 -23.9707 28.2515C-24.464 28.2515 -24.9116 28.17 -25.3098 28.0038C-25.7081 27.8392 -26.0607 27.6132 -26.364 27.3272C-26.6672 27.0413 -26.9011 26.6989 -27.0618 26.2999C-27.2226 25.901 -27.3048 25.4671 -27.3048 24.9983C-27.3048 24.5296 -27.2244 24.0974 -27.0618 23.6967C-26.9011 23.2978 -26.6672 22.9554 -26.364 22.6694C-26.0607 22.3835 -25.7081 22.1574 -25.3098 21.9929C-24.9116 21.8283 -24.4658 21.7452 -23.9707 21.7452C-23.4957 21.7452 -23.0554 21.8283 -22.6462 21.9929C-22.2388 22.1574 -21.8825 22.3835 -21.5774 22.6694C-21.2742 22.9554 -21.0403 23.2978 -20.8796 23.6967C-20.7188 24.0957 -20.6366 24.5296 -20.6366 24.9983C-20.6366 25.4671 -20.7188 25.901 -20.8796 26.2999ZM-2.30897 24.3999C-2.77483 24.0874 -3.30646 23.8497 -3.90386 23.6851C-4.50127 23.5205 -5.12424 23.3942 -5.76914 23.3078L-8.36154 22.9703C-8.9699 22.8839 -9.4248 22.7791 -9.72807 22.6578C-10.0313 22.5365 -10.183 22.3287 -10.183 22.0328C-10.183 21.7385 -10.0167 21.4992 -9.68422 21.318C-9.35172 21.1351 -8.75798 21.0454 -7.90481 21.0454C-7.14481 21.0454 -6.46702 21.0969 -5.86779 21.2016C-5.27039 21.3063 -4.75703 21.4227 -4.32953 21.5524C-3.90203 21.682 -3.5604 21.8167 -3.30464 21.9563C-3.04887 22.0959 -2.89175 22.1907 -2.83512 22.2422C-2.79675 22.2256 -2.70723 22.1724 -2.56473 22.086C-2.42223 21.9995 -2.2706 21.8782 -2.10983 21.7219C-1.94906 21.5657 -1.80656 21.3795 -1.68233 21.1617C-1.55993 20.9456 -1.49781 20.6979 -1.49781 20.4203C-1.49781 20.0563 -1.60743 19.7488 -1.82483 19.4961C-2.04406 19.2451 -2.33271 19.0323 -2.69444 18.8594C-3.32107 18.5652 -4.06646 18.3474 -4.93059 18.2095C-5.79472 18.0715 -6.8251 18.0017 -8.02173 18.0017C-9.20009 18.0017 -10.2159 18.118 -11.069 18.3524C-11.924 18.5868 -12.6256 18.9076 -13.1773 19.3149C-13.729 19.7222 -14.1309 20.1992 -14.3885 20.7461C-14.6443 21.293 -14.7722 21.8865 -14.7722 22.5281C-14.7722 23.2911 -14.6205 23.9245 -14.3173 24.4282C-14.014 24.9318 -13.6011 25.3424 -13.0786 25.6633C-12.5561 25.9841 -11.9533 26.2268 -11.27 26.3914C-10.5867 26.5559 -9.87422 26.6823 -9.13432 26.7687L-7.65269 26.925C-6.95116 27.0114 -6.43231 27.1194 -6.09982 27.2508C-5.76732 27.3804 -5.60106 27.6198 -5.60106 27.9656C-5.60106 28.2947 -5.8002 28.5241 -6.19847 28.6554C-6.59673 28.7851 -7.18683 28.8499 -7.9651 28.8499C-8.64836 28.8499 -9.29874 28.8017 -9.91624 28.707C-10.5337 28.6122 -11.0836 28.4992 -11.5678 28.3695C-12.0519 28.2398 -12.4703 28.1002 -12.821 27.9539C-13.1718 27.806 -13.4239 27.6813 -13.5756 27.5766L-15.1997 30.2828C-15.048 30.3876 -14.7777 30.5388 -14.3885 30.7383C-13.9994 30.9378 -13.4915 31.1289 -12.8649 31.3101C-12.2383 31.493 -11.4929 31.6526 -10.6287 31.7922C-9.76461 31.9302 -8.77259 32 -7.65269 32C-5.50789 32 -3.82713 31.5927 -2.6104 30.7765C-1.39551 29.962 -0.787146 28.825 -0.787146 27.3688C-0.787146 26.6756 -0.924162 26.0855 -1.20003 25.6001C-1.47224 25.1114 -1.8431 24.7124 -2.30897 24.3999ZM21.5889 25.5968C21.3131 25.1114 20.944 24.7124 20.4782 24.3999C20.0123 24.0874 19.4807 23.8497 18.8833 23.6851C18.2859 23.5205 17.6629 23.3942 17.018 23.3078L14.4256 22.9703C13.8172 22.8839 13.3623 22.7791 13.0591 22.6578C12.7558 22.5365 12.6041 22.3287 12.6041 22.0328C12.6041 21.7385 12.7704 21.4992 13.1029 21.318C13.4354 21.1351 14.0291 21.0454 14.8823 21.0454C15.6423 21.0454 16.3201 21.0969 16.9193 21.2016C17.5167 21.3063 18.0301 21.4227 18.4576 21.5524C18.8851 21.682 19.2267 21.8167 19.4825 21.9563C19.7383 22.0959 19.8954 22.1907 19.952 22.2422C19.9904 22.2256 20.0799 22.1724 20.2224 22.086C20.3649 21.9995 20.5165 21.8782 20.6773 21.7219C20.8381 21.5657 20.9806 21.3795 21.1048 21.1617C21.2272 20.9456 21.2893 20.6979 21.2893 20.4203C21.2893 20.0563 21.1797 19.7488 20.9623 19.4961C20.7431 19.2451 20.4544 19.0323 20.0927 18.8594C19.466 18.5652 18.7207 18.3474 17.8565 18.2095C16.9924 18.0715 15.962 18.0017 14.7654 18.0017C13.587 18.0017 12.5731 18.118 11.7181 18.3524C10.8631 18.5868 10.1616 18.9076 9.60983 19.3149C9.05811 19.7222 8.65619 20.1992 8.39859 20.7461C8.14282 21.293 8.01494 21.8865 8.01494 22.5281C8.01494 23.2911 8.16657 23.9245 8.46984 24.4282C8.77311 24.9318 9.18599 25.3424 9.70849 25.6633C10.231 25.9841 10.8339 26.2268 11.5171 26.3914C12.2004 26.5559 12.9129 26.6823 13.6528 26.7687L15.1344 26.925C15.836 27.0114 16.3548 27.1194 16.6873 27.2508C17.0198 27.3804 17.1861 27.6198 17.1861 27.9656C17.1861 28.2947 16.9869 28.5241 16.5887 28.6554C16.1904 28.7851 15.6003 28.8499 14.822 28.8499C14.1388 28.8499 13.4884 28.8017 12.8709 28.707C12.2534 28.6122 11.7035 28.4992 11.2193 28.3695C10.7352 28.2398 10.3169 28.1002 9.96608 27.9539C9.61531 27.806 9.3632 27.6813 9.21157 27.5766L7.58744 30.2828C7.73907 30.3876 8.00946 30.5388 8.39859 30.7383C8.78772 30.9378 9.29561 31.1289 9.92224 31.3101C10.5489 31.493 11.2943 31.6526 12.1584 31.7922C13.0225 31.9302 14.0145 32 15.1344 32C17.2792 32 18.96 31.5927 20.1767 30.7765C21.3916 29.962 22 28.825 22 27.3688C22.0018 26.6723 21.8648 26.0822 21.5889 25.5968ZM0.966694 31.8919H5.52485V24.3484L0.966694 31.8919Z" fill="black"/>
<path d="M13.7128 2.00309C12.9821 1.37806 12.1271 0.889338 11.1497 0.533603C10.1723 0.177869 9.13275 0 8.03112 0C6.91122 0 5.86623 0.177869 4.89796 0.533603C3.9297 0.889338 3.08018 1.37972 2.34941 2.00309C1.61865 2.62812 1.04317 3.36452 0.626632 4.21396C0.208268 5.06341 0 5.99264 0 6.99834C0 8.00404 0.208268 8.93327 0.626632 9.78271C1.045 10.6321 1.61865 11.3702 2.34941 11.9936C3.08018 12.6186 3.9297 13.109 4.89796 13.4631C5.86623 13.8188 6.91122 13.9967 8.03112 13.9967C9.13275 13.9967 10.1723 13.8188 11.1497 13.4631C12.1271 13.1073 12.9821 12.617 13.7128 11.9936C14.4436 11.3686 15.0172 10.6321 15.4356 9.78271C15.854 8.93327 16.0622 8.0057 16.0622 6.99834C16.0622 5.99264 15.854 5.06507 15.4356 4.21396C15.0172 3.36452 14.4436 2.62812 13.7128 2.00309ZM11.1204 8.29993C10.9597 8.69888 10.7258 9.04132 10.4226 9.32724C10.1193 9.61315 9.76304 9.83923 9.35381 10.0038C8.94458 10.1684 8.50429 10.2515 8.0293 10.2515C7.53603 10.2515 7.08843 10.17 6.69017 10.0038C6.2919 9.83923 5.9393 9.61315 5.63604 9.32724C5.33277 9.04132 5.09892 8.69888 4.93815 8.29993C4.77738 7.90097 4.69517 7.46711 4.69517 6.99834C4.69517 6.52956 4.77556 6.09736 4.93815 5.69675C5.09892 5.29779 5.33277 4.95535 5.63604 4.66944C5.9393 4.38352 6.2919 4.15744 6.69017 3.99288C7.08843 3.82831 7.5342 3.74519 8.0293 3.74519C8.50429 3.74519 8.94458 3.82831 9.35381 3.99288C9.76121 4.15744 10.1175 4.38352 10.4226 4.66944C10.7258 4.95535 10.9597 5.29779 11.1204 5.69675C11.2812 6.0957 11.3634 6.52956 11.3634 6.99834C11.3634 7.46711 11.2812 7.90097 11.1204 8.29993ZM29.691 6.3999C29.2252 6.08739 28.6935 5.84968 28.0961 5.68511C27.4987 5.52054 26.8758 5.39421 26.2309 5.30777L23.6385 4.97032C23.0301 4.88388 22.5752 4.77915 22.2719 4.6578C21.9687 4.53645 21.817 4.32866 21.817 4.03277C21.817 3.73854 21.9833 3.49917 22.3158 3.31798C22.6483 3.13512 23.242 3.04536 24.0952 3.04536C24.8552 3.04536 25.533 3.09689 26.1322 3.20161C26.7296 3.30634 27.243 3.4227 27.6705 3.55236C28.098 3.68202 28.4396 3.81667 28.6954 3.9563C28.9511 4.09594 29.1082 4.19069 29.1649 4.24222C29.2032 4.2256 29.2928 4.1724 29.4353 4.08596C29.5778 3.99952 29.7294 3.87818 29.8902 3.72192C30.0509 3.56566 30.1934 3.37948 30.3177 3.16172C30.4401 2.94562 30.5022 2.69793 30.5022 2.42033C30.5022 2.05628 30.3926 1.74875 30.1752 1.49608C29.9559 1.24507 29.6673 1.0323 29.3056 0.859415C28.6789 0.565186 27.9335 0.347422 27.0694 0.20945C26.2053 0.0714785 25.1749 0.0016614 23.9783 0.0016614C22.7999 0.0016614 21.7841 0.118023 20.931 0.352409C20.076 0.586796 19.3744 0.907623 18.8227 1.31489C18.271 1.72216 17.8691 2.19924 17.6115 2.74614C17.3557 3.29304 17.2278 3.88649 17.2278 4.52814C17.2278 5.29114 17.3795 5.92448 17.6827 6.42816C17.986 6.93184 18.3989 7.34244 18.9214 7.66326C19.4439 7.98409 20.0467 8.22678 20.73 8.39135C21.4133 8.55592 22.1258 8.68226 22.8657 8.7687L24.3473 8.92495C25.0488 9.01139 25.5677 9.11945 25.9002 9.25077C26.2327 9.38043 26.3989 9.6198 26.3989 9.96556C26.3989 10.2947 26.1998 10.5241 25.8015 10.6554C25.4033 10.7851 24.8132 10.8499 24.0349 10.8499C23.3516 10.8499 22.7013 10.8017 22.0838 10.707C21.4663 10.6122 20.9164 10.4992 20.4322 10.3695C19.9481 10.2398 19.5297 10.1002 19.179 9.95393C18.8282 9.80598 18.5761 9.68131 18.4244 9.57658L16.8003 12.2828C16.952 12.3876 17.2223 12.5388 17.6115 12.7383C18.0006 12.9378 18.5085 13.1289 19.1351 13.3101C19.7617 13.493 20.5071 13.6526 21.3713 13.7922C22.2354 13.9302 23.2274 14 24.3473 14C26.4921 14 28.1729 13.5927 29.3896 12.7765C30.6045 11.962 31.2129 10.825 31.2129 9.36879C31.2129 8.67561 31.0758 8.08549 30.8 7.60009C30.5278 7.11137 30.1569 6.71242 29.691 6.3999ZM53.5889 7.59677C53.3131 7.11137 52.944 6.71242 52.4782 6.3999C52.0123 6.08739 51.4807 5.84968 50.8833 5.68511C50.2859 5.52054 49.6629 5.39421 49.018 5.30777L46.4256 4.97032C45.8172 4.88388 45.3623 4.77915 45.0591 4.6578C44.7558 4.53645 44.6041 4.32866 44.6041 4.03277C44.6041 3.73854 44.7704 3.49917 45.1029 3.31798C45.4354 3.13512 46.0291 3.04536 46.8823 3.04536C47.6423 3.04536 48.3201 3.09689 48.9193 3.20161C49.5167 3.30634 50.0301 3.4227 50.4576 3.55236C50.8851 3.68202 51.2267 3.81667 51.4825 3.9563C51.7383 4.09594 51.8954 4.19069 51.952 4.24222C51.9904 4.2256 52.0799 4.1724 52.2224 4.08596C52.3649 3.99952 52.5165 3.87818 52.6773 3.72192C52.8381 3.56566 52.9806 3.37948 53.1048 3.16172C53.2272 2.94562 53.2893 2.69793 53.2893 2.42033C53.2893 2.05628 53.1797 1.74875 52.9623 1.49608C52.7431 1.24507 52.4544 1.0323 52.0927 0.859415C51.466 0.565186 50.7207 0.347422 49.8565 0.20945C48.9924 0.0714785 47.962 0.0016614 46.7654 0.0016614C45.587 0.0016614 44.5731 0.118023 43.7181 0.352409C42.8631 0.586796 42.1616 0.907623 41.6098 1.31489C41.0581 1.72216 40.6562 2.19924 40.3986 2.74614C40.1428 3.29304 40.0149 3.88649 40.0149 4.52814C40.0149 5.29114 40.1666 5.92448 40.4698 6.42816C40.7731 6.93184 41.186 7.34244 41.7085 7.66326C42.231 7.98409 42.8339 8.22678 43.5171 8.39135C44.2004 8.55592 44.9129 8.68226 45.6528 8.7687L47.1344 8.92495C47.836 9.01139 48.3548 9.11945 48.6873 9.25077C49.0198 9.38043 49.1861 9.6198 49.1861 9.96556C49.1861 10.2947 48.9869 10.5241 48.5887 10.6554C48.1904 10.7851 47.6003 10.8499 46.822 10.8499C46.1388 10.8499 45.4884 10.8017 44.8709 10.707C44.2534 10.6122 43.7035 10.4992 43.2193 10.3695C42.7352 10.2398 42.3169 10.1002 41.9661 9.95393C41.6153 9.80598 41.3632 9.68131 41.2116 9.57658L39.5874 12.2828C39.7391 12.3876 40.0095 12.5388 40.3986 12.7383C40.7877 12.9378 41.2956 13.1289 41.9222 13.3101C42.5489 13.493 43.2943 13.6526 44.1584 13.7922C45.0225 13.9302 46.0145 14 47.1344 14C49.2792 14 50.96 13.5927 52.1767 12.7765C53.3916 11.962 54 10.825 54 9.36879C54.0018 8.67229 53.8648 8.08216 53.5889 7.59677ZM32.9667 13.8919H37.5249V6.34837L32.9667 13.8919Z" fill="black"/>
</g>
<defs>
<clipPath id="clip0_410_8789">
<rect width="32" height="32" fill="white"/>
</clipPath>
</defs>
</svg>
