<svg width="32.000000" height="32.000000" viewBox="0 0 32 32" fill="none" xmlns="http://www.w3.org/2000/svg" xmlns:xlink="http://www.w3.org/1999/xlink">
	<desc>
			Created with Pixso.
	</desc>
	<defs>
		<clipPath id="clip214_10740">
			<rect id="Icon/linkedin/32" width="32.000000" height="32.000000" fill="white" fill-opacity="0"/>
		</clipPath>
	</defs>
	<rect id="Icon/linkedin/32" width="32.000000" height="32.000000" fill="#FFFFFF" fill-opacity="0"/>
	<g clip-path="url(#clip214_10740)">
		<path id="Vector" d="M25.3335 4C26.0405 4 26.7188 4.28125 27.2188 4.78125C27.7192 5.28125 28 5.95898 28 6.66602L28 25.334C28 26.041 27.7192 26.7188 27.2188 27.2188C26.7188 27.7188 26.0405 28 25.3335 28L6.6665 28C5.95947 28 5.28125 27.7188 4.78125 27.2188C4.28076 26.7188 4 26.041 4 25.334L4 6.66602C4 5.95898 4.28076 5.28125 4.78125 4.78125C5.28125 4.28125 5.95947 4 6.6665 4L25.3335 4ZM24.6665 24.666L24.6665 17.5996C24.6665 16.4473 24.2085 15.3418 23.3936 14.5273C22.5786 13.7109 21.4727 13.2539 20.3198 13.2539C19.1865 13.2539 17.8667 13.9473 17.2266 14.9863L17.2266 13.5059L13.5068 13.5059L13.5068 24.666L17.2266 24.666L17.2266 18.0938C17.2266 17.0664 18.0532 16.2266 19.0801 16.2266C19.5752 16.2266 20.0498 16.4238 20.3999 16.7734C20.75 17.123 20.9468 17.5977 20.9468 18.0938L20.9468 24.666L24.6665 24.666ZM9.17334 11.4141C9.76758 11.4141 10.3374 11.1777 10.7573 10.7578C11.1772 10.3379 11.4136 9.76758 11.4136 9.17383C11.4136 7.93359 10.4136 6.91992 9.17334 6.91992C8.57568 6.91992 8.00244 7.1582 7.58008 7.58008C7.15723 8.00195 6.91992 8.57617 6.91992 9.17383C6.91992 10.4141 7.93311 11.4141 9.17334 11.4141ZM11.0269 24.666L11.0269 13.5059L7.3335 13.5059L7.3335 24.666L11.0269 24.666Z" fill="#FFFFFF" fill-opacity="1.000000" fill-rule="evenodd"/>
	</g>
</svg>
