<svg width="140" height="68" viewBox="0 0 140 68" fill="none" xmlns="http://www.w3.org/2000/svg">
<g clip-path="url(#clip0_190_7190)">
<path d="M28.8896 49.1427C28.8896 48.3743 28.3107 47.9901 27.5393 47.9901C26.8642 47.9901 26.3816 48.1826 25.8996 48.4709V47.5086C26.2817 47.2261 26.9502 47.0373 27.7136 47.0373C29.05 47.0373 29.9095 47.7919 29.9095 49.0178V52.8829H28.9625V52.4319C28.7904 52.6207 28.1284 52.9976 27.4657 52.9976C26.3298 52.9976 25.2887 52.3382 25.2887 51.2067C25.2887 50.1696 26.2365 49.415 27.4657 49.415C28.0336 49.415 28.8896 49.8864 28.8896 49.8864V49.1427ZM28.8896 50.922C28.7 50.4507 28.1328 50.1682 27.5648 50.1682C26.9021 50.1682 26.2394 50.4507 26.2394 51.2053C26.2394 51.8647 26.9021 52.2423 27.5648 52.2423C28.1328 52.2423 28.7007 51.9591 28.8896 51.4878V50.922ZM41.0651 44.9667V52.8829H40.0444V49.3243H35.597V52.8829H34.5763V44.9667H35.597V48.3801H40.0444V44.9667H41.0651ZM43.4608 50.1696C43.4608 51.4892 44.3131 52.1494 45.3564 52.1494C46.0191 52.1494 46.4923 51.9606 46.9727 51.5836V52.4319C46.4923 52.8095 45.9243 52.9032 45.2616 52.9032C43.6525 52.9032 42.5174 51.7725 42.5174 49.9808C42.5174 48.1891 43.5585 46.9639 45.0728 46.9639C46.587 46.9639 47.4393 48.0954 47.4102 49.7963V50.1958H43.4615L43.4608 50.1696ZM43.4608 49.3969H46.3953C46.3953 48.5486 45.9221 47.794 44.9758 47.794C44.3131 47.8885 43.6504 48.3598 43.4608 49.3969ZM53.4068 51.5756L54.6462 47.2181H55.5663L53.8668 52.9555H52.919L51.692 48.6292L50.4701 52.9555H49.5223L47.8228 47.2181H48.7466L49.986 51.5756L51.1263 47.2181H51.9822L53.4082 51.5756H53.4068ZM57.6879 52.9555H56.7401V44.531H57.6879V52.9555ZM59.9298 50.1696C59.9298 51.4892 60.7814 52.1494 61.8254 52.1494C62.4881 52.1494 62.9613 51.9606 63.4505 51.5836V52.4319C62.9613 52.8095 62.3933 52.9032 61.7313 52.9032C60.1215 52.9032 58.9864 51.7725 58.9864 49.9808C58.9864 48.1891 60.0275 46.9639 61.5418 46.9639C63.0561 46.9639 63.9083 48.0954 63.8879 49.7963V50.1958H59.9298V50.1696ZM59.9298 49.3969H62.8643C62.8643 48.5486 62.3911 47.794 61.4448 47.794C60.7814 47.8885 60.1186 48.3598 59.9298 49.3969ZM66.6555 52.9555H65.7077V48.017H64.4683V47.1455H65.7077V45.6204H66.6555V47.1455H67.9678V48.017H66.6555V52.9555ZM71.0299 52.9555H70.0821V48.017H68.8427V47.1455H70.0821V45.6204H71.0299V47.1455H72.3422V48.017H71.0299V52.9555ZM77.5187 49.6874V52.8829H76.498V44.9667H79.3741C80.9519 44.9667 81.9718 45.8165 81.9718 47.3271C81.9718 48.8377 80.9511 49.6874 79.3741 49.6874H77.5187ZM79.4004 45.8382H77.5187V48.7433H79.4004C80.4349 48.7433 80.9992 48.1811 80.9992 47.2435C81.0911 46.4919 80.529 45.8382 79.4004 45.8382ZM86.3412 49.1427C86.3412 48.3743 85.7623 47.9901 84.9909 47.9901C84.3158 47.9901 83.8331 48.1826 83.3512 48.4702V47.5086C83.7333 47.2261 84.4018 47.0373 85.1652 47.0373C86.5015 47.0373 87.3611 47.7919 87.3611 49.0178V52.8829H86.4133V52.4319C86.2405 52.6207 85.5785 52.9976 84.9158 52.9976C83.7799 52.9976 82.7388 52.3375 82.7388 51.206C82.7388 50.1696 83.6866 49.415 84.9158 49.415C85.4838 49.415 86.3404 49.8864 86.3404 49.8864V49.1427H86.3412ZM86.3412 50.9235C86.1516 50.4521 85.5844 50.1696 85.0164 50.1696C84.3537 50.1696 83.691 50.4521 83.691 51.206C83.691 51.8661 84.3537 52.2431 85.0164 52.2431C85.5844 52.2431 86.1523 51.9606 86.3412 51.4892V50.922V50.9235ZM91.2427 47.0583C91.8107 47.0583 92.3786 47.152 92.757 47.5297V48.4738C92.3786 48.0969 91.8092 47.9081 91.2427 47.9081C90.2016 47.9081 89.3471 48.6626 89.3471 49.9822C89.3471 51.3018 90.1994 52.0564 91.2427 52.0564C91.8107 52.0564 92.2838 51.8676 92.757 51.4907V52.4348C92.3786 52.8117 91.8092 52.9061 91.2427 52.9061C89.7284 52.9061 88.4977 51.7754 88.4977 49.8893C88.497 48.1891 89.7277 47.0583 91.242 47.0583H91.2427ZM98.9366 52.9555H97.6702L95.0164 50.1159V52.9555H94.0686V44.531H95.0164V49.622L97.598 47.1455H98.8374L95.9686 49.8123L98.9366 52.9555ZM103.036 49.1427C103.036 48.3743 102.457 47.9901 101.686 47.9901C101.011 47.9901 100.528 48.1826 100.046 48.4702V47.5086C100.428 47.2261 101.097 47.0373 101.86 47.0373C103.197 47.0373 104.056 47.7919 104.056 49.0178V52.8829H103.108V52.4319C102.898 52.6207 102.233 52.9976 101.573 52.9976C100.437 52.9976 99.3959 52.3375 99.3959 51.206C99.3959 50.1696 100.344 49.415 101.573 49.415C102.141 49.415 103.035 49.8864 103.035 49.8864V49.1427H103.036ZM102.963 50.922C102.774 50.4507 102.206 50.1682 101.639 50.1682C100.976 50.1682 100.313 50.4507 100.313 51.2045C100.313 51.8647 100.976 52.2416 101.639 52.2416C102.206 52.2416 102.774 51.9591 102.963 51.4878V50.922ZM108.358 48.1085C108.171 48.0141 107.984 47.9197 107.702 47.9197C107.139 47.9197 106.577 48.2973 106.39 48.9568V52.8059H105.442V47.0729H106.39V47.8275C106.671 47.3561 107.139 46.9785 107.796 46.9785C108.077 46.9785 108.264 46.9785 108.358 47.0729V48.1085ZM113.316 52.2409C113.032 52.6193 112.368 52.9976 111.705 52.9976C109.999 52.9976 109.145 51.673 109.145 49.9692C109.145 48.3598 110.093 46.94 111.705 46.94C112.014 46.935 112.32 47.0007 112.599 47.132C112.878 47.2633 113.124 47.4568 113.316 47.6975V44.3857H114.264V52.8103H113.316V52.2423V52.2409ZM113.316 48.8478C113.178 48.5649 112.963 48.3263 112.695 48.1594C112.427 47.9925 112.118 47.9039 111.802 47.9037C110.666 47.9037 110.098 48.752 110.098 49.9779C110.098 51.2038 110.761 52.0521 111.802 52.0521C112.37 52.0521 112.938 51.6751 113.316 51.1079V48.8493V48.8478ZM26.994 57.9086V58.8382H22.9112V61.38H26.6294V62.3242H22.9112V65.0839H26.994V66.0281H21.9634V58.0974L26.994 57.9086ZM28.2334 60.0728H29.1812V60.8252C29.5625 60.3553 30.1348 59.9791 30.8974 59.9791C32.2316 59.9791 32.8995 60.8252 32.8995 62.0482V65.8102H31.8788V62.2276C31.8788 61.473 31.504 60.9073 30.6605 60.9073C30.0043 60.9073 29.4415 61.3786 29.2541 61.9443V65.8102H28.3063V60.0002H28.2334V60.0728ZM36.1074 65.7376H35.1596V60.799H33.9202V60.0002H35.1596V58.475H36.1074V60.0002H37.4197V60.799H36.1074V65.7376ZM38.9179 63.086C38.9179 64.4056 39.7695 65.0658 40.8135 65.0658C41.4763 65.0658 41.9494 64.8769 42.4532 64.5V65.3483C41.9494 65.7259 41.3815 65.8196 40.7195 65.8196C39.1104 65.8196 37.9745 64.6888 37.9745 62.8972C37.9745 61.1055 39.0156 59.8803 40.5307 59.8803C42.0457 59.8803 42.8965 61.0118 42.8907 62.7084V63.0504H38.9179V63.086ZM39.0127 62.3242H41.9465C41.9465 61.4759 41.4733 60.7213 40.527 60.7213C39.7702 60.7213 39.2023 61.2871 39.0127 62.3242ZM47.1164 61.0373C46.929 60.9428 46.7416 60.8484 46.4602 60.8484C45.8974 60.8484 45.3352 61.2261 45.1479 61.8855V65.7347H44.2001V60.0002H45.1479V60.7547C45.4286 60.2834 45.8974 59.9058 46.5535 59.9058C46.8349 59.9058 47.0223 59.9058 47.1164 60.0002V61.0373ZM49.1578 67.9889H48.21V60.0728H49.1578V60.7322C49.4421 60.3553 50.1056 59.9784 50.769 59.9784C52.475 59.9784 53.3288 61.3924 53.3288 62.9938C53.3288 64.5952 52.4758 66.0099 50.769 66.0099C50.0115 66.0099 49.4421 65.633 49.1578 65.256V67.9889ZM49.1578 64.0287C49.2959 64.3116 49.5112 64.5502 49.7789 64.7171C50.0467 64.8841 50.3562 64.9727 50.672 64.9728C51.8079 64.9728 52.3759 64.1245 52.3759 62.8986C52.3759 61.6727 51.7132 60.8245 50.672 60.8245C50.1041 60.8245 49.5361 61.2014 49.1578 61.7686V64.0316V64.0287ZM57.5421 61.0373C57.3547 60.9428 57.1673 60.8484 56.8859 60.8484C56.3231 60.8484 55.761 61.2261 55.5736 61.8855V65.7347H54.6258V60.0002H55.5736V60.7547C55.8543 60.2834 56.3231 59.9058 56.9792 59.9058C57.2607 59.9058 57.448 59.9058 57.5421 60.0002V61.0373ZM59.1723 58.9377C59.0412 58.9377 58.9131 58.8989 58.8041 58.8264C58.6951 58.7539 58.6102 58.6508 58.56 58.5301C58.5098 58.4095 58.4967 58.2768 58.5223 58.1487C58.5479 58.0206 58.611 57.903 58.7037 57.8107C58.7964 57.7184 58.9144 57.6555 59.043 57.63C59.1716 57.6045 59.3048 57.6176 59.4259 57.6676C59.547 57.7175 59.6505 57.8022 59.7233 57.9107C59.7961 58.0193 59.835 58.1469 59.835 58.2775C59.7402 58.6544 59.4566 58.9377 59.1723 58.9377ZM59.6564 65.7376H58.7086V60.0002H59.6564V65.7376ZM60.9687 64.3134C61.5374 64.7854 62.2009 65.0687 62.8643 65.0687C63.5278 65.0687 64.0964 64.8799 64.0964 64.3134C64.0964 63.8413 63.8121 63.6525 63.2434 63.4637L62.4852 63.1804C61.6322 62.8972 61.0635 62.5195 61.0635 61.5754C61.0635 60.5369 61.9165 59.9704 63.0539 59.9704C63.6553 59.9685 64.2456 60.1319 64.7599 60.4425V61.481C64.286 61.1033 63.7173 60.8201 63.0539 60.8201C62.4852 60.8201 62.0113 61.1033 62.0113 61.5754C62.0113 62.0475 62.2956 62.2363 62.8643 62.4251L63.7173 62.7084C64.5703 62.9916 65.0442 63.4637 65.0442 64.3134C65.0442 65.3519 64.0964 66.0128 62.8643 66.0128C62.1061 66.0128 61.4426 65.824 60.9687 65.4463V64.3134ZM66.9333 63.086C66.9333 64.4056 67.7848 65.0658 68.8288 65.0658C69.4916 65.0658 69.9647 64.8769 70.4496 64.5V65.3483C69.9647 65.7259 69.3968 65.8196 68.7348 65.8196C67.1257 65.8196 65.9898 64.6888 65.9898 62.8972C65.9898 61.1055 67.031 59.8803 68.546 59.8803C70.061 59.8803 70.9118 61.0118 70.887 62.7084V63.0504H66.934L66.9333 63.086ZM66.9333 62.3242H69.867C69.867 61.4759 69.3939 60.7213 68.4475 60.7213C67.7848 60.7213 67.1228 61.2871 66.9333 62.3242ZM77.5354 59.9747C78.1034 59.9747 78.6713 60.0684 79.0497 60.4461V61.3902C78.6713 61.0133 78.1019 60.8245 77.5354 60.8245C76.4943 60.8245 75.6398 61.579 75.6398 62.8986C75.6398 64.2182 76.4921 64.9728 77.5354 64.9728C78.1034 64.9728 78.5765 64.784 79.0497 64.4071V65.3512C78.6713 65.7281 78.1019 65.8225 77.5354 65.8225C76.0211 65.8225 74.7905 64.691 74.7905 62.8057C74.7905 61.1055 76.0211 59.9747 77.5354 59.9747ZM82.5493 65.914C80.9402 65.914 79.8991 64.6881 79.8991 62.8972C79.8991 61.1062 80.9402 59.8803 82.5493 59.8803C84.1583 59.8803 85.1987 61.1062 85.1987 62.8972C85.1987 64.6881 84.0635 65.914 82.5493 65.914ZM82.5493 60.823C81.5081 60.823 80.9402 61.6713 80.9402 62.9916C80.9402 64.2175 81.6029 65.1602 82.5493 65.1602C83.5904 65.1602 84.1583 64.3112 84.1583 62.9916C84.1583 61.672 83.5911 60.823 82.5493 60.823ZM92.2751 59.9791C93.4073 59.9791 94.0679 60.8252 94.0679 62.0482V65.8102H93.1201V62.1426C93.1492 61.3888 92.7708 60.823 92.1081 60.823C91.5402 60.823 91.067 61.1999 90.8599 61.8601V65.8828H89.9121V62.2058C89.9121 61.4512 89.5352 60.8862 88.8761 60.8862C88.3111 60.8862 87.8401 61.2631 87.652 61.9233V65.8102H86.7042V60.0728H87.652V60.7308C87.9349 60.2609 88.5014 59.9784 89.1619 59.9784C89.9165 59.9784 90.4823 60.3546 90.6718 60.9189C90.8607 60.3546 91.4264 59.9784 92.2758 59.9784L92.2751 59.9791ZM96.6203 67.9889H95.6725V60.0728H96.6203V60.7322C96.9047 60.3553 97.5681 59.9784 98.2316 59.9784C99.9376 59.9784 100.791 61.3924 100.791 62.9938C100.791 64.5952 99.9383 66.0099 98.2316 66.0099C97.4741 66.0099 96.9047 65.633 96.6203 65.256V67.9889ZM96.6203 64.0287C96.7585 64.3116 96.9738 64.5502 97.2415 64.7171C97.5093 64.8841 97.8187 64.9727 98.1346 64.9728C99.2705 64.9728 99.8385 64.1245 99.8385 62.8986C99.8385 61.6727 99.1757 60.8245 98.1346 60.8245C97.5667 60.8245 96.9987 61.2014 96.6203 61.7686V64.0316V64.0287ZM105.369 61.9654C105.369 61.1963 104.79 60.8121 104.019 60.8121C103.344 60.8121 102.861 61.0046 102.379 61.2929V60.3633C102.761 60.0808 103.43 59.892 104.193 59.892C105.53 59.892 106.389 60.6465 106.389 61.8724V65.7376H105.441V65.2539C105.263 65.4427 104.601 65.8196 103.939 65.8196C102.803 65.8196 101.762 65.1602 101.762 64.0287C101.762 62.9916 102.71 62.237 103.939 62.237C104.507 62.237 105.368 62.7084 105.368 62.7084V61.9647L105.369 61.9654ZM105.369 63.7454C105.18 63.2741 104.612 62.9916 104.044 62.9916C103.382 62.9916 102.719 63.2741 102.719 64.0287C102.719 64.6881 103.382 65.0658 104.044 65.0658C104.612 65.0658 105.18 64.7825 105.369 64.3112V63.7454ZM107.921 60.0728H108.869V60.8252C109.25 60.3553 109.822 59.9791 110.585 59.9791C111.919 59.9791 112.587 60.8252 112.587 62.0482V65.8102H111.566V62.2276C111.566 61.473 111.192 60.9073 110.348 60.9073C109.692 60.9073 109.129 61.3786 108.942 61.9443V65.8102H107.994V60.0002H107.921V60.0728ZM114.73 67.9889L115.582 65.8211L113.312 60.0728H114.352L116.055 64.5966L117.758 60.0728H118.799L115.677 67.9889H114.73Z" fill="#646569"/>
<path d="M79.4141 21.654C79.4141 29.2143 73.368 35.3577 65.9992 35.3577C58.6305 35.3577 52.5843 29.2143 52.5843 21.654V10.0187C52.5843 10.0187 59.0001 11.6165 59.0001 18.3837V21.6184C59.0001 25.7668 62.1213 29.0669 65.9992 29.0669C69.8772 29.0669 72.9983 25.7668 72.9983 21.6184V15.019C73.2819 9.36222 78.1018 7.57128 79.3354 6.91111H79.4141V21.654ZM44.8707 8.02591C46.6686 8.02591 48.3703 8.30915 49.8867 8.97004V16.1345C48.5613 15.003 46.7627 14.3429 44.8693 14.3429C40.6093 14.3421 37.2009 17.6429 37.2009 21.792V35.3076H30.7851V10.5722C30.7851 10.5722 33.4352 10.6658 35.1391 11.8918C37.5997 9.44065 41.1014 8.02664 44.8875 8.02664M14.0259 29.1453C9.76665 29.1453 6.26491 25.7508 6.26491 21.6025C6.26491 17.4541 9.76446 14.0603 14.0259 14.0603C18.2873 14.0603 21.7869 17.4541 21.7869 21.6025C21.7869 25.7508 18.2873 29.1453 14.0259 29.1453ZM14.0069 8.02664C6.24596 8.02664 0 14.1548 0 21.6025C0 29.1453 6.24669 35.179 14.0069 35.179C17.225 35.179 20.1588 34.1419 22.5254 32.3466C23.9449 34.7041 28.0146 35.179 28.0146 35.179V21.6025C28.0146 14.1548 21.7679 8.02664 14.0069 8.02664ZM125.992 29.1453C121.733 29.1453 118.231 25.7508 118.231 21.6025C118.231 17.4541 121.731 14.0603 125.992 14.0603C130.254 14.0603 133.753 17.4541 133.753 21.6025C133.753 25.7508 130.254 29.1453 125.992 29.1453ZM125.992 8.02664C118.231 8.02664 111.985 14.1548 111.985 21.6025C111.985 29.1453 118.232 35.179 125.992 35.179C129.21 35.179 132.144 34.1419 134.511 32.3466C135.93 34.7041 140 35.179 140 35.179V21.6025C140 14.1548 133.753 8.02664 125.992 8.02664ZM96.2732 29.1453C92.0147 29.1453 88.5122 25.7508 88.5122 21.6025C88.5122 17.4541 92.0118 14.0603 96.2732 14.0603C100.535 14.0603 104.035 17.4541 104.035 21.6025C104.13 25.7508 100.627 29.1453 96.2732 29.1453ZM96.3177 8.02519C93.4677 8.02519 90.8081 8.87417 88.5275 10.2882V8.1196C88.2425 2.46282 83.5874 0.671882 82.3523 0.0117188H82.2575V35.2727C82.2575 35.2727 86.4373 34.8014 88.0522 32.5384C90.4275 34.1412 93.2774 35.1783 96.3177 35.1783C104.108 35.1783 110.377 29.0502 110.377 21.6017C110.473 14.154 104.107 8.02519 96.3177 8.02519Z" fill="#F5831F"/>
</g>
<defs>
<clipPath id="clip0_190_7190">
<rect width="140" height="68" fill="white"/>
</clipPath>
</defs>
</svg>
