<svg width="140" height="140" viewBox="0 0 140 140" fill="none" xmlns="http://www.w3.org/2000/svg">
<path d="M45.5018 101.393H39.7739V78.6934H45.5018V101.393Z" fill="#C4122E"/>
<mask id="mask0_190_7148" style="mask-type:luminance" maskUnits="userSpaceOnUse" x="0" y="30" width="140" height="80">
<path d="M0 109.88H140V30.1196H0V109.88Z" fill="white"/>
</mask>
<g mask="url(#mask0_190_7148)">
<path d="M91.6875 85.1975C91.4517 85.0777 89.6083 83.9856 86.8686 83.9856C83.1656 83.9856 80.5964 86.5619 80.5964 90.04C80.5964 93.4128 83.0549 96.0999 86.8686 96.0999C89.5611 96.0999 91.4353 95.0295 91.6875 94.8952V100.988C90.9691 101.187 89.0114 101.795 86.4677 101.795C80.0249 101.795 74.3696 97.3536 74.3696 90.0382C74.3696 83.2616 79.4861 78.2903 86.4677 78.2903C89.1529 78.2903 91.145 78.9435 91.6875 79.105V85.1975ZM31.8995 85.1975C31.6691 85.0777 29.8275 83.9856 27.0879 83.9856C23.3775 83.9856 20.8102 86.5619 20.8102 90.04C20.8102 93.4128 23.2705 96.0999 27.0879 96.0999C29.7804 96.0999 31.6528 95.0295 31.8995 94.8952V100.988C31.1883 101.187 29.2324 101.795 26.6742 101.795C20.2369 101.795 14.5889 97.3536 14.5889 90.0382C14.5889 83.2616 19.7053 78.2903 26.676 78.2903C29.3721 78.2903 31.3606 78.9435 31.8995 79.105V85.1975ZM109.706 84.0708C106.308 84.0708 103.784 86.7451 103.784 90.04C103.784 93.3421 106.308 96.0147 109.706 96.0147C113.1 96.0147 115.631 93.3421 115.631 90.04C115.631 86.7451 113.1 84.0708 109.706 84.0708ZM121.7 90.04C121.7 96.5335 116.687 101.795 109.708 101.795C102.724 101.795 97.7184 96.5335 97.7184 90.0382C97.7184 83.5574 102.726 78.2903 109.706 78.2903C116.687 78.2903 121.7 83.5573 121.7 90.04ZM67.2229 83.8531C67.1377 83.8259 64.7264 83.16 62.7451 83.16C60.45 83.16 59.2017 83.9293 59.2017 85.0197C59.2017 86.4023 60.8854 86.8848 61.8271 87.1824L63.4074 87.685C67.1268 88.868 68.8196 91.4134 68.8196 94.1785C68.8196 99.881 63.8047 101.797 59.4213 101.797C56.375 101.797 53.521 101.234 53.2398 101.176V95.9511C53.7442 96.0781 56.1464 96.7966 58.6484 96.7966C61.4987 96.7966 62.8086 95.962 62.8086 94.6775C62.8086 93.5272 61.6747 92.8631 60.254 92.4168C59.9093 92.3006 59.3868 92.1373 59.0312 92.0212C55.8416 91.0124 53.1817 89.1364 53.1817 85.3808C53.1817 81.1352 56.3605 78.2848 61.6402 78.2848C64.4288 78.2848 67.0524 78.9616 67.2229 79.007V83.8512V83.8531Z" fill="#C4122E"/>
<path d="M8.51463 54.2991C8.51463 52.7351 7.23733 51.4669 5.67155 51.4669C4.10577 51.4669 2.82666 52.7351 2.82666 54.2972V60.2574C2.8454 60.9992 3.15326 61.7044 3.68457 62.2225C4.21587 62.7405 4.92858 63.0304 5.67065 63.0304C6.41272 63.0304 7.12541 62.7405 7.65672 62.2225C8.18803 61.7044 8.49589 60.9992 8.51463 60.2574V54.2991ZM24.1343 46.4793C24.1343 45.725 23.8347 45.0016 23.3013 44.4683C22.768 43.9349 22.0446 43.6353 21.2903 43.6353C20.5361 43.6353 19.8127 43.9349 19.2793 44.4683C18.746 45.0016 18.4463 45.725 18.4463 46.4793V60.2574C18.4463 61.0117 18.746 61.7351 19.2793 62.2684C19.8127 62.8018 20.5361 63.1014 21.2903 63.1014C22.0446 63.1014 22.768 62.8018 23.3013 62.2684C23.8347 61.7351 24.1343 61.0117 24.1343 60.2574V46.4774V46.4793ZM39.7558 35.7783C39.7558 34.2143 38.4785 32.9443 36.9127 32.9443C35.3451 32.9443 34.0678 34.2143 34.0678 35.7783V65.9199C34.0866 66.6617 34.3944 67.3669 34.9257 67.885C35.457 68.403 36.1697 68.693 36.9118 68.693C37.6539 68.693 38.3666 68.403 38.8979 67.885C39.4292 67.3669 39.7371 66.6617 39.7558 65.9199V35.7783ZM55.3755 46.4793C55.3755 45.725 55.0758 45.0016 54.5425 44.4683C54.0091 43.9349 53.2857 43.6353 52.5315 43.6353C51.7772 43.6353 51.0538 43.9349 50.5205 44.4683C49.9871 45.0016 49.6875 45.725 49.6875 46.4793V60.2574C49.6875 61.0117 49.9871 61.7351 50.5205 62.2684C51.0538 62.8018 51.7772 63.1014 52.5315 63.1014C53.2857 63.1014 54.0091 62.8018 54.5425 62.2684C55.0758 61.7351 55.3755 61.0117 55.3755 60.2574V46.4774V46.4793ZM70.9788 54.2991C70.9793 53.5488 70.6818 52.8289 70.1517 52.2978C69.6217 51.7667 68.9024 51.4678 68.1521 51.4669C67.4001 51.4664 66.6786 51.7641 66.1457 52.2946C65.6127 52.8252 65.3119 53.5452 65.309 54.2972V60.2574C65.309 61.0093 65.6077 61.7303 66.1393 62.262C66.671 62.7936 67.392 63.0923 68.1439 63.0923C68.8958 63.0923 69.6168 62.7936 70.1485 62.262C70.6801 61.7303 70.9788 61.0093 70.9788 60.2574V54.2991ZM86.6058 46.4793C86.587 45.7398 86.2802 45.0369 85.7505 44.5205C85.2209 44.0042 84.5105 43.7151 83.7708 43.7151C83.0312 43.7151 82.3207 44.0042 81.7911 44.5205C81.2615 45.0369 80.9546 45.7398 80.9359 46.4793V60.2574C80.9359 61.0093 81.2346 61.7303 81.7663 62.262C82.2979 62.7936 83.019 63.0923 83.7708 63.0923C84.5227 63.0923 85.2438 62.7936 85.7754 62.262C86.3071 61.7303 86.6058 61.0093 86.6058 60.2574V46.4774V46.4793ZM102.236 35.7783C102.236 35.0264 101.938 34.3053 101.406 33.7737C100.874 33.242 100.153 32.9434 99.4014 32.9434C98.6495 32.9434 97.9284 33.242 97.3968 33.7737C96.8651 34.3053 96.5665 35.0264 96.5665 35.7783V65.9199C96.5497 66.3026 96.6106 66.6848 96.7455 67.0434C96.8804 67.4019 97.0865 67.7295 97.3514 68.0062C97.6163 68.283 97.9345 68.5032 98.2868 68.6537C98.6391 68.8042 99.0183 68.8818 99.4014 68.8818C99.7845 68.8818 100.164 68.8042 100.516 68.6537C100.868 68.5032 101.186 68.283 101.451 68.0062C101.716 67.7295 101.922 67.4019 102.057 67.0434C102.192 66.6848 102.253 66.3026 102.236 65.9199V35.7783ZM117.863 46.4793C117.863 44.9135 116.595 43.6416 114.993 43.6416C114.241 43.6421 113.52 43.9411 112.989 44.4728C112.457 45.0046 112.159 45.7256 112.159 46.4774V60.2574C112.159 61.8304 113.429 63.0986 114.993 63.0986C116.595 63.0986 117.863 61.8304 117.863 60.2574V46.4774V46.4793ZM133.461 54.2991C133.461 53.5465 133.162 52.8247 132.63 52.2925C132.098 51.7604 131.376 51.4614 130.623 51.4614C129.871 51.4614 129.149 51.7604 128.617 52.2925C128.085 52.8247 127.786 53.5465 127.786 54.2991V60.2574C127.786 61.8304 129.058 63.1004 130.623 63.1004C132.187 63.1004 133.459 61.8304 133.459 60.2574V54.2991H133.461Z" fill="#15495D"/>
<path d="M130.183 98.4034V98.759H129.17V101.392H128.753V98.7609H127.737V98.4034H130.183ZM130.395 98.4034H131.046L131.941 100.855H131.955L132.821 98.4052H133.459V101.392H133.033V98.9423H133.018L132.111 101.392H131.717L130.832 98.9423H130.812V101.392H130.395V98.4034Z" fill="#C4122E"/>
</g>
</svg>
