<svg width="141" height="140" viewBox="0 0 141 140" fill="none" xmlns="http://www.w3.org/2000/svg">
<g clip-path="url(#clip0_190_7287)">
<path fill-rule="evenodd" clip-rule="evenodd" d="M18.3716 100.194L20.9202 91.5252H25.3093L26.4176 95.2294L29.6017 91.5078H34.2603L31.8359 100.186L28.3154 100.198L29.6017 95.7211L25.5163 100.198H23.7855L22.5246 95.4088L21.1076 100.198L18.3716 100.194ZM49.3762 91.5064L60.1901 91.5252L59.5408 94.3244H55.8279L54.3027 100.194L50.8803 100.198L52.3032 94.3491H48.6484L49.3762 91.5064ZM78.3805 91.5223V93.5378H78.3863L77.965 95.2149H81.6721C81.6721 95.2149 82.5727 95.0587 82.6243 94.2373C82.6672 93.5102 81.9902 93.5611 81.9902 93.5611L78.3812 93.548V91.5245L83.9658 91.5216C83.9658 91.5216 86.3561 91.7025 86.1237 93.771C85.884 95.8381 83.6869 96.4975 83.6869 96.4975C83.6869 96.4975 83.5533 96.6297 83.6571 96.7074C83.761 96.7837 84.5817 96.9384 84.6856 97.7119C84.7894 98.4869 84.4161 99.0505 84.4161 99.2851C84.4161 99.5154 84.4401 99.9802 84.7342 100.186H81.2051C81.2051 100.186 80.5754 100.089 80.6291 99.4391C80.6814 98.7963 80.7112 98.2305 80.7112 98.2305C80.7112 98.2305 80.6589 97.5558 79.7126 97.6364L77.132 97.611L76.397 100.194H73.1598L75.6242 91.5231L78.3805 91.5223ZM102.892 91.5223H106.204L104.599 97.8114H110.05L109.417 100.201H100.629L102.892 91.5223ZM120.639 91.5151L122.626 100.198H119.181L118.816 98.6932L118.804 98.6641H114.629L114.615 98.6772L113.606 100.194L110.688 100.198L116.581 91.5151L117.722 94.0746L116.013 96.605L116.063 96.6232H118.277L118.317 96.6188L117.722 94.0746L116.581 91.5151H120.639ZM41.9809 93.4442C43.0319 93.4442 44.0669 93.9642 44.2303 94.7188C44.7293 97.1323 42.1552 98.1659 42.4574 98.0141C40.9764 98.7484 38.7263 98.513 38.462 96.9914C38.2114 95.5287 39.3408 94.0884 40.2915 93.7448C40.9423 93.5102 41.479 93.4107 41.9809 93.4442L41.9882 93.4216L42.0005 91.1715C41.32 91.1853 40.5537 91.2696 39.9494 91.388C37.3543 91.8855 34.0838 94.2431 34.6597 97.2275C35.1449 99.7499 38.5665 101.104 42.4029 100.362C46.0003 99.6715 48.3557 96.9014 47.8495 94.4443C47.3628 92.0671 44.547 91.1715 42.0005 91.1715V93.1173L41.9809 93.4442ZM67.1329 93.4442C68.1824 93.4442 69.221 93.9642 69.375 94.7188C69.8834 97.1323 67.3065 98.1659 67.6137 98.0141C66.1306 98.7484 63.8783 98.513 63.6161 96.9914C63.3619 95.5287 64.4921 94.0884 65.445 93.7448C66.0936 93.5102 66.6376 93.4107 67.1329 93.4442L67.1402 93.4216L67.1547 91.1715C66.4648 91.1882 65.7774 91.2605 65.0993 91.388C62.5063 91.8855 59.2307 94.2431 59.8067 97.2275C60.2911 99.7499 63.7215 101.104 67.5513 100.362C71.1523 99.6715 73.5113 96.9014 73.0029 94.4443C72.5148 92.0671 69.7004 91.1715 67.1547 91.1715L67.154 93.1173L67.1329 93.4442ZM94.4769 93.4216C95.5264 93.4797 96.5549 93.9642 96.7154 94.7188C97.2173 97.1323 94.6425 98.1659 94.9519 98.0141C93.4681 98.7484 91.2165 98.513 90.9529 96.9914C90.7001 95.5287 91.8266 94.0884 92.7817 93.7448C93.5632 93.4609 93.8683 93.3817 94.4769 93.4216L94.4914 91.1715C93.8016 91.1885 93.1142 91.2609 92.436 91.388C89.8474 91.8855 86.5747 94.2431 87.1478 97.2275C87.6329 99.7499 91.0604 101.104 94.8931 100.362C98.4905 99.6715 100.85 96.9014 100.337 94.4443C99.8523 92.0671 97.0364 91.1715 94.4914 91.1715V93.1173L94.4769 93.4216ZM70.5378 30.498C85.1678 30.498 96.6842 42.2816 96.6842 56.6342C96.6842 71.0717 84.9754 82.7725 70.5378 82.7725C56.1003 82.7725 44.3995 71.0717 44.3995 56.6342C44.3995 42.1967 56.101 30.498 70.5378 30.498ZM70.4797 62.1142L63.1673 37.8555L53.6999 68.9146H55.4764C55.4764 68.9146 56.6726 63.5116 58.6104 60.2839C59.6687 58.5342 61.2978 57.1012 63.4767 57.1419C65.0121 57.1695 66.3398 58.0105 68.0001 60.3275C68.9981 61.7212 70.5349 65.2671 70.5349 65.2671C70.5349 65.2671 72.0718 61.7263 73.0734 60.3275C74.7272 58.0105 76.0563 57.1695 77.5946 57.1419C79.7692 57.1005 81.4048 58.5342 82.4587 60.2868C84.4009 63.5109 85.5935 68.9139 85.5935 68.9139H87.3736L77.9004 37.8548L70.588 62.1142L70.5386 62.1585L70.4797 62.1142Z" fill="#0173DB"/>
</g>
<defs>
<clipPath id="clip0_190_7287">
<rect width="140" height="140" fill="white" transform="translate(0.5)"/>
</clipPath>
</defs>
</svg>
