<svg width="120" height="138" viewBox="0 0 120 138" fill="none" xmlns="http://www.w3.org/2000/svg">
<g clip-path="url(#clip0_190_7202)">
<path d="M0.128906 110.646H4.6113L14.9689 124.436V110.646H19.7742V132.942H15.6463L4.94052 118.863V132.938H0.128906L0.128906 110.646ZM34.0413 123.136C33.7627 120.995 32.4965 119.537 30.4864 119.537C28.4921 119.537 27.1942 120.966 26.808 123.136H34.0413ZM22.1072 124.566V124.503C22.1072 119.661 25.5576 115.689 30.4864 115.689C36.1273 115.689 38.7231 120.08 38.7231 124.871C38.7231 125.262 38.6914 125.697 38.6629 126.145H26.8871C27.362 128.319 28.8624 129.466 31.0118 129.466C32.6358 129.466 33.7943 128.957 35.1239 127.728L37.8589 130.165C36.2983 132.119 34.0096 133.313 30.9485 133.313C25.8647 133.313 22.1072 129.748 22.1072 124.566ZM41.724 128.131V120.112H39.6981V116H41.724V111.67H46.5166V116H50.5052V120.112H46.5166V127.34C46.5166 128.458 46.9946 128.986 48.0614 128.986C48.9572 128.986 49.7455 128.767 50.4419 128.395V132.239C49.4226 132.846 48.2482 133.221 46.6401 133.221C43.7183 133.221 41.724 132.055 41.724 128.131ZM88.6973 124.503V124.439C88.6973 121.634 86.798 119.756 84.5536 119.756C82.3093 119.756 80.4575 121.63 80.4575 124.439V124.503C80.4575 127.311 82.3125 129.189 84.5536 129.189C86.7948 129.189 88.6973 127.343 88.6973 124.503ZM75.7123 116H80.5208V118.437C81.6793 116.855 83.2874 115.692 85.7914 115.692C89.7325 115.692 93.4899 118.777 93.4899 124.439V124.503C93.4899 130.165 89.7958 133.253 85.7914 133.253C83.2273 133.253 81.6477 132.09 80.5208 130.74V138H75.7123V116ZM108.434 124.503V124.439C108.434 121.634 106.535 119.756 104.291 119.756C102.046 119.756 100.182 121.63 100.182 124.439V124.503C100.182 127.311 102.05 129.189 104.291 129.189C106.532 129.189 108.434 127.343 108.434 124.503ZM95.4494 116H100.258V118.437C101.416 116.855 103.025 115.692 105.528 115.692C109.47 115.692 113.227 118.777 113.227 124.439V124.503C113.227 130.165 109.533 133.253 105.528 133.253C102.964 133.253 101.385 132.09 100.258 130.74V138H95.4494V116ZM65.9593 123.68L63.0217 116.499L60.0872 123.68H65.9593ZM60.904 110.646H65.2787L74.5062 132.942H69.4541L67.4123 127.979H58.6469L56.621 132.942H51.6638L60.904 110.646Z" fill="#211E1E"/>
<path d="M0.128418 -0.000976562V93.9361H43.9172V37.5739H68.9408V93.9393H112.73V-0.000976562H0.128418Z" fill="#0067C5"/>
<path d="M119.871 119.783H119.301V116.619H119.282L118.171 119.783H117.813L116.702 116.619H116.686V119.783H116.117V115.999H116.997L118 118.868L119.004 115.999H119.871V119.783ZM115.436 116.495H114.369V119.783H113.799L113.796 116.495H112.729V115.999H115.436V116.495Z" fill="#211E1E"/>
</g>
<defs>
<clipPath id="clip0_190_7202">
<rect width="120" height="138" fill="white"/>
</clipPath>
</defs>
</svg>
