<svg width="220" height="79" viewBox="0 0 220 79" fill="none" xmlns="http://www.w3.org/2000/svg">
<g clip-path="url(#clip0_190_7277)">
<path d="M0.0214844 0H219.978V79H0.0214844V0Z" fill="#212529"/>
<path d="M138.863 65.7878H140.024V60.8186L143.962 65.7878H145.222V59.0843H144.061V64.0339L140.123 59.0843H138.863V65.7878ZM146.817 65.7878H152.27V64.716H147.998V62.8647H152.054V61.7929H147.998V60.156H152.192V59.0843H146.837L146.817 65.7878ZM153.314 60.156H155.736V65.7878H156.897V60.156H159.299V59.0843H153.393L153.314 60.156ZM162.449 65.7878H163.67C163.67 65.7878 165.166 61.1889 165.363 60.6432C165.521 61.1889 167.037 65.7878 167.037 65.7878H168.238L170.482 59.0843H169.261L167.706 64.1119L166.033 59.0843H164.733L163.119 64.1119C162.941 63.5663 161.544 59.0843 161.544 59.0843H160.284L162.449 65.7878ZM174.498 58.9284C174.004 58.9017 173.509 58.9761 173.045 59.1471C172.581 59.3181 172.158 59.582 171.801 59.9222C171.196 60.6268 170.864 61.5212 170.864 62.4457C170.864 63.3703 171.196 64.2647 171.801 64.9693C172.16 65.3067 172.583 65.5687 173.047 65.7395C173.511 65.9103 174.004 65.9864 174.498 65.9631C174.987 65.9992 175.479 65.935 175.941 65.7746C176.404 65.6141 176.828 65.3609 177.188 65.0308C177.547 64.7006 177.834 64.3007 178.03 63.8559C178.226 63.4111 178.327 62.931 178.327 62.4457C178.327 61.9605 178.226 61.4804 178.03 61.0356C177.834 60.5909 177.547 60.1909 177.188 59.8607C176.828 59.5306 176.404 59.2774 175.941 59.117C175.479 58.9565 174.987 58.8923 174.498 58.9284ZM172.648 64.2093C172.215 63.7281 171.989 63.099 172.018 62.4555C171.985 61.8114 172.211 61.1807 172.648 60.7017C172.894 60.4705 173.185 60.291 173.503 60.1738C173.821 60.0565 174.159 60.0041 174.498 60.0196C174.841 59.9893 175.187 60.03 175.513 60.1391C175.84 60.2482 176.139 60.4234 176.393 60.6534C176.648 60.8835 176.851 61.1634 176.989 61.4753C177.128 61.7873 177.2 62.1244 177.2 62.4652C177.2 62.8061 177.128 63.1432 176.989 63.4552C176.851 63.7671 176.648 64.047 176.393 64.2771C176.139 64.5071 175.84 64.6823 175.513 64.7914C175.187 64.9005 174.841 64.9412 174.498 64.9109C174.159 64.9264 173.821 64.8739 173.503 64.7567C173.185 64.6395 172.894 64.46 172.648 64.2288M179.46 65.7878H180.641V63.0596H183.004C183.673 63.0596 184.067 63.2739 184.126 64.4627V64.6575C184.126 65.3201 184.126 65.5539 184.343 65.7488H185.642L185.484 65.5734C185.288 65.3396 185.248 65.0473 185.209 63.878C185.229 63.5964 185.165 63.3152 185.025 63.0693C184.885 62.8233 184.675 62.6235 184.421 62.4945C184.716 62.3467 184.961 62.1166 185.126 61.8326C185.29 61.5486 185.367 61.2232 185.347 60.8965C185.361 60.6523 185.323 60.4078 185.235 60.1791C185.147 59.9505 185.011 59.7428 184.836 59.5698C184.662 59.3968 184.452 59.2624 184.221 59.1754C183.99 59.0883 183.743 59.0506 183.496 59.0648H179.44L179.46 65.7878ZM180.641 60.156H183.201C183.85 60.156 184.205 60.4873 184.205 61.0719C184.205 61.6565 184.087 61.9878 183.181 61.9878H180.641V60.156ZM187.06 65.8072H188.241V63.6247L189.265 62.6893L191.844 65.8072H193.439L190.151 61.9099C190.328 61.7735 193.32 59.1037 193.32 59.1037H191.647L188.241 62.2022V59.1037H187.06V65.8072ZM194.344 61.0135C194.344 62.4945 195.84 62.7478 196.313 62.8258L197.77 63.0791C198.538 63.2155 198.853 63.4493 198.853 63.917C198.858 64.0209 198.841 64.1246 198.804 64.2218C198.766 64.319 198.709 64.4076 198.636 64.4821C198.248 64.7927 197.756 64.946 197.258 64.9109C196.53 64.9109 195.289 64.7355 195.289 63.5468V63.4104H194.108V63.5078C194.097 63.8039 194.145 64.0994 194.249 64.377C194.354 64.6546 194.514 64.9089 194.718 65.1252C195.396 65.6952 196.272 65.9817 197.16 65.9242C197.996 65.9652 198.818 65.694 199.463 65.1642C199.654 64.969 199.802 64.7364 199.897 64.4814C199.992 64.2263 200.032 63.9544 200.014 63.6832C200.014 62.2801 198.518 62.0073 198.046 61.9294L196.471 61.6565C195.624 61.5006 195.525 61.1499 195.525 60.916C195.522 60.7072 195.6 60.505 195.742 60.3509C196.065 60.0802 196.481 59.9409 196.904 59.9612C198.341 59.9612 198.597 60.5848 198.676 61.0719V61.1694H199.837V61.0329C199.837 59.6884 198.715 58.9089 197.002 58.9089C195.289 58.9089 194.324 59.6884 194.324 60.9745M84.0311 31.3154C83.3585 30.6774 82.5654 30.1769 81.6972 29.8425C80.829 29.5081 79.9027 29.3464 78.9713 29.3667C77.9238 29.2966 76.8754 29.4882 75.9224 29.9241C74.9694 30.36 74.1425 31.026 73.5176 31.861V30.6139C73.2874 30.308 72.9912 30.0566 72.6507 29.878C72.3102 29.6994 71.9338 29.5979 71.5488 29.581C71.162 29.5893 70.7825 29.687 70.4407 29.8663C70.0988 30.0457 69.8041 30.3017 69.58 30.6139V59.0648H73.7342V48.4444C74.3708 49.2506 75.197 49.8904 76.1407 50.3082C77.0844 50.726 78.1169 50.909 79.1485 50.8413C80.074 50.8617 80.9944 50.7 81.8562 50.3655C82.7181 50.031 83.5042 49.5303 84.169 48.8926C86.2559 46.788 86.4922 43.1829 86.4922 40.0066C86.4922 36.8302 86.2559 33.2641 84.169 31.1595M78.0459 47.0024C74.3052 47.0024 73.7342 43.7286 73.7342 40.0066C73.7342 36.2846 74.3052 33.0692 78.0459 33.0692C81.7867 33.0692 82.338 36.2846 82.338 40.0066C82.338 43.7286 81.8064 47.0024 78.0459 47.0024ZM101.573 50.6659V48.7172C100.883 49.4715 100.027 50.0588 99.0714 50.4338C98.1156 50.8088 97.0855 50.9616 96.0606 50.8803C95.0517 50.9606 94.0371 50.8284 93.0835 50.4925C92.13 50.1566 91.2591 49.6247 90.5283 48.9316C89.4243 47.6918 88.8399 46.0818 88.8941 44.4301C88.8941 40.903 91.2961 38.3891 96.0213 38.3891H101.495V36.9081C101.495 34.2579 100.175 33.0107 96.9663 33.0107C96.1041 32.9016 95.2282 33.0251 94.4311 33.3681C93.634 33.7111 92.9454 34.261 92.438 34.9594L89.7013 32.3482C90.5884 31.2749 91.7313 30.4369 93.027 29.9097C94.3227 29.3824 95.7306 29.1824 97.1238 29.3277C102.794 29.3277 105.649 31.7831 105.649 36.5379V50.549L101.573 50.6659ZM101.573 41.4096H96.7104C94.269 41.4096 93.009 42.5204 93.009 44.4106C93.009 46.3008 94.1903 47.3921 96.7891 47.3921C97.4933 47.4897 98.2105 47.4339 98.8907 47.2286C99.5708 47.0233 100.197 46.6734 100.727 46.2034C101.423 45.3257 101.747 44.2149 101.632 43.105L101.573 41.4096ZM116.143 47.0608C114.469 47.0608 113.898 46.2424 113.898 44.625V21.2406C113.657 20.9169 113.342 20.6533 112.98 20.4707C112.618 20.288 112.218 20.1914 111.811 20.1883C111.423 20.2018 111.044 20.3038 110.702 20.4864C110.361 20.6689 110.067 20.927 109.842 21.2406V44.8783C109.757 45.6465 109.843 46.4239 110.094 47.1557C110.346 47.8874 110.756 48.5556 111.297 49.1131C111.838 49.6707 112.495 50.1039 113.224 50.3823C113.952 50.6607 114.734 50.7775 115.513 50.7244H118.072V47.1193L116.143 47.0608ZM134.236 48.4249C133.434 49.2437 132.468 49.8882 131.4 50.3176C130.333 50.7471 129.186 50.9519 128.034 50.9192C126.888 50.9525 125.748 50.7477 124.686 50.3181C123.625 49.8885 122.666 49.2436 121.872 48.4249C119.903 46.3593 119.431 43.7091 119.431 40.1625C119.431 36.6158 119.923 34.0046 121.872 31.939C122.666 31.1203 123.625 30.4754 124.686 30.0458C125.748 29.6162 126.888 29.4114 128.034 29.4446C129.186 29.4119 130.333 29.6168 131.4 30.0462C132.468 30.4756 133.434 31.1202 134.236 31.939C136.205 34.0046 136.677 36.6548 136.677 40.1625C136.677 43.6701 136.185 46.3593 134.236 48.4249ZM131.086 34.4138C130.685 34.0211 130.208 33.7131 129.684 33.5088C129.159 33.3044 128.598 33.2079 128.034 33.2251C127.477 33.2075 126.921 33.304 126.403 33.5085C125.885 33.713 125.414 34.0212 125.022 34.4138C124.079 36.1862 123.586 38.1592 123.586 40.1625C123.586 42.1657 124.079 44.1387 125.022 45.9111C125.413 46.3088 125.881 46.623 126.399 46.8342C126.918 47.0453 127.474 47.149 128.034 47.1388C128.6 47.1486 129.163 47.0449 129.687 46.8339C130.211 46.6229 130.687 46.309 131.086 45.9111C132.029 44.1387 132.522 42.1657 132.522 40.1625C132.522 38.1592 132.029 36.1862 131.086 34.4138ZM167.096 47.0608C165.422 47.0608 164.851 46.2424 164.851 44.625V21.2406C164.61 20.9169 164.295 20.6533 163.933 20.4707C163.571 20.288 163.171 20.1914 162.764 20.1883C162.357 20.1883 161.956 20.2836 161.593 20.4665C161.23 20.6494 160.917 20.9147 160.677 21.2406V44.8783C160.592 45.6465 160.678 46.4239 160.929 47.1557C161.181 47.8874 161.591 48.5556 162.132 49.1131C162.673 49.6707 163.33 50.1039 164.059 50.3823C164.787 50.6607 165.569 50.7775 166.348 50.7244H168.927V47.1193L167.096 47.0608ZM151.896 50.6659V48.7172C151.206 49.4715 150.35 50.0588 149.394 50.4338C148.439 50.8088 147.409 50.9616 146.384 50.8803C145.375 50.9606 144.36 50.8284 143.407 50.4925C142.453 50.1566 141.582 49.6247 140.851 48.9316C139.747 47.6918 139.163 46.0818 139.217 44.4301C139.217 40.903 141.619 38.3891 146.344 38.3891H151.818V36.9081C151.818 34.2579 150.499 33.0107 147.289 33.0107C146.427 32.9016 145.551 33.0251 144.754 33.3681C143.957 33.7111 143.268 34.261 142.761 34.9594L140.024 32.3482C140.911 31.2749 142.054 30.4369 143.35 29.9097C144.646 29.3824 146.054 29.1824 147.447 29.3277C153.117 29.3277 155.972 31.7831 155.972 36.5379V50.549L151.896 50.6659ZM151.896 41.4096H147.033C144.592 41.4096 143.332 42.5204 143.332 44.4106C143.332 46.3008 144.513 47.3921 147.112 47.3921C147.816 47.4897 148.534 47.4339 149.214 47.2286C149.894 47.0233 150.521 46.6734 151.05 46.2034C151.746 45.3257 152.07 44.2149 151.955 43.105L151.896 41.4096ZM180.405 33.3031V30.0682H176.467V23.7155C176.22 23.395 175.901 23.1351 175.536 22.956C175.17 22.7769 174.768 22.6834 174.361 22.6827C173.974 22.7005 173.596 22.8043 173.255 22.9865C172.914 23.1687 172.619 23.4245 172.392 23.735V30.0682H170.029V33.3031H172.392V44.8393C172.327 45.6033 172.427 46.3723 172.686 47.095C172.944 47.8178 173.356 48.4777 173.892 49.0308C174.428 49.5839 175.078 50.0175 175.797 50.3028C176.516 50.5881 177.288 50.7185 178.062 50.6854H180.543V47.0803H178.83C177.294 47.0803 176.566 46.1839 176.566 44.6444V33.3225L180.405 33.3031ZM197.711 48.4249C196.908 49.2437 195.943 49.8882 194.875 50.3176C193.807 50.7471 192.661 50.9519 191.509 50.9192C190.363 50.9537 189.222 50.7495 188.16 50.3198C187.099 49.8901 186.14 49.2446 185.347 48.4249C183.378 46.3593 182.905 43.7091 182.905 40.1625C182.905 36.6158 183.398 34.0046 185.347 31.939C186.14 31.1193 187.099 30.4738 188.16 30.0441C189.222 29.6144 190.363 29.4102 191.509 29.4446C192.661 29.4119 193.807 29.6168 194.875 30.0462C195.943 30.4756 196.908 31.1202 197.711 31.939C199.68 34.0046 200.152 36.6548 200.152 40.1625C200.152 43.6701 199.66 46.3593 197.711 48.4249ZM194.561 34.4138C194.16 34.0211 193.683 33.7131 193.158 33.5088C192.634 33.3044 192.073 33.2079 191.509 33.2251C190.951 33.2075 190.396 33.304 189.878 33.5085C189.359 33.713 188.889 34.0212 188.497 34.4138C187.554 36.1862 187.061 38.1592 187.061 40.1625C187.061 42.1657 187.554 44.1387 188.497 45.9111C188.887 46.3088 189.356 46.623 189.874 46.8342C190.392 47.0453 190.949 47.149 191.509 47.1388C192.094 47.157 192.677 47.0538 193.22 46.8356C193.762 46.6175 194.253 46.2892 194.659 45.8721C195.602 44.0998 196.095 42.1267 196.095 40.1235C196.095 38.1203 195.602 36.1472 194.659 34.3748M203.676 63.157C203.133 63.157 202.613 62.9435 202.229 62.5634C201.845 62.1834 201.629 61.6679 201.629 61.1304C201.629 60.5929 201.845 60.0774 202.229 59.6973C202.613 59.3173 203.133 59.1037 203.676 59.1037C204.219 59.1037 204.74 59.3173 205.124 59.6973C205.508 60.0774 205.724 60.5929 205.724 61.1304C205.724 61.6679 205.508 62.1834 205.124 62.5634C204.74 62.9435 204.219 63.157 203.676 63.157ZM203.676 59.396C203.451 59.4011 203.23 59.45 203.024 59.5399C202.818 59.6298 202.632 59.759 202.477 59.92C202.321 60.0811 202.199 60.2709 202.118 60.4786C202.037 60.6862 201.998 60.9077 202.003 61.1304C202.003 61.5697 202.179 61.991 202.493 62.3016C202.807 62.6123 203.233 62.7868 203.676 62.7868C204.12 62.7868 204.546 62.6123 204.86 62.3016C205.174 61.991 205.35 61.5697 205.35 61.1304C205.355 60.9077 205.316 60.6862 205.235 60.4786C205.153 60.2709 205.032 60.0811 204.876 59.92C204.721 59.759 204.535 59.6298 204.329 59.5399C204.123 59.45 203.901 59.4011 203.676 59.396ZM204.169 62.2411L203.657 61.3253H203.322V62.2411H203.027V60.0196H203.775C203.864 60.017 203.954 60.0322 204.037 60.0644C204.121 60.0965 204.197 60.1449 204.261 60.2067C204.325 60.2684 204.376 60.3424 204.411 60.4241C204.446 60.5057 204.464 60.5935 204.464 60.6822C204.468 60.8213 204.423 60.9575 204.336 61.0676C204.25 61.1776 204.128 61.2549 203.991 61.2863L204.523 62.2411H204.169ZM203.735 60.2924H203.322V61.0719H203.735C203.789 61.0746 203.842 61.0664 203.892 61.048C203.942 61.0296 203.988 61.0014 204.027 60.9649C204.065 60.9284 204.096 60.8846 204.117 60.836C204.138 60.7874 204.149 60.735 204.149 60.6822C204.149 60.6293 204.138 60.577 204.117 60.5284C204.096 60.4798 204.065 60.4359 204.027 60.3995C203.988 60.363 203.942 60.3347 203.892 60.3163C203.842 60.2979 203.789 60.2898 203.735 60.2924ZM57.2552 40.825C57.3456 40.3639 57.5879 39.9456 57.9441 39.6353C58.3004 39.325 58.7505 39.1403 59.224 39.1102V25.8785C59.2292 25.0724 59.0739 24.2732 58.767 23.5265C58.4601 22.7798 58.0076 22.1002 57.4354 21.5266C56.8632 20.953 56.1824 20.4965 55.4319 20.1833C54.6815 19.8701 53.876 19.7063 53.0616 19.7012H25.8525C25.038 19.7063 24.2326 19.8701 23.4821 20.1833C22.7317 20.4965 22.0509 20.953 21.4786 21.5266C20.9064 22.1002 20.4539 22.7798 20.147 23.5265C19.8402 24.2732 19.6849 25.0724 19.6901 25.8785V53.0628C19.6849 53.8689 19.8402 54.6681 20.147 55.4148C20.4539 56.1615 20.9064 56.8411 21.4786 57.4147C22.0509 57.9884 22.7317 58.4448 23.4821 58.758C24.2326 59.0712 25.038 59.2351 25.8525 59.2402H53.0419C53.8563 59.2351 54.6618 59.0712 55.4122 58.758C56.1627 58.4448 56.8435 57.9884 57.4157 57.4147C57.988 56.8411 58.4404 56.1615 58.7473 55.4148C59.0542 54.6681 59.2095 53.8689 59.2043 53.0628V44.4885C58.928 44.6428 58.6159 44.7234 58.2987 44.7224C58.0828 44.7278 57.8685 44.6842 57.6722 44.5951C57.4759 44.506 57.3027 44.3737 57.166 44.2082C57.0292 44.0428 56.9325 43.8486 56.8831 43.6405C56.8337 43.4324 56.833 43.2159 56.8811 43.0075L57.2552 40.825ZM25.0453 44.2352L24.6712 46.4178C24.5807 46.8788 24.3385 47.2972 23.9822 47.6075C23.626 47.9178 23.1759 48.1024 22.7024 48.1326C22.4865 48.138 22.2722 48.0944 22.0759 48.0053C21.8796 47.9162 21.7064 47.7839 21.5697 47.6185C21.4329 47.453 21.3362 47.2588 21.2868 47.0507C21.2374 46.8427 21.2368 46.6261 21.2848 46.4178L21.6589 44.2352C21.7493 43.7742 21.9916 43.3558 22.3478 43.0455C22.7041 42.7352 23.1542 42.5505 23.6277 42.5204C23.8436 42.515 24.0579 42.5585 24.2542 42.6476C24.4505 42.7368 24.6236 42.8691 24.7604 43.0345C24.8971 43.2 24.9939 43.3941 25.0433 43.6022C25.0926 43.8103 25.0933 44.0268 25.0453 44.2352ZM30.9517 44.2352L29.6129 51.8546C29.5296 52.3207 29.29 52.7454 28.9327 53.0601C28.5755 53.3748 28.1215 53.5611 27.6441 53.5889C27.4261 53.5951 27.2096 53.5513 27.0115 53.4611C26.8134 53.3709 26.639 53.2367 26.5018 53.0689C26.3647 52.9011 26.2685 52.7042 26.2207 52.4936C26.173 52.283 26.175 52.0643 26.2266 51.8546L27.5457 44.2352C27.6361 43.7742 27.8784 43.3558 28.2346 43.0455C28.5909 42.7352 29.0409 42.5505 29.5145 42.5204C29.7304 42.515 29.9447 42.5585 30.141 42.6476C30.3373 42.7368 30.5104 42.8691 30.6472 43.0345C30.7839 43.2 30.8807 43.3941 30.93 43.6022C30.9794 43.8103 30.9801 44.0268 30.932 44.2352M37.3898 40.7665L34.8303 55.3623C34.747 55.8284 34.5074 56.2531 34.1501 56.5678C33.7929 56.8825 33.3389 57.0688 32.8615 57.0966C32.6435 57.1027 32.427 57.059 32.2289 56.9688C32.0308 56.8786 31.8563 56.7444 31.7192 56.5765C31.582 56.4087 31.4858 56.2119 31.4381 56.0013C31.3904 55.7906 31.3924 55.572 31.4439 55.3623L33.9837 40.7665C34.067 40.3004 34.3066 39.8757 34.6639 39.561C35.0211 39.2463 35.4751 39.06 35.9525 39.0322C36.171 39.0269 36.3877 39.071 36.5864 39.1611C36.785 39.2512 36.9603 39.385 37.0988 39.5522C37.2374 39.7194 37.3356 39.9157 37.386 40.1261C37.4364 40.3365 37.4377 40.5556 37.3898 40.7665ZM44.4381 33.8097L41.0124 53.4915C40.9227 53.9547 40.6812 54.3757 40.3252 54.6892C39.9693 55.0028 39.5188 55.1914 39.0436 55.2258C38.8268 55.2281 38.6123 55.1818 38.4161 55.0904C38.22 54.999 38.0473 54.8649 37.9109 54.6981C37.7746 54.5313 37.6781 54.3361 37.6288 54.1271C37.5794 53.9182 37.5785 53.7009 37.626 53.4915L41.0518 33.8097C41.1483 33.3515 41.3924 32.9367 41.7474 32.6275C42.1024 32.3183 42.5492 32.1314 43.0206 32.0949C43.2365 32.0895 43.4508 32.133 43.6471 32.2221C43.8434 32.3112 44.0165 32.4436 44.1533 32.609C44.29 32.7744 44.3868 32.9686 44.4362 33.1767C44.4855 33.3848 44.4862 33.6013 44.4381 33.8097ZM50.6006 31.861L48.0608 46.4762C47.9735 46.9388 47.7322 47.359 47.3753 47.6699C47.0184 47.9807 46.5666 48.1642 46.092 48.1911C45.8744 48.1995 45.6579 48.1582 45.4591 48.0704C45.2603 47.9826 45.0845 47.8507 44.9456 47.6849C44.8066 47.519 44.708 47.3238 44.6576 47.1141C44.6072 46.9045 44.6062 46.6863 44.6547 46.4762L47.1945 31.861C47.291 31.4028 47.5351 30.988 47.8901 30.6788C48.2451 30.3696 48.6919 30.1827 49.1633 30.1462C49.3792 30.1408 49.5935 30.1843 49.7898 30.2734C49.9861 30.3626 50.1592 30.4949 50.296 30.6603C50.4327 30.8258 50.5295 31.0199 50.5789 31.228C50.6282 31.4361 50.6289 31.6526 50.5809 31.861M55.8179 35.3687L54.4988 43.0075C54.4023 43.4657 54.1582 43.8806 53.8032 44.1898C53.4482 44.499 53.0014 44.6859 52.53 44.7224C52.3141 44.7278 52.0998 44.6842 51.9035 44.5951C51.7072 44.506 51.5341 44.3737 51.3973 44.2082C51.2606 44.0428 51.1638 43.8486 51.1144 43.6405C51.0651 43.4324 51.0644 43.2159 51.1125 43.0075L52.4513 35.3687C52.5417 34.9076 52.784 34.4892 53.1402 34.1789C53.4964 33.8687 53.9465 33.684 54.4201 33.6538C54.636 33.6485 54.8502 33.692 55.0465 33.7811C55.2429 33.8702 55.416 34.0025 55.5527 34.168C55.6895 34.3334 55.7863 34.5276 55.8356 34.7357C55.885 34.9438 55.8857 35.1603 55.8376 35.3687" fill="white"/>
</g>
<defs>
<clipPath id="clip0_190_7277">
<rect width="220" height="79" fill="white"/>
</clipPath>
</defs>
</svg>
