<svg width="220" height="50" viewBox="0 0 220 50" fill="none" xmlns="http://www.w3.org/2000/svg">
<g clip-path="url(#clip0_190_7249)">
<path d="M5.84111 49.9367C2.49034 49.9367 0.151113 48.9266 0.151113 48.9266V46.0226C0.151113 46.0226 3.69156 47.1589 5.77789 47.1589C7.61134 47.1589 9.44478 46.8433 9.44478 44.5705C9.44478 42.866 8.18034 42.4872 6.59978 42.0453L5.14567 41.6665C3.249 41.0983 0.0878906 40.3407 0.0878906 36.4897C0.0878906 32.1968 3.56511 31.1236 7.16878 31.1236C10.3931 31.1236 12.2266 32.1968 12.2266 32.1968V35.0377C12.2266 35.0377 9.82411 33.9013 7.04234 33.9013C4.76634 33.9013 3.31222 34.3433 3.31222 36.3003C3.31222 38.0049 4.63989 38.3837 6.22045 38.8256L7.99067 39.3306C10.077 39.8988 12.7323 41.0983 12.7323 44.5074C12.7956 48.8003 9.63445 49.9367 5.84111 49.9367ZM24.9974 49.9367C21.457 49.9367 16.5257 48.8003 16.5257 40.5301C16.5257 32.4493 21.5202 31.1236 24.9974 31.1236C28.285 31.1236 33.4692 32.2599 33.4692 40.5301C33.4692 48.9266 28.3482 49.9367 24.9974 49.9367ZM24.9974 33.6488C23.1008 33.6488 19.9397 34.217 19.9397 40.5301C19.9397 46.9064 23.6066 47.3483 24.9974 47.3483C26.7044 47.3483 30.0552 46.6539 30.0552 40.5301C29.992 34.1539 26.8309 33.6488 24.9974 33.6488ZM37.8948 49.621V25.5049H41.3088V49.621H37.8948ZM58.2523 49.621L57.9362 47.2852C57.9362 47.2852 55.8499 49.9998 51.9933 49.9998C49.2116 49.9998 46.1769 48.9897 46.1769 44.4443C46.1769 39.3938 50.9186 38.4468 53.8268 38.4468H57.8098V36.8685C57.8098 34.5327 56.4189 33.9645 54.0164 33.9645C51.1082 33.9645 47.6942 35.2271 47.6942 35.2271V32.4493C47.6942 32.4493 50.7921 31.1867 54.5222 31.1867C58.5052 31.1867 61.2238 32.6387 61.2238 37.4367V49.6842H58.2523V49.621ZM57.8098 40.467L54.5222 40.5301C51.4243 40.5933 49.5277 41.414 49.5277 44.318C49.5277 46.6539 50.9818 47.3483 52.8152 47.3483C55.3441 47.3483 57.8098 45.0125 57.8098 45.0125V40.467ZM73.6153 34.217C71.5922 34.217 70.0117 36.4266 70.0117 36.4266V49.621H66.5977V31.4392H69.3162L69.7588 33.9645C69.7588 33.9645 70.8968 31.1236 73.9947 31.1236C75.7649 31.1236 76.4603 31.6286 76.4603 31.6286V34.7221C76.4603 34.7221 75.3856 34.217 73.6153 34.217ZM103.519 49.621H98.7778L95.9328 39.962C95.1741 37.3736 94.0993 33.1438 94.0993 33.1438C94.0993 33.1438 92.9613 37.4367 92.2027 39.8988L89.4209 49.621H84.6792L79.8743 31.4392H83.7941L86.0069 41.8559C86.5127 44.2549 87.0817 48.0428 87.0817 48.0428C87.0817 48.0428 87.7771 44.2549 88.5358 41.8559L91.6337 31.4392H96.565L99.6629 41.8559C100.358 44.1918 101.117 48.0428 101.117 48.0428C101.117 48.0428 101.686 44.5705 102.255 41.8559L104.468 31.4392H108.324L103.519 49.621ZM112.623 49.621V31.3761H116.037V49.621H112.623ZM134.119 49.621V37.1842C134.119 34.9114 133.171 34.0907 130.831 34.0907C127.797 34.0907 124.825 36.3635 124.825 36.3635V49.621H121.411V31.4392H124.067L124.762 34.0276C124.762 34.0276 127.797 31.1236 131.653 31.1236C135.004 31.1236 137.533 32.5756 137.533 37.2473V49.621H134.119ZM155.362 49.621L154.982 47.3483C154.982 47.3483 153.086 49.9998 149.103 49.9998C146.258 49.9998 141.579 48.7372 141.579 40.5933C141.579 32.3231 147.396 31.1867 149.798 31.1867C153.086 31.1867 154.603 33.0175 154.603 33.0175V25.5049H158.017V49.621H155.362ZM154.603 35.669C154.603 35.669 152.706 33.8382 150.114 33.8382C147.585 33.8382 144.993 34.8483 144.993 40.5301C144.993 46.5276 147.649 47.2221 149.798 47.2221C152.264 47.2221 154.603 45.1387 154.603 45.1387V35.669ZM168.575 49.9367C165.224 49.9367 162.885 48.9266 162.885 48.9266V46.0226C162.885 46.0226 166.426 47.1589 168.512 47.1589C170.345 47.1589 172.179 46.8433 172.179 44.5705C172.179 42.866 170.914 42.4872 169.334 42.0453L167.88 41.6665C165.983 41.0983 162.822 40.3407 162.822 36.4897C162.822 32.1968 166.299 31.1236 169.903 31.1236C173.127 31.1236 174.961 32.1968 174.961 32.1968V35.0377C174.961 35.0377 172.558 33.9013 169.776 33.9013C167.5 33.9013 166.046 34.3433 166.046 36.3003C166.046 38.0049 167.374 38.3837 168.954 38.8256L170.725 39.3306C172.811 39.8988 175.466 41.0983 175.466 44.5074C175.53 48.8003 172.432 49.9367 168.575 49.9367Z" fill="#666666"/>
<path d="M191.525 20.3924C191.715 20.3293 191.841 20.3293 191.967 20.2661C195.445 19.256 198.795 17.9303 202.209 16.5414C205.497 15.1525 208.721 13.5111 211.63 11.1752C214.538 8.77623 216.877 5.6828 218.205 1.89492C218.394 1.38987 218.774 0.569158 218.774 0.000976562C214.222 6.25098 196.077 6.88229 196.077 6.88229L200.376 2.96815C183.18 3.03128 171.167 10.2914 165.667 14.2055C172.685 14.9631 179.07 17.9303 184.065 22.4126C186.53 21.655 189.059 21.0868 191.525 20.3924ZM219.912 19.7611C219.912 19.7611 203.221 18.4985 185.835 24.054C188.111 26.453 190.071 29.2308 191.588 32.1979C200.692 27.2106 213.4 20.708 219.912 19.7611ZM192.726 34.8495C193.801 37.5641 194.496 40.4682 194.812 43.4985L210.744 27.1474L192.726 34.8495Z" fill="#F99D1C"/>
</g>
<defs>
<clipPath id="clip0_190_7249">
<rect width="220" height="50" fill="white"/>
</clipPath>
</defs>
</svg>
