<svg width="181" height="27" viewBox="0 0 181 27" fill="none" xmlns="http://www.w3.org/2000/svg">
<g clip-path="url(#clip0_190_7178)">
<path d="M78.2251 24.9635L70.3402 3.3687C70.234 3.08147 70.1012 2.66367 70.1012 2.32421C70.1012 1.38417 70.8977 0.496361 72.0658 0.496361C73.0747 0.496361 73.7384 1.14917 74.0304 2.06309L80.5614 20.655L87.1455 2.01087C87.4375 1.12305 88.0481 0.496361 89.057 0.496361H89.2694C90.3313 0.496361 90.9685 1.14917 91.2871 2.01087L97.818 20.6289L104.455 1.93253C104.721 1.14917 105.252 0.444136 106.314 0.444136C107.429 0.444136 108.225 1.27973 108.225 2.21976C108.225 2.55922 108.066 2.95091 107.986 3.26425L100.048 24.8851C99.6499 26.008 98.8534 26.6085 97.9242 26.6085H97.7649C96.7561 26.6085 96.0127 26.008 95.641 24.8851L89.1632 6.55439L82.6322 24.8851C82.2871 26.008 81.5171 26.6085 80.5348 26.6085H80.4286C79.4198 26.6869 78.6233 26.0863 78.2251 24.9635ZM135.676 2.35033C135.676 1.30584 136.526 0.418024 137.588 0.418024C138.703 0.418024 139.553 1.25361 139.553 2.35033V6.73717C141.464 2.48089 145.685 0.470248 148.499 0.470248C149.668 0.470248 150.411 1.30584 150.411 2.40255C150.411 3.44704 149.694 4.17818 148.685 4.33485C143.668 4.93543 139.526 8.64336 139.526 16.007V24.6762C139.526 25.7207 138.73 26.6085 137.614 26.6085C136.499 26.6085 135.65 25.773 135.65 24.6762L135.676 2.35033ZM162.836 26.8436C155.827 26.8436 150.119 21.5167 150.119 13.683V13.5786C150.119 6.29327 155.296 0.418024 162.331 0.418024C169.871 0.418024 174.172 6.52828 174.172 13.2391C174.172 14.2575 173.322 15.0147 172.393 15.0147H153.968C154.499 20.4983 158.402 23.5795 162.942 23.5795C166.101 23.5795 168.411 22.3523 170.296 20.6289C170.588 20.3938 170.933 20.1849 171.384 20.1849C172.314 20.1849 173.057 20.9161 173.057 21.8039C173.057 22.2478 172.871 22.6917 172.473 23.0312C170.03 25.3029 167.163 26.8436 162.836 26.8436ZM170.376 12.1946C169.977 7.59888 167.322 3.5776 162.252 3.5776C157.818 3.5776 154.473 7.2333 153.968 12.1946H170.376ZM108.199 18.9316V18.8271C108.199 13.448 112.712 10.6018 119.269 10.6018C122.588 10.6018 124.924 11.0457 127.261 11.6985V10.8107C127.261 6.21493 124.393 3.86483 119.535 3.86483C116.933 3.86483 115.42 4.20429 113.508 5.03988C113.269 5.14433 113.004 5.19655 112.818 5.19655C111.915 5.19655 111.119 4.46541 111.119 3.5776C111.119 2.79423 111.464 2.2981 112.181 1.98476C114.73 0.888043 116.668 0.522473 119.96 0.522473C123.623 0.522473 126.438 1.46251 128.322 3.34259C130.075 5.06599 130.977 7.54665 130.977 10.7846V24.859C130.977 25.9296 130.181 26.7391 129.119 26.7391C128.03 26.7391 127.287 25.9557 127.287 24.9635V22.535C125.482 24.859 122.455 26.9219 117.915 26.9219C113.084 26.8697 108.199 24.154 108.199 18.9316ZM127.314 16.947V14.4925C125.402 13.9441 122.853 13.3958 119.694 13.3958C114.836 13.3958 112.128 15.4586 112.128 18.6704V18.7749C112.128 21.9867 115.128 23.8668 118.659 23.8668C123.411 23.8668 127.314 20.9944 127.314 16.947ZM7.97733 2.14143C7.12777 0.313575 5.03043 -0.522015 3.06582 0.339687C1.10122 1.20139 0.384408 3.34259 1.26051 5.17044L9.4906 22.7701C10.7915 25.5379 12.1455 26.9741 14.7207 26.9741C17.4552 26.9741 18.6499 25.4074 19.9508 22.7701C19.9508 22.7701 27.1189 7.38998 27.1986 7.2333C27.2782 7.07663 27.4906 6.5805 28.234 6.5805C28.8446 6.5805 29.3756 7.07663 29.3756 7.72944V22.7701C29.3756 25.094 30.6764 27.0002 33.1986 27.0002C35.7207 27.0002 37.0747 25.094 37.0747 22.7701V10.4712C37.0747 8.09501 38.8003 6.55439 41.1632 6.55439C43.526 6.55439 45.0924 8.14723 45.0924 10.4712V22.7701C45.0924 25.094 46.3933 27.0002 48.9154 27.0002C51.4375 27.0002 52.7915 25.094 52.7915 22.7701V10.4712C52.7915 8.09501 54.5172 6.55439 56.88 6.55439C59.2428 6.55439 60.8092 8.14723 60.8092 10.4712V22.7701C60.8092 25.094 62.1101 27.0002 64.6322 27.0002C67.1543 27.0002 68.5083 25.094 68.5083 22.7701V8.77392C68.5083 3.62982 64.3136 0.0263411 59.2428 0.0263411C54.1986 0.0263411 51.0127 3.47315 51.0127 3.47315C49.3402 1.30584 47.0039 0.000228956 43.0747 0.000228956C38.9331 0.000228956 35.2959 3.44704 35.2959 3.44704C33.6233 1.30584 30.7561 0.000228956 28.3667 0.000228956C24.703 0.0263411 21.7826 1.61918 20.0039 5.61435L14.7472 17.8087L7.97733 2.14143ZM174.464 3.5776C174.464 1.82808 175.871 0.391912 177.676 0.391912C179.482 0.391912 180.889 1.80197 180.889 3.52537V3.55149C180.889 5.27489 179.482 6.73717 177.676 6.73717C175.871 6.73717 174.464 5.301 174.464 3.5776ZM180.278 3.55149C180.278 2.11532 179.163 0.96638 177.676 0.96638C176.216 0.96638 175.075 2.14143 175.075 3.55149V3.5776C175.075 4.98766 176.19 6.1627 177.676 6.1627C179.137 6.1627 180.278 4.96154 180.278 3.55149Z" fill="#717073"/>
<path d="M176.455 2.32383C176.455 2.14105 176.615 1.98438 176.8 1.98438H177.862C178.261 1.98438 178.579 2.08882 178.765 2.29772C178.951 2.45439 179.03 2.71552 179.03 3.00275C179.03 3.47277 178.792 3.78612 178.42 3.94279L178.898 4.51726C178.951 4.59559 179.004 4.67393 179.004 4.77838C179.004 4.96116 178.845 5.09172 178.685 5.09172C178.526 5.09172 178.42 5.01339 178.34 4.90894L177.677 4.07335H177.119V4.72615C177.119 4.90894 176.96 5.06561 176.774 5.06561C176.588 5.06561 176.429 4.90894 176.429 4.72615L176.455 2.32383ZM177.836 3.47277C178.181 3.47277 178.34 3.28998 178.34 3.02886C178.34 2.74163 178.154 2.58496 177.809 2.58496H177.119V3.47277H177.836Z" fill="#717073"/>
</g>
<defs>
<clipPath id="clip0_190_7178">
<rect width="180" height="27" fill="white" transform="translate(0.888672)"/>
</clipPath>
</defs>
</svg>
