<svg width="80.000000" height="22.001953" viewBox="0 0 80 22.002" fill="none" xmlns="http://www.w3.org/2000/svg" xmlns:xlink="http://www.w3.org/1999/xlink">
	<desc>
			Created with Pixso.
	</desc>
	<defs/>
	<path id="Vector" d="M55.6138 0.613281C55.4463 0.558594 55.0513 0.443359 54.4312 0.265625C53.8115 0.0878906 53.124 0 52.3633 0C51.2944 0 50.4365 0.21875 49.7896 0.652344C49.1426 1.08984 48.8179 1.83984 48.8179 2.90234L48.8179 12.6738L55.6138 0.613281Z" fill="#0078E6" fill-opacity="1.000000" fill-rule="nonzero"/>
	<path id="Vector" d="M20.3154 3.15039C19.2329 2.16797 17.9658 1.40039 16.5181 0.839844C15.0698 0.28125 13.5298 0.00195312 11.8979 0.00195312C10.2388 0.00195312 8.69092 0.28125 7.25635 0.839844C5.82178 1.40039 4.56299 2.16992 3.48047 3.15039C2.39795 4.13281 1.54541 5.28906 0.928223 6.62305C0.308594 7.95898 0 9.41992 0 11C0 12.5801 0.308594 14.0391 0.928223 15.375C1.54834 16.709 2.39795 17.8691 3.48047 18.8496C4.56299 19.832 5.82178 20.6016 7.25635 21.1582C8.69092 21.7168 10.2388 21.9961 11.8979 21.9961C13.5298 21.9961 15.0698 21.7168 16.5181 21.1582C17.9658 20.5996 19.2329 19.8281 20.3154 18.8496C21.3979 17.8672 22.2476 16.709 22.8677 15.375C23.4873 14.0391 23.7959 12.582 23.7959 11C23.7959 9.41992 23.4873 7.96094 22.8677 6.62305C22.2476 5.28906 21.3979 4.13281 20.3154 3.15039ZM16.4746 13.0449C16.2363 13.6719 15.8901 14.209 15.4409 14.6582C14.9917 15.1074 14.4639 15.4629 13.8574 15.7227C13.2515 15.9805 12.5991 16.1113 11.895 16.1113C11.1646 16.1113 10.5015 15.9844 9.91113 15.7227C9.32129 15.4629 8.79883 15.1074 8.34961 14.6582C7.90039 14.209 7.5542 13.6719 7.31592 13.0449C7.07764 12.418 6.95605 11.7363 6.95605 11C6.95605 10.2637 7.07471 9.58398 7.31592 8.95312C7.5542 8.32617 7.90039 7.78906 8.34961 7.33984C8.79883 6.89062 9.32129 6.53516 9.91113 6.27734C10.5015 6.01758 11.1616 5.88672 11.895 5.88672C12.5991 5.88672 13.2515 6.01758 13.8574 6.27734C14.4609 6.53516 14.9888 6.89062 15.4409 7.33984C15.8901 7.78906 16.2363 8.32617 16.4746 8.95312C16.7129 9.58008 16.8345 10.2637 16.8345 11C16.8345 11.7363 16.7129 12.418 16.4746 13.0449ZM43.9868 10.0586C43.2964 9.56836 42.5088 9.19336 41.624 8.93555C40.7388 8.67773 39.8159 8.47852 38.8604 8.3418L35.02 7.8125C34.1187 7.67578 33.4448 7.51172 32.9956 7.32227C32.5464 7.13086 32.3213 6.80469 32.3213 6.33984C32.3213 5.87695 32.5679 5.5 33.0605 5.2168C33.5532 4.92773 34.4326 4.78711 35.6968 4.78711C36.8223 4.78711 37.8267 4.86914 38.7144 5.0332C39.5996 5.19727 40.3599 5.38086 40.9932 5.58398C41.6265 5.78711 42.1328 6 42.5117 6.21875C42.8906 6.4375 43.1235 6.58789 43.207 6.66797C43.2642 6.64258 43.3965 6.55859 43.6079 6.42188C43.8188 6.28711 44.0435 6.0957 44.2817 5.85156C44.52 5.60547 44.731 5.3125 44.915 4.9707C45.0962 4.63086 45.1885 4.24219 45.1885 3.80469C45.1885 3.23242 45.0259 2.75 44.7041 2.35352C44.3794 1.95898 43.9517 1.625 43.4155 1.35156C42.4873 0.890625 41.3828 0.548828 40.103 0.332031C38.8228 0.115234 37.2964 0.00390625 35.5234 0.00390625C33.7778 0.00390625 32.2729 0.1875 31.0088 0.556641C29.7422 0.923828 28.7026 1.42773 27.8857 2.06836C27.0684 2.70898 26.4727 3.45703 26.0913 4.31641C25.7119 5.17578 25.5225 6.10938 25.5225 7.11719C25.5225 8.31641 25.7476 9.3125 26.1968 10.1035C26.646 10.8945 27.2578 11.541 28.0317 12.0449C28.8057 12.5488 29.6987 12.9297 30.7109 13.1875C31.7231 13.4473 32.7788 13.6445 33.875 13.7812L36.0703 14.0273C37.1094 14.1621 37.8779 14.332 38.3706 14.5391C38.8633 14.7422 39.1094 15.1191 39.1094 15.6621C39.1094 16.1797 38.8145 16.5391 38.2246 16.7461C37.6343 16.9492 36.7603 17.0527 35.6074 17.0527C34.5952 17.0527 33.6313 16.9766 32.7168 16.8281C31.8018 16.6777 30.9873 16.5 30.27 16.2969C29.5527 16.0938 28.9331 15.873 28.4131 15.6445C27.8936 15.4121 27.52 15.2148 27.2954 15.0508L24.8892 19.3027C25.1138 19.4688 25.5146 19.7051 26.0913 20.0195C26.6675 20.332 27.4199 20.6328 28.3481 20.918C29.2769 21.2051 30.3809 21.4551 31.6611 21.6758C32.9414 21.8926 34.4111 22.002 36.0703 22.002C39.2476 22.002 41.7378 21.3613 43.54 20.0801C45.3398 18.7988 46.2412 17.0117 46.2412 14.7246C46.2412 13.6348 46.0381 12.707 45.6294 11.9453C45.2266 11.1777 44.6768 10.5508 43.9868 10.0586ZM79.3911 11.9395C78.9824 11.1777 78.4355 10.5508 77.7456 10.0586C77.0552 9.56836 76.2676 9.19336 75.3828 8.93555C74.4976 8.67773 73.5747 8.47852 72.6191 8.3418L68.7788 7.8125C67.8774 7.67578 67.2036 7.51172 66.7544 7.32227C66.3047 7.13086 66.0801 6.80469 66.0801 6.33984C66.0801 5.87695 66.3267 5.5 66.8193 5.2168C67.3115 4.92773 68.1914 4.78711 69.4551 4.78711C70.5811 4.78711 71.5854 4.86914 72.4731 5.0332C73.3579 5.19727 74.1187 5.38086 74.752 5.58398C75.3853 5.78711 75.8916 6 76.2705 6.21875C76.6494 6.4375 76.8818 6.58789 76.9658 6.66797C77.0229 6.64258 77.1553 6.55859 77.3667 6.42188C77.5776 6.28711 77.8022 6.0957 78.0405 5.85156C78.2788 5.60547 78.4897 5.3125 78.6738 4.9707C78.855 4.63086 78.9473 4.24219 78.9473 3.80469C78.9473 3.23242 78.7847 2.75 78.4629 2.35352C78.1377 1.95898 77.7104 1.625 77.1743 1.35156C76.2461 0.890625 75.1416 0.548828 73.8613 0.332031C72.5815 0.115234 71.0547 0.00390625 69.2822 0.00390625C67.5361 0.00390625 66.0342 0.1875 64.7676 0.556641C63.501 0.923828 62.4614 1.42773 61.644 2.06836C60.8267 2.70898 60.2314 3.45703 59.8496 4.31641C59.4707 5.17578 59.2812 6.10938 59.2812 7.11719C59.2812 8.31641 59.5059 9.3125 59.9556 10.1035C60.4048 10.8945 61.0161 11.541 61.7905 12.0449C62.5645 12.5488 63.4575 12.9297 64.4697 13.1875C65.4819 13.4473 66.5376 13.6445 67.6338 13.7812L69.8286 14.0273C70.8682 14.1621 71.6367 14.332 72.1294 14.5391C72.6221 14.7422 72.8682 15.1191 72.8682 15.6621C72.8682 16.1797 72.5732 16.5391 71.9834 16.7461C71.3931 16.9492 70.519 17.0527 69.3662 17.0527C68.3535 17.0527 67.3901 16.9766 66.4756 16.8281C65.5605 16.6777 64.7461 16.5 64.0288 16.2969C63.3115 16.0938 62.6914 15.873 62.1719 15.6445C61.6523 15.4121 61.2788 15.2148 61.0542 15.0508L58.6479 19.3027C58.8726 19.4688 59.2734 19.7051 59.8496 20.0195C60.4263 20.332 61.1787 20.6328 62.1069 20.918C63.0352 21.2051 64.1396 21.4551 65.4199 21.6758C66.7002 21.8926 68.1699 22.002 69.8286 22.002C73.0063 22.002 75.4961 21.3613 77.2988 20.0801C79.0986 18.7988 80 17.0117 80 14.7246C80.0024 13.6289 79.7998 12.7031 79.3911 11.9395ZM48.8394 21.832L55.5923 21.832L55.5923 9.97852L48.8394 21.832Z" fill="#FFFFFF" fill-opacity="1.000000" fill-rule="nonzero"/>
</svg>
