<svg width="220" height="61" viewBox="0 0 220 61" fill="none" xmlns="http://www.w3.org/2000/svg">
<path d="M59.2312 38.1815C58.5937 36.8363 57.4406 35.5039 57.4051 34.1437C57.22 27.0416 57.3187 19.9325 57.3187 12.8805C51.8402 11.3402 51.8402 11.3402 51.1187 7.03546C53.3805 6.51509 55.5862 5.90894 57.8329 5.54729C58.565 5.42945 59.5287 5.7727 60.1739 6.2072C63.7636 8.6246 67.2765 7.66605 70.8725 6.24722C71.675 5.93056 72.685 6.11712 73.5995 6.072C73.5335 6.8295 73.7202 7.73809 73.3577 8.31828C71.8116 10.7927 73.0323 11.3561 75.6877 11.6137C75.9975 12.2878 75.9497 12.6729 75.7364 13.1896C75.6447 13.8082 75.7182 14.2952 75.8188 15.0708C75.8264 15.7453 75.8068 16.131 75.5981 16.7598C75.5306 19.9998 75.6522 22.9965 75.8054 26.3603C75.8195 28.2002 75.8021 29.6731 75.6204 31.2782C75.5618 31.9039 75.6676 32.3975 75.8012 33.1721C75.8224 33.8292 75.8158 34.2052 75.6328 34.7571C75.5733 35.6861 75.6901 36.439 76.0156 37.504C77.3008 37.8162 78.3774 37.8162 79.7749 37.8162C79.7749 33.4987 79.7749 29.4499 79.7749 25.4398C82.4052 24.64 84.3643 24.4694 84.2788 27.9374C84.2045 28.1334 84.3551 28.5248 84.281 28.8231C84.2563 29.5248 84.3056 29.9283 84.2793 30.528C84.2036 30.7243 84.3531 31.1176 84.2769 31.4126C84.2341 32.1102 84.2674 32.5128 84.2147 33.2217C84.1978 34.1545 84.2669 34.781 84.2613 35.7064C84.2364 36.4084 84.2861 36.8115 84.2778 37.3973C84.2197 37.5799 84.488 37.858 84.488 37.858C84.488 37.858 84.8753 37.8055 85.2536 37.9074C88.0813 38.501 88.5566 37.2989 88.4441 35.1811C87.9783 26.4163 87.6228 17.6458 87.2268 8.87739C87.9009 8.38875 88.5751 7.90012 89.6619 7.11234C89.6619 8.56126 89.6619 9.65885 89.6619 11.0093C90.9471 10.817 92.039 10.6536 93.3749 10.8515C93.7435 14.7968 93.8516 18.3815 94.0062 21.9643C94.0385 22.7143 94.4297 23.4807 94.3353 24.1994C93.8614 27.8093 93.1338 31.3944 92.8391 35.015C92.7624 35.9575 93.9201 36.9962 94.5109 37.9907C95.4049 36.9529 96.9403 35.9859 97.07 34.8636C97.4264 31.7788 97.193 28.6288 97.193 25.382C98.797 25.382 100.012 25.382 101.556 25.382C101.556 28.0226 101.581 30.4354 101.549 32.8474C101.516 35.3902 101.35 38.005 105.401 36.7613C105.401 27.5044 105.401 18.2336 105.401 7.90263C101.206 8.85144 97.483 9.69323 93.7606 10.535C93.4022 6.08089 94.8695 4.5828 99.0496 5.49462C103.951 6.56388 108.503 8.0349 111.635 1.92049C113.166 -1.06837 119.93 -0.341423 122.546 2.53742C123.693 3.7993 124.583 5.28415 125.087 5.97695C129.561 5.97695 133.391 5.97695 137.49 6.38592C138.814 7.72738 139.869 8.65989 141.018 9.98769C141.12 17.9141 141.295 25.4504 141.052 32.9738C140.955 35.9647 141.897 37.3698 144.798 37.8353C145.202 38.99 145.653 40.4906 146.189 40.5198C149.972 40.7262 153.782 40.766 157.561 40.5213C158.351 40.4701 159.047 39.0147 160.154 38.1296C160.914 35.7528 161.307 33.4529 161.993 31.0971C163.223 29.3306 164.16 27.62 165.426 26.1062C165.754 30.1829 165.754 34.0627 165.754 38.1669C167.688 38.0201 168.963 37.9234 170.177 38.125C170.162 39.7988 170.207 41.1742 169.853 42.4893C156.927 42.4291 144.402 42.4291 131.198 42.4291C131.768 44.2815 132.117 45.4134 132.462 46.8745C131.286 49.3174 130.112 51.431 128.938 53.5446C127.685 52.9757 126.432 52.4068 124.83 51.5289C123.527 48.1092 121.433 48.7168 119.012 49.3718C115.892 50.2157 112.51 51.0463 111.48 46.2665C116.422 45.9629 121.177 45.9629 127.371 45.9629C125.76 43.931 124.662 42.547 123.565 41.163C122.826 40.0605 122.826 38.4924 122.827 36.9243C122.831 28.0288 122.875 19.1331 122.82 10.238C122.8 7.00769 119.878 4.39063 116.229 4.35882C113.564 4.33559 110.457 4.43158 110.407 8.00674C110.248 19.4062 110.348 30.8091 110.348 42.1869C108.731 42.3135 107.459 42.4131 106.358 42.4994C104.698 46.2053 107.936 45.7962 109.405 46.9835C108.854 47.6727 108.528 48.2001 108.049 48.4642C104.454 50.4498 99.0317 49.389 98.4363 46.5384C99.7072 46.2771 100.667 46.0434 101.945 45.7746C102.867 44.9395 103.47 44.1395 104.074 43.3395C103.218 43.0265 102.363 42.7134 101.311 42.375C101.115 42.3497 100.745 42.2137 100.585 41.9674C97.6866 40.1822 95.0299 38.0991 91.8275 40.957C91.4047 41.3343 90.466 41.2776 89.7796 41.2314C87.4265 41.0733 85.083 40.7749 82.7293 40.6323C78.9148 40.4012 75.0952 40.2511 71.349 40.0702C70.6701 38.3578 76.9095 37.5147 71.7496 35.1097C73.8624 25.8179 71.8993 22.4283 63.7514 21.2099C63.7514 18.2919 63.7514 15.3599 63.7514 12.6397C65.499 11.2313 69.9501 13.7735 68.7728 8.96899C65.5767 8.96899 62.575 8.96899 59.4041 8.96899C59.4041 18.8169 59.4041 28.4024 59.3599 38.0354C59.3157 38.083 59.2312 38.1815 59.2312 38.1815ZM137.04 11.3812C136.381 10.7865 135.762 9.73717 135.056 9.67876C132.535 9.46986 129.984 9.59698 127.427 9.59698C127.427 18.8637 127.427 28.392 127.427 38.0594C129.583 38.0594 131.662 38.4912 133.397 37.9208C134.75 37.4758 135.676 35.7851 137.482 34.5179C141.399 32.1597 138.991 29.0759 139.198 25.7871C136.86 26.6583 135.033 26.9234 133.763 27.8894C129.948 30.7926 134.32 32.3706 134.353 34.714C133.427 34.0208 131.827 33.4266 131.703 32.6157C131.342 30.2673 131.575 27.8318 131.575 25.6337C133.719 25.1328 135.425 24.7338 137.132 24.3349C137.18 23.9353 137.229 23.5358 137.277 23.1362C136.113 22.6425 134.961 21.7707 133.784 21.7378C131.672 21.6788 131.29 20.7956 132.48 19.0814C134.715 19.186 136.949 19.2906 139.713 19.4199C138.369 16.8259 142.134 13.0224 137.04 11.3812ZM141.56 38.9313C140.445 38.7363 139.33 38.5414 138.216 38.3465C138.256 38.9803 138.297 39.6141 138.337 40.2479C139.504 39.9867 140.67 39.7255 141.56 38.9313ZM72.3754 18.554C72.3718 18.8988 72.3683 19.2436 72.3647 19.5884C72.511 19.5898 72.7844 19.6007 72.7851 19.5912C72.8119 19.248 72.8133 18.9029 72.3754 18.554Z" fill="#FBEFEC"/>
<path d="M71.7906 35.4629C76.9094 37.5153 70.6699 38.3584 71.3489 40.0709C75.0951 40.2518 78.9147 40.4019 82.7292 40.633C85.0828 40.7756 87.4264 41.0739 89.7794 41.2321C90.4659 41.2782 91.4046 41.335 91.8274 40.9576C95.0297 38.0998 97.6864 40.1829 100.174 42.0074C87.6171 42.3009 75.31 42.2433 63.0063 42.4178C61.774 42.4353 60.5625 43.8614 59.3413 44.6337C60.5495 45.2668 61.7506 46.4344 62.9671 46.4499C74.6848 46.5997 86.4051 46.5555 98.1247 46.5668C99.0315 49.3897 104.454 50.4505 108.049 48.4649C108.527 48.2008 108.854 47.6734 109.694 46.9688C110.523 46.6367 110.907 46.6037 111.291 46.5708C112.51 51.047 115.892 50.2164 119.012 49.3725C121.433 48.7175 123.527 48.1099 124.516 51.5217C122.948 52.6913 121.442 53.9197 119.726 54.358C115.26 55.498 110.71 56.339 106.173 57.1904C104.99 57.4124 103.191 57.7525 102.592 57.1563C99.242 53.8215 97.3879 54.7129 96.157 58.8172C95.9845 59.3924 95.2755 59.8137 94.1649 61.0011C93.2477 58.1576 92.5391 55.9605 91.4574 52.607C89.5105 55.4483 88.2048 57.3539 86.8913 59.2708C84.8467 57.4235 83.0964 54.8095 80.7873 54.1905C79.6292 53.88 77.4535 57.2024 76.0813 59.2632C73.3366 59.6534 70.1509 54.1513 67.1497 58.9581C65.5353 58.5019 63.8062 57.4127 62.4355 57.7437C58.9418 58.5873 57.5323 56.5326 56.2928 54.2209C54.8801 51.5861 57.421 41.5392 60.3087 39.2806C62.9462 38.8374 65.1143 38.5271 67.5805 38.1321C69.1826 37.1859 70.4866 36.3244 71.7906 35.4629Z" fill="#FCF9F0"/>
<path d="M170.252 42.5493C170.207 41.1739 170.162 39.7985 170.172 37.7349C170.24 29.7612 170.285 22.4755 170.255 15.1901C170.234 10.276 168.804 8.73133 164.352 8.58007C159.319 8.40908 157.589 9.75024 157.454 14.6484C157.261 21.643 157.294 28.6478 157.471 35.6425C157.494 36.5152 158.979 37.3525 159.787 38.2062C159.047 39.0145 158.351 40.4699 157.561 40.5211C153.782 40.7658 149.972 40.7259 146.189 40.5195C145.653 40.4903 145.202 38.9897 144.891 37.9096C145.07 37.6492 145.161 37.8662 145.504 37.9029C146.933 37.5057 148.018 37.0717 149.557 36.4561C147.849 34.9192 146.705 33.8903 145.454 32.5132C145.416 30.9637 145.484 29.7623 145.888 28.5589C147.807 27.407 149.389 26.2573 151.053 25.0097C151.134 24.9119 151.38 24.9881 151.668 24.9396C152.188 24.6015 152.419 24.3119 152.746 23.686C153.096 19.7207 153.564 16.0864 153.47 12.4661C153.442 11.4106 151.89 9.59854 150.903 9.50651C147.61 9.19936 144.255 9.51507 140.924 9.59213C139.869 8.65962 138.814 7.72712 137.753 6.48732C142.129 5.89476 146.507 5.54777 150.891 5.34691C153.597 5.22296 156.333 5.12305 159.02 5.37507C161.835 5.63914 164.592 6.47047 167.405 6.80002C169.399 7.03356 171.444 6.84526 173.914 6.84526C173.914 11.949 173.914 17.7372 173.914 23.7429C174.362 23.6481 175.34 23.4413 176.97 23.0968C176.024 24.7089 175.037 25.7165 174.849 26.851C174.431 29.3656 174.194 31.9517 174.289 34.4943C174.417 37.931 176.233 41.5036 172.767 44.4616C172.241 44.9102 172.322 46.0388 171.814 47.1507C171.059 47.0705 170.612 46.6924 170.183 46.1858C170.201 46.0573 170.311 45.8215 170.518 45.701C170.606 45.0837 170.487 44.5871 170.319 43.8361C170.263 43.2376 170.258 42.8935 170.252 42.5493Z" fill="#FBF8F6"/>
<path d="M170.166 46.3164C170.612 46.6945 171.059 47.0726 171.811 47.4934C175.686 51.9123 171.659 55.3423 170.607 59.5636C169.015 57.7886 167.633 55.0216 166.249 55.0207C164.598 55.0196 162.946 57.3891 160.937 59.022C160.542 58.5555 159.93 57.3514 158.939 56.795C157.878 56.1996 156.162 55.6313 155.254 56.0748C152.766 57.2903 150.632 58.4801 148.234 55.9158C147.94 55.6012 146.024 56.0791 145.543 56.698C142.517 60.5901 142.747 60.5169 140.004 56.9171C139.184 55.8404 136.721 54.7622 135.762 55.2133C133.009 56.508 131.325 55.2867 129.208 53.6809C130.112 51.4329 131.286 49.3193 132.876 46.8686C145.584 46.4598 157.875 46.3881 170.166 46.3164Z" fill="#FCF9F0"/>
<path d="M84.3554 30.3285C84.3061 29.925 84.2567 29.5216 84.3937 28.747C84.7176 28.0993 84.6422 27.8867 84.3536 27.7381C84.3648 24.4662 82.4056 24.6368 79.7754 25.4365C79.7754 29.4466 79.7754 33.4955 79.7754 37.8129C78.3779 37.8129 77.3013 37.8129 76.1252 37.1845C75.9537 35.8967 75.8816 35.2373 75.8096 34.5779C75.8162 34.2019 75.8229 33.826 75.9189 32.8865C75.9339 31.9296 75.8595 31.5362 75.7852 31.1428C75.8025 29.6699 75.8199 28.197 75.9251 25.9783C75.9379 22.3261 75.8628 19.4198 75.7877 16.5134C75.8073 16.1277 75.8268 15.742 75.9387 14.7927C75.9881 13.8376 75.9452 13.4462 75.9022 13.0548C75.9501 12.6697 75.998 12.2846 76.0222 11.6093C75.9985 11.3191 76.2428 11.027 76.3984 10.5761C78.7609 9.4246 80.9678 8.72403 83.1748 8.02344C84.3405 8.21698 85.5062 8.41053 86.9496 8.73911C87.6232 17.6426 87.9788 26.413 88.4445 35.1779C88.557 37.2957 88.0817 38.4978 85.2104 37.7705C84.6872 37.3609 84.5365 37.2531 84.3364 37.2114C84.2866 36.8083 84.2368 36.4052 84.4294 35.5319C84.5483 34.3452 84.4248 33.6287 84.3012 32.9122C84.2679 32.5096 84.2345 32.1069 84.3893 31.3354C84.7185 30.6902 84.6445 30.4775 84.3554 30.3285ZM83.9962 13.72C82.6928 13.1267 81.3894 12.5335 79.7806 11.8012C79.7806 15.702 79.7806 18.5083 79.7806 21.4487C81.1902 21.4487 82.4038 21.4487 84.0083 21.4487C84.0083 19.0119 84.0083 16.7666 83.9962 13.72Z" fill="#750E10"/>
<path d="M12.6466 24.2578C8.13817 24.2578 4.06908 24.2578 0 24.2578C0.00108201 24.0664 0.00216418 23.875 0.00324355 23.6836C16.4105 23.6836 32.8177 23.6836 49.225 23.6836C49.2277 23.875 49.2304 24.0664 49.2331 24.2578C37.1841 24.2578 25.135 24.2578 12.6466 24.2578Z" fill="#222222"/>
<path d="M189.766 23.3965C200.135 23.3965 210.067 23.3965 220 23.3965C220 23.5932 220 23.7899 219.999 23.9866C206.324 23.9866 192.649 23.9866 178.974 23.9866C178.97 23.7899 178.967 23.5932 178.964 23.3965C182.419 23.3965 185.874 23.3965 189.766 23.3965Z" fill="#222222"/>
<path d="M83.0585 7.76605C80.9676 8.73075 78.7606 9.43132 76.3576 10.3983C76.1616 9.03367 76.1616 7.40271 76.1616 4.67578C78.9194 5.82519 80.9309 6.66356 83.0585 7.76605Z" fill="#FBEFEC"/>
<path d="M67.2819 38.2182C65.1137 38.5285 62.9456 38.8388 60.4897 39.0402C59.9245 38.8544 59.6873 38.713 59.3604 38.3453C59.2305 38.1836 59.3149 38.0851 59.751 38.0684C62.5519 38.1072 64.9169 38.1627 67.2819 38.2182Z" fill="#FBEFEC"/>
<path d="M111.48 46.2673C110.907 46.6039 110.523 46.6368 109.849 46.6851C107.937 45.797 104.698 46.2061 106.358 42.5002C107.459 42.4139 108.732 42.3143 110.348 42.1877C110.348 30.8099 110.248 19.407 110.407 8.00754C110.457 4.43237 113.564 4.33639 116.229 4.35961C119.878 4.39143 122.8 7.00849 122.82 10.2388C122.875 19.1339 122.831 28.0296 122.827 36.9251C122.826 38.4932 122.827 40.0613 123.565 41.1638C124.663 42.5478 125.76 43.9318 127.371 45.9637C121.177 45.9637 116.423 45.9637 111.48 46.2673ZM114.052 36.5625C114.052 38.3452 114.052 40.1279 114.052 42.1503C115.326 42.1503 117.034 42.1503 118.729 42.1503C118.729 30.8556 118.729 19.5264 118.729 8.08802C117.131 8.08802 115.734 8.08802 114.051 8.08802C114.051 17.4558 114.051 26.601 114.052 36.5625Z" fill="#750E10"/>
<path d="M160.154 38.1337C158.979 37.3569 157.494 36.5196 157.472 35.6469C157.294 28.6522 157.261 21.6474 157.454 14.6528C157.589 9.75464 159.319 8.41348 164.352 8.58446C168.804 8.73572 170.234 10.2804 170.255 15.1945C170.285 22.4799 170.24 29.7656 170.232 37.4409C168.963 37.9275 167.689 38.0242 165.755 38.171C165.755 34.0668 165.755 30.187 165.244 25.8118C163.774 25.3164 162.815 25.3164 161.7 25.3164C161.7 27.3188 161.7 29.238 161.7 31.1571C161.307 33.457 160.914 35.757 160.154 38.1337ZM165.718 21.2929C165.718 18.218 165.718 15.1431 165.718 11.7302C163.95 11.9143 162.44 12.0717 160.613 12.262C160.901 15.1514 160.99 17.6747 161.448 20.132C161.82 22.1237 163.033 23.0759 165.718 21.2929Z" fill="#7E1B1C"/>
<path d="M93.7312 10.506C97.483 9.6949 101.206 8.85311 105.401 7.9043C105.401 18.2352 105.401 27.5061 105.401 36.763C101.35 38.0067 101.516 35.3919 101.549 32.8491C101.581 30.437 101.556 28.0243 101.556 25.3836C100.012 25.3836 98.797 25.3836 97.193 25.3836C97.193 28.6305 97.4264 31.7805 97.07 34.8652C96.9403 35.9876 95.4049 36.9545 94.5109 37.9924C93.9201 36.9979 92.7624 35.9592 92.8391 35.0167C93.1338 31.3961 93.8614 27.811 94.3353 24.201C94.4297 23.4824 94.0385 22.716 94.0062 21.966C93.8516 18.3832 93.7435 14.7985 93.6957 10.8682C93.7725 10.522 93.7019 10.4753 93.7312 10.506ZM97.2078 18.5053C96.7574 22.0976 98.7955 21.9234 101.306 21.2972C101.306 18.1666 101.306 15.2602 101.306 12.0748C99.8239 12.1677 98.622 12.2431 97.2013 12.3322C97.2013 14.3381 97.2013 16.0209 97.2078 18.5053Z" fill="#7E1B1C"/>
<path d="M67.5809 38.1351C64.9179 38.1643 62.5529 38.1087 59.7961 38.0223C59.4043 28.406 59.4043 18.8206 59.4043 8.97266C62.5752 8.97266 65.5769 8.97266 68.7731 8.97266C69.9503 13.7771 65.4993 11.2349 63.7517 12.6434C63.7517 15.3635 63.7517 18.2955 63.7517 21.2136C71.8995 22.4319 73.8627 25.8216 71.7499 35.1134C70.487 36.3274 69.183 37.1889 67.5809 38.1351ZM68.0154 25.8307C66.6349 25.5432 65.2543 25.2557 63.7921 24.9513C63.7921 28.5604 63.7921 31.488 63.7921 34.4815C65.3142 34.4815 66.5482 34.4815 68.0979 34.4815C68.0979 31.724 68.0979 29.179 68.0154 25.8307Z" fill="#7E1B1C"/>
<path d="M141.018 9.98746C144.255 9.51511 147.609 9.1994 150.903 9.50655C151.89 9.59858 153.442 11.4107 153.469 12.4661C153.563 16.0865 153.095 19.7207 152.486 23.782C151.88 24.4722 151.63 24.7302 151.379 24.9881C151.379 24.9881 151.134 24.9119 150.662 24.9988C148.627 25.1744 147.062 25.2631 145.3 25.363C145.398 26.6077 145.475 27.5844 145.552 28.561C145.484 29.7624 145.415 30.9637 145.333 32.8569C145.267 34.988 145.214 36.4271 145.161 37.8662C145.161 37.8662 145.07 37.6492 144.976 37.5746C141.896 37.3696 140.955 35.9644 141.051 32.9736C141.294 25.4502 141.12 17.9139 141.018 9.98746ZM149.526 15.279C149.833 11.9513 148.317 11.3441 145.4 12.5702C145.4 15.6254 145.4 18.5598 145.4 21.8447C146.887 21.7348 148.093 21.6457 149.528 21.5397C149.528 19.4926 149.528 17.7994 149.526 15.279Z" fill="#7D181A"/>
<path d="M98.4361 46.5381C86.4051 46.5545 74.6848 46.5987 62.9671 46.4489C61.7506 46.4333 60.5495 45.2657 59.3413 44.6327C60.5625 43.8604 61.774 42.4343 63.0063 42.4168C75.31 42.2423 87.6171 42.2999 100.334 42.2526C100.745 42.2133 101.115 42.3494 101.35 42.7135C101.598 43.9883 101.612 44.8988 101.626 45.8093C100.667 46.043 99.7071 46.2767 98.4361 46.5381Z" fill="#CEB386"/>
<path d="M136.791 34.648C135.676 35.7851 134.75 37.4757 133.397 37.9207C131.662 38.4912 129.583 38.0593 127.427 38.0593C127.427 28.3919 127.427 18.8637 127.427 9.5969C129.984 9.5969 132.534 9.46978 135.056 9.67869C135.762 9.7371 136.381 10.7864 136.943 11.774C136.846 12.1669 136.839 12.136 136.451 12.1058C134.68 12.0756 133.297 12.0756 131.74 12.0756C131.74 14.0958 131.74 15.734 131.675 17.6538C131.652 18.3157 131.693 18.6961 131.735 19.0764C131.29 20.7955 131.672 21.6788 133.784 21.7377C134.961 21.7706 136.113 22.6424 137.277 23.1362C137.228 23.5357 137.18 23.9353 137.132 24.3348C135.425 24.7337 133.718 25.1327 131.575 25.6337C131.575 27.8318 131.342 30.2672 131.703 32.6156C131.827 33.4265 133.427 34.0208 135.01 34.6974C136.042 34.6699 136.416 34.6589 136.791 34.648Z" fill="#7D181A"/>
<path d="M170.183 46.1866C157.874 46.3868 145.583 46.4585 132.879 46.538C132.117 45.414 131.768 44.2821 131.198 42.4297C144.402 42.4297 156.927 42.4297 169.852 42.4899C170.258 42.8943 170.263 43.2385 170.292 44.1245C170.313 45.0517 170.312 45.4371 170.311 45.8224C170.311 45.8224 170.201 46.0582 170.183 46.1866Z" fill="#CEB386"/>
<path d="M137.137 34.581C136.417 34.657 136.042 34.668 135.395 34.609C134.32 32.3686 129.948 30.7906 133.763 27.8875C135.033 26.9215 136.86 26.6563 139.198 25.7852C138.991 29.074 141.399 32.1578 137.137 34.581Z" fill="white"/>
<path d="M132.107 19.0796C131.693 18.6967 131.652 18.3164 131.969 17.5997C133.832 15.5545 135.336 13.8456 136.839 12.1367C136.839 12.1367 136.846 12.1676 136.834 12.1553C142.133 13.023 138.369 16.8265 139.712 19.4205C136.949 19.2912 134.714 19.1866 132.107 19.0796Z" fill="white"/>
<path d="M161.992 31.0973C161.699 29.234 161.699 27.3149 161.699 25.3125C162.814 25.3125 163.774 25.3125 164.915 25.6111C164.16 27.6202 163.223 29.3308 161.992 31.0973Z" fill="#FBF8F6"/>
<path d="M75.5986 16.7578C75.8628 19.421 75.9379 22.3274 75.8937 25.6125C75.6527 22.9945 75.531 19.9978 75.5986 16.7578Z" fill="#CEB386"/>
<path d="M141.699 39.197C140.671 39.7247 139.504 39.9859 138.337 40.2471C138.297 39.6133 138.256 38.9795 138.216 38.3457C139.331 38.5406 140.445 38.7356 141.699 39.197Z" fill="#FBF8F6"/>
<path d="M101.945 45.7751C101.613 44.8997 101.599 43.9892 101.546 42.7398C102.363 42.714 103.219 43.027 104.074 43.3401C103.471 44.1401 102.867 44.94 101.945 45.7751Z" fill="#FCF9F0"/>
<path d="M72.5968 18.5566C72.8133 18.9035 72.8119 19.2486 72.7852 19.5918C72.7844 19.6013 72.511 19.5904 72.3647 19.589C72.3683 19.2442 72.3719 18.8994 72.5968 18.5566Z" fill="white"/>
<path d="M84.2153 33.2227C84.4249 33.6329 84.5484 34.3493 84.5042 35.2371C84.2675 34.7819 84.1984 34.1554 84.2153 33.2227Z" fill="#7E1B1C"/>
<path d="M75.6326 34.7617C75.881 35.2451 75.953 35.9045 75.9159 36.8802C75.6899 36.4435 75.5731 35.6906 75.6326 34.7617Z" fill="#CEB386"/>
<path d="M75.6209 31.2793C75.8596 31.5406 75.934 31.934 75.8912 32.6098C75.6681 32.3986 75.5624 31.905 75.6209 31.2793Z" fill="#CEB386"/>
<path d="M75.7365 13.1895C75.9448 13.4493 75.9878 13.8407 75.9113 14.507C75.7183 14.295 75.6447 13.808 75.7365 13.1895Z" fill="#CEB386"/>
<path d="M84.2784 30.528C84.6431 30.4807 84.7172 30.6934 84.4641 31.0437C84.3522 31.1176 84.2027 30.7243 84.2784 30.528Z" fill="#7E1B1C"/>
<path d="M84.2778 37.3989C84.536 37.258 84.6867 37.3658 84.8317 37.6735C84.8753 37.8072 84.488 37.8597 84.488 37.8597C84.488 37.8597 84.2197 37.5816 84.2778 37.3989Z" fill="#7E1B1C"/>
<path d="M84.2786 27.9402C84.6415 27.8928 84.7169 28.1053 84.467 28.4547C84.3549 28.5276 84.2043 28.1362 84.2786 27.9402Z" fill="#7E1B1C"/>
<path d="M145.888 28.56C145.475 27.5854 145.398 26.6087 145.3 25.3641C147.062 25.2641 148.627 25.1755 150.581 25.0977C149.389 26.2583 147.806 27.4081 145.888 28.56Z" fill="#FBEFEC"/>
<path d="M145.505 37.9069C145.214 36.431 145.267 34.9919 145.441 33.209C146.705 33.8942 147.849 34.9232 149.558 36.46C148.018 37.0756 146.933 37.5096 145.505 37.9069Z" fill="#FBEFEC"/>
<path d="M170.517 45.698C170.311 45.4332 170.312 45.0479 170.34 44.375C170.486 44.5841 170.606 45.0808 170.517 45.698Z" fill="#FCF9F0"/>
<path d="M151.668 24.9405C151.63 24.731 151.881 24.4731 152.391 24.1191C152.42 24.3128 152.188 24.6024 151.668 24.9405Z" fill="#FBEFEC"/>
<path d="M84.0024 14.1242C84.0085 16.7701 84.0085 19.0155 84.0085 21.4522C82.404 21.4522 81.1904 21.4522 79.7808 21.4522C79.7808 18.5118 79.7808 15.7055 79.7808 11.8047C81.3896 12.537 82.693 13.1303 84.0024 14.1242Z" fill="#FBEFEC"/>
<path d="M114.051 36.1561C114.051 26.6028 114.051 17.4576 114.051 8.08984C115.734 8.08984 117.131 8.08984 118.729 8.08984C118.729 19.5282 118.729 30.8574 118.729 42.1521C117.033 42.1521 115.325 42.1521 114.051 42.1521C114.051 40.1297 114.051 38.347 114.051 36.1561Z" fill="#F5D9D9"/>
<path d="M165.395 21.445C163.033 23.0742 161.82 22.1221 161.448 20.1304C160.99 17.673 160.901 15.1498 160.613 12.2604C162.44 12.0701 163.95 11.9127 165.718 11.7285C165.718 15.1415 165.718 18.2164 165.395 21.445Z" fill="#FBEFEC"/>
<path d="M97.205 18.1019C97.2017 16.0183 97.2017 14.3355 97.2017 12.3296C98.6224 12.2405 99.8242 12.1652 101.306 12.0723C101.306 15.2577 101.306 18.164 101.306 21.2946C98.7959 21.9208 96.7578 22.0951 97.205 18.1019Z" fill="#FBEFEC"/>
<path d="M68.0571 26.2303C68.0983 29.177 68.0983 31.7219 68.0983 34.4795C66.5487 34.4795 65.3146 34.4795 63.7925 34.4795C63.7925 31.486 63.7925 28.5583 63.7925 24.9492C65.2547 25.2537 66.6353 25.5412 68.0571 26.2303Z" fill="#FBEFEC"/>
<path d="M149.528 15.6919C149.529 17.7987 149.529 19.4919 149.529 21.539C148.093 21.645 146.887 21.7342 145.4 21.844C145.4 18.5591 145.4 15.6247 145.4 12.5695C148.317 11.3434 149.833 11.9506 149.528 15.6919Z" fill="#F5D9D9"/>
<path d="M136.452 12.1064C135.337 13.8455 133.833 15.5544 132.035 17.3181C131.741 15.7346 131.741 14.0964 131.741 12.0762C133.298 12.0762 134.681 12.0762 136.452 12.1064Z" fill="#FBEFEC"/>
</svg>
