<svg width="220" height="45" viewBox="0 0 220 45" fill="none" xmlns="http://www.w3.org/2000/svg">
<g clip-path="url(#clip0_184_2828)">
<path d="M219.999 0.00390625H88.5552V45.0039H219.999V0.00390625Z" fill="#FCEA1B"/>
<path d="M88.5568 0.00390625H44.2788V45.0039H88.5568V0.00390625Z" fill="#1A171B"/>
<path d="M44.278 0.00390625H0V45.0039H44.278V0.00390625Z" fill="#FCEA1B"/>
<path d="M80.7129 3.44255C88.5558 5.54446 89.2508 16.6273 79.9186 15.2897C79.323 17.4871 80.8121 19.4935 82.1027 21.5954C86.2724 28.1878 82.202 36.5954 76.0468 40.7037C78.7273 37.3597 84.9818 29.9075 79.5215 21.9776C78.0324 19.8757 73.8627 13.9521 79.9186 14.4298C85.776 14.812 86.1731 8.02854 79.8194 6.40433C74.0612 4.97121 70.4872 9.93936 70.1894 15.5763C69.0973 14.6209 67.906 13.6655 66.2183 13.6655C66.5161 6.97758 74.0612 1.7228 80.7129 3.44255ZM52.5179 12.2324C54.0071 11.9457 55.5955 11.9457 56.9854 12.6145C57.7796 12.9011 58.276 13.4744 58.7724 14.1432C59.5667 15.4808 59.3681 16.4362 61.2544 15.8629C63.2399 15.1941 67.0125 15.0031 68.7995 17.3916C65.2255 16.2451 63.0414 16.7228 61.6515 17.4871C60.063 18.347 58.6731 18.1559 57.7796 16.5317C56.7869 14.812 55.8934 13.8566 53.4114 14.1432C49.1425 14.6209 47.6533 17.3916 47.1569 20.5445C46.9583 21.882 48.9439 22.6464 54.0071 22.5508C51.7237 23.6973 48.3482 23.5062 45.9656 22.3597C45.3699 22.0731 45.3699 21.4043 45.5685 20.3534C46.3627 16.8183 48.6461 13.0922 52.5179 12.2324ZM62.0486 39.0795C57.5811 36.7865 57.184 28.4744 64.6298 27.9967C58.7724 30.2897 60.6587 36.4043 64.6298 38.1241C65.424 38.5062 66.8139 39.5572 66.8139 41.1814H54.702C54.8013 37.4553 60.2616 39.0795 62.0486 39.0795ZM49.8374 24.7483C50.2345 24.8438 50.6316 25.0349 51.0287 25.226C53.4114 27.0413 52.5179 30.7674 58.8717 30.4808C52.5179 33.2515 52.6172 28.4744 49.7381 27.2324C49.5396 27.1368 49.4403 27.0413 49.2417 27.0413C49.1425 27.0413 48.9439 26.9457 48.7454 27.0413C47.8518 27.1368 46.9584 27.6145 46.3627 26.6591C45.6677 25.3215 47.2562 24.6527 48.5468 24.6527C49.0432 24.6527 49.4403 24.6527 49.8374 24.7483ZM54.5035 8.12408C55.4963 7.93299 56.3898 9.74828 56.3898 10.8948C56.3898 11.468 56.3898 11.6591 55.7941 11.6591C54.9006 11.5636 54.4042 11.5636 53.9078 11.5636C53.4114 11.5636 53.4114 11.2769 53.3121 10.7037C53.3121 9.65274 53.8085 8.21962 54.5035 8.12408ZM50.3338 19.0158C51.2273 18.8247 52.8157 17.0094 51.4259 16.5317C50.6316 16.2451 49.8374 16.9139 49.4403 17.5827C48.7454 18.7292 49.1425 19.398 50.3338 19.0158ZM53.3121 8.69733C52.1208 7.93299 51.4259 10.1304 51.5251 10.9903C51.5251 11.468 51.7237 11.8502 52.2201 11.7547C52.4186 11.6591 52.8158 11.6591 53.0143 11.5636C52.6172 10.8948 52.7165 9.5572 53.3121 8.69733Z" fill="#FCEA1B"/>
<path d="M8.04165 3.44255C0.198687 5.54446 -0.496259 16.6273 8.83587 15.2897C9.43154 17.4871 7.94237 19.4935 6.65176 21.5954C2.48208 28.1878 6.55248 36.5954 12.7077 40.7037C10.0272 37.3597 3.77269 29.9075 9.23298 21.9776C10.7222 19.8757 14.9911 13.9521 8.83587 14.4298C2.87919 14.812 2.58136 8.02854 8.93515 6.40433C14.6933 4.97121 18.2673 9.93936 18.6644 15.5763C19.7564 14.6209 20.9478 13.6655 22.6355 13.6655C22.437 6.97758 14.7926 1.7228 8.04165 3.44255ZM36.4352 12.2324C34.946 11.9457 33.3575 11.9457 31.9676 12.6145C31.1734 12.9011 30.677 13.4744 30.1806 14.1432C29.3864 15.4808 29.585 16.4362 27.6987 15.8629C25.7131 15.1941 21.8413 15.0031 20.1536 17.3916C23.7276 16.2451 25.9117 16.7228 27.3016 17.4871C28.89 18.347 30.2799 18.1559 31.1734 16.5317C32.1662 14.812 33.0597 13.8566 35.5416 14.1432C39.8106 14.6209 41.2998 17.3916 41.7962 20.5445C41.9947 21.882 40.0092 22.6464 34.946 22.5508C37.2294 23.6973 40.6048 23.5062 42.9875 22.3597C43.5832 22.0731 43.5832 21.4043 43.3846 20.3534C42.5904 16.8183 40.4063 13.0922 36.4352 12.2324ZM26.8052 39.0795C31.2727 36.7865 31.7691 28.4744 24.1247 27.9967C30.0814 30.2897 28.1951 36.4043 24.1247 38.1241C23.3305 38.5062 21.9406 39.5572 21.9406 41.1814H34.251C34.1518 37.4553 28.6915 39.0795 26.8052 39.0795ZM39.2149 24.7483C38.8178 24.8438 38.4207 25.0349 38.0236 25.226C35.6409 27.0413 36.5344 30.7674 30.0814 30.4808C36.4352 33.2515 36.3359 28.4744 39.3142 27.2324C39.5128 27.1368 39.612 27.0413 39.8106 27.0413C39.9099 27.0413 40.1084 26.9457 40.307 27.0413C41.2005 27.1368 42.094 27.6145 42.6897 26.6591C43.3846 25.3215 41.7962 24.6527 40.5055 24.6527C40.0092 24.6527 39.612 24.6527 39.2149 24.7483ZM34.4496 8.12408C33.4568 7.93299 32.5633 9.74828 32.5633 10.8948C32.5633 11.468 32.5633 11.6591 33.159 11.6591C34.0525 11.5636 34.5489 11.5636 35.0453 11.5636C35.5416 11.5636 35.5416 11.2769 35.6409 10.7037C35.6409 9.65274 35.1445 8.21962 34.4496 8.12408ZM38.6193 19.0158C37.7258 18.8247 36.1373 17.0094 37.5272 16.5317C38.3214 16.2451 39.1157 16.9139 39.5128 17.5827C40.2077 18.7292 39.9099 19.398 38.6193 19.0158ZM35.6409 8.69733C36.8323 7.93299 37.5272 10.1304 37.4279 10.9903C37.4279 11.468 37.1301 11.8502 36.733 11.7547C36.5344 11.6591 36.1373 11.6591 35.9388 11.5636C36.3359 10.8948 36.2366 9.5572 35.6409 8.69733Z" fill="#1A171B"/>
<path d="M108.511 11.5692C108.511 12.4291 108.312 13.0979 107.816 13.5756C107.22 14.2444 106.128 14.531 104.738 14.531H99.4766V5.16797H107.518V7.84313H103.348V8.703H104.639C106.029 8.703 107.121 8.98962 107.717 9.65841C108.213 10.1361 108.511 10.8049 108.511 11.5692ZM104.639 11.5692C104.639 11.3782 104.54 11.1871 104.44 11.0915C104.242 10.996 104.043 10.9005 103.646 10.9005H103.249V12.3336H103.646C103.944 12.3336 104.143 12.3336 104.242 12.238C104.54 12.1425 104.639 11.8559 104.639 11.5692Z" fill="#1A171B"/>
<path d="M119.432 14.5291H115.461L115.064 13.1915H112.582L112.185 14.5291H108.214L111.689 5.16602H115.958L119.432 14.5291ZM114.568 10.8985L113.873 8.50996L113.178 10.8985H114.568Z" fill="#1A171B"/>
<path d="M129.459 14.5291H125.587V11.1851H123.602V14.5291H119.73V5.16602H123.602V8.41442H125.587V5.16602H129.459V14.5291Z" fill="#1A171B"/>
<path d="M141.174 14.5291H136.707L134.622 10.994V14.5291H130.75V5.16602H134.622V8.60551L136.806 5.16602H141.075L137.699 9.65646L141.174 14.5291Z" fill="#1A171B"/>
<path d="M103.348 26.6599H99.4766V17.2969H103.348V26.6599Z" fill="#1A171B"/>
<path d="M114.368 26.6599H110.397V23.2204H108.511V26.6599H104.639V17.2969H108.511V20.5453H110.397V17.2969H114.368V26.6599Z" fill="#1A171B"/>
<path d="M124.594 24.0803C124.594 24.7491 124.395 25.3224 123.998 25.7045C123.403 26.3733 122.509 26.6599 121.318 26.6599H115.56V17.2969H121.02C122.211 17.2969 123.105 17.5835 123.601 18.2523C123.899 18.6345 124.097 19.1122 124.097 19.6854C124.097 20.1631 123.899 20.6408 123.601 20.9274C123.303 21.2141 122.906 21.5007 122.41 21.5962C123.005 21.6918 123.601 21.9784 123.998 22.4561C124.395 22.9338 124.594 23.4115 124.594 24.0803ZM120.722 20.1631C120.722 19.972 120.623 19.8765 120.523 19.6854C120.424 19.5899 120.126 19.4943 119.829 19.4943H119.431V20.8319H119.829C120.126 20.8319 120.325 20.7364 120.523 20.6408C120.623 20.5453 120.722 20.3542 120.722 20.1631ZM120.921 23.6981C120.921 23.5071 120.821 23.316 120.722 23.2204C120.623 23.1249 120.325 23.0294 119.928 23.0294H119.431V24.4625H119.928C120.226 24.4625 120.424 24.4625 120.523 24.3669C120.821 24.1759 120.921 23.9848 120.921 23.6981Z" fill="#1A171B"/>
<path d="M132.238 26.6599H125.388V17.2969H132.238V19.972H129.26V20.8319H131.941V23.0294H129.26V23.9848H132.238V26.6599Z" fill="#1A171B"/>
<path d="M140.777 26.3748C140.479 26.5659 140.082 26.6614 139.586 26.7569C139.188 26.8525 138.692 26.948 138.096 26.948C136.508 26.948 135.217 26.4703 134.225 25.6104C133.232 24.655 132.735 23.5085 132.735 21.9799C132.735 20.3557 133.331 19.1136 134.522 18.2538C135.515 17.4894 136.706 17.0117 138.096 17.0117C138.593 17.0117 138.99 17.1073 139.486 17.2028C139.983 17.2983 140.38 17.4894 140.777 17.7761V21.0245C140.479 20.6423 140.181 20.4512 139.784 20.2601C139.387 20.069 138.99 19.9735 138.593 19.9735C137.898 19.9735 137.401 20.1646 137.004 20.5468C136.607 20.9289 136.409 21.4066 136.409 22.0754C136.409 22.6487 136.607 23.1264 137.004 23.413C137.401 23.6996 137.898 23.8907 138.493 23.8907C138.891 23.8907 139.288 23.7952 139.685 23.6996C140.082 23.5085 140.38 23.3175 140.678 23.0308L140.777 26.3748Z" fill="#1A171B"/>
<path d="M148.817 19.972H146.732L146.831 26.6599H142.86V19.972H140.875V17.2969H148.817V19.972Z" fill="#1A171B"/>
<path d="M159.243 26.6599H155.569V22.1695L152.79 26.6599H149.315V17.2969H152.988V21.9784L155.768 17.2969H159.243V26.6599Z" fill="#1A171B"/>
<path d="M171.652 28.5708H168.375V26.6599H160.532L160.433 17.2969H164.404V23.9848H166.588V17.2969H170.46V23.9848H171.652V28.5708Z" fill="#1A171B"/>
<path d="M176.02 26.6599H172.148V17.2969H176.02V26.6599Z" fill="#1A171B"/>
<path d="M185.253 14.8123C185.154 15.4811 184.856 15.9588 184.359 16.341C183.863 16.7232 183.168 16.8187 182.374 16.8187C181.579 16.8187 180.885 16.6276 180.388 16.341C179.892 15.9588 179.594 15.4811 179.395 14.8123H181.48C181.48 15.099 181.579 15.3856 181.679 15.4811C181.877 15.6722 182.076 15.6722 182.374 15.6722C182.672 15.6722 182.87 15.5767 182.969 15.3856C183.168 15.1945 183.168 15.0034 183.168 14.7168L185.253 14.8123ZM187.238 26.6595H183.565V22.169L180.885 26.6595H177.311V17.2964H180.984V21.9779L183.664 17.2964H187.139L187.238 26.6595Z" fill="#1A171B"/>
<path d="M198.457 22.551H196.967V26.7548H193.89V22.551H192.301V20.3535H198.457V22.551Z" fill="#1A171B"/>
<path d="M206.796 26.7545H203.817V26.0857C203.619 26.3723 203.321 26.5634 203.023 26.7545C202.626 26.9455 202.13 27.0411 201.633 27.0411C200.839 27.0411 200.144 26.7545 199.548 26.1812C198.953 25.5124 198.556 24.6526 198.556 23.6016C198.556 22.5506 198.853 21.7863 199.449 21.1175C200.045 20.4487 200.74 20.1621 201.633 20.1621C202.13 20.1621 202.626 20.2577 203.023 20.4487C203.321 20.6398 203.619 20.8309 203.817 21.1175V20.4487H206.796V26.7545ZM203.817 23.5061C203.817 23.1239 203.718 22.8373 203.52 22.5506C203.321 22.3596 203.023 22.1685 202.626 22.1685C202.328 22.1685 202.03 22.264 201.832 22.5506C201.633 22.7417 201.534 23.1239 201.534 23.5061C201.534 23.8882 201.633 24.1748 201.832 24.4615C202.03 24.6526 202.328 24.8436 202.725 24.8436C203.023 24.8436 203.321 24.7481 203.52 24.4615C203.718 24.2704 203.817 23.9838 203.817 23.5061Z" fill="#1A171B"/>
<path d="M107.121 36.2146C107.121 37.0745 106.724 37.7433 105.93 38.3165C105.136 38.8898 104.143 39.0808 102.852 39.0808C101.959 39.0808 101.264 38.9853 100.668 38.7942C100.072 38.6031 99.3774 38.3165 98.4839 37.8388L99.8738 35.7369C100.172 35.928 100.469 36.1191 100.867 36.3101C101.264 36.5012 101.661 36.5968 101.959 36.5968C102.256 36.5968 102.554 36.5012 102.753 36.4057C102.951 36.3101 103.051 36.1191 103.051 35.8324C103.051 35.6413 102.951 35.4503 102.852 35.3547C102.654 35.2592 102.356 35.1636 101.959 35.1636H100.469V32.8706H101.859C102.256 32.8706 102.554 32.8706 102.753 32.7751C102.951 32.6796 103.051 32.4885 103.051 32.2019C103.051 32.0108 102.951 31.8197 102.852 31.7241C102.654 31.6286 102.356 31.5331 101.959 31.5331C101.562 31.5331 101.264 31.6286 100.867 31.7241C100.469 31.8197 100.172 32.0108 99.7745 32.2019L98.6824 30.0044C99.8738 29.4312 101.264 29.1445 102.654 29.1445C103.944 29.1445 104.937 29.4312 105.731 29.9089C106.525 30.3866 106.823 31.0554 106.823 31.8197C106.823 32.2974 106.625 32.7751 106.327 33.1573C106.029 33.5394 105.632 33.8261 105.136 33.9216C105.632 34.1127 105.93 34.3038 106.228 34.4948C106.823 34.9726 107.121 35.5458 107.121 36.2146Z" fill="#1A171B"/>
<path d="M118.042 38.7927H114.07L113.673 37.4552H111.291L110.893 38.7927H106.922L110.397 29.4297H114.666L118.042 38.7927ZM113.177 35.0666L112.482 32.6781L111.787 35.0666H113.177Z" fill="#1A171B"/>
<path d="M129.16 34.1127C129.16 35.4503 128.664 36.5968 127.771 37.5522C126.778 38.6031 125.289 39.0808 123.502 39.0808C121.715 39.0808 120.325 38.6031 119.233 37.5522C118.339 36.5968 117.843 35.4503 117.843 34.1127C117.843 32.7751 118.339 31.6286 119.233 30.6732C120.225 29.6222 121.715 29.1445 123.502 29.1445C125.289 29.1445 126.679 29.6222 127.771 30.6732C128.763 31.5331 129.16 32.6796 129.16 34.1127ZM125.487 34.1127C125.487 33.4439 125.289 32.9662 124.892 32.6796C124.494 32.2974 124.097 32.2019 123.502 32.2019C123.005 32.2019 122.509 32.3929 122.211 32.6796C121.814 33.0617 121.615 33.5394 121.615 34.2082C121.615 34.877 121.814 35.3547 122.211 35.6413C122.608 35.928 123.005 36.1191 123.502 36.1191C123.998 36.1191 124.494 35.928 124.792 35.6413C125.289 35.2592 125.487 34.6859 125.487 34.1127Z" fill="#1A171B"/>
<path d="M145.442 40.608H142.067V38.7927H130.054V29.4297H133.727V36.022H135.316V29.4297H138.989V36.022H140.578V29.4297H144.251V36.022H145.442V40.608Z" fill="#1A171B"/>
<path d="M156.065 38.7927H152.093L151.696 37.4552H149.214L148.817 38.7927H144.846L148.321 29.4297H152.59L156.065 38.7927ZM151.2 35.0666L150.505 32.6781L149.81 35.0666H151.2Z" fill="#1A171B"/>
<path d="M167.185 40.6098H163.909V38.699H158.846V40.6098H155.47V36.0238C156.264 36.0238 156.86 35.6417 157.158 34.8773C157.356 34.3996 157.456 33.8264 157.456 32.9665V29.3359H165.994V36.0238H167.185V40.6098ZM162.122 36.0238V32.1066H160.931V33.4442C160.931 34.113 160.831 34.6863 160.732 35.0684C160.633 35.4506 160.335 35.8328 160.037 36.0238H162.122Z" fill="#1A171B"/>
<path d="M183.267 38.7927H178.7L176.715 35.2577V38.7927H173.24V35.2577L171.155 38.7927H166.688L170.162 33.9201L166.886 29.4297H171.254L173.24 32.7736L173.141 29.4297H176.715V32.7736L178.601 29.4297H182.969L179.693 33.9201L183.267 38.7927Z" fill="#1A171B"/>
<path d="M190.316 38.7927H183.466V29.4297H190.316V32.1048H187.437V32.8692H190.018V35.1622H187.437V36.022H190.316V38.7927Z" fill="#1A171B"/>
<path d="M201.038 38.7927H197.067V35.3533H195.18V38.7927H191.309V29.4297H195.18V32.6781H197.067V29.4297H201.038V38.7927Z" fill="#1A171B"/>
<path d="M211.066 35.831C211.066 36.6908 210.868 37.3596 210.371 37.8373C209.776 38.5061 208.684 38.7927 207.294 38.7927H202.23V29.4297H206.102V32.8692H207.194C208.684 32.8692 209.676 33.1558 210.371 33.8246C210.868 34.3023 211.066 34.9711 211.066 35.831ZM207.492 35.831C207.492 35.6399 207.393 35.4488 207.294 35.3533C207.194 35.2577 206.897 35.1622 206.599 35.1622H206.102V36.5953H206.599C206.897 36.5953 207.194 36.4998 207.294 36.4042C207.492 36.2131 207.492 36.022 207.492 35.831Z" fill="#1A171B"/>
</g>
<defs>
<clipPath id="clip0_184_2828">
<rect width="220" height="45" fill="white"/>
</clipPath>
</defs>
</svg>
