<svg width="220" height="66" viewBox="0 0 220 66" fill="none" xmlns="http://www.w3.org/2000/svg">
<g clip-path="url(#clip0_188_4863)">
<path d="M42.5557 0.541016C43.5682 0.91948 44.3432 1.27206 45.0869 1.6812C47.4336 2.97209 48.1998 5.21488 47.116 8.11248C46.5924 9.51228 45.7657 10.7991 44.7742 12.3195C40.8331 13.7463 37.1943 14.9906 33.4255 16.1936C33.1888 16.0085 33.082 15.8647 32.9917 15.5485C32.7023 15.0762 32.3965 14.7762 31.9934 14.3332C31.2316 13.7521 30.567 13.3139 29.8203 12.7503C29.4726 12.4877 29.2071 12.3507 28.8486 12.1158C28.6045 11.913 28.4379 11.8465 28.1418 11.674C26.7975 10.9875 25.5673 10.4456 24.1337 9.8215C22.4436 9.55415 20.9571 9.36898 19.4663 8.99546C22.786 6.61937 26.018 4.26979 29.4731 2.31282C31.1765 1.348 33.2922 1.10864 35.2213 0.541016C37.5822 0.541016 39.9431 0.541016 42.5557 0.541016Z" fill="#3BB54B"/>
<path d="M72.8276 66.54C72.6108 60.0042 72.6108 53.4684 72.6108 46.4973C73.5673 46.7248 74.8903 47.0394 76.7899 47.4912C77.751 46.6667 79.8836 45.5304 81.6357 47.0714C82.9019 48.1849 83.1887 50.4093 83.9063 52.1407C83.9381 52.2174 83.91 52.3187 83.9105 52.4085C83.9475 60.1129 83.6913 60.4149 76.4473 61.3393C75.2953 62.7941 77.4955 65.1486 74.866 66.3485C74.2003 66.54 73.6223 66.54 72.8276 66.54ZM76.1077 56.3627C76.1773 57.0285 76.247 57.6942 76.313 58.3254C80.0441 58.4676 80.1967 58.3233 80.2071 54.8394C80.2103 53.7616 80.452 52.6043 80.1349 51.6292C79.8409 50.7253 79.0662 49.5146 78.2905 49.3299C76.8634 48.9902 76.0076 49.9377 76.0924 51.5579C76.1675 52.9911 76.1078 54.4313 76.1077 56.3627Z" fill="#090909"/>
<path d="M220.543 33.9052C218.997 33.7931 217.451 33.5007 215.238 33.0822C214.278 33.822 212.179 35.1008 210.411 33.4587C209.157 32.2941 208.465 30.1425 208.242 28.3426C207.893 25.5182 208.15 22.6187 208.15 19.6094C209.389 19.6094 210.439 19.6094 211.889 19.6094C211.889 22.3193 211.89 25.1568 211.888 27.9942C211.887 29.5494 211.714 31.3398 213.991 31.2914C216.044 31.2478 215.937 29.6257 215.917 28.1297C215.879 25.3451 215.906 22.5597 215.906 19.6203C217.193 19.6203 218.315 19.6203 219.335 19.6203C219.585 24.0693 219.832 28.4685 220.311 32.9356C220.543 33.244 220.543 33.4844 220.543 33.9052Z" fill="#101010"/>
<path d="M1.13193 8.58944C1.02399 8.44945 0.916044 8.30946 0.674729 8.14213C0.541357 6.29577 0.541357 4.47675 0.6869 2.32772C1.09666 1.51214 1.36088 1.02658 1.6251 0.541016C2.3777 0.541016 3.1303 0.541016 4.10868 0.541016C4.33446 0.541016 4.34965 0.794374 4.16264 0.973786C3.7422 2.7934 3.50878 4.43361 3.18492 6.21238C2.4403 7.09711 1.78612 7.84328 1.13193 8.58944Z" fill="#69C7F1"/>
<path d="M0.541504 40.2661C0.978126 39.1989 1.41475 38.3683 2.15467 37.5723C2.52197 40.2717 2.58597 42.9366 2.64997 45.6015C2.05861 45.0472 1.46725 44.4929 0.708695 43.8775C0.541504 42.7118 0.541504 41.6073 0.541504 40.2661Z" fill="#69C7F1"/>
<path d="M1.35476 0.541016C1.36148 1.02658 1.09726 1.51214 0.6875 2.08084C0.722581 1.62298 0.903205 1.082 1.35476 0.541016Z" fill="#FBFDFE"/>
<path d="M60.4604 28.1158C60.4603 30.0766 60.4603 31.7715 60.4603 33.6583C59.1622 33.6583 58.047 33.6583 56.7563 33.6583C56.7563 27.3146 56.7563 20.9819 56.7563 14.4709C57.91 14.4709 59.0239 14.4709 60.3835 14.4709C60.3835 17.0006 60.3835 19.4794 60.3835 22.0974C62.5478 22.0974 64.4752 22.0974 66.6066 22.0974C66.6066 19.5513 66.6066 17.0669 66.6066 14.4414C67.9291 14.4414 69.0518 14.4414 70.3202 14.4414C70.3202 20.8418 70.3202 27.1847 70.3202 33.6906C69.1997 33.6906 68.0771 33.6906 66.7377 33.6906C66.7377 31.0305 66.7377 28.374 66.7377 25.5423C64.6129 25.5423 62.6957 25.5423 60.4604 25.5423C60.4604 26.3089 60.4604 27.0794 60.4604 28.1158Z" fill="#151515"/>
<path d="M62.3867 47.7256C63.1442 46.5824 63.9095 45.669 64.42 44.6307C65.6314 42.1672 67.3687 40.9113 70.5223 41.8896C69.0435 44.1859 67.7208 46.5772 66.062 48.7077C64.7633 50.3757 64.9678 51.6099 66.1178 53.1896C67.8958 55.6319 69.4748 58.2186 71.207 60.8486C68.3287 61.6776 66.4407 61.0791 65.0969 58.4893C63.9687 56.3152 62.4108 54.3632 60.5552 52.4402C60.5552 55.2492 60.5552 58.0581 60.5552 61.0051C59.1412 61.0051 58.0099 61.0051 56.731 61.0051C56.731 54.6504 56.731 48.2982 56.731 41.7899C57.887 41.7899 59.0148 41.7899 60.4603 41.7899C60.4603 44.3876 60.4603 47.0077 60.4603 49.6278C60.6281 49.6724 60.796 49.7169 60.9638 49.7615C61.4021 49.1406 61.8404 48.5197 62.3867 47.7256Z" fill="#141414"/>
<path d="M125.242 61.1497C124.406 60.7716 123.796 60.3939 123.185 60.0162C123.202 60.2296 123.218 60.443 123.234 60.6565C121.388 60.7174 119.372 61.2745 117.738 60.7167C115.581 59.9806 115.635 57.6357 115.649 55.611C115.671 52.6607 115.655 49.7102 115.655 46.6895C117.012 46.6895 118.073 46.6895 119.326 46.6895C119.326 49.8319 119.332 52.8805 119.323 55.929C119.318 57.2788 119.419 58.5197 121.249 58.4894C123.023 58.46 123.5 57.4643 123.457 55.8397C123.377 52.8784 123.434 49.9134 123.434 46.7719C124.653 46.7719 125.749 46.7719 127.173 46.7719C127.173 51.4854 127.173 56.133 127.173 61.0061C126.829 61.0351 126.148 61.0926 125.242 61.1497Z" fill="#121212"/>
<path d="M74.8086 20.0059C78.0364 19.535 81.0749 19.1724 84.5171 18.7617C84.5171 24.1663 84.5171 28.7951 84.5171 33.9081C83.3312 33.7011 81.9758 33.4645 80.6203 33.228C80.6726 33.0843 80.7248 32.9405 80.777 32.7968C79.4549 33.2137 78.0928 34.0455 76.8226 33.9235C75.6905 33.8148 73.899 32.8087 73.7155 31.9258C72.8925 27.9663 71.8654 23.8507 74.8086 20.0059ZM79.9865 21.6384C77.5539 21.337 76.4553 22.3564 76.6402 24.8446C76.7532 26.3652 76.4787 27.9367 76.7594 29.4131C76.8945 30.1238 78.0027 31.2378 78.5077 31.157C79.3227 31.0265 80.5933 30.098 80.6365 29.4388C80.8052 26.8691 80.5671 24.2727 79.9865 21.6384Z" fill="#0A0A0A"/>
<path d="M99.2056 59.2101C99.801 58.3912 100.55 57.85 100.711 57.1699C101.06 55.6967 101.122 54.1539 101.277 52.637C101.763 47.8762 104.038 45.9351 108.754 46.2936C109.821 46.3747 110.883 46.5073 111.95 46.6165C113.305 51.2853 110.262 56.5355 114.887 61.1305C109.348 61.1305 104.699 61.1653 100.052 61.057C99.7197 61.0493 99.4118 59.9934 99.2056 59.2101ZM104.534 56.2779C104.471 57.12 104.408 57.9622 104.347 58.7811C105.96 58.7811 107.196 58.7811 108.507 58.7811C108.507 55.4651 108.507 52.2812 108.507 49.0526C106.322 48.6927 105.247 49.485 105.06 51.5252C104.929 52.9591 104.73 54.3868 104.534 56.2779Z" fill="#040404"/>
<path d="M90.6897 33.9971C88.2572 33.4723 87.3633 31.8286 87.2847 29.8197C87.1517 26.4192 87.2482 23.0098 87.2482 19.4902C88.4676 19.4902 89.5135 19.4902 90.9575 19.4902C90.9575 22.3996 90.9535 25.327 90.9593 28.2544C90.9619 29.6078 90.7707 31.1603 92.7586 31.2441C94.7586 31.3285 94.9822 30.011 94.9311 28.3726C94.8416 25.5056 94.9061 22.6339 94.9061 19.5692C96.1518 19.5692 97.2604 19.5692 98.3768 19.5692C99.6498 23.8591 96.9449 28.8102 100.43 33.2482C99.9593 34.1221 99.3262 35.2985 98.7202 36.4245C97.5965 34.7762 96.6658 33.411 96.036 32.4872C93.9036 33.1276 92.4027 33.5784 90.6897 33.9971Z" fill="#0A0A0A"/>
<path d="M147.037 19.3387C147.499 20.1574 147.893 20.9258 147.905 21.7005C147.97 25.6448 147.935 29.5907 147.935 33.9459C146.847 33.7207 145.507 33.4431 144.62 33.2597C142.395 33.3573 140.291 33.9752 138.6 33.3946C136.336 32.6171 136.547 30.1231 136.442 28.0281C136.063 20.4173 137.203 17.9935 147.037 19.3387ZM141.353 31.214C142.791 31.3128 144.145 31.2862 144.147 29.2983C144.148 26.7965 144.147 24.2947 144.147 21.1272C142.64 21.7529 140.57 22.1716 140.542 22.6973C140.397 25.4511 140.77 28.2319 141.353 31.214Z" fill="#040404"/>
<path d="M130.122 24.2079C130.126 22.5392 130.126 21.1213 130.126 19.5868C131.409 19.5868 132.462 19.5868 133.686 19.5868C133.686 24.1562 133.686 28.801 133.686 33.6384C132.659 33.6384 131.551 33.6384 130.181 33.6384C130.181 31.8573 130.181 30.1076 130.181 28.2549C128.795 28.2549 127.657 28.2549 126.264 28.2549C126.264 29.9861 126.264 31.7338 126.264 33.6534C124.899 33.6534 123.784 33.6534 122.563 33.6534C122.563 28.9339 122.563 24.2964 122.563 19.5625C123.725 19.5625 124.778 19.5625 126.121 19.5625C126.121 21.3945 126.121 23.2321 126.121 25.7373C127.738 25.2199 128.928 24.8394 130.122 24.2079Z" fill="#0A0A0A"/>
<path d="M187.074 33.1775C187.031 31.4299 187.031 29.9145 187.031 28.2702C185.738 28.2702 184.6 28.2702 183.203 28.2702C183.203 29.944 183.203 31.6917 183.203 33.6327C181.841 33.6327 180.728 33.6327 179.477 33.6327C179.477 28.9675 179.477 24.331 179.477 19.5781C180.585 19.5781 181.635 19.5781 182.979 19.5781C182.979 21.3701 182.979 23.2035 182.979 25.1755C184.397 25.1755 185.523 25.1755 186.953 25.1755C186.953 23.3657 186.953 21.5279 186.953 19.5844C188.305 19.5844 189.359 19.5844 190.581 19.5844C190.581 24.1537 190.581 28.8001 190.581 33.8853C189.448 33.7296 188.283 33.5696 187.074 33.1775Z" fill="#0A0A0A"/>
<path d="M205.297 28.5909C205.385 30.3694 205.473 31.8901 205.592 33.9489C204.123 33.7018 202.753 33.4712 201.775 33.3067C199.684 33.4331 197.709 34.0311 196.067 33.5346C193.856 32.8661 193.827 30.5714 193.861 28.5145C193.911 25.5669 193.874 22.6177 193.874 19.5684C195.154 19.5684 196.205 19.5684 197.539 19.5684C197.539 22.3662 197.503 25.1369 197.554 27.906C197.581 29.344 197.061 31.3059 199.462 31.2853C201.609 31.2669 201.62 29.6275 201.581 27.987C201.515 25.2168 201.563 22.4439 201.563 19.5698C202.816 19.5698 203.868 19.5698 205.297 19.5698C205.297 22.4702 205.297 25.4016 205.297 28.5909Z" fill="#0E0E0E"/>
<path d="M153.939 33.5361C152.811 33.7459 151.843 33.793 150.328 33.8665C150.959 29.9152 151.334 26.1946 152.199 22.5913C152.856 19.8561 155.265 18.9732 157.882 18.9554C159.397 18.9451 160.913 19.2084 162.493 19.3545C162.493 24.1926 162.493 28.8553 162.493 33.6771C161.315 33.6771 160.201 33.6771 158.855 33.6771C158.855 29.6221 158.855 25.698 158.855 21.7924C156.593 21.4082 155.632 22.2885 155.393 24.3089C155.035 27.339 154.537 30.3526 153.939 33.5361Z" fill="#0E0E0E"/>
<path d="M87.4415 47.8633C89.9694 45.821 92.6201 45.7136 95.179 47.0397C98.8485 48.9413 97.3004 52.5028 97.6856 55.7344C95.0625 55.7344 92.584 55.7344 90.1165 55.7344C90.0304 58.581 90.0304 58.581 97.1711 58.9661C97.8359 60.4173 97.5933 61.2805 95.7381 61.2268C95.6482 61.2242 95.5574 61.2267 95.468 61.2355C92.445 61.5329 88.7703 62.5946 87.1145 59.3697C85.3115 55.8584 85.3819 51.7745 87.4415 47.8633ZM94.0266 52.5571C93.675 51.4363 93.5118 50.1851 92.8725 49.2633C92.6396 48.9275 90.74 49.1042 90.527 49.5201C89.9859 50.5762 89.9685 51.8996 89.6647 53.527C91.4715 53.2831 92.6746 53.1207 94.0266 52.5571Z" fill="#0A0A0A"/>
<path d="M113.835 34.074C109.454 33.4042 108.202 32.013 108.092 27.8979C108.065 26.9121 108.062 25.9242 108.092 24.9386C108.216 20.91 110.196 18.9225 114.053 18.9317C117.872 18.9408 119.825 20.9904 119.853 25.0248C119.859 25.9216 119.856 26.8184 119.853 27.7152C119.838 32.1562 118.584 33.5355 113.835 34.074ZM114.499 31.3841C114.823 31.2467 115.422 31.1249 115.431 30.9696C115.595 28.1074 115.744 25.2403 115.7 22.3773C115.696 22.1184 114.293 21.5953 113.635 21.7145C113.002 21.829 112.051 22.5803 112.004 23.1182C111.811 25.3349 111.758 27.5931 111.998 29.7986C112.063 30.3962 113.337 30.8627 114.499 31.3841Z" fill="#090909"/>
<path d="M176.277 31.979C173.146 34.9228 169.493 33.3977 165.912 33.9018C165.912 28.9943 165.912 24.3062 165.912 19.4922C166.953 19.4922 167.992 19.4922 169.234 19.4922C169.303 20.8393 169.37 22.1568 169.438 23.4746C176.735 24.4439 178.414 26.4506 176.277 31.979ZM172.76 26.7504C171.676 26.6229 170.592 26.4953 169.298 26.343C169.298 27.4473 169.278 28.1515 169.304 28.8541C169.33 29.5416 169.402 30.2274 169.451 30.879C173.337 31.3963 173.893 30.7838 172.76 26.7504Z" fill="#0C0C0C"/>
<path d="M137.21 52.4487C137.207 55.241 137.205 57.7586 137.197 60.2761C137.196 60.4527 137.145 60.6292 137.09 60.9771C136.005 60.9771 134.892 60.9771 133.575 60.9771C133.575 57.3287 133.575 53.6706 133.575 49.8225C132.071 49.7521 130.756 49.6905 129.238 49.6194C129.238 48.656 129.238 47.7473 129.238 46.7109C133.413 46.7109 137.524 46.7109 141.813 46.7109C141.813 47.6435 141.813 48.5611 141.813 49.6823C140.343 49.6823 138.927 49.6823 137.21 49.6823C137.21 50.6426 137.21 51.4083 137.21 52.4487Z" fill="#141414"/>
<path d="M146.831 51.3288C146.831 48.1022 146.831 45.1366 146.831 41.7484C149.147 41.7484 151.355 41.7059 153.557 41.7951C153.88 41.8081 154.438 42.4656 154.415 42.791C154.39 43.131 153.833 43.6307 153.441 43.7047C152.657 43.8528 151.758 43.5643 151.036 43.8199C150.363 44.0581 149.857 44.7682 148.835 45.6546C155.276 46.599 156.125 47.4484 155.571 51.5798C155.19 54.4205 153.525 54.9891 146.831 54.3833C146.831 53.4809 146.831 52.5354 146.831 51.3288ZM150.835 52.5369C153.102 52.8086 153.455 51.4078 153.16 49.6935C152.755 47.3452 151.099 48.1424 149.085 48.3236C149.565 49.9069 149.96 51.2116 150.835 52.5369Z" fill="#78787B"/>
<path d="M45.4608 30.8359C46.1759 33.1246 47.2676 35.3721 47.5244 37.7109C47.9973 42.0181 45.8001 44.9632 41.3818 46.3069C42.1604 41.5775 43.1002 37.0727 44.1551 32.5949C44.3088 31.9425 45.0119 31.4191 45.4608 30.8359Z" fill="#FFD708"/>
<path d="M105.592 23.3149C105.592 26.878 105.592 30.1768 105.592 33.6556C104.324 33.6556 103.215 33.6556 101.981 33.6556C101.981 28.9906 101.981 24.3763 101.981 19.6113C103.097 19.6113 104.204 19.6113 105.592 19.6113C105.592 20.7783 105.592 21.9145 105.592 23.3149Z" fill="#0E0E0E"/>
<path d="M33.5557 16.235C37.1945 14.9907 40.8334 13.7464 44.6574 12.4766C43.9669 16.4961 43.0914 20.5412 42.009 24.6039C41.6398 24.4454 41.4775 24.2695 41.2575 23.927C39.9399 22.6652 38.6799 21.57 37.3503 20.311C36.039 18.8431 34.7973 17.5391 33.5557 16.235Z" fill="#1B9E4B"/>
<path d="M45.474 30.6454C45.0115 31.421 44.3084 31.9445 44.1547 32.5969C43.0998 37.0747 42.16 41.5795 41.1825 46.3007C40.1982 46.6134 39.2146 46.7011 38.0771 46.4563C38.4678 43.1877 39.0122 40.2517 39.638 37.1517C40.7299 35.2554 42.1152 33.6289 42.6441 31.7607C43.1583 29.9446 42.7947 27.8808 42.8166 25.9258C43.707 27.4348 44.5973 28.9439 45.474 30.6454Z" fill="#FFC80E"/>
<path d="M10.8639 46.6113C10.2616 46.7162 9.6594 46.8211 8.86834 46.6499C8.67621 39.5416 8.63353 32.7089 8.7182 25.8777C8.72909 24.9995 9.40111 24.1294 9.9138 23.3262C10.5007 23.7128 10.9407 24.0287 11.3808 24.4794C11.381 24.6142 11.3852 24.8838 11.2237 25.0429C10.9961 32.3384 10.93 39.4748 10.8639 46.6113Z" fill="#3D9AD4"/>
<path d="M4.44629 30.2861C5.65328 26.2862 5.2486 22.305 4.50277 18.1816C5.47344 18.5315 6.24754 19.0297 7.04036 19.6937C7.24136 20.2672 7.42365 20.6751 7.44255 21.2415C7.2009 22.3754 7.05943 23.3504 7.05444 24.3261C7.01629 31.7853 7.00474 39.2445 6.98491 46.7038C6.58918 46.6866 6.19344 46.6694 5.60737 46.3424C5.41721 41.5911 5.4656 37.1485 5.37376 32.7089C5.35692 31.8953 4.77004 31.0934 4.44629 30.2861Z" fill="#53ADE1"/>
<path d="M176.449 54.5157C174.93 54.7556 174.395 54.1669 174.535 52.8971C174.807 50.4406 175.074 47.9835 175.417 45.5369C175.422 45.5014 176.381 45.5991 176.993 45.6414C177.084 46.66 177.162 47.5269 177.247 48.4784C178.932 47.8978 178.72 44.5283 181.832 45.8871C179.627 48.645 178.838 51.5123 182.428 54.0528C179.994 54.6162 179.994 54.6162 177.425 51.2918C177.16 52.4 176.913 53.4334 176.449 54.5157Z" fill="#7C7D80"/>
<path d="M161.584 53.8838C158.469 55.2326 157.191 54.4557 157.057 51.3255C157.03 50.6996 157.041 50.0714 157.051 49.4446C157.103 46.1401 157.967 45.2906 161.24 45.3614C162.043 45.3788 162.844 45.4729 163.951 45.5542C163.951 48.4757 163.951 51.3663 163.951 54.6585C163.21 54.3632 162.487 54.0752 161.584 53.8838ZM159.527 47.7017C159.45 48.669 159.193 49.6671 159.351 50.5941C159.49 51.4014 160.098 52.1285 160.498 52.8911C160.945 52.1645 161.531 51.4845 161.795 50.6969C162.01 50.0575 161.82 49.2885 161.841 48.5779C161.889 46.9712 161.093 46.7658 159.527 47.7017Z" fill="#747578"/>
<path d="M171.324 54.5063C170.929 53.8968 170.601 53.312 170.633 52.7475C170.744 50.7836 169.727 50.7566 168.187 51.1537C168.11 52.2226 168.04 53.1914 167.966 54.2144C166.514 54.8947 165.759 54.6464 165.797 52.8935C165.848 50.5641 165.81 48.2328 165.81 45.7157C169.085 45.0672 167.573 47.7611 168.364 49.02C169.709 49.4428 170.817 49.4506 170.603 47.3297C170.441 45.7154 171.168 45.2834 172.855 45.7529C172.855 48.3128 172.916 50.8198 172.797 53.3184C172.777 53.7444 171.989 54.134 171.324 54.5063Z" fill="#717275"/>
<path d="M7.13301 46.8047C7.00542 39.2461 7.01697 31.7868 7.05512 24.3277C7.06011 23.352 7.20158 22.377 7.56801 21.25C7.85618 21.0983 8.10593 21.1154 8.18223 21.268C8.76155 22.0314 9.26456 22.6422 9.76757 23.2531C9.40181 24.1269 8.72979 24.997 8.7189 25.8753C8.63422 32.7064 8.6769 39.5392 8.68516 46.6091C8.22021 46.8659 7.75032 46.885 7.13301 46.8047Z" fill="#48A4DB"/>
<path d="M4.37385 30.4824C4.77032 31.097 5.35721 31.8988 5.37404 32.7124C5.46588 37.1521 5.41749 41.5946 5.41691 46.2915C4.57658 46.3249 3.73666 46.103 2.77359 45.7438C2.58645 42.9416 2.52245 40.2767 2.28955 37.4557C2.84748 35.0914 3.5743 32.8833 4.37385 30.4824Z" fill="#5FB6E6"/>
<path d="M11.0644 46.6458C10.9303 39.4731 10.9964 32.3366 11.3666 25.1055C11.9364 25.3207 12.2022 25.6306 12.4664 26.1957C12.4648 33.1319 12.4646 39.8129 12.4645 46.4939C12.0645 46.5566 11.6646 46.6193 11.0644 46.6458Z" fill="#3690CE"/>
<path d="M19.5365 44.9811C18.9517 45.2065 18.3669 45.432 17.5737 45.4047C17.3619 39.9979 17.3583 34.8438 17.5187 29.7773C18.4905 30.3593 19.2984 30.8536 19.9367 31.503C19.6903 36.0991 19.6134 40.5401 19.5365 44.9811Z" fill="#0C72B9"/>
<path d="M12.6684 46.5226C12.4641 39.8099 12.4643 33.129 12.6414 26.2168C13.4209 26.3414 14.0235 26.6971 14.6279 27.1856C14.6299 27.3184 14.6346 27.5838 14.473 27.7428C14.24 34.0654 14.1686 40.229 14.0971 46.3926C13.689 46.4465 13.281 46.5003 12.6684 46.5226Z" fill="#328ACA"/>
<path d="M27.1183 40.0353C25.6129 41.2824 24.1075 42.5295 22.382 43.5793C22.0111 40.6159 21.8235 37.8507 21.7589 35.0825C21.7512 34.7551 22.417 34.4119 22.9163 34.1816C24.4141 36.2033 25.7662 38.1193 27.1183 40.0353Z" fill="#085EAD"/>
<path d="M22.7699 34.0793C22.4163 34.4151 21.7506 34.7583 21.7582 35.0857C21.8229 37.8539 22.0105 40.6192 22.1903 43.6107C21.4511 44.2125 20.6827 44.5887 19.7252 44.9745C19.613 40.5429 19.6899 36.102 20.1104 31.508C20.6864 31.3419 20.9189 31.3287 21.274 31.4095C21.6399 31.8351 21.8832 32.1667 22.1991 32.6244C22.4402 32.8309 22.6085 32.9112 22.7686 32.9952C22.7604 32.9987 22.773 32.9829 22.7612 33.1655C22.7563 33.5918 22.7631 33.8355 22.7699 34.0793Z" fill="#1068B3"/>
<path d="M42.7872 25.7843C42.7953 27.8797 43.1589 29.9435 42.6447 31.7596C42.1157 33.6278 40.7305 35.2543 39.4367 37.1596C38.3776 37.5246 37.6018 37.7166 36.6113 37.8984C35.8226 37.8988 35.2485 37.9095 34.5066 37.8424C33.711 37.4252 33.0833 37.0861 32.7031 36.7481C35.401 36.8065 37.9689 37.2308 39.7455 34.5427C42.4601 31.1621 40.6087 28.039 39.7699 24.8816C40.4239 24.6162 40.8697 24.355 41.3155 24.0938C41.4779 24.2697 41.6403 24.4457 41.88 24.7866C42.2241 25.1824 42.4907 25.4131 42.7872 25.7843Z" fill="#FFDA03"/>
<path d="M32.4555 36.7458C33.0833 37.085 33.711 37.4242 34.5092 38.067C34.3136 40.564 33.9475 42.7573 33.5815 44.9506C32.1974 43.9682 30.8134 42.9858 29.542 41.7993C30.0415 39.8486 30.4282 38.102 30.9933 36.3359C31.5995 36.4596 32.0275 36.6027 32.4555 36.7458Z" fill="#F48F21"/>
<path d="M36.8253 37.9074C37.6012 37.7153 38.377 37.5233 39.3547 37.3223C39.0121 40.2493 38.4677 43.1853 37.9169 46.3482C37.1331 46.4 36.3557 46.2249 35.4009 45.7383C35.7574 42.9204 36.2914 40.4139 36.8253 37.9074Z" fill="#FCB018"/>
<path d="M14.2479 46.4168C14.1688 40.2326 14.2403 34.069 14.5904 27.8047C15.0181 27.8075 15.1198 27.9459 15.1735 28.3733C15.1889 34.4633 15.2047 40.2989 15.2206 46.1345C14.9465 46.2354 14.6725 46.3364 14.2479 46.4168Z" fill="#2382C4"/>
<path d="M22.9162 34.1822C22.7636 33.8329 22.7568 33.5891 22.9589 33.166C25.2237 33.8997 27.2797 34.8128 29.3315 35.925C28.7279 37.4077 28.1285 38.6913 27.5291 39.9749C27.5291 39.9749 27.3249 40.0147 27.2215 40.0253C25.7661 38.1199 24.414 36.2039 22.9162 34.1822Z" fill="#484190"/>
<path d="M15.3996 46.1363C15.2048 40.2969 15.189 34.4613 15.3469 28.3906C15.9564 28.5021 16.3922 28.8487 16.6625 29.3525C16.4176 34.9813 16.3381 40.453 16.2585 45.9246C16.0319 45.9964 15.8052 46.0683 15.3996 46.1363Z" fill="#1A7DC1"/>
<path d="M16.4089 45.9524C16.3388 40.4558 16.4184 34.9841 16.7759 29.4087C17.1994 29.3988 17.2999 29.5277 17.3555 29.6914C17.359 34.8455 17.3626 39.9996 17.3817 45.4264C17.1176 45.7919 16.8381 45.8846 16.4089 45.9524Z" fill="#1279BE"/>
<path d="M213.174 18.1666C211.613 17.8824 210.115 17.7462 210.767 15.7871C212.865 15.7871 214.933 15.7871 217.246 15.7871C217.298 18.5846 215.058 17.9841 213.174 18.1666Z" fill="#212121"/>
<path d="M36.6111 37.8984C36.2918 40.4153 35.7578 42.9218 35.2231 45.6445C34.7322 45.6497 34.242 45.4388 33.6665 45.0898C33.9473 42.7584 34.3133 40.5651 34.6768 38.1461C35.2483 37.9096 35.8224 37.8989 36.6111 37.8984Z" fill="#F49F26"/>
<path d="M27.6201 40.1256C28.1282 38.6901 28.7276 37.4065 29.4043 35.9144C29.4815 35.7058 29.6296 35.6974 29.7597 35.8115C30.198 36.0688 30.5062 36.212 30.8144 36.3551C30.4276 38.1017 30.0409 39.8484 29.4615 41.6388C28.7497 41.2143 28.2306 40.746 27.6201 40.1256Z" fill="#EE6428"/>
<path d="M29.6299 35.6992C29.6299 35.6992 29.4818 35.7077 29.4087 35.7171C27.2796 34.8134 25.2237 33.9003 22.9706 32.9841C22.7735 32.9809 22.7609 32.9967 22.718 32.8517C22.4923 32.6365 22.3096 32.5664 22.1269 32.4962C21.8837 32.1647 21.6404 31.8331 21.2463 31.2207C20.0398 28.9085 18.9842 26.877 17.9518 24.6438C17.5719 23.3231 17.1687 22.2041 16.7931 20.8677C16.5754 19.3597 16.33 18.0691 16.1201 16.5436C16.1869 15.2003 16.2183 14.0922 16.3543 12.835C17.0331 11.7384 17.6071 10.7908 18.181 9.84317C18.2964 9.87127 18.4037 9.85256 18.7726 9.7336C19.1991 9.50813 19.3555 9.33609 19.512 9.16406C19.512 9.16406 19.5031 9.19734 19.4871 9.19103C20.9576 9.36989 22.4441 9.55506 23.9988 9.93556C20.5552 11.5523 20.3862 12.641 23.3538 15.2706C23.5704 15.4896 23.7212 15.5882 23.9353 15.8521C24.8192 17.0247 25.6398 18.0319 26.5 19.2123C27.0162 20.1633 27.4927 20.9412 28.0114 21.9157C28.5374 23.4093 29.0211 24.7064 29.5525 26.2504C29.6101 29.5646 29.62 32.6319 29.6299 35.6992Z" fill="#F48F21"/>
<path d="M33.4265 16.1935C34.7981 17.5388 36.0397 18.8428 37.3392 20.5198C37.4143 21.3109 37.4316 21.7291 37.2526 22.1595C36.267 22.5339 35.4778 22.8959 34.5655 23.2447C34.4426 23.2313 34.1959 23.2126 34.1115 23.0531C32.8086 21.7317 31.59 20.5698 30.3073 19.2822C30.0935 18.9175 29.9437 18.6785 29.8213 18.2557C30.7383 17.2917 31.6279 16.5116 32.6322 15.7263C32.7468 15.7213 32.9762 15.7207 32.9762 15.7207C33.083 15.8646 33.1898 16.0084 33.4265 16.1935Z" fill="#FFDF43"/>
<path d="M23.288 15.1481C20.3862 12.6389 20.5552 11.5502 24.2023 10.0156C25.5677 10.4444 26.7979 10.9863 28.1111 11.7079C28.1942 11.8877 28.1337 11.9594 27.9206 11.9436C24.9781 11.2827 24.5509 13.787 23.288 15.1481Z" fill="#F49F26"/>
<path d="M29.9027 12.875C30.5673 13.3131 31.232 13.7513 31.948 14.3816C31.9994 14.5738 31.9071 14.6709 31.7255 14.6529C30.969 14.4397 30.3941 14.2445 29.8133 13.8792C29.7889 13.4838 29.7704 13.2583 29.7899 12.9936C29.8277 12.9543 29.9027 12.875 29.9027 12.875Z" fill="#F49F26"/>
<path d="M32.9921 15.5505C32.9756 15.7228 32.7462 15.7233 32.5013 15.6343C32.14 15.2548 32.0236 14.9642 31.9072 14.6736C31.9072 14.6736 31.9995 14.5766 32.0453 14.5273C32.3969 14.7782 32.7028 15.0782 32.9921 15.5505Z" fill="#F49F26"/>
<path d="M28.9421 12.2148C29.2077 12.3519 29.4733 12.4889 29.8209 12.7514C29.903 12.8769 29.828 12.9562 29.6355 12.97C29.1956 12.8105 28.9482 12.6373 28.7617 12.4023C28.8226 12.3405 28.9421 12.2148 28.9421 12.2148Z" fill="#F49F26"/>
<path d="M28.2253 11.854C28.4384 11.8468 28.6049 11.9133 28.849 12.1165C28.9419 12.2146 28.8224 12.3405 28.6461 12.3441C28.3251 12.2473 28.2131 12.1184 28.1338 11.9611C28.1338 11.9611 28.1943 11.8893 28.2253 11.854Z" fill="#F49F26"/>
<path d="M76.107 56.1141C76.1071 54.4298 76.1668 52.9896 76.0917 51.5565C76.0069 49.9363 76.8627 48.9888 78.2898 49.3285C79.0655 49.5131 79.8402 50.7239 80.1342 51.6278C80.4513 52.6029 80.2096 53.7602 80.2064 54.838C80.1961 58.3219 80.0434 58.4661 76.3123 58.3239C76.2463 57.6928 76.1766 57.027 76.107 56.1141Z" fill="#ECECEC"/>
<path d="M18.0569 9.70331C17.6068 10.7891 17.0329 11.7367 16.1548 12.8359C12.9077 15.168 9.96468 17.3486 7.02168 19.5292C6.24757 19.0309 5.47346 18.5326 4.54218 17.962C4.3784 17.7939 4.3718 17.6982 4.57156 17.4545C5.95188 16.5581 7.20675 15.9096 8.28357 15.0411C10.7991 13.0122 13.2292 10.8776 15.8788 8.74827C16.1874 8.68733 16.3111 8.66398 16.4348 8.64062C16.9342 8.94879 17.4336 9.25696 18.0569 9.70331Z" fill="#90C3E8"/>
<path d="M16.3532 8.4657C16.3105 8.66378 16.1868 8.68714 15.6993 8.69386C14.5563 8.32001 13.7772 7.96278 12.8266 7.50312C11.8779 7.25332 11.1007 7.10594 10.2481 6.81127C9.65501 6.09742 9.1373 5.53087 8.63818 4.78297C8.66693 4.4805 8.67708 4.35939 8.68723 4.23828C11.2156 5.58918 13.7439 6.94007 16.3532 8.4657Z" fill="#3690CE"/>
<path d="M8.61779 4.07021C8.67812 4.36219 8.66797 4.4833 8.50784 4.86075C8.28407 5.40974 8.21029 5.70238 7.9109 5.98231C6.93551 5.91607 6.18573 5.86255 5.43115 5.57306C5.43408 4.05026 5.44179 2.76341 5.44951 1.47656C6.48211 2.28416 7.51471 3.09175 8.61779 4.07021Z" fill="#53ADE1"/>
<path d="M5.35778 1.35745C5.44152 2.76034 5.43381 4.04719 5.21747 5.61719C4.43119 5.95774 3.85353 6.01515 3.27588 6.07257C3.5093 4.43236 3.74273 2.79216 4.19381 1.0957C4.69642 1.10677 4.98137 1.17408 5.35778 1.35745Z" fill="#5FB6E6"/>
<path d="M19.3264 9.17773C19.3554 9.33662 19.1989 9.50893 18.8546 9.71997C18.8248 9.56952 18.9829 9.38034 19.3264 9.17773Z" fill="#3BB54B"/>
<path d="M12.9989 7.60547C13.778 7.9627 14.5571 8.31993 15.5151 8.73137C13.2293 10.8773 10.7993 13.0119 8.28375 15.0408C7.20692 15.9093 5.95206 16.5578 4.58468 17.311C3.98057 16.7257 3.56988 16.1358 3.3501 15.348C7.30494 13.3991 10.677 11.1583 12.9989 7.60547Z" fill="#9BCAED"/>
<path d="M12.8274 7.50549C10.6769 11.1608 7.30488 13.4015 3.32764 15.1611C2.96443 14.746 2.81452 14.3223 2.83192 13.6494C5.44087 11.2537 7.88252 9.10731 10.3242 6.96094C11.1014 7.10831 11.8786 7.25569 12.8274 7.50549Z" fill="#A6D2F0"/>
<path d="M10.2488 6.81493C7.88247 9.1086 5.44082 11.255 2.82196 13.4746C2.47644 13.1324 2.30814 12.7169 2.21924 11.9586C3.13665 10.8205 3.97975 10.0306 4.81142 9.2288C5.92429 8.15595 7.02831 7.07396 8.13613 5.99589C8.20991 5.70325 8.2837 5.4106 8.48887 5.04297C9.13797 5.53453 9.65568 6.10108 10.2488 6.81493Z" fill="#B0D9F3"/>
<path d="M7.91076 5.98156C7.02854 7.07235 5.92453 8.15435 4.81166 9.22719C3.97998 10.0289 3.13688 10.8189 2.21159 11.7804C1.79129 10.964 1.45825 9.9812 1.12891 8.79446C1.78678 7.84435 2.44097 7.09818 3.18558 6.21345C3.85367 6.01748 4.43132 5.96007 5.22239 5.85547C6.18559 5.8618 6.93538 5.91532 7.91076 5.98156Z" fill="#BDE1F7"/>
<path d="M80.2332 21.6662C80.5669 24.2766 80.805 26.873 80.6363 29.4428C80.593 30.1019 79.3225 31.0304 78.5075 31.1609C78.0025 31.2417 76.8942 30.1277 76.7591 29.417C76.4784 27.9406 76.753 26.3691 76.64 24.8485C76.4551 22.3603 77.5536 21.3409 80.2332 21.6662Z" fill="#F0F0F0"/>
<path d="M104.548 56.0477C104.731 54.3869 104.929 52.9592 105.061 51.5253C105.248 49.4851 106.323 48.6928 108.507 49.0527C108.507 52.2814 108.507 55.4653 108.507 58.7812C107.197 58.7812 105.96 58.7812 104.348 58.7812C104.409 57.9623 104.472 57.1202 104.548 56.0477Z" fill="#E4E4E4"/>
<path d="M93.9526 52.7565C92.675 53.1195 91.4718 53.2819 89.665 53.5257C89.9688 51.8984 89.9863 50.575 90.5273 49.5189C90.7403 49.103 92.64 48.9263 92.8728 49.262C93.5122 50.1839 93.6754 51.435 93.9526 52.7565Z" fill="#E4E4E4"/>
<path d="M114.278 31.3831C113.337 30.859 112.063 30.3925 111.998 29.7949C111.758 27.5893 111.811 25.3311 112.004 23.1145C112.051 22.5766 113.002 21.8252 113.635 21.7107C114.294 21.5916 115.696 22.1147 115.7 22.3736C115.745 25.2366 115.595 28.1036 115.431 30.9658C115.422 31.1212 114.824 31.243 114.278 31.3831Z" fill="#ECECEC"/>
<path d="M172.908 26.933C173.893 30.7864 173.338 31.399 169.452 30.8817C169.402 30.2301 169.33 29.5443 169.305 28.8567C169.279 28.1542 169.299 27.4499 169.299 26.3457C170.593 26.498 171.677 26.6255 172.908 26.933Z" fill="#E4E4E4"/>
<path d="M37.4482 22.1472C37.4309 21.729 37.4137 21.3108 37.4082 20.6836C38.68 21.5697 39.94 22.6649 41.2576 23.9266C40.8694 24.3544 40.4235 24.6156 39.6289 24.7759C38.6695 23.8324 38.0588 22.9898 37.4482 22.1472Z" fill="#FFC80E"/>
<path d="M16.0839 16.7754C16.3293 18.0659 16.5746 19.3564 16.6042 20.8898C14.719 22.2018 13.0496 23.271 11.3802 24.3402C10.9402 24.0243 10.5002 23.7084 9.91331 23.3218C9.26338 22.6403 8.76037 22.0295 8.3833 21.2579C9.63693 20.4745 10.7723 19.8652 11.8903 19.2257C13.2956 18.4219 14.6867 17.5933 16.0839 16.7754Z" fill="#72B1E0"/>
<path d="M11.3804 24.4811C13.0496 23.277 14.7191 22.2078 16.5766 21.1133C17.168 22.2069 17.5712 23.3259 17.7886 24.7302C16.6104 25.6968 15.6181 26.378 14.6258 27.0592C14.0232 26.7035 13.4207 26.3477 12.6427 25.9679C12.2014 25.634 11.9357 25.3241 11.5274 24.9498C11.3847 24.8855 11.3805 24.6159 11.3804 24.4811Z" fill="#5BA7DB"/>
<path d="M16.12 16.5394C14.6874 17.5924 13.2963 18.421 11.891 19.2248C10.773 19.8643 9.6376 20.4735 8.30767 21.1044C8.10542 21.1126 7.85567 21.0955 7.73089 21.0886C7.42381 20.6738 7.24153 20.2659 7.04053 19.6924C9.96482 17.3461 12.9078 15.1655 16.0502 12.9824C16.2182 14.088 16.1868 15.1962 16.12 16.5394Z" fill="#84BBE4"/>
<path d="M159.67 47.5186C161.094 46.7669 161.889 46.9723 161.841 48.579C161.82 49.2896 162.01 50.0587 161.795 50.698C161.531 51.4857 160.945 52.1657 160.498 52.8922C160.098 52.1296 159.49 51.4025 159.351 50.5952C159.193 49.6682 159.45 48.6701 159.67 47.5186Z" fill="#F0F0F0"/>
<path d="M14.6279 27.1877C15.6183 26.3738 16.6107 25.6926 17.7655 24.9277C18.9837 26.8755 20.0393 28.9069 21.1232 31.1252C20.9189 31.3251 20.6865 31.3384 20.2799 31.3494C19.298 30.8529 18.4901 30.3586 17.5183 29.7767C17.2988 29.5253 17.1983 29.3964 16.9402 29.2491C16.3919 28.8491 15.9561 28.5025 15.347 28.1366C15.1195 27.9443 15.0179 27.806 14.7517 27.6441C14.6346 27.5859 14.6298 27.3204 14.6279 27.1877Z" fill="#3D9AD4"/>
<path d="M22.1997 32.6201C22.3097 32.564 22.4924 32.6342 22.7262 32.8462C22.6091 32.9074 22.4407 32.8269 22.1997 32.6201Z" fill="#484190"/>
<path d="M34.1951 23.209C34.1951 23.209 34.4418 23.2277 34.6376 23.4089C37.3072 26.8878 39.8571 30.153 39.5689 34.6315C37.9685 37.2267 35.4006 36.8025 32.7027 36.744C32.0271 36.5997 31.5991 36.4566 30.9928 36.3329C30.5063 36.2092 30.1981 36.0661 29.7599 35.8088C29.6198 32.6273 29.6099 29.56 29.7697 26.2306C31.3579 25.0487 32.7765 24.1288 34.1951 23.209Z" fill="#FFF696"/>
<path d="M39.7452 34.5389C39.8573 30.1533 37.3074 26.8881 34.7607 23.4225C35.4771 22.8927 36.2664 22.5306 37.252 22.1562C38.0589 22.9866 38.6695 23.8292 39.4208 24.7769C40.6084 28.0353 42.4598 31.1584 39.7452 34.5389Z" fill="#FFEF4C"/>
<path d="M34.1114 23.0514C32.7771 24.1307 31.3585 25.0506 29.7226 25.9856C29.0215 24.7037 28.5378 23.4066 28.1938 21.8397C29.0128 20.8487 29.692 20.1275 30.3712 19.4062C31.5898 20.5681 32.8084 21.73 34.1114 23.0514Z" fill="#FFEC8A"/>
<path d="M27.9204 11.9428C28.2128 12.1157 28.3248 12.2444 28.5849 12.4028C28.9477 12.6342 29.1951 12.8074 29.5971 13.0061C29.7702 13.2571 29.7887 13.4826 29.6306 13.8993C28.6592 14.6302 27.8642 15.1698 26.8959 15.6303C25.7723 15.5955 24.822 15.6397 23.8718 15.6839C23.7209 15.5853 23.5701 15.4867 23.3535 15.2677C24.5507 13.7862 24.9779 11.2819 27.9204 11.9428Z" fill="#FCB630"/>
<path d="M30.3072 19.2809C29.6921 20.1278 29.0129 20.849 28.1517 21.6436C27.4932 20.9389 27.0167 20.161 26.5879 19.0476C27.1616 18.2352 27.6877 17.7581 28.3596 17.3555C28.9349 17.7659 29.3644 18.1021 29.7939 18.4382C29.9436 18.6772 30.0934 18.9161 30.3072 19.2809Z" fill="#FFE781"/>
<path d="M28.213 17.2836C27.6869 17.7606 27.1608 18.2377 26.5474 18.877C25.6395 18.0321 24.8189 17.0248 23.9351 15.8523C24.8221 15.6428 25.7724 15.5985 26.9695 15.7785C27.5486 16.4297 27.8808 16.8567 28.213 17.2836Z" fill="#FFD86D"/>
<path d="M28.3585 17.3539C27.8806 16.8526 27.5484 16.4256 27.1426 15.8535C27.864 15.1688 28.659 14.6293 29.6364 14.0684C30.3937 14.2423 30.9685 14.4376 31.7251 14.6508C32.0231 14.9593 32.1395 15.2499 32.3862 15.6345C31.6268 16.5087 30.7372 17.2889 29.8202 18.2529C29.3633 18.1005 28.9338 17.7644 28.3585 17.3539Z" fill="#FEC839"/>
</g>
<defs>
<clipPath id="clip0_188_4863">
<rect width="220" height="66" fill="white"/>
</clipPath>
</defs>
</svg>
