<svg width="140" height="140" viewBox="0 0 140 140" fill="none" xmlns="http://www.w3.org/2000/svg">
<g clip-path="url(#clip0_188_5679)">
<path d="M59.7309 81.6116C54.8668 81.612 50.0967 81.5926 45.3271 81.6302C44.4219 81.6373 44.1502 81.3732 44.1519 80.4578C44.176 67.0676 44.1622 53.6772 44.1645 40.2869C44.1645 39.9624 44.2454 39.6378 44.492 39.2656C45.011 40.2005 45.502 41.1521 46.0535 42.0676C49.9558 48.5452 55.4918 53.0811 62.6433 55.5792C64.6099 56.2662 66.7103 56.6004 68.7709 56.9803C69.4904 57.113 69.7001 57.3301 69.6999 58.0347C69.6981 65.2128 69.7292 72.391 69.7457 79.5691C69.7504 81.6151 69.7425 81.615 67.639 81.6142C65.0344 81.6133 62.4297 81.6125 59.7309 81.6116Z" fill="#056C49"/>
<path d="M74.9343 43.6711C74.9331 38.1778 74.9314 32.7783 74.9312 27.3788C74.9311 26.2083 74.9796 26.1637 76.1421 26.1641C83.171 26.1663 90.1999 26.1672 97.2288 26.17C98.3752 26.1704 98.4524 26.2154 98.3116 27.3261C97.5275 33.5107 95.1102 38.9551 90.7582 43.4844C86.7501 47.6557 81.8819 50.2311 76.1328 51.125C75.0327 51.2961 74.9286 51.2177 74.9307 50.1318C74.9348 48.0095 74.9333 45.8871 74.9343 43.6711Z" fill="#066D4A"/>
<path d="M59.2093 47.7381C54.8391 44.9887 51.5356 41.3527 49.2428 36.8318C47.6918 33.7736 46.7716 30.514 46.3806 27.106C46.3005 26.408 46.5383 26.1527 47.2461 26.1543C54.4611 26.1707 61.6761 26.1747 68.891 26.1593C69.6238 26.1578 69.6907 26.5361 69.6895 27.1043C69.6818 30.5676 69.6921 34.031 69.6946 37.4943C69.6977 41.7377 69.6775 45.9813 69.7195 50.2244C69.7279 51.0756 69.4232 51.2332 68.6613 51.1298C65.2878 50.6722 62.1891 49.4729 59.2093 47.7381Z" fill="#066D4A"/>
<path d="M86.1107 81.6102C82.6249 81.6149 79.2331 81.5964 75.842 81.6401C74.932 81.6518 74.6599 81.3524 74.6641 80.4446C74.6983 73.1357 74.684 65.8265 74.6846 58.5174C74.6847 57.1445 74.7766 57.1168 76.1569 57.3687C82.6072 58.5458 87.7156 61.8765 91.674 66.9892C94.0361 70.0402 95.6629 73.4738 96.5124 77.245C96.7587 78.3384 96.8935 79.4562 97.1112 80.5566C97.2648 81.3326 97.0074 81.6306 96.1912 81.6235C92.8626 81.5944 89.5337 81.6107 86.1107 81.6102Z" fill="#066C49"/>
<path d="M85.4023 53.5169C92.073 50.1942 97.0441 45.3911 99.5309 38.2539C99.9519 38.8761 100.079 70.2267 99.6765 71.5879C99.3867 71.021 99.1385 70.5858 98.9355 70.1306C95.9215 63.3734 91.1672 58.2269 84.5907 54.7578C84.4193 54.6674 84.1588 54.4193 84.1895 54.3386C84.2639 54.143 84.465 53.9714 84.6537 53.849C84.8602 53.715 85.1101 53.6472 85.4023 53.5169Z" fill="#0C6F4D"/>
<path d="M110.587 98.7717C110.531 98.3207 110.456 97.8712 110.425 97.4186C110.374 96.6938 110.55 95.9656 109.966 95.3035C109.662 94.9584 109.773 94.4556 110.465 94.4595C112.093 94.4686 113.721 94.4423 115.348 94.4704C116.077 94.483 116.217 94.8737 115.855 95.5275C115.672 95.8593 115.542 96.2566 115.518 96.6323C115.468 97.4388 115.514 98.2507 115.5 99.0601C115.484 99.9876 115.456 100.896 116.033 101.724C116.493 102.384 116.077 102.988 115.854 103.628C115.656 103.559 115.526 103.556 115.493 103.498C114.693 102.085 113.345 102.295 112.051 102.326C111.551 102.338 111.05 102.313 110.494 102.223C111.868 102.089 113.298 102.037 114.761 102.026C114.9 102.16 115.006 102.252 115.115 102.402C115.219 102.559 115.32 102.658 115.431 102.772C115.441 102.785 115.474 102.796 115.499 102.833C115.601 102.817 115.679 102.764 115.758 102.634C115.555 102.103 115.35 101.649 115.147 101.108C115.24 99.0046 114.852 96.9642 115.492 94.7879C114.643 94.866 113.862 94.9379 113.081 95.0098C113.075 95.1033 113.069 95.1968 113.062 95.2903C113.232 95.4054 113.401 95.5205 113.582 95.7048C113.602 95.9608 113.61 96.1477 113.569 96.3776C113.548 96.705 113.576 96.9895 113.601 97.3614C113.601 98.5129 113.602 99.5769 113.556 100.69C113.198 101.336 112.238 101.648 111.521 101.344C110.859 101.063 111.032 100.527 111.126 99.9855C111.305 98.947 111.498 97.9012 111.543 96.8524C111.577 96.0509 111.501 95.3046 112.576 95.0635C111.866 94.995 111.156 94.9265 110.239 94.8381C111.371 96.2687 110.846 97.5257 110.587 98.7717Z" fill="#E5E5E5"/>
<path d="M100.445 98.6008C99.7744 98.839 99.1544 99.0272 98.3554 99.2698C98.3667 99.8024 97.9567 100.587 98.7116 101.324C99.0593 101.663 98.8784 102.044 98.3502 102.067C97.6945 102.096 97.036 102.08 96.3793 102.062C95.7818 102.046 95.6987 101.796 95.9831 101.279C96.1789 100.924 96.3271 100.499 96.3456 100.099C96.3959 99.0113 96.4054 97.9179 96.3491 96.8311C96.3253 96.3709 96.0461 95.928 95.9821 95.4638C95.9505 95.2349 96.1393 94.7645 96.237 94.7622C97.2645 94.7377 98.3108 94.6778 99.319 94.836C101.494 95.1775 101.487 97.391 100.445 98.6008ZM98.7 98.0998C98.8694 97.8367 99.0388 97.5737 99.3292 97.2574C99.3374 96.8193 99.3456 96.3813 99.4841 95.9845C99.6215 96.7504 99.759 97.5163 99.8916 98.255C100.627 97.8885 101.009 96.4203 100.358 95.8498C100.047 95.5778 99.7091 94.8727 98.919 95.4241C98.4438 95.3528 97.9284 95.407 98.0135 95.9957C98.1186 96.7224 97.4593 97.6354 98.4746 98.1662C98.4903 98.1744 98.5281 98.141 98.7 98.0998Z" fill="#909090"/>
<path d="M131.313 95.0863C131.2 95.6836 131.089 96.2027 130.971 96.7573C130.648 96.6437 130.575 96.6393 130.536 96.6009C130.245 96.3166 129.96 96.0256 129.673 95.7367C129.585 96.1331 129.446 96.5263 129.42 96.9268C129.378 97.5782 129.374 98.2367 129.418 98.8879C129.486 99.8765 129.608 100.861 129.718 101.968C128.976 101.968 128.047 101.968 127.246 101.968C127.341 99.9296 127.436 97.8657 127.532 95.8018C127.447 95.7476 127.361 95.6933 127.276 95.6391C127.026 95.89 126.791 96.1592 126.519 96.3847C126.367 96.5114 126.128 96.6622 125.975 96.6227C125.849 96.5901 125.691 96.2727 125.723 96.1172C125.844 95.5257 126.037 94.9486 126.201 94.3711C127.74 94.8277 129.156 94.8353 130.559 94.474C131.115 94.3309 131.332 94.4503 131.313 95.0863ZM128.887 99.4219C128.887 98.3022 128.842 97.1803 128.901 96.0638C128.949 95.1541 128.539 95.0817 127.879 95.2883C127.879 97.3365 127.879 99.3354 127.879 101.326C128.666 101.574 128.979 101.314 128.893 100.539C128.859 100.232 128.887 99.9176 128.887 99.4219Z" fill="#9F9F9F"/>
<path d="M35.291 101.467C35.7186 100.578 36.207 99.7882 36.5315 98.9363C37.0047 97.6939 37.3346 96.3981 37.7861 95.1468C37.8798 94.8872 38.2385 94.7222 38.475 94.5137C38.6995 94.7672 39.024 94.9845 39.132 95.2801C39.7836 97.0636 40.3816 98.8664 41.0111 100.658C41.0678 100.819 41.2335 100.939 41.3256 101.092C41.4725 101.337 41.6001 101.592 41.7359 101.843C41.4539 101.925 41.1766 102.041 40.8887 102.079C40.5805 102.121 40.2623 102.086 39.9484 102.088C38.746 102.097 38.8044 102.104 38.9349 100.899C38.9752 100.527 38.6851 99.873 38.3981 99.7742C38.0184 99.6435 37.3727 99.798 37.0607 100.075C36.6789 100.413 36.8085 100.905 37.3274 101.226C37.4787 101.32 37.5626 101.655 37.5302 101.855C37.5128 101.963 37.1514 102.127 36.9994 102.082C36.423 101.913 35.5535 102.618 35.291 101.467ZM38.5626 98.8514C39.0202 99.6823 39.76 100.431 39.2697 101.513C39.8332 101.513 40.3138 101.513 40.8721 101.513C40.0841 99.2916 39.3268 97.1563 38.5694 95.0209C38.2222 95.3064 38.1365 95.5636 38.0222 95.8076C37.7584 96.3708 37.3907 96.9118 38.2932 97.3111C38.4507 97.3808 38.4077 97.8989 38.3481 98.141C38.1813 97.918 38.0144 97.6951 37.8475 97.4721C37.7506 97.498 37.6537 97.5239 37.5568 97.5498C37.5807 97.9638 37.5743 98.3847 37.6654 98.7835C37.6773 98.8358 38.1892 98.775 38.5626 98.8514Z" fill="#9F9F9F"/>
<path d="M106.853 97.4541C106.854 97.962 106.855 98.4699 106.781 99.0595C106.564 99.1416 106.422 99.142 106.267 99.087C106.147 98.9315 106.041 98.8314 105.916 98.6684C105.628 98.6412 105.359 98.6767 105.077 98.8021C105.078 99.6117 105.092 100.332 105.117 101.118C105.36 101.607 105.238 101.773 104.752 101.789C104.379 101.801 104.009 101.913 103.637 101.981C103.552 101.98 103.466 101.978 103.297 101.915C103.292 101.513 103.46 101.166 103.437 100.833C103.306 98.9226 103.879 96.9589 102.972 95.0059C104.417 95.0059 105.821 95.0059 107.225 95.0059C107.283 95.2752 107.34 95.5446 107.327 95.8814C107.114 95.8577 106.972 95.7679 106.831 95.6753C106.241 95.2868 105.662 95.1561 105.092 95.8133C105.091 96.5781 104.537 97.4522 105.752 97.7987C106.165 97.6912 106.509 97.5726 106.853 97.4541Z" fill="#898989"/>
<path d="M123.231 94.6487C124.172 94.7582 124.29 94.9605 123.818 95.662C123.801 95.6874 123.759 95.7064 123.757 95.7306C123.619 97.5817 123.291 99.4398 123.975 101.402C123.905 101.678 123.81 101.933 123.704 101.937C122.885 101.97 122.063 101.955 121.242 101.955C121.135 101.794 121.028 101.632 120.921 101.471C121.176 101.375 121.432 101.279 121.712 101.258C122.26 101.439 122.783 101.546 123.359 101.663C123.359 99.3673 123.359 97.3095 123.359 95.1982C122.942 95.1768 122.44 95.151 122.088 95.133C121.98 95.7367 121.89 96.2272 121.807 96.7187C121.776 96.8983 121.727 97.0836 121.744 97.2608C121.846 98.3247 121.983 99.3856 122.062 100.451C122.076 100.644 121.876 100.853 121.761 100.966C121.748 100.006 121.748 99.1352 121.748 98.2639C121.634 98.2417 121.519 98.2194 121.405 98.1971C120.975 98.9608 120.468 99.6954 120.154 100.504C120.041 100.794 120.4 101.259 120.519 101.651C120.562 101.791 120.532 101.953 120.536 102.105C120.231 102.113 119.925 102.122 119.539 102.083C119.458 101.97 119.458 101.905 119.48 101.781C119.632 101.617 119.86 101.526 119.877 101.406C119.938 100.956 119.953 100.497 119.939 100.043C119.932 99.7969 119.849 99.547 119.765 99.311C119.697 99.1182 119.484 98.9379 119.495 98.7618C119.567 97.5877 119.683 96.4163 119.795 95.1107C119.158 95.2153 118.532 95.3181 117.907 95.4209C117.907 95.4209 117.847 95.4657 117.77 95.4177C117.896 95.1863 118.071 94.9117 118.309 94.8397C118.736 94.7101 119.2 94.702 119.649 94.6431C119.846 94.6452 120.043 94.6472 120.324 94.7182C120.385 95.0377 120.44 95.3327 120.326 95.5316C119.726 96.5767 120.115 97.6261 120.2 98.6942C120.736 97.9628 121.181 97.2226 121.544 96.4444C121.646 96.2258 121.609 95.7957 121.455 95.6356C121.058 95.2239 121.159 94.944 121.532 94.6387C121.733 94.6455 121.933 94.6523 122.255 94.7073C122.662 94.7199 122.946 94.6843 123.231 94.6487Z" fill="#B7B7B7"/>
<path d="M16.2197 95.5706C16.0565 95.4253 15.8934 95.2801 15.7303 95.1348C15.9161 94.9841 16.0922 94.7203 16.2895 94.7036C16.9416 94.6485 17.6206 94.594 18.2483 94.7286C18.4801 94.7784 18.598 95.354 18.8317 95.8161C19.2325 96.0049 19.9594 96.2007 20.475 96.6412C20.8239 96.9395 20.9953 97.572 21.0371 98.0723C21.1489 99.4105 20.6373 99.8467 18.2799 100.611C18.3348 100.775 18.3888 100.94 18.4446 101.104C18.5359 101.372 18.6283 101.64 18.7203 101.908C18.43 101.977 18.1419 102.095 17.8492 102.108C17.1529 102.138 16.4545 102.117 15.4663 102.117C15.8168 101.563 15.9997 101.301 16.1519 101.023C16.2342 100.872 16.2641 100.693 16.3176 100.527C16.1305 100.472 15.9408 100.363 15.7567 100.372C14.6563 100.422 13.9915 100.05 13.5959 99.124C13.1842 98.1603 13.3782 97.2205 14.2209 96.5108C14.3065 96.5101 14.3541 96.5567 14.3321 96.6202C14.1635 96.993 13.9937 97.2936 13.8744 97.613C13.4122 98.8509 14.3393 100.087 15.7005 100.017C15.6702 99.8656 15.6409 99.7184 15.6914 99.5588C15.9866 99.5507 16.2018 99.555 16.4155 99.6275C16.4889 100.296 16.5639 100.897 16.6497 101.584C16.9816 101.584 17.4285 101.584 17.91 101.584C17.91 99.4419 17.91 97.337 17.91 95.1104C17.4515 95.2196 16.8796 95.3559 16.2857 95.5118C16.2637 95.5314 16.2197 95.5706 16.2197 95.5706ZM18.6893 96.9167C17.6027 97.1779 18.1909 98.0412 18.1355 98.6145C18.0463 99.5365 18.239 99.616 19.1845 99.4251C19.158 99.6211 19.1315 99.8171 19.0798 100.199C19.8708 99.7869 20.4734 99.4463 20.5361 98.6289C20.6005 97.79 20.6975 96.9126 19.7015 96.4736C19.2514 96.2753 18.8242 96.1557 18.6893 96.9167Z" fill="#AEAEAF"/>
<path d="M91.8271 98.4447C91.8625 98.5143 91.898 98.5839 91.8992 98.7413C92.0645 99.1362 92.2641 99.4434 92.4795 99.8132C92.6861 100.135 92.877 100.395 93.0787 100.708C93.1486 100.849 93.2076 100.936 93.2893 101.076C93.2357 101.331 93.1595 101.533 93.0201 101.735C92.8731 101.727 92.7894 101.72 92.6501 101.669C92.3311 101.574 92.0675 101.523 91.804 101.472C91.8613 101.412 91.9187 101.352 91.976 101.292C91.7082 100.896 91.4404 100.5 91.1781 100.092C91.1835 100.08 91.1696 100.104 91.1743 100.034C91.038 99.6571 90.9643 99.276 90.7331 99.0687C90.5702 98.9226 90.1933 99.0125 89.912 98.997C90.011 99.6808 90.11 100.364 90.2296 101.081C90.2501 101.113 90.2836 101.182 90.2595 101.256C89.7304 101.44 89.2255 101.551 88.621 101.683C88.6544 101.354 88.6791 101.239 88.6757 101.124C88.6384 99.8389 88.5966 98.5542 88.5561 97.2695C88.5533 97.1864 88.5505 97.1034 88.6003 96.9285C88.6297 96.6688 88.6064 96.5009 88.5829 96.2692C88.5275 96.0563 88.4723 95.9073 88.4172 95.7582C88.3913 95.6909 88.3654 95.6237 88.3696 95.443C89.0994 95.2856 89.799 95.2416 90.4792 95.2567C90.3699 95.4548 90.2802 95.5937 90.1233 95.762C89.9978 96.1983 89.8811 96.6082 89.9014 97.0114C89.9151 97.2845 90.1214 97.5481 90.2415 97.8159C90.4846 97.5645 90.7277 97.3131 90.9725 97.0546C90.9742 97.0475 90.9819 97.0349 91.0415 97.0791C91.1685 97.1959 91.236 97.2686 91.3035 97.3413C91.3329 97.5159 91.3624 97.6905 91.4005 97.9764C91.5485 98.2066 91.6878 98.3256 91.8271 98.4447Z" fill="#7A7B7A"/>
<path d="M79.8565 97.7609C79.5876 97.8652 79.3064 97.9906 79.14 98.2045C78.7964 98.6458 78.3667 98.997 77.906 98.5868C77.7369 98.4363 77.8518 97.61 78.0903 97.437C78.712 96.9859 79.4556 96.5101 80.1846 96.4497C80.9242 96.3884 81.6178 96.9696 81.7776 97.7928C81.8805 98.323 81.7139 98.9001 81.7753 99.4443C81.8496 100.104 82.0369 100.75 82.2314 101.667C81.821 102.315 81.3103 102.427 80.3166 101.905C80.1303 101.807 79.7891 101.864 79.5812 101.97C78.9737 102.279 78.3538 102.468 77.8977 101.839C77.4666 101.245 77.4358 100.531 77.9834 99.9667C78.389 99.5484 78.9465 99.2757 79.3518 98.8572C79.6124 98.5881 79.7199 98.1722 79.8565 97.7609ZM79.2332 100.871C79.4457 100.847 79.8038 100.882 79.8441 100.786C79.976 100.472 79.9922 100.109 80.0924 99.5406C79.5863 99.8224 79.3519 99.9529 78.9988 100.018C78.4476 99.6963 78.165 100.051 78.1858 100.488C78.2082 100.955 78.4414 101.423 78.6592 101.853C78.6815 101.897 79.2271 101.679 79.4621 101.604C79.2847 101.225 79.1913 101.026 79.2332 100.871ZM80.436 97.9122C80.3411 98.2996 80.1879 98.6837 80.1653 99.0752C80.1336 99.6248 80.1207 100.199 80.2479 100.727C80.3467 101.137 80.6137 101.556 80.925 101.843C81.0539 101.962 81.4936 101.747 81.5997 101.725C81.5175 100.898 81.4462 100.257 81.3917 99.6153C81.3318 98.9085 81.3273 98.1936 81.2074 97.4977C81.1783 97.3286 80.7916 97.2205 80.5693 97.0844C80.5253 97.3118 80.4813 97.5392 80.436 97.9122Z" fill="#ABABAB"/>
<path d="M72.7367 100.582C72.6609 99.558 72.584 98.6109 72.4975 97.5438C72.1919 97.6745 72.0138 97.7716 71.8234 97.827C71.5597 97.9037 71.2866 97.9491 71.0176 98.0078C71.0408 97.5943 71.0051 97.164 71.117 96.7758C71.16 96.6262 71.5865 96.4366 71.7566 96.4962C73.1445 96.982 74.5054 96.9034 76.0635 96.3555C76.1225 96.8137 76.2841 97.2576 76.202 97.6512C76.1133 98.0761 75.7771 98.3506 75.2876 97.9598C75.1184 97.8248 74.8887 97.7647 74.6867 97.6704C74.594 97.9196 74.4142 98.1721 74.4235 98.4175C74.4669 99.5683 74.5624 100.717 74.6469 101.98C73.9575 101.98 73.0615 101.98 71.9647 101.98C72.2714 101.454 72.5036 101.056 72.7367 100.582ZM73.3792 101.39C73.5686 101.25 73.9167 101.116 73.9222 100.969C73.9667 99.7697 73.9472 98.5683 73.9472 97.0542C73.558 97.3569 73.1325 97.5328 73.1298 97.7149C73.1121 98.9185 73.1852 100.123 73.3792 101.39Z" fill="#9F9F9F"/>
<path d="M52.9846 101.678C52.5752 101.386 52.0421 101.177 51.7777 100.787C50.5402 98.9629 50.7639 95.755 53.2606 94.7301C54.1371 94.3702 55.2799 94.5301 56.2742 94.6587C56.5339 94.6923 56.7251 95.4884 56.8744 95.9574C56.9115 96.0738 56.6886 96.3781 56.5374 96.4183C56.3818 96.4597 56.1232 96.3286 55.9878 96.1948C55.5854 95.7971 55.4989 94.9213 54.6076 95.2972C53.7293 95.6677 53.2903 96.4336 53.3072 97.3016C53.3303 98.494 53.5614 99.6824 53.636 100.943C51.8017 99.04 52.7811 97.062 53.6935 95.0368C51.9696 95.648 50.9094 98.1944 51.6802 99.7666C52.016 100.452 52.5439 101.044 52.9846 101.678Z" fill="#ABABAB"/>
<path d="M64.8045 101.934C64.129 101.963 63.4535 101.992 62.7043 101.968C62.6045 101.801 62.5785 101.689 62.5664 101.539C62.5803 101.501 62.6094 101.426 62.6652 101.414C62.7978 101.282 62.8746 101.161 62.9675 100.959C63.0105 100.004 63.0375 99.1296 63.0878 98.1829C62.9819 97.7022 62.8526 97.2938 62.7556 96.8385C62.8596 96.5739 62.9314 96.3563 63.0029 96.0734C62.9292 95.858 62.8556 95.7079 62.7731 95.4823C63.3555 94.5965 64.0882 95.1853 64.7791 95.0556C64.6434 95.5452 64.4723 95.8884 64.4656 96.2347C64.4381 97.6583 64.4453 99.0833 64.4798 100.507C64.4855 100.746 64.6885 100.981 64.8042 101.29C64.8068 101.552 64.8057 101.743 64.8045 101.934Z" fill="#838284"/>
<path d="M49.1313 101.085C49.2093 101.213 49.2873 101.341 49.3368 101.582C48.428 101.81 47.5476 101.923 46.75 102.026C46.8893 100.994 47.006 100.193 47.1032 99.3894C47.1861 98.7042 46.9512 98.3686 46.1709 98.3739C45.4136 98.379 45.1558 98.6697 45.2107 99.3775C45.2295 99.6187 45.1561 99.8669 45.0654 100.078C44.9731 98.6223 44.936 97.2014 44.9194 95.7803C44.9186 95.7052 45.0919 95.6281 45.204 95.5702C45.2238 95.5885 45.2631 95.6254 45.253 95.6825C45.249 95.8163 45.2551 95.893 45.25 96.048C45.2492 96.4421 45.2595 96.7578 45.2521 97.1417C45.4238 97.3958 45.6134 97.5818 45.8748 97.7823C46.92 97.8683 47.2095 97.3485 47.086 96.4831C47.0514 96.2413 46.9891 96.0035 46.9287 95.7003C46.5335 95.1939 46.4753 94.864 47.2139 94.8436C47.7141 94.8298 48.2322 94.7633 48.7082 94.8704C48.9463 94.924 49.108 95.3135 49.3042 95.551C49.1796 95.7634 49.0551 95.9759 48.8902 96.322C48.8351 97.7726 48.8045 99.0896 48.8204 100.406C48.8231 100.634 49.0227 100.859 49.1313 101.085ZM47.6427 95.2117C47.551 95.2786 47.3761 95.351 47.38 95.4117C47.4568 96.5832 47.5613 97.7528 47.6423 98.924C47.6592 99.1676 47.6142 99.4172 47.5823 99.6621C47.504 100.261 47.4167 100.86 47.3225 101.534C47.7932 101.453 48.1728 101.387 48.5419 101.324C48.5419 99.2511 48.5419 97.2583 48.5419 95.2035C48.3483 95.2035 48.0717 95.2035 47.6427 95.2117Z" fill="#9F9F9F"/>
<path d="M117.965 95.4619C118.532 95.3188 119.158 95.216 119.795 95.1113C119.683 96.417 119.567 97.5884 119.495 98.7624C119.484 98.9385 119.697 99.1188 119.765 99.3116C119.849 99.5477 119.932 99.7976 119.939 100.044C119.953 100.498 119.938 100.957 119.877 101.406C119.86 101.526 119.632 101.618 119.405 101.77C119.061 101.828 118.813 101.84 118.509 101.808C118.334 101.566 118.215 101.366 118.097 101.167C118.162 99.4359 118.234 97.705 118.279 95.9733C118.283 95.8186 118.113 95.6595 117.965 95.4619Z" fill="#7A7B7A"/>
<path d="M59.3423 101.012C59.3606 99.3207 59.3789 97.6298 59.4361 95.8159C59.5519 95.5304 59.6331 95.2264 59.7051 95.2285C60.2114 95.2437 60.7158 95.3218 61.1738 95.4165C61.1118 95.5664 61.0969 95.6797 61.0738 95.792C61.0657 95.7909 61.0577 95.7766 60.9818 95.7894C60.8542 97.0106 60.7781 98.219 60.7806 99.4273C60.7809 99.5856 61.1842 99.7432 61.399 99.9443C61.3971 99.9876 61.3783 100.072 61.3429 100.094C61.2659 100.157 61.2419 100.206 61.2246 100.301C61.2138 100.338 61.2028 100.416 61.1402 100.434C61.0699 100.701 61.0623 100.951 61.0477 101.259C60.9191 101.464 60.7975 101.61 60.5969 101.756C60.2544 101.755 59.9909 101.753 59.694 101.705C59.5588 101.508 59.457 101.357 59.36 101.158C59.3572 101.076 59.3497 101.044 59.3423 101.012Z" fill="#7A7B7A"/>
<path d="M114.728 101.985C113.298 102.037 111.868 102.089 110.404 102.205C110.37 102.27 110.371 102.282 110.315 102.304C110.199 102.457 110.14 102.588 110.081 102.72C110.081 102.72 110.046 102.79 109.959 102.835C109.624 102.87 109.377 102.86 109.129 102.849C109.134 102.5 109.139 102.15 109.205 101.7C110.038 101.03 110.646 100.371 110.531 99.3153C110.553 99.1798 110.575 99.0444 110.592 98.8402C110.846 97.5256 111.371 96.2685 110.239 94.8379C111.155 94.9263 111.866 94.9948 112.576 95.0634C111.501 95.3044 111.577 96.0508 111.543 96.8522C111.498 97.901 111.305 98.9468 111.126 99.9854C111.032 100.527 110.859 101.062 111.521 101.344C112.238 101.648 113.198 101.336 113.609 100.729C113.71 100.976 113.71 101.231 113.71 101.357C114.098 101.597 114.413 101.791 114.728 101.985Z" fill="#9F9F9F"/>
<path d="M45.1246 100.111C45.1559 99.8661 45.2293 99.6179 45.2106 99.3768C45.1556 98.669 45.4135 98.3783 46.1708 98.3731C46.951 98.3678 47.186 98.7034 47.1031 99.3886C47.0059 100.192 46.8892 100.993 46.7498 102.025C47.5474 101.922 48.4278 101.809 49.3562 101.634C49.4931 101.67 49.5819 101.768 49.6707 101.865C49.4837 102.014 49.2989 102.291 49.1095 102.294C47.1619 102.326 45.2132 102.332 43.2662 102.288C43.0444 102.283 42.7186 101.954 42.6515 101.716C42.6037 101.547 42.9092 101.279 43.1178 101.142C43.2912 101.469 43.3852 101.903 43.5197 101.916C44.2421 101.984 44.9746 101.948 45.7037 101.948C45.8222 101.777 45.9407 101.605 46.0592 101.433C45.7942 101.345 45.5291 101.257 45.2404 101.096C45.1861 100.72 45.1554 100.415 45.1246 100.111Z" fill="#E5E5E5"/>
<path d="M25.1979 101.098C25.4421 101.313 25.6862 101.527 25.9304 101.742C25.688 101.876 25.4579 102.089 25.2007 102.129C24.5891 102.224 23.9633 102.282 23.3461 102.263C23.0697 102.255 22.7291 102.085 22.5562 101.876C22.4658 101.766 22.6715 101.41 22.7506 101.168C22.8903 100.74 23.134 100.318 23.1588 99.8839C23.2193 98.8293 23.2001 97.7684 23.1666 96.7115C23.1566 96.3937 23.0533 96.0453 22.8892 95.7726C22.5065 95.1362 22.6689 94.7212 23.4043 94.6387C23.9592 94.5764 24.5182 94.4849 25.0718 94.5047C25.3286 94.5139 25.6585 94.7028 25.8004 94.9134C25.8964 95.0558 25.7412 95.3844 25.6647 95.6188C25.5367 96.011 25.2747 96.39 25.2576 96.7826C25.1982 98.1492 25.2197 99.5193 25.1204 100.949C24.8073 99.0468 24.6293 97.086 25.1984 95.1134C24.6111 95.1134 23.9083 95.1134 23.3143 95.1134C23.6499 97.3587 23.7048 99.5051 23.2441 101.767C23.7266 101.767 24.1913 101.736 24.6499 101.775C25.211 101.823 25.2943 101.547 25.1979 101.098Z" fill="#CDCDCD"/>
<path d="M33.5526 101.008C33.7701 101.298 33.9875 101.589 34.205 101.879C33.858 101.995 33.5121 102.209 33.164 102.212C31.6071 102.228 30.0493 102.194 28.4924 102.154C28.0551 102.143 27.6198 102.054 27.4077 102.028C27.6345 100.827 27.8189 99.8496 28.1101 98.886C28.2169 99.8312 28.2169 100.763 28.2169 101.689C28.6676 101.689 29.2962 101.689 30.1661 101.689C29.8767 101.348 29.7336 101.18 29.5895 100.925C29.5853 100.087 29.5821 99.3345 29.6446 98.555C30.3798 98.5141 31.0773 98.3832 31.7075 98.5328C32.0581 98.616 31.8603 100.65 31.4972 100.961C31.4789 100.377 31.5034 99.8784 31.4574 99.3864C31.4379 99.1779 31.2838 98.8219 31.1678 98.8124C30.8196 98.7841 30.1713 98.8454 30.1526 98.9568C30.0442 99.6025 29.9127 100.332 30.118 100.919C30.3435 101.564 30.9944 101.324 31.494 101.14C31.6244 101.402 31.7412 101.731 31.8939 101.749C32.4575 101.813 33.033 101.774 33.7103 101.774C33.6024 101.463 33.537 101.275 33.4919 101.067C33.5121 101.047 33.5526 101.008 33.5526 101.008Z" fill="#CDCDCD"/>
<path d="M11.9158 101.711C11.0672 100.945 10.2754 100.2 9.50292 99.4356C9.07962 99.0167 9.19121 98.5974 9.5805 98.2127C10.1999 97.6005 10.7957 96.961 11.4555 96.3953C11.6361 96.2405 12.0093 96.308 12.294 96.2734C12.2535 96.523 12.3035 96.8684 12.1568 97.0056C11.5238 97.5975 10.8331 98.1285 10.1574 98.6866C10.9617 99.4997 11.5256 100.068 12.0873 100.638C12.4836 101.041 12.6304 101.422 11.9158 101.711Z" fill="#AEAEAF"/>
<path d="M135.407 101.653C134.548 101.45 134.766 101.009 135.16 100.598C135.524 100.217 135.93 99.8703 136.349 99.5482C137.035 99.0199 136.826 98.5885 136.265 98.1371C135.853 97.8052 135.437 97.4663 135.09 97.0718C134.942 96.903 134.965 96.585 134.91 96.3348C135.19 96.3526 135.571 96.2603 135.733 96.407C136.469 97.0702 137.173 97.7765 137.816 98.5281C137.947 98.6809 137.876 99.1935 137.712 99.3735C137 100.158 136.219 100.881 135.407 101.653Z" fill="#ABABAB"/>
<path d="M7.50278 98.1848C8.10285 97.586 8.62998 97.006 9.21826 96.4958C9.39638 96.3413 9.74379 96.3799 10.0137 96.3301C9.94949 96.5953 9.96163 96.9218 9.80595 97.1135C9.43412 97.5714 8.98498 97.9676 8.56365 98.3852C8.18563 98.7599 8.12006 99.0797 8.60312 99.4605C9.09108 99.845 9.54243 100.289 9.94465 100.761C10.0932 100.936 10.0561 101.266 10.1037 101.526C9.81085 101.488 9.42777 101.552 9.24164 101.392C8.60936 100.846 8.04161 100.225 7.459 99.6231C7.01784 99.1675 6.8045 98.697 7.50278 98.1848Z" fill="#AEAEAF"/>
<path d="M53.043 101.712C52.5435 101.042 52.0157 100.45 51.6798 99.7649C50.9091 98.1928 51.9693 95.6464 53.6931 95.0352C52.7807 97.0604 51.8014 99.0384 53.634 101.016C53.6998 101.02 53.7352 101.068 53.7219 101.174C53.6365 101.477 53.5644 101.675 53.4923 101.872C53.3621 101.83 53.2319 101.789 53.043 101.712Z" fill="#767676"/>
<path d="M132.729 101.456C133.098 100.838 133.441 100.232 133.901 99.7323C134.735 98.8273 134.766 98.852 133.876 97.9922C133.541 97.6678 133.153 97.3862 132.872 97.0222C132.74 96.8527 132.806 96.533 132.782 96.2815C133.036 96.3031 133.382 96.2269 133.53 96.3632C134.191 96.975 134.834 97.6165 135.398 98.3155C135.58 98.5406 135.662 99.1011 135.511 99.2911C134.898 100.067 134.196 100.778 133.48 101.465C133.347 101.593 133.003 101.504 132.729 101.456Z" fill="#AEAEAF"/>
<path d="M19.0814 108.915C19.1592 109.791 18.8018 110.092 17.9897 110.063C17.2781 110.037 16.878 109.862 16.892 109.059C16.904 108.369 16.9884 107.823 17.8369 107.763C18.6266 107.707 19.1062 107.98 19.0814 108.915Z" fill="#45846F"/>
<path d="M62.782 95.5581C62.8555 95.7082 62.9291 95.8583 62.9379 96.0982C62.7634 96.4196 62.6534 96.6512 62.4976 96.9269C62.2277 97.4374 62.0037 97.9038 61.7734 98.4115C61.767 98.4529 61.7542 98.5352 61.697 98.5555C61.4535 98.6268 61.2671 98.678 61.0811 98.6573C61.0735 97.6491 61.0655 96.7128 61.0575 95.7766C61.0575 95.7766 61.0655 95.7908 61.1298 95.7792C61.2778 95.6482 61.3613 95.5288 61.4753 95.348C61.4172 95.1375 61.3364 94.8652 61.2389 94.8591C60.5929 94.8192 59.9392 94.7965 59.2974 94.8605C59.1164 94.8785 58.9664 95.205 58.8023 95.39C58.6882 95.2533 58.5741 95.1167 58.46 94.9801C58.6962 94.8077 58.9326 94.4882 59.1688 94.4883C60.1836 94.4888 61.1983 94.5832 62.2676 94.7072C62.0878 95.2574 62.2114 95.5369 62.782 95.5581Z" fill="#EDEDED"/>
<path d="M120.621 102.12C120.532 101.955 120.562 101.793 120.519 101.653C120.4 101.261 120.04 100.796 120.154 100.506C120.468 99.6975 120.975 98.9629 121.405 98.1992C121.519 98.2215 121.634 98.2437 121.748 98.266C121.748 99.1372 121.748 100.008 121.739 101C121.73 101.121 121.687 101.186 121.687 101.186C121.432 101.281 121.176 101.377 120.921 101.473C121.028 101.634 121.135 101.796 121.242 101.957C122.063 101.957 122.884 101.972 123.704 101.939C123.81 101.935 123.905 101.68 124.022 101.462C124.193 101.573 124.346 101.764 124.498 101.955C124.26 102.079 124.02 102.313 123.785 102.309C122.758 102.288 121.733 102.198 120.621 102.12Z" fill="#EDEDED"/>
<path d="M33.594 108.628C33.5926 109.395 33.7059 110.14 32.5876 110.053C32.0206 110.009 31.4651 110.035 31.4761 109.27C31.4838 108.744 31.2674 108.054 32.0701 107.898C32.6924 107.776 33.434 107.549 33.594 108.628Z" fill="#45846F"/>
<path d="M107.211 94.9346C105.821 95.0049 104.417 95.0049 102.972 95.0049C103.879 96.9579 103.306 98.9216 103.437 100.832C103.46 101.165 103.292 101.512 103.232 101.917C103.032 101.996 102.81 102.009 102.589 102.022C102.588 101.785 102.486 101.421 102.601 101.33C103.269 100.805 103.051 100.097 103.068 99.4424C103.088 98.6658 103.127 97.8834 103.055 97.1129C103.007 96.59 102.711 96.0898 102.662 95.5668C102.63 95.2222 102.851 94.5415 102.937 94.5449C104.359 94.6012 105.777 94.7422 107.211 94.9346Z" fill="#CDCDCD"/>
<path d="M29.0018 107.887C30.0732 107.827 30.0756 108.486 30.0429 109.193C30.0054 110.005 29.443 110.008 28.846 110.02C28.0722 110.037 27.9034 109.566 27.8793 108.933C27.8515 108.2 28.1283 107.791 29.0018 107.887Z" fill="#357A62"/>
<path d="M126.541 108.216C127.128 108.094 127.696 107.945 128.23 108.024C128.393 108.048 128.513 108.691 128.563 109.063C128.664 109.808 128.23 110.012 127.548 110.033C126.855 110.054 126.459 109.826 126.45 109.108C126.447 108.831 126.488 108.554 126.541 108.216Z" fill="#357A62"/>
<path d="M80.4525 107.907C81.5205 107.803 81.4305 108.487 81.4286 109.121C81.4264 109.881 80.9623 110.005 80.3182 110.035C79.3727 110.08 79.3741 109.466 79.3346 108.82C79.2878 108.052 79.7008 107.838 80.4525 107.907Z" fill="#357A62"/>
<path d="M97.5992 108.465C98.0179 107.596 98.8077 107.745 99.3041 108.022C99.6157 108.196 99.7156 108.983 99.6588 109.465C99.633 109.685 98.9911 109.988 98.6423 109.972C98.2957 109.955 97.9045 109.638 97.6528 109.349C97.5085 109.183 97.6029 108.812 97.5992 108.465Z" fill="#357A62"/>
<path d="M74.1886 109.448C73.7881 110.142 73.1399 110.171 72.6241 109.916C72.3308 109.771 72.1904 109.196 72.1057 108.789C71.9969 108.266 72.1968 107.883 72.8397 107.889C73.4398 107.894 74.0728 107.82 74.1871 108.648C74.2205 108.891 74.2011 109.141 74.1886 109.448Z" fill="#357A62"/>
<path d="M90.1902 95.7351C90.28 95.5961 90.3697 95.4572 90.5171 95.2085C89.8659 95.0147 89.1581 94.892 88.4477 94.875C88.2822 94.871 88.1081 95.2264 87.9379 95.4165C87.5922 95.5977 87.301 95.5518 87.5237 95.1244C87.6731 94.8374 88.0599 94.5389 88.3739 94.4977C89.0838 94.4046 89.8166 94.4363 90.5351 94.487C90.7403 94.5016 90.9284 94.7558 91.1301 94.9043C91.4329 94.5362 93.3345 94.1773 93.7336 94.5791C93.9003 94.7469 93.7573 95.2191 93.6935 95.4785C93.4163 94.7227 92.3774 94.5822 91.5933 95.1686C91.541 95.6268 91.3895 96.0391 91.2314 96.4488C91.1547 96.6475 91.0653 96.8413 90.9817 97.0374C90.9817 97.0374 90.974 97.0499 90.9106 97.0893C90.6462 97.0302 90.313 96.9699 90.2706 96.8253C90.1703 96.4832 90.2082 96.1011 90.1902 95.7351Z" fill="#E5E5E5"/>
<path d="M58.0377 109.986C57.8477 109.402 57.6447 108.836 57.6536 108.273C57.6557 108.139 58.3585 107.958 58.7539 107.902C59.4887 107.797 59.629 108.259 59.6342 108.882C59.6395 109.52 59.5412 110.011 58.7587 110.014C58.5399 110.015 58.3211 110.008 58.0377 109.986Z" fill="#357A62"/>
<path d="M54.013 109.183C53.9329 108.323 54.0505 107.744 55.0843 107.876C55.5729 107.939 56.0842 107.892 56.0361 108.577C55.9986 109.11 56.3248 109.883 55.4151 109.982C54.8495 110.045 54.08 110.255 54.013 109.183Z" fill="#357A62"/>
<path d="M11.9139 108.608C11.8794 109.95 11.7542 110.101 10.8168 109.985C10.3131 109.923 9.72465 109.881 9.82408 109.176C9.88547 108.74 10.068 108.046 10.3356 107.973C10.8706 107.827 11.6904 107.55 11.9139 108.608Z" fill="#357A62"/>
<path d="M75.6953 108.606C75.9365 107.983 77.1196 107.544 77.3925 107.987C77.6673 108.433 77.7511 109.228 77.5222 109.664C77.3782 109.939 76.4888 109.931 75.9694 109.843C75.8153 109.817 75.7819 109.087 75.6953 108.606Z" fill="#357A62"/>
<path d="M139.124 109.179C138.831 109.505 138.564 109.927 138.244 109.971C137.888 110.02 137.256 109.817 137.153 109.561C136.987 109.149 136.983 108.459 137.236 108.157C137.476 107.87 138.22 107.737 138.583 107.896C138.885 108.029 138.954 108.684 139.124 109.179Z" fill="#357A62"/>
<path d="M116.818 110.019C115.668 110.101 115.762 109.352 115.742 108.65C115.722 107.911 116.186 107.893 116.733 107.893C117.305 107.892 117.84 107.888 117.81 108.674C117.785 109.309 117.942 110.077 116.818 110.019Z" fill="#357A62"/>
<path d="M131.926 109.179C131.885 109.826 131.566 110.134 131.006 110C130.634 109.911 130.068 109.704 130.008 109.451C129.9 108.998 129.945 108.303 130.233 108.025C130.482 107.785 131.21 107.865 131.625 108.04C131.839 108.13 131.833 108.735 131.926 109.179Z" fill="#357A62"/>
<path d="M47.7968 107.988C48.424 109.276 48.0941 110.044 47.0337 110.021C46.1617 110.002 46.0562 109.514 46.0466 108.795C46.0361 108.008 46.4155 107.817 47.0901 107.883C47.3066 107.905 47.5232 107.925 47.7968 107.988Z" fill="#357A62"/>
<path d="M123.617 109.944C122.703 109.557 122.847 108.767 123.154 108.287C123.35 107.978 124.15 107.901 124.629 107.989C124.831 108.026 125.012 108.757 125.001 109.168C124.994 109.445 124.677 109.774 124.414 109.961C124.254 110.075 123.932 109.965 123.617 109.944Z" fill="#357A62"/>
<path d="M62.7732 95.4829C62.2115 95.5372 62.088 95.2577 62.3477 94.7109C63.152 94.6476 63.9335 94.6082 64.7084 94.6621C64.9723 94.6804 65.2706 94.8915 65.447 95.1024C65.5092 95.1767 65.2518 95.5118 65.1455 95.7304C65.0561 95.9141 64.8987 96.1025 64.9011 96.2872C64.922 97.8635 64.9724 99.4395 64.9649 101.11C64.8774 101.209 64.839 101.214 64.8005 101.219C64.6886 100.982 64.4856 100.747 64.4798 100.507C64.4454 99.0839 64.4382 97.659 64.4657 96.2354C64.4724 95.8891 64.6435 95.5459 64.7792 95.0562C64.0883 95.1859 63.3556 94.5972 62.7732 95.4829Z" fill="#CDCDCD"/>
<path d="M28.1738 95.979C27.8381 95.7686 27.5023 95.5582 27.1729 95.3518C27.7703 94.2434 29.9094 94.1149 30.5452 94.8565C31.1765 94.7646 31.6386 94.6689 32.1052 94.6374C32.5715 94.6058 33.0529 94.5808 33.5067 94.6648C33.7713 94.7137 33.9948 94.982 34.2368 95.1517C34.0515 95.3526 33.8661 95.5535 33.5909 95.7447C33.501 95.735 33.4541 95.6897 33.4872 95.6313C33.4839 95.3893 33.4585 95.0495 33.4095 95.0461C32.8619 95.0079 32.3071 94.9881 31.7634 95.0473C31.6431 95.0604 31.5588 95.4017 31.3886 95.5929C30.8744 95.5962 30.4296 95.5984 29.9775 95.5294C29.8392 95.3187 29.7081 95.1791 29.505 95.0398C29.0938 95.0775 28.7472 95.0865 28.4204 95.1711C28.3314 95.1941 28.3019 95.4446 28.2413 95.6573C28.2164 95.8089 28.1951 95.8939 28.1738 95.979Z" fill="#CDCDCD"/>
<path d="M45.264 101.169C45.5291 101.257 45.7941 101.345 46.0591 101.433C45.9406 101.604 45.8221 101.776 45.7036 101.948C44.9746 101.948 44.2421 101.984 43.5196 101.915C43.3851 101.902 43.2911 101.468 43.1883 101.153C43.1981 101.077 43.1943 101.067 43.2692 101.042C43.4134 100.856 43.543 100.694 43.5427 100.533C43.5397 99.1297 43.5134 97.7269 43.494 96.3241C43.498 96.2459 43.5019 96.1678 43.5033 95.9636C43.3863 95.6025 43.2717 95.3675 43.0278 94.8672C43.9347 94.8672 44.6763 94.8362 45.4102 94.8974C45.5342 94.9078 45.6248 95.3155 45.6967 95.5475C45.6627 95.5553 45.5985 95.5827 45.5418 95.582C45.411 95.5956 45.337 95.6097 45.2629 95.6239C45.2629 95.6239 45.2236 95.587 45.1993 95.4989C44.7267 95.3257 44.2784 95.2406 43.8243 95.1544C43.8243 97.3831 43.8243 99.4237 43.8243 101.749C44.3539 101.536 44.809 101.352 45.264 101.169Z" fill="#9F9F9F"/>
<path d="M121.49 94.5933C121.159 94.9457 121.058 95.2256 121.455 95.6373C121.609 95.7974 121.646 96.2274 121.544 96.4461C121.182 97.2243 120.737 97.9645 120.2 98.6959C120.115 97.6278 119.726 96.5784 120.326 95.5333C120.44 95.3344 120.385 95.0394 120.398 94.7237C120.741 94.6211 121.094 94.5836 121.49 94.5933Z" fill="#EDEDED"/>
<path d="M45.7308 95.5405C45.6248 95.3163 45.5343 94.9086 45.4102 94.8983C44.6764 94.837 43.9347 94.8681 43.0279 94.8681C43.2717 95.3683 43.3863 95.6034 43.4914 95.9068C43.118 95.7879 42.754 95.6006 42.4058 95.4215C42.6109 94.6333 43.0212 94.4355 43.6747 94.4499C45.3709 94.4874 47.0686 94.4494 48.7654 94.4693C49.567 94.4787 49.7869 94.8568 49.3716 95.541C49.1078 95.3128 48.9461 94.9233 48.708 94.8698C48.232 94.7627 47.7139 94.8292 47.2137 94.8429C46.4751 94.8633 46.5333 95.1932 46.8516 95.7006C46.4339 95.6902 46.0824 95.6153 45.7308 95.5405Z" fill="#E5E5E5"/>
<path d="M101.096 109.194C101.104 107.885 101.492 107.503 102.659 107.765C102.937 107.827 103.294 108.332 103.296 108.635C103.299 109.112 103.174 109.767 102.846 110.029C102.29 110.474 101.372 109.995 101.096 109.194ZM101.699 108.635C101.807 108.918 101.854 109.258 102.047 109.461C102.15 109.57 102.602 109.531 102.722 109.4C102.875 109.233 102.966 108.86 102.883 108.656C102.641 108.063 102.184 108.239 101.699 108.635Z" fill="#6BA18F"/>
<path d="M106.955 109.351C106.621 110.079 105.703 110.357 105.111 109.985C104.609 109.669 104.466 108.562 104.862 108.057C105.185 107.645 106.418 107.514 106.717 107.963C106.944 108.304 106.889 108.83 106.955 109.351ZM105.969 108.282C105.686 108.428 105.327 108.516 105.154 108.744C105.071 108.853 105.288 109.392 105.458 109.442C105.738 109.526 106.09 109.37 106.411 109.315C106.321 108.976 106.23 108.637 105.969 108.282Z" fill="#6BA18F"/>
<path d="M35.4635 110.02C35.2632 109.526 35.0168 109.067 35.0147 108.608C35.0115 107.949 35.4501 107.673 36.14 107.68C36.839 107.687 37.2854 107.899 37.3669 108.634C37.5085 109.914 37.1616 110.182 35.4635 110.02ZM35.4311 108.789C35.3371 109.539 35.7878 109.773 36.3812 109.589C36.6313 109.512 36.7951 109.053 36.9163 108.736C36.95 108.648 36.6741 108.313 36.5695 108.326C36.1872 108.373 35.8174 108.519 35.4311 108.789Z" fill="#6BA18F"/>
<path d="M96.0291 107.814C96.1222 108.34 96.237 108.798 96.2264 109.252C96.2136 109.8 95.9578 110.218 95.307 110.179C94.7172 110.144 93.9146 110.431 93.7308 109.597C93.5951 108.982 93.3268 108.093 94.1026 107.756C94.634 107.525 95.3576 107.732 96.0291 107.814ZM94.7356 109.794C95.2695 109.801 95.8022 109.751 95.7401 109.041C95.7131 108.733 95.5119 108.205 95.3492 108.189C94.9451 108.15 94.2907 108.224 94.1514 108.478C93.9292 108.883 93.879 109.53 94.7356 109.794Z" fill="#A8CFC2"/>
<path d="M26.6183 108.328C26.8305 109.984 26.6947 110.169 25.4741 110.194C24.8206 110.207 24.1992 110.152 24.2259 109.347C24.2446 108.782 24.3411 107.899 24.681 107.738C25.27 107.458 26.1763 107.297 26.6183 108.328ZM25.7097 109.687C26.4499 109.609 26.2432 109.033 26.2088 108.626C26.1936 108.446 25.8904 108.162 25.7021 108.149C25.2295 108.115 24.5945 107.881 24.5074 108.726C24.4258 109.516 24.7886 109.799 25.7097 109.687Z" fill="#A8CFC2"/>
<path d="M88.5371 110.026C88.1981 110.096 87.9095 110.182 87.6476 110.131C87.2782 110.06 86.654 109.935 86.6214 109.75C86.5196 109.169 86.5013 108.482 86.7416 107.972C86.8606 107.719 87.6299 107.657 88.08 107.712C88.3665 107.747 88.8011 108.135 88.8271 108.399C88.8779 108.914 88.6891 109.453 88.5371 110.026ZM88.4193 109.15C88.3544 108.77 88.6345 108.174 87.9302 108.176C87.5825 108.177 87.0986 108.306 86.9307 108.55C86.7934 108.75 87.0023 109.487 87.1113 109.499C87.5306 109.544 87.9715 109.394 88.4193 109.15Z" fill="#9F9F9F"/>
<path d="M114.356 109.794C113.65 109.925 112.951 110.115 112.325 109.978C112.107 109.93 111.975 109.074 111.969 108.586C111.958 107.636 112.636 107.546 113.4 107.6C114.122 107.651 114.624 107.879 114.528 108.721C114.489 109.056 114.438 109.39 114.356 109.794ZM112.732 109.726C112.854 109.748 112.975 109.776 113.098 109.792C113.806 109.883 114.017 109.544 114.031 108.872C114.046 108.113 113.608 108.078 113.062 108.116C112.289 108.17 112.142 108.666 112.732 109.726Z" fill="#A8CFC2"/>
<path d="M108.99 107.607C110.599 107.613 110.778 107.748 110.779 108.902C110.78 110.02 110.604 110.179 109.466 110.194C108.898 110.201 108.328 110.178 108.242 109.491C108.153 108.784 107.925 107.965 108.99 107.607ZM108.692 109.125C108.702 109.889 109.251 109.84 109.752 109.782C110.38 109.71 110.409 109.228 110.385 108.735C110.355 108.105 109.899 108.138 109.45 108.107C108.799 108.061 108.628 108.397 108.692 109.125Z" fill="#A8CFC2"/>
<path d="M120.174 110.218C119.228 110.333 119.194 109.673 119.114 109.105C119.021 108.441 119.162 107.788 119.917 107.657C120.391 107.575 121.221 107.627 121.352 107.887C121.613 108.406 121.635 109.144 121.483 109.721C121.418 109.971 120.679 110.047 120.174 110.218ZM120.984 108.202C120.738 108.171 120.493 108.13 120.247 108.113C119.655 108.074 119.496 108.406 119.512 108.932C119.528 109.435 119.668 109.768 120.252 109.796C121.1 109.837 121.265 109.567 120.984 108.202Z" fill="#A8CFC2"/>
<path d="M66.105 107.61C67.4083 107.684 66.9898 108.635 67.0478 109.281C67.107 109.942 66.6765 110.258 66.0444 110.17C65.5961 110.107 64.9175 110.034 64.7837 109.755C64.5618 109.293 64.5949 108.641 64.7042 108.107C64.8525 107.381 65.5285 107.647 66.105 107.61ZM65.0301 109.438C65.5382 109.492 66.0543 109.609 66.5476 109.547C66.6441 109.534 66.8237 108.702 66.6556 108.476C66.4658 108.221 65.9205 108.115 65.5405 108.136C64.7642 108.178 65.0346 108.828 65.0301 109.438Z" fill="#A8CFC2"/>
<path d="M6.09602 109.947C5.985 109.349 5.82562 108.792 5.89991 108.268C6.01672 107.443 6.74698 107.623 7.31765 107.61C7.98624 107.595 8.36561 107.941 8.44129 108.59C8.60867 110.024 7.76745 110.539 6.09602 109.947ZM7.74861 108.193C7.56729 108.167 7.3692 108.08 7.20818 108.125C6.8828 108.216 6.42326 108.3 6.30457 108.532C6.16824 108.798 6.21337 109.367 6.41192 109.539C6.66225 109.755 7.41866 109.853 7.48276 109.739C7.71733 109.322 7.75509 108.795 7.74861 108.193Z" fill="#A8CFC2"/>
<path d="M14.4955 110.184C13.5133 110.282 13.1521 109.865 13.2035 108.984C13.2455 108.265 13.2387 107.572 14.2676 107.598C14.9553 107.616 15.6086 107.57 15.6424 108.552C15.6869 109.841 15.5733 110.06 14.4955 110.184ZM13.5928 108.815C13.5548 109.349 13.674 109.808 14.3344 109.681C14.6684 109.616 15.1426 109.397 15.223 109.144C15.3082 108.876 15.0703 108.261 14.8511 108.194C14.422 108.063 13.7508 107.819 13.5928 108.815Z" fill="#A8CFC2"/>
<path d="M134.391 110.144C133.196 110.02 133.472 109.177 133.504 108.512C133.552 107.484 134.344 107.619 135.016 107.665C135.84 107.72 135.736 108.401 135.757 108.923C135.79 109.774 135.421 110.284 134.391 110.144ZM135.327 108.65C135.144 107.928 134.551 108.057 134.133 108.226C133.929 108.308 133.763 108.876 133.844 109.148C133.912 109.378 134.343 109.6 134.641 109.645C135.236 109.734 135.362 109.308 135.327 108.65Z" fill="#9F9F9F"/>
<path d="M105.935 98.7324C106.041 98.8325 106.147 98.9327 106.219 99.1222C106.249 99.9145 106.637 99.6855 107.011 99.4966C107.262 99.5908 107.513 99.6851 107.701 99.8397C106.943 99.9513 106.662 100.368 106.606 101.029C106.57 101.044 106.499 101.078 106.428 101.069C105.94 101.058 105.523 101.055 105.106 101.053C105.092 100.333 105.078 99.6129 105.161 98.8184C105.484 98.74 105.71 98.7362 105.935 98.7324Z" fill="#F9F9F9"/>
<path d="M28.1821 96.054C28.1949 95.8937 28.2162 95.8086 28.3181 95.6699C28.4783 95.922 28.6222 96.2269 28.6266 96.5337C28.6499 98.1203 28.6374 99.7074 28.6374 101.483C28.9672 101.319 29.2787 101.165 29.5902 101.01C29.7333 101.179 29.8763 101.347 30.1657 101.688C29.2958 101.688 28.6672 101.688 28.2166 101.688C28.2166 100.762 28.2166 99.8302 28.1718 98.8382C28.1482 97.8953 28.1694 97.0123 28.1821 96.054Z" fill="#898989"/>
<path d="M40.7323 110.104C40.4444 110.143 40.2276 110.161 40.0107 110.161C38.9518 110.164 38.7416 109.886 38.82 108.602C38.8709 107.767 39.2139 107.534 40.2366 107.639C40.9571 107.712 41.312 108.267 41.1486 109.147C41.0891 109.466 40.9216 109.766 40.7323 110.104ZM40.3876 108.25C40.0278 108.222 39.6679 108.195 39.3223 108.168C38.9723 109.582 39.093 109.72 40.6353 109.582C40.926 109.127 41.0829 108.682 40.3876 108.25Z" fill="#ABABAB"/>
<path d="M51.4753 107.667C51.6869 108.094 51.98 108.516 51.9271 108.888C51.8637 109.335 51.583 110.011 51.2569 110.104C50.6994 110.263 49.7757 110.515 49.5264 109.72C49.3509 109.16 49.5075 108.335 49.8387 107.843C50.0317 107.556 50.8607 107.693 51.4753 107.667ZM51.3267 109.633C51.3542 109.176 51.3817 108.719 51.4091 108.261C50.955 108.241 50.4665 108.117 50.0628 108.249C49.8878 108.306 49.7629 108.919 49.8322 109.232C50.0079 110.025 50.6478 109.81 51.3267 109.633Z" fill="#A8CFC2"/>
<path d="M92.3176 109.801C91.6536 109.914 90.7283 110.223 90.4645 109.934C90.1145 109.55 90.1159 108.659 90.2669 108.061C90.4615 107.291 91.271 107.62 91.806 107.65C92.0389 107.663 92.3834 108.084 92.435 108.363C92.5154 108.799 92.3894 109.273 92.3176 109.801ZM90.6283 109.625C91.1524 109.849 91.684 110.125 92.1069 109.263C92.0541 108.829 92.3885 108.24 91.5745 108.131C90.5023 107.988 90.2964 108.253 90.6283 109.625Z" fill="#A8CFC2"/>
<path d="M90.2833 101.183C90.2833 101.183 90.2498 101.114 90.2414 100.996C90.2593 100.387 90.2856 99.895 90.3208 99.2344C90.7122 99.6356 90.9407 99.87 91.1693 100.104C91.1693 100.104 91.1831 100.081 91.1808 100.168C91.247 100.829 91.3154 101.401 91.3839 101.973C90.347 102.403 89.2937 102.513 88.2803 102.051C88.9335 101.964 89.5232 101.981 90.109 101.942C90.2805 101.93 90.4411 101.756 90.6067 101.657C90.4989 101.499 90.3911 101.341 90.2833 101.183Z" fill="#E5E5E5"/>
<path d="M91.0415 97.08C91.0655 96.8399 91.1549 96.646 91.2316 96.4473C91.3898 96.0376 91.5412 95.6253 91.5935 95.1671C92.3776 94.5807 93.4166 94.7212 93.6208 95.4778C92.4794 95.6362 92.1236 96.6874 91.3573 97.3173C91.236 97.2695 91.1686 97.1968 91.0415 97.08Z" fill="#ABABAB"/>
<path d="M90.2595 101.259C90.3915 101.343 90.4993 101.501 90.6071 101.659C90.4415 101.758 90.281 101.932 90.1094 101.943C89.5236 101.983 88.9339 101.965 88.2576 101.982C88.1695 101.995 88.0889 101.964 88.0474 101.891C88.0787 101.562 88.1516 101.307 88.2245 101.052C88.2816 100.138 88.3391 99.2239 88.3956 98.3096C88.4147 98.0013 88.4312 97.6928 88.5026 97.3281C88.5967 98.5566 88.6384 99.8413 88.6758 101.126C88.6792 101.241 88.6544 101.357 88.6211 101.686C89.2255 101.553 89.7304 101.443 90.2595 101.259Z" fill="#ABABAB"/>
<path d="M105.682 97.7876C104.536 97.4523 105.09 96.5782 105.173 95.8207C106.131 95.5827 106.634 96.0504 107.026 96.7176C107.025 96.7508 107.023 96.7839 106.949 96.8604C106.478 97.1984 106.08 97.493 105.682 97.7876Z" fill="#F9F9F9"/>
<path d="M70.6468 108.346C70.6718 109.93 70.652 109.884 69.3791 110.034C68.6278 110.123 68.7331 109.583 68.5571 109.079C68.5725 108.671 68.5815 108.409 68.5905 108.147C68.5905 108.147 68.5869 108.142 68.6643 108.137C69.4245 107.781 70.0544 107.897 70.6468 108.346ZM69.7418 108.319C69.4862 108.457 69.1555 108.543 69.0052 108.755C68.9246 108.869 69.1104 109.359 69.2532 109.398C69.5 109.465 70.0039 109.374 70.0466 109.239C70.1279 108.981 69.9607 108.646 69.7418 108.319Z" fill="#45846F"/>
<path d="M20.6851 108.088C21.0852 107.996 21.4252 107.967 21.7643 107.93C22.515 107.848 22.8604 108.129 22.8256 108.929C22.7945 109.644 22.5698 110.04 21.7857 110.036C21.0884 110.032 20.5064 109.945 20.5331 109.063C20.5424 108.757 20.5929 108.452 20.6851 108.088ZM22.2107 109.532C22.2168 109.141 22.2228 108.75 22.2288 108.359C21.8588 108.36 21.4523 108.273 21.1349 108.402C20.9849 108.463 20.8739 109.122 20.9737 109.193C21.2781 109.41 21.6935 109.473 22.2107 109.532Z" fill="#6BA18F"/>
<path d="M42.5882 107.958C43.1092 107.161 43.9104 107.554 44.4829 107.712C44.7283 107.78 44.8417 108.725 44.8024 109.256C44.7781 109.585 44.3456 110.154 44.1118 110.146C43.5071 110.127 42.6932 110.668 42.4009 109.697C42.6563 109.708 42.8082 109.745 43.0406 109.791C43.6332 109.715 44.3661 110.08 44.4187 109.098C44.4761 108.028 44.4191 107.969 42.9341 108.03C42.7752 107.987 42.6817 107.973 42.5882 107.958Z" fill="#E5E5E5"/>
<path d="M33.5243 95.7574C33.5444 97.4648 33.5411 99.1495 33.545 100.921C33.5522 101.007 33.5118 101.047 33.4291 101.025C33.3163 99.2972 33.2841 97.5903 33.2647 95.8833C33.2639 95.8194 33.388 95.7541 33.4539 95.6895C33.4539 95.6895 33.5008 95.7347 33.5243 95.7574Z" fill="#CDCDCD"/>
<path d="M61.2681 107.975C61.8099 107.323 63.1479 107.416 63.302 108.167C63.4097 108.691 63.2201 109.276 63.0678 109.789C62.9588 109.709 62.9452 109.674 62.956 109.563C63.0739 108.107 63.0739 108.107 61.7702 108.05C61.5754 107.997 61.4217 107.986 61.2681 107.975Z" fill="#CDCDCD"/>
<path d="M24.511 92.543C25.1262 92.8804 25.0676 93.3993 24.6506 93.7466C24.4454 93.9175 23.7921 93.8611 23.5921 93.6604C23.306 93.3735 23.0596 92.8256 23.9123 92.564C24.2094 92.5559 24.3602 92.5494 24.511 92.543Z" fill="#AEAEAF"/>
<path d="M53.5195 101.908C53.5644 101.674 53.6365 101.477 53.7277 101.203C53.7468 101.126 53.8278 101.133 53.8855 101.219C54.3999 101.669 54.8489 102.106 55.4141 101.46C55.5298 101.345 55.6455 101.23 55.8652 101.059C56.157 100.835 56.3448 100.666 56.6217 100.418C56.6842 100.798 56.7229 101.034 56.7617 101.27C56.7208 101.36 56.6799 101.451 56.5207 101.569C55.5403 101.734 54.6781 101.872 53.8159 102.009C53.7262 101.988 53.6365 101.967 53.5195 101.908Z" fill="#909090"/>
<path d="M43.4233 96.3477C43.5134 97.7283 43.5397 99.1311 43.5427 100.534C43.5431 100.695 43.4134 100.857 43.2691 101.038C43.1814 99.6575 43.1621 98.2579 43.1648 96.8583C43.1651 96.6953 43.287 96.5326 43.4233 96.3477Z" fill="#E5E5E5"/>
<path d="M49.1446 100.991C49.0224 100.857 48.8228 100.632 48.8201 100.404C48.8042 99.0877 48.8348 97.7707 48.8905 96.3887C49.0123 96.5731 49.1593 96.8217 49.163 97.0723C49.1818 98.3472 49.1635 99.6226 49.1446 100.991Z" fill="#E5E5E5"/>
<path d="M83.2372 109.874C83.0955 109.382 82.8141 108.876 82.8637 108.404C82.8944 108.112 83.404 107.692 83.7403 107.648C84.2893 107.578 85.0129 107.43 85.1802 108.284C85.0091 108.318 84.9347 108.31 84.8498 108.294C84.8393 108.285 84.8264 108.261 84.8155 108.213C84.6758 108.144 84.5469 108.123 84.3417 108.108C84.0108 108.131 83.7563 108.148 83.4328 108.183C83.3502 108.73 83.3368 109.259 83.3019 109.81C83.2805 109.831 83.2372 109.874 83.2372 109.874Z" fill="#A8CFC2"/>
<path d="M61.2433 108.017C61.4215 107.986 61.5752 107.997 61.7325 108.113C61.6457 108.581 61.448 108.963 61.5114 109.297C61.5417 109.456 62.0625 109.542 62.3713 109.622C62.5473 109.668 62.744 109.636 62.9313 109.639C62.9449 109.674 62.9585 109.708 62.9968 109.794C61.4223 110.386 60.6946 109.753 60.9485 108.432C61.0515 108.313 61.0846 108.27 61.0991 108.213C61.139 108.162 61.1789 108.11 61.2433 108.017Z" fill="#6BA18F"/>
<path d="M105.117 101.119C105.523 101.054 105.94 101.057 106.409 101.126C106.272 101.468 106.083 101.744 105.893 102.02C105.178 102.042 104.462 102.063 103.692 102.033C104.008 101.914 104.378 101.802 104.751 101.789C105.237 101.774 105.359 101.607 105.117 101.119Z" fill="#CDCDCD"/>
<path d="M105.978 102.012C106.083 101.744 106.272 101.468 106.48 101.134C106.499 101.077 106.57 101.043 106.667 101.004C106.967 100.739 107.169 100.512 107.372 100.285C107.467 100.33 107.562 100.376 107.657 100.421C107.522 100.942 107.386 101.463 107.25 101.984C106.854 101.991 106.458 101.997 105.978 102.012Z" fill="#9F9F9F"/>
<path d="M14.2827 96.4876C14.6121 96.2959 14.9579 96.1072 15.322 95.9647C15.602 95.8551 15.9051 95.8036 16.209 95.6486C16.2201 95.5711 16.2642 95.5319 16.3382 95.5558C16.3974 96.0258 16.3827 96.4719 16.2943 96.9149C16.0231 96.9017 15.8256 96.8915 15.6268 96.8096C15.3219 95.8424 14.7695 96.6782 14.3546 96.5572C14.3546 96.5572 14.307 96.5105 14.2827 96.4876Z" fill="#AEAEAF"/>
<path d="M58.8545 95.4181C58.9662 95.2068 59.1161 94.8804 59.2971 94.8623C59.9389 94.7983 60.5926 94.821 61.2386 94.861C61.3361 94.867 61.4169 95.1393 61.4189 95.3426C61.295 95.3917 61.2577 95.3867 61.2204 95.3816C60.7153 95.3236 60.2109 95.2454 59.7046 95.2303C59.6326 95.2281 59.5514 95.5322 59.428 95.7295C59.2233 95.6579 59.0652 95.5511 58.8545 95.4181Z" fill="#9F9F9F"/>
<path d="M107.08 96.691C106.634 96.0522 106.132 95.5846 105.192 95.7507C105.662 95.158 106.241 95.2887 106.831 95.6773C106.972 95.7698 107.114 95.8596 107.328 95.9554C107.311 96.1942 107.222 96.4284 107.08 96.691Z" fill="#CDCDCD"/>
<path d="M119.594 94.5888C119.2 94.7022 118.735 94.7103 118.308 94.8399C118.071 94.9119 117.895 95.1866 117.734 95.4305C117.603 95.4279 117.43 95.3648 117.258 95.3017C117.429 95.0234 117.566 94.5406 117.777 94.5064C118.348 94.4138 118.95 94.5118 119.594 94.5888Z" fill="#EDEDED"/>
<path d="M107.317 101.97C107.386 101.464 107.521 100.943 107.657 100.422C107.562 100.376 107.467 100.331 107.372 100.286C107.169 100.513 106.967 100.74 106.704 100.991C106.662 100.368 106.943 99.9512 107.708 99.8984C108.111 100.671 108.039 101.368 107.317 101.97Z" fill="#CDCDCD"/>
<path d="M56.8217 101.233C56.7234 101.033 56.6846 100.797 56.6222 100.417C56.3452 100.666 56.1575 100.834 55.9141 101.021C56.0869 100.592 56.3155 100.146 56.544 99.6992C56.6994 99.7418 56.8547 99.7843 57.0101 99.8269C56.9671 100.283 56.9242 100.74 56.8217 101.233Z" fill="#ABABAB"/>
<path d="M91.4666 101.974C91.3153 101.404 91.2469 100.832 91.1753 100.184C91.4399 100.504 91.7077 100.9 91.9755 101.296C91.9182 101.356 91.8608 101.416 91.8035 101.476C92.0671 101.527 92.3306 101.578 92.6496 101.736C92.706 101.885 92.7071 101.926 92.7082 101.968C92.3219 101.97 91.9357 101.971 91.4666 101.974Z" fill="#ABABAB"/>
<path d="M53.8579 102.07C54.6783 101.873 55.5404 101.736 56.4779 101.598C56.0499 102.32 55.1119 102.509 53.8579 102.07Z" fill="#ABABAB"/>
<path d="M87.9961 95.425C88.1086 95.2245 88.2827 94.8691 88.4482 94.8731C89.1586 94.8901 89.8664 95.0128 90.5371 95.1475C89.7994 95.2421 89.0997 95.2861 88.3419 95.3966C88.2071 95.454 88.1304 95.4447 87.9961 95.425Z" fill="#ABABAB"/>
<path d="M70.652 108.267C70.0542 107.898 69.4243 107.782 68.6668 108.14C68.6187 107.193 69.352 107.663 69.7823 107.594C70.1998 107.527 70.7201 107.478 70.652 108.267Z" fill="#E5E5E5"/>
<path d="M110.473 99.3379C110.647 100.37 110.038 101.029 109.209 101.625C109.211 101.46 109.238 101.25 109.337 101.083C109.683 100.501 110.054 99.9336 110.473 99.3379Z" fill="#E5E5E5"/>
<path d="M92.7498 102.021C92.7076 101.925 92.7066 101.883 92.7056 101.778C92.7894 101.722 92.8732 101.729 93.0582 101.796C93.4301 101.869 93.7007 101.881 94.1552 101.902C93.9087 101.48 93.7755 101.252 93.6423 101.024C94.2404 100.986 94.4654 101.399 94.3425 101.836C94.2792 102.062 93.7947 102.231 93.4731 102.301C93.2721 102.345 93.02 102.158 92.7498 102.021Z" fill="#E5E5E5"/>
<path d="M62.5523 101.578C62.5783 101.69 62.6043 101.802 62.6424 101.968C62.1572 102.045 61.6601 102.067 61.1367 101.984C61.2143 101.655 61.3181 101.433 61.4859 101.217C61.8078 101.555 62.0809 101.844 62.5523 101.578Z" fill="#CDCDCD"/>
<path d="M42.96 109.783C42.808 109.745 42.6561 109.708 42.4509 109.656C42.4372 109.125 42.4768 108.61 42.5522 108.026C42.6815 107.973 42.775 107.988 42.9129 108.094C42.9582 108.718 42.9591 109.25 42.96 109.783Z" fill="#6BA18F"/>
<path d="M84.8606 108.303C84.935 108.31 85.0095 108.318 85.1403 108.328C85.1576 108.794 85.1186 109.256 84.951 109.77C84.6687 109.801 84.5151 109.779 84.395 109.699C84.5726 109.195 84.7166 108.749 84.8606 108.303Z" fill="#6BA18F"/>
<path d="M105.751 97.7989C106.08 97.4932 106.478 97.1986 106.946 96.9102C106.992 97.0712 106.969 97.2261 106.9 97.4176C106.509 97.5729 106.165 97.6915 105.751 97.7989Z" fill="#CDCDCD"/>
<path d="M118.042 101.17C118.215 101.366 118.334 101.566 118.5 101.855C118.537 102.009 118.527 102.073 118.517 102.137C118.263 102.135 118.01 102.133 117.677 102.062C117.655 101.732 117.714 101.471 117.772 101.21C117.844 101.197 117.916 101.185 118.042 101.17Z" fill="#B7B7B7"/>
<path d="M84.361 109.758C84.5147 109.779 84.6684 109.8 84.9004 109.826C84.4815 110.477 83.8903 110.216 83.2705 109.937C83.2371 109.873 83.2805 109.831 83.3679 109.822C83.5424 109.795 83.6294 109.778 83.7812 109.762C84.0177 109.762 84.1894 109.76 84.361 109.758Z" fill="#A8CFC2"/>
<path d="M93.6007 101.013C93.7757 101.252 93.9089 101.48 94.1554 101.902C93.7009 101.881 93.4303 101.868 93.1216 101.797C93.1597 101.535 93.236 101.333 93.343 101.062C93.4093 100.985 93.4449 100.975 93.4805 100.965C93.4805 100.965 93.5588 101.002 93.6007 101.013Z" fill="#ABABAB"/>
<path d="M59.271 101.012C59.3499 101.044 59.3574 101.077 59.304 101.181C59.2191 101.501 59.1951 101.749 59.1711 101.996C58.9889 101.948 58.8067 101.9 58.6245 101.852C58.8162 101.572 59.0079 101.292 59.271 101.012Z" fill="#CDCDCD"/>
<path d="M55.3356 101.449C54.8491 102.108 54.4001 101.67 53.9209 101.24C54.3514 101.262 54.8042 101.349 55.3356 101.449Z" fill="#ABABAB"/>
<path d="M118.559 102.189C118.527 102.073 118.537 102.009 118.556 101.898C118.813 101.839 119.061 101.828 119.383 101.828C119.458 101.905 119.458 101.97 119.462 102.084C119.178 102.169 118.89 102.205 118.559 102.189Z" fill="#EDEDED"/>
<path d="M109.12 102.922C109.377 102.859 109.625 102.869 109.947 102.871C109.865 103.055 109.708 103.247 109.551 103.438C109.404 103.291 109.257 103.144 109.12 102.922Z" fill="#E5E5E5"/>
<path d="M107.008 99.4451C106.637 99.6857 106.248 99.9147 106.233 99.1778C106.422 99.1433 106.564 99.1429 106.777 99.1454C106.901 99.23 106.953 99.3118 107.008 99.4451Z" fill="#CDCDCD"/>
<path d="M117.706 101.215C117.713 101.472 117.655 101.733 117.601 102.062C117.428 102.004 117.251 101.879 117.074 101.755C117.263 101.576 117.452 101.398 117.706 101.215Z" fill="#EDEDED"/>
<path d="M88.1547 101.047C88.1513 101.307 88.0784 101.562 88.0043 101.884C87.8345 101.879 87.6658 101.807 87.4971 101.734C87.6931 101.503 87.8891 101.273 88.1547 101.047Z" fill="#E5E5E5"/>
<path d="M92.4636 99.753C92.2639 99.4458 92.0643 99.1387 91.9131 98.8008C92.1132 98.9358 92.2649 99.1016 92.4631 99.3622C92.5204 99.5341 92.5313 99.6113 92.5226 99.7047C92.503 99.7209 92.4636 99.753 92.4636 99.753Z" fill="#ABABAB"/>
<path d="M123.187 94.5979C122.946 94.6852 122.661 94.7209 122.33 94.7104C122.57 94.6249 122.857 94.5856 123.187 94.5979Z" fill="#EDEDED"/>
<path d="M59.7275 101.754C59.991 101.755 60.2545 101.757 60.5957 101.817C60.6738 101.916 60.6742 101.955 60.6746 101.995C60.3899 102.023 60.1051 102.051 59.7748 101.974C59.7286 101.831 59.7281 101.793 59.7275 101.754Z" fill="#CDCDCD"/>
<path d="M60.7359 101.991C60.674 101.956 60.6735 101.916 60.6745 101.818C60.7975 101.612 60.9191 101.466 61.1062 101.248C61.2096 101.162 61.2474 101.149 61.3192 101.156C61.3532 101.175 61.4222 101.213 61.4222 101.213C61.3184 101.436 61.2146 101.658 61.0771 101.938C60.9614 101.992 60.8794 101.99 60.7359 101.991Z" fill="#9F9F9F"/>
<path d="M68.5236 108.156C68.5816 108.41 68.5727 108.672 68.5449 109.011C68.5029 108.78 68.4797 108.472 68.5236 108.156Z" fill="#E5E5E5"/>
<path d="M59.6936 101.706C59.7275 101.791 59.7281 101.83 59.7293 101.926C59.5899 101.984 59.4499 101.984 59.2402 101.99C59.1946 101.749 59.2186 101.501 59.2988 101.23C59.4567 101.358 59.5585 101.508 59.6936 101.706Z" fill="#9F9F9F"/>
<path d="M93.0679 100.653C92.877 100.394 92.6861 100.135 92.4795 99.8127C92.4638 99.75 92.5032 99.718 92.5658 99.7285C92.7113 99.7972 92.7943 99.8552 92.8773 99.9133C92.9178 100.01 92.9584 100.107 93.0403 100.3C93.0771 100.481 93.0725 100.567 93.0679 100.653Z" fill="#ABABAB"/>
<path d="M65.2048 101.379C65.3153 101.498 65.4257 101.617 65.5362 101.737C65.3858 101.846 65.2355 101.955 65.0649 101.965C65.0981 101.704 65.1515 101.541 65.2048 101.379Z" fill="#CDCDCD"/>
<path d="M93.0786 100.709C93.0724 100.569 93.077 100.483 93.0839 100.332C93.2145 100.456 93.3428 100.645 93.4756 100.899C93.4446 100.974 93.409 100.984 93.32 101.009C93.2076 100.937 93.1485 100.851 93.0786 100.709Z" fill="#E5E5E5"/>
<path d="M91.8528 98.3864C91.688 98.3268 91.5487 98.2078 91.4229 98.0273C91.5837 98.0863 91.731 98.2066 91.8528 98.3864Z" fill="#ABABAB"/>
<path d="M65.1689 101.355C65.1518 101.542 65.0985 101.705 65.0214 101.928C64.9642 101.985 64.9308 101.98 64.851 101.956C64.8057 101.745 64.8068 101.554 64.8042 101.291C64.8389 101.215 64.8773 101.21 64.9735 101.197C65.0542 101.244 65.0879 101.291 65.1689 101.355Z" fill="#B7B7B7"/>
<path d="M88.5833 96.334C88.6065 96.5019 88.6298 96.6698 88.603 96.8672C88.4989 96.7524 88.4448 96.6081 88.4385 96.3989C88.5186 96.334 88.5509 96.334 88.5833 96.334Z" fill="#ABABAB"/>
<path d="M88.5831 96.27C88.551 96.3338 88.5186 96.3338 88.438 96.3367C88.362 96.1661 88.3344 95.9927 88.3621 95.7891C88.4726 95.908 88.5277 96.0571 88.5831 96.27Z" fill="#E5E5E5"/>
<path d="M24.4962 92.4863C24.3601 92.5502 24.2093 92.5567 23.9844 92.5464C24.1007 92.496 24.2911 92.4625 24.4962 92.4863Z" fill="#E5E5E5"/>
<path d="M92.8829 99.8458C92.7942 99.8562 92.7112 99.7982 92.5853 99.7133C92.5315 99.6094 92.5206 99.5322 92.5083 99.3965C92.6341 99.4844 92.7613 99.6309 92.8829 99.8458Z" fill="#E5E5E5"/>
<path d="M110.14 102.705C110.141 102.587 110.2 102.455 110.315 102.309C110.313 102.426 110.256 102.558 110.14 102.705Z" fill="#E5E5E5"/>
<path d="M61.0522 108.213C61.0852 108.27 61.0521 108.313 60.9615 108.357C60.95 108.319 60.9773 108.266 61.0522 108.213Z" fill="#CDCDCD"/>
<path d="M114.761 102.026C114.413 101.791 114.098 101.596 113.71 101.357C113.71 101.231 113.71 100.975 113.657 100.68C113.602 99.5765 113.601 98.5126 113.655 97.3205C113.68 96.9063 113.649 96.6203 113.618 96.3343C113.61 96.1474 113.602 95.9605 113.607 95.629C114.013 95.3708 114.406 95.2572 114.761 95.1543C114.761 97.1283 114.751 98.9016 114.778 100.674C114.781 100.85 115.018 101.021 115.146 101.195C115.35 101.649 115.555 102.103 115.684 102.646C115.564 102.755 115.519 102.775 115.474 102.795C115.474 102.795 115.441 102.785 115.451 102.708C115.345 102.535 115.228 102.44 115.111 102.344C115.006 102.252 114.9 102.159 114.761 102.026Z" fill="#767676"/>
<path d="M115.147 101.108C115.018 101.021 114.781 100.849 114.778 100.674C114.751 98.9012 114.762 97.1279 114.762 95.1539C114.406 95.2568 114.014 95.3703 113.596 95.5594C113.401 95.5197 113.232 95.4046 113.062 95.2895C113.069 95.196 113.075 95.1025 113.081 95.009C113.862 94.9371 114.643 94.8652 115.492 94.7871C114.852 96.9634 115.24 99.0038 115.147 101.108Z" fill="#9F9F9F"/>
<path d="M113.569 96.377C113.649 96.62 113.68 96.906 113.658 97.2326C113.576 96.9888 113.548 96.7044 113.569 96.377Z" fill="#9F9F9F"/>
<path d="M115.115 102.402C115.228 102.441 115.345 102.536 115.441 102.695C115.32 102.659 115.219 102.559 115.115 102.402Z" fill="#9F9F9F"/>
<path d="M115.499 102.831C115.519 102.773 115.564 102.753 115.683 102.721C115.679 102.762 115.602 102.815 115.499 102.831Z" fill="#9F9F9F"/>
<path d="M99.0688 95.4499C99.709 94.872 100.047 95.5771 100.358 95.8491C101.009 96.4196 100.627 97.8878 99.8915 98.2542C99.7589 97.5156 99.6214 96.7497 99.3953 95.9106C99.2274 95.7082 99.1481 95.5791 99.0688 95.4499Z" fill="#767676"/>
<path d="M98.9934 95.4378C99.1476 95.5802 99.2269 95.7094 99.3297 95.8911C99.345 96.3817 99.3368 96.8198 99.2421 97.2052C99.0619 96.6607 99.287 96.0243 98.2887 95.6768C98.3895 96.6048 98.4722 97.3661 98.5549 98.1273C98.5275 98.1414 98.4898 98.1749 98.474 98.1667C97.4588 97.6358 98.118 96.7228 98.0129 95.9961C97.9278 95.4074 98.4432 95.3532 98.9934 95.4378Z" fill="#CDCDCD"/>
<path d="M98.628 98.1128C98.4731 97.3651 98.3904 96.6038 98.2896 95.6758C99.2878 96.0233 99.0628 96.6597 99.1824 97.2308C99.039 97.5731 98.8696 97.8361 98.628 98.1128Z" fill="#F9F9F9"/>
<path d="M128.887 99.5131C128.887 99.9164 128.859 100.231 128.893 100.538C128.979 101.313 128.665 101.573 127.878 101.325C127.878 99.3343 127.878 97.3353 127.878 95.2871C128.539 95.0806 128.949 95.1529 128.901 96.0626C128.842 97.1791 128.887 98.3011 128.887 99.5131Z" fill="#767676"/>
<path d="M38.4579 98.2105C38.4083 97.8995 38.4513 97.3813 38.2938 97.3116C37.3913 96.9124 37.759 96.3714 38.0228 95.8081C38.1371 95.5641 38.2228 95.307 38.57 95.0215C39.3273 97.1568 40.0847 99.2922 40.8727 101.514C40.3144 101.514 39.8338 101.514 39.2703 101.514C39.7606 100.431 39.0208 99.6828 38.5146 98.74C38.4633 98.4889 38.4606 98.3497 38.4579 98.2105Z" fill="#7A7B7A"/>
<path d="M38.4031 98.178C38.4603 98.3516 38.463 98.4908 38.4678 98.6996C38.1896 98.7776 37.6777 98.8383 37.6657 98.786C37.5746 98.3872 37.581 97.9663 37.5571 97.5523C37.654 97.5264 37.7509 97.5005 37.8478 97.4746C38.0147 97.6976 38.1816 97.9206 38.4031 98.178Z" fill="#CDCDCD"/>
<path d="M105.916 98.6677C105.71 98.7347 105.484 98.7385 105.174 98.727C105.359 98.6761 105.628 98.6403 105.916 98.6677Z" fill="#CDCDCD"/>
<path d="M121.712 101.258C121.687 101.183 121.729 101.119 121.752 101.087C121.875 100.853 122.076 100.644 122.061 100.451C121.983 99.3854 121.846 98.3245 121.744 97.2607C121.727 97.0835 121.776 96.8982 121.806 96.7186C121.89 96.227 121.98 95.7366 122.087 95.1328C122.439 95.1509 122.942 95.1766 123.359 95.198C123.359 97.3093 123.359 99.3672 123.359 101.663C122.783 101.545 122.26 101.439 121.712 101.258Z" fill="#7A7B7A"/>
<path d="M16.3673 96.9184C16.382 96.4724 16.3967 96.0263 16.3594 95.5367C16.8793 95.3568 17.4513 95.2205 17.9098 95.1113C17.9098 97.3379 17.9098 99.4428 17.9098 101.585C17.4282 101.585 16.9813 101.585 16.6495 101.585C16.5637 100.898 16.4887 100.297 16.418 99.624C16.4223 99.5514 16.431 99.5464 16.5013 99.5223C16.7872 98.6162 17.0687 97.7292 16.3708 96.9153C16.3707 96.913 16.3673 96.9184 16.3673 96.9184Z" fill="#7A7B7A"/>
<path d="M18.8392 96.8997C18.8246 96.1544 19.2518 96.274 19.7019 96.4723C20.6979 96.9113 20.6009 97.7887 20.5365 98.6276C20.4738 99.445 19.8712 99.7856 19.0802 100.198C19.1319 99.8158 19.1584 99.6198 19.2 99.2768C19.1283 98.38 19.6347 97.5313 18.8392 96.8997Z" fill="#7A7B7A"/>
<path d="M14.3323 96.6198C14.7691 96.6774 15.3215 95.8416 15.5894 96.8358C15.5062 96.9733 15.4632 97.0165 15.3573 97.0787C14.7215 97.8813 14.7265 98.6378 15.4446 99.3954C15.5197 99.4796 15.5657 99.5252 15.6116 99.5708C15.641 99.718 15.6703 99.8652 15.7006 100.017C14.3394 100.086 13.4123 98.8504 13.8746 97.6126C13.9938 97.2932 14.1637 96.9926 14.3323 96.6198Z" fill="#7A7B7A"/>
<path d="M18.7643 96.9082C19.6346 97.532 19.1281 98.3807 19.1903 99.2107C18.2392 99.6153 18.0466 99.5358 18.1357 98.6139C18.1911 98.0406 17.603 97.1773 18.7643 96.9082Z" fill="#EDEDED"/>
<path d="M15.6915 99.5601C15.5656 99.5269 15.5197 99.4813 15.4546 99.3189C15.4319 98.49 15.4284 97.778 15.4248 97.0659C15.4632 97.0182 15.5061 96.975 15.5907 96.9092C15.8252 96.8924 16.0227 96.9025 16.2939 96.9158C16.3676 96.9188 16.3711 96.9134 16.3782 97.0009C16.4006 97.9079 16.416 98.7273 16.4313 99.5467C16.4313 99.5467 16.4226 99.5518 16.4198 99.5561C16.2018 99.5563 15.9866 99.552 15.6915 99.5601Z" fill="#EDEDED"/>
<path d="M91.1744 100.035C90.9411 99.8701 90.7126 99.6357 90.3213 99.2345C90.286 99.8951 90.2598 100.387 90.2213 100.964C90.1101 100.365 90.0111 99.6815 89.9121 98.9978C90.1934 99.0132 90.5702 98.9233 90.7332 99.0694C90.9643 99.2767 91.038 99.6578 91.1744 100.035Z" fill="#ABABAB"/>
<path d="M90.1232 95.7656C90.2083 96.1023 90.1704 96.4844 90.2707 96.8265C90.3131 96.9711 90.6462 97.0314 90.909 97.0977C90.7276 97.3168 90.4845 97.5682 90.2414 97.8196C90.1212 97.5517 89.915 97.2882 89.9012 97.015C89.8809 96.6119 89.9976 96.2019 90.1232 95.7656Z" fill="#ABABAB"/>
<path d="M80.4363 97.841C80.4809 97.5408 80.5249 97.3134 80.5689 97.0859C80.7912 97.2221 81.1779 97.3302 81.2071 97.4993C81.3269 98.1951 81.3314 98.9101 81.3914 99.6169C81.4458 100.259 81.5171 100.9 81.5994 101.726C81.4932 101.749 81.0535 101.963 80.9246 101.844C80.6133 101.557 80.3463 101.138 80.2475 100.728C80.1203 100.2 80.1332 99.6264 80.1649 99.0768C80.1875 98.6853 80.3407 98.3012 80.4363 97.841Z" fill="#7A7B7A"/>
<path d="M79.0978 100.828C79.1911 101.027 79.2844 101.226 79.4619 101.604C79.2269 101.679 78.6813 101.897 78.659 101.853C78.4412 101.424 78.208 100.955 78.1856 100.488C78.1648 100.051 78.4474 99.6969 79.0509 100.126C79.1014 100.431 79.0996 100.63 79.0978 100.828Z" fill="#7A7B7A"/>
<path d="M79.1651 100.85C79.0993 100.629 79.1011 100.431 79.1099 100.158C79.3513 99.9534 79.5858 99.8228 80.0919 99.541C79.9916 100.11 79.9754 100.472 79.8436 100.787C79.8033 100.883 79.4452 100.847 79.1651 100.85Z" fill="#E5E5E5"/>
<path d="M73.3038 101.357C73.185 100.122 73.1119 98.917 73.1296 97.7134C73.1323 97.5313 73.5578 97.3554 73.947 97.0527C73.947 98.5668 73.9664 99.7682 73.922 100.967C73.9165 101.114 73.5684 101.248 73.3038 101.357Z" fill="#767676"/>
<path d="M61.4861 101.219C61.422 101.213 61.353 101.175 61.3087 101.085C61.2438 100.803 61.2232 100.61 61.2026 100.418C61.2026 100.418 61.2136 100.341 61.2735 100.295C61.3483 100.191 61.3632 100.132 61.3781 100.074C61.3781 100.074 61.3969 99.9897 61.4309 99.9238C61.4648 99.8579 61.4931 99.7853 61.5472 99.7585C61.7386 99.5432 61.8759 99.3547 62.0555 99.1198C62.1221 98.9094 62.1463 98.7455 62.229 98.5568C62.5464 98.4406 62.8054 98.3492 63.0644 98.2578C63.0374 99.132 63.0104 100.006 62.9016 100.96C62.7496 101.17 62.6794 101.299 62.6093 101.428C62.6093 101.428 62.5803 101.504 62.5664 101.542C62.0811 101.846 61.8079 101.557 61.4861 101.219Z" fill="#F9F9F9"/>
<path d="M63.0878 98.1861C62.8054 98.3499 62.5464 98.4413 62.1781 98.5364C61.9724 98.4843 61.8761 98.4287 61.7798 98.373C62.0038 97.9067 62.2278 97.4403 62.5426 96.9319C62.6335 96.8898 62.7233 96.8887 62.7233 96.8887C62.8526 97.297 62.9819 97.7054 63.0878 98.1861Z" fill="#B7B7B7"/>
<path d="M62.7559 96.8413C62.7236 96.8883 62.6338 96.8894 62.5889 96.8873C62.6538 96.6537 62.7638 96.4221 62.9386 96.166C62.9317 96.3591 62.8599 96.5767 62.7559 96.8413Z" fill="#CDCDCD"/>
<path d="M62.665 101.414C62.6793 101.296 62.7494 101.167 62.8854 101.039C62.8745 101.161 62.7977 101.282 62.665 101.414Z" fill="#B7B7B7"/>
<path d="M45.2403 101.096C44.8089 101.352 44.3538 101.536 43.8242 101.749C43.8242 99.4236 43.8242 97.383 43.8242 95.1543C44.2783 95.2405 44.7266 95.3256 45.1793 95.4805C45.0916 95.6265 44.9182 95.7036 44.9191 95.7787C44.9357 97.1999 44.9728 98.6207 45.065 100.076C45.1552 100.415 45.1859 100.719 45.2403 101.096Z" fill="#767676"/>
<path d="M47.7187 95.2053C48.0715 95.2012 48.3481 95.2012 48.5417 95.2012C48.5417 97.256 48.5417 99.2488 48.5417 101.322C48.1726 101.385 47.793 101.451 47.3223 101.532C47.4165 100.857 47.5038 100.259 47.582 99.6598C47.614 99.4149 47.659 99.1653 47.6421 98.9217C47.561 97.7505 47.4566 96.5809 47.3798 95.4094C47.3758 95.3487 47.5508 95.2763 47.7187 95.2053Z" fill="#767676"/>
<path d="M45.6964 95.5488C46.082 95.6158 46.4336 95.6907 46.862 95.7646C46.9885 96.0034 47.0509 96.2412 47.0854 96.483C47.209 97.3483 46.9195 97.8682 45.8612 97.7261C45.6073 97.4614 45.4383 97.2674 45.2694 97.0734C45.259 96.7577 45.2486 96.442 45.3055 96.0361C45.4479 95.8254 45.5231 95.7047 45.5982 95.584C45.5982 95.584 45.6624 95.5567 45.6964 95.5488Z" fill="#F9F9F9"/>
<path d="M45.2515 97.1406C45.4382 97.2664 45.6072 97.4604 45.7892 97.7105C45.6127 97.5807 45.4232 97.3947 45.2515 97.1406Z" fill="#E5E5E5"/>
<path d="M45.5415 95.582C45.5231 95.7034 45.4479 95.8241 45.3167 95.9565C45.2545 95.8915 45.2484 95.8148 45.2524 95.681C45.3366 95.6097 45.4107 95.5956 45.5415 95.582Z" fill="#E5E5E5"/>
<path d="M61.4934 99.7829C61.4934 99.7829 61.4652 99.8555 61.4331 99.8781C61.1844 99.7428 60.7811 99.5853 60.7808 99.427C60.7783 98.2187 60.8544 97.0102 60.982 95.7891C61.0659 96.7125 61.0739 97.6488 61.0755 98.7288C61.2106 99.176 61.352 99.4794 61.4934 99.7829Z" fill="#9F9F9F"/>
<path d="M61.1399 100.436C61.2231 100.61 61.2437 100.802 61.2747 101.065C61.2472 101.148 61.2093 101.161 61.113 101.188C61.062 100.952 61.0697 100.703 61.1399 100.436Z" fill="#CDCDCD"/>
<path d="M61.1731 95.4163C61.2575 95.3848 61.2948 95.3898 61.3883 95.4021C61.3608 95.5287 61.2773 95.6481 61.1375 95.7802C61.0962 95.6796 61.1111 95.5662 61.1731 95.4163Z" fill="#B7B7B7"/>
<path d="M61.3425 100.094C61.363 100.13 61.3481 100.189 61.2841 100.256C61.2415 100.206 61.2655 100.157 61.3425 100.094Z" fill="#9F9F9F"/>
<path d="M25.1987 101.084C25.2934 101.549 25.2101 101.825 24.649 101.777C24.1904 101.738 23.7257 101.769 23.2432 101.769C23.7039 99.5069 23.649 97.3605 23.3134 95.1152C23.9075 95.1152 24.6102 95.1152 25.1975 95.1152C24.6285 97.0878 24.8064 99.0486 25.0985 101.039C25.1673 101.067 25.2004 101.067 25.1987 101.084Z" fill="#838284"/>
<path d="M33.4873 95.6293C33.3883 95.7523 33.2642 95.8176 33.265 95.8815C33.2844 97.5885 33.3166 99.2954 33.4092 101.043C33.537 101.272 33.6023 101.461 33.7102 101.771C33.0329 101.771 32.4575 101.81 31.8938 101.746C31.7411 101.728 31.6243 101.4 31.4894 101.124C31.4879 101.035 31.5115 101.047 31.5115 101.047C31.8603 100.647 32.058 98.6133 31.7074 98.53C31.0772 98.3805 30.3797 98.5114 29.5933 98.5095C29.5159 98.2104 29.5556 97.9268 29.6588 97.6711C30.3169 98.037 30.9109 98.2393 31.5036 97.6868C31.5053 97.6819 31.5157 97.6806 31.5866 97.6588C31.8546 96.9296 32.1781 96.2101 31.4611 95.5893C31.4627 95.5885 31.4581 95.5898 31.4581 95.5898C31.5589 95.3997 31.6432 95.0583 31.7635 95.0453C32.3072 94.9861 32.862 95.0058 33.4096 95.044C33.4586 95.0475 33.484 95.3873 33.4873 95.6293Z" fill="#898989"/>
<path d="M29.5956 97.6436C29.5559 97.9272 29.5162 98.2108 29.5278 98.5372C29.5823 99.3323 29.5856 100.085 29.5898 100.923C29.2793 101.163 28.9678 101.318 28.6381 101.481C28.6381 99.7061 28.6505 98.119 28.6273 96.5324C28.6228 96.2256 28.479 95.9207 28.3225 95.602C28.3023 95.443 28.3318 95.1925 28.4208 95.1695C28.7477 95.0849 29.0943 95.0759 29.5064 95.1113C29.581 95.3805 29.5828 95.5767 29.5849 95.8579C29.5887 96.5097 29.5922 97.0767 29.5956 97.6436Z" fill="#767676"/>
<path d="M31.4926 101.049C30.9945 101.323 30.3437 101.563 30.1181 100.918C29.9128 100.331 30.0444 99.6016 30.1528 98.956C30.1715 98.8445 30.8198 98.7832 31.1679 98.8116C31.2839 98.821 31.4381 99.1771 31.4575 99.3855C31.5035 99.8775 31.479 100.376 31.4974 100.961C31.5117 101.049 31.4881 101.037 31.4926 101.049Z" fill="#F9F9F9"/>
<path d="M61.5475 99.7573C61.352 99.4806 61.2106 99.1772 61.0752 98.8019C61.2676 98.6789 61.4539 98.6278 61.7123 98.627C61.8608 98.8399 61.9371 99.0024 62.0135 99.165C61.8762 99.3535 61.739 99.542 61.5475 99.7573Z" fill="#B7B7B7"/>
<path d="M62.0555 99.1182C61.9368 99.0021 61.8604 98.8395 61.7691 98.6064C61.7542 98.5358 61.7671 98.4535 61.7734 98.4121C61.876 98.4264 61.9723 98.482 62.1196 98.5589C62.1463 98.7439 62.1221 98.9079 62.0555 99.1182Z" fill="#9F9F9F"/>
<path d="M29.9848 95.5996C30.4296 95.5975 30.8744 95.5953 31.3886 95.592C31.458 95.591 31.4626 95.5896 31.4601 95.6761C31.4769 96.4023 31.4963 97.042 31.5156 97.6818C31.5156 97.6818 31.5052 97.683 31.4185 97.6728C29.9511 97.6441 29.9504 97.6441 29.9604 96.258C29.962 96.0409 29.9725 95.8239 29.9773 95.6032C29.9758 95.5995 29.9848 95.5996 29.9848 95.5996Z" fill="#F9F9F9"/>
<path d="M29.5842 95.7752C29.5825 95.5789 29.5807 95.3827 29.5781 95.1133C29.7083 95.1797 29.8393 95.3193 29.9777 95.53C29.985 95.6011 29.976 95.601 29.9231 95.6103C29.7749 95.6715 29.6796 95.7233 29.5842 95.7752Z" fill="#898989"/>
<path d="M101.728 108.552C102.185 108.239 102.641 108.063 102.883 108.656C102.966 108.859 102.875 109.232 102.722 109.4C102.602 109.531 102.15 109.57 102.047 109.461C101.854 109.258 101.807 108.918 101.728 108.552Z" fill="#056C49"/>
<path d="M106.054 108.291C106.23 108.638 106.321 108.977 106.411 109.317C106.09 109.372 105.738 109.527 105.458 109.444C105.288 109.394 105.07 108.854 105.154 108.745C105.327 108.517 105.686 108.429 106.054 108.291Z" fill="#056C49"/>
<path d="M35.4372 108.707C35.8176 108.518 36.1875 108.372 36.5698 108.325C36.6744 108.312 36.9503 108.647 36.9166 108.735C36.7954 109.052 36.6316 109.511 36.3815 109.588C35.7881 109.771 35.3374 109.538 35.4372 108.707Z" fill="#0C6F4D"/>
<path d="M94.6586 109.786C93.8786 109.53 93.9288 108.884 94.151 108.479C94.2903 108.225 94.9447 108.15 95.3488 108.19C95.5115 108.205 95.7127 108.733 95.7397 109.042C95.8018 109.752 95.2691 109.802 94.6586 109.786Z" fill="#267057"/>
<path d="M25.6235 109.69C24.7886 109.797 24.4258 109.514 24.5073 108.724C24.5945 107.879 25.2294 108.113 25.702 108.147C25.8904 108.16 26.1935 108.444 26.2087 108.624C26.2431 109.031 26.4498 109.607 25.6235 109.69Z" fill="#267057"/>
<path d="M88.4121 109.231C87.9718 109.392 87.5309 109.542 87.1116 109.497C87.0026 109.485 86.7937 108.748 86.931 108.548C87.0989 108.304 87.5827 108.175 87.9305 108.174C88.6347 108.172 88.3546 108.768 88.4121 109.231Z" fill="#0C6F4D"/>
<path d="M112.67 109.681C112.142 108.666 112.289 108.17 113.062 108.116C113.609 108.077 114.046 108.113 114.031 108.872C114.018 109.544 113.806 109.882 113.099 109.791C112.976 109.776 112.854 109.748 112.67 109.681Z" fill="#267057"/>
<path d="M108.691 109.041C108.628 108.396 108.799 108.06 109.45 108.106C109.899 108.137 110.355 108.104 110.385 108.734C110.409 109.227 110.38 109.709 109.752 109.781C109.251 109.839 108.701 109.888 108.691 109.041Z" fill="#267057"/>
<path d="M121.042 108.257C121.265 109.564 121.1 109.835 120.253 109.793C119.669 109.765 119.528 109.432 119.512 108.929C119.496 108.403 119.656 108.071 120.247 108.111C120.494 108.127 120.739 108.169 121.042 108.257Z" fill="#267057"/>
<path d="M65.0115 109.36C65.0337 108.828 64.7633 108.178 65.5396 108.135C65.9196 108.114 66.4649 108.221 66.6547 108.476C66.8229 108.702 66.6432 109.534 66.5467 109.546C66.0535 109.608 65.5374 109.492 65.0115 109.36Z" fill="#267057"/>
<path d="M7.80815 108.252C7.75545 108.795 7.71769 109.322 7.48313 109.74C7.41903 109.854 6.66261 109.755 6.41229 109.539C6.21374 109.367 6.16861 108.798 6.30493 108.532C6.42362 108.301 6.88316 108.217 7.20855 108.126C7.36956 108.081 7.56766 108.167 7.80815 108.252Z" fill="#267057"/>
<path d="M13.5944 108.736C13.75 107.82 14.4213 108.064 14.8503 108.195C15.0696 108.262 15.3075 108.877 15.2223 109.145C15.1419 109.398 14.6677 109.617 14.3336 109.682C13.6732 109.809 13.5541 109.35 13.5944 108.736Z" fill="#267057"/>
<path d="M135.327 108.729C135.362 109.307 135.236 109.732 134.641 109.643C134.343 109.598 133.912 109.376 133.843 109.146C133.763 108.875 133.929 108.306 134.133 108.224C134.551 108.055 135.143 107.927 135.327 108.729Z" fill="#267057"/>
<path d="M40.4976 109.612C39.0929 109.722 38.9722 109.584 39.3222 108.17C39.6678 108.197 40.0277 108.224 40.4551 108.356C40.5143 108.843 40.506 109.228 40.4976 109.612Z" fill="#056C49"/>
<path d="M40.5667 109.596C40.5063 109.226 40.5146 108.842 40.5307 108.373C41.0831 108.682 40.9262 109.127 40.5667 109.596Z" fill="#357A62"/>
<path d="M51.2636 109.675C50.6481 109.811 50.0082 110.026 49.8325 109.233C49.7631 108.92 49.888 108.307 50.0631 108.249C50.4667 108.117 50.9553 108.242 51.4094 108.262C51.3819 108.719 51.3544 109.176 51.2636 109.675Z" fill="#267057"/>
<path d="M90.5878 109.489C90.2964 108.254 90.5023 107.99 91.5745 108.133C92.3885 108.242 92.0541 108.831 92.0114 109.349C91.4732 109.453 91.0305 109.471 90.5878 109.489Z" fill="#0C6F4D"/>
<path d="M90.6079 109.558C91.0303 109.471 91.473 109.453 91.9951 109.428C91.6838 110.127 91.1522 109.85 90.6079 109.558Z" fill="#45846F"/>
<path d="M69.8194 108.332C69.9609 108.647 70.1281 108.983 70.0468 109.24C70.0041 109.375 69.5002 109.466 69.2534 109.399C69.1106 109.361 68.9247 108.87 69.0054 108.757C69.1557 108.544 69.4864 108.458 69.8194 108.332Z" fill="#056C49"/>
<path d="M22.1386 109.565C21.6939 109.474 21.2786 109.411 20.9742 109.194C20.8744 109.123 20.9853 108.464 21.1353 108.403C21.4527 108.274 21.8593 108.361 22.2293 108.36C22.2232 108.751 22.2172 109.142 22.1386 109.565Z" fill="#0C6F4D"/>
<path d="M43.0408 109.791C42.9595 109.25 42.9586 108.717 42.9787 108.121C44.4193 107.968 44.4763 108.028 44.419 109.098C44.3663 110.08 43.6335 109.715 43.0408 109.791Z" fill="#267057"/>
<path d="M62.9561 109.563C62.7443 109.635 62.5477 109.668 62.3716 109.622C62.0628 109.542 61.542 109.456 61.5117 109.296C61.4483 108.963 61.646 108.58 61.774 108.154C63.074 108.106 63.074 108.106 62.9561 109.563Z" fill="#0C6F4D"/>
<path d="M84.3947 109.698C84.1895 109.759 84.0178 109.761 83.7515 109.696C83.6052 109.14 83.5536 108.652 83.502 108.163C83.7564 108.146 84.0109 108.129 84.3745 108.158C84.5979 108.222 84.7122 108.241 84.8265 108.26C84.8265 108.26 84.8394 108.283 84.8498 108.292C84.7163 108.747 84.5723 109.193 84.3947 109.698Z" fill="#0C6F4D"/>
<path d="M83.4331 108.182C83.5538 108.652 83.6054 109.14 83.6869 109.694C83.6297 109.777 83.5427 109.794 83.3896 109.799C83.337 109.258 83.3505 108.729 83.4331 108.182Z" fill="#6BA18F"/>
<path d="M84.8159 108.212C84.7125 108.241 84.5982 108.222 84.4512 108.152C84.5473 108.122 84.6761 108.143 84.8159 108.212Z" fill="#6BA18F"/>
<path d="M16.5018 99.5213C16.4162 98.726 16.4008 97.9066 16.3784 97.002C17.0692 97.7283 16.7877 98.6153 16.5018 99.5213Z" fill="#AEAEAF"/>
<path d="M15.3575 97.0801C15.4286 97.7776 15.4321 98.4896 15.4257 99.2798C14.7266 98.6391 14.7216 97.8826 15.3575 97.0801Z" fill="#AEAEAF"/>
<path d="M29.585 95.8574C29.6799 95.7207 29.7752 95.6688 29.925 95.6113C29.973 95.8227 29.9625 96.0397 29.9609 96.2568C29.9509 97.6429 29.9516 97.6429 31.4173 97.6765C30.9113 98.2392 30.3173 98.037 29.6592 97.671C29.5922 97.0762 29.5888 96.5092 29.585 95.8574Z" fill="#CDCDCD"/>
<path d="M31.5865 97.6588C31.4963 97.0409 31.477 96.4011 31.4585 95.6758C32.178 96.21 31.8545 96.9296 31.5865 97.6588Z" fill="#CDCDCD"/>
</g>
<defs>
<clipPath id="clip0_188_5679">
<rect width="140" height="140" fill="white"/>
</clipPath>
</defs>
</svg>
