<svg width="140" height="35" viewBox="0 0 140 35" fill="none" xmlns="http://www.w3.org/2000/svg">
<g clip-path="url(#clip0_178_1511)">
<path d="M51.2456 6.17289L48.3698 13.9878L43.2605 27.9149L40.66 34.9696H32.2771L33.4091 31.8375L39.9869 13.9878H30.0437C28.6976 13.9878 27.535 14.8393 27.1066 16.0556L23.7719 25.1173C23.7107 25.2693 23.6801 25.4518 23.6801 25.6342C23.6801 26.4857 24.3837 27.1851 25.2404 27.1851H31.0227L28.1469 35H25.2404C20.0393 35 15.8173 30.8037 15.8173 25.6342C15.8173 24.6004 16.0009 23.5969 16.3068 22.6846L16.368 22.4718C16.368 22.4414 16.3986 22.4109 16.3986 22.3805L19.7334 13.258C21.2937 9.15291 25.271 6.23371 29.9213 6.2033H51.2456V6.17289ZM21.2019 0H12.8191L0 35H8.38287L21.2019 0ZM137.155 13.9878L140.031 6.17289H129.873L132.137 0H123.754L115.555 22.3501C115.555 22.3805 115.524 22.4109 115.524 22.4414L115.433 22.6542C115.127 23.5969 114.943 24.5699 114.943 25.6038C114.943 30.7732 119.165 34.9696 124.366 34.9696H131.617L134.493 27.1547H124.366C123.51 27.1547 122.806 26.4553 122.806 25.6038C122.806 25.4214 122.837 25.2389 122.898 25.0869L126.997 13.9878H137.155ZM103.868 6.17289H88.4178L85.8173 13.258L82.4825 22.3501C82.4825 22.3805 82.4519 22.4109 82.4519 22.4414L82.3907 22.6542C82.0848 23.5969 81.9012 24.5699 81.9012 25.6038C81.9012 30.7732 86.1233 34.9696 91.3243 34.9696H106.774L109.65 27.1547H91.3549C90.4983 27.1547 89.7946 26.4553 89.7946 25.6038C89.7946 25.4214 89.8252 25.2389 89.8864 25.0869L93.9554 13.9878H103.899C104.755 13.9878 105.459 14.6872 105.459 15.5387C105.459 15.6603 105.428 15.7819 105.398 15.9036L104.48 18.397H96.4948L94.2308 24.2963H110.721L112.71 18.8228C113.108 17.8193 113.291 16.6942 113.291 15.5387C113.291 10.3692 109.069 6.17289 103.868 6.17289ZM71.5603 6.17289H56.1101L53.5402 13.2276L45.5857 35H53.9685L61.6171 13.9878H71.5603C72.417 13.9878 73.1206 14.6872 73.1206 15.5387C73.1206 15.6907 73.09 15.8732 73.0289 16.0252L66.0839 35H74.4668L80.4021 18.8228C80.7998 17.8193 80.9834 16.6942 80.9834 15.5387C80.9834 10.3692 76.7614 6.17289 71.5603 6.17289Z" fill="#0173DB"/>
</g>
<defs>
<clipPath id="clip0_178_1511">
<rect width="140" height="35" fill="white"/>
</clipPath>
</defs>
</svg>
