<svg width="220" height="38" viewBox="0 0 220 38" fill="none" xmlns="http://www.w3.org/2000/svg">
<g clip-path="url(#clip0_188_3044)">
<path d="M32.8098 1.74395C35.3777 3.33488 36.5332 5.30366 36.4612 8.38627C36.245 17.6463 36.3764 26.9145 36.2038 36.3579C31.31 32.0325 26.5275 27.5871 21.8724 23.011C14.8406 16.0987 7.89768 9.09528 0.916992 2.13059C1.53449 1.98864 2.15171 1.72443 2.76952 1.72302C12.7176 1.70027 22.6658 1.71098 32.8098 1.74395Z" fill="#0391A8"/>
<path d="M0.887536 2.32422C7.89788 9.09174 14.8408 16.0952 21.8726 23.0075C26.5277 27.5835 31.3102 32.0289 36.1776 36.5534C36.3195 36.574 36.3735 36.7356 36.3794 36.8206C25.7978 36.9254 15.2103 36.9452 4.3638 36.8075C3.04204 35.6257 1.97924 34.6016 0.916429 33.5775C0.896914 23.2255 0.877398 12.8734 0.887536 2.32422Z" fill="#00EDCC"/>
<path d="M219.963 26.1773C216.361 29.4001 212.049 29.851 208.841 27.5638C208.388 27.2406 207.832 27.062 207.324 26.8165C207.533 26.4385 207.742 26.0605 207.951 25.6826C208.724 25.8359 209.699 25.7438 210.235 26.1872C212.064 27.701 214.12 27.3875 216.065 26.9671C217.598 26.6356 218.505 25.4312 218.323 23.6264C218.153 21.9471 217.174 21.1531 215.664 20.8353C214.233 20.5339 212.761 20.3788 211.366 19.9605C209.047 19.2653 208.096 17.7984 208.155 15.3696C208.212 13.0344 209.516 11.1891 211.744 10.8002C213.881 10.4271 216.115 10.2212 218.046 11.6021C218.473 11.9073 218.653 12.5621 218.946 13.056C218.348 13.0702 217.742 13.1562 217.155 13.085C215.541 12.8893 213.851 12.2248 212.356 12.537C211.392 12.738 210.331 14.225 210.017 15.3361C209.679 16.5358 210.414 17.835 211.869 18.2243C213.21 18.5833 214.656 18.6506 215.918 19.1791C217.267 19.7439 218.454 20.6981 219.822 21.5681C219.953 23.0969 219.973 24.54 219.963 26.1773Z" fill="#1B293D"/>
<path d="M92.6543 20.8273C92.6543 23.5726 92.6543 26.1056 92.6543 28.7688C91.6355 28.7688 90.7711 28.7688 89.7449 28.7688C89.7449 25.3504 89.7449 21.9951 89.7449 18.6398C89.6223 18.6033 89.4997 18.5669 89.3771 18.5304C88.4709 20.3619 87.6502 22.2443 86.6144 23.9986C86.2278 24.6534 85.3099 25.4352 84.6875 25.3916C83.9406 25.3394 82.9752 24.6207 82.5891 23.9208C81.5663 22.0664 80.8045 20.0667 79.5788 18.2028C79.5788 21.6747 79.5788 25.1466 79.5788 28.7582C78.5383 28.7582 77.6739 28.7582 76.6924 28.7582C76.6924 22.7547 76.6924 16.7875 76.6924 10.7239C77.7548 10.7239 78.7163 10.7239 79.6438 10.7239C81.2788 14.0846 82.9032 17.4236 84.7235 21.1652C86.0944 18.2031 87.3064 15.5155 88.5783 12.8568C89.696 10.5204 89.7257 10.5347 92.6543 10.743C92.6543 14.0155 92.6543 17.3152 92.6543 20.8273Z" fill="#0391A8"/>
<path d="M108.3 20.3511C107.731 20.7826 107.177 21.1912 106.604 21.2206C104.861 21.31 103.112 21.253 101.242 21.253C101.242 22.8035 101.242 24.1914 101.242 25.8199C103.879 25.8199 106.582 25.8199 109.429 25.8199C109.429 26.9251 109.429 27.7938 109.429 28.784C105.631 28.784 101.854 28.784 97.9028 28.784C97.9028 22.8624 97.9028 16.8972 97.9028 10.7793C101.675 10.7793 105.501 10.7793 109.452 10.7793C109.452 11.616 109.452 12.4358 109.452 13.494C106.814 13.494 104.11 13.494 101.264 13.494C101.264 15.1629 101.264 16.5981 101.264 18.204C103.515 18.204 105.742 18.204 108.161 18.204C108.217 18.954 108.261 19.5543 108.3 20.3511Z" fill="#0391A8"/>
<path d="M190.384 17.9851C190.382 21.363 190.411 24.5474 190.339 27.7294C190.33 28.1097 189.778 28.4777 189.477 28.8514C189.218 28.508 188.737 28.1664 188.734 27.8208C188.687 22.176 188.701 16.5307 188.701 10.8855C188.895 10.742 189.089 10.5986 189.283 10.4551C189.892 10.9932 190.737 11.4142 191.068 12.0896C192.586 15.1849 193.954 18.3538 195.389 21.4903C195.709 22.1895 196.081 22.8645 196.586 23.8584C198.293 19.9272 199.867 16.2525 201.49 12.5995C201.979 11.4977 202.32 10.0091 204.336 10.9788C204.336 16.5493 204.357 22.1936 204.284 27.8366C204.279 28.1893 203.531 28.5321 203.129 28.8796C202.83 28.4253 202.285 27.9777 202.272 27.5158C202.193 24.5465 202.231 21.574 202.23 18.6026C202.23 17.9325 202.23 17.2625 201.813 16.4809C200.662 19.086 199.567 21.7188 198.325 24.2795C197.942 25.0699 197.156 25.6635 196.555 26.3472C195.962 25.7528 195.161 25.2608 194.813 24.5463C193.395 21.6398 192.117 18.6651 190.384 15.7066C190.384 16.4013 190.384 17.0961 190.384 17.9851Z" fill="#1B293D"/>
<path d="M58.8045 28.9036C56.6351 28.9036 54.6763 28.9036 52.5908 28.9036C52.5908 22.7733 52.5908 16.8066 52.5908 10.7344C53.4825 10.7344 54.3017 10.7344 55.3512 10.7344C55.3512 15.7015 55.3512 20.6833 55.3512 25.8994C58.4177 25.8994 61.2625 25.8994 64.2033 25.8994C64.2033 26.9579 64.2033 27.7808 64.2033 28.9036C62.4798 28.9036 60.7474 28.9036 58.8045 28.9036Z" fill="#0391A8"/>
<path d="M179.797 18.702C180.776 18.7029 181.564 18.6137 182.318 18.7391C182.761 18.8129 183.149 19.2274 183.561 19.4886C183.12 19.7923 182.69 20.3381 182.237 20.3583C180.139 20.452 178.035 20.3997 175.757 20.3997C175.757 22.6427 175.757 24.7226 175.757 27.2021C178.121 27.2021 180.55 27.1484 182.974 27.2388C183.601 27.2622 184.212 27.737 184.83 28.0044C184.244 28.3035 183.664 28.843 183.069 28.8611C180.126 28.9503 177.18 28.9017 174.061 28.9017C174.061 22.8328 174.061 16.9353 174.061 10.6446C177.334 10.6446 180.673 10.6214 184.01 10.687C184.289 10.6925 184.557 11.296 184.83 11.6217C184.461 11.855 184.096 12.2817 183.722 12.2903C181.129 12.3493 178.534 12.3214 175.759 12.3214C175.759 14.4222 175.759 16.36 175.759 18.702C176.997 18.702 178.294 18.702 179.797 18.702Z" fill="#1B293D"/>
<path d="M145.065 28.2339C144.37 27.8457 143.802 27.5659 143.273 27.2241C143.052 27.0815 142.916 26.8069 142.741 26.591C143.396 25.5056 144.097 25.136 145.113 26.126C146.819 27.7893 148.954 27.3838 150.898 26.9718C152.426 26.6481 153.352 25.4497 153.168 23.6407C152.99 21.8833 152.106 21.0131 150.367 20.8027C148.988 20.636 147.603 20.3734 146.274 19.9759C144.022 19.3027 142.861 17.5028 143.002 15.1765C143.134 13.0005 144.894 10.8875 147.063 10.6871C149.573 10.4553 152.15 10.319 154.664 12.9295C153.529 13.0106 152.823 13.1758 152.151 13.0852C150.736 12.8943 149.346 12.4091 147.931 12.3375C145.876 12.2335 144.826 13.8953 144.99 15.4584C145.109 16.5902 146.516 17.7805 147.622 18.5466C148.401 19.0862 149.635 18.9938 150.673 19.1199C153.302 19.4392 155.086 21.2398 155.257 23.7978C155.395 25.8564 153.873 28.1987 151.581 28.5325C149.51 28.834 147.336 28.4172 145.065 28.2339Z" fill="#1B293D"/>
<path d="M120.989 20.8134C119.73 20.5402 118.626 20.3382 117.565 20.001C114.959 19.1733 113.932 17.5521 114.24 14.8912C114.519 12.4689 116.236 10.6675 118.695 10.6837C120.466 10.6954 122.256 11.1162 123.986 11.559C124.424 11.6711 124.664 12.5643 124.996 13.0986C124.393 13.0872 123.784 13.1309 123.19 13.0536C121.643 12.8522 120.094 12.3667 118.562 12.4276C116.943 12.492 116.141 13.8756 116.03 15.3592C115.932 16.6871 116.549 17.8574 117.991 18.2451C119.266 18.5877 120.554 18.9258 121.858 19.1059C124.406 19.4579 125.901 20.6961 126.073 22.7649C126.349 26.0772 125.289 28.1279 122.621 28.6634C119.926 29.2046 117.141 29.3615 114.797 27.4307C114.411 27.1129 114.318 26.4374 114.089 25.9271C114.659 25.9113 115.257 25.775 115.794 25.9024C117.382 26.2793 118.925 27.0066 120.524 27.142C122.823 27.3366 124.194 26.0971 124.376 24.1625C124.558 22.2398 123.785 21.4367 120.989 20.8134Z" fill="#1B293D"/>
<path d="M67.6919 24.2196C67.6919 19.6401 67.6919 15.2718 67.6919 10.7676C68.7027 10.7676 69.5666 10.7676 70.5428 10.7676C70.5428 16.7832 70.5428 22.7463 70.5428 28.8064C69.6185 28.8064 68.8003 28.8064 67.6919 28.8064C67.6919 27.3435 67.6919 25.8871 67.6919 24.2196Z" fill="#0391A8"/>
<path d="M129.459 12.745C129.158 12.0396 128.916 11.4816 128.674 10.9236C128.842 10.7427 129.01 10.5618 129.177 10.3809C129.827 10.8654 130.718 11.2125 131.081 11.8592C132.356 14.1269 133.448 16.4977 134.82 19.2522C135.776 17.396 136.459 15.7488 137.426 14.2918C138.291 12.9882 138.106 10.5242 141.138 10.7556C140.471 12.1606 140.055 13.346 139.393 14.3718C136.941 18.1764 135.114 22.1326 135.798 26.8419C135.858 27.2553 135.892 27.7295 135.746 28.0984C135.623 28.4066 135.213 28.8002 134.942 28.7918C134.666 28.7833 134.388 28.3429 134.147 28.0605C134.075 27.9762 134.095 27.781 134.123 27.6466C135.295 21.875 131.785 17.5794 129.459 12.745Z" fill="#1B293D"/>
<path d="M164.737 12.4077C164.418 13.1936 164.178 13.9289 164.172 14.6664C164.135 18.7677 164.187 22.8702 164.119 26.9708C164.108 27.6015 163.631 28.2243 163.369 28.8507C163.067 28.1948 162.513 27.5429 162.502 26.8822C162.427 22.1542 162.462 17.4244 162.462 12.3262C161.074 12.3262 159.835 12.3963 158.612 12.2871C158.2 12.2504 157.828 11.7582 157.438 11.4741C157.832 11.1938 158.222 10.6781 158.621 10.6703C161.928 10.6063 165.238 10.6135 168.546 10.6707C168.901 10.6768 169.249 11.1393 169.6 11.3901C169.238 11.7013 168.9 12.2388 168.51 12.2813C167.326 12.4098 166.121 12.3466 164.737 12.4077Z" fill="#1B293D"/>
</g>
<defs>
<clipPath id="clip0_188_3044">
<rect width="220" height="37.4" fill="white"/>
</clipPath>
</defs>
</svg>
