<svg width="140" height="140" viewBox="0 0 140 140" fill="none" xmlns="http://www.w3.org/2000/svg">
<path d="M16.4265 60.5302C15.8896 60.8308 15.6964 61.3247 15.9541 61.7756C16.2117 62.2265 16.7271 62.2909 17.2639 61.9903C17.8007 61.6897 18.1228 61.0241 17.908 60.6376C17.6933 60.2725 16.9847 60.2081 16.4265 60.5302ZM16.3406 62.8922C15.8682 63.1498 15.7179 63.5578 15.9326 63.9658C16.1473 64.3523 16.5982 64.4167 17.0492 64.159C17.5001 63.9014 17.7792 63.3431 17.6074 62.9995C17.4357 62.656 16.813 62.6345 16.3406 62.8922ZM16.1688 60.0363C15.632 60.337 15.1166 60.2725 14.859 59.8216C14.6013 59.3492 14.7945 58.8983 15.3314 58.5762C15.8682 58.2541 16.5768 58.2971 16.813 58.705C17.0277 59.0915 16.7056 59.7357 16.1688 60.0363ZM14.0645 58.9412C13.5921 59.1989 13.1626 59.1345 12.9479 58.748C12.7332 58.3615 12.8835 57.9535 13.3559 57.6744C13.8283 57.4167 14.451 57.4382 14.6228 57.7817C14.816 58.1253 14.5369 58.6621 14.0645 58.9412ZM15.4387 80.3707C12.9694 80.3707 10.5645 79.5118 8.63197 77.9443C6.72093 76.3768 5.41111 74.1866 4.91725 71.7603C4.42338 69.3339 4.80989 66.8001 5.9694 64.61C7.1289 62.4198 9.03995 60.702 11.316 59.7572C11.9387 59.4995 12.6473 59.4566 13.313 59.6498C13.9571 59.8431 14.5369 60.2725 14.9234 60.8308C15.3099 61.3891 15.4817 62.0762 15.4172 62.7633C15.3528 63.4504 15.0522 64.0731 14.5798 64.567C14.3007 64.8462 13.9571 65.0609 13.5921 65.2327C13.3774 65.34 13.1197 65.4474 12.905 65.5977C12.2179 66.0057 11.6596 66.5854 11.2731 67.2725C10.8651 67.9596 10.6504 68.7327 10.6289 69.5271C10.6074 70.3216 10.7792 71.1161 11.1442 71.8247C11.5093 72.5333 12.0246 73.1345 12.6688 73.6069C13.313 74.0578 14.0645 74.3584 14.859 74.4443C15.6534 74.5302 16.4479 74.4228 17.178 74.1437C17.908 73.8431 18.5737 73.3707 19.089 72.7695C19.6044 72.1682 19.9479 71.4382 20.1197 70.6652C20.1626 70.3431 20.2056 70.021 20.2271 69.6989C20.2271 69.3768 20.2915 69.0547 20.3774 68.7327C20.6136 68.067 21.0645 67.5087 21.6657 67.1437C22.2669 66.7787 22.9755 66.6498 23.6626 66.7572C24.3498 66.8646 24.9939 67.2296 25.4449 67.7664C25.8958 68.3032 26.1534 68.9903 26.1534 69.6774C26.1534 72.5118 25.0154 75.2388 23.0185 77.2572C21.0001 79.2327 18.2731 80.3492 15.4387 80.3707ZM49.8804 61.5823C49.7946 61.5823 49.6872 61.6038 49.6228 61.6682C49.5369 61.7327 49.4939 61.7971 49.451 61.883L45.8222 72.8124H45.7792L42.1504 61.883C42.1289 61.7971 42.0645 61.7112 41.9786 61.6682C41.8927 61.6038 41.8068 61.5823 41.7209 61.5823H36.0737C35.9449 61.5823 35.8375 61.6253 35.7516 61.7112C35.6657 61.7971 35.6228 61.9044 35.6228 62.0333V77.8155C35.6228 77.9443 35.6657 78.0517 35.7516 78.1376C35.8375 78.2235 35.9449 78.2664 36.0737 78.2664H39.4878C39.6166 78.2664 39.724 78.2235 39.8099 78.1376C39.8958 78.0517 39.9387 77.9443 39.9387 77.8155V67.7879C39.9387 67.7664 39.9387 67.7234 39.9602 67.702C39.9817 67.6805 39.9817 67.659 40.0031 67.6376C40.0246 67.6161 40.0461 67.5946 40.089 67.5946C40.1105 67.5946 40.1534 67.5731 40.1749 67.5731C40.2179 67.5731 40.2823 67.5946 40.3038 67.6161C40.3467 67.6376 40.3682 67.6805 40.3896 67.7235L43.8038 77.9658C43.8252 78.0517 43.8896 78.1376 43.9755 78.1805C44.0614 78.2449 44.1473 78.2664 44.2332 78.2664H47.3038C47.3896 78.2664 47.497 78.2449 47.5614 78.1805C47.6473 78.1161 47.6903 78.0517 47.7332 77.9658L51.1473 67.7235C51.1688 67.6805 51.1903 67.6376 51.2332 67.6161C51.2761 67.5946 51.3191 67.5731 51.362 67.5731C51.4264 67.5731 51.4694 67.5946 51.5123 67.6376C51.5553 67.6805 51.5768 67.7449 51.5768 67.7879V77.8155C51.5768 77.9443 51.6197 78.0517 51.7056 78.1376C51.7915 78.2235 51.8988 78.2664 52.0277 78.2664H55.4418C55.5706 78.2664 55.678 78.2235 55.7639 78.1376C55.8498 78.0517 55.8927 77.9443 55.8927 77.8155V62.0333C55.8927 61.9044 55.8498 61.7971 55.7639 61.7112C55.678 61.6253 55.5706 61.5823 55.4418 61.5823H49.8804ZM76.6136 72.2112C76.6136 74.0793 77.816 75.2173 79.1688 75.2173C79.6197 75.2173 80.0492 75.1314 80.4571 74.9597C80.8651 74.7879 81.2301 74.5087 81.5093 74.1866C81.5737 74.1008 81.6811 74.0578 81.7884 74.0363C81.8958 74.0149 82.0031 74.0578 82.1105 74.1222L84.2363 75.6897C84.2792 75.7327 84.3222 75.7756 84.3651 75.8185C84.3866 75.8615 84.4081 75.9259 84.4295 75.9903C84.4295 76.0547 84.4295 76.1192 84.4081 76.1836C84.3866 76.248 84.3651 76.2909 84.3222 76.3339C83.0768 77.794 81.3375 78.5885 79.0829 78.5885H78.8682C75.2823 78.5885 72.3835 75.9259 72.3835 72.383V71.8462C72.3835 68.3032 75.2823 65.6406 78.8682 65.6406H79.0829C81.3375 65.6406 83.0768 66.4351 84.3222 67.8952C84.3651 67.9382 84.3866 68.0026 84.4081 68.0455C84.4295 68.11 84.4295 68.1744 84.4295 68.2173C84.4295 68.2817 84.408 68.3462 84.3651 68.3891C84.3436 68.432 84.3007 68.4965 84.2363 68.5179L82.1105 70.0854C82.0246 70.1498 81.9173 70.1928 81.8099 70.1713C81.7025 70.1498 81.5952 70.1069 81.5307 70.021C81.2301 69.6989 80.8866 69.4198 80.4786 69.248C80.0706 69.0762 79.6412 68.9688 79.1903 68.9903C77.8375 68.9903 76.635 70.1284 76.635 71.9965V72.2112H76.6136ZM86.5768 61.9689C86.5768 61.84 86.6197 61.7327 86.7056 61.6468C86.7915 61.5609 86.8988 61.5179 87.0277 61.5179H94.3283C98.043 61.5179 100.577 63.6866 100.577 67.1652V67.4014C100.577 70.9014 98.1074 73.113 94.3283 73.113H90.8927V77.794C90.8927 77.9228 90.8498 78.0302 90.7639 78.1161C90.678 78.202 90.5706 78.2449 90.4418 78.2449H87.0277C86.8988 78.2449 86.7915 78.202 86.7056 78.1161C86.6197 78.0302 86.5768 77.9228 86.5768 77.794V61.9689ZM93.6197 69.5486C95.1013 69.5486 96.2393 68.6468 96.2393 67.3155V67.2296C96.2393 65.9627 95.1657 65.0609 93.7271 65.0609H90.8927V69.5271H93.6197V69.5486ZM58.1688 74.8952C58.1688 76.9781 59.8866 78.61 62.3344 78.61C64.224 78.61 65.2332 77.794 66.1136 77.1284C66.1565 77.4075 66.2209 77.6652 66.2854 77.9443C66.3068 78.0302 66.3712 78.1161 66.4571 78.1805C66.543 78.2449 66.6289 78.2664 66.7363 78.2664H69.6995C69.8283 78.2664 69.9357 78.2235 70.0215 78.1376C70.1074 78.0517 70.1504 77.9443 70.1504 77.8155V70.8155C70.1504 67.6376 68.0461 65.5977 64.7393 65.5977H64.3958C62.5491 65.5977 60.724 66.0271 59.0921 66.886C59.0277 66.9075 58.9847 66.9504 58.9418 66.9934C58.8988 67.0363 58.8774 67.1008 58.8559 67.1652C58.8344 67.2296 58.8344 67.294 58.8559 67.3584C58.8559 67.4228 58.8774 67.4873 58.9203 67.5302L60.2516 69.656C60.316 69.7419 60.4019 69.8063 60.5093 69.8492C60.6166 69.8707 60.724 69.8707 60.8314 69.8277C62.1197 69.248 63.1504 69.0333 64.0737 69.0333C65.2976 69.0333 66.0062 69.7633 66.0062 71.0087H65.1473C60.3375 70.9873 58.1688 72.1468 58.1688 74.8952ZM61.8191 74.7235C61.8191 73.6713 63.5154 73.3277 65.5982 73.3277H66.0062V74.6805C65.6626 75.0455 65.2547 75.3247 64.8037 75.5179C64.3528 75.7112 63.859 75.8185 63.3651 75.8185C62.5706 75.7971 61.8191 75.4535 61.8191 74.7235ZM101.543 74.8952C101.543 76.9781 103.261 78.61 105.709 78.61C107.598 78.61 108.607 77.794 109.488 77.1284C109.531 77.4075 109.595 77.6652 109.66 77.9443C109.681 78.0302 109.745 78.1161 109.831 78.1805C109.917 78.2449 110.003 78.2664 110.11 78.2664H113.074C113.203 78.2664 113.31 78.2235 113.396 78.1376C113.482 78.0517 113.525 77.9443 113.525 77.8155V70.8155C113.525 67.6376 111.42 65.5977 108.114 65.5977H107.791C105.945 65.5977 104.141 66.0271 102.509 66.886C102.445 66.9075 102.402 66.9504 102.359 66.9934C102.316 67.0363 102.295 67.1008 102.273 67.1652C102.252 67.2296 102.252 67.294 102.273 67.3584C102.273 67.4228 102.295 67.4873 102.337 67.5302L103.669 69.656C103.733 69.7419 103.819 69.8063 103.926 69.8492C104.034 69.8707 104.141 69.8707 104.249 69.8277C105.537 69.248 106.568 69.0333 107.491 69.0333C108.715 69.0333 109.423 69.7633 109.423 71.0087H108.564C103.712 70.9873 101.543 72.1468 101.543 74.8952ZM105.193 74.7235C105.193 73.6713 106.89 73.3277 108.972 73.3277H109.38V74.6805C109.037 75.0455 108.629 75.3247 108.178 75.5179C107.727 75.7112 107.233 75.8185 106.739 75.8185C105.966 75.7971 105.193 75.4535 105.193 74.7235ZM120.396 73.5425L122.221 66.156C122.242 66.0486 122.307 65.9627 122.371 65.9198C122.457 65.8554 122.543 65.8339 122.65 65.8339H125.721C125.828 65.8339 125.914 65.8768 126 65.9198C126.086 65.9842 126.129 66.0701 126.15 66.156L127.997 73.5425C128.018 73.5854 128.04 73.6284 128.083 73.6713C128.126 73.6928 128.169 73.7142 128.233 73.7142C128.298 73.7142 128.341 73.6928 128.384 73.6498C128.426 73.6069 128.448 73.5639 128.469 73.521L129.436 66.2204C129.457 66.113 129.5 66.0057 129.586 65.9412C129.672 65.8768 129.779 65.8339 129.887 65.8339H133.086C133.15 65.8339 133.215 65.8554 133.279 65.8768C133.344 65.8983 133.387 65.9412 133.43 66.0057C133.472 66.0486 133.494 66.113 133.515 66.1774C133.537 66.2419 133.537 66.3063 133.515 66.3707L131.046 77.9014C131.025 78.0087 130.96 78.0946 130.896 78.159C130.81 78.2235 130.703 78.2664 130.595 78.2664H126.601C126.494 78.2664 126.408 78.2449 126.322 78.1805C126.236 78.1161 126.193 78.0302 126.15 77.9443L124.218 71.202H124.132L122.199 77.9443C122.178 78.0302 122.114 78.1161 122.028 78.1805C121.942 78.2449 121.856 78.2664 121.749 78.2664H117.733C117.626 78.2664 117.518 78.2235 117.454 78.159C117.368 78.0946 117.325 78.0087 117.304 77.9014L114.877 66.3707C114.856 66.3063 114.856 66.2419 114.877 66.1774C114.899 66.113 114.92 66.0486 114.963 66.0057C115.006 65.9627 115.071 65.9198 115.114 65.8768C115.178 65.8554 115.242 65.8339 115.307 65.8339H118.528C118.635 65.8339 118.742 65.8768 118.828 65.9412C118.914 66.0057 118.957 66.113 118.979 66.2204L119.945 73.521C119.945 73.5854 119.988 73.6284 120.031 73.6498C120.074 73.6928 120.117 73.7142 120.181 73.7142C120.224 73.7142 120.288 73.6928 120.31 73.6713C120.353 73.6284 120.396 73.5854 120.396 73.5425Z" fill="#24874E"/>
</svg>
