<svg width="140" height="72" viewBox="0 0 140 72" fill="none" xmlns="http://www.w3.org/2000/svg">
<path fill-rule="evenodd" clip-rule="evenodd" d="M88.1439 5.19476C91.9983 8.53724 92.9704 12.6484 91.0604 17.5282C90.1997 19.3534 89.2276 21.0843 88.1439 22.7212C84.5533 26.9639 80.0165 29.5604 74.5335 30.5107C73.7278 29.4306 72.6474 28.6734 71.2929 28.2388C72.0952 27.7909 72.0952 27.4663 71.2929 27.2651C75.7882 25.8215 79.7845 23.4414 83.283 20.1247C86.86 14.9025 86.1036 10.4668 81.0146 6.81757C76.205 4.64825 71.2358 4.10734 66.1079 5.19476C66.1079 4.11286 66.1079 3.03102 66.1079 1.94912C64.8117 1.94912 63.5155 1.94912 62.2192 1.94912C70.2863 -0.941507 78.2796 -0.616943 86.1996 2.92281C86.9838 3.59732 87.6319 4.35466 88.1439 5.19476Z" fill="#BDC1C5"/>
<path fill-rule="evenodd" clip-rule="evenodd" d="M62.2196 1.94727C63.5159 1.94727 64.8121 1.94727 66.1083 1.94727C66.1083 3.02917 66.1083 4.111 66.1083 5.1929C61.8159 6.04306 58.1436 7.99044 55.0903 11.035C54.8266 10.216 54.6107 9.35049 54.4422 8.43854C54.7825 7.98908 55.2148 7.66452 55.7385 7.46484C54.6918 7.42447 53.8278 7.31626 53.146 7.14028C55.5518 4.41804 58.5766 2.68701 62.2196 1.94727Z" fill="#A0A6AD"/>
<path fill-rule="evenodd" clip-rule="evenodd" d="M53.1454 7.14258C53.8272 7.31856 54.6911 7.42677 55.7378 7.46714C55.2142 7.66681 54.7819 7.99138 54.4416 8.44083C54.6101 9.35279 54.8259 10.2183 55.0897 11.0373C46.9585 21.0153 48.9028 28.372 60.9228 33.1077C63.464 34.0926 66.0565 35.1745 68.7002 36.3533C65.1453 37.1009 61.473 37.2091 57.6822 36.6779C55.9381 36.5767 54.4261 36.0358 53.1454 35.055C53.8272 35.1521 54.4753 35.0439 55.0897 34.7305C53.1687 34.185 52.9529 33.5359 54.4416 32.7831C52.3553 30.4775 50.5192 27.9892 48.9326 25.3181C48.6319 21.5857 48.7401 18.0155 49.2567 14.6075C48.733 14.4079 48.3007 14.0833 47.9604 13.6338C48.6889 12.716 49.337 11.7423 49.9048 10.7128C49.757 10.4539 49.5406 10.3458 49.2567 10.3882C50.1414 8.8564 51.4376 7.7745 53.1454 7.14258Z" fill="#C1C5CB"/>
<path fill-rule="evenodd" clip-rule="evenodd" d="M71.293 27.2653C66.1191 27.7544 61.9063 26.0234 58.6547 22.0723C58.0889 17.1083 60.1415 13.6463 64.8118 11.6863C69.3687 10.2638 73.365 11.1293 76.802 14.2828C77.3697 16.5009 76.6134 18.1237 74.5336 19.1513C72.2185 20.0632 69.8418 20.2796 67.4043 19.8004C66.5189 18.2543 66.7348 16.8478 68.0524 15.5811C69.7271 15.0015 71.4557 14.7852 73.2373 14.9319C73.3475 14.0737 73.1317 13.3165 72.5892 12.66C70.6449 12.2272 68.7005 12.2272 66.7562 12.66C66.3958 12.9083 66.18 13.2329 66.108 13.6337C61.089 14.8956 59.6846 17.9249 61.8953 22.7215C62.7145 24.0892 63.9025 24.7383 65.4599 24.6688C72.6184 26.416 78.3432 24.2522 82.635 18.1776C83.0673 17.3121 83.0673 16.4465 82.635 15.5811C81.1094 20.2565 77.9764 22.853 73.2373 23.3706C73.0675 22.4113 73.2833 21.5458 73.8854 20.7741C78.4929 18.8234 79.3575 15.9024 76.4779 12.0109C74.8868 11.1595 73.2665 10.4022 71.617 9.73892C71.024 8.16803 71.5639 7.30248 73.2373 7.14241C77.3769 7.53513 80.5098 9.48251 82.635 12.9846C82.1969 9.51529 80.1443 7.4597 76.4779 6.81785C70.8782 5.1431 65.6932 5.90044 60.9231 9.08979C53.3207 12.4192 50.8365 18.045 53.4698 25.9671C55.617 29.043 58.5335 30.8822 62.2193 31.4847C66.3984 31.9833 70.5029 31.6588 74.5336 30.511C80.0166 29.5607 84.5535 26.9642 88.144 22.7215C88.3268 23.5508 88.7591 24.2 89.4403 24.6688C81.0821 31.0925 71.5762 33.9053 60.9231 33.1075C48.9031 28.3718 46.9588 21.0151 55.0901 11.0372C58.1433 7.99257 61.8156 6.04519 66.108 5.19503C71.2359 4.10761 76.2051 4.64853 81.0147 6.81785C86.1037 10.4671 86.8601 14.9028 83.2831 20.1249C79.7846 23.4417 75.7883 25.8218 71.293 27.2653Z" fill="#EFF2F4"/>
<path fill-rule="evenodd" clip-rule="evenodd" d="M60.9227 9.09187C62.0945 9.08629 63.1749 9.41085 64.1633 10.0656C63.9475 10.2819 63.731 10.4983 63.5152 10.7147C64.1089 10.8954 64.5405 11.22 64.8114 11.6884C60.1411 13.6484 58.0885 17.1104 58.6543 22.0744C61.9059 26.0254 66.1187 27.7565 71.2926 27.2674C72.0949 27.4687 72.0949 27.7932 71.2926 28.2411C72.6471 28.6757 73.7276 29.433 74.5332 30.5131C70.5025 31.6608 66.398 31.9854 62.2189 31.4867C58.5331 30.8843 55.6166 29.0451 53.4694 25.9692C50.8361 18.0471 53.3203 12.4213 60.9227 9.09187Z" fill="#AAB0B7"/>
<path fill-rule="evenodd" clip-rule="evenodd" d="M49.2569 10.3879C49.5408 10.3454 49.7572 10.4536 49.905 10.7124C49.3373 11.742 48.6891 12.7157 47.9607 13.6335C48.3009 14.083 48.7332 14.4075 49.2569 14.6072C48.7403 18.0151 48.6321 21.5853 48.9328 25.3178C50.5194 27.9889 52.3555 30.4772 54.4418 32.7828C52.9531 33.5356 53.1689 34.1847 55.0899 34.7301C54.4755 35.0435 53.8274 35.1518 53.1456 35.0547C45.7661 31.5251 42.8496 25.6829 44.396 17.5283C45.7033 14.9021 47.3236 12.522 49.2569 10.3879Z" fill="#AEB5BD"/>
<path fill-rule="evenodd" clip-rule="evenodd" d="M66.108 13.6309C66.1754 15.3118 65.7431 16.8264 64.8118 18.1747C65.9985 20.3294 67.2947 22.385 68.7005 24.3415C67.6415 24.6618 66.5611 24.77 65.4599 24.666C63.9025 24.7355 62.7145 24.0863 61.8953 22.7186C59.6845 17.9221 61.089 14.8928 66.108 13.6309Z" fill="#9AA0A7"/>
<path fill-rule="evenodd" clip-rule="evenodd" d="M65.4602 24.6651C66.5613 24.7691 67.6417 24.6609 68.7007 24.3406C67.295 22.3841 65.9987 20.3285 64.812 18.1739C65.7434 16.8256 66.1757 15.3109 66.1083 13.63C66.1802 13.2292 66.396 12.9047 66.7564 12.6563C68.7007 12.2235 70.6451 12.2235 72.5894 12.6563C73.1319 13.3128 73.3477 14.07 73.2376 14.9282C71.4559 14.7815 69.7274 14.9978 68.0526 15.5774C66.735 16.8441 66.5192 18.2506 67.4045 19.7967C69.8421 20.2759 72.2187 20.0595 74.5338 19.1476C76.6136 18.12 77.3699 16.4972 76.8022 14.2791C73.3652 11.1256 69.3689 10.2601 64.812 11.6826C64.5411 11.2142 64.1095 10.8896 63.5158 10.7089C63.7316 10.4926 63.9481 10.2761 64.1639 10.0598C63.1755 9.40508 62.0951 9.08051 60.9233 9.0861C65.6935 5.89674 70.8784 5.1394 76.4781 6.81415C80.1445 7.45601 82.1971 9.5116 82.6353 12.9809C80.5101 9.47882 77.3771 7.53144 73.2376 7.13872C71.5641 7.29879 71.0242 8.16434 71.6173 9.73522C73.2667 10.3985 74.887 11.1558 76.4781 12.0072C79.3577 15.8987 78.4931 18.8198 73.8857 20.7704C73.2836 21.5421 73.0678 22.4076 73.2376 23.3669C77.9766 22.8493 81.1096 20.2528 82.6353 15.5774C83.0675 16.4428 83.0675 17.3084 82.6353 18.1739C78.3434 24.2485 72.6186 26.4123 65.4602 24.6651Z" fill="#BABEC3"/>
<path fill-rule="evenodd" clip-rule="evenodd" d="M88.1439 5.1944C90.8569 9.20613 91.3974 13.5336 89.7641 18.1769C87.3175 22.6843 83.7529 25.93 79.0702 27.9138C78.5167 27.2506 77.8686 26.7096 77.1259 26.291C80.9063 24.2354 83.8229 21.3144 85.8754 17.5278C87.5994 11.1349 85.331 6.91562 79.0702 4.86984C76.0558 4.28647 73.0311 3.74548 69.9966 3.24702C70.4289 2.59789 70.8605 1.94877 71.2928 1.29964C77.4467 0.352498 83.0639 1.65075 88.1439 5.1944Z" fill="#E6E9EB"/>
<path fill-rule="evenodd" clip-rule="evenodd" d="M89.4405 24.6699C89.4463 25.8438 89.1223 26.9257 88.4683 27.9156C83.8732 31.9139 78.58 34.6186 72.5894 36.0296C71.3107 36.3513 70.0145 36.4594 68.7007 36.3542C66.0571 35.1754 63.4646 34.0936 60.9233 33.1086C71.5764 33.9064 81.0824 31.0936 89.4405 24.6699Z" fill="#A9AFB5"/>
<path fill-rule="evenodd" clip-rule="evenodd" d="M89.4399 41.5476C89.4788 41.195 89.6947 40.9787 90.0881 40.8984C90.7193 42.3542 90.9358 43.8688 90.7362 45.4423C92.3947 45.2466 93.9074 45.463 95.273 46.0915C93.5445 46.0915 91.8166 46.0915 90.0881 46.0915C90.2838 44.4301 90.0673 42.9155 89.4399 41.5476Z" fill="#5E6E9C"/>
<path fill-rule="evenodd" clip-rule="evenodd" d="M65.4599 44.1406C65.4177 44.425 65.5253 44.6414 65.7839 44.7897C66.6505 43.9686 67.6226 43.644 68.7004 43.816C68.3764 44.1406 68.0523 44.4651 67.7283 44.7897C67.4042 50.8444 67.2966 56.903 67.4042 62.9652C66.9719 57.4418 66.5403 51.8159 66.108 46.0879C64.1643 46.7213 62.6522 47.8031 61.5712 49.3336C61.5712 49.5499 61.5712 49.7663 61.5712 49.9827C61.3087 50.6642 60.877 50.6642 60.2749 49.9827C59.7409 52.115 59.4168 54.2788 59.3028 56.474C58.4408 57.1763 57.4686 57.6093 56.3862 57.7722C57.2521 56.792 58.0085 55.7099 58.6546 54.5266C58.7609 51.4896 58.7609 48.4603 58.6546 45.4388C59.7176 42.9865 60.4739 42.9865 60.923 45.4388C62.6652 45.6558 64.1772 45.223 65.4599 44.1406Z" fill="#DAE2ED"/>
<path fill-rule="evenodd" clip-rule="evenodd" d="M31.1097 63.6167C31.8137 63.5388 32.2457 63.1058 32.4059 62.3184C31.5923 59.9238 31.5923 57.5441 32.4059 55.178C31.8712 54.6031 31.2231 54.3867 30.4616 54.5289C30.5333 54.1281 30.7493 53.8036 31.1097 53.5552C33.2594 53.2318 35.4197 53.1235 37.5909 53.2307C38.2506 49.8233 36.9545 47.8759 33.7022 47.3885C33.8991 49.1624 33.143 50.2443 31.4337 50.6341C28.3118 48.5192 28.6359 46.8963 32.4059 45.7657C35.842 45.1819 38.7588 46.1556 41.1555 48.6868C41.3713 53.2307 41.5878 57.7745 41.8036 62.3184C43.1575 63.9354 42.7259 64.8007 40.5074 64.9149C39.333 64.9195 38.3608 64.4865 37.5909 63.6167C35.3342 65.296 33.1738 65.296 31.1097 63.6167Z" fill="#1F2F72"/>
<path fill-rule="evenodd" clip-rule="evenodd" d="M95.2736 46.0898C95.8595 46.5501 96.0753 47.1992 95.9217 48.0372C94.1932 48.0372 92.4653 48.0372 90.7368 48.0372C92.4602 47.7663 93.9722 47.1172 95.2736 46.0898Z" fill="#6C7DA2"/>
<path fill-rule="evenodd" clip-rule="evenodd" d="M121.198 63.6131C118.605 64.4783 116.013 64.4783 113.42 63.6131C114.235 61.2924 114.667 58.8043 114.717 56.1481C114.668 53.537 114.236 51.0486 113.42 48.6831C114.932 47.8177 116.445 46.9521 117.957 46.0866C118.39 46.7358 118.821 47.3849 119.253 48.034C120.426 46.7432 121.83 45.8777 123.466 45.4375C125.6 45.8516 126.249 47.1498 125.411 49.3323C123.867 50.2192 122.463 50.0028 121.198 48.6831C120.356 49.0661 119.816 49.7152 119.578 50.6305C119.145 54.7416 119.145 58.853 119.578 62.9639C120.012 63.4521 120.552 63.6689 121.198 63.6131Z" fill="#203171"/>
<path fill-rule="evenodd" clip-rule="evenodd" d="M20.0923 62.9705C20.3037 57.4419 20.0876 52.0326 19.4442 46.7423C19.4192 45.9269 19.7433 45.2777 20.4164 44.7949C20.9506 50.9676 20.8426 57.0264 20.0923 62.9705Z" fill="#AEBCD3"/>
<path fill-rule="evenodd" clip-rule="evenodd" d="M81.6628 45.4375C82.5073 47.291 82.5073 49.2383 81.6628 51.2796C81.2694 51.1994 81.0535 50.9831 81.0146 50.6305C81.6453 49.0415 81.8611 47.3105 81.6628 45.4375Z" fill="#9498B0"/>
<path fill-rule="evenodd" clip-rule="evenodd" d="M86.8472 46.0898C86.8472 51.4992 86.8472 56.9088 86.8472 62.318C86.5892 57.3282 85.9411 52.3516 84.9028 47.3881C85.4583 46.7875 86.1064 46.3548 86.8472 46.0898Z" fill="#586388"/>
<path fill-rule="evenodd" clip-rule="evenodd" d="M130.272 45.4375C132.913 45.7604 135.505 45.7604 138.049 45.4375C138.913 47.3849 138.913 49.3323 138.049 51.2796C136.331 47.2511 133.954 46.602 130.92 49.3323C131.163 50.5545 131.811 51.5282 132.864 52.2533C135.313 53.6243 137.581 55.2471 139.669 57.1218C140.647 60.6991 139.459 63.1879 136.105 64.5867C133.241 64.7049 130.433 64.8126 127.679 64.9113C126.815 62.9639 126.815 61.0165 127.679 59.0692C128.824 62.1304 130.984 63.3203 134.16 62.6394C135.495 61.6702 135.711 60.4804 134.808 59.0692C132.005 57.5061 129.52 55.5587 127.355 53.227C126.923 51.496 126.923 49.765 127.355 48.034C128.435 47.2335 129.408 46.368 130.272 45.4375Z" fill="#1D2F70"/>
<path fill-rule="evenodd" clip-rule="evenodd" d="M14.2586 55.8232C14.8642 56.5164 15.0803 57.3817 14.9067 58.4197C14.3425 60.1152 13.9104 61.8464 13.6105 63.6127C12.6527 63.7828 11.7885 63.5666 11.018 62.9636C8.9341 57.0228 6.66569 51.1808 4.21276 45.4371C3.78066 51.2793 3.78066 57.1214 4.21276 62.9636C4.69911 63.3699 5.23925 63.6945 5.83305 63.9373C3.85364 64.4702 1.90929 64.3624 0 63.6127C0.534696 63.0376 1.18281 62.8214 1.94435 62.9636C1.94435 55.8232 1.94435 48.6828 1.94435 41.5424C1.18281 41.6845 0.534696 41.4682 0 40.8933C2.37645 40.0278 4.75283 40.0278 7.12928 40.8933C9.09502 46.1778 11.2554 51.3708 13.6105 56.4723C14.0037 56.3918 14.2197 56.1756 14.2586 55.8232Z" fill="#192D72"/>
<path fill-rule="evenodd" clip-rule="evenodd" d="M30.4614 54.5247C31.223 54.3825 31.8711 54.5989 32.4058 55.1738C31.5922 57.5399 31.5922 59.9196 32.4058 62.3142C32.2456 63.1016 31.8135 63.5346 31.1095 63.6125C30.7271 60.7576 30.511 57.7281 30.4614 54.5247Z" fill="#11277B"/>
<path fill-rule="evenodd" clip-rule="evenodd" d="M111.477 55.8281C108.363 56.4688 105.122 56.6856 101.755 56.4773C101.755 57.1264 101.755 57.7755 101.755 58.4246C101.15 57.7314 100.933 56.8661 101.107 55.8281C104.563 55.8281 108.02 55.8281 111.477 55.8281Z" fill="#7F92B2"/>
<path fill-rule="evenodd" clip-rule="evenodd" d="M25.9251 41.5469C25.8172 46.5282 25.9253 51.5049 26.2492 56.4768C26.4652 56.693 26.6813 56.9098 26.8973 57.1259C27.1133 56.2606 27.3294 55.3947 27.5454 54.5294C27.9801 55.0176 28.5202 55.2344 29.1657 55.1785C28.3503 57.5375 28.3503 59.9172 29.1657 62.3189C26.6969 59.5218 26.0488 59.9548 27.2213 63.6172C26.5759 63.673 26.0358 63.4562 25.601 62.9681C25.0659 55.7147 25.1739 48.574 25.9251 41.5469Z" fill="#DFE4F3"/>
<path fill-rule="evenodd" clip-rule="evenodd" d="M33.7021 55.1777C34.9983 55.1777 36.2946 55.1777 37.5908 55.1777C37.6977 57.3523 37.5897 59.5159 37.2667 61.669C34.0123 63.8481 32.392 62.8744 32.4059 58.7479C32.573 57.4438 33.005 56.2533 33.7021 55.1777Z" fill="#EAEEF2"/>
<path fill-rule="evenodd" clip-rule="evenodd" d="M67.4043 62.9671C67.6753 63.4358 68.1069 63.7604 68.7006 63.9408C66.3239 64.3738 63.9479 64.3738 61.5713 63.9408C61.9316 63.6922 62.1475 63.3677 62.2194 62.9671C62.6504 60.814 62.8669 58.542 62.8675 56.1513C62.8597 53.6185 62.4275 51.3466 61.5713 49.3355C62.6523 47.805 64.1644 46.7232 66.1081 46.0898C66.5404 51.8178 66.972 57.4437 67.4043 62.9671Z" fill="#122A6F"/>
<path fill-rule="evenodd" clip-rule="evenodd" d="M89.4399 41.543C90.0673 42.9109 90.2837 44.4255 90.088 46.0869C91.8165 46.0869 93.5444 46.0869 95.2729 46.0869C93.9715 47.1142 92.4595 47.7633 90.7361 48.0342C90.6285 52.7994 90.7361 57.5595 91.0602 62.315C92.7466 62.574 94.3669 62.574 95.9211 62.315C93.558 64.9459 90.7497 65.4873 87.4955 63.9378C87.0082 63.5023 86.7917 62.9616 86.8474 62.315C86.8474 56.9059 86.8474 51.4962 86.8474 46.0869C88.2111 44.8718 89.075 43.3571 89.4399 41.543Z" fill="#1A2E71"/>
<path fill-rule="evenodd" clip-rule="evenodd" d="M30.4614 54.5293C30.511 57.7327 30.7271 60.7622 31.1096 63.6171C30.2815 63.434 29.6333 63.0011 29.1652 62.3188C28.3499 59.9171 28.3499 57.5374 29.1652 55.1784C29.5973 54.9623 30.0293 54.7457 30.4614 54.5293Z" fill="#1A306B"/>
<path fill-rule="evenodd" clip-rule="evenodd" d="M65.4594 44.1378C64.1768 45.2202 62.6647 45.653 60.9226 45.4361C60.4734 42.9838 59.7171 42.9838 58.6542 45.4361C58.7605 48.4576 58.7605 51.4869 58.6542 54.5239C58.008 55.7072 57.2516 56.7893 56.3858 57.7695C54.0759 58.3686 51.6992 58.5848 49.2565 58.4186C49.1463 59.2768 49.3621 60.0343 49.9046 60.6906C51.8489 60.9067 53.7933 61.1235 55.7376 61.3397C60.3496 63.6752 60.7813 66.7041 57.0339 70.4275C52.9799 72.6215 48.983 72.5131 45.0437 70.1029C43.5116 67.5233 43.8356 65.2513 46.0159 63.2871C44.9206 60.9989 45.3522 59.0515 47.3121 57.4449C43.6341 53.4129 43.8505 49.7345 47.9602 46.4098C50.7633 45.5234 53.5716 45.1988 56.3858 45.4361C58.0365 41.3612 60.8448 40.1711 64.8113 41.8659C65.3537 42.5223 65.5696 43.2796 65.4594 44.1378Z" fill="#1E2E71"/>
<path fill-rule="evenodd" clip-rule="evenodd" d="M50.5523 47.3887C53.8357 47.4423 55.3478 49.1733 55.0892 52.5817C55.0853 54.7609 54.1131 56.2752 52.1726 57.1256C50.8848 56.701 50.0209 55.8358 49.5802 54.5291C48.9405 51.9489 49.2645 49.5688 50.5523 47.3887Z" fill="#EEF3F5"/>
<path fill-rule="evenodd" clip-rule="evenodd" d="M61.5713 49.9831C61.5713 49.7668 61.5713 49.5503 61.5713 49.334C62.4275 51.3451 62.8597 53.6171 62.8675 56.1498C62.8669 58.5406 62.6504 60.8125 62.2194 62.9657C62.4294 58.5165 62.2136 54.1888 61.5713 49.9831Z" fill="#8C9CC0"/>
<path fill-rule="evenodd" clip-rule="evenodd" d="M81.663 45.4375C81.8613 47.3105 81.6455 49.0415 81.0149 50.6305C79.8813 47.7396 77.8288 46.8741 74.8578 48.034C74.4255 48.8995 74.4255 49.765 74.8578 50.6305C77.5702 52.6396 80.1626 54.8034 82.6352 57.1218C83.9748 62.1804 81.9229 64.7769 76.4781 64.9113C74.4955 64.3518 72.5511 64.3518 70.645 64.9113C69.7811 62.9639 69.7811 61.0165 70.645 59.0692C72.1221 62.1915 74.4987 63.3813 77.7743 62.6394C79.5028 61.3411 79.5028 60.0429 77.7743 58.7446C75.4489 57.2016 73.1805 55.5788 70.9691 53.8761C69.0539 50.1368 70.0261 47.4321 73.8856 45.7621C76.5513 45.675 79.1438 45.5669 81.663 45.4375Z" fill="#20306F"/>
<path fill-rule="evenodd" clip-rule="evenodd" d="M111.476 55.8271C108.02 55.8271 104.563 55.8271 101.106 55.8271C100.932 56.8651 101.149 57.7303 101.754 58.4236C102.894 63.3803 105.487 64.2456 109.532 61.0201C110.369 62.9097 109.721 64.0996 107.587 64.5903C103.125 65.7003 99.7769 64.2943 97.5415 60.371C97.1092 56.9092 97.1092 53.447 97.5415 49.985C102.052 44.005 106.589 44.005 111.152 49.985C111.475 51.9204 111.583 53.8678 111.476 55.8271Z" fill="#1B2E71"/>
<path fill-rule="evenodd" clip-rule="evenodd" d="M101.754 50.6328C101.754 51.7147 101.754 52.7965 101.754 53.8784C103.699 53.8784 105.643 53.8784 107.587 53.8784C105.562 54.5142 103.402 54.7306 101.106 54.5276C100.915 53.0765 101.132 51.7783 101.754 50.6328Z" fill="#606F99"/>
<path fill-rule="evenodd" clip-rule="evenodd" d="M107.587 53.8758C105.643 53.8758 103.699 53.8758 101.754 53.8758C101.754 52.7939 101.754 51.712 101.754 50.6301C101.878 48.0121 103.174 47.0384 105.643 47.7091C107.089 49.4929 107.737 51.5485 107.587 53.8758Z" fill="#F0F4F4"/>
<path fill-rule="evenodd" clip-rule="evenodd" d="M25.9244 41.5454C25.1732 48.5726 25.0652 55.7133 25.6003 62.9666C26.0351 63.4548 26.5752 63.6716 27.2206 63.6157C27.2206 63.8319 27.2206 64.0487 27.2206 64.2649C24.2832 64.4713 21.4747 64.2551 18.7951 63.6157C19.2272 63.3996 19.6593 63.1828 20.0914 62.9666C20.8416 57.0226 20.9497 50.9637 20.4154 44.7911C19.7423 45.2739 19.4182 45.923 19.4432 46.7384C18.2652 50.8187 16.7529 54.7134 14.9064 58.4227C15.08 57.3848 14.864 56.5195 14.2583 55.8262C16.0065 50.6041 17.7349 45.411 19.4432 40.2472C22.0446 40.1397 24.6371 40.248 27.2206 40.5717C26.8679 41.0373 26.4358 41.3619 25.9244 41.5454Z" fill="#1C306C"/>
<path fill-rule="evenodd" clip-rule="evenodd" d="M20.0919 40.8968C21.6194 40.7908 23.1317 40.899 24.6287 41.2213C24.5827 44.2833 24.4747 47.4207 24.3047 50.6337C23.531 49.2553 23.099 47.7406 23.0084 46.0898C22.9004 46.8471 22.7924 47.6044 22.6844 48.3617C22.8712 50.8353 23.0872 53.3236 23.3325 55.8267C23.856 54.5782 24.1801 53.28 24.3047 51.9319C24.8423 55.4138 24.7342 58.8763 23.9806 62.3179C23.3432 58.0805 22.587 58.0805 21.7122 62.3179C21.4962 56.0428 21.2801 49.7682 21.0641 43.4933C20.294 42.803 19.9699 41.9375 20.0919 40.8968Z" fill="#102875"/>
<path fill-rule="evenodd" clip-rule="evenodd" d="M18.7951 63.6152C21.4747 64.2546 24.2831 64.4708 27.2206 64.2644C24.2942 65.116 21.2697 65.116 18.147 64.2644C18.2271 63.8703 18.4431 63.6542 18.7951 63.6152Z" fill="#A3ADD0"/>
<path fill-rule="evenodd" clip-rule="evenodd" d="M113.421 63.6152C116.013 64.4805 118.606 64.4805 121.198 63.6152C121.55 63.6542 121.766 63.8703 121.846 64.2644C118.821 65.1296 115.797 65.1296 112.772 64.2644C112.853 63.8703 113.069 63.6542 113.421 63.6152Z" fill="#A7AFC8"/>
<path fill-rule="evenodd" clip-rule="evenodd" d="M55.7381 65.5621C52.9298 65.5621 50.1209 65.5621 47.3126 65.5621C47.3126 66.4274 47.3126 67.2933 47.3126 68.1586C46.4655 67.0401 46.4655 65.8497 47.3126 64.5884C49.6892 64.1554 52.0652 64.1554 54.4418 64.5884C55.0355 64.7689 55.4672 65.0934 55.7381 65.5621Z" fill="#C8D2E5"/>
<path fill-rule="evenodd" clip-rule="evenodd" d="M55.7385 65.5625C56.7787 67.9123 55.9148 69.319 53.146 69.7818C50.7856 70.4764 48.8412 69.935 47.313 68.159C47.313 67.2937 47.313 66.4278 47.313 65.5625C50.1213 65.5625 52.9302 65.5625 55.7385 65.5625Z" fill="#EAEEF1"/>
</svg>
