<svg width="140" height="24" viewBox="0 0 140 24" fill="none" xmlns="http://www.w3.org/2000/svg">
<g clip-path="url(#clip0_178_1308)">
<path d="M6.73745 23.7045H0V0.38758H11.6579L25.0338 17.7944V0.38758H31.7713V23.7045H20.3534L6.73745 5.99572V23.7045ZM64.0268 16.4882C64.0268 19.7281 63.4647 20.8458 62.532 21.9165C61.1024 23.5118 59.0201 23.9936 55.0113 23.9936H43.5008C39.5004 23.9936 37.4076 23.5118 35.9801 21.9165C35.0474 20.8458 34.4831 19.7281 34.4831 16.4882V7.49465C34.4831 4.25482 35.0474 3.13919 35.9801 2.06638C37.4097 0.479657 39.492 0 43.5008 0H55.0113C59.0116 0 61.1024 0.479657 62.532 2.07709C63.4647 3.14775 64.0268 4.26552 64.0268 7.50535V16.4882ZM54.727 18.0857C56.2682 18.0857 56.8114 17.9936 57.1799 17.6574C57.5484 17.3212 57.6768 16.9272 57.6768 15.5567V8.44111C57.6768 7.07066 57.5252 6.66381 57.1799 6.34261C56.8346 6.02141 56.2682 5.91435 54.727 5.91435H43.7934C42.2543 5.91435 41.7111 6.00428 41.3448 6.34261C40.9784 6.68094 40.8458 7.06638 40.8458 8.44111V15.5567C40.8458 16.9272 40.9974 17.3383 41.3448 17.6574C41.6922 17.9764 42.2543 18.0857 43.7934 18.0857H54.7418M73.8382 0.381156V23.7045H66.7808V0.38758H73.8235M85.7235 0.38758H95.0233L82.4727 11.2934L96.6277 23.7131H86.6773L73.8235 11.5439L85.7235 0.38758ZM97.9352 0.38758H104.98V23.7045H97.9267M131.825 23.7045L129.74 19.636H116.116L114.055 23.7045H106.264L118.76 0.38758H127.517L140 23.7045H131.831M118.566 14.5782H127.325L122.946 6.13704L118.566 14.5782Z" fill="#1C4598"/>
</g>
<defs>
<clipPath id="clip0_178_1308">
<rect width="140" height="24" fill="white"/>
</clipPath>
</defs>
</svg>
