<svg width="140" height="83" viewBox="0 0 140 83" fill="none" xmlns="http://www.w3.org/2000/svg">
<path d="M81.7805 59.6623C81.7805 60.1163 81.7805 60.4795 81.6898 60.9335C81.5992 61.2967 81.5085 61.6599 81.4178 62.0231C81.3271 62.3863 81.1457 62.6587 81.055 62.9311C80.8737 63.2035 80.783 63.3851 80.6923 63.5667C80.4203 63.9299 80.1482 64.2931 79.7855 64.6563C79.4227 65.0195 79.06 65.2919 78.6973 65.5643C78.2438 65.8367 77.7904 66.0183 77.2463 66.109C76.7022 66.2906 76.0674 66.2906 75.4326 66.2906C74.7979 66.2906 74.1631 66.1999 73.619 66.109C73.0749 65.9275 72.6214 65.7459 72.168 65.4735C71.8053 65.2011 71.4425 64.8379 71.2612 64.3839C71.0798 63.9299 70.8984 63.4759 70.8984 62.9311C70.8984 62.0231 71.0798 61.1151 71.4425 60.3887C71.8053 59.5715 72.2587 58.9359 72.8028 58.3003C72.9842 58.0279 73.2562 57.8463 73.5283 57.5739C73.8003 57.3015 74.1631 57.1199 74.6165 56.9383C74.9792 56.7567 75.4326 56.5751 75.9767 56.4843C76.5209 56.3935 77.0649 56.3027 77.6997 56.3027C79.06 56.3027 80.1482 56.5751 80.8737 57.2107C81.4178 57.7555 81.7805 58.6635 81.7805 59.6623ZM79.3321 59.7531C79.3321 59.4807 79.3321 59.2083 79.2414 59.0267C79.1507 58.7543 79.06 58.5727 78.8786 58.3911C78.6973 58.2095 78.5159 58.0279 78.2439 57.9371C77.9718 57.8463 77.6997 57.7555 77.2463 57.7555C76.7929 57.7555 76.4302 57.8463 76.0674 58.0279C75.7047 58.2095 75.342 58.3911 75.0699 58.6635C74.7979 58.9359 74.5258 59.2083 74.2538 59.5715C73.9817 59.9347 73.8003 60.2979 73.7096 60.6611C73.5283 61.0243 73.4376 61.3875 73.3469 61.8415C73.2562 62.2047 73.2562 62.5679 73.2562 62.9311C73.2562 63.2035 73.2562 63.4759 73.3469 63.6575C73.4376 63.9299 73.5283 64.1115 73.7096 64.2931C73.891 64.4747 74.0724 64.5655 74.3444 64.7471C74.6165 64.8379 74.8885 64.9287 75.2513 64.9287C75.7047 64.9287 76.0674 64.8379 76.4302 64.6563C76.7929 64.4747 77.1556 64.2931 77.4277 64.0207C77.6997 63.7483 77.9718 63.4759 78.2439 63.1127C78.4252 62.7495 78.6973 62.3863 78.788 62.0231C78.9693 61.6599 79.06 61.2967 79.1507 60.8427C79.2414 60.3887 79.3321 60.0255 79.3321 59.7531Z" fill="#212529"/>
<path d="M91.0305 61.6599C91.0305 61.9323 91.0305 62.2047 90.9399 62.4771C90.8492 62.7495 90.8492 63.0219 90.6678 63.3851C90.5771 63.6575 90.3958 63.9299 90.3051 64.2023C90.1237 64.4747 89.9423 64.7471 89.761 64.9287C89.3075 65.4735 88.8541 65.7459 88.31 66.0183C87.8566 66.1999 87.2218 66.2906 86.587 66.2906C86.315 66.2906 86.1336 66.2906 85.8615 66.1999C85.6802 66.1999 85.4081 66.1091 85.2268 66.0183C85.0454 65.9275 84.864 65.8367 84.6827 65.6551C84.5013 65.4735 84.4106 65.2919 84.3199 65.1103L83.9572 66.109H81.7808C81.8714 65.7459 82.0528 65.4735 82.0528 65.2011C82.1435 64.9287 82.2342 64.6563 82.3249 64.3839L84.9547 56.3027H87.1311L85.9522 60.0255C86.4057 59.6623 86.7684 59.3899 87.2218 59.2991C87.6752 59.2083 88.038 59.1175 88.31 59.1175C88.8541 59.1175 89.2169 59.2083 89.5796 59.3899C89.9423 59.5715 90.2144 59.7531 90.3958 60.0255C90.5771 60.2979 90.7585 60.5703 90.7585 60.8427C91.0305 61.2059 91.0305 61.3875 91.0305 61.6599ZM88.7634 62.0231C88.7634 61.8415 88.7634 61.6599 88.7634 61.4783C88.7634 61.2967 88.6728 61.1151 88.5821 61.0243C88.4914 60.8427 88.31 60.7519 88.1287 60.6611C87.9473 60.6611 87.6752 60.5703 87.4032 60.5703C87.0404 60.5703 86.6777 60.6611 86.315 60.9335C85.9522 61.2059 85.6802 61.5691 85.4081 62.1139C85.2268 62.3863 85.1361 62.7495 85.0454 63.0219C85.0454 63.2943 84.9547 63.5667 84.9547 63.8391C84.9547 64.0207 84.9547 64.1115 85.0454 64.2931C85.1361 64.4747 85.2268 64.5655 85.3175 64.6563C85.4081 64.7471 85.5895 64.8379 85.7709 64.9287C85.9522 65.0195 86.1336 65.0195 86.4057 65.0195C86.7684 65.0195 87.1311 64.9287 87.4032 64.7471C87.6752 64.5655 87.9473 64.2931 88.1287 64.0207C88.31 63.7483 88.4914 63.3851 88.5821 63.0219C88.7634 62.7495 88.7634 62.3863 88.7634 62.0231Z" fill="#212529"/>
<path d="M98.1944 60.8424C98.1038 60.8424 98.0131 60.8424 97.9224 60.8424C97.8317 60.8424 97.6503 60.8424 97.5596 60.8424C96.8342 60.8424 96.2901 61.024 95.9273 61.2964C95.5646 61.5688 95.2019 62.1136 95.0205 62.7492L93.9323 66.1996H91.7559L93.3882 61.024C93.4789 60.8424 93.4789 60.57 93.5695 60.2976C93.6602 60.0252 93.7509 59.662 93.8416 59.3896H96.018L95.6553 60.57C96.018 60.116 96.4714 59.7528 96.9249 59.5712C97.3783 59.3896 97.8317 59.2988 98.3758 59.2988C98.4665 59.2988 98.4665 59.2988 98.5572 59.2988C98.6479 59.2988 98.6479 59.2988 98.7385 59.2988L98.1944 60.8424Z" fill="#212529"/>
<path d="M100.371 66.1999H98.1943L100.371 59.3899H102.547L100.371 66.1999ZM103.001 58.028H100.733L101.278 56.4844H103.545L103.001 58.028Z" fill="#212529"/>
<path d="M105.63 68.7429H103.544L105.177 66.3822L103.726 59.3906H106.084L106.628 64.4754L109.62 59.3906H111.978L105.63 68.7429Z" fill="#212529"/>
<path d="M118.78 66.1999H116.422L119.505 56.4844H121.863L118.78 66.1999Z" fill="#212529"/>
<path d="M130.387 61.2066C130.387 61.3882 130.387 61.5698 130.296 61.8422C130.206 62.1146 130.206 62.2962 130.115 62.4778L128.936 66.2006H126.76L127.939 62.7502C128.029 62.5686 128.029 62.387 128.12 62.2054C128.211 62.0238 128.211 61.8422 128.211 61.6606C128.211 61.3882 128.12 61.2066 127.939 61.025C127.757 60.8434 127.485 60.7526 127.123 60.7526C126.76 60.7526 126.488 60.8434 126.216 60.9342C125.944 61.025 125.762 61.2066 125.581 61.3882C125.4 61.5698 125.309 61.8422 125.127 62.0238C125.037 62.2962 124.946 62.4778 124.855 62.7502L123.767 66.2914H121.591L123.314 60.8434C123.404 60.6618 123.404 60.4802 123.495 60.2078C123.586 59.9354 123.677 59.7538 123.677 59.4814H125.853L125.581 60.2986C125.944 60.0262 126.306 59.7538 126.669 59.663C127.123 59.4814 127.576 59.3906 128.12 59.3906C128.846 59.3906 129.39 59.5722 129.843 59.9354C130.115 60.117 130.387 60.571 130.387 61.2066Z" fill="#212529"/>
<path d="M140 61.1148C140 61.2964 140 61.478 139.909 61.6596H137.733C137.733 61.478 137.823 61.3872 137.823 61.2056C137.823 60.9332 137.733 60.7516 137.551 60.57C137.37 60.3884 137.098 60.2976 136.735 60.2976C136.463 60.2976 136.191 60.3884 136.01 60.4792C135.828 60.57 135.556 60.6608 135.375 60.8424C135.193 61.024 135.012 61.2056 134.921 61.3872C134.831 61.5688 134.649 61.8412 134.559 62.0228C134.377 62.2952 134.287 62.6584 134.196 62.9308C134.105 63.294 134.105 63.5664 134.105 63.8388C134.105 64.0203 134.105 64.1111 134.196 64.2927C134.287 64.4743 134.287 64.5651 134.377 64.6559C134.468 64.7467 134.649 64.8375 134.74 64.9283C134.921 65.0191 135.103 65.0191 135.284 65.0191C135.828 65.0191 136.191 64.8375 136.554 64.5651C136.916 64.2927 137.098 63.9295 137.279 63.4756H139.456C139.183 64.3835 138.639 65.0191 138.005 65.4731C137.279 65.9271 136.372 66.1087 135.103 66.1087C134.559 66.1087 134.105 66.0179 133.652 65.9271C133.289 65.8363 132.926 65.5639 132.654 65.3823C132.382 65.1099 132.201 64.8375 132.11 64.5651C132.019 64.2927 131.929 63.9295 131.929 63.5664C131.929 62.9308 132.019 62.2952 132.291 61.7504C132.563 61.2056 132.926 60.6608 133.38 60.2976C133.833 59.9344 134.377 59.5712 134.921 59.3896C135.465 59.208 136.191 59.1172 136.916 59.1172C137.37 59.1172 137.732 59.1172 138.095 59.208C138.458 59.2988 138.821 59.3896 139.093 59.5712C139.365 59.7528 139.637 59.9344 139.818 60.2068C139.909 60.4792 140 60.8424 140 61.1148Z" fill="#212529"/>
<path d="M111.616 47.679C108.623 47.679 106.175 45.6814 105.449 42.8666V31.9707H100.734V40.2334V42.5034C101.097 45.7722 102.82 48.587 105.449 50.4029C107.172 51.5833 109.349 52.3097 111.616 52.3097C112.523 52.3097 113.43 52.2189 114.246 51.9465V47.1342C113.43 47.4974 112.614 47.679 111.616 47.679Z" fill="#152356"/>
<path d="M121.047 31.9707H116.332V52.1281H121.047V31.9707Z" fill="#152356"/>
<path d="M98.2854 31.9707H93.5698V52.1281H98.2854V31.9707Z" fill="#152356"/>
<path d="M98.1947 29.4284C98.1947 26.5228 100.552 24.162 103.454 24.162C106.356 24.162 108.714 26.5228 108.714 29.4284H113.339C113.339 23.9804 108.895 19.5312 103.454 19.5312C98.0133 19.5312 93.5698 23.9804 93.5698 29.4284H98.1947Z" fill="#152356"/>
<path d="M80.9642 31.9707C75.3418 31.9707 70.8076 36.5107 70.8076 42.1402C70.8076 42.4126 70.8076 42.685 70.8076 42.9574V55.2153H75.5232V53.8533V50.6753V43.2298V40.869C76.0673 38.4174 78.2437 36.5107 80.8735 36.5107C83.9568 36.5107 86.4053 38.9622 86.4053 42.0494C86.4053 45.1366 83.9568 47.5882 80.8735 47.5882C79.604 47.5882 78.5158 47.225 77.6089 46.4986V51.6741C78.6064 52.0373 79.6947 52.2189 80.8735 52.2189C86.496 52.2189 91.0302 47.679 91.0302 42.0494C91.0302 36.4199 86.496 31.9707 80.9642 31.9707Z" fill="#152356"/>
<path d="M58.203 52.2173C52.5806 52.2173 48.0464 47.6773 48.0464 42.0477C48.0464 41.7753 48.0464 41.503 48.0464 41.2306V28.9727H52.762V30.3346V33.5126V40.9582V43.3189C53.3061 45.7705 55.4825 47.6773 58.1123 47.6773C61.1956 47.6773 63.644 45.2257 63.644 42.1385C63.644 39.0514 61.1956 36.5998 58.1123 36.5998C56.8427 36.5998 55.7545 36.963 54.8477 37.6894V32.5138C55.8452 32.1506 56.9334 31.969 58.1123 31.969C63.7347 31.969 68.2689 36.509 68.2689 42.1385C68.2689 47.7681 63.7347 52.2173 58.203 52.2173Z" fill="#152356"/>
<path d="M26.7357 14.2637C16.307 14.2637 7.78271 22.708 7.78271 33.2407C7.78271 43.7734 16.2163 52.2177 26.7357 52.2177C37.255 52.2177 45.6887 43.7734 45.6887 33.2407C45.6887 22.708 37.255 14.2637 26.7357 14.2637ZM26.7357 47.587C18.8462 47.587 12.4076 41.1402 12.4076 33.2407C12.4076 25.3412 18.8462 18.8944 26.7357 18.8944C34.6252 18.8944 41.0638 25.3412 41.0638 33.2407C41.0638 41.1402 34.6252 47.587 26.7357 47.587Z" fill="#152356"/>
<path d="M58.0216 40.1399L30.9071 42.1375L32.6301 41.7743C33.6276 41.2295 33.9903 39.9583 33.3555 38.9595C33.0835 38.5963 32.7207 38.3239 32.358 38.2331L35.804 36.4171C36.8015 35.8723 37.1643 34.6011 36.5295 33.6023C35.9854 32.7852 34.8065 32.5128 33.9903 32.9668L0.618585 50.491C0.0744806 50.7634 -0.197571 51.4898 0.165165 52.0346C0.437217 52.5794 1.16269 52.8518 1.70679 52.4886L2.97637 51.853L3.33911 52.5794L20.8411 43.4087C20.8411 43.7719 20.9318 44.0443 21.1132 44.4075C21.6573 45.2246 22.8362 45.497 23.6523 45.043L24.4685 44.4983C25.1033 45.1338 26.0101 45.497 27.0076 45.497C27.0983 45.497 27.0983 45.497 27.189 45.497H27.2797C27.3704 45.497 27.3704 45.497 27.4611 45.497L55.1197 42.8639C56.2986 42.7731 57.3868 42.0467 57.9309 40.9571L58.1123 40.6847C58.475 40.4123 58.2937 40.1399 58.0216 40.1399Z" fill="#152356"/>
</svg>
