<svg width="140" height="47" viewBox="0 0 140 47" fill="none" xmlns="http://www.w3.org/2000/svg">
<g clip-path="url(#clip0_178_1214)">
<path d="M139.912 11.1898C138.009 0.136935 105.166 -3.31232 66.5533 3.48536C50.3374 6.34165 35.6952 10.5545 24.2926 15.2941C26.0441 15.3328 27.3432 15.739 28.1325 16.535C28.7496 17.1597 29.0613 18.0171 29.0613 19.0853V20.1817H25.275V19.2136C25.275 18.407 24.7967 17.9071 23.9495 17.9071C23.2376 17.9071 22.799 18.2321 22.6574 18.8723C22.61 19.1254 22.6152 19.3857 22.6728 19.6367C23.0779 21.3112 28.7001 22.3512 29.3116 25.4416C29.3918 25.8393 29.5006 26.6903 29.329 27.908C28.9783 30.4004 26.8125 31.3622 24.0555 31.3622C20.2072 31.3622 18.6439 29.5191 18.6439 26.978L18.6467 25.7758H22.7056L22.7076 27.2734C22.7076 28.1153 23.3129 28.5799 24.1371 28.5799C24.918 28.5799 25.374 28.2619 25.5316 27.6118C25.6048 27.3129 25.6369 26.8722 25.5037 26.5352C24.7528 24.63 19.5029 23.7402 18.8566 20.6597C18.7122 19.9673 18.7004 19.3779 18.8203 18.6326C18.8818 18.2632 18.995 17.9045 19.1564 17.5672C6.50843 23.5484 -0.89041 30.1297 0.0871767 35.8119C1.99284 46.8662 34.8347 50.3119 73.4466 43.5142C90.4198 40.5268 105.679 36.0545 117.292 31.0428C117.124 31.0512 116.961 31.0695 116.787 31.0695C114.144 31.0695 111.785 30.0683 111.54 27.3368C111.497 26.8398 111.489 26.6318 111.487 26.3483L111.489 20.0689C111.489 19.7981 111.52 19.3229 111.55 19.0775C111.863 16.4377 113.927 15.3491 116.788 15.3491C119.002 15.3491 121.717 15.9914 122.015 19.0796C122.055 19.4674 122.051 19.8813 122.05 20.0174V20.6104H118.226V19.7255C118.226 19.7065 118.22 19.3758 118.179 19.1692C118.116 18.854 117.85 18.1236 116.761 18.1236C115.685 18.1236 115.406 18.8554 115.336 19.1699C115.297 19.3426 115.278 19.5908 115.278 19.8658V26.6903C115.274 26.9272 115.286 27.1126 115.31 27.2487C115.329 27.3559 115.522 28.2965 116.774 28.2965C118.017 28.2965 118.21 27.3559 118.227 27.2487C118.26 27.064 118.264 26.844 118.263 26.6903V24.5758H116.758V22.2983H122.079V26.3497C122.078 26.6254 122.074 26.8292 122.028 27.3368C121.963 28.0532 121.74 28.6596 121.39 29.1778C133.706 23.2643 140.877 16.7895 139.912 11.1898ZM39.791 30.7791L37.854 17.4699H37.7842L35.7977 30.7791H31.7151L34.461 15.7488H41.1221L43.8513 30.7791H39.791ZM59.4278 30.7791L59.3379 17.7273H59.2723L56.8702 30.7791H53.0386L50.6484 17.7273H50.58L50.4929 30.7791H46.6962L47.0253 15.7488H53.1321L54.9101 26.9138H54.9973L56.7803 15.7488H62.8842L63.212 30.7791H59.4278ZM77.3068 27.8664C76.8982 30.7776 74.0777 31.2867 72.0842 31.2867C68.7742 31.2867 66.727 29.8561 66.727 26.9448L66.729 25.7575H70.7391L70.7419 27.2367C70.7419 28.0398 71.3018 28.5313 72.1664 28.5313C72.9376 28.5313 73.3895 28.2182 73.5464 27.5752C73.6189 27.2755 73.6489 26.8384 73.5206 26.5084C72.7814 24.6392 67.5728 23.7233 66.9396 20.6908C66.7946 20.0033 66.7841 19.4195 66.9034 18.682C67.344 15.9329 69.9533 15.3618 72.0535 15.3618C73.932 15.3618 75.2993 15.7763 76.1193 16.6055C76.7308 17.2246 77.0404 18.0742 77.0404 19.1311V20.2155H73.2905V19.2587C73.2905 18.4394 72.7877 17.9656 71.9796 17.9656C71.2628 17.9656 70.8291 18.2878 70.6868 18.9217C70.6406 19.1722 70.6468 19.4296 70.7049 19.6776C71.1066 21.3444 76.6792 22.3632 77.2894 25.4247C77.3681 25.8153 77.4762 26.6536 77.3068 27.8664ZM91.1952 26.5006C91.2008 26.7827 91.1736 27.346 91.1583 27.4906C90.9296 29.9668 89.178 31.2254 85.9656 31.2254C82.7407 31.2254 80.9877 29.9668 80.7604 27.4906C80.7347 27.1622 80.7223 26.8329 80.7235 26.5034V15.7453H84.5599V26.8426C84.5557 27.0908 84.5683 27.2741 84.5927 27.4017C84.6401 27.6485 84.8827 28.4495 85.9656 28.4495C87.045 28.4495 87.2877 27.6478 87.3386 27.4045C87.3602 27.2734 87.3734 27.0809 87.3734 26.8419V15.7453H91.1952V26.5006ZM107.724 30.6261H102.386L98.8025 18.7208H98.7426L98.9413 30.6261H95.2206V15.7488H100.783L104.095 27.1853H104.172L103.976 15.7488H107.724V30.6261Z" fill="#2D4F9E"/>
</g>
<defs>
<clipPath id="clip0_178_1214">
<rect width="140" height="47" fill="white"/>
</clipPath>
</defs>
</svg>
