<svg width="140" height="140" viewBox="0 0 140 140" fill="none" xmlns="http://www.w3.org/2000/svg">
<g clip-path="url(#clip0_188_4583)">
<path fill-rule="evenodd" clip-rule="evenodd" d="M14.8752 68.9652V78.4217C14.8752 79.7218 15.3814 80.0827 15.6698 80.0827C16.139 80.0827 16.4636 79.2882 16.4636 78.4217V70.5529C16.4636 68.1706 15.8862 67.2322 15.1279 66.0774L11.3744 60.3737C10.1106 58.4969 9.82227 56.403 9.82227 53.7316V44.1298C9.82227 40.592 10.0387 35.1055 13.5765 35.1055H17.7637C21.3023 35.1055 21.5187 40.592 21.5187 44.1298V50.7726H16.4643V42.3257C16.4643 41.4592 16.1397 40.6653 15.6705 40.6653C15.3821 40.6653 14.8759 41.0263 14.8759 42.3257V49.6171C14.8759 52.5049 15.2013 52.7939 15.9951 54.094L19.6412 60.0861C20.796 61.9628 21.5187 63.6232 21.5187 67.1603V76.6175C21.5187 80.1547 21.3023 85.6419 17.7637 85.6419H13.5765C10.0387 85.6419 9.82227 80.1547 9.82227 76.6175V68.9652H14.8752ZM38.194 44.1298C38.194 40.592 38.4104 35.1055 41.949 35.1055H46.1369C49.674 35.1055 49.8904 40.592 49.8904 44.1298V76.6168C49.8904 80.1539 49.674 85.6412 46.1369 85.6412H41.949C38.4104 85.6412 38.194 80.1539 38.194 76.6168V44.1298ZM44.8368 42.325C44.8368 41.4585 44.5114 40.6646 44.0422 40.6646C43.7531 40.6646 43.2476 41.0256 43.2476 42.325V78.4217C43.2476 79.7218 43.7531 80.0827 44.0422 80.0827C44.5114 80.0827 44.8368 79.2882 44.8368 78.4217V42.325ZM78.2629 76.6168C78.2629 80.1539 78.0472 85.6412 74.5079 85.6412H70.3214C66.7843 85.6412 66.5672 80.1539 66.5672 76.6168V44.1298C66.5672 40.592 66.7843 35.1055 70.3214 35.1055H74.5079C78.0472 35.1055 78.2629 40.592 78.2629 44.1298V51.2767H73.2085V42.325C73.2085 41.4585 72.8839 40.6646 72.4154 40.6646C72.1263 40.6646 71.6208 41.0256 71.6208 42.325V78.4217C71.6208 79.7218 72.1256 80.0827 72.4154 80.0827C72.8839 80.0827 73.2085 79.2882 73.2085 78.4217V67.9541H78.2629V76.6168ZM124.214 85.6412L122.48 66.9431H122.12V85.6412H117.066V35.1055H125.007C128.547 35.1055 128.762 40.592 128.762 44.1298V59.7963C128.762 61.1675 128.727 64.4882 126.923 65.9328L129.412 85.6412H124.214ZM122.77 61.384C123.312 61.384 123.709 60.4456 123.709 58.8579V43.1907C123.709 41.603 123.312 40.6646 122.77 40.6646H122.12V61.384H122.77Z" fill="black"/>
<path fill-rule="evenodd" clip-rule="evenodd" d="M6.17627 92.7081H81.4326L82.5162 87.7859H6.17627V92.7081ZM111.534 87.7852L112.429 92.7073H133.823V87.7852H111.534Z" fill="#2860AA"/>
<path fill-rule="evenodd" clip-rule="evenodd" d="M6.17676 97.5862H80.3581L81.4432 92.6641H6.17676V97.5862ZM112.423 92.6641L113.316 97.5862H133.823V92.6641H112.423Z" fill="#CC2229"/>
<path fill-rule="evenodd" clip-rule="evenodd" d="M6.17676 102.462H79.2839L80.3676 97.5391H6.17676V102.462ZM113.308 97.5391L114.205 102.462H133.824V97.5391H113.308Z" fill="#33A457"/>
<path fill-rule="evenodd" clip-rule="evenodd" d="M97.2318 42.1459L98.6713 50.529L96.4655 46.6004L97.2318 42.1459ZM100.275 59.8613L103.911 81.0229L94.2801 68.2545L100.275 59.8613ZM105.352 89.4118L108.405 107.175L111.439 106.654L98.7541 32.8281H95.7196L83.0347 106.654L86.0692 107.175L86.1404 106.762L105.352 89.4118ZM86.9887 101.826L92.314 70.7944L104.081 86.4085L86.9887 101.826ZM93.463 64.1007L95.6346 51.4492L98.6692 56.813L93.463 64.1007Z" fill="black"/>
</g>
<defs>
<clipPath id="clip0_188_4583">
<rect width="140" height="140" fill="white"/>
</clipPath>
</defs>
</svg>
