<svg width="100" height="110" viewBox="0 0 100 110" fill="none" xmlns="http://www.w3.org/2000/svg">
<g clip-path="url(#clip0_188_3682)">
<path d="M80.2495 80.2121C79.1008 80.4994 77.9578 80.8106 76.8019 81.067C75.7435 81.3017 74.6712 81.4772 73.5744 81.6381C74.2585 81.1916 74.9815 80.799 75.6862 80.3776C78.4088 78.7495 80.88 76.8041 83.1495 74.6327C85.3866 72.4922 87.4204 70.1777 89.1953 67.6511C91.1124 64.922 92.7394 62.0394 93.9838 58.9771C95.6365 54.9099 96.7354 50.7008 97.164 46.3296C97.4345 43.57 97.4575 40.8122 97.2135 38.0642C96.8975 34.5034 96.2036 31.0006 95.0046 27.6059C94.0937 25.0271 93.0507 22.5039 91.64 20.1376C91.5152 19.9284 91.2765 19.7828 91.0696 19.5803C91.0232 19.4892 90.9979 19.4256 90.9694 19.3161C90.8021 18.7363 90.638 18.2023 90.4699 17.6263C90.3668 17.327 90.2677 17.0697 90.1604 16.7676C90.0232 16.4248 89.8943 16.1267 89.7605 15.7885C89.6693 15.5821 89.5829 15.4159 89.4914 15.2074C89.23 14.7736 88.9738 14.3821 88.6895 13.9592C88.4454 13.7208 88.2294 13.5138 87.9969 13.2728C87.8256 13.0857 87.6708 12.9325 87.4833 12.7471C87.1808 12.5491 86.9109 12.3834 86.6214 12.1809C86.3133 11.955 86.0248 11.7658 85.7047 11.5432C85.2249 11.2742 84.7766 11.0386 84.2845 10.7868C84.0338 10.6544 83.8269 10.5384 83.6084 10.3821C83.434 10.1367 83.2875 9.91696 83.1058 9.72904C81.1512 7.70692 78.875 6.04714 76.5678 4.44C75.3782 3.61132 74.0406 2.97979 72.7588 2.27824C72.3577 2.05874 71.9203 1.90151 71.5508 1.70898C72.8644 1.94373 74.1355 2.1497 75.387 2.43566C77.016 2.80785 78.6294 3.24355 80.2694 3.68668C80.7589 4.01271 81.2552 4.27057 81.6936 4.6006C84.7684 6.9156 87.4352 9.62945 89.7669 12.6347C92.9485 16.7353 95.4967 21.1766 97.2243 26.0489C98.7145 30.2511 99.5895 34.5611 99.8856 38.9891C99.8989 39.1877 100.042 39.3781 100.125 39.5723C100.125 40.1397 100.125 40.7072 100.088 41.355C99.5238 42.2809 99.7633 43.1917 99.8327 44.0809C99.8513 44.3183 100.023 44.5445 100.125 44.7758C100.125 44.8296 100.125 44.8834 100.094 45.007C99.9166 45.4371 99.6885 45.7876 99.6421 46.1594C99.53 47.0568 99.5569 47.9713 99.4317 48.8662C98.975 52.1306 98.1249 55.2979 96.9768 58.4036C95.9131 61.2812 94.5715 64.0215 92.9731 66.646C91.373 69.2732 89.5037 71.7186 87.3866 73.9765C85.3058 76.1956 83.218 78.4161 80.4977 79.9492C80.3966 80.0062 80.3314 80.1231 80.2495 80.2121Z" fill="#AE0809"/>
<path d="M80.2695 3.68652C82.7753 4.48798 85.3468 5.21558 87.8132 6.19228C90.0896 7.09379 92.2446 8.28009 94.4712 9.3039C95.237 9.65603 95.4684 10.3249 95.7271 10.9858C97.0109 14.2661 97.9527 17.6437 98.5941 21.0909C98.9836 23.1837 99.2338 25.3025 99.4923 27.4158C99.6692 28.8624 99.7504 30.32 99.8829 31.7719C99.8925 31.8775 99.9716 31.9771 100.072 32.0744C100.125 34.5325 100.125 36.9956 100.125 39.5154C100.042 39.3779 99.899 39.1875 99.8857 38.989C99.5896 34.5609 98.7146 30.251 97.2245 26.0487C95.4968 21.1764 92.9486 16.7352 89.767 12.6346C87.4353 9.62929 84.7685 6.91544 81.6937 4.60044C81.2553 4.27041 80.759 4.01255 80.2695 3.68652Z" fill="#A90708"/>
<path d="M57.5704 0.118164C57.7504 0.198625 57.8721 0.342707 58.0016 0.349572C59.1282 0.409306 60.2563 0.444442 61.4546 0.515844C61.6003 0.531166 61.6753 0.517534 61.7503 0.503901C61.9261 0.500626 62.1019 0.49735 62.3499 0.518721C62.4497 0.564135 62.4787 0.582863 62.5091 0.599551C62.5091 0.599551 62.502 0.601603 62.5232 0.637258C62.7386 0.768647 62.9234 0.896441 63.1291 0.953877C63.6659 1.1038 64.2254 1.18521 64.7523 1.36026C69.0866 2.80007 73.0651 4.88891 76.7148 7.56633C76.8846 7.69088 76.9903 7.89731 77.0753 8.06961C76.3497 7.92716 75.6747 7.7807 74.955 7.61368C73.9841 7.3965 73.0579 7.19989 72.1029 6.96373C71.5079 6.82092 70.9417 6.71766 70.3603 6.57781C70.1815 6.39315 70.0411 6.20237 69.8499 6.10449C69.06 5.70008 68.2581 5.31733 67.4546 4.93838C64.5724 3.57894 61.5192 2.71085 58.3951 2.0833C54.4837 1.2976 50.5278 1.13012 46.5469 1.44205C43.5496 1.67691 40.5897 2.15358 37.754 3.10926C35.3236 3.92831 32.9625 4.9435 30.5897 5.91543C30.1778 6.08414 29.8605 6.46906 29.4561 6.76956C29.2338 6.8283 29.0548 6.8716 28.8284 6.91827C27.8957 7.15453 27.0103 7.38742 26.076 7.61435C25.3044 7.84282 24.5817 8.07725 23.8101 8.31472C23.311 8.46234 22.8609 8.60691 22.3724 8.77352C22.0082 8.91711 21.6824 9.03866 21.3183 9.16708C21.2289 9.18248 21.1778 9.19101 21.1392 9.15984C21.4567 8.79533 21.7234 8.4244 22.0727 8.15285C25.4546 5.52315 29.1613 3.42383 33.1788 1.83892C33.7877 1.59872 34.3933 1.35088 35.0004 1.10658C35.0547 1.09956 35.1091 1.09255 35.2428 1.10195C35.5483 1.07409 35.7744 1.02982 36.0004 0.985546C37.0984 0.858773 38.1932 0.686911 39.2949 0.61536C41.1358 0.495812 42.9812 0.442404 44.8243 0.35274C44.9315 0.347522 45.0348 0.267178 45.1325 0.16998C48.9193 0.118164 52.7136 0.118164 56.5817 0.124639C56.6554 0.131114 56.7042 0.134724 56.7042 0.134724L56.7501 0.118164C57.0053 0.118164 57.2605 0.118164 57.5704 0.118164Z" fill="#B60A0A"/>
<path d="M44.3083 110.121C44.1255 108.611 43.9976 107.101 43.8796 105.59C43.858 105.313 43.8765 105.034 43.8765 104.845C44.3417 104.672 44.9109 104.634 45.0742 104.366C45.4809 103.696 45.8542 102.944 45.9708 102.186C46.3283 99.863 46.5587 97.5221 46.8432 95.1494C49.5763 95.1494 52.3576 95.1494 55.2499 95.1494C55.2499 95.379 55.2499 95.61 55.2499 95.8409C55.25 98.4007 55.2446 100.96 55.256 103.52C55.2577 103.891 55.3401 104.261 55.3914 104.682C55.8645 104.682 56.2726 104.682 56.7918 104.682C56.607 106.507 56.4293 108.262 56.2508 110.069C55.6638 110.121 55.0777 110.121 54.4332 110.065C54.3333 109.152 54.2442 108.294 54.2667 107.438C54.2815 106.876 53.9991 106.738 53.5365 106.737C51.3571 106.73 49.1777 106.736 46.9983 106.731C46.5253 106.73 46.3789 106.934 46.361 107.391C46.3253 108.303 46.2084 109.211 46.125 110.121C45.5388 110.121 44.9527 110.121 44.3083 110.121ZM49.4853 97.174C49.3658 97.2709 49.1585 97.355 49.1412 97.4666C49.0294 98.191 48.9617 98.9216 48.8743 99.6496C48.7632 100.576 48.7005 101.512 48.5168 102.424C48.3665 103.171 48.0696 103.891 47.8209 104.675C49.1951 104.675 50.5825 104.654 51.9686 104.686C52.5077 104.698 52.6381 104.496 52.6335 104.014C52.6134 101.92 52.6259 99.8259 52.6229 97.732C52.6227 97.559 52.595 97.3861 52.5766 97.173C51.5515 97.173 50.5768 97.173 49.4853 97.174Z" fill="#B70914"/>
<path d="M0.125488 90.8155C4.03911 90.7588 7.95273 90.7588 12.0243 90.7588C12.0691 91.5056 12.1132 92.24 12.1615 93.044C10.5736 93.044 9.08426 93.044 7.53228 93.044C7.53228 97.6111 7.53228 102.116 7.53228 106.677C6.55063 106.677 5.63088 106.677 4.64638 106.677C4.64638 102.168 4.64638 97.6628 4.64638 93.058C3.13734 93.058 1.69 93.058 0.18407 93.058C0.125488 92.3294 0.125488 91.6008 0.125488 90.8155Z" fill="#B70914"/>
<path d="M80.2983 80.2183C80.3309 80.1226 80.3961 80.0057 80.4973 79.9487C83.2175 78.4156 85.3053 76.1951 87.3861 73.976C89.5032 71.7181 91.3726 69.2726 92.9726 66.6454C94.571 64.021 95.9126 61.2807 96.9764 58.4031C98.1245 55.2974 98.9746 52.1301 99.4312 48.8657C99.5564 47.9707 99.5295 47.0563 99.6416 46.1589C99.6881 45.7871 99.9162 45.4366 100.093 45.0469C100.124 45.7459 100.124 46.4746 100.124 47.2599C100.043 47.4016 99.8968 47.4814 99.8888 47.5726C99.789 48.708 99.7315 49.8471 99.6182 50.981C99.4933 52.2311 99.3203 53.4766 99.1723 54.7245C99.144 54.9631 99.1344 55.2038 99.0909 55.5178C99.043 55.6203 99.0223 55.6499 99.0035 55.6808C98.7526 57.338 98.5017 58.9951 98.204 60.724C97.9491 61.3996 97.8033 62.0325 97.521 62.602C96.7134 64.2319 95.8957 65.8603 94.9946 67.4426C94.2942 68.6726 93.5182 69.8709 92.6747 71.0134C91.7096 72.3206 90.6875 73.5972 89.5894 74.801C88.4004 76.1045 87.3343 77.5523 85.6881 78.4028C85.5557 78.4712 85.4776 78.6382 85.3743 78.7594C84.3265 79.0854 83.282 79.4218 82.2297 79.7336C81.6087 79.9176 80.9754 80.0626 80.2983 80.2183Z" fill="#A90708"/>
<path d="M100.125 44.7178C100.023 44.5432 99.8513 44.317 99.8327 44.0796C99.7633 43.1904 99.5238 42.2796 100.088 41.4102C100.125 42.4778 100.125 43.5694 100.125 44.7178Z" fill="#A90708"/>
<path d="M56.7186 0.118164C56.7499 0.118164 56.704 0.13489 56.704 0.13489C56.704 0.13489 56.6552 0.131244 56.64 0.124704C56.6249 0.118164 56.6874 0.118164 56.7186 0.118164Z" fill="#AF0809"/>
<path d="M46.1108 83.5043C43.9869 83.4206 41.8591 83.3889 39.7403 83.2379C37.76 83.0967 35.7894 82.8289 33.7606 82.5407C33.3303 82.3268 32.9435 82.2105 32.5792 82.0473C31.3532 81.4981 30.1256 80.9509 28.9162 80.3687C26.4067 79.1608 24.0912 77.6371 21.9338 75.9317C20.1212 74.4989 18.4623 72.8735 16.8204 71.2526C15.7902 70.2356 14.8503 69.1161 13.9876 67.9603C12.1945 65.5577 10.5701 63.0533 9.28047 60.3489C7.77112 57.1838 6.64608 53.8949 5.94455 50.4897C5.27753 47.252 4.87293 43.9712 5.12489 40.6515C5.25587 38.9258 5.28499 37.184 5.55742 35.4789C6.48398 29.68 8.46715 24.2349 11.6548 19.2238C11.7995 18.9965 12.0489 18.8315 12.2535 18.6777C12.2596 18.7717 12.2617 18.8255 12.2387 18.9162C12.1584 19.1738 12.1031 19.3946 12.0307 19.6637C11.9599 20.119 11.9062 20.5259 11.8303 20.9758C11.7654 21.3487 11.7226 21.6786 11.6656 22.0559C11.6253 22.4792 11.5991 22.8552 11.5574 23.2763C11.5372 23.6556 11.5326 23.9899 11.5212 24.3723C11.5073 24.55 11.5002 24.6795 11.4534 24.8234C11.2332 25.0752 10.9991 25.2899 10.88 25.5533C8.6039 30.5875 7.50555 35.8861 7.41602 41.3513C7.37669 43.7523 7.68855 46.1717 8.00613 48.5621C8.53907 52.5734 9.8751 56.3747 11.6991 59.9962C13.1695 62.9157 14.9803 65.6368 17.1432 68.1445C18.9243 70.2095 20.8274 72.1437 22.9854 73.8295C27.5909 77.4271 32.7103 80.0665 38.4201 81.6599C43.5567 83.0933 48.7772 83.3947 54.0626 83.0214C58.6334 82.6985 62.997 81.5284 67.1904 79.7657C71.6803 77.8785 75.7047 75.2936 79.2649 72.0428C81.7404 69.7824 83.9182 67.2798 85.7909 64.5202C88.0147 61.2435 89.6942 57.7321 90.8914 53.993C91.951 50.6837 92.5766 47.2964 92.7277 43.8422C92.8404 41.2667 92.8447 38.6778 92.3162 36.1331C91.8822 34.0438 91.3599 31.9717 90.8849 29.847C91.0473 29.2266 91.2016 28.6511 91.3616 28.024C91.363 27.7647 91.3586 27.5571 91.3778 27.3071C91.4321 27.0102 91.4627 26.7557 91.5158 26.4597C91.5743 26.1642 91.6105 25.91 91.6856 25.6724C91.8135 25.795 91.9442 25.8879 91.9851 26.0091C92.5408 27.6538 93.1912 29.2777 93.603 30.9563C94.1063 33.0076 94.5425 35.0923 94.7592 37.1867C95.0028 39.5396 95.1413 41.9285 95.0079 44.2849C94.873 46.6661 94.4657 49.0497 93.9702 51.3911C93.0706 55.6424 91.4027 59.6231 89.2072 63.4169C87.1746 66.9291 84.6434 70.0621 81.7218 72.886C80.1555 74.3998 78.3991 75.7501 76.6183 77.0306C73.3141 79.4064 69.8136 81.4629 65.7965 82.5499C65.6866 82.5797 65.5983 82.6841 65.4999 82.7536C64.9769 82.8395 64.457 82.9629 63.9303 83.004C62.5919 83.1084 61.251 83.1881 59.9099 83.2556C58.0711 83.3482 56.2319 83.45 54.3915 83.4942C51.7155 83.5585 49.0383 83.575 46.2819 83.5874C46.1731 83.5413 46.1427 83.5217 46.1108 83.5043Z" fill="#B50A0A"/>
<path d="M0.778519 47.5625C0.771624 46.9532 0.764728 46.3439 0.796741 45.6563C0.814075 45.3909 0.792502 45.2037 0.770929 45.0165C0.766107 43.0358 0.761285 41.0552 0.796408 38.9968C0.815003 38.6926 0.793654 38.4662 0.772305 38.2398C0.768768 37.8713 0.765231 37.5029 0.786751 37.0593C0.834116 36.9566 0.853938 36.9274 0.871275 36.8966C0.874616 36.8088 0.877958 36.721 0.918617 36.5702C0.936443 36.3587 0.916952 36.2101 0.897461 36.0616C0.893204 35.8131 0.888946 35.5646 0.90947 35.2425C0.957095 35.1408 0.97758 35.1112 0.995703 35.08C0.999263 34.9545 1.00282 34.8289 1.04747 34.6313C1.09913 34.2497 1.10969 33.94 1.12025 33.6304C1.12393 33.5423 1.1276 33.4542 1.17645 33.3005C1.31063 33.0611 1.45762 32.8939 1.4798 32.7125C1.74498 30.5427 2.28956 28.44 3.01925 26.3752C4.70959 21.5919 7.11375 17.1758 10.2399 13.1275C11.9233 10.9477 13.7765 8.90903 15.8143 7.03692C16.7301 6.19547 17.7401 5.44815 18.7277 4.68264C19.0771 4.41175 19.4868 4.21367 19.869 3.98235C19.869 3.98235 19.871 3.99028 19.8903 3.97597C19.9402 3.9407 19.9693 3.91809 19.997 3.89385C22.05 3.4181 24.1029 2.94165 26.1565 2.46841C26.275 2.44111 26.3999 2.43989 26.5488 2.46682C25.9779 2.78051 25.3443 2.99895 24.788 3.33668C22.1746 4.92328 19.715 6.71042 17.5408 8.83742C16.2418 10.1081 14.9336 11.3793 13.7456 12.7448C11.8136 14.9657 10.1342 17.3608 8.67849 19.9121C7.27318 22.375 6.10876 24.9377 5.21291 27.5973C3.29656 33.2865 2.54871 39.1289 2.9824 45.1162C3.2475 48.7761 3.94124 52.3492 5.09135 55.8329C6.35737 59.6678 8.09604 63.2957 10.3981 66.6645C12.1359 69.2074 14.0016 71.6457 16.2699 73.7745C17.1809 74.6294 18.0749 75.5044 19.028 76.3134C21.1403 78.1062 23.2941 79.85 25.8834 80.9934C26.0245 81.0557 26.1289 81.1962 26.2504 81.3003C25.0077 81.0478 23.7613 80.8115 22.5238 80.5373C21.6242 80.3381 20.7364 80.0887 19.7732 79.8358C19.6746 79.7879 19.6444 79.7682 19.6125 79.7509C19.6125 79.7509 19.5556 79.7426 19.5062 79.7018C18.5408 78.9751 17.6006 78.3169 16.7132 77.5976C14.5524 75.8459 12.7024 73.7974 10.9553 71.6732C8.78701 69.0368 6.94714 66.1892 5.41846 63.1526C3.55055 59.4422 2.0385 55.6269 1.46216 51.5059C1.38956 50.9868 1.17148 50.4868 1.02081 49.978C1.01326 49.8886 1.0057 49.7991 1.01689 49.6221C0.989032 49.158 0.942435 48.7814 0.895837 48.4049C0.888776 48.2008 0.881715 47.9968 0.859496 47.7191C0.824367 47.6164 0.802427 47.5887 0.778519 47.5625Z" fill="#AF0809"/>
<path d="M26.2948 81.3217C26.1292 81.1951 26.0249 81.0546 25.8837 80.9923C23.2945 79.8489 21.1406 78.1051 19.0284 76.3123C18.0752 75.5033 17.1813 74.6283 16.2703 73.7733C14.002 71.6446 12.1362 69.2063 10.3985 66.6634C8.0964 63.2946 6.35772 59.6667 5.09171 55.8318C3.9416 52.3481 3.24786 48.775 2.98275 45.1151C2.54906 39.1278 3.29691 33.2854 5.21327 27.5961C6.10912 24.9365 7.27354 22.3739 8.67885 19.911C10.1346 17.3596 11.8139 14.9646 13.746 12.7437C14.934 11.3782 16.2422 10.107 17.5411 8.83631C19.7153 6.70931 22.1749 4.92217 24.7883 3.33557C25.3446 2.99783 25.9782 2.7794 26.6009 2.47298C27.5999 2.23494 28.568 1.99462 29.5499 1.83282C31.202 1.56059 32.8628 1.33713 34.5205 1.09717C34.642 1.07959 34.7684 1.09431 34.9466 1.1014C34.3936 1.35308 33.7879 1.60092 33.1791 1.84112C29.1616 3.42602 25.4549 5.52534 22.0729 8.15504C21.7237 8.42659 21.4569 8.79752 21.1127 9.19663C20.6326 9.45286 20.1917 9.6348 19.7075 9.82017C19.3274 9.99567 18.9905 10.1677 18.6155 10.3534C18.3852 10.4662 18.193 10.5655 17.9586 10.6706C17.6112 10.8717 17.306 11.0669 16.9597 11.2703C16.6097 11.5056 16.3009 11.7327 15.9538 11.9759C15.6934 12.1886 15.4713 12.385 15.2144 12.6029C14.9872 12.8504 14.7947 13.0764 14.5672 13.3233C14.3893 13.5726 14.2464 13.801 14.0683 14.0536C13.878 14.4204 13.723 14.7631 13.543 15.1385C13.4136 15.4338 13.3093 15.6963 13.1788 15.9914C13.0625 16.2892 12.9725 16.5545 12.8543 16.8557C12.7358 17.1846 12.6455 17.4776 12.5302 17.8046C12.4201 18.1042 12.3349 18.3697 12.2497 18.6352C12.0491 18.8292 11.7997 18.9941 11.655 19.2215C8.46736 24.2326 6.4842 29.6776 5.55764 35.4766C5.28521 37.1816 5.25609 38.9235 5.12511 40.6492C4.87315 43.9688 5.27775 47.2496 5.94477 50.4873C6.6463 53.8926 7.77133 57.1814 9.28068 60.3465C10.5704 63.051 12.1948 65.5553 13.9879 67.9579C14.8505 69.1138 15.7904 70.2333 16.8206 71.2503C18.4625 72.8712 20.1214 74.4966 21.934 75.9294C24.0914 77.6348 26.407 79.1584 28.9164 80.3664C30.1258 80.9485 31.3535 81.4957 32.5794 82.0449C32.9438 82.2081 33.3305 82.3244 33.7265 82.5013C32.1791 82.3215 30.6092 82.1207 29.0464 81.8768C28.1379 81.735 27.2409 81.524 26.2948 81.3217Z" fill="#B20909"/>
<path d="M65.5562 82.7584C65.5984 82.6815 65.6868 82.5771 65.7967 82.5473C69.8138 81.4604 73.3142 79.4038 76.6184 77.028C78.3992 75.7475 80.1557 74.3973 81.7219 72.8834C84.6435 70.0595 87.1747 66.9265 89.2073 63.4143C91.4029 59.6205 93.0707 55.6398 93.9703 51.3885C94.4658 49.0471 94.8731 46.6635 95.008 44.2823C95.1415 41.9259 95.0029 39.537 94.7594 37.1841C94.5426 35.0897 94.1065 33.005 93.6032 30.9537C93.1913 29.2751 92.541 27.6512 91.9853 26.0065C91.9443 25.8853 91.8136 25.7924 91.679 25.6245C91.6239 25.4717 91.6145 25.3807 91.6115 25.2362C91.6134 24.8957 91.6089 24.6087 91.611 24.269C91.6128 23.9689 91.6082 23.7215 91.6101 23.4237C91.5856 23.0832 91.5546 22.793 91.5266 22.4513C91.4778 22.0726 91.4259 21.7453 91.3729 21.3708C91.2943 21.0312 91.2168 20.7389 91.1404 20.3938C91.1247 20.0958 91.1078 19.8507 91.091 19.6055C91.2768 19.7806 91.5155 19.9261 91.6403 20.1354C93.051 22.5017 94.094 25.0249 95.0049 27.6037C96.2039 30.9984 96.8978 34.5012 97.2138 38.062C97.4578 40.81 97.4348 43.5678 97.1643 46.3273C96.7357 50.6986 95.6368 54.9077 93.9841 58.9749C92.7397 62.0372 91.1127 64.9198 89.1956 67.6489C87.4207 70.1755 85.3869 72.49 83.1498 74.6304C80.8803 76.8019 78.4091 78.7473 75.6865 80.3753C74.9818 80.7967 74.2588 81.1894 73.522 81.6286C72.7013 81.8119 71.9068 81.9881 71.1032 82.106C69.4827 82.3438 67.8578 82.5529 66.2335 82.7652C66.0301 82.7918 65.8195 82.7668 65.5562 82.7584Z" fill="#B20909"/>
<path d="M77.383 98.0061C78.0813 99.9904 78.7717 101.927 79.4967 103.96C79.7582 103.229 79.9997 102.55 80.2439 101.871C81.0009 99.7685 81.7495 97.6631 82.5322 95.5696C82.6036 95.3787 82.8874 95.151 83.0877 95.1365C83.8108 95.0843 84.5404 95.116 85.3823 95.116C85.9414 98.9605 86.4979 102.787 87.0703 106.723C86.1275 106.723 85.2837 106.736 84.4417 106.706C84.3328 106.702 84.1568 106.48 84.14 106.344C83.9127 104.507 83.7108 102.667 83.4957 100.829C83.4517 100.454 83.3792 100.082 83.217 99.6654C83.0209 100.264 82.835 100.866 82.6269 101.461C82.0483 103.116 81.4676 104.769 80.8632 106.415C80.8127 106.552 80.582 106.709 80.4279 106.716C79.7424 106.749 79.0516 106.763 78.369 106.709C78.193 106.695 77.9584 106.437 77.8888 106.244C77.1184 104.11 76.3753 101.965 75.6233 99.8244C75.6111 99.7898 75.5795 99.7615 75.5138 99.6703C75.1945 102.038 74.8824 104.353 74.5661 106.699C73.7286 106.699 72.9045 106.699 72.0088 106.699C72.5792 102.829 73.1456 98.9866 73.7162 95.1157C74.5612 95.1157 75.2877 95.1286 76.0135 95.1112C76.4908 95.0997 76.5086 95.4821 76.6118 95.752C76.8898 96.479 77.1238 97.2217 77.383 98.0061Z" fill="#B70914"/>
<path d="M1.01367 50.0322C1.1721 50.4866 1.39018 50.9866 1.46277 51.5057C2.03911 55.6267 3.55117 59.442 5.41907 63.1524C6.94776 66.189 8.78763 69.0366 10.9559 71.673C12.703 73.7972 14.553 75.8457 16.7139 77.5974C17.6012 78.3167 18.5414 78.9749 19.4792 79.6939C16.9731 78.8904 14.4043 78.1524 11.9306 77.1862C9.95444 76.4145 8.08664 75.3788 6.19103 74.4225C5.93896 74.2954 5.70813 73.9713 5.63358 73.6962C4.86132 70.8466 4.07654 67.9988 3.39066 65.1292C2.86358 62.9239 2.43714 60.6942 2.034 58.4638C1.75383 56.9137 1.571 55.3461 1.37863 53.7824C1.22746 52.5536 1.12823 51.3188 1.01367 50.0322Z" fill="#A90708"/>
<path d="M19.8189 3.9873C19.4862 4.21387 19.0765 4.41196 18.7271 4.68285C17.7395 5.44836 16.7295 6.19568 15.8137 7.03713C13.7759 8.90924 11.9227 10.9479 10.2393 13.1277C7.11315 17.176 4.709 21.5921 3.01865 26.3754C2.28897 28.4403 1.74439 30.5429 1.47921 32.7127C1.45703 32.8941 1.31004 33.0613 1.18311 33.2572C1.22566 32.3251 1.2717 31.3666 1.39501 30.4176C1.56429 29.1148 1.77166 27.8157 1.99958 26.5211C2.36453 24.4482 2.67449 22.3612 3.1619 20.3146C3.91748 17.1419 4.83095 14.0047 5.61795 10.8386C5.89665 9.71733 6.75801 9.20501 7.65032 8.70513C10.7506 6.96831 14.0614 5.69516 17.4586 4.6244C18.2192 4.38468 18.9987 4.20135 19.8189 3.9873Z" fill="#A90708"/>
<path d="M37.9898 106.733C36.2273 106.733 34.5259 106.733 32.7876 106.733C32.7876 102.845 32.7876 99.0254 32.7876 95.159C32.9788 95.1441 33.1584 95.1184 33.3381 95.1181C35.0038 95.115 36.6702 95.089 38.3351 95.1265C39.3286 95.1488 40.2983 95.348 41.0914 95.9965C42.6856 97.3002 42.1874 99.8337 40.2392 100.608C40.7482 100.945 41.3194 101.257 41.8084 101.662C42.8078 102.49 42.7242 104.868 41.4824 105.783C40.4378 106.552 39.2672 106.665 37.9898 106.733ZM36.8057 104.797C37.4027 104.754 38.003 104.734 38.596 104.66C39.1825 104.587 39.6939 104.069 39.7482 103.563C39.829 102.812 39.5447 102.129 38.9665 101.949C37.856 101.602 36.7077 101.58 35.5391 101.698C35.5391 102.737 35.5391 103.734 35.5391 104.797C35.9465 104.797 36.3159 104.797 36.8057 104.797ZM36.4004 99.8401C37.0624 99.8006 37.7385 99.8289 38.3826 99.7032C39.0804 99.567 39.3961 99.0609 39.3746 98.3887C39.3565 97.8256 38.9017 97.2557 38.2704 97.2091C37.3711 97.1428 36.4628 97.1923 35.5528 97.1923C35.5528 98.1063 35.5528 98.9553 35.5528 99.8373C35.8324 99.8373 36.0596 99.8373 36.4004 99.8401Z" fill="#B70914"/>
<path d="M21.25 105.397C21.25 103.161 21.25 100.984 21.25 98.7096C20.7153 99.4523 20.2388 100.121 19.7549 100.785C18.3943 102.651 17.0395 104.522 15.655 106.372C15.5152 106.558 15.1961 106.698 14.9492 106.716C14.2904 106.763 13.6256 106.732 12.9194 106.732C12.9194 102.856 12.9194 99.036 12.9194 95.1651C13.7112 95.1651 14.5063 95.1651 15.3192 95.1651C15.3192 97.7722 15.3192 100.358 15.3192 102.97C15.8074 102.263 16.2782 101.541 16.7907 100.848C18.1431 99.0185 19.5115 97.2001 20.8819 95.3832C20.9681 95.2689 21.1239 95.1334 21.251 95.1297C22.0572 95.1067 22.8645 95.118 23.7103 95.118C23.7103 98.9995 23.7103 102.82 23.7103 106.686C22.9193 106.686 22.1389 106.686 21.25 106.686C21.25 106.284 21.25 105.871 21.25 105.397Z" fill="#B70914"/>
<path d="M61.7153 95.3209C65.4137 93.9387 69.23 95.5006 70.0019 99.4078C70.3523 101.181 70.2225 102.926 69.2082 104.471C68.2406 105.945 66.866 106.846 64.9678 107.004C63.0155 107.165 61.3459 106.724 59.9984 105.333C59.1133 104.419 58.6386 103.285 58.5242 102.06C58.352 100.217 58.5606 98.429 59.7303 96.8565C60.2391 96.1725 60.8747 95.6657 61.7153 95.3209ZM61.3759 101.671C61.4987 102.15 61.5954 102.637 61.7496 103.106C62.0978 104.165 63.0677 104.862 64.0931 104.929C65.4656 105.018 66.4771 104.203 66.8672 103.226C67.2392 102.296 67.338 101.32 67.2342 100.343C67.1215 99.2808 66.794 98.2892 65.9323 97.5274C64.7978 96.5245 62.4553 96.8431 61.8418 98.3931C61.4251 99.4459 61.3763 100.482 61.3759 101.671Z" fill="#B70914"/>
<path d="M93.3907 94.874C94.4 94.8765 95.3346 94.8631 96.2691 95.1647C97.5373 95.5739 98.2975 96.6923 98.3593 97.8463C98.4603 99.7314 98.4394 101.622 98.5082 103.51C98.5438 104.486 98.6635 105.459 98.74 106.434C98.7491 106.55 98.7259 106.668 98.7153 106.818C97.8263 106.818 96.9621 106.818 96.0779 106.818C95.9992 106.448 95.9253 106.1 95.8506 105.749C95.3321 106.072 94.8581 106.473 94.3071 106.691C92.7395 107.311 91.1445 107.276 89.8683 106.143C88.7244 105.128 88.4985 103.238 89.532 101.811C90.5233 100.443 92.0433 100.052 93.635 99.8406C94.3069 99.7514 94.9866 99.718 95.8166 99.6459C95.719 99.0841 95.6533 98.5236 95.5191 97.979C95.3524 97.3026 94.7765 97.1081 94.1524 97.0586C93.0043 96.9675 91.933 97.2021 91.0374 97.9373C90.7048 98.2103 90.4894 98.1333 90.2656 97.8506C90.1027 97.6447 89.9463 97.4339 89.7913 97.2224C89.2864 96.5331 89.2901 96.3705 90.0274 95.8996C91.0225 95.2641 92.1218 94.8908 93.3907 94.874ZM94.823 101.53C94.0596 101.729 93.2709 101.866 92.5404 102.146C91.9007 102.391 91.5352 103.183 91.6322 103.775C91.7427 104.449 92.1331 104.851 92.9343 104.997C93.7145 105.139 94.3748 104.799 94.9901 104.381C96.067 103.649 95.6987 102.581 95.7344 101.53C95.4273 101.53 95.1835 101.53 94.823 101.53Z" fill="#B70914"/>
<path d="M85.4219 78.7612C85.4779 78.6373 85.556 78.4703 85.6884 78.4019C87.3346 77.5515 88.4007 76.1037 89.5897 74.8002C90.6878 73.5964 91.7099 72.3197 92.675 71.0125C93.5185 69.8701 94.2945 68.6717 94.9949 67.4418C95.896 65.8594 96.7137 64.231 97.5213 62.6012C97.8036 62.0316 97.9494 61.3988 98.1931 60.7715C98.0615 61.7266 97.9269 62.7115 97.7204 63.6822C97.2488 65.8994 96.7705 68.116 96.2389 70.3202C95.922 71.6338 95.5082 72.926 95.1119 74.2203C95.064 74.3766 94.8741 74.521 94.7142 74.6118C92.1254 76.0804 89.4412 77.3576 86.6204 78.357C86.2367 78.493 85.8529 78.6283 85.4219 78.7612Z" fill="#A70707"/>
<path d="M0.888184 48.458C0.942525 48.7813 0.989123 49.1578 1.01281 49.5772C0.95341 49.2504 0.916925 48.8809 0.888184 48.458Z" fill="#A90708"/>
<path d="M1.08172 33.665C1.10993 33.9416 1.09937 34.2513 1.0549 34.5863C1.02832 34.3072 1.03563 34.0026 1.08172 33.665Z" fill="#A90708"/>
<path d="M0.763981 38.293C0.79338 38.4679 0.814729 38.6943 0.803341 38.9445C0.765712 38.7603 0.760822 38.5524 0.763981 38.293Z" fill="#A90708"/>
<path d="M35.9508 0.979492C35.7743 1.03183 35.5483 1.07655 35.2837 1.10017C35.4638 1.04334 35.6825 1.00761 35.9508 0.979492Z" fill="#B20909"/>
<path d="M0.763106 45.0674C0.792396 45.2045 0.81397 45.3917 0.803768 45.601C0.766458 45.4545 0.760924 45.286 0.763106 45.0674Z" fill="#A90708"/>
<path d="M0.889514 36.1074C0.917023 36.2079 0.936514 36.3564 0.925943 36.5246C0.891085 36.4146 0.88629 36.2851 0.889514 36.1074Z" fill="#A90708"/>
<path d="M19.9657 3.89453C19.969 3.91756 19.9399 3.94039 19.8859 3.97653C19.8725 3.94951 19.8966 3.91768 19.9657 3.89453Z" fill="#A90708"/>
<path d="M46.125 83.5284C46.143 83.5197 46.1735 83.5394 46.2237 83.5782C46.1998 83.6062 46.1645 83.5927 46.125 83.5284Z" fill="#B20909"/>
<path d="M19.626 79.7754C19.6441 79.7669 19.6743 79.7868 19.7237 79.8263C19.6999 79.8526 19.6649 79.8385 19.626 79.7754Z" fill="#A90708"/>
<path d="M99.0311 55.6681C99.0229 55.6506 99.0436 55.6208 99.0839 55.5713C99.111 55.5946 99.0965 55.6293 99.0311 55.6681Z" fill="#A70707"/>
<path d="M0.779785 47.59C0.802171 47.5876 0.824111 47.6156 0.857906 47.6678C0.832617 47.6775 0.802476 47.6536 0.779785 47.59Z" fill="#A90708"/>
<path d="M0.844252 36.9092C0.853279 36.9267 0.833456 36.9562 0.793929 37.0045C0.766095 36.9815 0.779821 36.9474 0.844252 36.9092Z" fill="#A90708"/>
<path d="M0.968599 35.0938C0.977691 35.1118 0.957207 35.1417 0.916802 35.191C0.888309 35.1674 0.902356 35.1325 0.968599 35.0938Z" fill="#A90708"/>
<path d="M77.1259 8.06947C76.9903 7.90118 76.8847 7.69475 76.7149 7.5702C73.0652 4.89278 69.0867 2.80394 64.7524 1.36413C64.2254 1.18908 63.666 1.10766 63.1291 0.957745C62.9234 0.900309 62.7387 0.772515 62.5244 0.637695C64.3859 0.799302 66.2673 1.00077 68.149 1.19933C68.314 1.21674 68.4812 1.21501 68.7221 1.24747C68.8248 1.2941 68.8545 1.31287 68.886 1.32907C69.1003 1.33392 69.3147 1.33877 69.5998 1.37179C69.6965 1.42006 69.7242 1.43748 69.7537 1.45221C69.9279 1.45537 70.1021 1.45854 70.3492 1.4863C70.451 1.53308 70.4816 1.55283 70.5138 1.57014C70.6853 1.57491 70.8567 1.57969 71.1003 1.60856C71.2012 1.6546 71.2317 1.6741 71.2639 1.69115C71.3166 1.69443 71.3693 1.6977 71.4609 1.70823C71.9205 1.90121 72.3579 2.05844 72.759 2.27794C74.0408 2.97949 75.3784 3.61102 76.568 4.4397C78.8751 6.04684 81.1514 7.70662 83.106 9.72874C83.2877 9.91666 83.4341 10.1364 83.5654 10.375C83.3991 10.3632 83.2644 10.3179 83.1065 10.2367C82.8077 10.1044 82.5322 10.0081 82.2352 9.87298C81.6083 9.60656 81.0029 9.37897 80.3629 9.12215C79.9734 9.00506 79.6186 8.9172 79.239 8.79002C78.6863 8.61289 78.1584 8.47507 77.6095 8.30046C77.4344 8.19894 77.2801 8.1342 77.1259 8.06947Z" fill="#B30A0A"/>
<path d="M83.1301 10.2725C83.2648 10.3177 83.3995 10.363 83.5774 10.4151C83.8275 10.5379 84.0344 10.6539 84.2223 10.8104C83.7735 10.9048 83.3438 11.0056 82.914 11.006C74.023 11.0152 65.1321 11.0105 56.2411 11.0222C55.9111 11.0226 55.5812 11.1594 55.1941 11.239C54.249 11.1947 53.3609 11.1 52.4732 11.1038C51.1902 11.1093 49.9076 11.1861 48.5947 11.198C48.2653 11.1134 47.966 11.0197 47.6666 11.0193C41.4199 11.0108 35.1731 11.0129 28.9263 11.0129C25.6156 11.0129 22.3047 11.0225 18.9941 10.9974C18.6622 10.9949 18.332 10.7817 18.001 10.6662C18.1932 10.5669 18.3854 10.4676 18.6698 10.3808C19.1304 10.4384 19.4986 10.5231 19.8669 10.5232C40.6109 10.5295 61.3549 10.5288 82.0988 10.5287C82.2654 10.5287 82.441 10.5578 82.5963 10.5166C82.7832 10.467 82.9529 10.3566 83.1301 10.2725Z" fill="#F89997"/>
<path d="M90.4743 17.6661C90.6384 18.2001 90.8025 18.734 90.913 19.3139C85.3766 19.3601 79.894 19.3558 74.4114 19.3718C74.0639 19.3728 73.7169 19.532 73.332 19.5992C72.6943 19.0291 72.0943 18.4773 71.5273 17.8908C71.8976 17.7931 72.2345 17.6757 72.5717 17.6751C78.5392 17.6636 84.5068 17.6664 90.4743 17.6661Z" fill="#F87877"/>
<path d="M88.7178 13.9883C88.974 14.3799 89.2302 14.7714 89.4332 15.205C82.7254 15.2469 76.0708 15.2414 69.4162 15.2587C68.9805 15.2599 68.5453 15.435 68.0669 15.517C67.3913 15.1693 66.7587 14.8338 66.1455 14.4585C66.4869 14.3317 66.8087 14.1694 67.1309 14.1687C73.9187 14.154 80.7066 14.1605 87.4944 14.1503C87.9023 14.1496 88.31 14.0447 88.7178 13.9883Z" fill="#F88887"/>
<path d="M55.251 11.2321C55.5809 11.1589 55.9108 11.0221 56.2408 11.0217C65.1318 11.01 74.0227 11.0146 82.9137 11.0055C83.3435 11.005 83.7732 10.9043 84.2658 10.8262C84.7769 11.0376 85.2251 11.2731 85.647 11.5572C85.1881 11.6499 84.7557 11.7323 84.3232 11.7327C76.3707 11.7404 68.4182 11.7354 60.4657 11.7491C60.1425 11.7497 59.8195 11.9081 59.4454 11.9877C58.6554 11.8303 57.919 11.6654 57.1769 11.5298C56.5383 11.4132 55.8932 11.33 55.251 11.2321Z" fill="#F89795"/>
<path d="M73.3696 19.6175C73.7169 19.5319 74.0639 19.3727 74.4114 19.3717C79.894 19.3557 85.3767 19.36 90.9161 19.3596C90.9983 19.4232 91.0236 19.4869 91.07 19.5779C91.1079 19.8505 91.1248 20.0957 91.081 20.3942C85.5339 20.4483 80.0475 20.4531 74.5611 20.4397C74.2276 20.4389 73.8944 20.2935 73.5813 20.1807C73.5241 19.9699 73.4469 19.7937 73.3696 19.6175Z" fill="#F97271"/>
<path d="M89.7654 15.8271C89.8943 16.1252 90.0232 16.4232 90.0987 16.7677C83.835 16.8163 77.6246 16.8143 71.4143 16.8314C71.0662 16.8323 70.7187 16.9897 70.3326 17.0565C69.8819 16.7339 69.4694 16.4291 69.1118 16.11C69.5781 16.055 69.9895 15.9792 70.401 15.9787C76.5116 15.9711 82.6223 15.9758 88.7329 15.9671C89.0771 15.9667 89.4212 15.8759 89.7654 15.8271Z" fill="#F88180"/>
<path d="M88.6897 13.9571C88.3101 14.0448 87.9024 14.1498 87.4945 14.1504C80.7066 14.1606 73.9188 14.1541 67.1309 14.1688C66.8088 14.1695 66.487 14.3319 66.1031 14.4499C65.5263 14.2157 65.0114 13.9506 64.5244 13.6475C64.868 13.5502 65.1836 13.4396 65.4993 13.4391C72.6353 13.4293 79.7712 13.4335 86.9072 13.4261C87.2761 13.4258 87.6449 13.347 88.0137 13.3047C88.2297 13.5117 88.4456 13.7187 88.6897 13.9571Z" fill="#F88D8B"/>
<path d="M70.3701 17.0733C70.7179 16.9887 71.0655 16.8313 71.4135 16.8303C77.6239 16.8133 83.8343 16.8152 90.1063 16.8115C90.267 17.0672 90.366 17.3245 90.4691 17.6238C84.5056 17.6661 78.5381 17.6634 72.5706 17.6748C72.2334 17.6754 71.8964 17.7928 71.4884 17.872C71.0684 17.6166 70.7193 17.3449 70.3701 17.0733Z" fill="#F87D7C"/>
<path d="M59.4961 11.9911C59.8192 11.9063 60.1421 11.7479 60.4654 11.7473C68.4178 11.7336 76.3703 11.7386 84.3228 11.7309C84.7553 11.7304 85.1878 11.6481 85.6782 11.5889C86.0247 11.763 86.3132 11.9521 86.5695 12.19C86.1453 12.273 85.7535 12.337 85.3616 12.3373C77.771 12.3432 70.1804 12.3386 62.5898 12.3525C62.2668 12.3531 61.9441 12.5109 61.5727 12.5897C60.8481 12.3863 60.1721 12.1887 59.4961 11.9911Z" fill="#F89492"/>
<path d="M89.7608 15.7863C89.4215 15.8752 89.0774 15.9659 88.7332 15.9664C82.6225 15.975 76.5119 15.9703 70.4012 15.978C69.9898 15.9785 69.5784 16.0543 69.0746 16.0956C68.6915 15.9071 68.4007 15.7181 68.1099 15.5291C68.5453 15.4349 68.9806 15.2598 69.4163 15.2587C76.0708 15.2414 82.7255 15.2468 89.4384 15.2472C89.5832 15.4136 89.6695 15.5799 89.7608 15.7863Z" fill="#F88483"/>
<path d="M61.6216 12.5963C61.9444 12.5117 62.2671 12.3538 62.5902 12.3532C70.1807 12.3393 77.7714 12.3439 85.362 12.338C85.7538 12.3377 86.1457 12.2737 86.5894 12.2275C86.9112 12.3813 87.1811 12.547 87.4232 12.7603C86.964 12.8545 86.5326 12.941 86.1011 12.9415C78.8472 12.9499 71.5933 12.9443 64.3394 12.9583C64.0167 12.9589 63.6942 13.1169 63.3236 13.1956C62.7243 12.9918 62.1729 12.7941 61.6216 12.5963Z" fill="#F8918F"/>
<path d="M63.3716 13.2009C63.6942 13.1162 64.0167 12.9583 64.3394 12.9577C71.5933 12.9436 78.8472 12.9492 86.1011 12.9409C86.5326 12.9404 86.964 12.8539 87.4559 12.792C87.6711 12.9298 87.8259 13.0829 87.9972 13.2701C87.6449 13.3463 87.2761 13.4251 86.9072 13.4255C79.7712 13.4328 72.6353 13.4286 65.4994 13.4385C65.1836 13.4389 64.868 13.5496 64.4791 13.6387C64.0611 13.5127 63.7163 13.3568 63.3716 13.2009Z" fill="#F88F8D"/>
<path d="M61.7094 0.500019C61.6758 0.521562 61.6008 0.535331 61.5132 0.527245C61.5563 0.501008 61.6122 0.496627 61.7094 0.500019Z" fill="#B30A0A"/>
<path d="M62.496 0.578922C62.4786 0.587389 62.4496 0.568474 62.4019 0.531219C62.4251 0.503818 62.4589 0.516704 62.496 0.578922Z" fill="#B30A0A"/>
<path d="M68.8723 1.30365C68.8545 1.31252 68.8248 1.29357 68.7764 1.25529C68.7996 1.22854 68.8338 1.24182 68.8723 1.30365Z" fill="#AE0809"/>
<path d="M69.7394 1.42772C69.7236 1.43502 69.6959 1.41742 69.6514 1.38116C69.6718 1.36071 69.7028 1.37415 69.7394 1.42772Z" fill="#AE0809"/>
<path d="M70.5003 1.54589C70.4815 1.55516 70.451 1.53522 70.4009 1.49554C70.4253 1.46707 70.461 1.48069 70.5003 1.54589Z" fill="#AE0809"/>
<path d="M71.2505 1.66354C71.2319 1.6729 71.2014 1.65321 71.1514 1.61397C71.1756 1.58523 71.2112 1.59859 71.2505 1.66354Z" fill="#AE0809"/>
<path d="M29.4995 6.7567C29.8605 6.47164 30.1779 6.08671 30.5898 5.918C32.9625 4.94607 35.3237 3.93089 37.754 3.11183C40.5898 2.15616 43.5497 1.67949 46.547 1.44462C50.5278 1.13269 54.4837 1.30017 58.3952 2.08587C61.5193 2.71342 64.5724 3.58151 67.4547 4.94096C68.2581 5.31991 69.0601 5.70266 69.85 6.10707C70.0411 6.20494 70.1815 6.39573 70.3111 6.5939C70.1226 6.59432 69.9718 6.5223 69.8133 6.49843C68.348 6.27773 66.8878 5.9978 65.4137 5.86485C62.4938 5.60152 59.5682 5.28074 56.6409 5.23713C51.7122 5.1637 46.7774 5.20329 41.8508 5.36162C39.0323 5.4522 36.2223 5.84718 33.414 6.15292C32.1024 6.29571 30.8039 6.5519 29.4995 6.7567Z" fill="#BB0C0C"/>
<path d="M29.4557 6.77274C30.8035 6.55251 32.1019 6.29632 33.4136 6.15352C36.2219 5.84779 39.0319 5.45281 41.8504 5.36223C46.7769 5.20389 51.7117 5.16431 56.6405 5.23774C59.5678 5.28135 62.4934 5.60212 65.4133 5.86546C66.8874 5.9984 68.3476 6.27834 69.8129 6.49903C69.9713 6.52291 70.1221 6.59492 70.3258 6.6311C70.9413 6.72085 71.5075 6.8241 72.0649 6.99663C71.6955 7.1309 71.3351 7.25251 70.9745 7.25276C57.362 7.26242 43.7495 7.261 30.137 7.26014C29.9291 7.26013 29.7092 7.28758 29.5163 7.23231C29.2905 7.16762 29.0881 7.02621 28.8755 6.91809C29.0545 6.87479 29.2334 6.83148 29.4557 6.77274Z" fill="#F6AAA8"/>
<path d="M77.0757 8.07111C77.2805 8.13184 77.4347 8.19657 77.5818 8.3362C77.238 8.47086 76.9014 8.58278 76.5647 8.58295C59.3829 8.59144 42.2011 8.59044 25.0193 8.59017C24.8319 8.59017 24.6353 8.62046 24.4595 8.5758C24.2501 8.52262 24.0586 8.40365 23.8594 8.31319C24.5821 8.07875 25.3048 7.84432 26.1048 7.65278C26.4992 7.75192 26.8162 7.85722 27.1334 7.85738C42.761 7.86541 58.3886 7.86442 74.0163 7.8643C74.1619 7.8643 74.3151 7.89002 74.4514 7.85491C74.641 7.80606 74.8178 7.71101 75.0001 7.63574C75.6751 7.7822 76.3502 7.92866 77.0757 8.07111Z" fill="#F7A4A2"/>
<path d="M80.3979 9.15137C81.0033 9.37896 81.6087 9.60656 82.1892 9.89604C81.8352 9.98695 81.5062 10.0412 81.1772 10.0414C69.1889 10.0457 57.2006 10.045 45.2123 10.045C37.0536 10.045 28.8949 10.0476 20.7363 10.0354C20.4077 10.0349 20.0794 9.89394 19.751 9.81841C20.1919 9.63647 20.6328 9.45453 21.1004 9.238C21.1783 9.19487 21.2294 9.18634 21.3587 9.19968C21.8807 9.29436 22.3245 9.43051 22.7684 9.43082C38.57 9.44176 54.3716 9.44 70.1732 9.43998C73.2336 9.43997 76.294 9.44902 79.3543 9.42703C79.7028 9.42453 80.05 9.24748 80.3979 9.15137Z" fill="#F89D9B"/>
<path d="M74.9555 7.61533C74.8179 7.71117 74.641 7.80621 74.4515 7.85506C74.3152 7.89018 74.162 7.86445 74.0163 7.86445C58.3887 7.86458 42.7611 7.86556 27.1335 7.85753C26.8163 7.85737 26.4992 7.75207 26.1538 7.6589C27.0108 7.38907 27.8961 7.15618 28.8289 6.91992C29.0889 7.02468 29.2913 7.16609 29.5172 7.23078C29.7101 7.28604 29.9299 7.2586 30.1379 7.25861C43.7504 7.25947 57.3629 7.26089 70.9754 7.25123C71.3359 7.25098 71.6964 7.12937 72.0945 7.03464C73.0583 7.20154 73.9846 7.39815 74.9555 7.61533Z" fill="#F7A6A4"/>
<path d="M80.3628 9.12262C80.0495 9.24796 79.7023 9.42501 79.3538 9.42751C76.2935 9.4495 73.2331 9.44045 70.1727 9.44045C54.3711 9.44048 38.5695 9.44224 22.7679 9.43129C22.324 9.43099 21.8802 9.29484 21.3965 9.19329C21.6824 9.043 22.0082 8.92145 22.4251 8.80664C22.8418 8.86101 23.1674 8.95018 23.4931 8.9503C41.7556 8.957 60.0182 8.95693 78.2808 8.95102C78.6084 8.95091 78.936 8.87197 79.2636 8.82981C79.6185 8.91767 79.9734 9.00553 80.3628 9.12262Z" fill="#F79F9D"/>
<path d="M79.2388 8.78882C78.9359 8.87029 78.6084 8.94924 78.2808 8.94934C60.0182 8.95525 41.7556 8.95532 23.493 8.94862C23.1673 8.9485 22.8417 8.85933 22.4634 8.78293C22.8608 8.60957 23.3109 8.46499 23.81 8.31738C24.0581 8.40481 24.2496 8.52378 24.459 8.57696C24.6348 8.62162 24.8314 8.59133 25.0188 8.59133C42.2006 8.5916 59.3824 8.5926 76.5641 8.5841C76.9009 8.58394 77.2375 8.47202 77.6022 8.37414C78.1582 8.47386 78.6861 8.61168 79.2388 8.78882Z" fill="#F7A19F"/>
<path d="M90.8768 29.8903C91.3599 31.97 91.8821 34.0421 92.3161 36.1314C92.8447 38.6761 92.8403 41.265 92.7276 43.8405C92.5765 47.2948 91.9509 50.682 90.8913 53.9913C89.6942 57.7304 88.0146 61.2418 85.7909 64.5185C83.9181 67.2782 81.7404 69.7807 79.2648 72.0411C75.7047 75.2919 71.6802 77.8769 67.1904 79.7641C62.9969 81.5267 58.6334 82.6968 54.0626 83.0197C48.7771 83.3931 43.5566 83.0916 38.42 81.6582C32.7102 80.0648 27.5908 77.4254 22.9854 73.8278C20.8274 72.1421 18.9242 70.2078 17.1432 68.1428C14.9802 65.6351 13.1694 62.9141 11.699 59.9945C9.87504 56.373 8.53901 52.5718 8.00608 48.5604C7.68849 46.17 7.37663 43.7506 7.41596 41.3497C7.5055 35.8844 8.60385 30.5859 10.88 25.5516C10.9991 25.2882 11.2331 25.0735 11.4633 24.8672C11.5531 25.1099 11.5932 25.3215 11.6294 25.5832C11.6736 25.9627 11.7216 26.2921 11.7782 26.6644C11.985 27.163 12.1835 27.6188 12.3846 28.1162C12.4861 28.3271 12.5849 28.4964 12.6494 28.6972C12.4967 29.0046 12.3622 29.275 12.2626 29.557C10.8091 33.673 10.0744 37.9125 10.1497 42.2563C10.1837 44.2215 10.3706 46.1995 10.685 48.1418C11.3397 52.1878 12.6437 56.0466 14.6334 59.6749C16.8156 63.6542 19.5191 67.2357 22.9959 70.2698C25.1224 72.1255 27.3631 73.8015 29.8289 75.2116C34.2029 77.7131 38.9024 79.3296 43.9067 80.1038C46.6153 80.5228 49.3541 80.7163 52.092 80.4626C54.365 80.252 56.65 80.0294 58.8846 79.5946C62.4939 78.8923 65.9042 77.6003 69.1339 75.8736C72.2631 74.2007 75.1472 72.2125 77.7214 69.8004C80.0203 67.6462 82.0344 65.2813 83.7746 62.6779C85.5173 60.0706 86.8415 57.2801 87.8896 54.3627C88.905 51.5361 89.6151 48.6307 89.772 45.6343C89.8907 43.368 90.0363 41.0826 89.8619 38.8281C89.6824 36.5086 89.1295 34.2163 88.7729 31.8882C89.6992 31.4313 90.4244 30.838 90.8162 29.9037C90.8365 29.8997 90.8768 29.8903 90.8768 29.8903Z" fill="#B90A0B"/>
<path d="M90.8848 29.8446C90.8767 29.8896 90.8364 29.899 90.7538 29.8996C83.7831 29.8968 76.895 29.8913 70.007 29.8981C69.7524 29.8984 69.498 30.0192 69.191 30.0731C67.8046 29.8434 66.4708 29.6244 65.1528 29.3685C65.5701 28.9122 65.9714 28.4928 66.4314 28.0737C74.7786 28.0738 83.0672 28.0735 91.3557 28.0732C91.2015 28.6487 91.0472 29.2242 90.8848 29.8446Z" fill="#FA4B4B"/>
<path d="M91.6052 25.2914C91.6146 25.3824 91.624 25.4734 91.6402 25.6096C91.6107 25.9091 91.5745 26.1632 91.4579 26.4592C83.89 26.5014 76.4027 26.5047 68.9154 26.4922C68.6102 26.4917 68.3054 26.3433 68.0239 26.2306C68.3824 25.8455 68.7174 25.4938 69.1075 25.1562C69.5536 25.2111 69.9444 25.2868 70.3353 25.2872C77.4253 25.294 84.5153 25.2917 91.6052 25.2914Z" fill="#F95858"/>
<path d="M68.0001 26.2637C68.3051 26.3432 68.6099 26.4915 68.915 26.492C76.4023 26.5045 83.8897 26.5013 91.4352 26.5004C91.4626 26.7546 91.4319 27.0091 91.3205 27.3062C83.588 27.3489 75.9361 27.3518 68.2843 27.3408C67.9255 27.3403 67.5669 27.2161 67.2271 27.1158C67.4973 26.8093 67.7487 26.5365 68.0001 26.2637Z" fill="#F95554"/>
<path d="M11.5728 23.2273C11.5989 22.8513 11.6251 22.4754 11.7291 22.0549C17.0932 22.0143 22.3795 22.0156 27.6658 22.0285C27.9893 22.0293 28.3124 22.1221 28.6215 22.2092C28.3367 22.5797 28.0662 22.9131 27.7342 23.2441C22.3061 23.237 16.9394 23.2321 11.5728 23.2273Z" fill="#F96766"/>
<path d="M11.8525 20.9324C11.9063 20.5255 11.96 20.1186 12.0777 19.6992C12.4848 19.7403 12.8277 19.8398 13.1709 19.8405C18.4412 19.8504 23.7116 19.8427 28.9819 19.8545C29.5184 19.8557 30.0547 19.9561 30.5581 20.0388C30.1877 20.3985 29.8502 20.7297 29.4631 21.0436C29.0637 20.9964 28.7139 20.9409 28.3641 20.9405C22.8603 20.9336 17.3564 20.9338 11.8525 20.9324Z" fill="#F9706F"/>
<path d="M12.2534 18.6755C12.3346 18.3698 12.4198 18.1043 12.587 17.8125C13.1442 17.8272 13.6193 17.9032 14.0946 17.9039C20.3173 17.913 26.54 17.9115 32.743 17.9493C32.3206 18.3248 31.9178 18.6636 31.4653 18.9852C31.0651 18.9378 30.7147 18.8819 30.3643 18.8816C24.3308 18.876 18.2973 18.8772 12.2637 18.877C12.2616 18.8232 12.2595 18.7694 12.2534 18.6755Z" fill="#F87877"/>
<path d="M11.83 20.9747C17.356 20.9332 22.8599 20.933 28.3637 20.9399C28.7135 20.9403 29.0633 20.9958 29.4437 21.0801C29.1948 21.4813 28.9152 21.8281 28.6356 22.1749C28.3123 22.1249 27.9892 22.0322 27.6658 22.0314C22.3795 22.0185 17.0931 22.0172 11.7431 22.0104C11.7223 21.6776 11.7651 21.3476 11.83 20.9747Z" fill="#F96968"/>
<path d="M12.2388 18.9157C18.2974 18.879 24.3309 18.8777 30.3644 18.8833C30.7148 18.8837 31.0652 18.9396 31.4456 19.0232C31.1809 19.3879 30.886 19.6991 30.5911 20.0103C30.0547 19.956 29.5184 19.8557 28.9819 19.8545C23.7116 19.8427 18.4412 19.8503 13.1708 19.8404C12.8277 19.8398 12.4847 19.7402 12.0947 19.6507C12.1031 19.3941 12.1584 19.1734 12.2388 18.9157Z" fill="#F97271"/>
<path d="M11.6328 25.5323C11.5926 25.3207 11.5525 25.1091 11.5025 24.852C11.4996 24.677 11.5067 24.5475 11.5773 24.37C16.3098 24.3222 20.9787 24.3187 25.6476 24.3289C26.0786 24.3298 26.5094 24.4175 26.9221 24.5039C26.6614 24.8782 26.4188 25.2134 26.1143 25.546C21.2459 25.5397 16.4393 25.536 11.6328 25.5323Z" fill="#F95D5C"/>
<path d="M67.2079 27.1504C67.5666 27.217 67.9251 27.3412 68.2839 27.3417C75.9358 27.3527 83.5876 27.3498 91.2966 27.3495C91.3582 27.5569 91.3626 27.7645 91.3612 28.0238C83.0669 28.0757 74.7783 28.076 66.4458 28.038C66.6705 27.7166 66.9392 27.4335 67.2079 27.1504Z" fill="#FA5050"/>
<path d="M26.9406 24.4674C26.5097 24.42 26.0789 24.3324 25.648 24.3314C20.979 24.3212 16.3101 24.3247 11.5844 24.3243C11.5323 23.9899 11.5369 23.6557 11.5571 23.2764C16.9394 23.2361 22.3061 23.2409 27.7168 23.2869C27.4875 23.7079 27.214 24.0876 26.9406 24.4674Z" fill="#F96161"/>
<path d="M19.7068 9.82129C20.0785 9.89339 20.4068 10.0344 20.7354 10.0349C28.894 10.0471 37.0527 10.0445 45.2114 10.0445C57.1997 10.0445 69.188 10.0452 81.1763 10.0408C81.5053 10.0407 81.8343 9.98641 82.2097 9.93432C82.5316 10.0076 82.8072 10.1039 83.1059 10.2362C82.952 10.3562 82.7823 10.4667 82.5954 10.5163C82.4401 10.5575 82.2645 10.5283 82.0979 10.5283C61.3539 10.5285 40.61 10.5292 19.866 10.5228C19.4977 10.5227 19.1294 10.4381 18.707 10.3669C18.9898 10.1689 19.3267 9.99679 19.7068 9.82129Z" fill="#F89B99"/>
<path d="M13.5679 15.1047C13.7228 14.762 13.8778 14.4194 14.1217 14.0596C14.6648 14.0805 15.1191 14.1514 15.5733 14.1518C22.809 14.1588 30.0446 14.1549 37.2802 14.1621C37.6491 14.1624 38.0178 14.24 38.3602 14.3165C37.932 14.5665 37.5346 14.7897 37.1269 14.9939C36.8433 15.136 36.5457 15.2519 36.2081 15.3564C35.8544 15.304 35.5468 15.2497 35.2392 15.2495C28.4039 15.2446 21.5686 15.248 14.7333 15.2397C14.3447 15.2392 13.9563 15.1517 13.5679 15.1047Z" fill="#F88887"/>
<path d="M32.7625 17.9131C26.5398 17.912 20.3172 17.9134 14.0945 17.9043C13.6192 17.9036 13.1441 17.8276 12.6118 17.7789C12.6451 17.4781 12.7354 17.1851 12.912 16.8563C19.5723 16.8204 26.1463 16.8157 32.7203 16.8328C33.1102 16.8338 33.4996 17.0099 33.86 17.1326C33.4747 17.4115 33.1186 17.6623 32.7625 17.9131Z" fill="#F87D7C"/>
<path d="M15.9917 11.9601C16.3005 11.7331 16.6094 11.506 16.9883 11.3066C17.3765 11.3882 17.6945 11.4887 18.0127 11.4891C26.6227 11.4976 35.2328 11.4901 43.8429 11.5105C44.3536 11.5117 44.8638 11.723 45.3245 11.8437C44.3494 12.0876 43.4241 12.3243 42.4847 12.5186C42.1517 12.3915 41.8329 12.2333 41.5138 12.2327C33.3286 12.2191 25.1433 12.2249 16.958 12.2109C16.6357 12.2103 16.3138 12.0474 15.9917 11.9601Z" fill="#F89492"/>
<path d="M33.889 17.1063C33.4993 17.0116 33.11 16.8355 32.7201 16.8345C26.1461 16.8174 19.5721 16.8221 12.9399 16.822C12.9719 16.5567 13.0619 16.2914 13.2398 15.996C20.2089 15.9689 27.0902 15.97 33.9715 15.9805C34.361 15.9811 34.7504 16.0595 35.1188 16.1381C34.6949 16.4851 34.2919 16.7957 33.889 17.1063Z" fill="#F88180"/>
<path d="M38.3868 14.2841C38.018 14.2425 37.6493 14.165 37.2804 14.1646C30.0448 14.1575 22.8092 14.1613 15.5735 14.1544C15.1193 14.1539 14.665 14.083 14.1572 14.0379C14.2465 13.8025 14.3893 13.5741 14.6196 13.3369C15.1197 13.3631 15.5323 13.4284 15.945 13.4287C23.5169 13.4348 31.0888 13.4301 38.6606 13.444C38.9836 13.4446 39.3062 13.6029 39.6034 13.7211C39.1808 13.931 38.7838 14.1076 38.3868 14.2841Z" fill="#F88D8B"/>
<path d="M15.9532 11.9766C16.3136 12.0477 16.6355 12.2106 16.9578 12.2111C25.143 12.2252 33.3284 12.2194 41.5136 12.233C41.8327 12.2335 42.1515 12.3918 42.4438 12.54C41.9459 12.7628 41.4745 12.922 40.97 13.0469C40.5993 12.9509 40.2618 12.8356 39.9242 12.8352C32.0234 12.825 24.1226 12.8302 16.2218 12.8169C15.8972 12.8163 15.5729 12.6638 15.2485 12.5821C15.4707 12.3856 15.6928 12.1892 15.9532 11.9766Z" fill="#F8918F"/>
<path d="M35.1409 16.1006C34.7515 16.0584 34.3621 15.9801 33.9726 15.9795C27.0913 15.9689 20.21 15.9679 13.2671 15.9624C13.3098 15.6975 13.4141 15.435 13.5434 15.1396C13.9569 15.1538 14.3453 15.2414 14.7339 15.2419C21.5692 15.2502 28.4045 15.2468 35.2398 15.2516C35.5474 15.2518 35.855 15.3062 36.1883 15.3944C35.8563 15.6691 35.4986 15.8849 35.1409 16.1006Z" fill="#F88483"/>
<path d="M15.2136 12.6035C15.5727 12.6638 15.897 12.8163 16.2215 12.8169C24.1223 12.8302 32.0232 12.825 39.924 12.8351C40.2616 12.8356 40.5991 12.9509 40.9431 13.0807C40.5091 13.3282 40.0686 13.5075 39.6281 13.6868C39.3053 13.602 38.9827 13.4437 38.6597 13.4431C31.0879 13.4292 23.516 13.4339 15.9442 13.4278C15.5315 13.4275 15.1188 13.3622 14.6538 13.3151C14.7939 13.077 14.9864 12.851 15.2136 12.6035Z" fill="#F88F8D"/>
<path d="M45.3741 11.8364C44.8636 11.7229 44.3535 11.5117 43.8427 11.5104C35.2327 11.4901 26.6226 11.4975 18.0125 11.489C17.6944 11.4887 17.3763 11.3882 17.0293 11.2984C17.3055 11.0672 17.6107 10.872 17.9581 10.6709C18.3313 10.7805 18.6615 10.9937 18.9934 10.9963C22.304 11.0213 25.6149 11.0117 28.9256 11.0117C35.1724 11.0118 41.4192 11.0097 47.6659 11.0181C47.9653 11.0186 48.2646 11.1122 48.5485 11.2203C47.4801 11.4643 46.4271 11.6503 45.3741 11.8364Z" fill="#F89795"/>
<path d="M91.6112 25.237C84.5149 25.2908 77.4249 25.293 70.3349 25.2862C69.944 25.2859 69.5532 25.2102 69.1279 25.1189C69.3373 24.8133 69.5812 24.5584 69.8867 24.3066C77.1669 24.3141 84.3855 24.3182 91.6041 24.3224C91.6086 24.6094 91.6131 24.8965 91.6112 25.237Z" fill="#F95D5C"/>
<path d="M91.3739 21.4181C91.4258 21.7453 91.4777 22.0726 91.4663 22.4521C84.7619 22.503 78.1209 22.5017 71.4971 22.4631C71.8361 22.0874 72.158 21.7491 72.5398 21.4121C78.8577 21.4149 85.1158 21.4165 91.3739 21.4181Z" fill="#F96968"/>
<path d="M71.4804 22.502C78.1214 22.5033 84.7624 22.5046 91.4637 22.5051C91.555 22.7946 91.586 23.0847 91.5533 23.4255C84.525 23.4725 77.5604 23.469 70.6138 23.4285C70.9147 23.095 71.1976 22.7985 71.4804 22.502Z" fill="#F96766"/>
<path d="M70.5951 23.4658C77.5598 23.4693 84.5244 23.4729 91.5462 23.4762C91.608 23.7234 91.6126 23.9708 91.6107 24.2709C84.3856 24.3195 77.167 24.3153 69.9053 24.2707C70.1065 23.9755 70.3508 23.7207 70.5951 23.4658Z" fill="#F96161"/>
<path d="M91.3725 21.371C85.1155 21.4167 78.8574 21.4151 72.5566 21.3749C72.8629 20.9628 73.2117 20.5893 73.5606 20.2158C73.8939 20.2939 74.227 20.4393 74.5605 20.4401C80.0469 20.4535 85.5333 20.4487 91.0793 20.4474C91.2163 20.7391 91.2938 21.0314 91.3725 21.371Z" fill="#F9706F"/>
<path d="M73.5811 20.1804C73.2121 20.5886 72.8632 20.9621 72.4972 21.373C72.1581 21.7486 71.8361 22.0869 71.4971 22.4626C71.1971 22.7964 70.9142 23.0929 70.6133 23.4264C70.3509 23.7183 70.1066 23.9731 69.8438 24.2651C69.5814 24.5572 69.3375 24.8121 69.0729 25.1035C68.7172 25.4916 68.3822 25.8434 68.0237 26.2284C67.7488 26.5345 67.4975 26.8074 67.2272 27.1139C66.9397 27.4307 66.671 27.7138 66.3875 28.0348C65.9715 28.4921 65.5702 28.9115 65.1171 29.3898C64.3956 30.1923 63.7258 30.9361 63.0225 31.7003C62.7252 32.0006 62.4615 32.2804 62.1741 32.5853C61.6809 32.133 61.2192 31.6982 60.7449 31.2769C59.4959 30.1675 58.1818 29.1373 56.5207 28.6721C53.8226 27.9166 51.1001 27.8607 48.4024 28.6554C41.9695 30.5505 37.2612 37.4331 38.5967 44.403C39.2624 47.8779 41.0093 50.7194 43.7759 52.9325C47.3087 55.7586 51.3995 56.4581 55.8248 55.4857C57.7708 55.0581 59.3359 53.9635 60.8032 52.721C61.3156 52.2872 61.7955 51.8174 62.3043 51.3511C62.6404 51.6826 62.9443 51.9822 63.2625 52.3198C64.601 53.7431 65.9252 55.1284 67.2634 56.5519C68.2654 57.6199 69.2533 58.6498 70.2553 59.7174C71.0777 60.6001 71.8859 61.4451 72.7156 62.3226C73.1646 62.8151 73.5922 63.2751 74.0276 63.7435C73.9502 63.8379 73.9051 63.9043 73.8488 63.9602C67.8226 69.9368 60.4926 72.9431 51.8685 73.008C49.5464 73.0255 47.2698 72.6905 44.9732 72.1919C44.7968 72.1299 44.6541 72.1023 44.5142 72.0649C38.3488 70.4169 33.2486 67.164 29.1894 62.405C24.5798 57.0007 22.1383 50.7602 21.7337 43.7683C21.4876 39.5173 22.0926 35.3777 23.5016 31.3015C23.7283 30.6441 23.9327 30.0263 24.1787 29.3914C24.4025 28.9907 24.5847 28.6072 24.8004 28.1956C25.0567 27.6925 25.2795 27.2174 25.527 26.7077C25.7602 26.2981 25.9685 25.923 26.1769 25.548C26.4194 25.2128 26.662 24.8776 26.9227 24.5033C27.2143 24.0845 27.4878 23.7047 27.7786 23.2861C28.0664 22.9139 28.337 22.5805 28.6217 22.21C28.9156 21.8261 29.1951 21.4793 29.4937 21.0954C29.8502 20.7271 30.1876 20.3959 30.5581 20.0362C30.886 19.6966 31.1809 19.3854 31.4955 19.0379C31.9179 18.6628 32.3206 18.324 32.7431 17.9486C33.1188 17.6611 33.475 17.4103 33.8602 17.1314C34.2924 16.7928 34.6953 16.4822 35.1193 16.1351C35.498 15.883 35.8557 15.6673 36.2338 15.4157C36.5456 15.2523 36.8432 15.1363 37.1269 14.9942C37.5345 14.79 37.932 14.5668 38.3602 14.3168C38.7836 14.1053 39.1806 13.9288 39.6032 13.7189C40.0693 13.5062 40.5098 13.3269 40.9769 13.1138C41.4749 12.9207 41.9463 12.7615 42.4583 12.5811C43.4243 12.3232 44.3496 12.0866 45.3247 11.8426C46.4274 11.6494 47.4804 11.4634 48.5789 11.2539C49.9072 11.184 51.1898 11.1072 52.4728 11.1017C53.3605 11.0979 54.2486 11.1925 55.1937 11.2368C55.8931 11.3284 56.5382 11.4116 57.1768 11.5282C57.9189 11.6637 58.6553 11.8287 59.4453 11.986C60.1724 12.1889 60.8484 12.3864 61.573 12.5899C62.1728 12.7935 62.7242 12.9913 63.3235 13.195C63.7163 13.3569 64.061 13.5128 64.4511 13.6768C65.0114 13.95 65.5263 14.2151 66.0836 14.489C66.7587 14.8333 67.3913 15.1688 68.0669 15.5165C68.4007 15.7177 68.6915 15.9067 69.0197 16.1094C69.4696 16.4279 69.8821 16.7327 70.3328 17.0554C70.7203 17.3448 71.0694 17.6165 71.4563 17.9066C72.0941 18.4769 72.6942 19.0287 73.3319 19.5988C73.4467 19.7934 73.524 19.9696 73.5811 20.1804ZM22.3664 39.4305C22.372 41.2121 22.3777 42.9936 22.3815 44.883C22.7476 46.7832 23.1137 48.6833 23.4925 50.6784C24.0669 52.8008 24.8922 54.8272 26.0006 56.8392C26.9568 58.2671 27.913 59.6949 28.9047 61.1959C30.0612 62.4185 31.2177 63.641 32.421 64.9301C32.6808 65.1606 32.9212 65.417 33.2039 65.6172C34.3535 66.4312 35.516 67.2279 36.7187 68.1054C38.0857 68.8279 39.4009 69.6693 40.8288 70.2517C46.0867 72.396 51.5505 72.9543 57.1754 72.0014C60.8844 71.3731 64.3124 70.0369 67.6092 68.1341C69.0305 67.0775 70.4518 66.0208 71.9522 64.9408C72.3805 64.5474 72.8087 64.1541 73.2786 63.7224C72.3551 62.7654 71.4961 61.8753 70.5958 60.9143C69.2758 59.5256 67.9559 58.1369 66.5937 56.6782C65.3055 55.3066 64.0064 53.9443 62.7362 52.5572C62.3865 52.1754 62.1703 52.2177 61.7803 52.5305C60.6467 53.4397 59.5815 54.5412 58.2775 55.1192C53.3399 57.3077 48.529 56.8611 44.1083 53.8C42.7771 52.8782 41.7387 51.56 40.5284 50.3464C40.4148 50.155 40.3082 49.9593 40.1865 49.7729C39.1799 48.2298 38.4592 46.5753 38.0918 44.6817C37.719 42.9031 37.7771 41.1196 38.0676 39.254C38.5004 37.3877 39.2029 35.6269 40.3248 33.9545C40.9504 33.2019 41.5317 32.4092 42.2112 31.7056C43.3709 30.5048 44.7589 29.5787 46.3424 28.7815C48.544 27.7911 50.8616 27.4771 53.2743 27.5775C55.3801 27.665 57.3638 28.0856 59.0864 29.3103C59.8711 29.8681 60.607 30.4945 61.3329 31.1245C62.0783 31.7714 62.2109 31.7794 62.8625 31.0332C63.3187 30.5108 63.7776 29.9905 64.2434 29.4761C66.2022 27.313 68.1641 25.1525 70.1939 22.9454C71.0056 22.0838 71.8307 21.2333 72.6145 20.3485C72.7298 20.2185 72.7511 19.8292 72.6439 19.7238C71.5904 18.6875 70.5384 17.7379 68.8255 17.7642C64.3507 17.8329 59.8741 17.7873 55.3982 17.7873C48.6947 17.7873 41.9913 17.7893 35.2879 17.7848C34.4984 17.7843 33.7549 17.8753 33.1495 18.4387C32.3549 19.1779 31.5114 19.8714 30.7572 20.6468C30.1208 21.3011 29.5817 22.0442 28.9351 22.799C27.4381 24.5574 26.2618 26.5074 25.2334 28.6453C24.5774 30.4329 23.9215 32.2204 23.2471 34.1021C22.9571 35.8442 22.6672 37.5862 22.3664 39.4305ZM39.8907 14.3342C38.5029 14.8568 37.1939 15.514 35.8773 16.4629C46.8127 16.4629 57.5775 16.4629 68.5164 16.4629C68.115 16.2059 67.8604 16.0383 67.6012 15.8776C65.633 14.6579 63.553 13.9709 61.1425 14.0052C54.7696 14.0959 48.3943 14.0279 42.0201 14.0477C41.3419 14.0498 40.6642 14.2144 39.8907 14.3342ZM68.7623 16.6797C68.7516 16.6852 68.741 16.6908 68.7303 16.6963C68.738 16.7049 68.7457 16.7134 68.7534 16.722C68.7603 16.7124 68.7672 16.7027 68.7623 16.6797Z" fill="#FEF9F9"/>
<path d="M88.7401 31.9114C89.1296 34.2156 89.6826 36.508 89.862 38.8274C90.0365 41.0819 89.8908 43.3673 89.7722 45.6336C89.6152 48.63 88.9051 51.5354 87.8897 54.362C86.8416 57.2794 85.5175 60.0699 83.7747 62.6772C82.0345 65.2806 80.0204 67.6455 77.7216 69.7997C75.1474 72.2118 72.2632 74.2 69.134 75.8729C65.9043 77.5996 62.494 78.8917 58.8847 79.5939C56.6502 80.0287 54.3651 80.2513 52.0921 80.4619C49.3542 80.7156 46.6155 80.5221 43.9068 80.1031C38.9025 79.329 34.203 77.7124 29.829 75.2109C27.3632 73.8008 25.1226 72.1248 22.996 70.2691C19.5193 67.235 16.8157 63.6535 14.6335 59.6742C12.6438 56.0459 11.3399 52.1871 10.6851 48.1412C10.3707 46.1988 10.1838 44.2208 10.1498 42.2556C10.0745 37.9118 10.8092 33.6723 12.2627 29.5563C12.3623 29.2744 12.4968 29.0039 12.677 28.7227C12.9936 28.9853 13.2484 29.2534 13.5202 29.5591C13.985 29.8916 14.4328 30.1864 14.8741 30.529C14.3376 32.9145 13.6876 35.2341 13.3057 37.5942C12.7383 41.1015 12.956 44.624 13.5843 48.1154C14.5541 53.5045 16.7079 58.4063 20.0159 62.8514C22.2242 65.8188 24.8138 68.4122 27.8315 70.5927C31.4653 73.2184 35.4442 75.1755 39.8305 76.3833C44.3521 77.6283 48.9386 78.0824 53.5999 77.6529C57.4088 77.302 61.1101 76.4249 64.6301 74.9454C69.8435 72.7543 74.3477 69.5987 78.0737 65.4364C81.3573 61.7685 83.8054 57.6306 85.3521 53.0051C86.1493 50.6208 86.6546 48.1829 86.9206 45.6847C87.2317 42.7625 87.2427 39.8532 86.7859 36.9527C86.5416 35.4015 86.1833 33.8673 85.9328 32.3192C86.9062 32.1791 87.8231 32.0453 88.7401 31.9114Z" fill="#BE0C0C"/>
<path d="M88.773 31.8861C87.8231 32.0438 86.9062 32.1777 85.8745 32.3118C84.9235 32.2868 84.0873 32.2615 83.1949 32.2258C81.8851 32.1074 80.6313 31.9993 79.3344 31.8755C77.9026 31.6471 76.5141 31.4342 75.0751 31.2156C73.2271 30.8825 71.4295 30.5553 69.6021 30.2097C69.4628 30.155 69.3532 30.1187 69.2437 30.0823C69.4981 30.0177 69.7525 29.897 70.0071 29.8967C76.8951 29.8899 83.7832 29.8954 90.7336 29.9021C90.4245 30.8358 89.6993 31.4292 88.773 31.8861Z" fill="#FA4444"/>
<path d="M25.5023 26.7451C25.2794 27.2203 25.0566 27.6954 24.7541 28.1733C24.367 28.1429 24.0596 28.0816 23.7522 28.081C19.9621 28.0742 16.1721 28.0763 12.382 28.076C12.1835 27.6203 11.9851 27.1646 11.8354 26.6662C14.7257 26.6239 17.5673 26.6103 20.4087 26.6298C22.1068 26.6415 23.8044 26.7049 25.5023 26.7451Z" fill="#FA5050"/>
<path d="M12.3843 28.1168C16.1717 28.0754 19.9618 28.0733 23.7518 28.0801C24.0593 28.0807 24.3666 28.142 24.7202 28.2003C24.5843 28.6092 24.4021 28.9927 24.119 29.3928C20.7977 29.4085 17.5773 29.4048 14.3569 29.4119C14.0721 29.4125 13.7874 29.4841 13.5026 29.5228C13.2479 29.2547 12.9932 28.9866 12.711 28.6924C12.5846 28.497 12.4858 28.3277 12.3843 28.1168Z" fill="#FA4B4B"/>
<path d="M25.5274 26.7099C23.8048 26.7043 22.1072 26.6408 20.4091 26.6292C17.5677 26.6097 14.7261 26.6233 11.8274 26.6226C11.7221 26.293 11.674 25.9636 11.6299 25.5841C16.4403 25.5377 21.2469 25.5413 26.1153 25.5476C25.9689 25.9253 25.7605 26.3003 25.5274 26.7099Z" fill="#F95858"/>
<path d="M69.1907 30.0745C69.3528 30.1215 69.4624 30.1579 69.6053 30.2603C69.7971 30.6949 69.9243 31.0799 70.1191 31.4295C71.337 33.6154 72.1664 35.9501 72.5649 38.3812C72.829 39.9921 72.7866 41.665 72.7373 43.3061C72.621 47.1713 71.2941 50.6806 69.1548 53.9135C68.563 54.8079 67.8866 55.6497 67.2489 56.5157C65.9248 55.1304 64.6006 53.7451 63.2752 52.2815C63.4283 51.9657 63.5719 51.7211 63.7385 51.4921C65.9372 48.4714 67.0366 45.1504 66.9024 41.4209C66.8189 39.1025 66.3162 36.9117 65.28 34.8437C64.7042 33.6944 64.1276 32.517 63.0557 31.6819C63.7254 30.9381 64.3952 30.1944 65.1008 29.4287C66.4705 29.6258 67.8044 29.8448 69.1907 30.0745Z" fill="#DA1212"/>
<path d="M79.3772 31.8963C80.631 32.0045 81.8847 32.1126 83.1949 32.2782C83.2996 32.6125 83.3214 32.8965 83.4003 33.1648C84.2031 35.8944 84.5807 38.6867 84.6078 41.5151C84.6215 42.94 84.5008 44.3702 84.3659 45.7914C84.1402 48.1689 83.5978 50.4979 82.7356 52.7248C82.0151 54.5856 81.1247 56.3934 80.1923 58.1669C78.2471 61.8669 75.4472 64.9214 72.1943 67.5789C70.0749 69.3103 67.735 70.7475 65.2379 71.9345C62.873 73.0587 60.4113 73.9435 57.8415 74.4727C54.707 75.1182 51.536 75.5846 48.3111 75.2657C46.6177 75.0983 44.9104 74.9671 43.2454 74.6452C39.5092 73.9229 35.9252 72.7243 32.6959 70.7393C30.7525 69.5446 28.8491 68.2482 27.1094 66.7939C24.9518 64.9902 23.0818 62.9019 21.4818 60.588C19.4838 57.6987 17.953 54.6052 16.9441 51.2802C16.2934 49.1354 15.8987 46.9388 15.6911 44.6991C15.4797 42.418 15.4905 40.143 15.8448 37.9026C16.2057 35.6204 16.8514 33.3804 17.4278 31.1152C18.2798 31.1566 19.0765 31.2048 19.8731 31.3022C19.8063 31.6858 19.7714 32.0295 19.6682 32.3528C18.439 36.2035 17.9075 40.1256 18.2286 44.1596C18.4981 47.5458 19.2795 50.7969 20.6245 53.9337C21.7745 56.6157 23.3391 59.0583 25.1902 61.3184C26.5704 63.0034 28.1707 64.4882 29.9016 65.8651C31.8168 67.3887 33.8854 68.6392 36.0688 69.7325C38.6028 71.0013 41.3142 71.78 44.1026 72.3136C44.3873 72.3681 44.7053 72.2592 45.0079 72.2262C47.2694 72.6949 49.546 73.0299 51.8681 73.0124C60.4923 72.9475 67.8222 69.9412 73.8484 63.9646C73.9047 63.9087 73.9498 63.8424 74.0272 63.7479C73.5918 63.2795 73.1643 62.8195 72.7416 62.2874C73.449 61.3943 74.1856 60.598 74.8473 59.7472C76.4575 57.6766 77.7096 55.407 78.7427 53.0189C79.6653 50.8866 80.279 48.6618 80.5819 46.3853C80.83 44.5205 80.9403 42.6167 80.8642 40.7395C80.7897 38.9009 80.4391 37.0685 80.1388 35.2443C79.9534 34.1178 79.6356 33.0116 79.3772 31.8963Z" fill="#C60D0E"/>
<path d="M63.0225 31.7003C64.128 32.5149 64.7045 33.6923 65.2804 34.8416C66.3165 36.9096 66.8193 39.1003 66.9028 41.4188C67.037 45.1483 65.9375 48.4693 63.7389 51.49C63.5723 51.719 63.4287 51.9636 63.2612 52.2414C62.9443 51.9822 62.6404 51.6826 62.3043 51.3511C61.7955 51.8173 61.3156 52.2871 60.8032 52.721C59.3359 53.9635 57.7708 55.0581 55.8248 55.4857C51.3995 56.458 47.3087 55.7585 43.7759 52.9324C41.0093 50.7193 39.2624 47.8778 38.5966 44.4029C37.2612 37.433 41.9695 30.5504 48.4024 28.6554C51.1001 27.8606 53.8226 27.9165 56.5207 28.6721C58.1818 29.1372 59.4959 30.1674 60.7449 31.2768C61.2192 31.6982 61.6809 32.1329 62.1741 32.5852C62.4614 32.2804 62.7252 32.0006 63.0225 31.7003ZM52.0466 31.4676C51.1598 31.4239 50.2666 31.2917 49.3873 31.3518C45.359 31.6269 42.2714 33.4966 40.4167 36.9326C38.3588 40.7448 38.5804 44.5847 41.2318 48.1018C43.9062 51.6494 47.6033 53.0109 52.0697 52.3377C55.1225 51.8776 57.4553 50.2227 59.1793 47.8345C60.5165 45.9822 61.097 43.8583 61.0202 41.5497C60.939 39.1079 60.1246 36.9422 58.5333 35.1107C56.8736 33.2004 54.7643 31.8932 52.0466 31.4676Z" fill="#E61415"/>
<path d="M25.2607 28.5635C26.2614 26.5086 27.4378 24.5586 29.0209 22.7739C30.0822 22.7081 31.0572 22.6349 32.0323 22.6343C43.6631 22.6263 55.2939 22.6291 66.9247 22.6292C67.6737 22.6292 68.4254 22.5949 69.1706 22.6473C69.4955 22.6701 69.807 22.8718 70.1245 22.9922C68.1638 25.1537 66.2019 27.3142 64.2431 29.4773C63.7773 29.9917 63.3184 30.512 62.8622 31.0344C62.2106 31.7806 62.0779 31.7726 61.3325 31.1257C60.6066 30.4957 59.8708 29.8693 59.0861 29.3115C57.3635 28.0868 55.3797 27.6662 53.274 27.5787C50.8613 27.4783 48.5437 27.7923 46.279 28.752C45.8992 28.6268 45.5827 28.4507 45.2656 28.4499C39.0927 28.4336 32.9197 28.4349 26.7467 28.4431C26.2513 28.4438 25.7561 28.5216 25.2607 28.5635Z" fill="#F1ECEC"/>
<path d="M70.1591 22.9692C69.807 22.8716 69.4956 22.6699 69.1707 22.6471C68.4255 22.5947 67.6738 22.629 66.9248 22.629C55.294 22.6289 43.6632 22.6261 32.0324 22.6341C31.0573 22.6347 30.0823 22.7079 29.0532 22.7482C29.5814 22.0452 30.1206 21.3021 30.757 20.6478C31.5112 19.8724 32.3547 19.179 33.1492 18.4397C33.7547 17.8763 34.4981 17.7853 35.2876 17.7859C41.9911 17.7903 48.6945 17.7883 55.3979 17.7883C59.8738 17.7883 64.3505 17.8339 68.8253 17.7652C70.5382 17.7389 71.5902 18.6886 72.6437 19.7248C72.7509 19.8303 72.7295 20.2195 72.6143 20.3495C71.8304 21.2343 71.0054 22.0849 70.1591 22.9692Z" fill="#F7F4F4"/>
<path d="M28.869 61.1245C27.9128 59.6966 26.9566 58.2688 26.0479 56.7987C39.6088 56.7543 53.1223 56.7522 66.6357 56.75C67.9557 58.1387 69.2757 59.5273 70.5659 60.9467C69.7749 60.9011 69.0138 60.7591 68.2525 60.7583C55.5948 60.7445 42.937 60.7484 30.2793 60.7488C30.0295 60.7488 29.7663 60.7064 29.5337 60.7689C29.2965 60.8326 29.0894 61.0016 28.869 61.1245Z" fill="#D1C0C0"/>
<path d="M28.8872 61.1617C29.0898 61.0022 29.2969 60.8333 29.5341 60.7695C29.7667 60.707 30.03 60.7494 30.2798 60.7494C42.9375 60.749 55.5952 60.7451 68.2529 60.7589C69.0142 60.7597 69.7753 60.9017 70.5869 60.9828C71.4963 61.8777 72.3554 62.7678 73.2789 63.7247C72.8089 64.1564 72.3807 64.5498 71.9046 64.9107C71.7055 64.3785 71.2694 64.5058 70.9204 64.5056C58.4187 64.4997 45.917 64.5006 33.4153 64.5014C33.2491 64.5014 33.066 64.4708 32.9207 64.527C32.7235 64.6033 32.5552 64.7496 32.3745 64.8659C31.218 63.6433 30.0615 62.4208 28.8872 61.1617Z" fill="#CEBABA"/>
<path d="M66.6148 56.7166C53.1224 56.7538 39.609 56.7559 26.0345 56.7585C24.8922 54.8305 24.067 52.8042 23.5391 50.6232C23.9782 50.5312 24.3707 50.469 24.7633 50.4684C29.5526 50.4617 34.3418 50.4651 39.1311 50.4624C39.6095 50.4622 40.0878 50.4392 40.5662 50.4268C41.7387 51.5634 42.7771 52.8816 44.1083 53.8034C48.529 56.8645 53.3399 57.3111 58.2776 55.1226C59.5815 54.5446 60.6467 53.4431 61.7803 52.5338C62.1703 52.2211 62.3865 52.1787 62.7363 52.5606C64.0065 53.9476 65.3055 55.3099 66.6148 56.7166Z" fill="#D7C7C7"/>
<path d="M44.9727 72.1929C44.7052 72.2558 44.3872 72.3647 44.1025 72.3103C41.3141 71.7766 38.6027 70.9979 36.0687 69.7291C33.8853 68.6358 31.8167 67.3853 29.9015 65.8617C28.1706 64.4848 26.5703 63 25.1901 61.315C23.339 59.0549 21.7744 56.6123 20.6244 53.9303C19.2794 50.7935 18.498 47.5424 18.2285 44.1562C17.9074 40.1222 18.4389 36.2001 19.6681 32.3494C19.7713 32.0261 19.8062 31.6824 19.9303 31.294C21.1514 31.2741 22.3151 31.3082 23.4788 31.3423C22.0921 35.3787 21.4871 39.5183 21.7332 43.7693C22.1379 50.7613 24.5793 57.0017 29.1889 62.406C33.2481 67.165 38.3483 70.418 44.5137 72.0659C44.6536 72.1033 44.7963 72.1309 44.9727 72.1929Z" fill="#CA0F10"/>
<path d="M67.2632 56.5536C67.8867 55.6494 68.5632 54.8076 69.155 53.9132C71.2943 50.6803 72.6212 47.171 72.7374 43.3058C72.7868 41.6647 72.8292 39.9918 72.5651 38.3809C72.1665 35.9498 71.3372 33.6151 70.1193 31.4292C69.9245 31.0796 69.7973 30.6946 69.6352 30.2783C71.4293 30.5579 73.2269 30.8851 75.0773 31.2655C75.1887 31.5313 75.2404 31.7461 75.3072 31.9563C75.7528 33.3581 76.263 34.7439 76.6366 36.1634C77.4194 39.1386 77.5339 42.1702 77.1008 45.1998C76.6743 48.1832 75.8827 51.0753 74.4235 53.7701C73.2686 55.903 71.865 57.8635 70.241 59.6814C69.2531 58.6516 68.2652 57.6217 67.2632 56.5536Z" fill="#D31011"/>
<path d="M32.3975 64.8966C32.5548 64.747 32.7231 64.6007 32.9203 64.5245C33.0656 64.4683 33.2486 64.4988 33.4149 64.4988C45.9166 64.498 58.4183 64.4971 70.9199 64.5031C71.269 64.5032 71.7051 64.3759 71.8646 64.9198C70.4516 66.0206 69.0304 67.0773 67.5296 68.1164C67.0917 68.028 66.7334 67.8957 66.375 67.8953C56.8857 67.884 47.3964 67.8845 37.9071 67.8924C37.4959 67.8928 37.0848 67.9826 36.6736 68.0308C35.5159 67.2277 34.3533 66.431 33.2038 65.617C32.921 65.4168 32.6807 65.1604 32.3975 64.8966Z" fill="#CAB6B6"/>
<path d="M70.2554 59.7203C71.8653 57.8646 73.2689 55.9042 74.4238 53.7713C75.883 51.0765 76.6746 48.1844 77.1011 45.201C77.5342 42.1714 77.4197 39.1397 76.6368 36.1645C76.2633 34.745 75.7531 33.3593 75.3075 31.9574C75.2407 31.7472 75.189 31.5325 75.1279 31.2725C76.5141 31.4379 77.9027 31.6508 79.3345 31.8792C79.636 33.0101 79.9538 34.1163 80.1392 35.2428C80.4395 37.067 80.7901 38.8994 80.8646 40.738C80.9407 42.6152 80.8304 44.519 80.5823 46.3838C80.2794 48.6603 79.6657 50.8851 78.7432 53.0174C77.71 55.4055 76.4579 57.6751 74.8477 59.7456C74.186 60.5965 73.4494 61.3928 72.7205 62.2534C71.886 61.448 71.0777 60.603 70.2554 59.7203Z" fill="#CD0F0F"/>
<path d="M25.2473 28.6053C25.7565 28.5219 26.2517 28.4441 26.7471 28.4435C32.9201 28.4352 39.0931 28.4339 45.266 28.4502C45.5831 28.451 45.8996 28.6271 46.2353 28.7635C44.759 29.5802 43.371 30.5063 42.2113 31.7071C41.5317 32.4108 40.9504 33.2034 40.2397 33.9751C39.7208 33.9572 39.2871 33.8892 38.8533 33.8884C34.403 33.8805 29.9526 33.8778 25.5022 33.8892C24.7566 33.8911 24.0111 33.9675 23.2656 34.0095C23.9216 32.222 24.5775 30.4344 25.2473 28.6053Z" fill="#ECE5E5"/>
<path d="M36.6958 68.0691C37.0845 67.9837 37.4956 67.8938 37.9069 67.8935C47.3962 67.8856 56.8854 67.8851 66.3747 67.8964C66.7331 67.8968 67.0914 68.0291 67.4888 68.132C64.3119 70.0378 60.884 71.374 57.175 72.0023C51.5501 72.9552 46.0862 72.3968 40.8284 70.2526C39.4004 69.6702 38.0852 68.8288 36.6958 68.0691Z" fill="#C7B1B1"/>
<path d="M40.5465 50.3869C40.0871 50.4378 39.6087 50.4608 39.1303 50.461C34.3411 50.4637 29.5518 50.4603 24.7625 50.4671C24.3699 50.4676 23.9774 50.5298 23.532 50.5744C23.113 48.6853 22.7469 46.7852 22.4395 44.8306C27.6988 44.7777 32.8995 44.7793 38.1002 44.7808C38.4585 46.5773 39.1791 48.2318 40.1858 49.7748C40.3074 49.9613 40.4141 50.157 40.5465 50.3869Z" fill="#DCCFCF"/>
<path d="M23.256 34.0559C24.0108 33.9668 24.7562 33.8904 25.5018 33.8885C29.9522 33.8771 34.4026 33.8798 38.8529 33.8877C39.2867 33.8885 39.7204 33.9565 40.2074 33.9998C39.2026 35.6277 38.5001 37.3885 37.9856 39.2933C32.7282 39.3309 27.5526 39.33 22.377 39.3291C22.6669 37.587 22.9568 35.845 23.256 34.0559Z" fill="#E7DDDD"/>
<path d="M22.3716 39.3818C27.5526 39.3316 32.7283 39.3325 37.9653 39.3348C37.7768 41.122 37.7187 42.9054 38.0961 44.7326C32.9 44.7797 27.6993 44.7781 22.4408 44.7771C22.3774 42.996 22.3718 41.2144 22.3716 39.3818Z" fill="#E2D6D6"/>
<path d="M39.9387 14.3198C40.6644 14.2153 41.342 14.0507 42.0202 14.0486C48.3945 14.0288 54.7697 14.0969 61.1426 14.0061C63.5531 13.9718 65.6331 14.6588 67.6013 15.8786C67.8605 16.0392 68.1151 16.2068 68.5165 16.4638C57.5776 16.4638 46.8128 16.4638 35.8774 16.4638C37.1941 15.5149 38.503 14.8577 39.9387 14.3198Z" fill="#FCFAFA"/>
<path d="M23.5015 31.3041C22.3155 31.3097 21.1518 31.2755 19.9308 31.2462C19.0767 31.2029 18.28 31.1547 17.3854 31.0906C16.4851 30.8775 15.6827 30.6803 14.8803 30.4831C14.4326 30.1882 13.9849 29.8934 13.52 29.561C13.7876 29.4847 14.0723 29.4131 14.3571 29.4124C17.5775 29.4053 20.7979 29.409 24.0777 29.4105C23.9326 30.0288 23.7282 30.6466 23.5015 31.3041Z" fill="#F94646"/>
<path d="M68.7674 16.6867C68.7664 16.7031 68.7595 16.7129 68.7526 16.7227C68.7449 16.714 68.7372 16.7053 68.7295 16.6967C68.7401 16.6911 68.7508 16.6855 68.7674 16.6867Z" fill="#FCFAFA"/>
<path d="M14.8744 30.5293C15.6832 30.6787 16.4856 30.8759 17.3306 31.0958C16.8522 33.377 16.2064 35.6169 15.8455 37.8991C15.4912 40.1395 15.4804 42.4146 15.6918 44.6956C15.8995 46.9353 16.2941 49.132 16.9449 51.2768C17.9537 54.6017 19.4845 57.6952 21.4825 60.5846C23.0825 62.8984 24.9525 64.9867 27.1101 66.7904C28.8499 68.2447 30.7532 69.5411 32.6966 70.7358C35.926 72.7208 39.5099 73.9194 43.2461 74.6418C44.9111 74.9637 46.6184 75.0948 48.3118 75.2623C51.5367 75.5811 54.7078 75.1147 57.8422 74.4692C60.412 73.94 62.8737 73.0552 65.2386 71.931C67.7357 70.744 70.0757 69.3069 72.195 67.5754C75.448 64.9179 78.2478 61.8634 80.193 58.1634C81.1255 56.3899 82.0159 54.5821 82.7363 52.7213C83.5985 50.4945 84.1409 48.1655 84.3666 45.7879C84.5015 44.3668 84.6222 42.9365 84.6086 41.5116C84.5814 38.6832 84.2038 35.891 83.401 33.1613C83.3221 32.893 83.3004 32.609 83.2518 32.2851C84.0877 32.2632 84.9239 32.2886 85.8184 32.3198C86.1836 33.8675 86.5419 35.4018 86.7862 36.9529C87.243 39.8535 87.232 42.7627 86.9209 45.685C86.6549 48.1832 86.1496 50.6211 85.3524 53.0054C83.8057 57.6309 81.3576 61.7687 78.074 65.4367C74.348 69.5989 69.8438 72.7546 64.6305 74.9457C61.1104 76.4251 57.4091 77.3023 53.6002 77.6532C48.9389 78.0826 44.3524 77.6286 39.8308 76.3835C35.4445 75.1758 31.4656 73.2186 27.8318 70.5929C24.8141 68.4124 22.2245 65.8191 20.0162 62.8517C16.7082 58.4066 14.5544 53.5048 13.5846 48.1156C12.9563 44.6243 12.7386 41.1017 13.306 37.5945C13.6879 35.2343 14.3379 32.9148 14.8744 30.5293Z" fill="#C20C0D"/>
<path d="M52.0997 31.4764C54.7641 31.8947 56.8733 33.2018 58.5331 35.1122C60.1244 36.9437 60.9388 39.1094 61.02 41.5512C61.0968 43.8598 60.5163 45.9836 59.1791 47.836C57.4551 50.2242 55.1223 51.8791 52.0694 52.3392C47.6031 53.0123 43.906 51.6509 41.2316 48.1033C38.5802 44.5862 38.3586 40.7463 40.4164 36.9341C42.2712 33.4981 45.3587 31.6284 49.3871 31.3532C50.2663 31.2932 51.1596 31.4254 52.0997 31.4764ZM44.6252 46.163C45.3104 46.7073 45.943 47.3342 46.6905 47.7809C49.286 49.3318 53.0681 48.943 55.3236 46.4284C57.8478 43.6144 57.6348 39.5729 54.9497 37.0319C52.0023 34.2426 46.7268 34.5584 44.2329 38.2254C42.5847 40.6488 42.7566 43.7691 44.6252 46.163Z" fill="#EC1516"/>
<path d="M44.5955 46.1326C42.7569 43.7704 42.585 40.6502 44.2332 38.2267C46.7271 34.5598 52.0026 34.244 54.95 37.0333C57.6351 39.5743 57.848 43.6157 55.3239 46.4298C53.0684 48.9444 49.2863 49.3331 46.6908 47.7822C45.9433 47.3356 45.3107 46.7086 44.5955 46.1326Z" fill="#F31717"/>
</g>
<defs>
<clipPath id="clip0_188_3682">
<rect width="100" height="110" fill="white"/>
</clipPath>
</defs>
</svg>
