<svg width="140" height="60" viewBox="0 0 140 60" fill="none" xmlns="http://www.w3.org/2000/svg">
<g clip-path="url(#clip0_178_1986)">
<path d="M16.8206 10.0517C16.8206 10.0517 16.7838 10.007 16.7895 9.92594C16.7447 9.76119 16.6942 9.67749 16.6437 9.59379C16.6437 9.59379 16.6529 9.59442 16.6509 9.53776C16.5417 9.31092 16.4345 9.14073 16.3272 8.97054C15.5147 8.18197 14.7022 7.39341 13.924 6.55668C14.1372 6.50624 14.3177 6.48751 14.4948 6.50451C15.2969 6.5815 15.4226 6.40244 15.1186 5.64741C15.0495 5.47573 15.0491 5.26994 15.045 5.07925C15.0226 4.02546 15.0689 2.96592 14.9724 1.91939C14.9004 1.13818 14.2334 0.721729 13.3563 0.604523C13.0024 0.55723 12.6746 0.312876 12.335 0.158203C12.4506 0.158203 12.5662 0.158203 12.7397 0.158203C14.0578 0.594206 15.3181 1.03021 16.5759 1.54145C16.7078 1.69383 16.842 1.77097 16.9763 1.84811C16.9763 1.84811 16.9627 1.85518 16.972 1.906C17.2843 2.45854 17.5874 2.96028 17.8582 3.40851C17.7307 3.70607 17.5585 4.02183 17.4623 4.35936C17.3839 4.63426 17.3813 4.93469 17.3714 5.22471C17.3437 6.02718 17.2037 6.85301 17.3435 7.62687C17.5049 8.5206 17.4548 9.30101 16.9242 10.0522C16.8897 10.0523 16.8206 10.0517 16.8206 10.0517Z" fill="#0374BC"/>
<path d="M12.2768 0.158203C12.6743 0.312876 13.002 0.55723 13.3559 0.604523C14.233 0.721729 14.9001 1.13818 14.9721 1.91939C15.0685 2.96592 15.0223 4.02546 15.0447 5.07925C15.0487 5.26994 15.0491 5.47573 15.1182 5.64741C15.4222 6.40244 15.2965 6.5815 14.4945 6.50451C14.3174 6.48751 14.1369 6.50624 13.8894 6.51497C12.7526 6.41725 11.6843 6.31308 10.5625 6.14347C10.863 6.01163 11.2145 5.91506 11.5715 5.8849C12.4071 5.81431 12.5105 5.54625 12.3441 4.7508C12.1806 3.96917 11.9455 2.97025 12.2821 2.37308C12.7288 1.58083 12.2267 1.30581 11.9985 0.816338C11.907 0.620082 11.9113 0.378923 11.872 0.158203C11.9877 0.158203 12.1033 0.158203 12.2768 0.158203Z" fill="#037CC3"/>
<path d="M11.8008 0.158203C11.912 0.378923 11.9077 0.620082 11.9992 0.816338C12.2273 1.30581 12.7294 1.58083 12.2828 2.37308C11.9462 2.97025 12.1813 3.96917 12.3448 4.7508C12.5111 5.54625 12.4077 5.81431 11.5721 5.8849C11.2151 5.91506 10.8637 6.01163 10.4978 6.13933C10.2213 6.30736 9.95667 6.41409 9.64838 6.47163C9.59085 5.92092 9.29392 5.37215 9.85405 4.96346C9.89251 4.93539 9.87207 4.81555 9.86674 4.73925C9.77261 3.39032 9.67657 2.04153 9.57073 0.548619C9.04203 0.651476 8.65989 0.745808 8.27206 0.79462C7.98831 0.830332 7.69708 0.806208 7.40918 0.808754C8.10666 0.626468 8.80414 0.444182 9.53077 0.210049C10.2829 0.158203 11.0059 0.158203 11.8008 0.158203Z" fill="#0384CA"/>
<path d="M10.9468 38.898C12.6898 38.1482 13.0601 36.6691 13.0797 35.0644C13.1202 31.7662 12.9585 28.4603 13.1265 25.1702C13.3668 20.4633 15.1407 16.5333 19.6782 14.4631C22.986 12.9539 26.3749 13.1879 29.7144 14.4889C36.2004 17.0156 37.5089 23.091 36.141 28.4454C35.0561 32.6918 32.4058 35.4736 27.9793 36.2727C25.6594 36.6915 23.383 36.3399 21.1103 35.6882C21.1103 33.2797 21.1103 30.8892 21.1103 28.3991C21.576 28.6047 21.9878 28.8648 22.4356 28.9687C23.4978 29.215 24.5826 29.5802 25.6482 29.5491C27.8642 29.4845 29.5543 27.668 29.7665 25.3971C29.9909 22.9947 28.9096 21.409 26.5764 20.7191C23.1494 19.7057 20.3903 21.7167 20.2187 25.5388C20.0675 28.908 20.1844 32.2885 20.1026 35.6621C20.071 36.9639 19.9668 38.2999 19.6361 39.5513C18.8174 42.6495 16.7135 44.5822 13.6653 45.3953C10.8805 46.1382 8.10133 45.9576 5.46733 44.7359C2.61655 43.4136 1.23537 40.9502 0.645641 37.9928C0.42621 36.8924 0.344524 35.7485 0.339267 34.6237C0.31072 28.5164 0.325712 22.4088 0.325712 16.1154C0.534096 16.4468 0.667832 16.6376 0.779682 16.8406C2.2717 19.5485 4.32213 21.6721 7.12984 23.0283C7.3335 23.1267 7.54065 23.4696 7.54199 23.7C7.56443 27.5654 7.54948 31.4311 7.55737 35.2966C7.55841 35.8068 7.57331 36.3332 7.69482 36.824C8.1061 38.4849 9.18816 39.1754 10.9468 38.898Z" fill="#010101"/>
<path d="M3.84134 18.714C3.38347 18.184 2.9256 17.654 2.51904 17.0677C2.68982 16.8538 2.90255 16.7027 2.91376 16.5379C2.9935 15.3654 3.08232 14.1897 3.07377 13.0157C3.05268 10.121 2.98087 7.22658 2.95131 4.28174C3.0073 4.05526 3.04143 3.8791 3.07556 3.70295C3.07556 3.70295 3.08364 3.71168 3.115 3.69407C3.1746 3.63229 3.20283 3.58812 3.23106 3.54395C3.23106 3.54395 3.23503 3.55543 3.26707 3.53791C3.32704 3.47476 3.35498 3.42911 3.38292 3.38347C3.38292 3.38347 3.38474 3.39645 3.41716 3.38137C3.47902 3.32099 3.50845 3.27569 3.53789 3.23038C3.53789 3.23038 3.53993 3.24276 3.57238 3.22709C3.63379 3.16596 3.66276 3.1205 3.69173 3.07503C3.69173 3.07503 3.69355 3.08751 3.72573 3.07281C3.78802 3.01418 3.81811 2.97024 3.84821 2.9263C3.84821 2.9263 3.85232 2.93756 3.88405 2.92037C3.94468 2.85909 3.97357 2.815 4.00246 2.7709C4.00246 2.7709 4.00629 2.78355 4.06113 2.78273C4.45466 2.64826 4.79336 2.51462 5.18183 2.36133C5.30681 2.98731 5.64513 3.64281 5.50177 4.16539C5.12389 5.54283 5.70083 6.93471 5.17205 8.34916C4.84906 9.21312 5.30013 10.3542 5.34234 11.3734C5.38488 12.4004 5.35171 13.4305 5.35171 14.6183C5.3727 14.8052 5.43613 15.1638 5.4491 15.5243C5.48523 16.5293 5.5144 17.535 5.51359 18.5404C5.51339 18.7759 5.44966 19.0969 5.29218 19.2189C5.17277 19.3114 4.84833 19.1765 4.63266 19.0957C4.3596 18.9934 4.1043 18.8434 3.84134 18.714Z" fill="#0199DC"/>
<path d="M16.9586 10.051C17.4546 9.30001 17.5047 8.5196 17.3433 7.62586C17.2036 6.85201 17.3436 6.02617 17.3712 5.22371C17.3812 4.93369 17.3837 4.63326 17.4621 4.35836C17.5584 4.02083 17.7305 3.70506 17.858 3.40751C17.5872 2.95927 17.2842 2.45754 16.9758 1.89844C17.5742 2.20875 18.1779 2.57643 18.8055 3.04698C18.9743 3.23559 19.1192 3.32132 19.2641 3.40706C19.2641 3.40706 19.2736 3.40528 19.2892 3.44154C19.334 3.51697 19.3716 3.54471 19.4176 3.56102C19.5648 3.72864 19.712 3.89627 19.8927 4.14846C19.9707 4.26395 20.0153 4.29487 20.0599 4.3258C20.0599 4.3258 20.0481 4.32804 20.0671 4.36085C20.1361 4.41717 20.186 4.44068 20.2359 4.46419C20.2359 4.46419 20.2161 4.46839 20.2281 4.50135C20.2873 4.56572 20.3344 4.59714 20.3816 4.62856C20.3816 4.62856 20.3634 4.63096 20.3765 4.66207C20.4332 4.72557 20.4768 4.75796 20.5204 4.79035C20.5204 4.79035 20.5088 4.79359 20.5208 4.82226C20.554 4.89551 20.5868 4.92842 20.6313 4.94966C20.6313 4.94966 20.6609 5.01328 20.655 5.10383C20.5274 5.4262 20.2417 5.75177 20.3113 5.87444C20.7222 6.59851 20.6416 7.31285 20.5414 8.09339C20.4645 8.69193 20.6704 9.32573 20.7385 9.94517C20.754 10.0859 20.7464 10.2404 20.7046 10.3745C20.4949 11.0472 20.2703 11.7153 20.051 12.385C20.051 12.385 20.0443 12.3747 19.9863 12.3753C19.7187 12.4915 19.509 12.607 19.2994 12.7225C19.2994 12.7225 19.2855 12.7072 19.2476 12.7024C19.1288 12.7388 19.0479 12.7801 18.9671 12.8213C18.9671 12.8213 18.9014 12.8417 18.8285 12.858C18.7247 12.9187 18.6939 12.963 18.663 13.0074C18.663 13.0074 18.6605 12.9945 18.6178 12.9987C18.5001 13.0533 18.4252 13.1035 18.3502 13.1538C18.3502 13.1538 18.3492 13.1461 18.3049 13.1508C18.1878 13.2072 18.1149 13.2589 18.0421 13.3106C17.9704 13.3595 17.8986 13.4084 17.7553 13.4011C17.6482 13.0478 17.64 12.744 17.5693 12.4555C17.4979 12.1639 17.3646 11.8876 17.2584 11.6045C17.2204 11.5264 17.1823 11.4482 17.1842 11.2849C17.1286 10.919 17.0332 10.6382 16.9377 10.3573C16.9377 10.3573 16.9198 10.3334 16.9345 10.2561C16.9523 10.1362 16.9555 10.0936 16.9586 10.051Z" fill="#036CB6"/>
<path d="M132.108 43.9116C132.288 43.8114 132.523 43.7545 132.638 43.6044C133.718 42.1959 134.793 40.784 135.83 39.3441C136.138 38.9169 136.471 38.7534 136.982 38.7876C137.588 38.8281 138.198 38.7971 138.837 38.7971C138.837 41.0146 138.837 43.1392 138.837 45.3016C138.34 45.3016 137.888 45.3016 137.328 45.3016C137.328 43.5732 137.328 41.8647 137.328 40.1562C137.261 40.1335 137.194 40.1108 137.127 40.0881C135.85 41.8036 134.573 43.5191 133.2 45.216C132.568 45.184 132.03 45.1344 131.497 45.1669C130.949 45.2003 130.721 45.0538 130.736 44.4486C130.775 42.8587 130.758 41.2671 130.743 39.6764C130.739 39.2366 130.78 38.9611 131.345 38.9534C131.947 38.9451 132.005 39.2371 131.99 39.7121C131.966 40.4811 131.968 41.2519 131.988 42.0211C132.006 42.6518 132.067 43.2814 132.108 43.9116Z" fill="#315FA9"/>
<path d="M85.857 45.259C85.0401 45.08 84.5995 44.5744 84.5725 43.8443C84.527 42.6155 84.5451 41.38 84.6215 40.1526C84.6736 39.3138 85.263 38.8511 86.0635 38.8163C87.4453 38.7562 88.8359 38.7045 90.2132 38.7951C91.5288 38.8816 91.9981 39.5233 92.0174 40.9466C91.5396 40.9466 91.0613 40.9466 90.5375 40.9466C90.4175 40.1924 89.8754 40.0226 89.1923 40.0388C88.4734 40.0559 87.7536 40.0563 87.0346 40.043C86.3948 40.0311 86.0732 40.3525 86.0535 40.9672C86.0312 41.6621 86.037 42.3584 86.0502 43.0537C86.062 43.6727 86.3998 44.0103 87.0123 44.0252C87.8592 44.0458 88.7175 44.1178 89.5496 44.007C89.9592 43.9525 90.3211 43.5368 90.7045 43.2846C90.6686 43.224 90.6326 43.1634 90.5966 43.1028C91.0543 43.1028 91.512 43.1028 91.9652 43.1028C92.1637 44.6048 91.6181 45.2928 90.1552 45.316C88.7439 45.3384 87.3315 45.2933 85.857 45.259Z" fill="#325FA6"/>
<path d="M62.2564 42.087C62.81 43.1573 63.3355 44.1775 63.9333 45.3379C63.4411 45.3379 63.068 45.3106 62.7007 45.3452C62.2837 45.3844 61.9993 45.2599 61.8795 44.8444C61.5978 43.8674 60.9508 43.5295 59.9748 43.7058C59.7012 43.7553 59.4065 43.749 59.13 43.7092C58.0121 43.5482 57.1198 43.7417 56.783 45.0147C56.7451 45.158 56.4484 45.3012 56.2588 45.3214C55.8298 45.367 55.3927 45.3357 54.8423 45.3357C55.5304 44.0023 56.1734 42.7541 56.8187 41.5071C57.0667 41.028 57.3876 40.5744 57.5571 40.0692C57.9166 38.9977 58.595 38.6635 59.7002 38.7627C60.3412 38.8203 60.7097 38.9494 60.9703 39.5698C61.3269 40.4187 61.8033 41.2169 62.2564 42.087ZM59.7132 40.5683C59.6227 40.4046 59.5322 40.2408 59.3858 39.976C58.936 40.8442 58.5415 41.6056 58.1113 42.4361C58.9914 42.4361 59.7639 42.4361 60.6544 42.4361C60.3335 41.7909 60.0532 41.2272 59.7132 40.5683Z" fill="#3360A7"/>
<path d="M108.129 38.9106C108.168 39.6869 108.168 40.4034 108.168 41.3781C108.719 41.1673 109.14 41.0712 109.487 40.8559C109.875 40.6156 110.25 40.3105 110.537 39.9574C111.451 38.8345 112.618 38.5706 114.082 38.8845C112.873 39.8747 111.7 40.8348 110.442 41.865C111.713 42.9929 112.949 44.0898 114.299 45.2873C113.098 45.3434 112.038 45.6005 111.205 44.5417C110.749 43.9628 110.156 43.4797 109.574 43.0178C109.232 42.7463 108.791 42.6011 108.207 42.3041C108.207 43.4712 108.207 44.3577 108.207 45.2899C107.644 45.2899 107.169 45.2899 106.647 45.2899C106.647 43.1467 106.647 41.0205 106.647 38.851C107.142 38.851 107.617 38.851 108.129 38.9106Z" fill="#3663A8"/>
<path d="M126.378 44.3904C126.387 44.5526 126.396 44.7148 126.333 44.9491C125.88 45.0677 125.497 45.1142 125.043 45.1694C125.043 43.6774 125.052 42.341 125.035 41.0048C125.032 40.7406 124.93 40.4775 124.873 40.2139C124.69 40.3134 124.448 40.3678 124.333 40.5194C123.149 42.0871 121.985 43.6706 120.718 45.2253C120.084 45.1868 119.545 45.1365 119.012 45.1684C118.466 45.2011 118.233 45.0588 118.248 44.451C118.287 42.834 118.241 41.2149 118.281 39.598C118.288 39.3389 118.564 39.0866 118.716 38.8312C118.884 38.8216 119.051 38.8121 119.306 38.8742C119.426 40.3686 119.45 41.7916 119.5 43.2138C119.51 43.4972 119.617 43.7771 119.68 44.0587C119.861 43.8937 120.072 43.7522 120.218 43.5601C121.353 42.0592 122.476 40.5486 123.715 39.0084C124.678 39.028 125.53 39.0804 126.381 39.1327C126.389 39.2463 126.397 39.3599 126.336 39.5501C126.222 39.7136 126.138 39.8002 126.137 39.8873C126.127 41.25 126.121 42.6129 126.138 43.9754C126.14 44.1147 126.295 44.2521 126.378 44.3904Z" fill="#2E5EA7"/>
<path d="M51.8402 39.9334C51.8874 40.6298 51.9882 41.2738 51.9225 41.9003C51.8396 42.6898 51.3583 43.2366 50.5323 43.3101C49.6429 43.3892 48.7466 43.3925 47.8532 43.4228C47.553 43.433 47.2522 43.4244 46.8877 43.4244C46.8877 44.0829 46.8877 44.6628 46.8877 45.2881C46.3516 45.2881 45.8819 45.2881 45.3706 45.2881C45.3706 43.1441 45.3706 41.0232 45.3706 38.8614C47.1094 38.8614 48.8422 38.7946 50.5632 38.9076C51.0012 38.9364 51.402 39.536 51.8402 39.9334ZM48.637 42.0949C48.9183 42.0912 49.1998 42.0809 49.481 42.0851C50.1057 42.0945 50.4112 41.8108 50.4443 41.1651C50.4785 40.4965 50.208 40.1195 49.5471 40.0985C48.6852 40.0711 47.8218 40.0918 46.923 40.0918C46.923 40.7806 46.923 41.4055 46.923 42.095C47.4741 42.095 47.9805 42.095 48.637 42.0949Z" fill="#325FA6"/>
<path d="M74.9266 38.8457C74.9933 39.6214 75.0599 40.3972 75.1319 41.2351C76.3842 41.2351 77.675 41.2351 79.025 41.2351C79.025 40.441 79.025 39.6753 79.025 38.8514C79.5515 38.8514 80.0223 38.8514 80.5483 38.8514C80.5483 40.9673 80.5483 43.0908 80.5483 45.2757C80.0785 45.2757 79.6076 45.2757 79.0631 45.2757C79.0631 44.4434 79.0631 43.6045 79.0631 42.692C77.727 42.692 76.4595 42.692 75.0501 42.692C75.0501 43.2884 75.0501 43.9198 74.9835 44.6391C74.729 45.142 74.3605 45.2927 74.0005 45.1114C73.8222 45.0217 73.7219 44.6312 73.7135 44.3726C73.6813 43.3762 73.7005 42.3782 73.7005 41.3807C73.7005 40.5975 73.7005 39.8144 73.7005 39.0635C74.1916 38.9763 74.5591 38.911 74.9266 38.8457Z" fill="#3562AA"/>
<path d="M2.9296 4.33143C2.98102 7.22596 3.05283 10.1203 3.07392 13.0151C3.08248 14.1891 2.99365 15.3647 2.91392 16.5372C2.9027 16.7021 2.68997 16.8532 2.50496 17.015C0.17705 13.6207 -0.116727 10.0256 1.40722 6.26771C1.62597 5.72831 1.98296 5.24529 2.3318 4.66828C2.42762 4.56483 2.45142 4.52053 2.45903 4.46747C2.45903 4.46747 2.4606 4.47984 2.49331 4.46307C2.55406 4.3991 2.58211 4.35189 2.61016 4.30469C2.61016 4.30469 2.6064 4.32019 2.65564 4.32251C2.77979 4.32704 2.8547 4.32923 2.9296 4.33143Z" fill="#06A0E0"/>
<path d="M34.5377 45.3107C34.469 45.3185 34.4003 45.3263 34.2595 45.287C34.1131 45.2102 34.0389 45.1806 33.9646 45.151C33.9565 45.0821 33.9484 45.0133 33.9888 44.8422C34.0516 42.8112 34.0658 40.8824 34.0801 38.9536C34.5137 38.9536 34.9474 38.9536 35.4804 38.9536C35.4804 39.7192 35.4804 40.448 35.4804 41.4357C36.0438 41.2004 36.4637 41.0881 36.8115 40.8635C37.2171 40.6015 37.6166 40.2878 37.9192 39.9153C38.8204 38.8057 39.9761 38.5928 41.4079 38.8879C40.7735 39.4051 40.1769 39.8909 39.5809 40.3775C38.9894 40.8603 38.3986 41.3439 37.7588 41.867C39.0358 42.999 40.2769 44.0991 41.6342 45.3022C40.4176 45.3454 39.3507 45.5777 38.5224 44.5295C38.0814 43.9714 37.4551 43.5647 36.9724 43.0346C36.5591 42.5807 36.1108 42.4319 35.4552 42.6851C35.337 43.5366 35.3018 44.2963 35.2674 45.0379C34.9974 45.1388 34.7676 45.2247 34.5377 45.3107Z" fill="#305EA6"/>
<path d="M97.4376 38.8535C97.5018 39.6268 97.566 40.4001 97.6383 41.2724C98.6942 41.2724 99.7415 41.2507 100.787 41.2781C101.984 41.3095 102.571 41.8254 102.681 42.8738C102.829 44.2936 102.443 44.9444 101.143 45.2421C99.6314 45.1838 98.2277 45.1546 96.8242 45.1646C96.3602 45.1679 96.1937 45.0157 96.203 44.5447C96.2273 43.3151 96.2111 42.0847 96.2111 40.8546C96.2111 40.2496 96.2111 39.6445 96.2111 39.0641C96.6997 38.9802 97.0687 38.9169 97.4376 38.8535ZM99.9506 42.5348C99.1668 42.5348 98.3831 42.5348 97.6035 42.5348C97.6035 43.0853 97.6035 43.5348 97.6035 44.0417C98.5888 44.0417 99.5296 44.0803 100.463 44.0148C100.699 43.9983 101.052 43.6774 101.098 43.4462C101.146 43.1984 100.949 42.8417 100.755 42.6291C100.638 42.502 100.321 42.5602 99.9506 42.5348Z" fill="#305EA8"/>
<path d="M74.4915 53.0961C75.4121 53.1084 76.2698 53.0445 77.1013 53.1639C77.5474 53.228 78.1669 53.5151 78.3148 53.8676C78.5017 54.3133 78.288 54.928 78.2389 55.5799C78.7404 55.8473 78.7433 56.4938 78.5683 57.1408C78.3955 57.7796 77.8587 57.9843 77.2494 57.9888C75.9682 57.9981 74.6869 57.9916 73.3662 57.9916C73.3662 56.3746 73.3662 54.7881 73.3662 53.0961C73.7227 53.0961 74.0702 53.0961 74.4915 53.0961ZM76.9609 55.9803C76.1515 55.9803 75.3421 55.9803 74.5308 55.9803C74.5308 56.3833 74.5308 56.7201 74.5308 57.0771C75.3227 57.0771 76.0628 57.1048 76.7986 57.0607C77.0279 57.0469 77.4167 56.855 77.4299 56.7158C77.4515 56.4871 77.2261 56.235 76.9609 55.9803ZM74.4736 54.3984C74.486 54.6178 74.4984 54.8373 74.5123 55.0827C75.3005 55.0827 76.038 55.117 76.7681 55.0588C76.9532 55.0441 77.2399 54.7418 77.2503 54.5586C77.2597 54.3934 76.9779 54.0992 76.7835 54.0584C76.393 53.9765 75.9717 53.9974 75.5685 54.0344C75.2007 54.0682 74.84 54.1794 74.4736 54.3984Z" fill="#0A0A0A"/>
<path d="M28.4819 41.5625C27.923 42.4609 27.4148 43.3252 26.8662 44.163C26.142 45.2689 25.6562 45.4593 24.2384 45.2565C24.2384 44.911 24.2384 44.5598 24.2384 44.2096C24.2794 44.1759 24.3144 44.1221 24.3549 44.1175C25.5694 43.9801 25.6079 43.89 24.9384 42.8603C24.0882 41.5527 23.2482 40.2384 22.3198 38.7965C22.8449 38.7965 23.2519 38.7394 23.6323 38.8156C23.9091 38.871 24.2471 39.0405 24.3918 39.2661C25.041 40.279 25.6308 41.3301 26.2939 42.4555C26.8186 41.5032 27.3513 40.6563 27.7622 39.7537C28.1078 38.9947 28.5767 38.6293 29.4133 38.792C29.6071 38.8297 29.8109 38.8152 30.127 38.8303C29.5615 39.7725 29.038 40.6446 28.4819 41.5625Z" fill="#325FA6"/>
<path d="M92.593 57.1602C92.0045 58.4374 90.9314 57.8984 89.9946 58.0239C89.9946 56.3642 89.9946 54.778 89.9946 53.1422C90.3642 53.1422 90.7066 53.1422 91.1184 53.1422C91.1184 54.4292 91.1184 55.7009 91.1184 56.9727C91.1694 56.9946 91.2204 57.0165 91.2714 57.0384C91.9862 56.0899 92.805 55.201 93.3888 54.1773C94.0644 52.9926 95.0112 52.9709 96.153 53.1669C96.153 54.7641 96.153 56.3479 96.153 57.9725C95.7833 57.9725 95.4352 57.9725 95.0032 57.9725C95.0032 56.7054 95.0032 55.4383 95.0032 54.1711C94.9518 54.1539 94.9003 54.1367 94.8489 54.1195C94.1088 55.1183 93.3686 56.1171 92.593 57.1602Z" fill="#0F0F0F"/>
<path d="M87.4151 55.8234C87.4151 56.5676 87.4151 57.2348 87.4151 57.9568C87.0228 57.9568 86.6605 57.9568 86.2356 57.9568C86.2356 56.6822 86.2356 55.4328 86.2356 54.1834C86.1848 54.1599 86.1341 54.1363 86.0834 54.1128C85.5738 54.7956 85.0638 55.4781 84.5547 56.1613C84.4321 56.326 84.285 56.4793 84.1956 56.6608C83.5898 57.8912 82.6267 58.3148 81.2583 57.9218C81.2583 56.3737 81.2583 54.7718 81.2583 53.1326C81.5964 53.1326 81.9199 53.1326 82.3147 53.1326C82.3147 54.4039 82.3147 55.6772 82.3147 56.9504C82.3697 56.9789 82.4247 57.0074 82.4797 57.0359C82.6549 56.8144 82.8343 56.5961 83.0046 56.3708C83.6244 55.5508 84.2868 54.7581 84.8438 53.897C85.2563 53.2594 85.7389 52.9714 86.4867 53.0909C86.7585 53.1344 87.0429 53.0979 87.4151 53.0979C87.4151 54.0163 87.4151 54.8814 87.4151 55.8234Z" fill="#0B0B0B"/>
<path d="M3.84131 18.7669C4.10456 18.8426 4.35985 18.9926 4.63292 19.0949C4.84859 19.1757 5.17303 19.3106 5.29243 19.2181C5.44991 19.0961 5.51365 18.7751 5.51384 18.5396C5.51466 17.5342 5.48549 16.5285 5.44935 15.5235C5.43639 15.163 5.37296 14.8044 5.35196 14.6175C5.35196 13.4297 5.38513 12.3995 5.3426 11.3726C5.30038 10.3534 4.84932 9.21232 5.1723 8.34836C5.70109 6.93391 5.12415 5.54203 5.50202 4.16459C5.64538 3.64201 5.30706 2.9865 5.18209 2.36052C4.79361 2.51381 4.45492 2.64746 4.05612 2.77794C4.67767 2.31108 5.35932 1.84737 6.10139 1.44531C6.21051 1.80735 6.30606 2.10872 6.29987 2.40798C6.2714 3.785 6.16763 5.16203 6.18497 6.53787C6.19586 7.40125 6.37336 8.26253 6.47615 9.1835C6.52036 9.45959 6.56452 9.67692 6.60869 9.89425C6.5689 10.7803 6.52911 11.6664 6.42538 12.628C6.30571 12.9063 6.13978 13.2244 6.21172 13.2935C6.76921 13.8293 6.34764 14.3628 6.29236 14.9123C6.09705 16.8535 5.99623 18.798 6.41922 20.7215C6.28553 20.7262 6.20916 20.7297 6.13278 20.7333C5.36886 20.0957 4.60494 19.4582 3.84131 18.7669Z" fill="#0595D7"/>
<path d="M9.42314 15.9241C9.42314 15.9241 9.49327 15.9298 9.55094 15.9884C9.66562 16.1325 9.70662 16.273 9.78212 16.2951C10.4819 16.5003 10.626 16.9318 10.3833 17.5873C10.3381 17.7095 10.4345 17.9758 10.5475 18.05C11.0601 18.3863 10.9716 18.7735 10.7772 19.2514C10.657 19.5468 10.6266 19.9046 10.6495 20.2277C10.7069 21.034 10.7839 21.8302 10.122 22.5489C9.98657 22.5606 9.75958 22.5802 9.5326 22.5998C9.5326 22.5998 9.55382 22.5941 9.54651 22.5452C8.88419 22.2114 8.22918 21.9265 7.57417 21.6415C7.57417 21.6415 7.56431 21.6493 7.56082 21.6083C7.55733 21.5672 7.55765 21.4969 7.61044 21.4658C7.72994 21.1752 7.82409 20.9193 7.8587 20.6554C8.02577 19.3822 7.53439 18.0613 8.13708 16.8125C8.1845 16.7142 8.09597 16.5009 8.00717 16.3942C7.65378 15.9695 7.76943 15.5661 8.05639 15.1549C8.12619 15.1527 8.15406 15.1506 8.18193 15.1484C8.18193 15.1484 8.17047 15.1526 8.18002 15.204C8.44679 15.3724 8.70401 15.4895 8.96123 15.6066C8.96123 15.6066 8.94858 15.615 8.96429 15.6465C9.02498 15.7084 9.06996 15.7389 9.11494 15.7694C9.11494 15.7694 9.18422 15.7767 9.23795 15.8184C9.32799 15.8969 9.37181 15.9183 9.42314 15.9241Z" fill="#018ACF"/>
<path d="M115.986 53.7634C115.769 53.8956 115.555 54.0224 115.338 54.0271C114.338 54.0489 113.338 54.0367 112.286 54.0367C112.286 54.3807 112.286 54.698 112.286 55.0862C113.457 55.0862 114.625 55.0862 115.847 55.0862C115.868 55.3959 115.884 55.6399 115.906 55.9682C114.667 55.9682 113.476 55.9682 112.266 55.9682C112.266 56.37 112.266 56.6904 112.266 57.0561C113.495 57.0561 114.695 57.0561 115.941 57.0561C115.941 57.3725 115.941 57.6437 115.941 57.9663C114.348 57.9663 112.746 57.9663 111.092 57.9663C111.092 56.389 111.092 54.8045 111.092 53.1562C112.67 53.1562 114.272 53.1562 115.936 53.1562C115.95 53.3085 115.969 53.5052 115.986 53.7634Z" fill="#101010"/>
<path d="M16.4471 57.9728C15.5652 57.783 15.2665 57.22 15.2643 56.4413C15.2626 55.8244 15.249 55.2069 15.272 54.5909C15.3104 53.5651 15.6979 53.1292 16.7161 53.0732C17.6358 53.0226 18.5621 53.0276 19.4823 53.0731C20.4069 53.1187 20.802 53.4765 20.88 54.3828C20.9478 55.1721 20.9429 55.976 20.8795 56.7661C20.8118 57.6094 20.4315 57.9545 19.5869 57.9831C18.5635 58.0178 17.5378 57.9863 16.4471 57.9728ZM18.9627 57.0434C19.5522 57.0432 19.7854 56.7311 19.7508 56.1617C19.7337 55.8803 19.753 55.5968 19.7515 55.3143C19.7454 54.1548 19.6369 54.0211 18.4907 54.0225C16.2349 54.0251 16.3984 53.9089 16.4407 56.2851C16.4497 56.7936 16.7167 57.0335 17.209 57.0392C17.7467 57.0454 18.2845 57.0445 18.9627 57.0434Z" fill="#0A0A0A"/>
<path d="M65.2493 54.3757C65.3478 53.4135 65.9421 53.093 66.7365 53.0675C67.6324 53.0387 68.5316 53.0292 69.4263 53.0728C70.3853 53.1195 70.7858 53.4845 70.8556 54.436C70.9154 55.2511 70.8878 56.0781 70.83 56.8949C70.7815 57.5806 70.3319 57.9612 69.6562 57.9813C68.6323 58.0118 67.6053 58.0282 66.5825 57.9837C65.7232 57.9464 65.2941 57.4889 65.2434 56.6004C65.2025 55.8835 65.2396 55.1621 65.2493 54.3757ZM67.6407 57.051C67.9224 57.0509 68.204 57.0519 68.4857 57.0506C69.6331 57.0455 69.7099 56.9691 69.716 55.8313C69.7167 55.7029 69.7163 55.5745 69.7161 55.4461C69.7145 54.0964 69.6377 54.0201 68.281 54.0193C66.3607 54.0181 66.3607 54.0181 66.3956 55.9196C66.4137 56.9088 66.4987 56.996 67.6407 57.051Z" fill="#0B0B0B"/>
<path d="M33.0067 53.0957C34.2075 53.0957 35.3326 53.0957 36.5046 53.0957C36.5046 53.412 36.5046 53.6811 36.5046 54.0314C35.2972 54.0314 34.0823 54.0314 32.8289 54.0314C32.8289 54.408 32.8289 54.7044 32.8289 55.0669C34.0017 55.0669 35.1688 55.0669 36.3817 55.0669C36.3817 55.3992 36.3817 55.6671 36.3817 55.9899C35.1856 55.9899 34.0153 55.9899 32.8174 55.9899C32.8174 56.3648 32.8174 56.6852 32.8174 57.0537C34.0408 57.0537 35.2383 57.0537 36.509 57.0537C36.5285 57.3646 36.5454 57.6332 36.5659 57.9587C34.9177 57.9587 33.2968 57.9587 31.6421 57.9587C31.6421 56.3637 31.6421 54.7783 31.6421 53.0957C32.0756 53.0957 32.5033 53.0957 33.0067 53.0957Z" fill="#0E0E0E"/>
<path d="M102.717 53.5726C102.838 52.6527 103.465 53.3508 103.874 52.9062C103.874 54.4157 103.874 55.6877 103.874 57.0029C104.887 57.0029 105.823 57.0029 106.835 57.0029C106.835 55.7443 106.835 54.472 106.835 53.1485C107.254 53.1485 107.6 53.1485 108.054 53.1485C108.054 54.1904 108.038 55.2349 108.065 56.2783C108.072 56.5725 107.824 57.0538 108.459 57.0808C108.501 57.0826 108.561 57.3432 108.564 57.4845C108.576 58.0229 108.569 58.5617 108.569 59.1538C108.22 59.1538 107.905 59.1538 107.537 59.1538C107.514 58.7987 107.49 58.4479 107.462 58.0206C105.9 58.0206 104.347 58.0206 102.717 58.0206C102.717 56.5107 102.717 55.0769 102.717 53.5726Z" fill="#0E0E0E"/>
<path d="M23.8826 53.1001C24.3692 53.0397 24.4721 53.2497 24.4655 53.6374C24.447 54.7441 24.459 55.8513 24.459 57.0036C25.4366 57.0036 26.3785 57.0036 27.3944 57.0036C27.3944 55.758 27.3944 54.4833 27.3944 53.1535C27.8096 53.1535 28.153 53.1535 28.5892 53.1535C28.5892 53.8925 28.5265 54.6392 28.6085 55.3695C28.6775 55.9849 28.161 56.8057 29.1204 57.1773C29.1204 57.8137 29.1204 58.4548 29.1204 59.1505C28.7878 59.1505 28.4721 59.1505 28.1 59.1505C28.0806 58.8083 28.0608 58.4569 28.0372 58.0399C26.4833 58.0399 24.9274 58.0399 23.2852 58.0399C23.2852 56.4649 23.2733 54.9536 23.3081 53.4433C23.3109 53.3251 23.6395 53.2143 23.8826 53.1001Z" fill="#090909"/>
<path d="M50.9502 57.0365C50.9502 55.7069 50.9502 54.4513 50.9502 53.1452C51.3508 53.1452 51.6928 53.1452 52.1097 53.1452C52.1097 53.7522 52.1097 54.3594 52.1097 54.9669C53.1235 54.9669 54.0639 54.9669 55.0736 54.9669C55.0736 54.3561 55.0736 53.7754 55.0736 53.1445C55.4869 53.1445 55.8312 53.1445 56.2244 53.1445C56.2244 54.7513 56.2244 56.354 56.2244 57.9792C55.8538 57.9792 55.5064 57.9792 55.0971 57.9792C55.0971 57.3155 55.0971 56.6835 55.0971 56.0163C54.096 56.0163 53.1564 56.0163 52.1366 56.0163C52.1366 56.6541 52.1366 57.3074 52.1366 57.9791C51.7104 57.9791 51.3645 57.9791 50.9502 57.9791C50.9502 57.6667 50.9502 57.3886 50.9502 57.0365Z" fill="#0F0F0F"/>
<path d="M123.741 53.5833C123.741 55.0877 123.741 56.5224 123.741 57.9842C123.34 57.9842 123.011 57.9842 122.601 57.9842C122.601 57.3492 122.601 56.6988 122.601 56.0145C121.585 56.0145 120.648 56.0145 119.621 56.0145C119.621 56.6569 119.621 57.3068 119.621 57.9805C119.184 57.9805 118.836 57.9805 118.454 57.9805C118.454 56.3649 118.454 54.7806 118.454 53.1446C118.805 53.1446 119.149 53.1446 119.596 53.1446C119.596 53.7461 119.596 54.3462 119.596 54.9704C120.635 54.9704 121.574 54.9704 122.562 54.9704C122.562 54.3611 122.562 53.7755 122.562 53.1123C123.007 53.2334 123.566 52.6975 123.741 53.5833Z" fill="#0F0F0F"/>
<path d="M5.4781 57.9838C5.1296 58.0077 4.84776 58.0077 4.45601 58.0077C4.45601 57.3709 4.45601 56.7411 4.45601 56.1113C4.45601 55.4729 4.45601 54.8345 4.45601 54.1498C3.45195 54.1498 2.49505 54.1498 1.47818 54.1498C1.47818 55.4222 1.47818 56.6723 1.47818 57.9669C1.07441 57.9669 0.72903 57.9669 0.34375 57.9669C0.34375 56.3754 0.34375 54.77 0.34375 53.1289C2.08483 53.1289 3.79439 53.1289 5.54476 53.1289C5.54476 54.7441 5.54476 56.352 5.4781 57.9838Z" fill="#0E0E0E"/>
<path d="M43.9428 54.7557C43.777 54.7471 43.617 54.7757 43.5837 54.7233C42.7985 53.4873 41.6246 54.1564 40.6011 54.101C40.5766 54.0996 40.5455 54.1046 40.5272 54.119C39.7718 54.7172 40.2043 55.5423 40.1452 56.2648C40.1068 56.7343 40.4124 57.0262 40.9119 57.0344C41.4503 57.0433 41.9984 57.1049 42.5242 57.0246C42.9062 56.9663 43.2588 56.7145 43.6245 56.549C43.5971 56.4771 43.5698 56.4052 43.5424 56.3333C43.8689 56.3333 44.1954 56.3333 44.5174 56.3333C44.682 57.4942 44.3271 57.9578 43.2127 57.9919C42.2904 58.0202 41.3658 58.0182 40.4435 57.9888C39.4171 57.9561 39.0388 57.559 39 56.5085C38.9763 55.8664 38.9739 55.222 38.9975 54.58C39.0352 53.5541 39.4124 53.1354 40.4476 53.0714C41.3162 53.0178 42.1927 53.0237 43.0621 53.0698C44.1439 53.1271 44.5192 53.5514 44.6026 54.7149C44.4043 54.7283 44.206 54.7417 43.9428 54.7557Z" fill="#070707"/>
<path d="M133.376 56.7432C133.375 55.5133 133.375 54.3593 133.375 53.1932C134.75 53.1932 136.096 53.1362 137.433 53.2177C138.083 53.2574 138.396 53.9324 138.383 54.8473C138.369 55.871 138.063 56.412 137.255 56.4979C136.4 56.5889 135.527 56.5183 134.607 56.5183C134.577 57.0632 134.553 57.5083 134.528 57.9817C134.142 57.9817 133.795 57.9817 133.376 57.9817C133.376 57.5758 133.376 57.1975 133.376 56.7432ZM137.013 55.4468C137.442 54.4854 137.217 54.1083 136.205 54.1006C135.678 54.0966 135.15 54.0999 134.623 54.0999C134.623 54.6383 134.623 55.1015 134.623 55.6201C135.421 55.5808 136.156 55.5445 137.013 55.4468Z" fill="#101010"/>
<path d="M8.23892 53.1019C9.33513 53.0985 10.3602 53.0727 11.3832 53.1089C12.5935 53.1516 13.0049 53.6191 13.0057 54.8506C13.0064 56.0486 12.5487 56.5393 11.3525 56.5775C10.6419 56.6002 9.92998 56.5816 9.16592 56.5816C9.16592 57.0898 9.16592 57.5195 9.16592 57.979C8.76633 57.979 8.42058 57.979 8.02941 57.979C8.02941 56.3951 8.02799 54.8345 8.0352 53.2739C8.03546 53.2181 8.12104 53.1626 8.23892 53.1019ZM9.96514 54.0959C9.71908 54.0959 9.47302 54.0959 9.21471 54.0959C9.21471 54.6347 9.21471 55.0826 9.21471 55.5798C9.89452 55.5798 10.5287 55.5868 11.1627 55.5777C11.6861 55.5702 11.8779 55.2517 11.8584 54.7701C11.8391 54.2937 11.5661 54.0906 11.108 54.0958C10.7753 54.0996 10.4425 54.096 9.96514 54.0959Z" fill="#0B0B0B"/>
<path d="M20.1143 12.3838C20.2705 11.7152 20.495 11.0471 20.7047 10.3744C20.7465 10.2403 20.7542 10.0859 20.7387 9.94511C20.6705 9.32566 20.4647 8.69186 20.5415 8.09333C20.6417 7.31279 20.7224 6.59845 20.3114 5.87437C20.2418 5.75171 20.5276 5.42614 20.659 5.13867C22.008 6.48631 22.6651 8.25323 23.2764 10.0399C23.4577 10.57 23.5705 11.1237 23.7184 11.6805C22.5186 11.9184 21.348 12.1506 20.1143 12.3838Z" fill="#0663AD"/>
<path d="M9.5625 22.6487C9.75992 22.581 9.98691 22.5614 10.1223 22.5497C10.7842 21.8311 10.7072 21.0349 10.6499 20.2285C10.6269 19.9054 10.6574 19.5476 10.7775 19.2522C10.972 18.7743 11.0604 18.3872 10.5479 18.0508C10.4348 17.9767 10.3384 17.7103 10.3837 17.5881C10.6264 16.9326 10.4823 16.5011 9.78245 16.2959C9.70696 16.2738 9.66595 16.1333 9.58477 16C10.9777 16.3365 12.3948 16.7208 13.8584 17.1177C12.3415 18.8837 11.8645 21.0625 11.6728 23.433C10.9261 23.1688 10.2591 22.9328 9.5625 22.6487Z" fill="#0A83C5"/>
<path d="M7.35531 0.800495C7.69677 0.802511 7.988 0.826635 8.27175 0.790923C8.65959 0.742111 9.04173 0.647779 9.57042 0.544922C9.67627 2.03783 9.77231 3.38662 9.86644 4.73555C9.87176 4.81185 9.8922 4.93169 9.85374 4.95976C9.29361 5.36846 9.59054 5.91722 9.59402 6.47143C9.58362 6.52412 9.57661 6.51762 9.51814 6.51013C9.29326 6.62072 9.12685 6.73878 8.96044 6.85685C8.58579 7.19534 8.21114 7.53382 7.78032 7.8311C7.79068 7.09128 7.93376 6.38975 7.90736 5.6947C7.85677 4.36312 7.70988 3.03521 7.60295 1.70578C7.6848 1.6776 7.76664 1.64943 7.84849 1.62125C7.44456 1.45218 7.04064 1.28311 6.63672 1.11404C6.8584 1.00801 7.08008 0.90197 7.35531 0.800495Z" fill="#028CCF"/>
<path d="M8.01418 15.1535C7.76914 15.5646 7.6535 15.968 8.00689 16.3927C8.09568 16.4994 8.18422 16.7127 8.1368 16.811C7.5341 18.0598 8.02549 19.3807 7.85842 20.6539C7.8238 20.9177 7.72965 21.1737 7.56633 21.4647C7.44082 21.5 7.41193 21.504 7.38303 21.5079C7.38303 21.5079 7.39697 21.5091 7.37391 21.4709C7.26039 21.4043 7.16993 21.376 7.07948 21.3477C7.07948 21.3477 7.09051 21.3414 7.08423 21.2944C6.87724 21.0712 6.67653 20.8951 6.47582 20.719C5.99551 18.7966 6.09633 16.8521 6.29164 14.9109C6.34693 14.3614 6.76849 13.8279 6.211 13.2921C6.13906 13.223 6.30499 12.9049 6.41649 12.6914C6.68438 13.145 6.89652 13.6093 7.10757 14.1864C7.3641 14.4775 7.62171 14.6558 7.87933 14.834C7.87933 14.834 7.868 14.8401 7.88416 14.8733C7.94856 14.9331 7.9968 14.9596 8.04504 14.9862C8.04504 14.9862 8.03322 14.9939 8.02605 15.0301C8.01731 15.0954 8.01575 15.1245 8.01418 15.1535Z" fill="#0190D5"/>
<path d="M6.60007 1.11133C7.0407 1.28386 7.44463 1.45293 7.84855 1.622C7.7667 1.65017 7.68486 1.67835 7.60301 1.70652C7.70994 3.03595 7.85683 4.36386 7.90742 5.69545C7.93383 6.3905 7.79074 7.09203 7.73332 7.85211C7.74243 7.91359 7.73333 7.90984 7.69627 7.91729C7.62703 7.96865 7.59486 8.01256 7.56268 8.05647C7.56268 8.05647 7.55886 8.04253 7.50667 8.04514C7.15568 8.19354 6.85689 8.33932 6.5581 8.48511C6.60304 8.51403 6.64799 8.54296 6.69294 8.57188C6.62061 8.75605 6.54828 8.94022 6.47596 9.12439C6.37321 8.26217 6.19571 7.40089 6.18483 6.53751C6.16748 5.16167 6.27125 3.78464 6.29973 2.40762C6.30591 2.10836 6.21037 1.80699 6.15624 1.44151C6.1508 1.37643 6.15399 1.38054 6.20281 1.3805C6.32356 1.32389 6.39549 1.26732 6.46743 1.21075C6.47746 1.15586 6.50943 1.12156 6.60007 1.11133Z" fill="#0190D5"/>
<path d="M127.355 54.1066C126.877 54.1066 126.472 54.1066 126.028 54.1066C126.028 53.7472 126.028 53.456 126.028 53.1309C127.767 53.1309 129.471 53.1309 131.199 53.1309C131.199 53.4503 131.199 53.729 131.199 54.0656C130.565 54.0656 129.935 54.0656 129.226 54.0656C129.226 55.3882 129.226 56.6573 129.226 57.9696C128.803 57.9696 128.457 57.9696 128 57.9696C128 56.8596 127.976 55.7406 128.012 54.6236C128.027 54.1436 127.825 54.0503 127.355 54.1066Z" fill="#151515"/>
<path d="M61.6578 54.1021C61.0265 54.1021 60.4688 54.1021 59.8569 54.1021C59.8569 55.4252 59.8569 56.6763 59.8569 57.9686C59.4565 57.9686 59.1111 57.9686 58.7344 57.9686C58.7344 56.37 58.7344 54.783 58.7344 53.1445C60.0729 53.1445 61.3923 53.1445 62.7741 53.1445C62.7741 53.4224 62.7741 53.7126 62.7741 54.1022C62.4293 54.1022 62.0804 54.1022 61.6578 54.1021Z" fill="#0D0D0D"/>
<path d="M48.4106 57.3491C48.4635 58.4952 47.6924 57.8209 47.2607 58.0367C47.2607 56.3646 47.2607 54.7784 47.2607 53.1387C47.6199 53.1387 47.9643 53.1387 48.4101 53.1387C48.4101 54.5123 48.4101 55.8934 48.4106 57.3491Z" fill="#131313"/>
<path d="M132.307 37.0031C132.825 36.9226 133.283 36.6811 133.709 37.3161C133.876 37.5663 134.812 37.5444 135.23 37.3244C135.908 36.9675 135.849 36.8555 136.618 36.9516C136.749 37.6217 136.448 38.0888 135.815 38.1635C134.964 38.2639 134.093 38.2546 133.235 38.2053C132.58 38.1677 132.24 37.7403 132.307 37.0031Z" fill="#3862A3"/>
<path d="M92.6924 52.1513C93.0396 52.044 93.3149 51.9169 93.6015 51.8251C93.8706 51.7388 94.1517 51.6898 94.4399 51.6215C94.4898 52.4692 94.2909 52.6692 93.425 52.7412C91.8275 52.8742 91.367 52.6646 91.2559 51.5234C91.7856 51.7646 92.2055 51.9557 92.6924 52.1513Z" fill="#131313"/>
<path d="M67.6812 42.063C67.6812 40.9594 67.6812 39.9331 67.6812 38.8555C68.1989 38.8555 68.6698 38.8555 69.1872 38.8555C69.1872 40.9821 69.1872 43.1064 69.1872 45.2834C68.7151 45.2834 68.2441 45.2834 67.6812 45.2834C67.6812 44.2352 67.6812 43.1878 67.6812 42.063ZM68.6656 38.9727C68.0492 38.8733 67.807 39.0871 67.8267 39.7578C67.8735 41.3504 67.8551 42.9456 67.8334 44.5394C67.8271 45.0078 67.9819 45.1712 68.4519 45.1679C68.9054 45.1648 69.09 45.0363 69.0834 44.5525C69.0606 42.8816 69.0832 41.2101 69.0627 39.5392C69.0604 39.353 68.8933 39.1687 68.6656 38.9727Z" fill="#365C98"/>
<path d="M132.117 43.8389C132.067 43.2802 132.006 42.6506 131.989 42.0198C131.968 41.2506 131.966 40.4799 131.99 39.7109C132.005 39.2359 131.948 38.9438 131.345 38.9521C130.78 38.9599 130.739 39.2353 130.743 39.6752C130.758 41.2659 130.775 42.8574 130.736 44.4473C130.721 45.0525 130.95 45.1991 131.498 45.1656C132.03 45.1331 132.568 45.1827 133.154 45.2338C132.363 45.2714 131.522 45.2714 130.628 45.2714C130.628 43.1637 130.628 41.0386 130.628 38.8555C131.087 38.8555 131.558 38.8555 132.126 38.8555C132.126 40.488 132.126 42.1278 132.117 43.8389Z" fill="#365C98"/>
<path d="M97.3705 38.8314C97.0691 38.9175 96.7002 38.9809 96.2116 39.0648C96.2116 39.6452 96.2116 40.2503 96.2116 40.8553C96.2116 42.0854 96.2277 43.3158 96.2035 44.5454C96.1942 45.0164 96.3607 45.1685 96.8247 45.1653C98.2281 45.1553 99.6318 45.1845 101.086 45.236C99.4715 45.2736 97.8067 45.2736 96.0781 45.2736C96.0781 43.1585 96.0781 41.0181 96.0781 38.8086C96.4961 38.8086 96.8995 38.8086 97.3705 38.8314Z" fill="#365C98"/>
<path d="M66.6286 37.3065C67.1058 37.1746 67.5736 37.1141 68.1093 37.0449C68.1093 37.5244 68.1093 37.9151 68.1093 38.3465C67.6376 38.3465 67.1843 38.3465 66.6191 38.3465C66.6191 38.024 66.6191 37.701 66.6286 37.3065Z" fill="#365C98"/>
<path d="M74.8586 38.8257C74.5592 38.9119 74.1916 38.9772 73.7005 39.0645C73.7005 39.8153 73.7005 40.5985 73.7005 41.3817C73.7005 42.3791 73.6814 43.3772 73.7136 44.3735C73.722 44.6321 73.8223 45.0226 74.0005 45.1124C74.3605 45.2936 74.7291 45.1429 74.9678 44.7107C75.1372 45.1484 75.0039 45.3839 74.494 45.3412C74.1944 45.3161 73.8911 45.3366 73.5522 45.3366C73.5522 43.1284 73.5522 41.0038 73.5522 38.8047C73.9835 38.8047 74.387 38.8047 74.8586 38.8257Z" fill="#365C98"/>
<path d="M126.393 44.3183C126.294 44.2516 126.14 44.1142 126.138 43.9748C126.121 42.6123 126.127 41.2495 126.137 39.8868C126.138 39.7996 126.222 39.7131 126.324 39.6055C126.39 41.1387 126.399 42.6928 126.393 44.3183Z" fill="#45679E"/>
<path d="M118.649 38.8173C118.564 39.0855 118.288 39.3378 118.281 39.5969C118.241 41.2138 118.286 42.8329 118.247 44.45C118.233 45.0577 118.466 45.2 119.012 45.1673C119.545 45.1354 120.083 45.1857 120.669 45.2388C119.881 45.2777 119.043 45.2777 118.099 45.2777C118.099 44.4366 118.099 43.5752 118.099 42.7138C118.099 41.5863 118.11 40.4586 118.092 39.3314C118.086 38.9642 118.142 38.7233 118.649 38.8173Z" fill="#3A5A90"/>
<path d="M124.863 40.2812C124.929 40.4735 125.032 40.7365 125.035 41.0008C125.052 42.337 125.043 43.6734 125.043 45.1654C125.497 45.1102 125.88 45.0637 126.321 45.005C126.24 45.1082 126.113 45.2988 125.96 45.3233C125.638 45.3748 125.302 45.339 124.853 45.339C124.853 43.6535 124.853 42.003 124.863 40.2812Z" fill="#45679E"/>
<path d="M34.0391 38.9141C34.0661 40.88 34.0519 42.8088 34.0004 44.7887C33.9748 42.8522 33.9863 40.8646 34.0391 38.9141Z" fill="#45679E"/>
<path d="M119.67 43.9856C119.617 43.7745 119.509 43.4946 119.5 43.2112C119.45 41.789 119.426 40.366 119.368 38.8848C119.445 39.0027 119.633 39.1775 119.636 39.3557C119.664 40.8751 119.657 42.3952 119.67 43.9856Z" fill="#3A5A90"/>
<path d="M70.3101 37.7348C70.3632 38.2049 70.2613 38.4427 69.7894 38.39C69.4888 38.3564 69.1814 38.3837 68.8174 38.3837C68.8174 37.9678 68.8174 37.5792 68.8174 37.0117C69.274 37.4747 70.155 36.4209 70.3101 37.7348ZM68.9384 37.9495C69.203 38.0308 69.4651 38.1592 69.7331 38.173C69.8643 38.1798 70.1213 37.9702 70.1184 37.8641C70.1131 37.6739 69.9855 37.3556 69.8544 37.3248C69.4466 37.2288 68.9481 37.1251 68.9384 37.9495Z" fill="#3A5A90"/>
<path d="M6.47607 9.18341C6.54836 8.94049 6.62068 8.75632 6.69301 8.57215C6.64806 8.54322 6.60312 8.5143 6.55817 8.48537C6.85696 8.33959 7.15576 8.19381 7.51157 8.05078C7.264 8.63276 6.95943 9.21198 6.63173 9.84268C6.56445 9.67682 6.52028 9.45949 6.47607 9.18341Z" fill="#028CCF"/>
<path d="M7.60791 21.6816C8.22959 21.9258 8.8846 22.2107 9.53939 22.5526C8.90653 22.3138 8.27388 22.0181 7.60791 21.6816Z" fill="#0A83C5"/>
<path d="M34.6069 45.321C34.7677 45.2209 34.9975 45.1349 35.2675 45.034C35.3019 44.2924 35.3371 43.5327 35.4183 42.7285C35.4644 43.5449 35.4644 44.4057 35.4644 45.3352C35.1705 45.3352 34.9233 45.3352 34.6069 45.321Z" fill="#45679E"/>
<path d="M17.2549 11.6719C17.3644 11.8884 17.4977 12.1648 17.5691 12.4564C17.6398 12.7449 17.648 13.0487 17.7093 13.4037C17.632 13.4216 17.447 13.3939 17.4389 13.3396C17.3596 12.8084 17.3098 12.2727 17.2549 11.6719Z" fill="#0663AD"/>
<path d="M126.391 39.0673C125.53 39.0804 124.678 39.0277 123.757 38.9766C124.592 38.9859 125.496 38.9937 126.391 39.0673Z" fill="#45679E"/>
<path d="M7.85986 14.7867C7.622 14.6568 7.36439 14.4785 7.10938 14.2422C7.35468 14.3689 7.59739 14.5536 7.85986 14.7867Z" fill="#0A83C5"/>
<path d="M6.41918 20.7227C6.6772 20.8977 6.87791 21.0738 7.08223 21.3027C6.78545 21.1794 6.48505 21.0032 6.15869 20.7807C6.20911 20.7309 6.28549 20.7273 6.41918 20.7227Z" fill="#0A83C5"/>
<path d="M8.93404 15.5643C8.70418 15.491 8.44696 15.3739 8.18457 15.2012C8.42183 15.2705 8.66426 15.3955 8.93404 15.5643Z" fill="#0A83C5"/>
<path d="M2.95105 4.28136C2.85428 4.32949 2.77937 4.32729 2.64844 4.31861C2.72214 4.12234 2.85188 3.93254 3.02846 3.72266C3.04117 3.87873 3.00704 4.05488 2.95105 4.28136Z" fill="#0595D7"/>
<path d="M16.937 10.416C17.0331 10.6366 17.1286 10.9175 17.1913 11.2389C17.0845 11.0117 17.0104 10.744 16.937 10.416Z" fill="#0663AD"/>
<path d="M19.3535 12.7139C19.5089 12.6053 19.7185 12.4898 19.9913 12.377C19.839 12.4887 19.6234 12.5978 19.3535 12.7139Z" fill="#0663AD"/>
<path d="M9.01074 6.8458C9.12646 6.73984 9.29287 6.62177 9.52219 6.50977C9.41054 6.62178 9.23599 6.72773 9.01074 6.8458Z" fill="#0384CA"/>
<path d="M16.334 9.01953C16.4341 9.13828 16.5413 9.30847 16.6472 9.53853C16.5443 9.4226 16.4427 9.24678 16.334 9.01953Z" fill="#036CB6"/>
<path d="M19.2465 3.35915C19.1194 3.31901 18.9745 3.23328 18.8301 3.08984C18.9633 3.12595 19.0961 3.21975 19.2465 3.35915Z" fill="#0663AD"/>
<path d="M16.9584 1.80193C16.8417 1.76865 16.7075 1.69151 16.6079 1.58203C16.742 1.61915 16.8415 1.68861 16.9584 1.80193Z" fill="#036CB6"/>
<path d="M16.6431 9.64062C16.6936 9.67308 16.7441 9.75677 16.7935 9.89289C16.7425 9.86083 16.6928 9.77635 16.6431 9.64062Z" fill="#0663AD"/>
<path d="M7.10254 21.3902C7.17033 21.3761 7.26078 21.4046 7.37204 21.4782C7.30363 21.4931 7.21441 21.4629 7.10254 21.3902Z" fill="#0A83C5"/>
<path d="M6.42057 1.21484C6.39578 1.26681 6.32385 1.32368 6.20264 1.37988C6.22672 1.32606 6.30007 1.27291 6.42057 1.21484Z" fill="#0595D7"/>
<path d="M18.0884 13.3074C18.1148 13.2585 18.1876 13.2065 18.3077 13.1523C18.2816 13.2015 18.2082 13.253 18.0884 13.3074Z" fill="#0663AD"/>
<path d="M33.9644 45.1953C34.039 45.176 34.1133 45.2057 34.2088 45.2709C34.1413 45.2856 34.0526 45.265 33.9644 45.1953Z" fill="#45679E"/>
<path d="M18.3979 13.1519C18.4257 13.1035 18.5006 13.0529 18.6236 13.002C18.5961 13.051 18.5206 13.1004 18.3979 13.1519Z" fill="#0663AD"/>
<path d="M19.0146 12.8323C19.048 12.7769 19.1288 12.7355 19.2576 12.7012C19.2244 12.7543 19.1433 12.8002 19.0146 12.8323Z" fill="#0663AD"/>
<path d="M3.49665 3.24023C3.50828 3.27439 3.47885 3.31993 3.41049 3.37991C3.39958 3.34678 3.42758 3.2992 3.49665 3.24023Z" fill="#0595D7"/>
<path d="M20.6356 4.91063C20.5869 4.92921 20.5541 4.89612 20.5234 4.81695C20.5559 4.81197 20.5979 4.84134 20.6356 4.91063Z" fill="#0663AD"/>
<path d="M8.03258 14.9455C7.9973 14.9604 7.94906 14.9337 7.88525 14.8671C7.91967 14.8528 7.96965 14.8783 8.03258 14.9455Z" fill="#0A83C5"/>
<path d="M18.7048 12.9952C18.6939 12.9597 18.7247 12.9151 18.7941 12.8555C18.804 12.8891 18.7753 12.9376 18.7048 12.9952Z" fill="#0663AD"/>
<path d="M3.96249 2.7832C3.97374 2.81638 3.94485 2.86072 3.8786 2.92031C3.86827 2.8885 3.89532 2.84143 3.96249 2.7832Z" fill="#0595D7"/>
<path d="M3.8077 2.9375C3.81827 2.97082 3.78818 3.015 3.71965 3.07316C3.70983 3.04088 3.73843 2.99462 3.8077 2.9375Z" fill="#0595D7"/>
<path d="M7.60413 8.04672C7.59475 8.01322 7.62692 7.96907 7.69969 7.91406C7.70875 7.94749 7.67722 7.99178 7.60413 8.04672Z" fill="#028CCF"/>
<path d="M3.65103 3.08594C3.66296 3.12004 3.63399 3.16575 3.56638 3.22634C3.55521 3.19332 3.58267 3.14544 3.65103 3.08594Z" fill="#0595D7"/>
<path d="M8.05661 15.156C8.01625 15.1269 8.01781 15.0977 8.02653 15.025C8.07635 15.0108 8.11902 15.0401 8.17191 15.1095C8.15427 15.1516 8.1264 15.1538 8.05661 15.156Z" fill="#0A83C5"/>
<path d="M3.34206 3.39258C3.35474 3.42656 3.3268 3.47245 3.26103 3.53419C3.24928 3.50153 3.27536 3.45301 3.34206 3.39258Z" fill="#0595D7"/>
<path d="M19.4078 3.52429C19.3716 3.54452 19.3341 3.51663 19.2886 3.44562C19.3271 3.41603 19.369 3.44059 19.4078 3.52429Z" fill="#0663AD"/>
<path d="M3.19073 3.55469C3.20274 3.58778 3.1745 3.6322 3.10934 3.69224C3.09843 3.66058 3.12446 3.61329 3.19073 3.55469Z" fill="#0595D7"/>
<path d="M20.5101 4.74636C20.4766 4.75542 20.4329 4.72285 20.3774 4.64983C20.4104 4.64116 20.4552 4.67295 20.5101 4.74636Z" fill="#0663AD"/>
<path d="M20.3699 4.58397C20.3344 4.59483 20.2872 4.56324 20.23 4.48847C20.266 4.47737 20.3122 4.50945 20.3699 4.58397Z" fill="#0663AD"/>
<path d="M20.0475 4.2847C20.0157 4.29412 19.9711 4.26303 19.9116 4.19293C19.9427 4.18402 19.9888 4.2141 20.0475 4.2847Z" fill="#0663AD"/>
<path d="M9.1013 15.7287C9.07017 15.7391 9.02519 15.7084 8.96533 15.6385C8.99612 15.6288 9.04178 15.6582 9.1013 15.7287Z" fill="#0A83C5"/>
<path d="M16.9245 10.0488C16.9559 10.0915 16.9527 10.1343 16.9415 10.2414C16.8946 10.2537 16.8557 10.2018 16.8188 10.0991C16.8209 10.0483 16.89 10.049 16.9245 10.0488Z" fill="#0663AD"/>
<path d="M2.41883 4.47852C2.4514 4.52033 2.4276 4.56487 2.35449 4.61987C2.34046 4.58943 2.35956 4.53974 2.41883 4.47852Z" fill="#0595D7"/>
<path d="M2.56963 4.31836C2.58211 4.3525 2.55406 4.39996 2.48711 4.4637C2.47518 4.43054 2.50214 4.38111 2.56963 4.31836Z" fill="#0595D7"/>
<path d="M7.396 21.5524C7.41229 21.5083 7.44118 21.5043 7.5139 21.5C7.55772 21.4997 7.5574 21.5703 7.55919 21.6055C7.51019 21.6247 7.45939 21.6086 7.396 21.5524Z" fill="#0A83C5"/>
<path d="M9.40913 15.8834C9.37217 15.9178 9.32835 15.8964 9.27148 15.8281C9.29887 15.8123 9.34682 15.8277 9.40913 15.8834Z" fill="#0A83C5"/>
<path d="M20.22 4.4243C20.1856 4.44078 20.1357 4.41715 20.0679 4.35458C20.1015 4.3385 20.1529 4.36134 20.22 4.4243Z" fill="#0663AD"/>
<path d="M68.7342 38.9765C68.8934 39.1671 69.0605 39.3513 69.0628 39.5376C69.0832 41.2085 69.0606 42.88 69.0834 44.5508C69.09 45.0346 68.9055 45.1631 68.4519 45.1663C67.982 45.1696 67.8271 45.0061 67.8335 44.5377C67.8551 42.944 67.8736 41.3488 67.8268 39.7561C67.8071 39.0855 68.0493 38.8716 68.7342 38.9765Z" fill="#2B5CA9"/>
<path d="M68.9326 37.8846C68.9481 37.1245 69.4467 37.2282 69.8545 37.3241C69.9856 37.355 70.1132 37.6733 70.1185 37.8635C70.1214 37.9695 69.8644 38.1791 69.7332 38.1724C69.4652 38.1586 69.2031 38.0301 68.9326 37.8846Z" fill="#2E5EA7"/>
</g>
<defs>
<clipPath id="clip0_178_1986">
<rect width="140" height="60" fill="white"/>
</clipPath>
</defs>
</svg>
