<svg width="140" height="43" viewBox="0 0 140 43" fill="none" xmlns="http://www.w3.org/2000/svg">
<g clip-path="url(#clip0_178_1242)">
<path d="M20.2456 33.1155L23.711 14.6812C23.711 14.6812 25.2015 15.3927 26.758 15.3927C28.3131 15.3927 30.0922 14.6812 30.0922 14.6812L26.6209 33.1155H20.2456ZM31.6531 27.5778C32.7736 28.1011 34.9003 28.9211 36.7972 28.8878C38.0654 28.8878 38.589 28.4002 38.589 27.8055C38.589 27.1268 38.027 26.6059 36.4311 25.891C34.3433 24.8756 32.3201 23.3399 32.3201 20.9025C32.3201 16.819 35.9013 14.2664 40.9724 14.2664C43.3213 14.2664 45.0756 14.7223 46.0454 15.2441L44.59 19.6663C43.7733 19.3282 42.4283 18.8806 40.7162 18.8806C39.515 18.8806 38.7377 19.2593 38.7377 20.0059C38.7377 20.5287 39.409 21.0921 40.8256 21.7293C42.8021 22.6646 45.2263 24.0494 45.2263 26.8263C45.2263 31.2094 41.459 33.5744 36.2065 33.5348C33.7449 33.4576 31.3585 32.857 30.1642 31.997L31.6531 27.5778ZM67.0347 40.5379L70.5391 22.0665C70.9085 19.8916 71.4 16.4095 71.6207 14.497H77.2868L77.0258 17.0409H77.0987C78.5152 15.208 80.572 14.2664 82.6579 14.2664C86.6493 14.2664 88.6934 17.4538 88.6934 21.3902C88.6934 27.7547 84.5965 33.5348 78.1064 33.5348C76.8474 33.5348 75.5324 33.1942 74.9428 32.7857H74.8679L73.3756 40.5379H67.0347ZM75.8324 27.9115C76.3195 28.4002 76.9558 28.7378 77.8463 28.7378C80.2322 28.7378 82.0249 24.9905 82.0249 21.8769C82.0249 20.6421 81.4679 19.4435 80.1223 19.4435C78.2974 19.4435 76.9169 21.4718 76.3938 24.429L75.8324 27.9115ZM123.365 33.1155C123.408 32.0684 123.477 30.989 123.516 29.9335H123.45C121.883 32.6709 119.602 33.5343 117.668 33.5343C114.352 33.5343 111.995 30.989 111.995 26.9729C111.995 20.8669 115.835 14.2659 125.304 14.2659C127.691 14.2659 130.195 14.755 131.836 15.2827L129.895 24.9533C129.518 26.9382 129.117 30.7188 129.188 33.115L123.365 33.1155ZM124.714 19.1781C124.299 19.1058 123.852 19.0648 123.554 19.0648C120.576 19.0648 118.635 23.0745 118.635 25.7738C118.635 27.5021 119.341 28.4002 120.463 28.4002C121.616 28.4002 123.14 27.2319 123.971 22.8879L124.714 19.1781ZM136.857 10.9695C138.428 10.9695 139.647 12.198 139.647 13.7259C139.647 15.2901 138.428 16.4994 136.842 16.4994C135.271 16.4994 134.012 15.2901 134.012 13.7259C134.012 12.198 135.271 10.9695 136.842 10.9695H136.857ZM136.827 11.5276C135.624 11.5276 134.719 12.5141 134.719 13.7259C134.719 14.9568 135.624 15.9316 136.857 15.9316C138.065 15.9429 138.944 14.9568 138.944 13.7259C138.944 12.5141 138.065 11.5276 136.842 11.5276H136.827ZM136.41 15.1572H135.772V12.4237C136.023 12.367 136.38 12.3172 136.827 12.3172C137.344 12.3172 137.574 12.4061 137.784 12.5332C137.934 12.6519 138.041 12.8703 138.041 13.123C138.041 13.4416 137.81 13.679 137.482 13.7777V13.8085C137.744 13.8945 137.893 14.112 137.978 14.4843C138.065 14.9031 138.11 15.0712 138.178 15.1572H137.499C137.409 15.055 137.36 14.8161 137.282 14.5039C137.225 14.197 137.061 14.0655 136.71 14.0655H136.41L136.41 15.1572ZM136.431 13.6116H136.726C137.081 13.6116 137.36 13.4929 137.36 13.2095C137.36 12.9573 137.18 12.7907 136.778 12.7907C136.604 12.7907 136.494 12.8029 136.431 12.8215V13.6116ZM15.2726 10.1506C13.1799 14.8576 8.89632 24.6074 8.12924 26.7095H8.05729C7.83222 23.677 6.56201 7.86133 6.56201 7.86133H0L3.1359 33.116H10.5928L23.6284 7.3683C23.6284 7.3683 22.3864 7.48655 19.9865 8.16136C18.0629 8.71254 15.8108 9.86718 15.2726 10.1506ZM46.9763 33.1155H53.3536L54.8829 25.0198C55.5513 21.4718 56.964 19.3697 58.6503 19.3697C59.692 19.3697 60.0678 20.0811 60.0678 21.0912C60.0678 21.7679 59.9929 22.5146 59.8437 23.2631L57.979 33.115H64.3504L66.2881 22.6636C66.5151 21.5774 66.6628 20.1144 66.6628 19.2944C66.6628 16.2947 65.2094 14.2654 62.0049 14.2654C59.7664 14.2654 57.9785 15.2432 56.4822 16.667H56.4083L57.7592 9.67417C55.6884 9.36535 53.6331 9.01745 51.589 8.66172L46.9763 33.1155ZM104.991 14.2664C102.749 14.2664 100.961 15.2441 99.472 16.668H99.3971L101.329 6.51172H101.221C99.0763 7.75628 96.793 8.8259 94.3624 9.71473L89.9656 33.116H96.3419L97.8658 25.0203C98.5411 21.4723 99.9566 19.3702 101.643 19.3702C102.673 19.3702 103.052 20.0816 103.052 21.0916C103.052 21.7684 102.969 22.515 102.822 23.2636L100.961 33.1155H107.337L109.275 22.6641C109.504 21.5778 109.652 20.1149 109.652 19.2949C109.652 16.2957 108.192 14.2664 104.991 14.2664Z" fill="#414142"/>
<path d="M29.7697 0.619864C25.6576 1.40755 22.2063 3.23798 19.3688 4.92377C18.9255 5.18715 18.0631 5.70461 16.1255 7.1759C16.8746 6.75958 19.4534 5.56682 24.3894 4.77572C29.7833 3.92158 39.102 3.4217 52.8697 5.94307C83.5486 11.5546 97.607 5.41339 102.229 2.51382L102.609 2.25338C102.609 2.25338 103.067 1.91817 103.465 1.61668C101.815 2.33351 99.9486 2.96483 97.7829 3.53067C86.4818 6.49816 73.7073 5.26924 63.8397 3.8649C60.8871 3.45151 57.829 2.86515 54.8788 2.30224C46.5186 0.712217 37.8838 -0.928624 29.7697 0.619864Z" fill="#F7931E"/>
<path fill-rule="evenodd" clip-rule="evenodd" d="M23.9839 13.0477C24.6834 12.1613 25.4374 11.3594 26.236 10.6719C25.8812 10.3836 25.6542 10.0255 25.5278 9.60573C25.7908 10.1017 26.0547 10.4833 26.3265 10.6055C26.5525 10.4086 26.7946 10.2175 27.0376 10.044C26.7139 9.56469 26.5685 9.04429 26.5593 8.50337C26.691 9.17622 26.8641 9.72203 27.1509 9.97417C28.5854 8.9578 30.1643 8.35531 31.8944 8.40076C31.277 8.41346 30.6752 8.52878 30.0865 8.72179C30.5299 8.84053 30.7807 8.97833 31.1535 9.30522C30.6951 9.02719 30.2698 8.81903 29.9203 8.76919C29.6203 8.87571 29.3049 9.00569 28.9986 9.15228C29.6403 9.2891 30.2017 9.58521 30.6699 10.0001C29.9149 9.53733 29.2295 9.23828 28.7643 9.28275C28.5033 9.40588 28.2612 9.54954 28.023 9.702C28.6826 9.83148 29.2402 10.1349 29.7283 10.5464C28.968 10.0924 28.2918 9.788 27.8169 9.83148C27.6035 9.96781 27.3954 10.1193 27.1922 10.2713C27.9783 10.411 28.6506 10.7628 29.2402 11.2627C28.3336 10.735 27.5228 10.369 26.9642 10.4384C26.7839 10.585 26.6016 10.7218 26.4242 10.8762C27.2399 11.0111 27.9331 11.3746 28.5271 11.8838C27.5986 11.3321 26.7669 10.9646 26.2132 11.0589C26.0678 11.1811 25.9312 11.3121 25.7849 11.4367C26.815 11.5837 27.6657 12.0274 28.4007 12.6494C27.2005 11.9478 26.1646 11.4909 25.5069 11.7171C24.979 12.2199 24.5069 12.7477 24.0952 13.2466C30.5814 16.7173 30.2625 9.33308 34.5262 8.04894C28.1547 5.30378 24.9712 7.48163 23.9839 13.0477Z" fill="#008641"/>
</g>
<defs>
<clipPath id="clip0_178_1242">
<rect width="140" height="43" fill="white"/>
</clipPath>
</defs>
</svg>
