<svg width="140" height="147" viewBox="0 0 140 147" fill="none" xmlns="http://www.w3.org/2000/svg">
<path d="M27.0967 17.1381C27.0967 7.67192 34.7588 -0.00195312 44.2104 -0.00195312H91.2734C100.725 -0.00195312 108.387 7.67192 108.387 17.1381V64.2735C108.387 73.7396 100.725 81.4134 91.2734 81.4134H44.2104C34.7588 81.4134 27.0967 73.7396 27.0967 64.2735V17.1381Z" fill="#009948"/>
<path fill-rule="evenodd" clip-rule="evenodd" d="M86.9941 34.2791H48.4881C44.9438 34.2791 42.0705 37.1569 42.0705 40.7066C42.0705 44.2565 44.9438 47.1341 48.4881 47.1341H86.9941C90.5386 47.1341 93.4117 44.2565 93.4117 40.7066C93.4117 37.1569 90.5386 34.2791 86.9941 34.2791ZM48.4881 27.8516C41.3994 27.8516 35.6528 33.607 35.6528 40.7066C35.6528 47.8062 41.3994 53.5619 48.4881 53.5619H86.9941C94.0828 53.5619 99.8294 47.8062 99.8294 40.7066C99.8294 33.607 94.0828 27.8516 86.9941 27.8516H48.4881Z" fill="white"/>
<path fill-rule="evenodd" clip-rule="evenodd" d="M61.3258 21.4234V59.9886C61.3258 63.5385 64.1992 66.4161 67.7435 66.4161C71.288 66.4161 74.1611 63.5385 74.1611 59.9886V21.4234C74.1611 17.8736 71.288 14.9959 67.7435 14.9959C64.1992 14.9959 61.3258 17.8736 61.3258 21.4234ZM54.9082 59.9886C54.9082 67.0883 60.6548 72.8436 67.7435 72.8436C74.8322 72.8436 80.5788 67.0883 80.5788 59.9886V21.4234C80.5788 14.3238 74.8322 8.56836 67.7435 8.56836C60.6548 8.56836 54.9082 14.3238 54.9082 21.4234V59.9886Z" fill="white"/>
<path d="M0 140.571H1.41322C1.58031 140.243 1.74758 139.834 1.91468 139.343C2.09703 138.852 2.25658 138.302 2.39335 137.692C2.54536 137.082 2.66687 136.42 2.75805 135.706C2.84922 134.991 2.89482 134.24 2.89482 133.451V131.421H12.3087V140.571H13.8358V146.128H10.8043V142.959H3.03158V146.128H0V140.571ZM9.07194 140.571V133.786H5.9036V134.076C5.9036 134.791 5.85801 135.475 5.76683 136.13C5.69091 136.784 5.58448 137.394 5.44772 137.96C5.31096 138.51 5.16666 139.009 5.01464 139.455C4.86262 139.901 4.71832 140.273 4.58156 140.571H9.07194ZM21.0164 143.249C20.0894 143.249 19.2538 143.108 18.5091 142.825C17.7645 142.542 17.1262 142.14 16.5944 141.62C16.0626 141.084 15.6523 140.444 15.3636 139.7C15.0748 138.957 14.9305 138.123 14.9305 137.201C14.9305 136.278 15.0748 135.445 15.3636 134.701C15.6523 133.942 16.0626 133.303 16.5944 132.782C17.1262 132.246 17.7645 131.837 18.5091 131.554C19.2538 131.257 20.0894 131.108 21.0164 131.108C21.9434 131.108 22.7791 131.257 23.5237 131.554C24.2835 131.837 24.9294 132.246 25.4612 132.782C25.993 133.303 26.4033 133.942 26.6921 134.701C26.9809 135.445 27.1252 136.278 27.1252 137.201C27.1252 138.123 26.9809 138.957 26.6921 139.7C26.4033 140.444 25.993 141.084 25.4612 141.62C24.9294 142.14 24.2835 142.542 23.5237 142.825C22.7791 143.108 21.9434 143.249 21.0164 143.249ZM21.0164 140.883C21.5635 140.883 22.0194 140.779 22.3841 140.571C22.764 140.363 23.0603 140.087 23.273 139.745C23.501 139.388 23.6605 138.994 23.7517 138.562C23.8429 138.116 23.8884 137.662 23.8884 137.201C23.8884 136.74 23.8429 136.286 23.7517 135.839C23.6605 135.393 23.501 134.999 23.273 134.657C23.0603 134.314 22.764 134.039 22.3841 133.831C22.0194 133.608 21.5635 133.496 21.0164 133.496C20.4694 133.496 20.0135 133.608 19.6488 133.831C19.2841 134.039 18.9878 134.314 18.7598 134.657C18.5472 134.999 18.3951 135.393 18.304 135.839C18.2128 136.286 18.1672 136.74 18.1672 137.201C18.1672 137.662 18.2128 138.116 18.304 138.562C18.3951 138.994 18.5472 139.388 18.7598 139.745C18.9878 140.087 19.2841 140.363 19.6488 140.571C20.0135 140.779 20.4694 140.883 21.0164 140.883ZM34.837 143.249C33.6973 143.249 32.7551 143.041 32.0106 142.624C31.2659 142.207 30.6733 141.664 30.2327 140.995C29.8071 140.325 29.5108 139.574 29.3437 138.741C29.1764 137.908 29.093 137.067 29.093 136.219C29.093 135.207 29.1386 134.24 29.2297 133.318C29.3209 132.38 29.5336 131.532 29.868 130.773C30.2022 130.015 30.6808 129.36 31.304 128.809C31.9422 128.244 32.8007 127.82 33.8797 127.537C34.2139 127.448 34.6014 127.388 35.0422 127.359C35.498 127.329 35.9311 127.292 36.3414 127.247C36.7517 127.202 37.0936 127.143 37.3671 127.069C37.6557 126.979 37.8078 126.838 37.823 126.645H40.6722C40.6114 127.359 40.4519 127.924 40.1936 128.341C39.9504 128.757 39.5932 129.092 39.1223 129.345C38.6511 129.583 38.0737 129.762 37.3899 129.881C36.7061 129.985 35.9006 130.081 34.9738 130.171C34.2444 130.245 33.6289 130.416 33.1275 130.684C32.626 130.952 32.2157 131.294 31.8966 131.711C31.5775 132.112 31.3343 132.574 31.1672 133.094C31.0152 133.6 30.9088 134.136 30.8481 134.701H30.9165C31.0533 134.314 31.2431 133.928 31.4863 133.541C31.7446 133.154 32.0637 132.804 32.4437 132.492C32.8234 132.179 33.2718 131.926 33.7885 131.733C34.305 131.525 34.8977 131.421 35.5664 131.421C36.3109 131.421 37.01 131.562 37.6635 131.845C38.332 132.127 38.9094 132.529 39.3958 133.05C39.882 133.57 40.262 134.195 40.5355 134.924C40.8241 135.639 40.9686 136.442 40.9686 137.335C40.9686 138.242 40.8241 139.061 40.5355 139.79C40.262 140.519 39.8592 141.144 39.3274 141.664C38.7954 142.17 38.1497 142.565 37.3899 142.847C36.63 143.115 35.7791 143.249 34.837 143.249ZM35.065 140.883C35.8855 140.883 36.5313 140.578 37.0024 139.968C37.4886 139.358 37.7318 138.473 37.7318 137.312C37.7318 136.182 37.4962 135.304 37.0252 134.679C36.5541 134.039 35.8855 133.719 35.0194 133.719C34.1988 133.719 33.5528 134.039 33.0819 134.679C32.6108 135.319 32.3753 136.204 32.3753 137.335C32.3753 138.495 32.6108 139.381 33.0819 139.991C33.5681 140.586 34.2291 140.883 35.065 140.883ZM43.0752 131.421H46.1524V132.894H46.198C46.593 132.269 47.0945 131.815 47.7024 131.532C48.3101 131.249 48.9788 131.108 49.7082 131.108C50.6351 131.108 51.4329 131.279 52.1016 131.621C52.7701 131.964 53.3247 132.417 53.7655 132.983C54.2062 133.548 54.5328 134.21 54.7457 134.969C54.9584 135.713 55.0648 136.494 55.0648 137.312C55.0648 138.086 54.9584 138.83 54.7457 139.544C54.5328 140.258 54.2062 140.891 53.7655 141.441C53.34 141.992 52.8005 142.431 52.1472 142.758C51.509 143.085 50.7568 143.249 49.8906 143.249C49.1612 143.249 48.4849 143.108 47.8619 142.825C47.254 142.527 46.7526 142.096 46.3575 141.531H46.312V146.998H43.0752V131.421ZM49.0244 140.883C49.5562 140.883 49.9968 140.779 50.3465 140.571C50.7112 140.363 50.9998 140.095 51.2126 139.767C51.4406 139.425 51.6001 139.038 51.6913 138.607C51.7825 138.161 51.8281 137.699 51.8281 137.223C51.8281 136.762 51.7748 136.308 51.6685 135.862C51.5773 135.415 51.4178 135.021 51.1898 134.679C50.9619 134.322 50.6656 134.039 50.3009 133.831C49.9513 133.608 49.5182 133.496 49.0016 133.496C48.4697 133.496 48.0215 133.608 47.6568 133.831C47.3072 134.039 47.0186 134.314 46.7906 134.657C46.5778 134.999 46.4259 135.4 46.3348 135.862C46.2436 136.308 46.198 136.762 46.198 137.223C46.198 137.699 46.2436 138.161 46.3348 138.607C46.441 139.038 46.6006 139.425 46.8134 139.767C47.0414 140.095 47.33 140.363 47.6796 140.571C48.0443 140.779 48.4925 140.883 49.0244 140.883ZM62.7309 143.249C61.804 143.249 60.9682 143.108 60.2236 142.825C59.4791 142.542 58.8408 142.14 58.3089 141.62C57.7771 141.084 57.3668 140.444 57.078 139.7C56.7894 138.957 56.6449 138.123 56.6449 137.201C56.6449 136.278 56.7894 135.445 57.078 134.701C57.3668 133.942 57.7771 133.303 58.3089 132.782C58.8408 132.246 59.4791 131.837 60.2236 131.554C60.9682 131.257 61.804 131.108 62.7309 131.108C63.6579 131.108 64.4937 131.257 65.2382 131.554C65.9981 131.837 66.6439 132.246 67.1757 132.782C67.7076 133.303 68.1179 133.942 68.4065 134.701C68.6953 135.445 68.8396 136.278 68.8396 137.201C68.8396 138.123 68.6953 138.957 68.4065 139.7C68.1179 140.444 67.7076 141.084 67.1757 141.62C66.6439 142.14 65.9981 142.542 65.2382 142.825C64.4937 143.108 63.6579 143.249 62.7309 143.249ZM62.7309 140.883C63.2779 140.883 63.7338 140.779 64.0985 140.571C64.4785 140.363 64.7748 140.087 64.9875 139.745C65.2154 139.388 65.375 138.994 65.4661 138.562C65.5573 138.116 65.6029 137.662 65.6029 137.201C65.6029 136.74 65.5573 136.286 65.4661 135.839C65.375 135.393 65.2154 134.999 64.9875 134.657C64.7748 134.314 64.4785 134.039 64.0985 133.831C63.7338 133.608 63.2779 133.496 62.7309 133.496C62.1838 133.496 61.728 133.608 61.3633 133.831C60.9986 134.039 60.7022 134.314 60.4743 134.657C60.2616 134.999 60.1096 135.393 60.0184 135.839C59.9272 136.286 59.8817 136.74 59.8817 137.201C59.8817 137.662 59.9272 138.116 60.0184 138.562C60.1096 138.994 60.2616 139.388 60.4743 139.745C60.7022 140.087 60.9986 140.363 61.3633 140.571C61.728 140.779 62.1838 140.883 62.7309 140.883ZM71.0582 131.421H79.9477V133.809H74.2949V142.959H71.0582V131.421ZM86.9939 143.249C86.0668 143.249 85.2312 143.108 84.4865 142.825C83.7419 142.542 83.1036 142.14 82.5718 141.62C82.04 141.084 81.6298 140.444 81.341 139.7C81.0522 138.957 80.9079 138.123 80.9079 137.201C80.9079 136.278 81.0522 135.445 81.341 134.701C81.6298 133.942 82.04 133.303 82.5718 132.782C83.1036 132.246 83.7419 131.837 84.4865 131.554C85.2312 131.257 86.0668 131.108 86.9939 131.108C87.9209 131.108 88.7565 131.257 89.5012 131.554C90.2609 131.837 90.9068 132.246 91.4386 132.782C91.9717 133.303 92.382 133.942 92.6695 134.701C92.9588 135.445 93.1026 136.278 93.1026 137.201C93.1026 138.123 92.9588 138.957 92.6695 139.7C92.382 140.444 91.9717 141.084 91.4386 141.62C90.9068 142.14 90.2609 142.542 89.5012 142.825C88.7565 143.108 87.9209 143.249 86.9939 143.249ZM86.9939 140.883C87.5409 140.883 87.9968 140.779 88.3615 140.571C88.7414 140.363 89.0378 140.087 89.2504 139.745C89.4784 139.388 89.6379 138.994 89.7291 138.562C89.8203 138.116 89.8659 137.662 89.8659 137.201C89.8659 136.74 89.8203 136.286 89.7291 135.839C89.6379 135.393 89.4784 134.999 89.2504 134.657C89.0378 134.314 88.7414 134.039 88.3615 133.831C87.9968 133.608 87.5409 133.496 86.9939 133.496C86.4468 133.496 85.9909 133.608 85.6262 133.831C85.2615 134.039 84.9652 134.314 84.7373 134.657C84.5246 134.999 84.3726 135.393 84.2814 135.839C84.1902 136.286 84.1446 136.74 84.1446 137.201C84.1446 137.662 84.1902 138.116 84.2814 138.562C84.3726 138.994 84.5246 139.388 84.7373 139.745C84.9652 140.087 85.2615 140.363 85.6262 140.571C85.9909 140.779 86.4468 140.883 86.9939 140.883ZM100.481 140.571H101.894C102.061 140.243 102.227 139.834 102.395 139.343C102.578 138.852 102.737 138.302 102.874 137.692C103.025 137.082 103.148 136.42 103.239 135.706C103.33 134.991 103.376 134.24 103.376 133.451V131.421H112.789V140.571H114.317V146.128H111.285V142.959H103.512V146.128H100.481V140.571ZM109.553 140.571V133.786H106.384V134.076C106.384 134.791 106.339 135.475 106.248 136.13C106.17 136.784 106.065 137.394 105.928 137.96C105.792 138.51 105.646 139.009 105.495 139.455C105.343 139.901 105.199 140.273 105.062 140.571H109.553ZM115.775 131.421H119.012V135.616H123.594V131.421H126.83V142.959H123.594V138.116H119.012V142.959H115.775V131.421ZM131.794 138.629C130.958 138.495 130.274 138.101 129.743 137.446C129.226 136.792 128.968 135.988 128.968 135.036C128.968 134.53 129.059 134.061 129.241 133.63C129.439 133.184 129.713 132.797 130.062 132.469C130.411 132.142 130.821 131.889 131.293 131.711C131.764 131.517 132.289 131.421 132.866 131.421H140V142.959H136.763V138.897H135.236L132.022 142.959H128.056L131.794 138.629ZM136.763 133.719H134.188C133.442 133.719 132.934 133.853 132.66 134.121C132.387 134.374 132.25 134.716 132.25 135.148C132.25 135.594 132.38 135.951 132.638 136.219C132.911 136.487 133.428 136.621 134.188 136.621H136.763V133.719Z" fill="#24874E"/>
<path d="M9.73346 117.598C8.71458 117.598 7.75286 117.486 6.84831 117.263C5.94377 117.067 5.14347 116.732 4.44404 116.258C3.77488 115.755 3.23349 115.127 2.82661 114.373C2.44663 113.591 2.2583 112.656 2.2583 111.567C2.2583 110.339 2.4769 109.334 2.91404 108.552C3.35118 107.77 3.91948 107.142 4.61891 106.667C5.3486 106.164 6.16235 105.788 7.06689 105.536C7.99834 105.285 8.94661 105.076 9.90832 104.908C10.9272 104.713 11.8889 104.573 12.7935 104.489C13.7249 104.377 14.542 104.238 15.2415 104.07C15.9409 103.875 16.4957 103.61 16.9026 103.275C17.3095 102.912 17.5146 102.395 17.5146 101.725C17.5146 100.943 17.3532 100.315 17.0338 99.8405C16.7412 99.366 16.3477 99.0029 15.8534 98.7517C15.386 98.5004 14.848 98.3328 14.236 98.2491C13.6543 98.1653 13.0692 98.1234 12.4875 98.1234C10.9137 98.1234 9.60232 98.4166 8.55318 99.0029C7.50404 99.5612 6.93574 100.636 6.84831 102.228H3.13262C3.18978 100.888 3.48231 99.7568 4.00688 98.8354C4.53146 97.914 5.23091 97.1741 6.1052 96.6158C6.97948 96.0294 7.97142 95.6106 9.07772 95.3593C10.2143 95.1081 11.4249 94.9824 12.706 94.9824C13.7249 94.9824 14.7304 95.0523 15.7223 95.1918C16.7412 95.3313 17.6592 95.6245 18.4763 96.0713C19.2934 96.4901 19.9491 97.0903 20.4434 97.8722C20.9377 98.654 21.1866 99.673 21.1866 100.929V112.07C21.1866 112.907 21.2303 113.522 21.3177 113.912C21.4354 114.303 21.7852 114.499 22.3669 114.499C22.6292 114.499 23.0091 114.429 23.5035 114.289V117.053C22.8612 117.416 21.9735 117.598 20.8369 117.598C19.8752 117.598 19.1017 117.347 18.52 116.844C17.9652 116.313 17.6894 115.462 17.6894 114.289C16.6706 115.462 15.4735 116.313 14.1049 116.844C12.7632 117.347 11.3072 117.598 9.73346 117.598ZM10.564 114.499C11.788 114.499 12.8372 114.345 13.7115 114.038C14.5857 113.703 15.2986 113.298 15.8534 112.823C16.4083 112.321 16.8152 111.79 17.0775 111.232C17.3398 110.646 17.4709 110.101 17.4709 109.599V105.955C17.0035 106.318 16.3915 106.569 15.6349 106.709C14.8783 106.848 14.0746 106.974 13.2306 107.086C12.4135 107.198 11.5829 107.309 10.7389 107.421C9.89485 107.533 9.13491 107.728 8.46575 108.007C7.79659 108.287 7.24174 108.691 6.8046 109.222C6.39772 109.724 6.19263 110.422 6.19263 111.316C6.19263 111.902 6.31028 112.405 6.5423 112.823C6.80459 113.214 7.12408 113.535 7.50405 113.787C7.91093 114.038 8.37834 114.219 8.90291 114.331C9.42748 114.443 9.98228 114.499 10.564 114.499ZM26.9602 95.485H45.4076V117.137H41.6919V98.626H30.6759V117.137H26.9602V95.485ZM56.4606 98.626H48.3735V95.485H68.2635V98.626H60.1763V117.137H56.4606V98.626ZM80.8464 117.598C79.0407 117.598 77.4536 117.318 76.0816 116.76C74.7433 116.202 73.6201 115.42 72.7156 114.415C71.8144 113.41 71.1284 112.209 70.661 110.813C70.2239 109.417 70.0053 107.895 70.0053 106.248C70.0053 104.629 70.2676 103.135 70.7922 101.767C71.3168 100.371 72.0464 99.1705 72.9779 98.1653C73.9396 97.1602 75.0627 96.3783 76.3439 95.82C77.6553 95.2617 79.0844 94.9824 80.6278 94.9824C82.6387 94.9824 84.2999 95.3874 85.6113 96.197C86.953 96.9788 88.0156 97.984 88.8024 99.2123C89.6195 100.441 90.1744 101.781 90.4636 103.233C90.7864 104.685 90.9175 106.067 90.857 107.379H73.9396C73.9127 108.328 74.027 109.236 74.2893 110.101C74.5516 110.939 74.9753 111.693 75.557 112.363C76.1421 113.005 76.8852 113.522 77.7864 113.912C78.691 114.303 79.7536 114.499 80.9776 114.499C82.5513 114.499 83.8358 114.15 84.8244 113.452C85.8467 112.754 86.5158 111.693 86.8353 110.269H90.5073C90.013 112.726 88.9201 114.569 87.2287 115.797C85.5407 116.998 83.4121 117.598 80.8464 117.598ZM86.9227 104.238C86.8656 103.4 86.6604 102.605 86.3107 101.851C85.9913 101.097 85.5407 100.455 84.9556 99.9243C84.4041 99.366 83.7316 98.933 82.9447 98.626C82.1881 98.291 81.3441 98.1234 80.4093 98.1234C79.4476 98.1234 78.5733 98.291 77.7864 98.626C77.0298 98.933 76.3741 99.366 75.8193 99.9243C75.2678 100.483 74.8307 101.139 74.5079 101.893C74.1884 102.618 74.0001 103.4 73.9396 104.238H86.9227ZM94.7106 95.485H98.4263V105.829L108.787 95.485H113.726L103.716 104.866L114.907 117.137H110.142L100.699 106.835L98.4263 108.97V117.137H94.7106V95.485ZM123.972 117.598C122.95 117.598 121.988 117.486 121.087 117.263C120.183 117.067 119.382 116.732 118.683 116.258C118.01 115.755 117.472 115.127 117.065 114.373C116.685 113.591 116.497 112.656 116.497 111.567C116.497 110.339 116.716 109.334 117.153 108.552C117.59 107.77 118.158 107.142 118.858 106.667C119.584 106.164 120.401 105.788 121.306 105.536C122.237 105.285 123.185 105.076 124.147 104.908C125.166 104.713 126.128 104.573 127.032 104.489C127.964 104.377 128.781 104.238 129.48 104.07C130.18 103.875 130.731 103.61 131.141 103.275C131.548 102.912 131.753 102.395 131.753 101.725C131.753 100.943 131.592 100.315 131.272 99.8405C130.98 99.366 130.587 99.0029 130.092 98.7517C129.625 98.5004 129.087 98.3328 128.475 98.2491C127.89 98.1653 127.308 98.1234 126.726 98.1234C125.152 98.1234 123.841 98.4166 122.792 99.0029C121.743 99.5612 121.175 100.636 121.087 102.228H117.371C117.429 100.888 117.721 99.7568 118.246 98.8354C118.77 97.914 119.47 97.1741 120.344 96.6158C121.218 96.0294 122.207 95.6106 123.317 95.3593C124.453 95.1081 125.66 94.9824 126.945 94.9824C127.964 94.9824 128.969 95.0523 129.961 95.1918C130.98 95.3313 131.898 95.6245 132.715 96.0713C133.529 96.4901 134.185 97.0903 134.682 97.8722C135.177 98.654 135.425 99.673 135.425 100.929V112.07C135.425 112.907 135.469 113.522 135.556 113.912C135.671 114.303 136.021 114.499 136.606 114.499C136.868 114.499 137.245 114.429 137.742 114.289V117.053C137.1 117.416 136.212 117.598 135.076 117.598C134.114 117.598 133.341 117.347 132.759 116.844C132.204 116.313 131.928 115.462 131.928 114.289C130.906 115.462 129.712 116.313 128.344 116.844C127.002 117.347 125.546 117.598 123.972 117.598ZM124.803 114.499C126.027 114.499 127.076 114.345 127.95 114.038C128.825 113.703 129.537 113.298 130.092 112.823C130.644 112.321 131.054 111.79 131.316 111.232C131.578 110.646 131.71 110.101 131.71 109.599V105.955C131.242 106.318 130.63 106.569 129.874 106.709C129.114 106.848 128.313 106.974 127.469 107.086C126.652 107.198 125.822 107.309 124.978 107.421C124.13 107.533 123.374 107.728 122.704 108.007C122.032 108.287 121.481 108.691 121.043 109.222C120.633 109.724 120.431 110.422 120.431 111.316C120.431 111.902 120.546 112.405 120.781 112.823C121.043 113.214 121.363 113.535 121.743 113.787C122.15 114.038 122.617 114.219 123.142 114.331C123.666 114.443 124.218 114.499 124.803 114.499Z" fill="#24874E"/>
</svg>
