<svg width="120" height="58" viewBox="0 0 120 58" fill="none" xmlns="http://www.w3.org/2000/svg">
<g clip-path="url(#clip0_190_7187)">
<path d="M24.7624 41.9158C24.7624 41.2604 24.2662 40.9327 23.6051 40.9327C23.0264 40.9327 22.6127 41.0969 22.1996 41.3428V40.522C22.5271 40.2811 23.1001 40.12 23.7544 40.12C24.8999 40.12 25.6367 40.7636 25.6367 41.8093V45.106H24.8249V44.7213C24.6774 44.8823 24.11 45.2038 23.5419 45.2038C22.5683 45.2038 21.6759 44.6414 21.6759 43.6763C21.6759 42.7917 22.4883 42.1481 23.5419 42.1481C24.0288 42.1481 24.7624 42.5501 24.7624 42.5501V41.9158ZM24.7624 43.4335C24.5999 43.0314 24.1137 42.7905 23.6269 42.7905C23.0589 42.7905 22.4908 43.0314 22.4908 43.675C22.4908 44.2375 23.0589 44.5596 23.6269 44.5596C24.1137 44.5596 24.6006 44.318 24.7624 43.916V43.4335ZM35.1986 38.354V45.106H34.3237V42.0707H30.5117V45.106H29.6368V38.354H30.5117V41.2654H34.3237V38.354H35.1986ZM37.252 42.7917C37.252 43.9172 37.9826 44.4803 38.8768 44.4803C39.4449 44.4803 39.8504 44.3193 40.2623 43.9978V44.7213C39.8504 45.0434 39.3636 45.1233 38.7956 45.1233C37.4164 45.1233 36.4434 44.1588 36.4434 42.6306C36.4434 41.1025 37.3358 40.0574 38.6337 40.0574C39.9317 40.0574 40.6622 41.0226 40.6372 42.4733V42.814H37.2527L37.252 42.7917ZM37.252 42.1326H39.7673C39.7673 41.4091 39.3618 40.7655 38.5506 40.7655C37.9826 40.846 37.4145 41.248 37.252 42.1326ZM45.7772 43.991L46.8395 40.2743H47.6282L46.1715 45.1679H45.3591L44.3074 41.4778L43.26 45.1679H42.4476L40.9909 40.2743H41.7827L42.8451 43.991L43.8224 40.2743H44.5561L45.7784 43.991H45.7772ZM49.4467 45.1679H48.6343V37.9823H49.4467V45.1679ZM51.3683 42.7917C51.3683 43.9172 52.0982 44.4803 52.9931 44.4803C53.5612 44.4803 53.9667 44.3193 54.3861 43.9978V44.7213C53.9667 45.0434 53.4799 45.1233 52.9125 45.1233C51.5327 45.1233 50.5597 44.1588 50.5597 42.6306C50.5597 41.1025 51.4521 40.0574 52.75 40.0574C54.048 40.0574 54.7785 41.0226 54.761 42.4733V42.814H51.3683V42.7917ZM51.3683 42.1326H53.8836C53.8836 41.4091 53.4781 40.7655 52.6669 40.7655C52.0982 40.846 51.5302 41.248 51.3683 42.1326ZM57.1332 45.1679H56.3208V40.9557H55.2584V40.2123H56.3208V38.9115H57.1332V40.2123H58.2581V40.9557H57.1332V45.1679ZM60.8827 45.1679H60.0703V40.9557H59.008V40.2123H60.0703V38.9115H60.8827V40.2123H62.0076V40.9557H60.8827V45.1679ZM66.4445 42.3804V45.106H65.5696V38.354H68.0349C69.3872 38.354 70.2615 39.0787 70.2615 40.3672C70.2615 41.6556 69.3866 42.3804 68.0349 42.3804H66.4445ZM68.0574 39.0973H66.4445V41.5751H68.0574C68.9442 41.5751 69.4278 41.0956 69.4278 40.2959C69.5066 39.6548 69.0248 39.0973 68.0574 39.0973ZM74.0066 41.9158C74.0066 41.2604 73.5104 40.9327 72.8493 40.9327C72.2706 40.9327 71.8569 41.0969 71.4438 41.3422V40.522C71.7713 40.2811 72.3443 40.12 72.9986 40.12C74.1441 40.12 74.8809 40.7636 74.8809 41.8093V45.106H74.0685V44.7213C73.9204 44.8823 73.353 45.2038 72.7849 45.2038C71.8113 45.2038 70.9189 44.6408 70.9189 43.6757C70.9189 42.7917 71.7313 42.1481 72.7849 42.1481C73.2717 42.1481 74.006 42.5501 74.006 42.5501V41.9158H74.0066ZM74.0066 43.4347C73.8442 43.0327 73.358 42.7917 72.8711 42.7917C72.3031 42.7917 71.7351 43.0327 71.7351 43.6757C71.7351 44.2387 72.3031 44.5602 72.8711 44.5602C73.358 44.5602 73.8448 44.3193 74.0066 43.9172V43.4335V43.4347ZM78.208 40.138C78.6948 40.138 79.1816 40.2179 79.5059 40.54V41.3453C79.1816 41.0238 78.6935 40.8627 78.208 40.8627C77.3156 40.8627 76.5832 41.5063 76.5832 42.6319C76.5832 43.7574 77.3137 44.401 78.208 44.401C78.6948 44.401 79.1003 44.24 79.5059 43.9185V44.7238C79.1816 45.0453 78.6935 45.1258 78.208 45.1258C76.91 45.1258 75.8551 44.1613 75.8551 42.5526C75.8545 41.1025 76.9094 40.138 78.2073 40.138H78.208ZM84.8027 45.1679H83.7172L81.4425 42.7459V45.1679H80.6301V37.9823H81.4425V42.3246L83.6554 40.2123H84.7177L82.2587 42.4869L84.8027 45.1679ZM88.3166 41.9158C88.3166 41.2604 87.8205 40.9327 87.1593 40.9327C86.5806 40.9327 86.1669 41.0969 85.7538 41.3422V40.522C86.0813 40.2811 86.6544 40.12 87.3086 40.12C88.4541 40.12 89.1909 40.7636 89.1909 41.8093V45.106H88.3785V44.7213C88.1979 44.8823 87.6286 45.2038 87.0624 45.2038C86.0888 45.2038 85.1964 44.6408 85.1964 43.6757C85.1964 42.7917 86.0088 42.1481 87.0624 42.1481C87.5492 42.1481 88.316 42.5501 88.316 42.5501V41.9158H88.3166ZM88.2542 43.4335C88.0917 43.0314 87.6055 42.7905 87.1187 42.7905C86.5506 42.7905 85.9826 43.0314 85.9826 43.6744C85.9826 44.2375 86.5506 44.559 87.1187 44.559C87.6055 44.559 88.0923 44.318 88.2542 43.916V43.4335ZM92.8785 41.0337C92.7179 40.9532 92.5573 40.8726 92.3161 40.8726C91.8337 40.8726 91.3519 41.1948 91.1913 41.7572V45.0403H90.3789V40.1504H91.1913V40.794C91.4319 40.392 91.8337 40.0698 92.3961 40.0698C92.6373 40.0698 92.7979 40.0698 92.8785 40.1504V41.0337ZM97.128 44.5584C96.8843 44.8811 96.3156 45.2038 95.7469 45.2038C94.2846 45.2038 93.5528 44.074 93.5528 42.6207C93.5528 41.248 94.3652 40.037 95.7469 40.037C96.0117 40.0327 96.2738 40.0888 96.5133 40.2008C96.7527 40.3128 96.963 40.4778 97.128 40.6831V37.8584H97.9404V45.044H97.128V44.5596V44.5584ZM97.128 41.6643C97.0096 41.423 96.8251 41.2195 96.5955 41.0771C96.366 40.9347 96.1008 40.8591 95.83 40.859C94.8564 40.859 94.3696 41.5825 94.3696 42.6282C94.3696 43.6738 94.9377 44.3973 95.83 44.3973C96.3168 44.3973 96.8037 44.0758 97.128 43.592V41.6655V41.6643ZM23.1376 49.3926V50.1855H19.6381V52.3535H22.8252V53.1588H19.6381V55.5127H23.1376V56.318H18.8257V49.5536L23.1376 49.3926ZM24.2 51.2385H25.0124V51.8803C25.3392 51.4795 25.8298 51.1586 26.4834 51.1586C27.627 51.1586 28.1995 51.8803 28.1995 52.9234V56.1322H27.3246V53.0764C27.3246 52.4328 27.0034 51.9503 26.2803 51.9503C25.7179 51.9503 25.2355 52.3523 25.0749 52.8349V56.1322H24.2625V51.1766H24.2V51.2385ZM30.9491 56.0702H30.1367V51.858H29.0744V51.1766H30.1367V49.8757H30.9491V51.1766H32.074V51.858H30.9491V56.0702ZM33.3582 53.8086C33.3582 54.9342 34.0881 55.4972 34.983 55.4972C35.551 55.4972 35.9566 55.3362 36.3884 55.0147V55.7382C35.9566 56.0603 35.4698 56.1402 34.9023 56.1402C33.5231 56.1402 32.5495 55.1758 32.5495 53.6476C32.5495 52.1194 33.4419 51.0744 34.7405 51.0744C36.0391 51.0744 36.7683 52.0395 36.7633 53.4865V53.7783H33.3582V53.8086ZM33.4394 53.1588H35.9541C35.9541 52.4353 35.5485 51.7917 34.7374 51.7917C34.0887 51.7917 33.6019 52.2742 33.4394 53.1588ZM40.3854 52.0612C40.2248 51.9806 40.0642 51.9001 39.823 51.9001C39.3405 51.9001 38.8587 52.2222 38.6981 52.7847V56.0678H37.8857V51.1766H38.6981V51.8202C38.9387 51.4182 39.3405 51.0961 39.9029 51.0961C40.1442 51.0961 40.3048 51.0961 40.3854 51.1766V52.0612ZM42.1352 57.9905H41.3228V51.2385H42.1352V51.801C42.3789 51.4795 42.9475 51.158 43.5162 51.158C44.9785 51.158 45.7103 52.3641 45.7103 53.73C45.7103 55.0958 44.9792 56.3025 43.5162 56.3025C42.8669 56.3025 42.3789 55.981 42.1352 55.6595V57.9905ZM42.1352 54.6127C42.2536 54.854 42.4381 55.0575 42.6676 55.1999C42.8971 55.3423 43.1624 55.4178 43.4331 55.418C44.4067 55.418 44.8935 54.6944 44.8935 53.6488C44.8935 52.6032 44.3255 51.8797 43.4331 51.8797C42.9463 51.8797 42.4595 52.2012 42.1352 52.6849V54.6152V54.6127ZM49.3217 52.0612C49.1611 51.9806 49.0005 51.9001 48.7593 51.9001C48.2769 51.9001 47.795 52.2222 47.6344 52.7847V56.0678H46.822V51.1766H47.6344V51.8202C47.875 51.4182 48.2769 51.0961 48.8393 51.0961C49.0805 51.0961 49.2411 51.0961 49.3217 51.1766V52.0612ZM50.719 50.2703C50.6067 50.2703 50.4969 50.2373 50.4034 50.1754C50.31 50.1136 50.2372 50.0256 50.1942 49.9227C50.1512 49.8198 50.14 49.7066 50.1619 49.5974C50.1838 49.4882 50.2379 49.3878 50.3174 49.3091C50.3968 49.2303 50.498 49.1767 50.6082 49.155C50.7184 49.1333 50.8326 49.1444 50.9364 49.187C51.0402 49.2296 51.1289 49.3018 51.1913 49.3944C51.2538 49.487 51.2871 49.5959 51.2871 49.7072C51.2058 50.0287 50.9627 50.2703 50.719 50.2703ZM51.134 56.0702H50.3216V51.1766H51.134V56.0702ZM52.2588 54.8555C52.7463 55.2581 53.3149 55.4997 53.8836 55.4997C54.4523 55.4997 54.9397 55.3387 54.9397 54.8555C54.9397 54.4529 54.696 54.2918 54.2086 54.1307L53.5587 53.8892C52.8275 53.6476 52.3401 53.3255 52.3401 52.5202C52.3401 51.6344 53.0712 51.1512 54.0461 51.1512C54.5616 51.1496 55.0676 51.2889 55.5084 51.5538V52.4396C55.1022 52.1175 54.6148 51.8759 54.0461 51.8759C53.5587 51.8759 53.1525 52.1175 53.1525 52.5202C53.1525 52.9228 53.3962 53.0839 53.8836 53.2449L54.6148 53.4865C55.3459 53.7281 55.7521 54.1307 55.7521 54.8555C55.7521 55.7413 54.9397 56.305 53.8836 56.305C53.2337 56.305 52.665 56.144 52.2588 55.8218V54.8555ZM57.3713 53.8086C57.3713 54.9342 58.1012 55.4972 58.9961 55.4972C59.5641 55.4972 59.9697 55.3362 60.3853 55.0147V55.7382C59.9697 56.0603 59.4829 56.1402 58.9155 56.1402C57.5363 56.1402 56.5626 55.1758 56.5626 53.6476C56.5626 52.1194 57.455 51.0744 58.7536 51.0744C60.0522 51.0744 60.7815 52.0395 60.7602 53.4865V53.7783H57.3719L57.3713 53.8086ZM57.3713 53.1588H59.886C59.886 52.4353 59.4804 51.7917 58.6693 51.7917C58.1012 51.7917 57.5338 52.2742 57.3713 53.1588ZM66.4589 51.1549C66.9457 51.1549 67.4325 51.2348 67.7568 51.5569V52.3622C67.4325 52.0407 66.9444 51.8797 66.4589 51.8797C65.5665 51.8797 64.8341 52.5233 64.8341 53.6488C64.8341 54.7743 65.5646 55.418 66.4589 55.418C66.9457 55.418 67.3512 55.2569 67.7568 54.9354V55.7407C67.4325 56.0622 66.9444 56.1427 66.4589 56.1427C65.1609 56.1427 64.106 55.1776 64.106 53.5695C64.106 52.1194 65.1609 51.1549 66.4589 51.1549ZM70.7564 56.2208C69.3772 56.2208 68.4848 55.1751 68.4848 53.6476C68.4848 52.12 69.3772 51.0744 70.7564 51.0744C72.1356 51.0744 73.0274 52.12 73.0274 53.6476C73.0274 55.1751 72.0544 56.2208 70.7564 56.2208ZM70.7564 51.8784C69.864 51.8784 69.3772 52.6019 69.3772 53.7281C69.3772 54.7737 69.9453 55.5778 70.7564 55.5778C71.6488 55.5778 72.1356 54.8536 72.1356 53.7281C72.1356 52.6026 71.6494 51.8784 70.7564 51.8784ZM79.0928 51.1586C80.0633 51.1586 80.6295 51.8803 80.6295 52.9234V56.1322H79.8171V53.004C79.8421 52.361 79.5178 51.8784 78.9497 51.8784C78.4629 51.8784 78.0574 52.1999 77.8799 52.763V56.1941H77.0675V53.0579C77.0675 52.4142 76.7444 51.9323 76.1795 51.9323C75.6952 51.9323 75.2915 52.2538 75.1302 52.8169V56.1322H74.3178V51.2385H75.1302V51.7997C75.3727 51.399 75.8583 51.158 76.4244 51.158C77.0712 51.158 77.5562 51.4789 77.7186 51.9602C77.8805 51.4789 78.3654 51.158 79.0935 51.158L79.0928 51.1586ZM82.8174 57.9905H82.005V51.2385H82.8174V51.801C83.0611 51.4795 83.6297 51.158 84.1984 51.158C85.6607 51.158 86.3925 52.3641 86.3925 53.73C86.3925 55.0958 85.6614 56.3025 84.1984 56.3025C83.5491 56.3025 83.0611 55.981 82.8174 55.6595V57.9905ZM82.8174 54.6127C82.9358 54.854 83.1203 55.0575 83.3498 55.1999C83.5793 55.3423 83.8446 55.4178 84.1153 55.418C85.0889 55.418 85.5757 54.6944 85.5757 53.6488C85.5757 52.6032 85.0077 51.8797 84.1153 51.8797C83.6285 51.8797 83.1417 52.2012 82.8174 52.6849V54.6152V54.6127ZM90.3164 52.8528C90.3164 52.1968 89.8202 51.8691 89.159 51.8691C88.5804 51.8691 88.1667 52.0333 87.7536 52.2792V51.4863C88.081 51.2453 88.6541 51.0843 89.3084 51.0843C90.4539 51.0843 91.1906 51.7279 91.1906 52.7735V56.0702H90.3783V55.6577C90.2258 55.8187 89.6583 56.1402 89.0903 56.1402C88.1167 56.1402 87.2243 55.5778 87.2243 54.6127C87.2243 53.7281 88.0367 53.0845 89.0903 53.0845C89.5771 53.0845 90.3158 53.4865 90.3158 53.4865V52.8522L90.3164 52.8528ZM90.3164 54.3711C90.1539 53.9691 89.6677 53.7281 89.1809 53.7281C88.6128 53.7281 88.0448 53.9691 88.0448 54.6127C88.0448 55.1751 88.6128 55.4972 89.1809 55.4972C89.6677 55.4972 90.1545 55.2557 90.3164 54.8536V54.3711ZM92.5036 51.2385H93.316V51.8803C93.6428 51.4795 94.1334 51.1586 94.787 51.1586C95.9306 51.1586 96.5031 51.8803 96.5031 52.9234V56.1322H95.6282V53.0764C95.6282 52.4328 95.307 51.9503 94.584 51.9503C94.0215 51.9503 93.5391 52.3523 93.3785 52.8349V56.1322H92.5661V51.1766H92.5036V51.2385ZM98.3403 57.9905L99.0702 56.1415L97.1242 51.2385H98.016L99.4758 55.0971L100.935 51.2385H101.827L99.1515 57.9905H98.3403Z" fill="#212529"/>
<path d="M68.0693 18.4694C68.0693 24.9179 62.8868 30.1578 56.5708 30.1578C50.2547 30.1578 45.0723 24.9179 45.0723 18.4694V8.54517C45.0723 8.54517 50.5715 9.90796 50.5715 15.68V18.439C50.5715 21.9773 53.2468 24.7921 56.5708 24.7921C59.8947 24.7921 62.57 21.9773 62.57 18.439V12.8101C62.8131 7.98519 66.9444 6.45763 68.0018 5.89454H68.0693V18.4694ZM38.4606 6.8454C40.0017 6.8454 41.4602 7.08699 42.7601 7.65069V13.7616C41.624 12.7965 40.0823 12.2334 38.4594 12.2334C34.808 12.2328 31.8865 15.0482 31.8865 18.5871V30.1151H26.3872V9.01719C26.3872 9.01719 28.6588 9.0971 30.1192 10.1427C32.2283 8.05209 35.2298 6.84602 38.475 6.84602M12.0222 24.859C8.37141 24.859 5.36993 21.9637 5.36993 18.4254C5.36993 14.8871 8.36954 11.9924 12.0222 11.9924C15.6748 11.9924 18.6744 14.8871 18.6744 18.4254C18.6744 21.9637 15.6748 24.859 12.0222 24.859ZM12.0059 6.84602C5.35368 6.84602 0 12.0729 0 18.4254C0 24.859 5.3543 30.0054 12.0059 30.0054C14.7643 30.0054 17.279 29.1208 19.3075 27.5896C20.5242 29.6003 24.0125 30.0054 24.0125 30.0054V18.4254C24.0125 12.0729 18.6582 6.84602 12.0059 6.84602ZM107.993 24.859C104.343 24.859 101.341 21.9637 101.341 18.4254C101.341 14.8871 104.341 11.9924 107.993 11.9924C111.646 11.9924 114.646 14.8871 114.646 18.4254C114.646 21.9637 111.646 24.859 107.993 24.859ZM107.993 6.84602C101.341 6.84602 95.9875 12.0729 95.9875 18.4254C95.9875 24.859 101.342 30.0054 107.993 30.0054C110.752 30.0054 113.267 29.1208 115.295 27.5896C116.512 29.6003 120 30.0054 120 30.0054V18.4254C120 12.0729 114.646 6.84602 107.993 6.84602ZM82.5199 24.859C78.8697 24.859 75.8676 21.9637 75.8676 18.4254C75.8676 14.8871 78.8672 11.9924 82.5199 11.9924C86.1725 11.9924 89.1728 14.8871 89.1728 18.4254C89.254 21.9637 86.2519 24.859 82.5199 24.859ZM82.558 6.84478C80.1152 6.84478 77.8355 7.56892 75.8807 8.77499V6.92531C75.6364 2.10041 71.6463 0.572846 70.5877 0.00976562H70.5064V30.0853C70.5064 30.0853 74.0891 29.6833 75.4733 27.7531C77.5093 29.1202 79.9521 30.0048 82.558 30.0048C89.2353 30.0048 94.6089 24.7779 94.6089 18.4248C94.6908 12.0723 89.2346 6.84478 82.558 6.84478Z" fill="#212529"/>
</g>
<defs>
<clipPath id="clip0_190_7187">
<rect width="120" height="58" fill="white"/>
</clipPath>
</defs>
</svg>
