<svg width="200" height="41" viewBox="0 0 200 41" fill="none" xmlns="http://www.w3.org/2000/svg">
<g clip-path="url(#clip0_178_2722)">
<path d="M80.5061 0.00390625H40.2534V41.0039H80.5061V0.00390625Z" fill="#212529"/>
<path d="M73.3753 3.13594C80.5052 5.05101 81.137 15.1487 72.6533 13.93C72.1117 15.9321 73.4655 17.7601 74.6388 19.6752C78.4294 25.6816 74.7291 33.3419 69.1334 37.085C71.5702 34.0383 77.2561 27.2485 72.2922 20.0234C70.9385 18.1083 67.1478 12.7113 72.6533 13.1466C77.9782 13.4947 78.3392 7.31428 72.563 5.83445C67.3284 4.52872 64.0792 9.05526 63.8085 14.1911C62.8157 13.3207 61.7327 12.4502 60.1984 12.4502C60.4691 6.35674 67.3284 1.56906 73.3753 3.13594ZM47.7435 11.1444C49.0973 10.8833 50.5413 10.8833 51.8049 11.4926C52.5269 11.7538 52.9782 12.2761 53.4294 12.8854C54.1515 14.1041 53.971 14.9746 55.6858 14.4523C57.4908 13.8429 60.9204 13.6688 62.545 15.8451C59.2959 14.8005 57.3103 15.2357 56.0468 15.9321C54.6027 16.7156 53.3392 16.5415 52.5269 15.0616C51.6244 13.4947 50.8121 12.6243 48.5558 12.8854C44.6749 13.3207 43.3211 15.8451 42.8699 18.7177C42.6894 19.9364 44.4944 20.6328 49.0973 20.5457C47.0215 21.5903 43.9529 21.4162 41.7868 20.3716C41.2453 20.1105 41.2453 19.5011 41.4258 18.5436C42.1478 15.3228 44.2237 11.9279 47.7435 11.1444ZM56.4078 35.6052C52.3464 33.516 51.9854 25.9427 58.7543 25.5075C53.4294 27.5967 55.1442 33.1678 58.7543 34.7347C59.4764 35.0829 60.7399 36.0404 60.7399 37.5202H49.7291C49.8193 34.1253 54.7832 35.6052 56.4078 35.6052ZM45.3067 22.5478C45.6677 22.6349 46.0287 22.809 46.3897 22.9831C48.5558 24.637 47.7435 28.0319 53.5197 27.7708C47.7435 30.2952 47.8338 25.9427 45.2164 24.8111C45.0359 24.7241 44.9457 24.637 44.7652 24.637C44.6749 24.637 44.4944 24.55 44.3139 24.637C43.5016 24.7241 42.6894 25.1593 42.1478 24.2888C41.5161 23.0701 42.9601 22.4608 44.1334 22.4608C44.5847 22.4608 44.9457 22.4608 45.3067 22.5478ZM49.5486 7.40133C50.4511 7.22723 51.2634 8.88116 51.2634 9.92575C51.2634 10.448 51.2634 10.6221 50.7219 10.6221C49.9096 10.5351 49.4583 10.5351 49.0071 10.5351C48.5558 10.5351 48.5558 10.2739 48.4655 9.75165C48.4655 8.79411 48.9168 7.48838 49.5486 7.40133ZM45.758 17.3249C46.5702 17.1508 48.0143 15.4969 46.7507 15.0616C46.0287 14.8005 45.3067 15.4098 44.9457 16.0192C44.3139 17.0638 44.6749 17.6731 45.758 17.3249ZM48.4655 7.92362C47.3825 7.22723 46.7507 9.22936 46.841 10.0128C46.841 10.448 47.0215 10.7962 47.4728 10.7092C47.6533 10.6221 48.0143 10.6221 48.1948 10.5351C47.8338 9.92575 47.924 8.70706 48.4655 7.92362Z" fill="white"/>
<path d="M7.31059 3.13594C0.180625 5.05101 -0.451144 15.1487 8.03261 13.93C8.57413 15.9321 7.22034 17.7601 6.04705 19.6752C2.25644 25.6816 5.9568 33.3419 11.5525 37.085C9.11564 34.0383 3.42972 27.2485 8.39362 20.0234C9.74741 18.1083 13.6283 12.7113 8.03261 13.1466C2.61745 13.4947 2.34669 7.31428 8.12286 5.83445C13.3575 4.52872 16.6066 9.05526 16.9676 14.1911C17.9604 13.3207 19.0434 12.4502 20.5777 12.4502C20.3972 6.35674 13.4478 1.56906 7.31059 3.13594ZM33.1229 11.1444C31.7691 10.8833 30.325 10.8833 29.0615 11.4926C28.3395 11.7538 27.8882 12.2761 27.4369 12.8854C26.7149 14.1041 26.8954 14.9746 25.1806 14.4523C23.3756 13.8429 19.8557 13.6688 18.3214 15.8451C21.5705 14.8005 23.5561 15.2357 24.8196 15.9321C26.2637 16.7156 27.5272 16.5415 28.3395 15.0616C29.242 13.4947 30.0543 12.6243 32.3106 12.8854C36.1915 13.3207 37.5452 15.8451 37.9965 18.7177C38.177 19.9364 36.372 20.6328 31.7691 20.5457C33.8449 21.5903 36.9135 21.4162 39.0795 20.3716C39.6211 20.1105 39.6211 19.5011 39.4406 18.5436C38.7185 15.3228 36.733 11.9279 33.1229 11.1444ZM24.3683 35.6052C28.4297 33.516 28.881 25.9427 21.9315 25.5075C27.3467 27.5967 25.6319 33.1678 21.9315 34.7347C21.2095 35.0829 19.946 36.0404 19.946 37.5202H31.1373C31.047 34.1253 26.0832 35.6052 24.3683 35.6052ZM35.6499 22.5478C35.2889 22.6349 34.9279 22.809 34.5669 22.9831C32.4008 24.637 33.2131 28.0319 27.3467 27.7708C33.1229 30.2952 33.0326 25.9427 35.7402 24.8111C35.9207 24.7241 36.0109 24.637 36.1915 24.637C36.2817 24.637 36.4622 24.55 36.6427 24.637C37.455 24.7241 38.2673 25.1593 38.8088 24.2888C39.4405 23.0701 37.9965 22.4608 36.8232 22.4608C36.372 22.4608 36.0109 22.4608 35.6499 22.5478ZM31.3178 7.40133C30.4153 7.22723 29.603 8.88116 29.603 9.92575C29.603 10.448 29.603 10.6221 30.1445 10.6221C30.9568 10.5351 31.4081 10.5351 31.8593 10.5351C32.3106 10.5351 32.3106 10.2739 32.4008 9.75165C32.4008 8.79411 31.9496 7.48838 31.3178 7.40133ZM35.1084 17.3249C34.2961 17.1508 32.8521 15.4969 34.1156 15.0616C34.8377 14.8005 35.5597 15.4098 35.9207 16.0192C36.5525 17.0638 36.2817 17.6731 35.1084 17.3249ZM32.4008 7.92362C33.4839 7.22723 34.1156 9.22936 34.0254 10.0128C34.0254 10.448 33.7546 10.7962 33.3936 10.7092C33.2131 10.6221 32.8521 10.6221 32.6716 10.5351C33.0326 9.92575 32.9424 8.70706 32.4008 7.92362Z" fill="#212529"/>
<path d="M98.6461 10.5393C98.6461 11.3227 98.4656 11.9321 98.0143 12.3673C97.4728 12.9767 96.48 13.2378 95.2165 13.2378H90.4331V4.70703H97.7436V7.1444H93.953V7.92784H95.1263C96.3898 7.92784 97.3826 8.18899 97.9241 8.79833C98.3753 9.23357 98.6461 9.84291 98.6461 10.5393ZM95.1263 10.5393C95.1263 10.3652 95.036 10.1911 94.9457 10.1041C94.7652 10.017 94.5847 9.92996 94.2237 9.92996H93.8627V11.2357H94.2237C94.4945 11.2357 94.675 11.2357 94.7652 11.1486C95.036 11.0616 95.1263 10.8005 95.1263 10.5393Z" fill="#212529"/>
<path d="M108.575 13.2359H104.964L104.603 12.0172H102.347L101.986 13.2359H98.376L101.535 4.70508H105.416L108.575 13.2359ZM104.152 9.92801L103.52 7.75179L102.889 9.92801H104.152Z" fill="#212529"/>
<path d="M117.69 13.2359H114.17V10.1892H112.365V13.2359H108.845V4.70508H112.365V7.66474H114.17V4.70508H117.69V13.2359Z" fill="#212529"/>
<path d="M128.34 13.2359H124.278L122.383 10.0151V13.2359H118.863V4.70508H122.383V7.83884L124.369 4.70508H128.25L125.181 8.79637L128.34 13.2359Z" fill="#212529"/>
<path d="M93.953 24.2906H90.4331V15.7598H93.953V24.2906Z" fill="#212529"/>
<path d="M103.971 24.2906H100.361V21.1568H98.6463V24.2906H95.1265V15.7598H98.6463V18.7194H100.361V15.7598H103.971V24.2906Z" fill="#212529"/>
<path d="M113.267 21.9402C113.267 22.5496 113.087 23.0719 112.726 23.4201C112.184 24.0294 111.372 24.2906 110.289 24.2906H105.054V15.7598H110.018C111.101 15.7598 111.913 16.0209 112.365 16.6303C112.635 16.9784 112.816 17.4137 112.816 17.936C112.816 18.3712 112.635 18.8065 112.365 19.0676C112.094 19.3288 111.733 19.5899 111.282 19.677C111.823 19.764 112.365 20.0252 112.726 20.4604C113.087 20.8956 113.267 21.3309 113.267 21.9402ZM109.747 18.3712C109.747 18.1971 109.657 18.1101 109.567 17.936C109.477 17.8489 109.206 17.7619 108.935 17.7619H108.574V18.9806H108.935C109.206 18.9806 109.386 18.8935 109.567 18.8065C109.657 18.7194 109.747 18.5453 109.747 18.3712ZM109.928 21.592C109.928 21.4179 109.838 21.2438 109.747 21.1568C109.657 21.0697 109.386 20.9827 109.025 20.9827H108.574V22.2884H109.025C109.296 22.2884 109.477 22.2884 109.567 22.2014C109.838 22.0273 109.928 21.8532 109.928 21.592Z" fill="#212529"/>
<path d="M120.217 24.2906H113.989V15.7598H120.217V18.1971H117.509V18.9806H119.946V20.9827H117.509V21.8532H120.217V24.2906Z" fill="#212529"/>
<path d="M127.979 24.0308C127.708 24.2049 127.347 24.2919 126.896 24.379C126.535 24.466 126.084 24.5531 125.542 24.5531C124.098 24.5531 122.925 24.1178 122.022 23.3344C121.12 22.4639 120.668 21.4193 120.668 20.0265C120.668 18.5467 121.21 17.4151 122.293 16.6316C123.196 15.9352 124.279 15.5 125.542 15.5C125.993 15.5 126.354 15.587 126.806 15.6741C127.257 15.7611 127.618 15.9352 127.979 16.1964V19.1561C127.708 18.8079 127.437 18.6338 127.076 18.4597C126.715 18.2856 126.354 18.1985 125.993 18.1985C125.362 18.1985 124.91 18.3726 124.549 18.7208C124.188 19.069 124.008 19.5042 124.008 20.1136C124.008 20.6359 124.188 21.0711 124.549 21.3323C124.91 21.5934 125.362 21.7675 125.903 21.7675C126.264 21.7675 126.625 21.6805 126.986 21.5934C127.347 21.4193 127.618 21.2452 127.889 20.9841L127.979 24.0308Z" fill="#212529"/>
<path d="M135.288 18.1971H133.393L133.483 24.2906H129.873V18.1971H128.068V15.7598H135.288V18.1971Z" fill="#212529"/>
<path d="M144.766 24.2906H141.427V20.1993L138.9 24.2906H135.741V15.7598H139.08V20.0252L141.607 15.7598H144.766V24.2906Z" fill="#212529"/>
<path d="M156.047 26.0315H153.068V24.2906H145.938L145.848 15.7598H149.458V21.8532H151.444V15.7598H154.964V21.8532H156.047V26.0315Z" fill="#212529"/>
<path d="M160.018 24.2906H156.499V15.7598H160.018V24.2906Z" fill="#212529"/>
<path d="M168.412 13.4953C168.321 14.1046 168.051 14.5398 167.599 14.888C167.148 15.2362 166.516 15.3233 165.794 15.3233C165.072 15.3233 164.44 15.1492 163.989 14.888C163.538 14.5398 163.267 14.1046 163.087 13.4953H164.982C164.982 13.7564 165.072 14.0175 165.163 14.1046C165.343 14.2787 165.524 14.2787 165.794 14.2787C166.065 14.2787 166.246 14.1916 166.336 14.0175C166.516 13.8434 166.516 13.6693 166.516 13.4082L168.412 13.4953ZM170.217 24.2893H166.877V20.198L164.44 24.2893H161.191V15.7585H164.531V20.0239L166.968 15.7585H170.126L170.217 24.2893Z" fill="#212529"/>
<path d="M180.415 20.547H179.061V24.3772H176.263V20.547H174.819V18.5449H180.415V20.547Z" fill="#212529"/>
<path d="M187.996 24.3775H185.289V23.7681C185.108 24.0293 184.838 24.2034 184.567 24.3775C184.206 24.5516 183.754 24.6386 183.303 24.6386C182.581 24.6386 181.949 24.3775 181.408 23.8552C180.866 23.2458 180.505 22.4624 180.505 21.5049C180.505 20.5473 180.776 19.8509 181.318 19.2416C181.859 18.6322 182.491 18.3711 183.303 18.3711C183.754 18.3711 184.206 18.4581 184.567 18.6322C184.838 18.8063 185.108 18.9804 185.289 19.2416V18.6322H187.996V24.3775ZM185.289 21.4178C185.289 21.0696 185.199 20.8085 185.018 20.5473C184.838 20.3732 184.567 20.1991 184.206 20.1991C183.935 20.1991 183.664 20.2862 183.484 20.5473C183.303 20.7214 183.213 21.0696 183.213 21.4178C183.213 21.766 183.303 22.0271 183.484 22.2883C183.664 22.4624 183.935 22.6365 184.296 22.6365C184.567 22.6365 184.838 22.5494 185.018 22.2883C185.199 22.1142 185.289 21.853 185.289 21.4178Z" fill="#212529"/>
<path d="M97.3828 32.9963C97.3828 33.7797 97.0217 34.3891 96.2997 34.9114C95.5777 35.4337 94.6752 35.6078 93.5019 35.6078C92.6896 35.6078 92.0578 35.5207 91.5163 35.3466C90.9748 35.1725 90.343 34.9114 89.5308 34.4761L90.7943 32.5611C91.0651 32.7352 91.3358 32.9093 91.6968 33.0834C92.0578 33.2574 92.4188 33.3445 92.6896 33.3445C92.9604 33.3445 93.2311 33.2574 93.4116 33.1704C93.5921 33.0833 93.6824 32.9093 93.6824 32.6481C93.6824 32.474 93.5921 32.2999 93.5019 32.2129C93.3214 32.1258 93.0506 32.0388 92.6896 32.0388H91.3358V29.9496H92.5994C92.9604 29.9496 93.2311 29.9496 93.4116 29.8625C93.5921 29.7755 93.6824 29.6014 93.6824 29.3403C93.6824 29.1662 93.5921 28.9921 93.5019 28.905C93.3214 28.818 93.0506 28.7309 92.6896 28.7309C92.3286 28.7309 92.0578 28.818 91.6968 28.905C91.3358 28.9921 91.0651 29.1662 90.704 29.3403L89.7113 27.3381C90.7943 26.8158 92.0578 26.5547 93.3214 26.5547C94.4947 26.5547 95.3972 26.8158 96.1192 27.2511C96.8412 27.6863 97.112 28.2957 97.112 28.9921C97.112 29.4273 96.9315 29.8625 96.6607 30.2107C96.39 30.5589 96.029 30.8201 95.5777 30.9071C96.029 31.0812 96.2997 31.2553 96.5705 31.4294C97.112 31.8647 97.3828 32.387 97.3828 32.9963Z" fill="#212529"/>
<path d="M107.31 35.3452H103.7L103.339 34.1266H101.173L100.812 35.3452H97.2021L100.361 26.8145H104.242L107.31 35.3452ZM102.888 31.9503L102.256 29.7741L101.625 31.9503H102.888Z" fill="#212529"/>
<path d="M117.419 31.0812C117.419 32.2999 116.967 33.3445 116.155 34.215C115.253 35.1725 113.899 35.6078 112.274 35.6078C110.65 35.6078 109.386 35.1725 108.393 34.215C107.581 33.3445 107.13 32.2999 107.13 31.0812C107.13 29.8625 107.581 28.818 108.393 27.9475C109.296 26.9899 110.65 26.5547 112.274 26.5547C113.899 26.5547 115.162 26.9899 116.155 27.9475C117.058 28.7309 117.419 29.7755 117.419 31.0812ZM114.079 31.0812C114.079 30.4719 113.899 30.0366 113.538 29.7755C113.177 29.4273 112.816 29.3403 112.274 29.3403C111.823 29.3403 111.372 29.5143 111.101 29.7755C110.74 30.1237 110.559 30.5589 110.559 31.1683C110.559 31.7776 110.74 32.2129 111.101 32.474C111.462 32.7352 111.823 32.9093 112.274 32.9093C112.726 32.9093 113.177 32.7352 113.448 32.474C113.899 32.1258 114.079 31.6035 114.079 31.0812Z" fill="#212529"/>
<path d="M132.22 36.9992H129.152V35.3452H118.231V26.8145H121.57V32.8208H123.014V26.8145H126.354V32.8208H127.798V26.8145H131.137V32.8208H132.22V36.9992Z" fill="#212529"/>
<path d="M141.877 35.3452H138.267L137.906 34.1266H135.649L135.288 35.3452H131.678L134.837 26.8145H138.718L141.877 35.3452ZM137.454 31.9503L136.823 29.7741L136.191 31.9503H137.454Z" fill="#212529"/>
<path d="M151.986 37.0003H149.008V35.2593H144.405V37.0003H141.336V32.8219C142.058 32.8219 142.6 32.4737 142.871 31.7773C143.051 31.3421 143.141 30.8198 143.141 30.0364V26.7285H150.903V32.8219H151.986V37.0003ZM147.383 32.8219V29.2529H146.3V30.4716C146.3 31.081 146.21 31.6033 146.12 31.9514C146.03 32.2996 145.759 32.6478 145.488 32.8219H147.383Z" fill="#212529"/>
<path d="M166.606 35.3452H162.455L160.65 32.1244V35.3452H157.491V32.1244L155.596 35.3452H151.534L154.693 30.9057L151.715 26.8145H155.686L157.491 29.8612L157.401 26.8145H160.65V29.8612L162.365 26.8145H166.336L163.357 30.9057L166.606 35.3452Z" fill="#212529"/>
<path d="M173.015 35.3452H166.787V26.8145H173.015V29.2518H170.397V29.9482H172.744V32.0374H170.397V32.8208H173.015V35.3452Z" fill="#212529"/>
<path d="M182.762 35.3452H179.152V32.2115H177.437V35.3452H173.917V26.8145H177.437V29.7741H179.152V26.8145H182.762V35.3452Z" fill="#212529"/>
<path d="M191.878 32.6467C191.878 33.4302 191.698 34.0395 191.246 34.4748C190.705 35.0841 189.712 35.3452 188.449 35.3452H183.846V26.8145H187.366V29.9482H188.358C189.712 29.9482 190.615 30.2094 191.246 30.8187C191.698 31.2539 191.878 31.8633 191.878 32.6467ZM188.629 32.6467C188.629 32.4726 188.539 32.2985 188.449 32.2115C188.358 32.1244 188.088 32.0374 187.817 32.0374H187.366V33.3431H187.817C188.088 33.3431 188.358 33.2561 188.449 33.169C188.629 32.9949 188.629 32.8208 188.629 32.6467Z" fill="#212529"/>
</g>
<defs>
<clipPath id="clip0_178_2722">
<rect width="200" height="41" fill="white"/>
</clipPath>
</defs>
</svg>
