<svg width="140" height="140" viewBox="0 0 140 140" fill="none" xmlns="http://www.w3.org/2000/svg">
<g clip-path="url(#clip0_190_7263)">
<path fill-rule="evenodd" clip-rule="evenodd" d="M41.7844 55.5453V63.1011H48.3764V84.4676H57.0042V63.1011H63.5969V55.5453H41.7844ZM82.2143 72.9433C85.5306 71.8153 87.6137 68.7329 87.6137 64.7578C87.6137 62.0646 86.8053 59.8908 85.2089 58.2958C83.4098 56.4968 80.6811 55.546 77.3146 55.546H65.9414V84.4683H74.6149V75.8267L80.1276 84.4668H91.0534L82.2143 72.9433ZM74.6149 62.6021C75.7327 62.6094 77.2391 62.7227 78.0184 63.5013C78.4114 63.8949 78.6031 64.4469 78.6031 65.1914C78.6031 67.0035 77.4396 67.7552 74.6157 67.7785L74.6149 62.6021ZM101.019 84.4676V55.5322H92.424V84.4676H101.019ZM124.167 68.8578L133.739 55.5642H123.099L119.126 61.6899L115.696 55.5642H105.084L113.972 68.8098L102.39 84.4676H112.886L118.994 75.9473L123.822 84.4676H134.218L124.167 68.8578ZM30.7656 55.5322V84.4676H39.4399V55.5322H30.7656Z" fill="black"/>
<path fill-rule="evenodd" clip-rule="evenodd" d="M35.1024 53.7751C36.5454 53.7751 37.9292 53.2019 38.9496 52.1815C39.9699 51.1612 40.5431 49.7773 40.5431 48.3343C40.5431 46.8913 39.9699 45.5075 38.9496 44.4871C37.9292 43.4668 36.5454 42.8936 35.1024 42.8936C33.6594 42.8936 32.2755 43.4668 31.2552 44.4871C30.2348 45.5075 29.6616 46.8913 29.6616 48.3343C29.6616 49.7773 30.2348 51.1612 31.2552 52.1815C32.2755 53.2019 33.6594 53.7751 35.1024 53.7751ZM96.7607 97.1073C98.2035 97.1073 99.5872 96.5341 100.607 95.5139C101.628 94.4937 102.201 93.11 102.201 91.6672C102.201 90.2245 101.628 88.8408 100.607 87.8206C99.5872 86.8004 98.2035 86.2272 96.7607 86.2272C95.318 86.2272 93.9343 86.8004 92.9141 87.8206C91.8939 88.8408 91.3207 90.2245 91.3207 91.6672C91.3207 93.11 91.8939 94.4937 92.9141 95.5139C93.9343 96.5341 95.318 97.1073 96.7607 97.1073Z" fill="#CC2131"/>
<path fill-rule="evenodd" clip-rule="evenodd" d="M23.5691 73.0988C22.2828 75.2283 19.7589 76.5982 17.2067 76.5982C13.5621 76.5982 10.8922 73.645 10.8922 69.9997C10.8922 66.3551 13.5621 63.4012 17.2067 63.4012C19.7597 63.4012 22.2836 64.7724 23.5691 66.902L28.1289 59.5227C25.3726 56.6494 21.5021 54.8525 17.206 54.8525C8.84036 54.8525 2.05811 61.6341 2.05811 69.9997C2.05811 78.366 8.84036 85.1475 17.206 85.1475C21.5021 85.1475 25.3718 83.3499 28.1289 80.4774L23.5691 73.0988ZM135.614 56.6959C135.614 56.3871 135.736 56.091 135.955 55.8726C136.173 55.6543 136.469 55.5316 136.778 55.5316C137.087 55.5316 137.383 55.6543 137.601 55.8726C137.819 56.091 137.942 56.3871 137.942 56.6959C137.931 56.9976 137.804 57.2833 137.587 57.493C137.37 57.7026 137.08 57.8198 136.778 57.8198C136.476 57.8198 136.186 57.7026 135.969 57.493C135.752 57.2833 135.624 56.9976 135.614 56.6959ZM136.778 57.7033C136.91 57.7032 137.041 57.677 137.164 57.6263C137.286 57.5755 137.397 57.5012 137.491 57.4075C137.584 57.3138 137.658 57.2026 137.709 57.0803C137.759 56.9579 137.785 56.8268 137.785 56.6944C137.785 56.5621 137.759 56.431 137.708 56.3087C137.658 56.1864 137.583 56.0754 137.489 55.9818C137.396 55.8883 137.285 55.8141 137.162 55.7635C137.04 55.713 136.909 55.687 136.776 55.6871C136.509 55.6873 136.253 55.7937 136.064 55.9828C135.875 56.172 135.769 56.4285 135.769 56.6959C135.769 56.9633 135.876 57.2196 136.065 57.4085C136.254 57.5975 136.511 57.7035 136.778 57.7033ZM136.989 56.7329C137.137 56.7104 137.302 56.6385 137.302 56.4185C137.302 56.1134 137.028 56.0488 136.752 56.0488H136.322V57.3278H136.531V56.823H136.752C136.985 56.823 137.074 56.8964 137.074 57.1666C137.074 57.2385 137.079 57.2813 137.091 57.3278H137.301C137.284 57.298 137.277 57.205 137.277 57.1157C137.278 56.8876 137.18 56.7736 136.989 56.7329ZM136.531 56.6698V56.2027H136.752C136.957 56.2027 137.076 56.2746 137.076 56.4185C137.076 56.5877 136.964 56.6698 136.752 56.6698H136.531Z" fill="black"/>
</g>
<defs>
<clipPath id="clip0_190_7263">
<rect width="140" height="140" fill="white"/>
</clipPath>
</defs>
</svg>
