<svg width="140" height="28" viewBox="0 0 140 28" fill="none" xmlns="http://www.w3.org/2000/svg">
<path d="M16.0605 21.3359L16.3932 21.3017L16.7431 21.25L17.5654 21.1467L18.475 20.957L19.4022 20.7506L20.3122 20.4923L21.257 20.2166L22.2015 19.8896L22.9191 19.6655L23.2165 19.528L23.4965 19.3558L23.7412 19.1319L23.9686 18.8909L24.1438 18.5981L28.6752 9.23034L35.9357 27.0358L36.0234 27.2426L36.1458 27.4318L36.3033 27.6043L36.478 27.742L36.6882 27.8626L36.8979 27.9312L37.1254 27.9831H37.3528L43.5288 28.0003L32.2268 4.15039H25.5432L16.0605 21.3359Z" fill="#29756E"/>
<path d="M47.7283 5.57848V1.27344L36.6885 7.19718L36.5833 7.24884L36.3558 7.3347L36.1111 7.40382H35.8837L35.6912 7.36938L35.481 7.3005L35.3063 7.23162L35.2363 7.19718L35.3236 7.4727L35.4988 8.02375L35.7262 8.59201L36.0236 9.16028L36.3735 9.67688L36.7407 10.1074L37.0906 10.4174L37.4056 10.5896L37.703 10.6584H38.0006L38.2803 10.624L38.4905 10.5551L38.6652 10.4862L38.7352 10.4346L47.7283 5.57848Z" fill="#B01E24"/>
<path d="M69.8599 20.3542H69.7374L69.6325 20.3715L69.5277 20.3887L69.4578 20.4234L69.3703 20.4745L69.3003 20.5264L69.2303 20.5951L69.1778 20.6812L68.338 22.076H72.1343V24.5387L71.8369 24.6246L71.5745 24.6937L71.3295 24.7452L71.0671 24.7971L70.8224 24.8487L70.4898 24.8829L70.2273 24.9176L70.0001 24.9348H69.2476L68.9854 24.9001L68.618 24.8657L68.3903 24.8315L68.1628 24.7796L67.9354 24.7284L67.7079 24.6593L67.4982 24.5732L67.2358 24.4354L67.0259 24.3149L66.8509 24.1771L66.6757 24.0394L66.501 23.8841L66.3435 23.7292L66.1861 23.5572L66.0633 23.3675L65.9059 23.1092L65.8011 22.9028L65.7134 22.679L65.6434 22.4549L65.591 22.231L65.5387 21.9899L65.5037 21.7663L65.486 21.5252V20.8362L65.521 20.6125L65.5737 20.4059L65.6434 20.1818L65.7134 19.9754L65.8011 19.7688L65.9059 19.5619L65.9936 19.4413L66.1333 19.2522L66.2908 19.0797L66.4485 18.9075L66.6234 18.7528L66.7984 18.615L67.0433 18.46L67.253 18.3395L67.4805 18.2189L67.7257 18.1328L67.9531 18.0465L68.2853 17.9606L68.5477 17.9087L68.8104 17.8745L69.0551 17.8401L69.3175 17.8229L69.58 17.8054L69.8427 17.7882H70.0874L70.3498 17.8054L70.6122 17.8229L70.8747 17.8573L71.1371 17.892L71.3995 17.926L71.662 17.9779L71.9244 18.0123L72.1868 18.0637L72.4493 18.1328L72.7117 18.1843L72.9741 18.2534L73.2191 18.322L73.4815 18.3911L73.604 18.4253V16.6345L73.3066 16.5483L73.0616 16.4625L72.7992 16.3934L72.5367 16.3419L72.2918 16.29L72.0294 16.2386L71.7669 16.187L71.2946 16.1183L71.0321 16.0836L70.7697 16.0492L70.5072 16.0317L70.2448 16.0145L70.0001 15.9973H68.6702L68.408 16.0145L68.1456 16.0317L67.8831 16.0664L67.638 16.1009L67.393 16.1351L67.1306 16.2042L66.8859 16.2728L66.5532 16.3592L66.3085 16.428L66.0811 16.5139L65.8361 16.6175L65.6262 16.7208L65.3985 16.8241L65.1888 16.9619L64.9786 17.0824L64.7339 17.2549L64.5415 17.4094L64.349 17.5643L64.1738 17.7368L63.9991 17.926L63.8239 18.0984L63.6842 18.2876L63.5442 18.4945L63.404 18.7009L63.2818 18.9075L63.1243 19.2003L63.0368 19.4074L62.9491 19.6482L62.8619 19.8721L62.8094 20.1132L62.7394 20.3542L62.7044 20.5951L62.6694 20.8362L62.6519 21.1464V21.6285L62.6867 21.8694L62.7217 22.1279L62.7567 22.3688L62.8266 22.6099L62.8791 22.8509L62.9668 23.075L63.0543 23.2989L63.1766 23.5572L63.2818 23.7811L63.404 23.9875L63.5265 24.1943L63.6667 24.4007L63.8239 24.5904L63.9641 24.7796L64.1388 24.952L64.349 25.1412L64.5587 25.2964L64.7689 25.4342L64.9963 25.572L65.2238 25.6925L65.451 25.813L65.6787 25.9336L65.9236 26.0194L66.1511 26.1228L66.3958 26.2091L66.6757 26.295L66.9381 26.3469L67.2006 26.3983L67.4632 26.433L67.7257 26.4674L67.9881 26.5021L68.268 26.5188L68.5127 26.5533L68.7929 26.5707H69.0551L69.51 26.5879L69.7724 26.5707H70.0174L70.2798 26.5533L70.5597 26.536L70.8224 26.5188L71.0846 26.4846L71.347 26.4502L71.6097 26.4155L71.8894 26.3983L72.1343 26.3469L72.397 26.3124L72.6592 26.2605L72.9217 26.2091L73.1841 26.1744L73.4465 26.1058L73.709 26.0367L73.9714 25.9852L74.2338 25.9161L74.4613 25.8475V20.3542H69.8599ZM80.2873 3.96064L80.4798 3.97786L80.7072 4.02952L80.8822 4.08118L81.0222 4.13284L81.1796 4.21894L81.3021 4.30504L81.4246 4.40836L81.547 4.52891L81.6695 4.68389L81.7397 4.83887L81.8095 4.97663L81.8445 5.13161L81.8794 5.30381V5.5449L81.862 5.69988L81.827 5.83764L81.7747 5.99262L81.687 6.13038L81.582 6.26814L81.477 6.40591L81.3021 6.56089L81.1449 6.66421L80.9697 6.75031L80.7947 6.80197L80.6198 6.87085L80.4448 6.90529L80.2524 6.92251H78.5203L78.4328 6.93973L78.3278 6.97417L78.2578 6.99139L78.1706 7.04305L78.1004 7.11193L78.0479 7.18081L78.0129 7.21525L77.2256 8.62731L79.7102 8.61009L82.2294 12.3124H85.2036L82.3168 7.99016L82.562 7.92128L82.7717 7.83518L82.9817 7.73186L83.2616 7.5941L83.4541 7.47356L83.629 7.35301L83.804 7.21525L83.9617 7.06027L84.1014 6.88807L84.2764 6.66421L84.3988 6.49201L84.5038 6.30258L84.5738 6.11316L84.6438 5.94096L84.6963 5.75154L84.714 5.52768L84.7315 5.32103V5.16605L84.714 4.95941L84.6788 4.75277L84.6263 4.54613L84.5563 4.33948L84.4863 4.13284L84.3813 3.9262L84.2589 3.73678L84.1189 3.54736L83.9792 3.37515L83.8215 3.22017L83.664 3.06519L83.4891 2.92743L83.2966 2.78967L83.1041 2.68635L82.8942 2.58303L82.6843 2.49693L82.4743 2.42804L82.2644 2.35916L82.0369 2.3075L81.8095 2.29028L81.582 2.27306L81.3546 2.25584L81.1621 2.27306H73.7792V12.3124H76.4383V3.96064L80.1299 3.94342L80.2873 3.96064ZM92.9192 1.65314L94.3714 0H91.887L91.0647 1.65314H92.9192ZM120.213 12.3469H122.889V4.08118H125.881L125.969 4.06396L126.074 4.04674L126.144 4.02952L126.214 3.99508L126.266 3.96064L126.301 3.90898L126.354 3.85732L126.371 3.80566L126.406 3.73678L126.423 3.70234L126.441 3.68512L126.931 2.32472H117.308L117.221 2.35916L117.151 2.37638L117.081 2.42804L117.011 2.47971L116.958 2.53137L116.906 2.60025L116.871 2.66913L116.853 2.70357L116.171 4.08118H120.213V12.3469ZM85.2036 21.8868L85.4136 21.8177L85.6235 21.7491L85.816 21.6458L86.0784 21.508L86.2534 21.4047L86.4108 21.2669L86.5683 21.1292L86.7083 20.9739L86.8307 20.8022L86.9532 20.6298L87.0582 20.4401L87.1282 20.2337L87.1981 20.0271L87.2506 19.8202L87.2856 19.5966L87.3034 19.3727V19.183L87.2856 18.9592L87.2506 18.7528L87.2156 18.5459L87.1457 18.3395L87.0757 18.1498L86.9707 17.9432L86.8832 17.8054L86.7608 17.6162L86.6208 17.444L86.4633 17.2888L86.3059 17.1338L86.0434 16.9447L85.8335 16.8241L85.6235 16.7208L85.3961 16.6175L85.0287 16.4972L84.7837 16.428L84.5213 16.3761L84.2764 16.3247L84.0314 16.29L83.769 16.2556L83.5066 16.2386L83.2441 16.2214H76.7182V26.2777H79.3951V18.0465H82.9642L83.0867 18.0637L83.2616 18.0812L83.4366 18.1156L83.5943 18.167L83.804 18.2708L83.9439 18.3395L84.0489 18.4253L84.1539 18.5117L84.2589 18.6664L84.3291 18.8042L84.3988 18.9592L84.4513 19.1144L84.4863 19.2522L84.5038 19.3899V19.476L84.4863 19.6138L84.4688 19.7688L84.4163 19.8893L84.3466 20.0445L84.2589 20.199L84.1539 20.3196L83.9792 20.5092L83.8215 20.5951L83.664 20.6984L83.5066 20.7675L83.3143 20.8362L83.1391 20.8709L82.9642 20.9053H81.2496L81.1796 20.9225L81.1096 20.9567L81.0222 20.9914L80.9522 21.0258L80.8822 21.0773L80.8122 21.1292L80.76 21.1811L80.7072 21.2322L80.6722 21.3014L79.9727 22.5926H82.2993L84.9762 26.2777H87.8805L84.9587 21.9555L85.2036 21.8868ZM54.0265 16.2042L48.8301 26.2777H51.6996L52.7669 24.0047H55.8811L56.0033 23.9702L56.1258 23.936L56.2308 23.8841L56.336 23.8155L56.4232 23.7292L56.5107 23.6431L56.5807 23.54L56.5984 23.5053L57.4032 22.197H53.6066L55.7409 17.7882L59.5902 26.2438H62.3545L57.6307 16.2042H54.0265ZM114.982 2.29028H112.375V12.3469H114.982V2.29028ZM62.8969 10.8832L63.0893 11.0554L63.2818 11.2103L63.4742 11.3653L63.6842 11.5031L63.8941 11.6406L64.1038 11.7786L64.3313 11.8991L64.5587 12.0025L64.7339 12.0713L64.9786 12.1402L65.2238 12.2263L65.4687 12.2952L65.7312 12.3641L65.9759 12.4157L66.2385 12.4502L66.4832 12.5018L66.7984 12.5363L67.0606 12.5535L67.323 12.5707H67.5855L67.8481 12.5879H68.1106L68.373 12.5707L68.7579 12.5535L69.0204 12.5363L69.2825 12.5191L69.5277 12.4846L69.7899 12.4502L70.0351 12.3985L70.2798 12.3469L70.5422 12.2952L70.7872 12.2435L71.0496 12.1574L71.2946 12.1058L71.5395 12.0197L71.7844 11.9336L71.9769 11.8819V9.9877L71.8719 10.0394L71.6272 10.1255L71.382 10.2288L71.1371 10.2977L70.8922 10.3838L70.6472 10.4526L70.3848 10.5043L70.0174 10.5732L69.7899 10.6076L69.5277 10.6421L69.2825 10.6765L69.0379 10.6937L68.7752 10.7109H68.2503L68.0056 10.7282L67.7779 10.7109L67.5332 10.6937L67.3058 10.6593L67.0606 10.6076L66.8334 10.5387L66.571 10.4699L66.3608 10.401L66.1511 10.3149L65.9586 10.2116L65.7662 10.091L65.591 9.97048L65.416 9.83272L65.1888 9.62608L65.0488 9.45388L64.9086 9.28167L64.7689 9.09225L64.6639 8.90283L64.5764 8.69619L64.4887 8.48955L64.4013 8.16236L64.349 7.9385L64.314 7.69742V7.00861L64.349 6.78475L64.4013 6.45757L64.454 6.25092L64.5237 6.02706L64.5937 5.82042L64.6989 5.631L64.8039 5.44158L64.9786 5.20049L65.1361 5.02829L65.2935 4.87331L65.486 4.71833L65.6612 4.58057L65.8536 4.44281L66.1683 4.2706L66.3785 4.16728L66.6234 4.08118L66.8509 4.0123L67.0956 3.94342L67.4282 3.87454L67.6729 3.85732L67.9354 3.82288H68.7052L69.0728 3.8401L69.3353 3.85732L69.5977 3.89176L69.8599 3.9262L70.0874 3.96064L70.3498 4.0123L70.5947 4.06396L70.8574 4.13284L71.1021 4.1845L71.347 4.2706L71.5922 4.33948L71.7144 4.39114L72.0121 4.47725L72.0294 2.60025L71.8719 2.56581L71.6272 2.49693L71.382 2.41082L71.1196 2.34194L70.8747 2.29028L70.6122 2.2214L70.3673 2.16974L70.1051 2.11808L69.8077 2.06642L69.545 2.03198L69.3003 1.99754L69.0379 1.9631L68.7752 1.94588L68.5127 1.92866H67.4982L67.253 1.94588L66.9909 1.9631L66.7284 1.99754L66.4832 2.03198L66.2385 2.08364L65.9936 2.1353L65.7484 2.20418L65.5037 2.27306L65.2238 2.35916L64.9963 2.44526L64.7689 2.53137L64.5237 2.63469L64.314 2.75523L64.0866 2.87577L63.8764 2.99631L63.6667 3.13407L63.4742 3.28905L63.2818 3.44403L63.1066 3.59902L62.9319 3.77122L62.7567 3.94342L62.5992 4.13284L62.442 4.32226L62.3018 4.52891L62.162 4.71833L62.0571 4.94219L61.9346 5.14883L61.7944 5.47602L61.7072 5.69988L61.6369 5.92374L61.5669 6.16482L61.5147 6.40591L61.4622 6.64699L61.4447 6.99139L61.4272 7.23247V7.71464L61.4622 7.95572L61.4972 8.1968L61.532 8.43789L61.6019 8.66175L61.6722 8.90283L61.7944 9.24723L61.8996 9.4711L62.0046 9.67774L62.1271 9.9016L62.2495 10.1082L62.3895 10.2977L62.5292 10.4871L62.6867 10.6937L62.8969 10.8832ZM89.8225 26.2777H92.5168V16.2386H89.84L89.8225 26.2777ZM121.997 16.2386H119.495V26.2777H127.456L128.226 24.4869H121.997V16.2386ZM97.6606 10.5904H89.4903V3.99508H97.2757L96.6283 2.27306H86.901V12.3124H96.7858L97.6606 10.5904ZM135.101 24.4526H131.795V17.9606H139.58L138.968 16.2042H129.118V26.2605H139.178L139.983 24.4526H135.101Z" fill="black"/>
<path d="M133.684 20.2668L133.614 20.284H133.527L133.422 20.301L133.334 20.3354L133.264 20.3873L133.177 20.4388L133.107 20.5079L133.089 20.5423L132.075 22.0233H136.536L136.606 22.006L136.693 21.9886L136.781 21.9541L136.868 21.9199L136.938 21.868L137.008 21.7994L137.043 21.7477L138.128 20.2668H133.684ZM118.515 20.9212L118.498 20.6796L118.463 20.4904L118.428 20.2493L118.375 20.0255L118.305 19.7844L118.235 19.5601L118.13 19.3362L118.043 19.1123L117.921 18.9055L117.798 18.6991L117.64 18.4926L117.483 18.303L117.326 18.1138L117.151 17.9241L116.976 17.7522L116.784 17.5797L116.591 17.4248L116.363 17.2698L116.153 17.132L115.926 16.9947L115.698 16.8742L115.453 16.7704L115.226 16.6499L114.998 16.564L114.753 16.4781L114.508 16.3918L114.263 16.3231L114.018 16.254L113.756 16.2026L113.511 16.1507L113.248 16.0993L112.986 16.0821L112.741 16.0648L112.496 16.0476H112.268L112.181 16.0304H112.058L111.849 16.0476H111.639L111.394 16.0648L111.149 16.0821L110.886 16.0993L110.641 16.1335L110.379 16.1854L110.134 16.2373L109.889 16.2887L109.644 16.3578L109.399 16.4265L109.172 16.5123L108.944 16.6161L108.699 16.7195L108.489 16.8228L108.244 16.9778L108.051 17.0983L107.842 17.2533L107.65 17.4078L107.457 17.5628L107.282 17.7352L107.107 17.9244L106.95 18.0968L106.774 18.3207L106.634 18.5103L106.495 18.7168L106.372 18.9232L106.267 19.1475L106.181 19.3714L106.076 19.5952L106.006 19.8363L105.919 20.1637L105.883 20.4048L105.849 20.6631L105.813 20.9042V21.5928L105.849 21.8511L105.866 22.0921L105.918 22.3332L105.971 22.5748L106.023 22.7987L106.111 23.057L106.198 23.298L106.303 23.5219L106.408 23.7283L106.531 23.9526L106.671 24.159L106.881 24.4692L107.038 24.6584L107.213 24.8309L107.388 25.0201L107.563 25.1925L107.756 25.3475L107.983 25.5194L108.193 25.6572L108.403 25.7777L108.63 25.9155L108.858 26.0188L109.103 26.1394L109.331 26.2257L109.576 26.329L109.908 26.4149L110.153 26.484L110.415 26.5354L110.678 26.5873L110.923 26.622L111.185 26.6562L111.43 26.6734L111.693 26.7081H111.955L112.182 26.7253H112.462L112.725 26.7081L112.987 26.6909L113.25 26.6737L113.495 26.639L113.914 26.5703L114.159 26.5184L114.405 26.467L114.65 26.3979L114.894 26.3293L115.139 26.2259L115.367 26.1396L115.595 26.0363L115.927 25.8643L116.154 25.7433L116.364 25.6228L116.557 25.4855L116.75 25.3305L116.942 25.1755L117.117 25.0031L117.292 24.8311L117.52 24.5556L117.659 24.3492L117.799 24.1423L117.922 23.9184L118.027 23.712L118.132 23.4877L118.219 23.2466L118.307 23.0228L118.359 22.7817L118.429 22.5406L118.464 22.2995L118.499 22.0584L118.534 21.8001L118.552 21.559V21.4213L118.534 21.1802L118.515 20.9212ZM115.646 21.3514V21.5583L115.629 21.7994L115.594 22.0405L115.559 22.2297L115.506 22.4707L115.453 22.7118L115.366 22.9362L115.279 23.16L115.191 23.3839L115.069 23.6078L114.946 23.7974L114.789 23.9694L114.632 24.1244L114.474 24.2793L114.299 24.4343L114.089 24.5549L113.897 24.6754L113.687 24.7613L113.477 24.8304L113.267 24.899L113.057 24.9509L112.725 25.0024L112.48 25.0196H112.025L111.78 24.9849L111.553 24.9507L111.325 24.8988L111.097 24.8302L110.87 24.761L110.642 24.6752L110.38 24.5374L110.188 24.4169L110.012 24.2791L109.838 24.1241L109.68 23.9691L109.435 23.6764L109.313 23.504L109.207 23.3148L109.102 23.1079L109.015 22.9015L108.928 22.6776L108.858 22.4533L108.806 22.2294L108.753 21.9025L108.718 21.6614V21.196L108.753 20.9035L108.788 20.6452L108.823 20.4041L108.875 20.1797L108.945 19.9387L109.033 19.7323L109.12 19.5084L109.243 19.3187L109.348 19.1123L109.505 18.9399L109.645 18.7679L109.802 18.613L109.977 18.4752L110.24 18.2855L110.432 18.1822L110.642 18.0789L110.852 17.993L111.062 17.9239L111.272 17.8725L111.622 17.8206L111.954 17.7859H112.181L112.287 17.7687L112.636 17.8034L113.056 17.8725L113.266 17.9239L113.494 17.993L113.704 18.0789L113.896 18.1648L114.106 18.2853L114.281 18.4058L114.456 18.5436L114.631 18.6986L114.789 18.8536L114.946 19.026L115.068 19.2152L115.191 19.4048L115.278 19.6112L115.366 19.8176L115.453 20.0245L115.506 20.2309L115.541 20.4034L115.576 20.6445L115.611 20.8855L115.646 21.1094L115.646 21.3514ZM91.502 6.38735H91.4145L91.3098 6.40457L91.1871 6.42179L91.0996 6.47345L90.9946 6.50789L90.9249 6.57677L90.8372 6.66287L89.7524 8.10936H94.0739L94.1789 8.09214L94.2838 8.07492L94.3713 8.04048L94.4763 7.98882L94.5638 7.91994L94.634 7.86828L94.7037 7.78218L94.7562 7.73052L95.701 6.38735H91.502ZM106.286 12.1389L106.636 12.0528L106.881 11.9667L107.108 11.8806L107.336 11.7945L107.563 11.6739L107.913 11.4845L108.123 11.364L108.315 11.2434L108.525 11.1057L108.7 10.9507L108.875 10.7785L109.033 10.6235L109.243 10.3824L109.383 10.193L109.505 10.0036L109.628 9.79718L109.75 9.57332L109.838 9.34945L109.942 9.09115L109.995 8.83285L110.065 8.59177L110.117 8.35068L110.153 8.1096L110.17 7.86876L110.188 7.61046L110.205 7.38659L110.223 7.16249V6.97283L110.205 6.74897L110.17 6.50789L110.135 6.2668L110.082 6.04294L110.012 5.80186L109.942 5.57776L109.855 5.3539L109.75 5.12979L109.645 4.92339L109.522 4.71675L109.382 4.51011L109.207 4.26902L109.05 4.0796L108.875 3.9074L108.7 3.7352L108.507 3.58022L108.315 3.45968L108.122 3.32192L107.93 3.20137L107.72 3.08083L107.528 2.97727L107.318 2.87395L107.108 2.78785L106.88 2.70199L106.671 2.63311L106.443 2.56423L106.233 2.49535L106.005 2.44369L105.778 2.39203L105.55 2.35759L105.341 2.32314L105.113 2.30592L104.903 2.2887L104.676 2.27148H104.606L104.466 2.2887H99.0594V12.3283H105.043L105.288 12.3111L105.533 12.2766L105.778 12.2422L106.04 12.1905L106.286 12.1389ZM105.656 10.4341L105.446 10.503L105.236 10.5546L105.026 10.5891L104.817 10.6235H101.685V3.9593H104.257L104.502 3.97652H104.607L104.729 3.9935L104.939 4.04516L105.167 4.09682L105.377 4.1657L105.587 4.25157L105.796 4.35513L105.989 4.45845L106.181 4.57899L106.374 4.71675L106.531 4.87173L106.671 4.99203L106.828 5.16447L106.951 5.33668L107.073 5.5261L107.161 5.71552L107.266 5.92216L107.336 6.11158L107.389 6.33545L107.423 6.47345L107.476 6.69731L107.511 6.92117V7.55856L107.476 7.78242L107.441 8.00628L107.371 8.23014L107.318 8.41956L107.248 8.64343L107.161 8.86729L107.056 9.07393L106.933 9.28057L106.811 9.48698L106.671 9.67664L106.531 9.84884L106.391 10.0036L106.216 10.1241L106.041 10.2447L105.849 10.348L105.656 10.4341ZM104.606 24.1067L104.414 24.1758L104.151 24.2444L103.906 24.3135L103.644 24.3822L103.382 24.4341L103.137 24.4855L102.874 24.5374L102.612 24.5546L102.384 24.5891L102.122 24.6233L101.877 24.6405L101.632 24.6579H101.37L101.125 24.6405L100.862 24.6233L100.53 24.6061L100.302 24.5718L100.058 24.5374L99.8475 24.4855L99.6203 24.3994L99.4101 24.3308L99.1651 24.2102L98.9552 24.1067L98.7802 23.9861L98.5878 23.8656L98.4128 23.7278L98.2029 23.504L98.0629 23.3322L97.9229 23.1598L97.8005 22.9701L97.6955 22.781L97.608 22.5745L97.503 22.2297L97.4508 21.9886L97.4333 21.7477L97.4156 21.5239V21.2828L97.4333 21.0417L97.4508 20.8176L97.4858 20.5938L97.5205 20.3701L97.5905 20.1635L97.6605 19.9566L97.748 19.7674L97.8879 19.5263L98.0104 19.3367L98.1504 19.1475L98.3078 18.9925L98.4653 18.8375L98.6405 18.6823L98.8327 18.5445L99.0427 18.424L99.2526 18.3207L99.4801 18.2176L99.7075 18.1315L99.9349 18.0624L100.197 18.011L100.443 17.9765L100.687 17.9418L100.95 17.9246L101.195 17.9074L101.527 17.9246L101.772 17.9418L102.052 17.9765L102.314 17.9937L102.559 18.0452L102.822 18.0798L103.084 18.1315L103.329 18.2004L103.592 18.2695L103.836 18.3381L104.099 18.4068L104.344 18.4931L104.589 18.5792H104.606L104.886 18.6823V16.7537L104.799 16.7195L104.606 16.6503L104.554 16.6331L104.309 16.547L104.047 16.4611L103.801 16.392L103.487 16.3234L103.242 16.2715L102.979 16.2201L102.717 16.1856L102.454 16.1509L101.947 16.0995L101.685 16.0823L101.422 16.0651L101.16 16.0479L100.845 16.0304H100.337L100.075 16.0479L99.8125 16.0651L99.4101 16.117L99.1476 16.1509L98.9029 16.2028L98.6578 16.2543L98.4128 16.3234L98.1854 16.4092L97.8707 16.5298L97.643 16.6161L97.4156 16.7367L97.2059 16.8572L96.9782 16.9778L96.7857 17.1155L96.5408 17.3047L96.3483 17.4599L96.1734 17.6149L95.9809 17.7869L95.8235 17.9765L95.6662 18.1657L95.4385 18.4412L95.2988 18.6651L95.1761 18.872L95.0536 19.0958L94.9662 19.3195L94.8787 19.4919L94.7912 19.733L94.7212 19.9566L94.6687 20.1977L94.6163 20.4388L94.5638 20.8348L94.5463 21.0759V21.5586L94.5638 21.868L94.5987 22.1091L94.6512 22.3502L94.7037 22.5913L94.7562 22.8324L94.8787 23.1426L94.9662 23.3662L95.0711 23.5901L95.1936 23.7969L95.3161 24.0206L95.491 24.2963L95.6487 24.4855L95.806 24.6752L95.9634 24.8644L96.1559 25.0368L96.4008 25.2432L96.5933 25.3982L96.8032 25.5534L97.0132 25.6739L97.2581 25.8289L97.4858 25.9322L97.7305 26.0353L97.9754 26.1214L98.2029 26.2078L98.4478 26.2764L98.9377 26.3797L99.2001 26.4142L99.4626 26.4489L99.725 26.4833L99.9874 26.5007L100.39 26.5175L100.652 26.5347H101.177L101.44 26.5175H101.702L101.982 26.4833L102.227 26.4661L102.454 26.4489L102.717 26.4142L102.979 26.3797L103.242 26.3283L103.487 26.2764L103.749 26.2078L104.012 26.1386L104.256 26.07L104.501 26.0009L104.606 25.9667L104.624 25.9495L104.904 25.8636L104.921 23.9861L104.659 24.0899L104.606 24.1067Z" fill="black"/>
<path d="M47.7283 12.7782V7.68102L44.0892 9.713L40.5726 11.6589L37.2832 13.4498L34.2914 15.0513L31.5973 16.4633L29.1827 17.6857L26.9784 18.7364L25.0012 19.6146L23.1469 20.3895L21.3798 21.0267L19.63 21.5947L17.9332 22.0768L16.2361 22.4729L14.5915 22.8176L13.0341 23.0759L11.5647 23.2825L10.2526 23.4203L9.08011 23.4889L8.10059 23.5408L7.24306 23.5061L5.94862 23.3684L5.0561 23.162L4.40875 22.9037L3.88413 22.5592L3.46423 22.1632L3.13157 21.698L2.93912 21.1819L2.86913 20.5787L2.93912 19.8557L3.20179 19.0294L3.62169 18.1337L4.18155 17.221L4.88138 16.3083L5.66844 15.4301L6.47325 14.6205L7.29579 13.9147L8.18807 13.2259L9.18532 12.4854L10.2176 11.8139L11.2148 11.2112L12.2471 10.6429L13.3143 10.1091L14.3813 9.64412L15.4663 9.21361L16.4985 8.86921L17.4608 8.57647L18.3181 8.38704L19.1054 8.2665L19.8927 8.23206L20.715 8.30094L21.1524 8.3526L20.9249 7.56048L20.5225 6.2173L20.2074 5.27019L19.9627 4.70193L19.7702 4.39196L19.5778 4.20254L19.3676 4.06478L19.0354 3.94424L18.5105 3.89258L17.7582 3.92702L16.8134 4.04756L15.7462 4.27142L14.6437 4.58139L13.489 4.99443L12.3695 5.45961L11.3021 5.94178L10.2698 6.4756L9.25531 7.04387L8.22306 7.68102L7.15582 8.38704L6.10608 9.12751L5.17881 9.86798L4.35627 10.5396L3.62169 11.2284L2.90412 11.9516L2.23953 12.7437L1.62718 13.5703L1.08482 14.4141L0.647423 15.3268L0.297266 16.2394L0.104814 17.1691L0.0175781 18.0645L0.0875609 19.0294L0.262275 20.0453L0.542449 21.0609L0.909616 22.0254L1.32951 22.9037L1.81963 23.6786L2.39699 24.4362L3.06159 25.1248L3.77891 25.7278L4.54872 26.2446L5.40625 26.6574L6.421 27.019L7.62796 27.3465L8.92264 27.5701L10.2526 27.7081L11.5647 27.7425L12.8244 27.6734L13.9616 27.5875L15.0464 27.4323L16.1311 27.2431L17.2156 27.0363L18.2306 26.7952L19.2279 26.5541L20.2776 26.2446L21.3621 25.9344L22.4471 25.59L23.549 25.2112L24.6515 24.7979L25.7537 24.3671L26.856 23.9024L27.9757 23.3856L29.1654 22.8176L29.8477 22.4557L30.74 21.9907L31.9647 21.3364L33.749 20.3895L36.2162 19.0461L39.4879 17.2724L43.4069 15.1199L47.7283 12.7782Z" fill="#4284B5"/>
</svg>
