<svg width="220" height="28" viewBox="0 0 220 28" fill="none" xmlns="http://www.w3.org/2000/svg">
<path d="M58.9706 9.43094C58.9706 10.4013 58.8827 10.9699 58.7077 11.1384C58.5522 11.3069 57.9678 11.3895 56.9543 11.3895H55.7855V17.6047C55.7855 18.5188 56.1754 18.9768 56.9543 18.9768C57.9092 18.9768 58.4652 19.0602 58.6198 19.2287C58.7761 19.3973 58.8542 19.9846 58.8542 20.9915C58.4652 21.0102 58.1037 21.0195 57.7733 21.0195C56.1754 21.0195 55.0172 20.7591 54.2968 20.2365C53.5951 19.6951 53.2452 18.8184 53.2452 17.6047V11.4184H51.6375L51.6668 9.99013C52.524 9.99013 53.0018 9.93395 53.0986 9.8216C53.1972 9.71009 53.2452 9.29898 53.2452 8.58996V6.54716H55.7277V9.43091L58.9706 9.43094ZM50.2944 20.9078C49.0474 20.9078 48.3173 20.8252 48.1023 20.6567C47.9078 20.4882 47.811 19.8915 47.811 18.865V9.43069C49.058 9.43069 49.7775 9.5141 49.9729 9.68178C50.1861 9.83159 50.2944 10.401 50.2944 11.3892V20.9078ZM50.2944 8.70294C49.0474 8.70294 48.3173 8.61952 48.1023 8.45014C47.9078 8.28246 47.811 7.68579 47.811 6.65929V5.87536C49.1549 5.87536 49.8752 5.9026 49.9729 5.95878C50.1861 6.07028 50.2944 6.59375 50.2944 7.52663V8.70294ZM45.3572 20.9078C44.4024 20.9078 43.8472 20.8431 43.6918 20.7129C43.5355 20.5631 43.4582 20.0771 43.4582 19.2574C42.7956 20.4516 41.267 21.0474 38.8714 21.0474C35.4634 21.0474 33.758 19.0795 33.758 15.1412C33.758 11.2037 35.4536 9.23407 38.8421 9.23407C40.8682 9.23407 42.2218 9.75753 42.9031 10.8028V5.0625C44.1306 5.0625 44.8403 5.14762 45.0348 5.31615C45.2488 5.48383 45.3572 6.07028 45.3572 7.07806V20.9078ZM42.9324 15.1412C42.9324 13.8721 42.7281 12.9486 42.3186 12.3698C41.8132 11.6224 40.9072 11.2505 39.6016 11.2505C37.9459 11.2505 36.9831 11.4182 36.7095 11.7527C36.4377 12.071 36.301 13.2005 36.301 15.1412C36.301 16.429 36.5052 17.3712 36.9138 17.9687C37.4201 18.6965 38.3065 19.0599 39.5723 19.0599C41.2474 19.0599 42.2218 18.9016 42.4945 18.5841C42.7867 18.2488 42.9324 17.1014 42.9324 15.1412ZM32.4442 14.2172C32.4442 15.1697 32.3376 15.7289 32.1236 15.8966C31.9086 16.0464 31.159 16.1213 29.8737 16.1213H23.6216C23.6216 16.998 23.904 17.6976 24.4689 18.2203C25.0534 18.7429 25.8803 19.005 26.9515 19.005H29.5806C30.555 19.005 31.1199 19.0884 31.2762 19.257C31.4512 19.4059 31.5391 19.966 31.5391 20.9355H27.0403C23.086 20.9355 21.1097 19.005 21.1097 15.1416C21.1097 11.2407 23.1055 9.29067 27.0981 9.29067C28.8319 9.29067 30.1757 9.76562 31.1306 10.7181C32.0063 11.5956 32.4442 12.7617 32.4442 14.2172ZM29.8737 14.2172C29.8933 14.1798 29.8933 14.161 29.8737 14.161C29.9128 12.1455 28.9091 11.1386 26.8645 11.1386C25.2666 11.1386 24.3233 11.2679 24.0311 11.5301C23.7584 11.7914 23.6216 12.6868 23.6216 14.2172H29.8737ZM20.7882 9.37518C20.7882 10.4196 20.7189 11.0256 20.583 11.1941C20.4667 11.3439 20.0092 11.418 19.2107 11.418C18.2168 11.418 17.6048 11.6138 17.3694 12.0061C17.1945 12.3228 17.1065 13.1722 17.1065 14.5537V20.9076C15.8604 20.9076 15.1303 20.8251 14.9153 20.6565C14.7208 20.488 14.624 19.9101 14.624 18.921V9.43136C15.5779 9.43136 16.1322 9.49516 16.2885 9.62543C16.4439 9.75736 16.523 10.2229 16.523 11.0256C17.1261 9.83141 18.5481 9.2807 20.7882 9.37518ZM12.5206 20.9636H7.96406C5.39268 20.9636 3.54164 20.2453 2.41272 18.8093C1.51651 17.6509 1.06885 15.9622 1.06885 13.7424C1.06885 8.94518 3.36666 6.54744 7.96406 6.54744H12.5206C12.5206 7.5731 12.4327 8.17062 12.2577 8.3383C12.1023 8.50683 11.5267 8.59024 10.5346 8.59024H7.96406C6.34751 8.59024 5.34383 8.64642 4.95479 8.75877C4.37034 8.90773 3.99996 9.33587 3.84452 10.0466C3.74682 10.5692 3.69796 11.8 3.69796 13.7424C3.69796 15.403 3.97065 16.6236 4.51601 17.4083C5.17862 18.3982 6.32708 18.8919 7.96406 18.8919H10.388C11.4592 18.8919 12.0818 18.9762 12.2577 19.1447C12.4327 19.3132 12.5206 19.9184 12.5206 20.9636Z" fill="#1C297B"/>
<path d="M90.6749 14.0005C90.6749 21.2959 84.5053 27.2081 76.8915 27.2081C69.2778 27.2081 63.1064 21.2959 63.1064 14.0005C63.1064 6.70602 69.2778 0.792969 76.8915 0.792969C84.5053 0.792969 90.6749 6.70602 90.6749 14.0005Z" fill="white"/>
<path d="M70.5665 14.0003L76.8924 20.0606L83.2173 14.0003L76.8915 7.93995L70.5665 14.0003ZM64.0825 14.0003C64.0825 7.22071 69.8177 1.72559 76.8924 1.72559C83.9661 1.72559 89.7013 7.22071 89.7013 14.0003C89.7013 20.7798 83.9661 26.2749 76.8924 26.2749C69.8177 26.2749 64.0825 20.7798 64.0825 14.0003Z" fill="#E2001A"/>
<path d="M218.931 20.9078C217.315 20.9078 216.342 20.8704 216.01 20.7955C215.601 20.7035 215.153 20.3954 214.667 19.8728L210.869 15.7574C210.557 15.4212 210.401 15.1412 210.401 14.9173C210.401 14.6934 210.557 14.4134 210.869 14.0781L215.104 9.4026H218.465L212.708 14.862L218.931 20.9078ZM210.197 20.9078C208.951 20.9078 208.221 20.8252 208.005 20.6567C207.81 20.4882 207.713 19.9009 207.713 18.8922V5.0625C208.961 5.0625 209.681 5.14762 209.876 5.31615C210.09 5.4651 210.197 6.03283 210.197 7.02274V20.9078ZM205.465 20.9078C204.217 20.9078 203.488 20.8252 203.273 20.6567C203.079 20.4882 202.982 19.9009 202.982 18.8922V14.5249C202.982 13.3869 202.817 12.5936 202.485 12.1451C202.056 11.5671 201.249 11.2777 200.059 11.2777C198.521 11.2777 197.617 11.4182 197.343 11.6982C197.091 11.9595 196.963 12.9017 196.963 14.5249V20.9078C195.717 20.9078 194.988 20.8252 194.773 20.6567C194.578 20.4882 194.48 19.9009 194.48 18.8922V9.45792C195.434 9.45792 195.989 9.52431 196.146 9.65454C196.3 9.78477 196.379 10.2512 196.379 11.0547C197.003 9.8784 198.463 9.29024 200.762 9.29024C202.592 9.29024 203.867 9.78477 204.588 10.7738C205.173 11.5961 205.465 12.9111 205.465 14.7215V20.9078ZM192.349 20.9078C191.412 20.9078 190.869 20.8346 190.712 20.6848C190.556 20.5358 190.479 20.0311 190.479 19.1714C190.167 19.6762 189.631 20.0958 188.871 20.4329C187.995 20.8252 186.982 21.0193 185.834 21.0193C184.47 21.0193 183.37 20.7393 182.532 20.1809C181.617 19.5647 181.159 18.6871 181.159 17.5483C181.159 16.4111 181.548 15.5055 182.328 14.833C183.185 14.1053 184.451 13.7418 186.126 13.7418H189.894C189.894 12.9017 189.631 12.3042 189.107 11.9501C188.6 11.5961 187.772 11.4182 186.621 11.4182H184.168C183.253 11.4182 182.718 11.3441 182.561 11.1943C182.405 11.0258 182.328 10.4572 182.328 9.48686H186.534C188.774 9.48686 190.332 9.92436 191.208 10.8028C191.968 11.5297 192.349 12.7238 192.349 14.3853V20.9078ZM189.894 15.9813V15.617H186.505C185.123 15.617 184.314 15.7004 184.081 15.8689C183.847 16.0187 183.73 16.5677 183.73 17.5202C183.73 18.6216 184.626 19.1714 186.417 19.1714C188.151 19.1714 189.164 19.0421 189.456 18.7799C189.748 18.5016 189.894 17.5678 189.894 15.9813ZM179.671 16.7372C179.671 19.5358 177.684 20.936 173.71 20.936H170.205C168.998 20.936 168.286 20.8517 168.072 20.6849C167.877 20.5155 167.779 19.9282 167.779 18.9204V8.61876C167.779 7.5914 167.877 6.99559 168.072 6.8262C168.286 6.65938 168.998 6.57426 170.205 6.57426H173.622C177.343 6.57426 179.202 7.82547 179.202 10.3262C179.202 12.0056 178.539 12.9946 177.216 13.2934C177.974 13.4985 178.589 13.9462 179.057 14.6374C179.465 15.2536 179.671 15.9533 179.671 16.7372ZM176.689 10.6624C176.689 9.29884 175.696 8.61876 173.71 8.61876H170.351V12.6771H173.856C175.278 12.6771 176.106 12.5937 176.34 12.426C176.573 12.2575 176.689 11.6702 176.689 10.6624ZM177.04 16.7091C177.04 15.2911 175.979 14.5812 173.856 14.5812H170.351V18.9204H173.798C175.414 18.9204 176.359 18.8276 176.631 18.6404C176.905 18.454 177.04 17.8097 177.04 16.7091Z" fill="#E2001A"/>
<path d="M165.081 14.2163C165.081 15.1687 164.975 15.7279 164.761 15.8956C164.546 16.0454 163.796 16.1203 162.511 16.1203H156.261C156.261 16.997 156.542 17.6967 157.107 18.2193C157.692 18.7419 158.518 19.0041 159.59 19.0041H162.219C163.193 19.0041 163.758 19.0875 163.913 19.256C164.088 19.405 164.176 19.965 164.176 20.9345H159.678C155.725 20.9345 153.748 19.0041 153.748 15.1406C153.748 11.2397 155.744 9.28971 159.735 9.28971C161.469 9.28971 162.813 9.76466 163.768 10.7171C164.644 11.5947 165.081 12.7608 165.081 14.2163ZM162.511 14.2163C162.531 14.1788 162.531 14.1601 162.511 14.1601C162.551 12.1445 161.546 11.1376 159.502 11.1376C157.906 11.1376 156.961 11.267 156.669 11.5291C156.397 11.7904 156.261 12.6859 156.261 14.2163H162.511ZM152.199 15.1955C152.199 19.1347 150.515 21.1035 147.146 21.1035C145.12 21.1035 143.767 20.5809 143.085 19.5356V25.3304C141.857 25.3304 141.136 25.2469 140.922 25.0776C140.729 24.9286 140.632 24.36 140.632 23.371V9.42972C141.566 9.42972 142.112 9.50462 142.266 9.65358C142.422 9.78381 142.5 10.2605 142.5 11.081C143.221 9.8868 144.75 9.28928 147.087 9.28928C150.494 9.28928 152.199 11.258 152.199 15.1955ZM149.685 15.1955C149.685 13.9086 149.482 12.9561 149.073 12.3407C148.547 11.613 147.662 11.2495 146.416 11.2495C144.741 11.2495 143.756 11.4172 143.465 11.7517C143.192 12.0888 143.057 13.2361 143.057 15.1955C143.057 16.4842 143.25 17.4171 143.64 17.9959C144.147 18.7423 145.051 19.116 146.355 19.116C148.031 19.116 149.007 18.9568 149.277 18.6402C149.552 18.304 149.685 17.1558 149.685 15.1955ZM138.646 15.1685C138.646 19.0873 136.658 21.0466 132.686 21.0466C128.751 21.0466 126.784 19.0873 126.784 15.1685C126.784 11.2667 128.762 9.31842 132.714 9.31842C136.668 9.31842 138.646 11.2667 138.646 15.1685ZM136.103 15.1685C136.103 13.936 135.889 13.0227 135.462 12.4252C134.935 11.6591 134.019 11.277 132.714 11.277C131.02 11.277 130.027 11.4446 129.734 11.7808C129.463 12.0992 129.326 13.227 129.326 15.1685C129.326 17.7816 130.445 19.0873 132.686 19.0873C134.399 19.0873 135.393 18.9298 135.665 18.6123C135.958 18.2752 136.103 17.1279 136.103 15.1685ZM126.492 9.37425C126.492 10.4186 126.423 11.0247 126.288 11.1932C126.171 11.343 125.715 11.4171 124.914 11.4171C123.922 11.4171 123.309 11.6128 123.074 12.0052C122.899 12.3218 122.811 13.1713 122.811 14.5527V20.9067C121.565 20.9067 120.836 20.8241 120.621 20.6556C120.425 20.4871 120.329 19.9091 120.329 18.9201V9.43043C121.282 9.43043 121.837 9.49423 121.994 9.6245C122.148 9.75643 122.226 10.222 122.226 11.0247C122.831 9.83048 124.253 9.27977 126.492 9.37425ZM117.903 20.9069C116.949 20.9069 116.394 20.8422 116.237 20.712C116.084 20.5622 116.005 20.0761 116.005 19.2565C115.363 20.4507 113.902 21.0465 111.624 21.0465C109.772 21.0465 108.487 20.5622 107.767 19.591C107.182 18.7892 106.891 17.492 106.891 15.6994V9.42976C108.117 9.42976 108.828 9.51317 109.023 9.68085C109.237 9.84938 109.344 10.4563 109.344 11.5006V15.8961C109.344 17.0153 109.519 17.7899 109.87 18.2198C110.298 18.7611 111.117 19.0309 112.324 19.0309C113.862 19.0309 114.758 18.9007 115.011 18.6394C115.266 18.3602 115.392 17.4077 115.392 15.7837V9.42976C116.638 9.42976 117.358 9.51317 117.554 9.68085C117.766 9.84938 117.875 10.4563 117.875 11.5006L117.903 20.9069ZM105.021 20.9069H97.1614C95.8975 20.9069 95.1558 20.8243 94.9408 20.6558C94.7268 20.4873 94.6211 19.8906 94.6211 18.8641V8.61859C94.6211 7.59039 94.7268 6.99457 94.9408 6.82519C95.1558 6.65836 95.8975 6.57324 97.1614 6.57324H102.918C103.97 6.57324 104.582 6.65836 104.757 6.82519C104.933 6.99457 105.021 7.59039 105.021 8.61859H97.1614V12.5927H102.216C103.248 12.5927 103.852 12.6761 104.028 12.8446C104.202 13.0123 104.29 13.592 104.29 14.5802H97.1614V18.8641H102.743C103.892 18.8641 104.554 18.9466 104.729 19.116C104.924 19.2829 105.021 19.8821 105.021 20.9069Z" fill="#1C297B"/>
</svg>
