<svg width="120" height="24" viewBox="0 0 120 24" fill="none" xmlns="http://www.w3.org/2000/svg">
<g clip-path="url(#clip0_184_2864)">
<path d="M13.7661 18.2871L14.0513 18.2578L14.3512 18.2135L15.056 18.1249L15.8356 17.9623L16.6304 17.7854L17.4104 17.564L18.2202 17.3277L19.0298 17.0474L19.6449 16.8553L19.8998 16.7375L20.1398 16.5899L20.3495 16.398L20.5444 16.1913L20.6946 15.9404L24.5787 7.91088L30.8019 23.1727L30.8771 23.35L30.9821 23.5122L31.1171 23.66L31.2668 23.778L31.447 23.8814L31.6267 23.9402L31.8217 23.9847H32.0166L37.3103 23.9994L27.6229 3.55664H21.8941L13.7661 18.2871Z" fill="#212529"/>
<path d="M40.91 4.78183V1.0918L31.4473 6.16929L31.3571 6.21357L31.1622 6.28716L30.9525 6.34641H30.7575L30.5925 6.31689L30.4124 6.25785L30.2626 6.19881L30.2026 6.16929L30.2774 6.40545L30.4276 6.87777L30.6225 7.36486L30.8775 7.85194L31.1774 8.29475L31.4921 8.66375L31.792 8.92944L32.062 9.07704L32.3169 9.13608H32.5721L32.8118 9.10656L32.992 9.04752L33.1417 8.98848L33.2017 8.9442L40.91 4.78183Z" fill="#212529"/>
<path d="M59.8801 17.4465H59.7751L59.6851 17.4613L59.5953 17.476L59.5354 17.5057L59.4604 17.5496L59.4004 17.5941L59.3404 17.6529L59.2954 17.7267L58.5756 18.9223H61.8296V21.0332L61.5746 21.1068L61.3497 21.1661L61.1397 21.2101L60.9148 21.2546L60.7051 21.2989L60.4199 21.3282L60.195 21.3579L60.0002 21.3727H59.3552L59.1305 21.343L58.8155 21.3134L58.6204 21.2841L58.4254 21.2396L58.2305 21.1958L58.0355 21.1365L57.8558 21.0627L57.6308 20.9447L57.4509 20.8413L57.3009 20.7232L57.1507 20.6052L57.001 20.4721L56.866 20.3393L56.731 20.1919L56.6259 20.0293L56.4909 19.8079L56.4011 19.631L56.3259 19.4391L56.2659 19.247L56.221 19.0551L56.1762 18.8485L56.1462 18.6568L56.131 18.4502V17.8596L56.161 17.6679L56.2062 17.4908L56.2659 17.2987L56.3259 17.1218L56.4011 16.9446L56.4909 16.7673L56.5661 16.664L56.6858 16.5018L56.8208 16.354L56.956 16.2064L57.1059 16.0738L57.2559 15.9557L57.4659 15.8229L57.6456 15.7196L57.8406 15.6162L58.0507 15.5424L58.2457 15.4684L58.5304 15.3948L58.7553 15.3503L58.9805 15.321L59.1902 15.2915L59.4152 15.2768L59.6401 15.2618L59.8653 15.247H60.075L60.3 15.2618L60.5249 15.2768L60.7498 15.3063L60.9748 15.336L61.1997 15.3651L61.4247 15.4096L61.6496 15.4391L61.8746 15.4832L62.0995 15.5424L62.3245 15.5865L62.5494 15.6458L62.7593 15.7046L62.9843 15.7638L63.0893 15.7932V14.2581L62.8343 14.1843L62.6244 14.1107L62.3994 14.0515L62.1745 14.0074L61.9645 13.9629L61.7396 13.9188L61.5147 13.8745L61.1098 13.8157L60.8848 13.786L60.6599 13.7565L60.4349 13.7415L60.21 13.7267L60.0002 13.712H58.8603L58.6356 13.7267L58.4106 13.7415L58.1857 13.7712L57.9755 13.8007L57.7656 13.8301L57.5406 13.8893L57.3309 13.9481L57.0458 14.0221L56.836 14.0812L56.6411 14.1548L56.4311 14.2435L56.2512 14.3321L56.056 14.4207L55.8763 14.5387L55.6961 14.6421L55.4863 14.7899L55.3214 14.9223L55.1564 15.0551L55.0063 15.203L54.8565 15.3651L54.7063 15.5129L54.5866 15.6751L54.4666 15.8524L54.3464 16.0293L54.2417 16.2064L54.1067 16.4574L54.0317 16.6349L53.9565 16.8413L53.8817 17.0332L53.8368 17.2399L53.7768 17.4465L53.7468 17.6529L53.7168 17.8596L53.7018 18.1255V18.5387L53.7316 18.7452L53.7616 18.9668L53.7916 19.1732L53.8515 19.3799L53.8965 19.5865L53.9717 19.7786L54.0467 19.9705L54.1515 20.1919L54.2417 20.3838L54.3464 20.5607L54.4514 20.738L54.5716 20.9149L54.7063 21.0775L54.8265 21.2396L54.9763 21.3875L55.1564 21.5496L55.3362 21.6827L55.5163 21.8007L55.7113 21.9188L55.9062 22.0221L56.101 22.1255L56.2961 22.2288L56.5061 22.3024L56.701 22.3909L56.9108 22.4649L57.1507 22.5385L57.3757 22.583L57.6006 22.6271L57.8258 22.6568L58.0507 22.6863L58.2757 22.7161L58.5156 22.7304L58.7253 22.7599L58.9655 22.7749H59.1902L59.5801 22.7897L59.8051 22.7749H60.015L60.24 22.7599L60.4799 22.7452L60.7051 22.7304L60.9298 22.7011L61.1547 22.6716L61.3799 22.6419L61.6196 22.6271L61.8296 22.583L62.0547 22.5535L62.2795 22.509L62.5044 22.4649L62.7294 22.4352L62.9543 22.3764L63.1792 22.3171L63.4042 22.2731L63.6291 22.2138L63.8241 22.155V17.4465H59.8801ZM68.8179 3.39483L68.9828 3.40959L69.1778 3.45387L69.3277 3.49815L69.4477 3.54244L69.5827 3.61624L69.6876 3.69004L69.7926 3.7786L69.8976 3.88192L70.0026 4.01476L70.0628 4.1476L70.1225 4.26568L70.1525 4.39852L70.1825 4.54613V4.75277L70.1675 4.88561L70.1375 5.00369L70.0928 5.13653L70.0176 5.25461L69.9276 5.37269L69.8376 5.49078L69.6876 5.62362L69.5529 5.71218L69.4027 5.78598L69.2528 5.83026L69.1028 5.8893L68.9528 5.91882L68.7879 5.93358H67.3032L67.2283 5.94834L67.1383 5.97786L67.0783 5.99262L67.0035 6.0369L66.9433 6.09594L66.8983 6.15498L66.8683 6.1845L66.1935 7.39483L68.3232 7.38007L70.4824 10.5535H73.0318L70.5574 6.84871L70.7676 6.78967L70.9473 6.71587L71.1273 6.62731L71.3672 6.50923L71.5322 6.4059L71.6822 6.30258L71.8321 6.1845L71.9673 6.05166L72.0871 5.90406L72.237 5.71218L72.342 5.56458L72.432 5.40221L72.492 5.23985L72.5519 5.09225L72.5969 4.92989L72.6121 4.73801L72.6271 4.56089V4.42804L72.6121 4.25092L72.5819 4.0738L72.5369 3.89668L72.477 3.71956L72.417 3.54244L72.327 3.36531L72.222 3.20295L72.102 3.04059L71.9823 2.89299L71.8471 2.76015L71.7121 2.62731L71.5622 2.50923L71.3972 2.39114L71.2323 2.30258L71.0523 2.21402L70.8724 2.14022L70.6924 2.08118L70.5124 2.02214L70.3175 1.97786L70.1225 1.9631L69.9276 1.94834L69.7326 1.93358L69.5677 1.94834H63.2394V10.5535H65.5187V3.39483L68.6829 3.38007L68.8179 3.39483ZM79.6452 1.41697L80.8899 0H78.7604L78.0556 1.41697H79.6452ZM103.039 10.583H105.334V3.49815H107.898L107.973 3.4834L108.063 3.46863L108.123 3.45387L108.183 3.42435L108.228 3.39483L108.258 3.35055L108.303 3.30627L108.318 3.26199L108.348 3.20295L108.363 3.17343L108.378 3.15867L108.798 1.99262H100.55L100.475 2.02214L100.415 2.0369L100.355 2.08118L100.295 2.12546L100.25 2.16974L100.205 2.22878L100.175 2.28782L100.16 2.31734L99.5753 3.49815H103.039V10.583ZM73.0318 18.7601L73.2118 18.7009L73.3917 18.6421L73.5567 18.5535L73.7816 18.4354L73.9316 18.3469L74.0666 18.2288L74.2015 18.1107L74.3215 17.9777L74.4265 17.8305L74.5315 17.6827L74.6214 17.5201L74.6814 17.3432L74.7414 17.1661L74.7864 16.9887L74.8164 16.797L74.8316 16.6052V16.4426L74.8164 16.2507L74.7864 16.0738L74.7564 15.8965L74.6964 15.7196L74.6364 15.557L74.5464 15.3799L74.4715 15.2618L74.3665 15.0996L74.2465 14.952L74.1116 14.819L73.9766 14.6861L73.7516 14.524L73.5717 14.4207L73.3917 14.3321L73.1968 14.2435L72.8819 14.1404L72.6719 14.0812L72.447 14.0367L72.237 13.9926L72.0271 13.9629L71.8021 13.9334L71.5772 13.9188L71.3522 13.9041H65.7586V22.5238H68.053V15.4684H71.1123L71.2173 15.4832L71.3672 15.4982L71.5172 15.5277L71.6524 15.5718L71.8321 15.6607L71.9521 15.7196L72.0421 15.7932L72.132 15.8672L72.222 15.9998L72.2822 16.1179L72.342 16.2507L72.387 16.3838L72.417 16.5018L72.432 16.6199V16.6937L72.417 16.8118L72.402 16.9446L72.357 17.048L72.2972 17.181L72.222 17.3134L72.132 17.4168L71.9823 17.5793L71.8471 17.6529L71.7121 17.7415L71.5772 17.8007L71.4124 17.8596L71.2623 17.8893L71.1123 17.9188H69.6427L69.5827 17.9336L69.5227 17.9629L69.4477 17.9926L69.3877 18.0221L69.3277 18.0662L69.2677 18.1107L69.223 18.1552L69.1778 18.1991L69.1478 18.2583L68.5481 19.3651H70.5424L72.8369 22.5238H75.3263L72.8219 18.819L73.0318 18.7601ZM46.3086 13.8893L41.8545 22.5238H44.3141L45.2289 20.5754H47.8982L48.003 20.5459L48.108 20.5166L48.1979 20.4721L48.2881 20.4133L48.3629 20.3393L48.4379 20.2655L48.4979 20.1771L48.5131 20.1474L49.2029 19.026H45.9487L47.778 15.247L51.0774 22.4947H53.4469L49.3978 13.8893H46.3086ZM98.5557 1.9631H96.3213V10.583H98.5557V1.9631ZM53.9117 9.32841L54.0767 9.47602L54.2417 9.60886L54.4066 9.7417L54.5866 9.85978L54.7665 9.97766L54.9463 10.0959L55.1412 10.1993L55.3362 10.2878L55.4863 10.3469L55.6961 10.4059L55.9062 10.4797L56.1162 10.5387L56.3411 10.5978L56.5509 10.6421L56.776 10.6716L56.9858 10.7159L57.2559 10.7454L57.4807 10.7601L57.7056 10.7749H57.9305L58.1557 10.7897H58.3806L58.6056 10.7749L58.9355 10.7601L59.1604 10.7454L59.3852 10.7306L59.5953 10.7011L59.8201 10.6716L60.0302 10.6273L60.24 10.583L60.4649 10.5387L60.6749 10.4945L60.8998 10.4207L61.1098 10.3764L61.3197 10.3026L61.5296 10.2288L61.6946 10.1845V8.56089L61.6046 8.60517L61.3949 8.67897L61.1847 8.76753L60.9748 8.82657L60.7648 8.90037L60.5549 8.95941L60.3299 9.00369L60.015 9.06273L59.8201 9.09225L59.5953 9.12177L59.3852 9.15129L59.1754 9.16605L58.9503 9.18081H58.5004L58.2907 9.19557L58.0955 9.18081L57.8858 9.16605L57.6908 9.13653L57.4807 9.09225L57.2859 9.03321L57.061 8.97417L56.8808 8.91513L56.701 8.84133L56.5361 8.75277L56.3711 8.64945L56.221 8.54613L56.071 8.42804L55.8763 8.25092L55.7563 8.10332L55.6361 7.95572L55.5163 7.79336L55.4264 7.631L55.3514 7.45388L55.2762 7.27675L55.2012 6.99631L55.1564 6.80443L55.1264 6.59779V6.00738L55.1564 5.8155L55.2012 5.53506L55.2464 5.35793L55.3062 5.16605L55.3662 4.98893L55.4564 4.82657L55.5463 4.66421L55.6961 4.45756L55.8311 4.30996L55.966 4.17712L56.131 4.04428L56.2812 3.9262L56.4461 3.80812L56.7158 3.66052L56.896 3.57196L57.1059 3.49815L57.3009 3.43911L57.5106 3.38007L57.7958 3.32103L58.0055 3.30627L58.2305 3.27675H58.8903L59.2054 3.29151L59.4304 3.30627L59.6553 3.33579L59.8801 3.36531L60.075 3.39483L60.3 3.43911L60.5099 3.4834L60.7351 3.54244L60.9448 3.58672L61.1547 3.66052L61.3649 3.71956L61.4697 3.76384L61.7248 3.83764L61.7396 2.22878L61.6046 2.19926L61.3949 2.14022L61.1847 2.06642L60.9598 2.00738L60.7498 1.9631L60.5249 1.90406L60.3149 1.85978L60.0902 1.8155L59.8353 1.77122L59.6101 1.7417L59.4004 1.71218L59.1754 1.68266L58.9503 1.6679L58.7253 1.65314H57.8558L57.6456 1.6679L57.4209 1.68266L57.1959 1.71218L56.9858 1.7417L56.776 1.78598L56.5661 1.83026L56.3559 1.8893L56.1462 1.94834L55.9062 2.02214L55.7113 2.09594L55.5163 2.16974L55.3062 2.2583L55.1264 2.36162L54.9315 2.46494L54.7513 2.56827L54.5716 2.68635L54.4066 2.81919L54.2417 2.95203L54.0915 3.08487L53.9417 3.23247L53.7916 3.38007L53.6566 3.54244L53.5218 3.7048L53.4017 3.88192L53.2819 4.04428L53.1919 4.23616L53.0869 4.41328L52.9668 4.69373L52.892 4.88561L52.8318 5.07749L52.7718 5.28413L52.727 5.49078L52.682 5.69742L52.667 5.99262L52.652 6.19926V6.61255L52.682 6.81919L52.712 7.02583L52.7418 7.23247L52.8018 7.42435L52.862 7.631L52.9668 7.9262L53.0569 8.11808L53.1469 8.2952L53.2519 8.48709L53.3569 8.66421L53.4768 8.82657L53.5966 8.98893L53.7316 9.16605L53.9117 9.32841ZM76.9908 22.5238H79.3003V13.9188H77.0058L76.9908 22.5238ZM104.569 13.9188H102.425V22.5238H109.248L109.908 20.9887H104.569V13.9188ZM83.7092 9.07749H76.7061V3.42435H83.3793L82.8244 1.94834H74.4867V10.5535H82.9594L83.7092 9.07749ZM115.801 20.9594H112.967V15.3948H119.64L119.115 13.8893H110.673V22.509H119.295L119.985 20.9594H115.801Z" fill="#212529"/>
<path d="M114.586 17.3718L114.527 17.3866H114.451L114.361 17.4011L114.286 17.4307L114.226 17.4751L114.152 17.5192L114.092 17.5785L114.077 17.608L113.207 18.8774H117.031L117.091 18.8626L117.166 18.8476L117.241 18.8181L117.316 18.7888L117.376 18.7443L117.436 18.6855L117.466 18.6412L118.395 17.3718H114.586ZM101.585 17.9327L101.57 17.7257L101.54 17.5635L101.509 17.3569L101.464 17.165L101.404 16.9583L101.344 16.766L101.254 16.5742L101.179 16.3823L101.075 16.205L100.97 16.028L100.835 15.8511L100.7 15.6886L100.565 15.5264L100.415 15.3638L100.265 15.2164L100.1 15.0686L99.935 14.9358L99.7398 14.8029L99.5599 14.6849L99.3649 14.5672L99.17 14.4639L98.9598 14.3749L98.7649 14.2716L98.5697 14.198L98.3598 14.1244L98.1498 14.0504L97.9399 13.9915L97.7299 13.9323L97.505 13.8882L97.295 13.8437L97.0701 13.7997L96.8451 13.7849L96.6352 13.7701L96.425 13.7554H96.2301L96.1551 13.7406H96.0501L95.8702 13.7554H95.6906L95.4803 13.7701L95.2703 13.7849L95.0454 13.7997L94.8354 13.829L94.6105 13.8735L94.4005 13.918L94.1906 13.962L93.9806 14.0213L93.7705 14.0801L93.5757 14.1537L93.3806 14.2427L93.1704 14.3312L92.9907 14.4198L92.7805 14.5526L92.6156 14.656L92.4358 14.7888L92.2711 14.9212L92.1059 15.0541L91.9557 15.2019L91.8058 15.364L91.671 15.5118L91.5208 15.7037L91.4009 15.8663L91.2811 16.0432L91.1759 16.2201L91.0859 16.4124L91.0124 16.6043L90.9222 16.7962L90.8622 17.0028L90.7875 17.2835L90.7573 17.4901L90.7275 17.7115L90.6973 17.9182V18.5084L90.7275 18.7298L90.7421 18.9364L90.7873 19.143L90.8322 19.3501L90.8772 19.542L90.9522 19.7634L91.0272 19.97L91.1172 20.1619L91.2072 20.3388L91.3121 20.5311L91.4321 20.708L91.6121 20.9739L91.7468 21.1361L91.8968 21.2839L92.0472 21.446L92.1969 21.5938L92.3619 21.7267L92.557 21.8741L92.7368 21.9922L92.9167 22.0955L93.1117 22.2136L93.3068 22.3021L93.5168 22.4054L93.712 22.4795L93.9221 22.568L94.2068 22.6416L94.4168 22.7009L94.6417 22.7449L94.8667 22.7894L95.0766 22.8191L95.3016 22.8485L95.5115 22.8632L95.7365 22.8929H95.9614L96.1563 22.9077H96.3963L96.6212 22.8929L96.8462 22.8782L97.0711 22.8634L97.2811 22.8337L97.641 22.7749L97.8509 22.7304L98.0611 22.6863L98.271 22.6271L98.481 22.5682L98.6909 22.4797L98.8863 22.4057L99.0811 22.3171L99.366 22.1697L99.5609 22.066L99.7409 21.9626L99.9058 21.845L100.071 21.7121L100.236 21.5793L100.386 21.4315L100.536 21.2841L100.731 21.0479L100.851 20.871L100.971 20.6937L101.076 20.5018L101.166 20.3249L101.256 20.1326L101.331 19.9259L101.406 19.7341L101.451 19.5274L101.511 19.3208L101.541 19.1141L101.571 18.9075L101.601 18.6861L101.616 18.4795V18.3614L101.601 18.1547L101.585 17.9327ZM99.1252 18.3015V18.4788L99.1104 18.6855L99.0802 18.8921L99.0502 19.0543L99.0052 19.2609L98.96 19.4676L98.8855 19.6599L98.8103 19.8517L98.7353 20.0436L98.6303 20.2355L98.5256 20.3981L98.3906 20.5455L98.2556 20.6783L98.1209 20.8111L97.9707 20.944L97.791 21.0473L97.626 21.1506L97.446 21.2242L97.2661 21.2835L97.0861 21.3423L96.9064 21.3868L96.6214 21.4309L96.4115 21.4456H96.0218L95.8114 21.4159L95.6165 21.3866L95.4215 21.3421L95.2264 21.2833L95.0314 21.224L94.8363 21.1504L94.6113 21.0323L94.4466 20.929L94.2964 20.8109L94.1466 20.6781L94.0115 20.5453L93.8015 20.2943L93.6965 20.1465L93.6064 19.9844L93.5164 19.807L93.4414 19.6301L93.3666 19.4382L93.3066 19.246L93.2619 19.0541L93.2167 18.7738L93.1865 18.5672V18.1683L93.2167 17.9175L93.2469 17.6961L93.2766 17.4895L93.3218 17.2972L93.3818 17.0906L93.4566 16.9136L93.5316 16.7218L93.6366 16.5592L93.7265 16.3823L93.8615 16.2345L93.9815 16.0871L94.1162 15.9542L94.2662 15.8362L94.4911 15.6736L94.6561 15.585L94.8361 15.4965L95.016 15.4229L95.196 15.3636L95.3757 15.3196L95.6756 15.2751L95.9606 15.2453H96.1555L96.2457 15.2306L96.5454 15.2603L96.9055 15.3196L97.0853 15.3636L97.2804 15.4229L97.4604 15.4965L97.6254 15.5701L97.8051 15.6734L97.9553 15.7767L98.1053 15.8948L98.2552 16.0276L98.3902 16.1605L98.5251 16.3083L98.6299 16.4704L98.7349 16.633L98.8099 16.8099L98.8851 16.9868L98.9596 17.1642L99.0048 17.3411L99.0348 17.4889L99.0648 17.6955L99.095 17.9022L99.125 18.094L99.1252 18.3015ZM78.4303 5.47515H78.3553L78.2655 5.48991L78.1604 5.50467L78.0854 5.54895L77.9954 5.57847L77.9356 5.63751L77.8604 5.71131L76.9307 6.95116H80.6348L80.7247 6.9364L80.8147 6.92164L80.8897 6.89212L80.9797 6.84784L81.0547 6.7888L81.1148 6.74452L81.1746 6.67072L81.2196 6.62644L82.0294 5.47515H78.4303ZM91.1022 10.405L91.4019 10.3312L91.6121 10.2574L91.807 10.1836L92.0022 10.1098L92.1971 10.0065L92.497 9.84415L92.6768 9.74083L92.8417 9.63751L93.0217 9.51943L93.1717 9.38659L93.3218 9.23898L93.4566 9.10614L93.6366 8.8995L93.7565 8.73714L93.8615 8.57478L93.9665 8.39786L94.0715 8.20598L94.1466 8.0141L94.2364 7.79269L94.2814 7.57129L94.3414 7.36465L94.3864 7.15801L94.4166 6.95137L94.4316 6.74493L94.4466 6.52353L94.4616 6.33164L94.4766 6.13956V5.97699L94.4616 5.78511L94.4314 5.57847L94.4012 5.37182L94.3562 5.17994L94.2962 4.9733L94.2362 4.78121L94.1612 4.58933L94.0712 4.39725L93.9813 4.22033L93.8763 4.04321L93.7563 3.86608L93.6061 3.65944L93.4714 3.49708L93.3214 3.34948L93.1713 3.20188L93.0063 3.06904L92.8413 2.96572L92.6764 2.84763L92.5114 2.74431L92.3317 2.64099L92.1667 2.55223L91.9868 2.46367L91.8068 2.38986L91.6118 2.31627L91.4319 2.25723L91.2367 2.19819L91.0572 2.13915L90.8618 2.09487L90.6669 2.05059L90.4717 2.02107L90.292 1.99155L90.0968 1.97679L89.9168 1.96203L89.7219 1.94727H89.6619L89.5419 1.96203H84.9081V10.5674H90.0368L90.2468 10.5526L90.4569 10.5231L90.6669 10.4936L90.8918 10.4493L91.1022 10.405ZM90.5623 8.94378L90.3826 9.00282L90.2024 9.0471L90.0224 9.07662L89.8429 9.10614H87.1581V3.39397H89.3628L89.573 3.40873H89.6629L89.7679 3.42328L89.9479 3.46756L90.1428 3.51184L90.3228 3.57088L90.5027 3.64448L90.6827 3.73324L90.8475 3.8218L91.0126 3.92513L91.1774 4.04321L91.3123 4.17605L91.4323 4.27916L91.5671 4.42697L91.6722 4.57457L91.7772 4.73693L91.852 4.8993L91.9424 5.07642L92.0022 5.23878L92.0474 5.43066L92.0771 5.54895L92.1221 5.74083L92.1523 5.93271V6.47904L92.1221 6.67092L92.0921 6.8628L92.0322 7.05469L91.9872 7.21705L91.9272 7.40893L91.8522 7.60081L91.7622 7.77793L91.6573 7.95506L91.5523 8.13197L91.4323 8.29454L91.3123 8.44214L91.1924 8.57478L91.0424 8.6781L90.8924 8.78142L90.7277 8.86998L90.5623 8.94378ZM89.6625 20.6631L89.4978 20.7224L89.2726 20.7812L89.0627 20.8405L88.8379 20.8993L88.6128 20.9438L88.4028 20.9879L88.1779 21.0323L87.9532 21.0471L87.758 21.0766L87.5331 21.1059L87.3231 21.1207L87.1132 21.1357H86.8882L86.6783 21.1207L86.4533 21.1059L86.1684 21.0912L85.9734 21.0619L85.7637 21.0323L85.5835 20.9879L85.3888 20.9141L85.2086 20.8552L84.9987 20.7519L84.8187 20.6631L84.6688 20.5598L84.5038 20.4565L84.3538 20.3384L84.1739 20.1465L84.0539 19.9993L83.9339 19.8515L83.829 19.689L83.739 19.5268L83.664 19.3499L83.574 19.0543L83.5292 18.8476L83.5143 18.6412L83.4991 18.4493V18.2427L83.5143 18.036L83.5292 17.8439L83.5592 17.6521L83.589 17.4604L83.649 17.2833L83.709 17.1059L83.784 16.9438L83.904 16.7371L84.0089 16.5746L84.1289 16.4124L84.2639 16.2796L84.3988 16.1467L84.549 16.0137L84.7138 15.8956L84.8937 15.7923L85.0737 15.7037L85.2686 15.6154L85.4636 15.5416L85.6585 15.4823L85.8835 15.4382L86.0936 15.4087L86.3034 15.379L86.5283 15.3642L86.7383 15.3495L87.0232 15.3642L87.2331 15.379L87.4731 15.4087L87.698 15.4235L87.908 15.4676L88.1329 15.4973L88.3579 15.5416L88.5678 15.6006L88.7928 15.6599L89.0027 15.7187L89.2276 15.7775L89.4376 15.8515L89.6475 15.9253H89.6625L89.9025 16.0137V14.3606L89.8277 14.3312L89.6625 14.272L89.6175 14.2572L89.4076 14.1834L89.1829 14.1098L88.9727 14.0506L88.7028 13.9918L88.4928 13.9473L88.2679 13.9032L88.0429 13.8737L87.818 13.8439L87.3831 13.7999L87.1581 13.7851L86.9334 13.7703L86.7083 13.7556L86.4383 13.7406H86.0034L85.7785 13.7556L85.5535 13.7703L85.2086 13.8148L84.9837 13.8439L84.7739 13.8884L84.5638 13.9325L84.3538 13.9918L84.1589 14.0653L83.8892 14.1687L83.694 14.2427L83.4991 14.346L83.3193 14.4493L83.1241 14.5526L82.9592 14.6707L82.7492 14.8329L82.5843 14.9659L82.4343 15.0988L82.2694 15.2462L82.1344 15.4087L81.9996 15.5709L81.8045 15.807L81.6847 15.9989L81.5795 16.1763L81.4745 16.3681L81.3996 16.5598L81.3246 16.7076L81.2496 16.9143L81.1896 17.1059L81.1446 17.3126L81.0996 17.5192L81.0547 17.8587L81.0397 18.0653V18.479L81.0547 18.7443L81.0846 18.951L81.1296 19.1576L81.1746 19.3642L81.2196 19.5709L81.3246 19.8368L81.3996 20.0284L81.4895 20.2203L81.5945 20.3977L81.6995 20.5893L81.8495 20.8257L81.9846 20.9879L82.1194 21.1504L82.2544 21.3126L82.4193 21.4604L82.6293 21.6373L82.7942 21.7701L82.9742 21.9032L83.1541 22.0065L83.3641 22.1394L83.5592 22.2279L83.769 22.3163L83.9789 22.3901L84.1739 22.4641L84.3838 22.5229L84.8037 22.6115L85.0287 22.641L85.2536 22.6707L85.4786 22.7002L85.7035 22.7152L86.0484 22.7296L86.2734 22.7443H86.7233L86.9484 22.7296H87.1731L87.4131 22.7002L87.6232 22.6855L87.818 22.6707L88.0429 22.641L88.2679 22.6115L88.4928 22.5674L88.7028 22.5229L88.9277 22.4641L89.1529 22.4048L89.3626 22.346L89.5726 22.2868L89.6625 22.2574L89.6775 22.2427L89.9175 22.1691L89.9325 20.5598L89.7075 20.6488L89.6625 20.6631Z" fill="#212529"/>
<path d="M40.9101 10.9522V6.58317L37.7908 8.32487L34.7766 9.99276L31.9571 11.5278L29.3927 12.9005L27.0835 14.1108L25.0138 15.1586L23.1245 16.0592L21.4297 16.812L19.8403 17.4762L18.3256 18.0223L16.8258 18.5092L15.3714 18.9225L13.9167 19.2619L12.5071 19.5573L11.1722 19.7787L9.9127 19.9559L8.78798 20.0739L7.78302 20.1328L6.94343 20.1773L6.2084 20.1475L5.09889 20.0295L4.33387 19.8525L3.779 19.6311L3.32932 19.3359L2.96941 18.9965L2.68427 18.5977L2.51931 18.1553L2.45933 17.6383L2.51931 17.0186L2.74447 16.3103L3.10438 15.5426L3.58426 14.7603L4.18411 13.978L4.85874 13.2252L5.54857 12.5313L6.2536 11.9263L7.01841 11.3359L7.8732 10.7013L8.75799 10.1256L9.61278 9.609L10.4976 9.12192L11.4123 8.66435L12.3269 8.26583L13.2569 7.89682L14.1417 7.60162L14.9665 7.3507L15.7013 7.18834L16.3761 7.08502L17.0509 7.0555L17.7558 7.11454L18.1307 7.15882L17.9357 6.47985L17.5908 5.32856L17.3207 4.51675L17.1109 4.02966L16.946 3.76398L16.781 3.60162L16.6008 3.48354L16.3161 3.38022L15.8662 3.33594L15.2214 3.36546L14.4116 3.46878L13.4968 3.66066L12.5518 3.92634L11.5621 4.28038L10.6025 4.67911L9.68755 5.0924L8.80277 5.54996L7.93319 6.03705L7.04841 6.58317L6.13363 7.18834L5.23385 7.82302L4.43905 8.45771L3.73401 9.03335L3.10438 9.62376L2.48932 10.2437L1.91967 10.9227L1.3948 11.6311L0.929912 12.3544L0.555004 13.1367L0.254869 13.919L0.08991 14.7158L0.0151367 15.4833L0.075122 16.3103L0.224877 17.1812L0.465026 18.0516L0.77974 18.8784L1.13965 19.6311L1.55976 20.2953L2.05463 20.9448L2.62429 21.535L3.23914 22.0518L3.89897 22.4948L4.634 22.8486L5.50379 23.1586L6.53832 23.4393L7.64805 23.6309L8.78798 23.7492L9.9127 23.7787L10.9924 23.7195L11.9672 23.6459L12.897 23.5129L13.8267 23.3507L14.7563 23.1734L15.6263 22.9667L16.4811 22.7601L17.3809 22.4948L18.3104 22.2289L19.2404 21.9337L20.185 21.609L21.1299 21.2548L22.0747 20.8855L23.0195 20.4872L23.9792 20.0442L24.999 19.5573L25.5838 19.2472L26.3487 18.8486L27.3984 18.2878L28.9278 17.4762L31.0425 16.3247L33.8468 14.8044L37.206 12.9593L40.9101 10.9522Z" fill="#212529"/>
</g>
<defs>
<clipPath id="clip0_184_2864">
<rect width="120" height="24" fill="white"/>
</clipPath>
</defs>
</svg>
