<svg width="120" height="120" viewBox="0 0 120 120" fill="none" xmlns="http://www.w3.org/2000/svg">
<g clip-path="url(#clip0_190_7232)">
<path d="M58.1405 0.000976562H61.8597C79.9503 1.02439 92.8489 7.9158 102.412 17.5738C111.975 27.2319 119.043 39.97 119.988 58.1957V61.8065C119.07 80.3236 111.876 92.5448 102.412 102.489C92.4697 111.934 80.248 119.09 61.7997 120.001H58.1405C40.0522 118.975 27.1513 112.087 17.5886 102.428C8.02585 92.7701 0.956815 80.0322 0.012207 61.8065V58.1957C0.0592822 58.1825 0.0823026 58.1454 0.0722151 58.0753C0.976731 39.9192 8.08431 27.0487 17.5888 17.5136C27.1371 7.93422 40.1694 0.993508 58.1405 0.000976562ZM46.3828 8.60681C42.8186 9.56431 39.6221 10.7803 36.7249 12.2175C27.9063 16.5922 20.634 22.851 15.5491 30.8735C10.586 38.7042 6.28873 48.7777 6.91105 61.9868C7.30343 70.3145 9.19756 77.3195 12.1897 83.2908C18.0987 95.0811 27.0947 103.768 39.5445 109.048C45.701 111.659 53.3295 113.491 61.92 113.08C70.1599 112.687 77.3001 110.828 83.2158 107.845C94.8098 101.996 103.947 92.973 109.011 80.5226C111.572 74.2247 113.509 66.949 113.09 58.1353C112.298 41.4392 105.528 30.1184 96.5937 21.4853C92.173 17.2137 86.8499 13.5801 80.577 10.9538C74.4906 8.4057 66.5672 6.51639 58.0813 6.92171C53.9094 7.12099 49.974 7.64204 46.3828 8.60681Z" fill="#212529"/>
<path d="M54.4816 44.4141C56.3822 45.6767 58.3263 46.896 60.1206 48.2656C56.0672 50.8189 52.0935 53.4525 48.0631 56.0289C48.6751 56.4983 49.3709 56.8834 49.9826 57.3528C54.0466 54.7699 58.1118 52.1885 62.1603 49.5895C63.9761 50.717 65.7636 51.8725 67.4395 53.1403C63.3827 55.7108 59.462 58.4172 55.4417 61.0237C56.0374 61.5097 56.7676 61.8603 57.421 62.2877C61.5763 59.7362 65.6281 57.0808 69.7185 54.4644V45.9186H78.7168V62.9499C81.256 63.09 84.056 62.9699 86.6955 63.0096V71.0139H69.7185V62.8892C64.7306 65.9293 59.619 69.3672 54.6016 72.5783C49.3765 69.1747 44.3408 65.58 39.1248 62.1673C37.6137 66.9722 34.0249 70.5868 28.0867 71.0139C24.3832 71.2796 20.1749 70.8154 15.9092 71.0139V45.9186C21.2421 46.273 27.0981 45.2032 31.326 46.5203C35.0644 47.6851 37.7148 50.6775 38.9445 54.404C44.1644 51.115 49.3005 47.7425 54.4816 44.4141ZM24.4872 53.9828V63.0098C26.6307 63.0205 28.261 63.1453 29.5261 62.1675C31.4083 60.7131 31.7875 57.1076 30.1259 55.1863C29.017 53.9045 27.1449 53.6354 24.547 53.8022C24.4776 53.8124 24.482 53.8975 24.4872 53.9828ZM89.0346 45.9186H98.0326V63.0098H105.951V71.0142H88.974V46.0992C88.9694 46.0138 88.9645 45.9287 89.0346 45.9186Z" fill="#212529"/>
</g>
<defs>
<clipPath id="clip0_190_7232">
<rect width="120" height="120" fill="white"/>
</clipPath>
</defs>
</svg>
