<svg width="140" height="140" viewBox="0 0 140 140" fill="none" xmlns="http://www.w3.org/2000/svg">
<g clip-path="url(#clip0_190_7236)">
<path d="M67.8305 0.000976562H72.1696C93.2753 1.19495 108.324 9.23493 119.48 20.5026C130.637 31.7704 138.884 46.6315 139.986 67.8949V72.1074C138.914 93.7107 130.522 107.969 119.48 119.57C107.881 130.589 93.6226 138.938 72.0996 140.001H67.8305C46.7275 138.804 31.6765 130.768 20.5199 119.499C9.36342 108.232 1.1162 93.3707 0.0141602 72.1074V67.8949C0.0690812 67.8794 0.0959383 67.8361 0.0841695 67.7544C1.13944 46.5722 9.43161 31.5566 20.5202 20.4324C31.6599 9.25643 46.8642 1.15893 67.8305 0.000976562ZM54.1132 10.0411C49.9549 11.1582 46.2257 12.5768 42.8456 14.2536C32.5573 19.3574 24.0729 26.6593 18.1405 36.0189C12.3503 45.1548 7.33677 56.9072 8.06281 72.3178C8.52059 82.0334 10.7304 90.206 14.2212 97.1725C21.115 110.928 31.6104 121.063 46.1352 127.223C53.3178 130.269 62.2177 132.406 72.2399 131.927C81.8532 131.468 90.1834 129.3 97.085 125.819C110.611 118.996 121.271 108.468 127.179 93.9429C130.167 86.5953 132.427 78.107 131.938 67.8243C131.014 48.3456 123.116 35.138 112.693 25.066C107.535 20.0825 101.325 15.8433 94.0064 12.7793C86.9056 9.80649 77.6617 7.60229 67.7614 8.07516C62.8943 8.30766 58.3029 8.91555 54.1132 10.0411Z" fill="#0083CA"/>
<path d="M63.5617 51.8164C65.7791 53.2895 68.0471 54.712 70.1405 56.3099C65.4115 59.2888 60.7755 62.3612 56.0735 65.367C56.7874 65.9147 57.5992 66.3639 58.3128 66.9116C63.0542 63.8982 67.797 60.8866 72.5202 57.8544C74.6386 59.1698 76.7241 60.5179 78.6792 61.997C73.9463 64.9959 69.3722 68.1534 64.6819 71.1943C65.3768 71.7614 66.2287 72.1703 66.991 72.6689C71.8388 69.6922 76.566 66.5943 81.338 63.5419V53.5717H91.8361V73.4415C94.7985 73.605 98.0651 73.4648 101.145 73.5111V82.8496H81.338V73.3707C75.5188 76.9175 69.5554 80.9284 63.7017 84.6747C57.6058 80.7038 51.7308 76.51 45.6454 72.5285C43.8825 78.1342 39.6955 82.3513 32.7676 82.8496C28.4469 83.1595 23.5372 82.618 18.5605 82.8496V53.5717C24.7823 53.9852 31.6143 52.737 36.5469 54.2737C40.9083 55.6327 44.0005 59.1238 45.4351 63.4713C51.525 59.6342 57.5171 55.6996 63.5617 51.8164ZM28.5683 62.98V73.5115C31.069 73.5239 32.971 73.6695 34.4469 72.5288C36.6429 70.832 37.0852 66.6255 35.1467 64.3841C33.853 62.8886 31.6689 62.5746 28.638 62.7693C28.5571 62.7811 28.5622 62.8804 28.5683 62.98ZM103.873 53.5717H114.371V73.5115H123.609V82.8499H103.803V53.7824C103.797 53.6828 103.792 53.5835 103.873 53.5717Z" fill="#0083CA"/>
</g>
<defs>
<clipPath id="clip0_190_7236">
<rect width="140" height="140" fill="white"/>
</clipPath>
</defs>
</svg>
