<svg width="140" height="140" viewBox="0 0 140 140" fill="none" xmlns="http://www.w3.org/2000/svg">
<path d="M18.1379 54.1738C8.26988 54.1738 0.046875 58.3257 0.046875 70.8518C0.046875 80.7753 5.57625 87.0245 18.3927 87.0245C33.4782 87.0245 34.4453 77.1693 34.4453 77.1693H27.1356C27.1356 77.1693 25.5684 82.4759 17.9468 82.4759C11.7392 82.4759 7.27449 78.3172 7.27449 72.4881H35.2097V68.8303C35.2097 63.0635 31.5183 54.1738 18.1379 54.1738ZM17.8831 58.8487C23.792 58.8487 27.8204 62.4388 27.8204 67.8195H7.43616C7.43616 62.1072 12.6942 58.8487 17.8831 58.8487Z" fill="#E53238"/>
<path d="M35.2044 42.0449V80.7345C35.2044 82.9306 35.0464 86.0142 35.0464 86.0142H42.0183C42.0183 86.0142 42.2685 83.7995 42.2685 81.7755C42.2685 81.7755 45.7131 87.1198 55.0791 87.1198C64.9418 87.1198 71.6413 80.329 71.6413 70.5997C71.6413 61.5487 65.4876 54.2691 55.095 54.2691C45.363 54.2691 42.3389 59.481 42.3389 59.481V42.0449H35.2044ZM53.2954 59.0546C59.993 59.0546 64.252 63.9843 64.252 70.5997C64.252 77.6935 59.333 82.3343 53.3432 82.3343C46.1949 82.3343 42.3389 76.7991 42.3389 70.6629C42.3389 64.9451 45.799 59.0546 53.2954 59.0546Z" fill="#0064D2"/>
<path d="M88.968 54.1738C74.1223 54.1738 73.1702 62.2354 73.1702 63.5236H80.5595C80.5595 63.5236 80.947 58.8171 88.4584 58.8171C93.3394 58.8171 97.1217 61.0328 97.1217 65.2925V66.8087H88.4584C76.9572 66.8087 70.877 70.1454 70.877 76.9166C70.877 83.5804 76.4949 87.2061 84.0869 87.2061C94.4336 87.2061 97.7666 81.5362 97.7666 81.5362C97.7666 83.7914 97.9419 86.0137 97.9419 86.0137H104.511C104.511 86.0137 104.256 83.2591 104.256 81.4967V66.2638C104.256 56.2758 96.1326 54.1738 88.968 54.1738ZM97.1217 71.3572V73.3788C97.1217 76.0155 95.4811 82.5707 85.8227 82.5707C80.5339 82.5707 78.2662 79.9529 78.2662 76.9166C78.2662 71.3928 85.9027 71.3572 97.1217 71.3572Z" fill="#F5AF02"/>
<path d="M100.278 55.4395H108.589L120.52 79.1438L132.424 55.4395H139.954L118.272 97.6401H110.374L116.63 85.8755L100.278 55.4395Z" fill="#86B817"/>
</svg>
