<svg width="120" height="42" viewBox="0 0 120 42" fill="none" xmlns="http://www.w3.org/2000/svg">
<path d="M3.20538 8.91319L29.3371 8.99726V16.6479C29.4223 17.1475 28.7639 17.0606 28.6652 16.5665C28.4129 15.3176 26.2325 12.3231 25.8101 12.0733H14.8835V21.3909H24.0411C24.7158 21.1412 25.7882 19.314 26.482 17.4787C26.7316 16.8163 27.2445 17.2317 27.2363 17.3999C27.0691 20.3918 27.1101 25.8759 27.154 28.1266C27.1671 28.9655 26.7316 29.2099 26.482 28.4605C26.2325 27.7139 24.9681 25.1347 24.1289 24.4669H14.8835V35.1149H26.7316C27.4036 34.618 29.1397 30.8578 29.3371 29.875C29.4223 29.4596 30.0941 29.4596 30.0941 29.791V38.6091L11.5238 38.3593C7.74444 38.3593 6.81743 38.3593 3.20539 38.6932C2.61299 38.7475 2.6267 37.8869 3.03535 37.6942C7.15203 35.7828 7.65943 36.8607 7.65943 31.0398V15.152C7.65943 10.8271 6.40327 10.9955 3.03535 9.74387C2.6843 9.61356 2.87078 8.99735 3.20538 8.91319Z" fill="#212529"/>
<path d="M35.7245 8.74424L47.9073 8.99674L57.2349 27.9606L66.8999 9.2465C66.8999 9.2465 74.4614 9.2465 75.1361 9.2465C75.808 9.2465 78.4162 8.99673 78.8331 8.91256C79.2555 8.82851 79.3377 9.66189 79.0003 9.8275C78.663 9.99322 74.6285 11.6574 74.2117 12.2411L76.6471 35.3642C76.9845 36.1136 81.0902 37.8294 81.7704 37.9434C82.2778 38.0275 82.1214 38.6249 81.8555 38.6086C79.2555 38.4429 67.5006 38.4429 64.9664 38.6086C64.7141 38.6238 63.6527 38.2149 64.799 37.8592C66.1429 37.4466 68.8334 36.5289 69.4203 35.5298L67.7391 15.4013L56.1433 38.6086H54.2125L43.6232 15.9008L41.7747 35.3642C42.5316 36.8602 46.0614 37.528 46.481 37.6936C46.8979 37.8594 46.8979 38.4783 46.5633 38.443C44.0428 38.1932 34.6274 38.3589 33.6263 38.527C33.1189 38.6085 32.2056 37.9759 33.3713 37.6094C36.6624 36.5804 37.743 37.5279 38.4972 29.9587L40.5158 13.3215C40.7654 10.5767 37.2439 10.2428 35.6422 9.66179C35.4036 9.57491 35.1349 8.74424 35.7245 8.74424Z" fill="#212529"/>
<path d="M105.999 16.398L106.251 8.7446C102.801 8.33193 94.299 6.94732 87.2587 12.0731C79.9578 17.3917 77.9639 30.9908 87.4287 37.113C93.7285 41.1881 105.242 38.3592 106.084 37.9438C106.419 37.7783 106.838 37.5284 106.838 37.1945C106.838 36.8605 106.923 30.0406 106.923 29.7094C106.923 29.3781 106.419 29.4596 106.166 29.7908C105.917 30.1248 104.625 35.0008 103.393 35.6143C100.684 36.9691 94.2413 37.827 90.8734 31.0397C88.6573 26.5709 88.5915 20.5139 91.7949 14.9862C95.1299 9.23872 101.378 10.8867 102.135 11.3265C103.561 12.1573 104.438 14.0007 105.075 16.3193C105.327 17.2315 105.917 17.066 105.999 16.398Z" fill="#212529"/>
<path d="M108.355 4.83779C111.879 1.59344 114.992 2.75816 116.081 3.83871C117.175 4.91925 117.894 7.28938 115.329 9.82785C114.065 11.0767 111.46 13.0722 111.46 13.0722C111.46 13.0722 115.579 13.0722 115.494 13.0722C115.914 12.9879 116.651 11.5627 116.923 11.1582C117.093 10.9111 117.257 10.9925 117.257 11.3265C117.257 11.6577 117.257 15.5672 117.257 15.5672C116.081 15.4832 109.109 15.4832 108.018 15.4832V14.0714C109.863 12.6569 111.63 10.6614 112.973 8.99719C114.317 7.33293 114.098 2.89673 109.361 5.50307C108.605 5.91845 108.1 5.50295 108.355 4.83779Z" fill="#212529"/>
</svg>
