<svg width="140" height="49" viewBox="0 0 140 49" fill="none" xmlns="http://www.w3.org/2000/svg">
<path d="M3.73953 10.3986L34.2266 10.4966V19.4224C34.3259 20.0052 33.5578 19.9039 33.4426 19.3274C33.1483 17.8704 30.6045 14.3767 30.1117 14.0853H17.364V24.9559H28.0479C28.835 24.6645 30.0861 22.5329 30.8956 20.3917C31.1868 19.6188 31.7852 20.1035 31.7756 20.2997C31.5805 23.7902 31.6284 30.1884 31.6796 32.8142C31.6949 33.793 31.1868 34.078 30.8956 33.2038C30.6045 32.3328 29.1294 29.3237 28.1503 28.5445H17.364V40.9672H31.1868C31.9708 40.3875 33.9962 36.0006 34.2266 34.854C34.3259 34.3694 35.1097 34.3694 35.1097 34.756V45.0438L13.4443 44.7524C9.0351 44.7524 7.95359 44.7524 3.73955 45.1419C3.0484 45.2053 3.0644 44.2012 3.54116 43.9764C8.34396 41.7465 8.93592 43.004 8.93592 36.213V17.6772C8.93592 12.6315 7.47041 12.8279 3.54116 11.3677C3.1316 11.2157 3.34916 10.4967 3.73953 10.3986Z" fill="#00478C"/>
<path d="M41.6785 10.2013L55.8916 10.4959L66.7739 32.6204L78.0498 10.7873C78.0498 10.7873 86.8714 10.7873 87.6586 10.7873C88.4425 10.7873 91.4855 10.4959 91.9718 10.3977C92.4646 10.2996 92.5606 11.2719 92.1669 11.4651C91.7733 11.6584 87.0665 13.5999 86.5801 14.2809L89.4215 41.2579C89.8151 42.1322 94.6051 44.134 95.3986 44.267C95.9906 44.3651 95.8082 45.062 95.4979 45.043C92.4646 44.8497 78.7505 44.8497 75.794 45.043C75.4996 45.0607 74.2613 44.5837 75.5987 44.1688C77.1666 43.6873 80.3055 42.6168 80.9902 41.4512L79.0288 17.9678L65.5003 45.043H63.2477L50.8936 18.5506L48.737 41.2579C49.6201 43.0032 53.7382 43.7824 54.2277 43.9756C54.7141 44.1689 54.7141 44.891 54.3237 44.8498C51.3831 44.5584 40.3985 44.7517 39.2305 44.9479C38.6386 45.0429 37.5731 44.3049 38.933 43.8773C42.7727 42.6768 44.0334 43.7823 44.9133 34.9515L47.2683 15.5415C47.5594 12.3392 43.451 11.9496 41.5824 11.2718C41.304 11.1704 40.9905 10.2013 41.6785 10.2013Z" fill="#00478C"/>
<path d="M123.666 19.131L123.96 10.202C119.935 9.72059 110.015 8.1052 101.802 14.0853C93.2841 20.2903 90.9579 36.1559 102 43.2985C109.35 48.0528 122.782 44.7524 123.765 44.2678C124.155 44.0747 124.645 43.7831 124.645 43.3935C124.645 43.0039 124.744 35.0473 124.744 34.6609C124.744 34.2745 124.155 34.3695 123.861 34.756C123.569 35.1455 122.062 40.8342 120.626 41.5501C117.464 43.1306 109.948 44.1315 106.019 36.213C103.434 30.9994 103.357 23.9328 107.094 17.484C110.985 10.7785 118.274 12.7011 119.157 13.2143C120.821 14.1835 121.845 16.3342 122.587 19.0392C122.882 20.1034 123.57 19.9104 123.666 19.131Z" fill="#00478C"/>
<path d="M126.414 5.6436C130.526 1.85852 134.157 3.21737 135.428 4.478C136.704 5.73864 137.543 8.50379 134.551 11.4653C133.076 12.9224 130.036 15.2504 130.036 15.2504C130.036 15.2504 134.842 15.2504 134.743 15.2504C135.233 15.1521 136.093 13.4893 136.41 13.0174C136.608 12.7291 136.8 12.824 136.8 13.2138C136.8 13.6002 136.8 18.1613 136.8 18.1613C135.428 18.0632 127.294 18.0632 126.021 18.0632V16.4162C128.174 14.766 130.235 12.4379 131.802 10.4962C133.37 8.5546 133.114 3.37902 127.588 6.41976C126.705 6.90437 126.116 6.41962 126.414 5.6436Z" fill="#00478C"/>
</svg>
