<svg width="32.000000" height="32.000000" viewBox="0 0 32 32" fill="none" xmlns="http://www.w3.org/2000/svg" xmlns:xlink="http://www.w3.org/1999/xlink">
	<desc>
			Created with Pixso.
	</desc>
	<defs>
		<clipPath id="clip214_10741">
			<rect id="Icon/facebook/32" width="32.000000" height="32.000000" fill="white" fill-opacity="0"/>
		</clipPath>
	</defs>
	<rect id="Icon/facebook/32" width="32.000000" height="32.000000" fill="#FFFFFF" fill-opacity="0"/>
	<g clip-path="url(#clip214_10741)">
		<path id="Vector" d="M16.0005 2.7207C8.66699 2.7207 2.66699 8.70703 2.66699 16.0801C2.66699 22.748 7.54688 28.2812 13.9204 29.2812L13.9204 19.9473L10.5337 19.9473L10.5337 16.0801L13.9204 16.0801L13.9204 13.1348C13.9204 9.78711 15.9072 7.94727 18.9604 7.94727C20.4136 7.94727 21.9336 8.20117 21.9336 8.20117L21.9336 11.4941L20.2534 11.4941C18.6001 11.4941 18.0806 12.5215 18.0806 13.5742L18.0806 16.0801L21.7871 16.0801L21.187 19.9473L18.0806 19.9473L18.0806 29.2812C21.2222 28.7852 24.0835 27.1816 26.147 24.7617C28.2104 22.3398 29.3408 19.2617 29.3335 16.0801C29.3335 8.70703 23.3335 2.7207 16.0005 2.7207Z" fill="#FFFFFF" fill-opacity="1.000000" fill-rule="evenodd"/>
	</g>
</svg>
