<svg width="140" height="140" viewBox="0 0 140 140" fill="none" xmlns="http://www.w3.org/2000/svg">
<g clip-path="url(#clip0_178_1499)">
<path fill-rule="evenodd" clip-rule="evenodd" d="M107.634 70.0582V46.0668C120.049 46.8549 129.932 57.2265 129.932 69.8338C129.936 74.8592 128.34 79.7553 125.376 83.8137L111.315 70.2775L119.837 59.5115H115.959L107.634 70.0582ZM107.634 43.3555V37.5312H104.458V43.3628C93.5391 44.0419 84.3738 51.3776 80.9893 61.3432C80.9057 61.5887 80.8258 61.8357 80.7496 62.0848H83.5967C83.6772 61.851 83.7614 61.6186 83.8495 61.3875C87.0822 52.9108 95.0309 46.7299 104.458 46.0763V78.1492H107.635V70.783L123.619 85.9563C119.261 90.6817 113.025 93.6508 106.115 93.6508C96.1001 93.6508 87.6538 88.0473 84.1443 79.2598H81.2544C84.8961 89.5682 94.5857 96.3578 106.115 96.3578C113.795 96.3578 120.729 93.064 125.581 87.8178L131.289 93.2383H135.166L127.343 85.7057C130.666 81.2753 132.64 75.7786 132.64 69.8345C132.639 55.7361 121.54 44.1479 107.634 43.3555ZM73.3064 78.1485H75.9349L80.3407 67.5473H80.4569L80.3407 68.7871V78.1492H83.588V63.1488H78.3593L74.6217 74.5722L71.0839 63.1488H65.6547V78.1485H68.9013V68.7864L68.7851 67.5466H68.9013L73.3064 78.1485ZM14.4922 71.9066C10.9195 71.9066 8.15374 72.2298 8.16101 67.1849C8.16754 62.5438 10.5818 61.5633 14.546 62.1945L14.4922 71.9066ZM18.5356 71.9066C22.109 71.9066 24.8741 72.2298 24.8675 67.1849C24.861 62.5438 22.4467 61.5633 18.4826 62.1945L18.5356 71.9066ZM14.7043 77.2748H18.3729V75.0704C23.7265 75.0704 29.1535 75.1155 29.1905 66.8116C29.2297 57.8845 23.5711 59.1113 18.3729 59.1113V56.7239H14.7043V58.8999C8.58808 58.8999 4.07553 59.5551 4.04648 67.5001C4.02106 74.3231 9.23449 75.151 14.7043 75.0704V77.2748ZM35.338 67.2583C35.2958 66.2545 35.7047 64.706 38.1248 64.9181C39.6609 65.0525 41.2174 64.7423 41.2174 67.5473C41.2174 67.734 41.4033 69.9158 41.2588 69.9325L40.6516 69.9986C39.995 69.4662 39.2317 68.915 37.4995 68.8503C34.3422 68.7319 31.2663 69.6558 31.3171 73.6149C31.3455 75.828 31.2539 78.0352 36.0062 78.0352C38.0071 78.0352 39.6566 77.8653 41.1571 76.4722L41.1513 77.5094L44.7465 77.5391L44.7197 67.6069C44.7117 64.3007 42.8364 63.0893 38.1255 63.0893C31.2467 63.0893 31.92 66.1681 31.92 67.2597H35.338V67.2583ZM36.3759 71.197H39.5418C40.4192 71.197 41.1368 71.9146 41.1368 72.7913V73.9984C41.1355 74.4209 40.967 74.8258 40.6681 75.1245C40.3693 75.4232 39.9644 75.5915 39.5418 75.5926H36.3759C35.9533 75.5915 35.5483 75.4232 35.2493 75.1245C34.9503 74.8258 34.7817 74.421 34.7802 73.9984V72.7913C34.7819 72.3687 34.9506 71.964 35.2495 71.6654C35.5484 71.3667 35.9533 71.1984 36.3759 71.197ZM90.7247 67.2583C90.6818 66.2545 91.0922 64.706 93.5122 64.9181C95.0484 65.0525 96.6049 64.7423 96.6049 67.5473C96.6049 67.734 96.7908 69.9158 96.6463 69.9325L96.0376 69.9986C95.3825 69.4662 94.6191 68.915 92.8854 68.8503C89.7289 68.7319 86.6537 69.6558 86.7031 73.6149C86.7314 75.828 86.6392 78.0352 91.3929 78.0352C93.3931 78.0352 95.0426 77.8653 96.5438 76.4722L96.538 77.5094L100.133 77.5391L100.107 67.6069C100.097 64.3007 98.2231 63.0893 93.5122 63.0893C86.6334 63.0893 87.3059 66.1681 87.3059 67.2597H90.7247V67.2583ZM91.7633 71.197H94.9293C95.8059 71.197 96.5235 71.9146 96.5235 72.7913V73.9984C96.5222 74.4208 96.3538 74.8255 96.0551 75.1242C95.7564 75.4229 95.3517 75.5913 94.9293 75.5926H91.7633C91.3406 75.5917 90.9355 75.4235 90.6365 75.1247C90.3375 74.826 90.1689 74.4211 90.1676 73.9984V72.7913C90.1676 71.9153 90.8852 71.197 91.7633 71.197ZM48.3229 62.9977V83.6597H51.8251V76.7242L52.4817 76.7395C53.1971 77.0147 54.7805 77.9865 56.443 77.8841C61.2693 77.5878 62.5229 75.1932 62.5229 70.2935C62.5229 64.7147 60.7115 62.6927 56.5011 62.7588C54.5037 62.7908 52.8536 63.6623 52.3953 64.5506L51.7409 64.5324H51.6581V62.9977H48.3229ZM58.7272 68.0942V72.7622C58.7257 73.3856 58.4775 73.9831 58.0368 74.424C57.5961 74.8649 56.9988 75.1135 56.3754 75.1155H54.5967C53.9733 75.1135 53.376 74.8649 52.9354 74.424C52.4947 73.9831 52.2465 73.3856 52.2449 72.7622V68.0942C52.2467 67.471 52.495 66.8737 52.9356 66.4329C53.3763 65.9921 53.9734 65.7437 54.5967 65.7417H56.3754C56.9987 65.7437 57.5959 65.9921 58.0365 66.4329C58.4772 66.8737 58.7255 67.471 58.7272 68.0942Z" fill="#00ACEC"/>
</g>
<defs>
<clipPath id="clip0_178_1499">
<rect width="140" height="140" fill="white"/>
</clipPath>
</defs>
</svg>
