<svg width="120" height="120" viewBox="0 0 120 120" fill="none" xmlns="http://www.w3.org/2000/svg">
<g clip-path="url(#clip0_188_5471)">
<path d="M51.1977 69.9528C47.0284 69.9531 42.9398 69.9365 38.8516 69.9687C38.0757 69.9748 37.8428 69.7484 37.8442 68.9638C37.865 57.4865 37.8531 46.0091 37.855 34.5317C37.8551 34.2534 37.9244 33.9753 38.1358 33.6562C38.5806 34.4576 39.0015 35.2732 39.4742 36.0579C42.8191 41.6102 47.5641 45.4981 53.694 47.6393C55.3797 48.2281 57.18 48.5146 58.9463 48.8403C59.563 48.954 59.7427 49.1401 59.7426 49.744C59.741 55.8967 59.7676 62.0494 59.7818 68.2021C59.7859 69.9558 59.7791 69.9557 57.9761 69.9551C55.7435 69.9542 53.511 69.9536 51.1977 69.9528Z" fill="#212529"/>
<path d="M64.2292 37.4318C64.2282 32.7233 64.2267 28.0951 64.2265 23.467C64.2265 22.4637 64.268 22.4255 65.2644 22.4258C71.2892 22.4277 77.314 22.4285 83.3388 22.4308C84.3214 22.4312 84.3875 22.4698 84.2668 23.4218C83.5948 28.7229 81.5228 33.3895 77.7925 37.2718C74.357 40.8472 70.1843 43.0547 65.2564 43.8209C64.3136 43.9675 64.2243 43.9003 64.2261 42.9696C64.2296 41.1504 64.2284 39.3313 64.2292 37.4318Z" fill="#212529"/>
<path d="M50.7509 40.9183C47.0051 38.5618 44.1735 35.4452 42.2082 31.5701C40.8788 28.9488 40.0901 26.1548 39.7549 23.2337C39.6863 22.6354 39.8901 22.4166 40.4968 22.418C46.6811 22.4321 52.8653 22.4355 59.0496 22.4223C59.6777 22.4209 59.735 22.7452 59.734 23.2322C59.7274 26.2008 59.7362 29.1694 59.7384 32.138C59.7411 35.7752 59.7237 39.4126 59.7597 43.0495C59.7669 43.7791 59.5058 43.9142 58.8527 43.8256C55.9611 43.4333 53.3051 42.4053 50.7509 40.9183Z" fill="#212529"/>
<path d="M73.809 69.9519C70.8211 69.9559 67.9138 69.9401 65.0072 69.9775C64.2272 69.9876 63.994 69.7309 63.9976 68.9528C64.0269 62.688 64.0146 56.423 64.0151 50.1581C64.0152 48.9812 64.094 48.9576 65.2772 49.1735C70.806 50.1824 75.1846 53.0373 78.5775 57.4196C80.6022 60.0347 81.9966 62.9778 82.7247 66.2102C82.9358 67.1475 83.0513 68.1056 83.238 69.0488C83.3696 69.7139 83.149 69.9693 82.4494 69.9632C79.5963 69.9384 76.743 69.9523 73.809 69.9519Z" fill="#212529"/>
<path d="M73.2018 45.8716C78.9195 43.0236 83.1806 38.9066 85.312 32.7891C85.6729 33.3223 85.782 60.1943 85.4368 61.3611C85.1885 60.8752 84.9757 60.5021 84.8017 60.112C82.2183 54.3201 78.1432 49.9088 72.5062 46.9353C72.3592 46.8577 72.136 46.6451 72.1623 46.576C72.2261 46.4083 72.3985 46.2612 72.5602 46.1563C72.7372 46.0414 72.9514 45.9833 73.2018 45.8716Z" fill="#212529"/>
<path d="M86.0956 84.5147C85.5209 84.7189 84.9895 84.8802 84.3046 85.0881C84.3142 85.5447 83.9628 86.2175 84.6099 86.8485C84.9079 87.1391 84.7528 87.4658 84.3001 87.4858C83.7381 87.5106 83.1737 87.4967 82.6108 87.4816C82.0986 87.4679 82.0274 87.2531 82.2712 86.8104C82.439 86.5059 82.566 86.1421 82.5819 85.7988C82.625 84.8665 82.6331 83.9294 82.5849 82.9978C82.5644 82.6033 82.3252 82.2237 82.2703 81.8258C82.2432 81.6297 82.405 81.2264 82.4887 81.2244C83.3695 81.2035 84.2664 81.1521 85.1305 81.2878C86.9945 81.5804 86.9885 83.4777 86.0956 84.5147ZM84.6 84.0853C84.7451 83.8598 84.8903 83.6343 85.1392 83.3632C85.1463 82.9877 85.1533 82.6123 85.272 82.2721C85.3898 82.9286 85.5077 83.5852 85.6213 84.2183C86.2519 83.9042 86.5789 82.6457 86.0208 82.1567C85.7547 81.9235 85.4648 81.3192 84.7876 81.7918C84.3803 81.7307 83.9385 81.7772 84.0115 82.2818C84.1016 82.9046 83.5365 83.6872 84.4068 84.1422C84.4202 84.1492 84.4526 84.1205 84.6 84.0853Z" fill="#212529"/>
<path d="M112.554 81.5017C112.457 82.0137 112.362 82.4586 112.261 82.934C111.984 82.8366 111.921 82.8328 111.888 82.7999C111.638 82.5563 111.394 82.3068 111.148 82.0592C111.073 82.399 110.954 82.736 110.931 83.0792C110.895 83.6376 110.892 84.2021 110.93 84.7602C110.988 85.6076 111.092 86.4518 111.187 87.4002C110.551 87.4002 109.754 87.4002 109.068 87.4002C109.149 85.6531 109.231 83.8841 109.313 82.115C109.24 82.0685 109.167 82.022 109.094 81.9755C108.879 82.1906 108.678 82.4213 108.445 82.6146C108.314 82.7232 108.11 82.8525 107.979 82.8186C107.871 82.7907 107.735 82.5186 107.762 82.3853C107.866 81.8783 108.031 81.3837 108.172 80.8887C109.491 81.2801 110.705 81.2866 111.907 80.9769C112.384 80.8542 112.571 80.9566 112.554 81.5017ZM110.475 85.2179C110.474 84.2582 110.436 83.2965 110.486 82.3395C110.527 81.5598 110.176 81.4978 109.61 81.6748C109.61 83.4304 109.61 85.1438 109.61 86.8502C110.285 87.0625 110.553 86.8398 110.48 86.1754C110.45 85.912 110.475 85.6428 110.475 85.2179Z" fill="#212529"/>
<path d="M30.2495 86.9715C30.616 86.2101 31.0347 85.5328 31.3128 84.8025C31.7183 83.7376 32.0011 82.627 32.3882 81.5544C32.4685 81.3319 32.7759 81.1905 32.9786 81.0117C33.171 81.229 33.4492 81.4153 33.5418 81.6687C34.1003 83.1974 34.6129 84.7427 35.1524 86.2784C35.201 86.4166 35.3431 86.5196 35.422 86.6507C35.5479 86.8599 35.6573 87.0789 35.7737 87.2938C35.532 87.3641 35.2943 87.4638 35.0476 87.4967C34.7833 87.5319 34.5106 87.5024 34.2416 87.5042C33.2109 87.5115 33.261 87.5173 33.3728 86.4852C33.4074 86.1664 33.1588 85.6054 32.9127 85.5207C32.5872 85.4087 32.0338 85.5411 31.7664 85.7782C31.4391 86.0684 31.5502 86.49 31.995 86.7655C32.1247 86.8458 32.1966 87.1325 32.1688 87.3045C32.1539 87.3968 31.8441 87.537 31.7138 87.4988C31.2198 87.3541 30.4745 87.9586 30.2495 86.9715ZM33.0537 84.7298C33.4459 85.442 34.0801 86.0833 33.6598 87.0114C34.1428 87.0114 34.5547 87.0114 35.0333 87.0114C34.3579 85.1071 33.7087 83.2768 33.0596 81.4465C32.762 81.6912 32.6885 81.9116 32.5905 82.1208C32.3644 82.6035 32.0493 83.0673 32.8228 83.4095C32.9579 83.4692 32.921 83.9133 32.8699 84.1209C32.7269 83.9297 32.5838 83.7386 32.4408 83.5475C32.3577 83.5697 32.2747 83.5919 32.1916 83.6141C32.2121 83.969 32.2066 84.3297 32.2847 84.6716C32.2949 84.7164 32.7337 84.6643 33.0537 84.7298Z" fill="#212529"/>
<path d="M91.5882 83.5321C91.5892 83.9674 91.5901 84.4028 91.5267 84.9082C91.3407 84.9785 91.219 84.9789 91.0857 84.9318C90.9832 84.7984 90.8925 84.7126 90.785 84.5729C90.5379 84.5496 90.3076 84.5801 90.0657 84.6875C90.0664 85.3815 90.0786 85.9985 90.1003 86.6728C90.3082 87.0917 90.2035 87.2343 89.7873 87.2478C89.4673 87.2582 89.1502 87.3543 88.8318 87.4123C88.7585 87.4111 88.6853 87.41 88.5397 87.3558C88.5356 87.0109 88.6795 86.7139 88.6599 86.4281C88.5476 84.7908 89.0389 83.1076 88.2612 81.4336C89.5 81.4336 90.7034 81.4336 91.9068 81.4336C91.9563 81.6645 92.0057 81.8954 91.9941 82.184C91.8119 82.1637 91.6899 82.0868 91.5695 82.0074C91.0639 81.6744 90.5674 81.5624 90.0785 82.1257C90.0776 82.7812 89.6027 83.5304 90.6442 83.8274C90.9984 83.7353 91.2933 83.6337 91.5882 83.5321Z" fill="#212529"/>
<path d="M105.626 81.1277C106.433 81.2216 106.534 81.395 106.13 81.9963C106.115 82.0181 106.079 82.0344 106.077 82.055C105.959 83.6418 105.678 85.2344 106.265 86.9163C106.204 87.1532 106.123 87.3711 106.032 87.3747C105.33 87.4033 104.625 87.3905 103.922 87.3905C103.83 87.2521 103.738 87.1137 103.647 86.9753C103.865 86.8932 104.084 86.8112 104.325 86.7928C104.795 86.9479 105.243 87.0393 105.737 87.14C105.737 85.1723 105.737 83.4084 105.737 81.5987C105.379 81.5804 104.948 81.5583 104.646 81.5428C104.554 82.0603 104.477 82.4807 104.406 82.9021C104.38 83.056 104.338 83.2148 104.352 83.3667C104.44 84.2786 104.557 85.1879 104.624 86.101C104.637 86.2668 104.465 86.446 104.367 86.5429C104.355 85.7201 104.355 84.9733 104.355 84.2265C104.257 84.2074 104.16 84.1883 104.062 84.1693C103.693 84.8239 103.259 85.4535 102.989 86.1463C102.892 86.3953 103.2 86.7933 103.302 87.1296C103.339 87.2497 103.314 87.3883 103.317 87.5184C103.055 87.526 102.793 87.5335 102.462 87.4998C102.393 87.4028 102.393 87.3471 102.411 87.2409C102.542 87.1007 102.737 87.0223 102.751 86.9193C102.804 86.5344 102.817 86.1408 102.805 85.7516C102.799 85.5405 102.728 85.3263 102.656 85.124C102.598 84.9587 102.415 84.8042 102.424 84.6532C102.486 83.6469 102.585 82.6428 102.682 81.5237C102.136 81.6134 101.599 81.7015 101.063 81.7896C101.063 81.7896 101.012 81.828 100.945 81.7869C101.054 81.5886 101.204 81.3532 101.408 81.2914C101.774 81.1803 102.172 81.1734 102.557 81.123C102.725 81.1247 102.894 81.1265 103.135 81.1873C103.187 81.4612 103.234 81.714 103.136 81.8845C102.622 82.7803 102.956 83.6798 103.029 84.5953C103.488 83.9684 103.87 83.3339 104.18 82.6669C104.268 82.4795 104.236 82.1109 104.104 81.9736C103.764 81.6208 103.851 81.3808 104.17 81.1191C104.342 81.125 104.514 81.1308 104.79 81.1779C105.139 81.1887 105.382 81.1582 105.626 81.1277Z" fill="#212529"/>
<path d="M13.9025 81.9169C13.7627 81.7923 13.6229 81.6678 13.483 81.5432C13.6423 81.4141 13.7933 81.188 13.9623 81.1737C14.5213 81.1264 15.1033 81.0797 15.6413 81.1951C15.84 81.2378 15.941 81.7311 16.1414 82.1272C16.4849 82.2891 17.108 82.4569 17.5499 82.8345C17.849 83.0901 17.9959 83.6323 18.0317 84.0611C18.1276 85.2082 17.6891 85.5821 15.6684 86.2369C15.7155 86.3779 15.7618 86.5189 15.8096 86.6594C15.8878 86.8892 15.9671 87.1188 16.0459 87.3485C15.7971 87.4084 15.5501 87.5095 15.2992 87.5202C14.7024 87.5457 14.1038 87.5284 13.2568 87.5284C13.5572 87.0535 13.714 86.8289 13.8444 86.59C13.915 86.461 13.9406 86.3076 13.9864 86.1652C13.8261 86.1182 13.6635 86.0247 13.5057 86.032C12.5625 86.0755 11.9926 85.7564 11.6536 84.9626C11.3007 84.1365 11.467 83.331 12.1893 82.7227C12.2626 82.7221 12.3035 82.7621 12.2846 82.8165C12.1401 83.136 11.9945 83.3937 11.8923 83.6674C11.4961 84.7285 12.2907 85.7878 13.4575 85.7283C13.4316 85.5982 13.4064 85.4721 13.4497 85.3353C13.7027 85.3284 13.8872 85.332 14.0703 85.3942C14.1333 85.9674 14.1976 86.4821 14.2711 87.071C14.5556 87.071 14.9386 87.071 15.3514 87.071C15.3514 85.235 15.3514 83.4309 15.3514 81.5224C14.9584 81.616 14.4681 81.7328 13.9591 81.8664C13.9403 81.8833 13.9025 81.9169 13.9025 81.9169ZM16.0193 83.0706C15.088 83.2945 15.5921 84.0345 15.5446 84.5259C15.4682 85.3161 15.6333 85.3843 16.4438 85.2207C16.4211 85.3887 16.3984 85.5567 16.3541 85.8841C17.0321 85.5308 17.5486 85.2388 17.6023 84.5382C17.6575 83.8191 17.7407 83.0671 16.8869 82.6909C16.5011 82.5209 16.1349 82.4183 16.0193 83.0706Z" fill="#212529"/>
<path d="M78.7091 84.3814C78.7395 84.4411 78.7699 84.5007 78.7709 84.6357C78.9126 84.9742 79.0837 85.2375 79.2683 85.5544C79.4453 85.8304 79.609 86.0527 79.7819 86.3216C79.8418 86.4426 79.8924 86.5171 79.9624 86.6366C79.9165 86.8553 79.8511 87.029 79.7316 87.2018C79.6057 87.1948 79.5339 87.1887 79.4145 87.1452C79.1411 87.0641 78.9152 87.0204 78.6893 86.9767C78.7384 86.9252 78.7876 86.8737 78.8367 86.8222C78.6072 86.4828 78.3777 86.1434 78.1528 85.7935C78.1574 85.783 78.1455 85.8035 78.1495 85.7435C78.0327 85.4206 77.9695 85.094 77.7713 84.9163C77.6317 84.7911 77.3087 84.8681 77.0676 84.8549C77.1524 85.4409 77.2373 86.027 77.3398 86.6408C77.3574 86.6687 77.3861 86.728 77.3654 86.7913C76.9119 86.9493 76.4791 87.044 75.961 87.1574C75.9896 86.8753 76.0108 86.7762 76.0079 86.6778C75.9759 85.5765 75.9401 84.4753 75.9054 83.3741C75.9029 83.3029 75.9005 83.2317 75.9432 83.0819C75.9684 82.8593 75.9485 82.7153 75.9283 82.5168C75.8809 82.3343 75.8336 82.2065 75.7863 82.0787C75.7641 82.0211 75.7419 81.9634 75.7455 81.8085C76.371 81.6736 76.9708 81.6359 77.5537 81.6489C77.4601 81.8186 77.3831 81.9378 77.2487 82.082C77.1411 82.4559 77.0411 82.8073 77.0584 83.1529C77.0702 83.387 77.247 83.6129 77.35 83.8425C77.5584 83.627 77.7667 83.4115 77.9766 83.1899C77.978 83.1838 77.9846 83.1731 78.0357 83.2109C78.1446 83.311 78.2024 83.3733 78.2603 83.4356C78.2855 83.5853 78.3108 83.735 78.3434 83.98C78.4702 84.1774 78.5897 84.2794 78.7091 84.3814Z" fill="#212529"/>
<path d="M68.4482 83.7956C68.2178 83.885 67.9768 83.9925 67.8341 84.1758C67.5396 84.5541 67.1713 84.8552 66.7764 84.5036C66.6315 84.3745 66.73 83.6662 66.9344 83.518C67.4673 83.1314 68.1047 82.7235 68.7295 82.6718C69.3635 82.6192 69.958 83.1173 70.0949 83.8229C70.1831 84.2774 70.0404 84.7721 70.093 85.2385C70.1567 85.8037 70.3172 86.358 70.4839 87.1437C70.1322 87.6994 69.6944 87.7949 68.8426 87.3476C68.683 87.2638 68.3905 87.3128 68.2123 87.4035C67.6916 87.6685 67.1603 87.8307 66.7693 87.2915C66.3998 86.7819 66.3734 86.1701 66.8427 85.6863C67.1905 85.3278 67.6683 85.094 68.0157 84.7353C68.2391 84.5046 68.3312 84.1482 68.4482 83.7956ZM67.914 86.4616C68.0962 86.4405 68.4031 86.4711 68.4377 86.3887C68.5507 86.1192 68.5646 85.8085 68.6505 85.321C68.2167 85.5626 68.0157 85.6745 67.7131 85.7307C67.2406 85.4545 66.9984 85.7582 67.0163 86.1327C67.0354 86.5332 67.2353 86.9348 67.422 87.303C67.4412 87.3408 67.9088 87.1536 68.1103 87.0893C67.9581 86.7651 67.8781 86.5947 67.914 86.4616ZM68.945 83.9253C68.8637 84.2574 68.7324 84.5866 68.713 84.9222C68.6858 85.3932 68.6747 85.885 68.7838 86.3376C68.8684 86.6891 69.0973 87.0481 69.3642 87.2943C69.4746 87.3961 69.8515 87.2122 69.9425 87.1931C69.872 86.4847 69.8109 85.9355 69.7642 85.3851C69.7129 84.7793 69.709 84.1665 69.6062 83.57C69.5813 83.4251 69.2498 83.3324 69.0593 83.2157C69.0215 83.4107 68.9838 83.6056 68.945 83.9253Z" fill="#212529"/>
<path d="M62.3456 86.2122C62.2806 85.3348 62.2147 84.5231 62.1405 83.6084C61.8786 83.7205 61.726 83.8037 61.5628 83.8512C61.3367 83.9169 61.1027 83.9558 60.8721 84.0062C60.892 83.6517 60.8614 83.2829 60.9573 82.9501C60.9942 82.8219 61.3597 82.6594 61.5055 82.7104C62.6951 83.1268 63.8616 83.0595 65.1972 82.5898C65.2477 82.9826 65.3862 83.3631 65.3158 83.7005C65.2399 84.0646 64.9517 84.2999 64.5321 83.965C64.3871 83.8492 64.1902 83.7978 64.017 83.717C63.9375 83.9306 63.7835 84.147 63.7914 84.3573C63.8287 85.3437 63.9105 86.3285 63.9829 87.4107C63.392 87.4107 62.624 87.4107 61.6839 87.4107C61.9468 86.96 62.1458 86.6189 62.3456 86.2122ZM62.8963 86.9048C63.0586 86.7848 63.357 86.6699 63.3617 86.5442C63.3998 85.5164 63.3832 84.4866 63.3832 83.1888C63.0496 83.4482 62.6848 83.599 62.6825 83.7551C62.6674 84.7867 62.73 85.8196 62.8963 86.9048Z" fill="#212529"/>
<path d="M45.4154 87.152C45.0646 86.9015 44.6075 86.7222 44.381 86.3882C43.3202 84.8248 43.512 82.0752 45.652 81.1966C46.4033 80.8882 47.3829 81.0253 48.2351 81.1355C48.4577 81.1643 48.6216 81.8467 48.7496 82.2487C48.7813 82.3484 48.5903 82.6093 48.4607 82.6437C48.3273 82.6792 48.1057 82.5668 47.9897 82.4522C47.6447 82.1112 47.5706 81.3606 46.8066 81.6828C46.0537 82.0003 45.6775 82.6568 45.6919 83.4008C45.7118 84.4229 45.9098 85.4415 45.9737 86.5221C44.4016 84.8909 45.241 83.1955 46.0231 81.4596C44.5455 81.9835 43.6367 84.1661 44.2973 85.5137C44.5852 86.1009 45.0377 86.6083 45.4154 87.152Z" fill="#212529"/>
<path d="M55.5468 87.3726C54.9678 87.3977 54.3888 87.4227 53.7466 87.4014C53.6611 87.259 53.6388 87.163 53.6284 87.0343C53.6404 87.0017 53.6652 86.9368 53.7131 86.9268C53.8268 86.8136 53.8926 86.7104 53.9722 86.5372C54.0091 85.7181 54.0322 84.9687 54.0753 84.1574C53.9845 83.7453 53.8737 83.3953 53.7905 83.005C53.8797 82.7782 53.9412 82.5917 54.0026 82.3492C53.9394 82.1645 53.8763 82.0359 53.8056 81.8425C54.3048 81.0833 54.9328 81.5879 55.525 81.4768C55.4087 81.8965 55.262 82.1906 55.2563 82.4875C55.2327 83.7077 55.2389 84.9291 55.2684 86.1492C55.2734 86.3546 55.4474 86.5559 55.5465 86.8204C55.5488 87.0453 55.5478 87.209 55.5468 87.3726Z" fill="#212529"/>
<path d="M42.1126 86.6438C42.1795 86.7533 42.2463 86.8628 42.2887 87.0698C41.5098 87.2648 40.7552 87.3621 40.0715 87.4504C40.1909 86.5655 40.2909 85.8789 40.3743 85.1903C40.4453 84.603 40.2439 84.3154 39.5751 84.3199C38.926 84.3243 38.705 84.5735 38.7521 85.1802C38.7682 85.3869 38.7053 85.5996 38.6275 85.7802C38.5484 84.5329 38.5166 83.315 38.5024 82.0968C38.5017 82.0325 38.6503 81.9664 38.7463 81.9168C38.7634 81.9324 38.7971 81.9641 38.7884 82.013C38.7849 82.1277 38.7901 82.1934 38.7858 82.3263C38.7851 82.6641 38.794 82.9347 38.7876 83.2638C38.9348 83.4816 39.0972 83.641 39.3213 83.8129C40.2172 83.8866 40.4654 83.441 40.3595 82.6992C40.3299 82.492 40.2764 82.2882 40.2247 82.0283C39.8859 81.5942 39.836 81.3114 40.4691 81.2939C40.8979 81.2821 41.342 81.2251 41.75 81.3169C41.954 81.3629 42.0926 81.6967 42.2608 81.9003C42.154 82.0824 42.0473 82.2645 41.906 82.5612C41.8587 83.8045 41.8325 84.9334 41.8461 86.0619C41.8485 86.2569 42.0195 86.4499 42.1126 86.6438ZM40.8367 81.6095C40.7581 81.6668 40.6081 81.7289 40.6115 81.7809C40.6773 82.785 40.7669 83.7875 40.8363 84.7914C40.8508 85.0002 40.8123 85.2142 40.7849 85.4241C40.7178 85.9378 40.643 86.4506 40.5622 87.0284C40.9657 86.959 41.291 86.903 41.6074 86.8485C41.6074 85.0718 41.6074 83.3637 41.6074 81.6024C41.4415 81.6024 41.2044 81.6024 40.8367 81.6095Z" fill="#212529"/>
<path d="M101.113 81.824C101.599 81.7012 102.136 81.6132 102.682 81.5234C102.585 82.6426 102.486 83.6467 102.424 84.653C102.415 84.8039 102.598 84.9585 102.656 85.1237C102.728 85.326 102.799 85.5403 102.805 85.7513C102.817 86.1405 102.804 86.5341 102.752 86.9191C102.737 87.022 102.542 87.1004 102.348 87.2306C102.053 87.2809 101.84 87.2907 101.579 87.2636C101.429 87.0558 101.327 86.8849 101.226 86.7141C101.282 85.2302 101.343 83.7466 101.382 82.2623C101.386 82.1297 101.239 81.9933 101.113 81.824Z" fill="#212529"/>
<path d="M50.8647 86.5819C50.8804 85.1326 50.8962 83.6833 50.9452 82.1284C51.0444 81.8837 51.1141 81.6232 51.1758 81.625C51.6097 81.638 52.0421 81.705 52.4346 81.7861C52.3815 81.9146 52.3687 82.0118 52.3489 82.108C52.342 82.107 52.3351 82.0948 52.27 82.1058C52.1607 83.1525 52.0955 84.1883 52.0976 85.224C52.0979 85.3597 52.4435 85.4947 52.6276 85.6671C52.626 85.7042 52.6099 85.7767 52.5796 85.7955C52.5135 85.8491 52.493 85.8912 52.4782 85.9727C52.4689 86.0049 52.4595 86.0713 52.4058 86.0867C52.3456 86.316 52.339 86.5297 52.3265 86.7939C52.2163 86.9695 52.1121 87.0947 51.9401 87.2199C51.6465 87.2188 51.4207 87.2177 51.1662 87.1764C51.0504 87.0073 50.9631 86.8784 50.8799 86.7071C50.8775 86.6371 50.8711 86.6095 50.8647 86.5819Z" fill="#212529"/>
<path d="M98.3383 87.4153C97.1127 87.4597 95.8871 87.5042 94.6323 87.604C94.603 87.6594 94.6041 87.6701 94.5556 87.6885C94.4564 87.8196 94.4058 87.9323 94.3551 88.045C94.3551 88.045 94.3251 88.105 94.2506 88.1437C93.9639 88.1737 93.7517 88.1649 93.5396 88.1561C93.5438 87.8565 93.548 87.5568 93.6048 87.1709C94.3183 86.5962 94.8398 86.0313 94.7412 85.1268C94.7599 85.0107 94.7786 84.8946 94.7929 84.7196C95.0109 83.5928 95.4609 82.5153 94.4903 81.2891C95.2762 81.3649 95.8848 81.4236 96.4934 81.4823C95.5726 81.6889 95.6378 82.3287 95.6083 83.0156C95.5697 83.9146 95.4044 84.811 95.2507 85.7012C95.1705 86.1656 95.022 86.6243 95.5895 86.8654C96.2041 87.1265 97.0268 86.8589 97.3794 86.3389C97.4659 86.5499 97.4659 86.769 97.4659 86.877C97.7985 87.0822 98.0684 87.2487 98.3383 87.4153Z" fill="#212529"/>
<path d="M21.5981 86.656C21.8074 86.8399 22.0166 87.0237 22.2259 87.2076C22.0181 87.3227 21.8209 87.5051 21.6005 87.5394C21.0762 87.6209 20.5399 87.6704 20.0108 87.6546C19.7739 87.6475 19.482 87.502 19.3337 87.3224C19.2563 87.2285 19.4326 86.9235 19.5003 86.7159C19.6202 86.3485 19.829 85.9873 19.8503 85.615C19.9021 84.7111 19.8857 83.8018 19.857 82.8959C19.8483 82.6235 19.7598 82.3249 19.6192 82.0911C19.2912 81.5456 19.4304 81.1899 20.0607 81.1192C20.5364 81.0658 21.0155 80.9873 21.49 81.0043C21.7101 81.0122 21.9928 81.1741 22.1145 81.3546C22.1967 81.4767 22.0638 81.7583 21.9982 81.9593C21.8885 82.2954 21.6639 82.6203 21.6493 82.9568C21.5983 84.1282 21.6167 85.3025 21.5317 86.528C21.2632 84.8976 21.1107 83.2169 21.5985 81.5261C21.0951 81.5261 20.4927 81.5261 19.9836 81.5261C20.2712 83.4506 20.3183 85.2903 19.9233 87.2293C20.3369 87.2293 20.7352 87.2027 21.1284 87.2361C21.6093 87.2771 21.6807 87.0406 21.5981 86.656Z" fill="#212529"/>
<path d="M10.2137 87.1803C9.48632 86.5238 8.80759 85.8852 8.1455 85.23C7.78267 84.8709 7.87832 84.5115 8.212 84.1817C8.74295 83.657 9.25364 83.1089 9.81916 82.624C9.97393 82.4913 10.2938 82.5491 10.5379 82.5195C10.5032 82.7335 10.546 83.0295 10.4203 83.1471C9.87767 83.6545 9.28566 84.1096 8.70644 84.588C9.39589 85.2849 9.87923 85.772 10.3607 86.2608C10.7004 86.6057 10.8262 86.9324 10.2137 87.1803Z" fill="#212529"/>
<path d="M116.063 87.1314C115.327 86.9573 115.513 86.5793 115.851 86.227C116.163 85.901 116.511 85.6037 116.87 85.3276C117.459 84.8748 117.279 84.505 116.799 84.1181C116.445 83.8336 116.089 83.5431 115.791 83.2049C115.664 83.0603 115.684 82.7877 115.637 82.5732C115.877 82.5885 116.203 82.5094 116.343 82.6351C116.973 83.2036 117.576 83.809 118.128 84.4532C118.24 84.5842 118.179 85.0236 118.039 85.1778C117.428 85.8501 116.759 86.4696 116.063 87.1314Z" fill="#212529"/>
<path d="M6.43095 84.1581C6.9453 83.6448 7.39712 83.1477 7.90137 82.7104C8.05404 82.578 8.35182 82.6111 8.58313 82.5684C8.52813 82.7957 8.53854 83.0756 8.4051 83.2399C8.08639 83.6324 7.70141 83.9719 7.34027 84.3299C7.01625 84.6511 6.96005 84.9252 7.37411 85.2516C7.79236 85.5812 8.17922 85.9613 8.52399 86.3663C8.65132 86.5159 8.61951 86.7996 8.66028 87.022C8.4093 86.989 8.08095 87.0446 7.92141 86.9069C7.37945 86.4389 6.89281 85.9067 6.39343 85.3909C6.01529 85.0005 5.83243 84.5972 6.43095 84.1581Z" fill="#212529"/>
<path d="M45.4656 87.1817C45.0375 86.6077 44.585 86.1003 44.2971 85.5131C43.6365 84.1655 44.5452 81.9829 46.0228 81.459C45.2408 83.1949 44.4013 84.8903 45.9721 86.5854C46.0286 86.5887 46.0589 86.63 46.0475 86.721C45.9743 86.9809 45.9125 87.1499 45.8506 87.3188C45.7391 87.2832 45.6275 87.2476 45.4656 87.1817Z" fill="#212529"/>
<path d="M113.768 86.9625C114.084 86.433 114.378 85.9132 114.772 85.4851C115.487 84.7094 115.514 84.7306 114.751 83.9936C114.464 83.7155 114.131 83.4742 113.89 83.1621C113.777 83.0169 113.833 82.7429 113.813 82.5272C114.031 82.5458 114.328 82.4805 114.454 82.5973C115.021 83.1217 115.572 83.6716 116.056 84.2707C116.211 84.4637 116.281 84.944 116.153 85.107C115.627 85.7721 115.025 86.3813 114.412 86.9707C114.298 87.0804 114.003 87.004 113.768 86.9625Z" fill="#212529"/>
<path d="M16.3555 93.3545C16.4222 94.1055 16.1158 94.3636 15.4197 94.3387C14.8098 94.3168 14.4668 94.1666 14.4788 93.4785C14.4891 92.8868 14.5615 92.4187 15.2888 92.3673C15.9656 92.3194 16.3767 92.5537 16.3555 93.3545Z" fill="#212529"/>
<path d="M28.7948 93.1102C28.7936 93.7671 28.8907 94.4064 27.9322 94.3316C27.4462 94.2937 26.97 94.3159 26.9795 93.6605C26.986 93.2091 26.8005 92.618 27.4886 92.484C28.022 92.38 28.6577 92.1854 28.7948 93.1102Z" fill="#212529"/>
<path d="M91.8948 81.373C90.7036 81.4333 89.5002 81.4333 88.2614 81.4333C89.039 83.1073 88.5478 84.7905 88.66 86.4278C88.6796 86.7136 88.5357 87.0106 88.4849 87.3581C88.3129 87.4253 88.1233 87.4368 87.9336 87.4482C87.9324 87.2446 87.8452 86.9331 87.9441 86.8552C88.5163 86.4046 88.3291 85.798 88.3438 85.2369C88.3613 84.5713 88.3945 83.9006 88.3332 83.2402C88.2917 82.792 88.0384 82.3633 87.9962 81.915C87.9683 81.6196 88.1579 81.0361 88.2319 81.0391C89.4505 81.0873 90.6663 81.2082 91.8948 81.373Z" fill="#212529"/>
<path d="M24.8587 92.4748C25.7771 92.4234 25.7792 92.988 25.7512 93.594C25.719 94.29 25.237 94.2924 24.7252 94.3034C24.062 94.3176 23.9172 93.9136 23.8966 93.3711C23.8728 92.7435 24.11 92.3922 24.8587 92.4748Z" fill="#212529"/>
<path d="M108.464 92.7562C108.967 92.6512 109.454 92.5238 109.911 92.591C110.051 92.6115 110.154 93.1631 110.197 93.4817C110.283 94.1206 109.911 94.2953 109.327 94.3129C108.732 94.3309 108.394 94.1354 108.386 93.5201C108.383 93.2831 108.418 93.0457 108.464 92.7562Z" fill="#212529"/>
<path d="M68.9593 92.4908C69.8747 92.4023 69.7976 92.9884 69.796 93.5319C69.794 94.1829 69.3962 94.2892 68.8442 94.3154C68.0338 94.3538 68.0349 93.8273 68.0011 93.2733C67.961 92.6155 68.315 92.4318 68.9593 92.4908Z" fill="#212529"/>
<path d="M83.6563 92.9709C84.0152 92.2259 84.6923 92.3535 85.1177 92.5912C85.3848 92.7404 85.4704 93.4144 85.4218 93.8278C85.3996 94.0163 84.8495 94.2762 84.5505 94.2619C84.2533 94.2477 83.918 93.9757 83.7023 93.7281C83.5786 93.5861 83.6596 93.2678 83.6563 92.9709Z" fill="#212529"/>
<path d="M63.5902 93.8135C63.2469 94.4082 62.6913 94.4327 62.2491 94.2142C61.9978 94.09 61.8774 93.5971 61.8048 93.2482C61.7115 92.7997 61.8829 92.4715 62.4339 92.4766C62.9484 92.4815 63.4909 92.4175 63.5889 93.1278C63.6175 93.3356 63.6009 93.5496 63.5902 93.8135Z" fill="#212529"/>
<path d="M49.7465 94.2738C49.5836 93.7734 49.4096 93.2882 49.4172 92.8059C49.4191 92.6912 50.0214 92.5355 50.3603 92.4873C50.9902 92.3977 51.1104 92.7939 51.1149 93.3276C51.1195 93.8743 51.0352 94.2958 50.3645 94.2983C50.1769 94.299 49.9894 94.293 49.7465 94.2738Z" fill="#212529"/>
<path d="M46.2967 93.5852C46.2281 92.8484 46.3289 92.3518 47.215 92.4654C47.6338 92.519 48.072 92.4787 48.0308 93.0657C47.9987 93.5224 48.2782 94.1851 47.4985 94.2707C47.0137 94.3239 46.3541 94.5043 46.2967 93.5852Z" fill="#212529"/>
<path d="M10.2119 93.0927C10.1824 94.2422 10.0751 94.3717 9.27156 94.2729C8.83978 94.2197 8.33541 94.1836 8.42064 93.5789C8.47326 93.2055 8.62974 92.6104 8.85912 92.5478C9.31766 92.4225 10.0203 92.1854 10.2119 93.0927Z" fill="#212529"/>
<path d="M64.8818 93.0915C65.0885 92.5572 66.1027 92.1807 66.3366 92.5607C66.5721 92.9433 66.6439 93.6245 66.4478 93.9987C66.3243 94.2342 65.562 94.2276 65.1167 94.152C64.9847 94.1296 64.9561 93.504 64.8818 93.0915Z" fill="#212529"/>
<path d="M119.249 93.5816C118.998 93.8615 118.769 94.2226 118.495 94.2606C118.19 94.3028 117.648 94.1285 117.56 93.9089C117.418 93.5562 117.414 92.965 117.631 92.7056C117.837 92.4597 118.474 92.3457 118.785 92.4823C119.044 92.5961 119.104 93.1573 119.249 93.5816Z" fill="#212529"/>
<path d="M100.129 94.3011C99.1441 94.3713 99.2242 93.7292 99.2076 93.1276C99.1901 92.4946 99.5878 92.4788 100.057 92.4785C100.547 92.4783 101.006 92.4743 100.979 93.1482C100.958 93.6928 101.093 94.3509 100.129 94.3011Z" fill="#212529"/>
<path d="M113.079 93.5826C113.045 94.1367 112.771 94.4013 112.291 94.2864C111.972 94.2102 111.487 94.0325 111.435 93.8156C111.343 93.4274 111.381 92.8319 111.628 92.5936C111.842 92.3881 112.465 92.4561 112.821 92.606C113.005 92.6833 113 93.2023 113.079 93.5826Z" fill="#212529"/>
<path d="M40.9686 92.5615C41.5062 93.6648 41.2234 94.3235 40.3145 94.3039C39.5671 94.2878 39.4767 93.8689 39.4684 93.2525C39.4594 92.5784 39.7846 92.4142 40.3629 92.4715C40.5485 92.4899 40.7341 92.5071 40.9686 92.5615Z" fill="#212529"/>
<path d="M105.957 94.2379C105.174 93.9067 105.298 93.2294 105.56 92.8176C105.729 92.553 106.414 92.487 106.825 92.5623C106.998 92.594 107.153 93.2208 107.144 93.5725C107.137 93.81 106.866 94.0919 106.641 94.2529C106.503 94.3507 106.228 94.2562 105.957 94.2379Z" fill="#212529"/>
<path d="M53.8057 81.8425C53.3243 81.8891 53.2183 81.6495 53.441 81.1808C54.1303 81.1265 54.8002 81.0927 55.4644 81.1389C55.6906 81.1546 55.9463 81.3356 56.0975 81.5164C56.1508 81.58 55.9301 81.8673 55.8391 82.0546C55.7625 82.2121 55.6275 82.3736 55.6296 82.5319C55.6475 83.883 55.6907 85.2338 55.6843 86.6658C55.6093 86.7509 55.5763 86.755 55.5434 86.7591C55.4475 86.5559 55.2735 86.3546 55.2685 86.1492C55.239 84.9291 55.2328 83.7077 55.2564 82.4875C55.2621 82.1906 55.4088 81.8965 55.5251 81.4768C54.9329 81.5879 54.3048 81.0833 53.8057 81.8425Z" fill="#212529"/>
<path d="M38.7976 86.7164C39.0248 86.7919 39.2519 86.8673 39.4791 86.9427C39.3775 87.0899 39.276 87.237 39.1744 87.3842C38.5495 87.3842 37.9216 87.4152 37.3024 87.3564C37.1871 87.3454 37.1065 86.9731 37.0184 86.7029C37.0268 86.6383 37.0235 86.6293 37.0877 86.608C37.2114 86.4482 37.3225 86.3096 37.3222 86.1713C37.3196 84.9689 37.2971 83.7665 37.2805 82.564C37.2838 82.4971 37.2872 82.4301 37.2884 82.2551C37.1881 81.9456 37.0899 81.7441 36.8809 81.3153C37.6582 81.3153 38.2939 81.2887 38.9229 81.3412C39.0292 81.3501 39.1068 81.6996 39.1685 81.8984C39.1393 81.9051 39.0843 81.9286 39.0357 81.928C38.9236 81.9396 38.8601 81.9518 38.7967 81.9639C38.7967 81.9639 38.763 81.9323 38.7421 81.8567C38.337 81.7083 37.9528 81.6354 37.5636 81.5615C37.5636 83.4718 37.5636 85.2209 37.5636 87.2143C38.0175 87.0311 38.4076 86.8738 38.7976 86.7164Z" fill="#212529"/>
<path d="M86.6533 93.5944C86.6606 92.472 86.993 92.1449 87.9931 92.3693C88.2313 92.4227 88.5377 92.8551 88.5393 93.1148C88.5418 93.5237 88.4348 94.0851 88.154 94.3099C87.6774 94.6914 86.8901 94.2809 86.6533 93.5944ZM87.1709 93.1147C87.2631 93.3574 87.3033 93.6491 87.4686 93.8232C87.5571 93.9165 87.9444 93.8827 88.047 93.7706C88.1782 93.6271 88.2562 93.3074 88.1851 93.1331C87.9776 92.6248 87.5866 92.7757 87.1709 93.1147Z" fill="#212529"/>
<path d="M91.6756 93.7293C91.3896 94.3534 90.6027 94.5923 90.095 94.2732C89.6646 94.0026 89.542 93.0531 89.8817 92.6203C90.1586 92.2677 91.2151 92.1549 91.4719 92.5401C91.6666 92.832 91.6192 93.2836 91.6756 93.7293ZM90.8302 92.8133C90.5879 92.9382 90.2805 93.0139 90.1316 93.2092C90.0604 93.3027 90.2472 93.7649 90.3928 93.8081C90.6328 93.8794 90.9342 93.7462 91.2098 93.6992C91.1322 93.4083 91.0546 93.1174 90.8302 92.8133Z" fill="#212529"/>
<path d="M30.3974 94.3033C30.2257 93.8791 30.0146 93.4864 30.0127 93.0927C30.01 92.5277 30.3859 92.2913 30.9773 92.297C31.5764 92.3027 31.959 92.4845 32.0289 93.1151C32.1503 94.2116 31.8529 94.4413 30.3974 94.3033ZM30.3696 93.2478C30.2891 93.8909 30.6754 94.0908 31.184 93.9335C31.3984 93.8672 31.5388 93.4739 31.6426 93.2026C31.6716 93.1271 31.4351 92.8395 31.3454 92.8506C31.0178 92.8909 30.7007 93.0163 30.3696 93.2478Z" fill="#212529"/>
<path d="M82.3107 92.4117C82.3904 92.8628 82.4889 93.2548 82.4797 93.6442C82.4688 94.1138 82.2496 94.4725 81.6917 94.4393C81.1862 94.4092 80.4982 94.6546 80.3407 93.9404C80.2243 93.4128 79.9944 92.6511 80.6594 92.3621C81.1148 92.1642 81.7351 92.3417 82.3107 92.4117ZM81.202 94.1089C81.6596 94.1152 82.1161 94.0724 82.0629 93.4635C82.0398 93.1992 81.8674 92.7468 81.7279 92.7332C81.3815 92.6994 80.8206 92.7632 80.7012 92.9808C80.5107 93.328 80.4677 93.8824 81.202 94.1089Z" fill="#212529"/>
<path d="M22.8155 92.8522C22.9974 94.2718 22.881 94.4299 21.8347 94.4516C21.2746 94.4632 20.742 94.416 20.7649 93.7254C20.7809 93.2416 20.8635 92.4848 21.155 92.3463C21.6598 92.1062 22.4367 91.9687 22.8155 92.8522ZM22.0367 94.0174C22.6711 93.9506 22.4939 93.457 22.4645 93.1078C22.4514 92.9532 22.1916 92.71 22.0301 92.6986C21.6251 92.67 21.0808 92.4692 21.0061 93.1932C20.9362 93.8704 21.2472 94.1129 22.0367 94.0174Z" fill="#212529"/>
<path d="M75.889 94.3083C75.5984 94.3681 75.3511 94.4418 75.1266 94.3984C74.81 94.3372 74.2749 94.2303 74.247 94.0711C74.1597 93.5732 74.1441 92.9846 74.35 92.5473C74.452 92.3308 75.1114 92.2774 75.4972 92.3243C75.7428 92.3542 76.1153 92.6875 76.1375 92.9134C76.1811 93.3549 76.0193 93.8165 75.889 94.3083ZM75.788 93.5568C75.7324 93.2317 75.9725 92.7203 75.3688 92.7221C75.0708 92.723 74.656 92.8336 74.5121 93.0429C74.3944 93.214 74.5735 93.8459 74.6669 93.8561C75.0263 93.8952 75.4042 93.7665 75.788 93.5568Z" fill="#212529"/>
<path d="M98.0194 94.1101C97.4141 94.2222 96.8153 94.3849 96.2787 94.2672C96.0921 94.2263 95.9781 93.4928 95.9733 93.0739C95.9638 92.2599 96.5455 92.1831 97.1999 92.2292C97.8192 92.2728 98.2495 92.4681 98.1666 93.1897C98.1336 93.4773 98.0895 93.7636 98.0194 94.1101ZM96.6272 94.0515C96.7319 94.0706 96.836 94.0944 96.9414 94.1079C97.5478 94.1857 97.7291 93.8957 97.7405 93.3196C97.7534 92.6689 97.3784 92.6387 96.91 92.6715C96.2475 92.7179 96.1216 93.1431 96.6272 94.0515Z" fill="#212529"/>
<path d="M93.4198 92.2344C94.7992 92.2391 94.9522 92.3552 94.9534 93.3437C94.9546 94.3022 94.8035 94.4387 93.828 94.4513C93.3413 94.4577 92.8527 94.4376 92.7788 93.8488C92.7028 93.2433 92.5073 92.541 93.4198 92.2344ZM93.1648 93.5351C93.1729 94.1901 93.6436 94.1483 94.0729 94.0987C94.6118 94.0363 94.6361 93.6235 94.6161 93.2011C94.5904 92.6605 94.1991 92.6895 93.8142 92.6624C93.2564 92.623 93.1099 92.9114 93.1648 93.5351Z" fill="#212529"/>
<path d="M103.006 94.4722C102.196 94.5703 102.166 94.0047 102.098 93.5182C102.018 92.9491 102.139 92.3888 102.786 92.2767C103.192 92.2064 103.904 92.2512 104.016 92.4744C104.24 92.9188 104.259 93.5516 104.129 94.0458C104.072 94.2605 103.439 94.3251 103.006 94.4722ZM103.701 92.7437C103.49 92.7178 103.28 92.6822 103.069 92.668C102.562 92.634 102.425 92.919 102.439 93.3698C102.453 93.8006 102.573 94.0861 103.074 94.1104C103.8 94.1457 103.941 93.9139 103.701 92.7437Z" fill="#212529"/>
<path d="M56.6613 92.236C57.7784 92.2997 57.4197 93.1147 57.4694 93.6688C57.5202 94.235 57.1512 94.506 56.6094 94.4306C56.2251 94.377 55.6434 94.3138 55.5287 94.075C55.3386 93.6788 55.3669 93.1204 55.4606 92.6622C55.5877 92.0403 56.1671 92.2679 56.6613 92.236ZM55.74 93.8031C56.1755 93.8495 56.6179 93.9495 57.0406 93.8962C57.1234 93.8857 57.2773 93.1727 57.1332 92.9789C56.9706 92.7601 56.5032 92.669 56.1774 92.6869C55.512 92.7235 55.7438 93.2805 55.74 93.8031Z" fill="#212529"/>
<path d="M5.22495 94.2413C5.12979 93.7285 4.99318 93.2509 5.05686 92.8013C5.15698 92.0945 5.78292 92.2486 6.27206 92.2375C6.84513 92.2245 7.17031 92.5216 7.23518 93.0774C7.37865 94.3067 6.6576 94.7484 5.22495 94.2413ZM6.64146 92.7378C6.48604 92.7147 6.31625 92.6408 6.17823 92.6794C5.89933 92.7574 5.50544 92.8294 5.40371 93.0279C5.28685 93.2559 5.32554 93.7436 5.49572 93.8907C5.71029 94.0762 6.35865 94.1606 6.41359 94.0628C6.61464 93.7049 6.64701 93.2533 6.64146 92.7378Z" fill="#212529"/>
<path d="M12.4245 94.4431C11.5826 94.527 11.273 94.1702 11.3171 93.4153C11.3531 92.7989 11.3473 92.2044 12.2291 92.2272C12.8186 92.2425 13.3785 92.2027 13.4076 93.0446C13.4457 94.1497 13.3483 94.3372 12.4245 94.4431ZM11.6507 93.2702C11.6182 93.7277 11.7203 94.1214 12.2864 94.012C12.5727 93.9567 12.9792 93.7688 13.0481 93.5518C13.1211 93.322 12.9172 92.7952 12.7293 92.7377C12.3615 92.6253 11.7862 92.4163 11.6507 93.2702Z" fill="#212529"/>
<path d="M115.192 94.4085C114.168 94.3018 114.405 93.5798 114.432 93.0092C114.473 92.128 115.152 92.2443 115.728 92.2831C116.434 92.3306 116.345 92.9139 116.363 93.3614C116.392 94.0915 116.075 94.5284 115.192 94.4085ZM115.995 93.1274C115.837 92.5093 115.329 92.6195 114.971 92.7639C114.796 92.8346 114.654 93.3218 114.723 93.5542C114.782 93.7518 115.151 93.9423 115.406 93.9804C115.917 94.0567 116.024 93.692 115.995 93.1274Z" fill="#212529"/>
<path d="M24.1561 82.3312C24.1671 82.1937 24.1854 82.1209 24.2728 82.002C24.4101 82.218 24.5333 82.4793 24.5372 82.7423C24.5571 84.1023 24.5464 85.4627 24.5464 86.9842C24.8291 86.844 25.0961 86.7116 25.3631 86.5792C25.4857 86.7237 25.6084 86.8682 25.8564 87.1604C25.1108 87.1604 24.572 87.1604 24.1857 87.1604C24.1857 86.3668 24.1857 85.5679 24.1473 84.7176C24.1271 83.9094 24.1452 83.1526 24.1561 82.3312Z" fill="#212529"/>
<path d="M34.9136 94.3753C34.6668 94.4086 34.4809 94.4243 34.295 94.4247C33.3874 94.4266 33.2072 94.1889 33.2744 93.0877C33.318 92.3726 33.612 92.1727 34.4886 92.2622C35.1062 92.3252 35.4104 92.8012 35.2703 93.5548C35.2194 93.8289 35.0758 94.0858 34.9136 94.3753ZM34.6181 92.7863C34.3097 92.7626 34.0012 92.7389 33.705 92.7161C33.405 93.9282 33.5085 94.0461 34.8304 93.9283C35.0796 93.5381 35.2141 93.1565 34.6181 92.7863Z" fill="#212529"/>
<path d="M44.1216 92.2863C44.303 92.6528 44.5542 93.014 44.5088 93.3335C44.4544 93.7165 44.2139 94.2954 43.9343 94.3752C43.4565 94.5117 42.6647 94.7277 42.451 94.0462C42.3006 93.5664 42.4349 92.8587 42.7187 92.437C42.8842 92.1913 43.5948 92.3085 44.1216 92.2863ZM43.9942 93.9713C44.0177 93.5796 44.0413 93.1879 44.0648 92.7961C43.6756 92.7787 43.2569 92.672 42.9109 92.7853C42.7608 92.8344 42.6538 93.3597 42.7132 93.628C42.8638 94.3077 43.4123 94.1235 43.9942 93.9713Z" fill="#212529"/>
<path d="M79.1295 94.1148C78.5604 94.2118 77.7672 94.4762 77.5411 94.2285C77.2411 93.8999 77.2423 93.1361 77.3718 92.6237C77.5386 91.9635 78.2324 92.2453 78.691 92.2712C78.8906 92.2825 79.1859 92.6428 79.2301 92.8826C79.299 93.2562 79.191 93.662 79.1295 94.1148ZM77.6816 93.9637C78.1308 94.1557 78.5864 94.3928 78.9489 93.6535C78.9037 93.2819 79.1903 92.777 78.4926 92.6838C77.5735 92.561 77.397 92.7879 77.6816 93.9637Z" fill="#212529"/>
<path d="M78.0356 83.212C78.0562 83.0061 78.1328 82.84 78.1986 82.6697C78.3342 82.3185 78.464 81.9651 78.5088 81.5724C79.1809 81.0697 80.0714 81.1902 80.2464 81.8387C79.2681 81.9744 78.9631 82.8754 78.3063 83.4154C78.2024 83.3744 78.1446 83.3121 78.0356 83.212Z" fill="#212529"/>
<path d="M77.3654 86.7927C77.4785 86.8649 77.5709 87.0004 77.6633 87.1359C77.5213 87.221 77.3838 87.3697 77.2367 87.3797C76.7346 87.4136 76.2292 87.3987 75.6495 87.4131C75.5739 87.4238 75.5049 87.3974 75.4692 87.3345C75.4961 87.0531 75.5586 86.8346 75.6211 86.616C75.67 85.8324 75.7193 85.0488 75.7677 84.2651C75.7841 84.0009 75.7983 83.7364 75.8594 83.4238C75.9401 84.4768 75.9759 85.5779 76.0079 86.6792C76.0108 86.7777 75.9896 86.8768 75.961 87.1588C76.4791 87.0455 76.9119 86.9507 77.3654 86.7927Z" fill="#212529"/>
<path d="M60.5543 92.868C60.5758 94.2256 60.5588 94.1868 59.4678 94.3155C58.8238 94.3914 58.914 93.9286 58.7632 93.4966C58.7764 93.1472 58.7841 92.9225 58.7918 92.6977C58.7918 92.6977 58.7887 92.6935 58.8551 92.6894C59.5067 92.3842 60.0466 92.4838 60.5543 92.868ZM59.7786 92.8449C59.5595 92.9636 59.276 93.0372 59.1473 93.2192C59.0781 93.3168 59.2374 93.737 59.3598 93.7702C59.5714 93.8275 60.0033 93.7496 60.0399 93.6339C60.1096 93.413 59.9662 93.1255 59.7786 92.8449Z" fill="#212529"/>
<path d="M17.7301 92.6473C18.0731 92.5684 18.3645 92.5434 18.6552 92.5117C19.2987 92.4416 19.5947 92.6823 19.5649 93.3681C19.5382 93.9808 19.3456 94.3206 18.6735 94.3171C18.0759 94.314 17.577 94.2392 17.5999 93.4831C17.6078 93.2209 17.6511 92.9598 17.7301 92.6473ZM19.0378 93.8851C19.043 93.5499 19.0482 93.2147 19.0534 92.8795C18.7362 92.8806 18.3877 92.8056 18.1157 92.9163C17.9871 92.9687 17.892 93.5335 17.9775 93.5945C18.2385 93.7805 18.5945 93.8345 19.0378 93.8851Z" fill="#212529"/>
<path d="M36.5043 92.5352C36.9509 91.8522 37.6376 92.1888 38.1283 92.3247C38.3387 92.383 38.4359 93.1929 38.4022 93.6479C38.3814 93.9302 38.0107 94.4177 37.8103 94.4111C37.2919 94.3942 36.5943 94.8586 36.3438 94.0259C36.5627 94.0351 36.6929 94.0672 36.8921 94.1066C37.4001 94.0413 38.0282 94.3544 38.0733 93.5126C38.1225 92.5953 38.0737 92.5445 36.8008 92.5969C36.6646 92.5606 36.5844 92.5479 36.5043 92.5352Z" fill="#212529"/>
<path d="M28.7352 82.0777C28.7525 83.5412 28.7497 84.9853 28.753 86.5034C28.7592 86.5775 28.7245 86.6113 28.6536 86.5931C28.557 85.1119 28.5293 83.6488 28.5127 82.1856C28.5121 82.1309 28.6184 82.0749 28.6749 82.0195C28.6749 82.0195 28.7151 82.0583 28.7352 82.0777Z" fill="#212529"/>
<path d="M52.5156 92.5491C52.9801 91.9903 54.1269 92.0699 54.259 92.7136C54.3513 93.1633 54.1888 93.6648 54.0583 94.1043C53.9648 94.0354 53.9531 94.0054 53.9624 93.9108C54.0634 92.6623 54.0634 92.6623 52.9461 92.6134C52.7791 92.5684 52.6473 92.5588 52.5156 92.5491Z" fill="#212529"/>
<path d="M21.0095 79.3223C21.5368 79.6115 21.4866 80.0563 21.1292 80.3539C20.9532 80.5004 20.3933 80.4521 20.2219 80.2801C19.9767 80.0342 19.7654 79.5645 20.4963 79.3403C20.751 79.3334 20.8803 79.3278 21.0095 79.3223Z" fill="#212529"/>
<path d="M45.874 87.3498C45.9125 87.1487 45.9743 86.9798 46.0525 86.7449C46.0688 86.6789 46.1383 86.6849 46.1877 86.7584C46.6287 87.1442 47.0135 87.519 47.4979 86.9658C47.5971 86.8671 47.6962 86.7683 47.8846 86.6217C48.1347 86.4295 48.2956 86.2852 48.533 86.0723C48.5866 86.3979 48.6198 86.6001 48.653 86.8024C48.618 86.8799 48.5829 86.9575 48.4464 87.0589C47.6061 87.2005 46.8671 87.3182 46.1281 87.4359C46.0512 87.418 45.9743 87.4 45.874 87.3498Z" fill="#212529"/>
<path d="M37.2199 82.584C37.2971 83.7674 37.3196 84.9698 37.3222 86.1723C37.3225 86.3106 37.2114 86.4492 37.0877 86.6041C37.0125 85.421 36.996 84.2213 36.9982 83.0217C36.9985 82.882 37.103 82.7425 37.2199 82.584Z" fill="#212529"/>
<path d="M42.124 86.5636C42.0193 86.4491 41.8482 86.2561 41.8459 86.0611C41.8323 84.9326 41.8584 83.8037 41.9062 82.6191C42.0106 82.7772 42.1366 82.9903 42.1398 83.2051C42.1559 84.2978 42.1402 85.3911 42.124 86.5636Z" fill="#212529"/>
<path d="M71.3461 94.1766C71.2247 93.7553 70.9835 93.3214 71.026 92.9171C71.0523 92.6663 71.4891 92.3063 71.7773 92.2691C72.2479 92.2085 72.8681 92.0817 73.0115 92.8138C72.8649 92.8429 72.8011 92.8366 72.7283 92.8224C72.7194 92.8147 72.7083 92.7944 72.6989 92.753C72.5792 92.694 72.4687 92.6763 72.2928 92.6635C72.0092 92.6828 71.7911 92.6972 71.5137 92.7273C71.443 93.1965 71.4314 93.6501 71.4015 94.1221C71.3832 94.1404 71.3461 94.1766 71.3461 94.1766Z" fill="#212529"/>
<path d="M52.4944 92.5849C52.6472 92.5584 52.7789 92.568 52.9137 92.6677C52.8393 93.0683 52.6698 93.3962 52.7242 93.6821C52.7501 93.8185 53.1965 93.8922 53.4612 93.9611C53.6121 94.0003 53.7807 93.9726 53.9413 93.975C53.9529 94.005 53.9646 94.035 53.9974 94.1084C52.6478 94.6156 52.0241 94.073 52.2417 92.9411C52.33 92.8391 52.3583 92.8021 52.3708 92.7531C52.405 92.7091 52.4392 92.6652 52.4944 92.5849Z" fill="#212529"/>
<path d="M90.1001 86.6725C90.4482 86.6175 90.8057 86.6198 91.208 86.6784C91.0904 86.9717 90.9281 87.2086 90.7658 87.4455C90.1526 87.464 89.5394 87.4824 88.8789 87.4564C89.15 87.354 89.4672 87.2579 89.7871 87.2475C90.2034 87.234 90.308 87.0914 90.1001 86.6725Z" fill="#212529"/>
<path d="M90.8384 87.4391C90.9284 87.2094 91.0907 86.9725 91.2688 86.6865C91.2847 86.6376 91.3455 86.6083 91.429 86.5753C91.6859 86.3479 91.8595 86.1534 92.0331 85.959C92.1146 85.9977 92.1961 86.0365 92.2777 86.0752C92.1614 86.5219 92.0452 86.9686 91.9289 87.4154C91.5895 87.4209 91.2501 87.4264 90.8384 87.4391Z" fill="#212529"/>
<path d="M12.2422 82.7031C12.5245 82.5388 12.8209 82.377 13.133 82.2549C13.373 82.1609 13.6328 82.1168 13.8933 81.984C13.9028 81.9175 13.9406 81.8839 14.004 81.9044C14.0548 82.3073 14.0422 82.6896 13.9664 83.0694C13.7339 83.058 13.5647 83.0493 13.3942 82.9791C13.1329 82.1501 12.6594 82.8665 12.3038 82.7627C12.3038 82.7627 12.263 82.7227 12.2422 82.7031Z" fill="#212529"/>
<path d="M50.4468 81.7861C50.5425 81.605 50.671 81.3252 50.8261 81.3097C51.3763 81.2549 51.9366 81.2743 52.4903 81.3086C52.5739 81.3137 52.6431 81.5472 52.6448 81.7214C52.5386 81.7635 52.5066 81.7592 52.4747 81.7549C52.0418 81.7051 51.6094 81.6381 51.1755 81.6251C51.1138 81.6233 51.0441 81.8839 50.9383 82.053C50.7629 81.9916 50.6274 81.9001 50.4468 81.7861Z" fill="#212529"/>
<path d="M91.7827 82.8778C91.4009 82.3302 90.97 81.9293 90.1646 82.0717C90.5676 81.5637 91.0641 81.6758 91.5697 82.0088C91.6901 82.0881 91.8121 82.1651 91.9956 82.2472C91.9813 82.4519 91.9049 82.6527 91.7827 82.8778Z" fill="#212529"/>
<path d="M91.9858 87.4022C92.0451 86.9688 92.1614 86.522 92.2777 86.0753C92.1961 86.0366 92.1146 85.9979 92.033 85.9591C91.8594 86.1536 91.6859 86.348 91.4604 86.5633C91.425 86.0292 91.6657 85.6721 92.3215 85.627C92.6666 86.2892 92.6051 86.8868 91.9858 87.4022Z" fill="#212529"/>
<path d="M48.7043 86.7714C48.62 86.6003 48.5867 86.398 48.5332 86.0724C48.2958 86.2854 48.1349 86.4297 47.9263 86.5896C48.0744 86.2225 48.2703 85.8398 48.4662 85.457C48.5994 85.4935 48.7325 85.53 48.8657 85.5664C48.8289 85.9577 48.7921 86.349 48.7043 86.7714Z" fill="#212529"/>
<path d="M46.1641 87.4892C46.8672 87.3199 47.6062 87.2022 48.4097 87.084C48.0429 87.7034 47.2389 87.865 46.1641 87.4892Z" fill="#212529"/>
<path d="M75.4253 81.7934C75.5217 81.6216 75.671 81.3169 75.8128 81.3203C76.4217 81.3349 77.0284 81.4401 77.6033 81.5556C76.971 81.6366 76.3712 81.6743 75.7217 81.7691C75.6062 81.8182 75.5404 81.8103 75.4253 81.7934Z" fill="#212529"/>
<path d="M60.559 92.7994C60.0466 92.4835 59.5067 92.384 58.8574 92.6902C58.8162 91.8787 59.4447 92.282 59.8136 92.2225C60.1714 92.1648 60.6174 92.1233 60.559 92.7994Z" fill="#212529"/>
<path d="M94.6913 85.1465C94.84 86.0314 94.3185 86.5962 93.6079 87.107C93.6096 86.9659 93.632 86.7855 93.7172 86.642C94.0134 86.1431 94.3315 85.6571 94.6913 85.1465Z" fill="#212529"/>
<path d="M79.4998 87.4466C79.4637 87.3642 79.4628 87.3283 79.4619 87.2382C79.5338 87.1902 79.6056 87.1963 79.7642 87.2538C80.0829 87.3159 80.3149 87.3267 80.7044 87.3448C80.4932 86.983 80.379 86.7874 80.2648 86.5919C80.7775 86.5596 80.9703 86.9138 80.865 87.2883C80.8107 87.4814 80.3955 87.6262 80.1198 87.6866C79.9476 87.7244 79.7314 87.5643 79.4998 87.4466Z" fill="#212529"/>
<path d="M36.8229 94.0998C36.6927 94.0678 36.5624 94.0357 36.3866 93.991C36.3748 93.5364 36.4087 93.0943 36.4734 92.594C36.5842 92.5484 36.6644 92.5611 36.7826 92.6523C36.8214 93.1871 36.8221 93.6435 36.8229 94.0998Z" fill="#212529"/>
<path d="M72.7374 92.8301C72.8012 92.8365 72.8651 92.8429 72.9772 92.852C72.992 93.2508 72.9586 93.6468 72.8149 94.0876C72.573 94.1141 72.4413 94.0958 72.3384 94.0271C72.4906 93.5946 72.614 93.2123 72.7374 92.8301Z" fill="#212529"/>
<path d="M90.644 83.8282C90.9259 83.5662 91.267 83.3136 91.6675 83.0664C91.7074 83.2044 91.6879 83.3372 91.6283 83.5014C91.2932 83.6345 90.9982 83.7361 90.644 83.8282Z" fill="#212529"/>
<path d="M101.179 86.7168C101.327 86.8851 101.429 87.0559 101.571 87.3041C101.603 87.4362 101.594 87.4909 101.586 87.5456C101.368 87.5438 101.151 87.542 100.866 87.4816C100.847 87.1989 100.897 86.9749 100.947 86.7508C101.009 86.7403 101.07 86.7298 101.179 86.7168Z" fill="#212529"/>
<path d="M72.3096 94.0781C72.4413 94.0964 72.573 94.1147 72.7719 94.1365C72.4129 94.6944 71.9061 94.4707 71.3749 94.232C71.3463 94.1772 71.3834 94.141 71.4583 94.1329C71.6079 94.11 71.6825 94.0952 71.8126 94.082C72.0153 94.0818 72.1625 94.0799 72.3096 94.0781Z" fill="#212529"/>
<path d="M80.229 86.5819C80.3791 86.7868 80.4932 86.9823 80.7045 87.3442C80.3149 87.3261 80.083 87.3153 79.8184 87.254C79.851 87.0298 79.9164 86.8562 80.0081 86.6245C80.065 86.558 80.0955 86.5495 80.126 86.541C80.126 86.541 80.1931 86.5725 80.229 86.5819Z" fill="#212529"/>
<path d="M50.8037 86.582C50.8713 86.6101 50.8777 86.6377 50.8319 86.7273C50.7592 87.0015 50.7386 87.2137 50.718 87.426C50.5618 87.3849 50.4057 87.3437 50.2495 87.3026C50.4138 87.0623 50.5781 86.822 50.8037 86.582Z" fill="#212529"/>
<path d="M47.4304 86.9565C47.0133 87.5208 46.6285 87.146 46.2178 86.7773C46.5868 86.7957 46.9749 86.8706 47.4304 86.9565Z" fill="#212529"/>
<path d="M101.622 87.5902C101.594 87.4909 101.603 87.4362 101.619 87.3411C101.84 87.2909 102.052 87.2811 102.328 87.2813C102.392 87.347 102.393 87.4027 102.396 87.5006C102.152 87.5734 101.906 87.6041 101.622 87.5902Z" fill="#212529"/>
<path d="M93.5312 88.2194C93.752 88.1648 93.9641 88.1736 94.2402 88.1755C94.1699 88.3329 94.0355 88.4973 93.9012 88.6617C93.775 88.5354 93.6489 88.4091 93.5312 88.2194Z" fill="#212529"/>
<path d="M100.891 86.7559C100.897 86.9761 100.847 87.2001 100.8 87.4817C100.652 87.4323 100.501 87.3255 100.349 87.2187C100.511 87.0657 100.673 86.9127 100.891 86.7559Z" fill="#212529"/>
<path d="M75.5612 86.6113C75.5583 86.8344 75.4958 87.053 75.4324 87.3292C75.2868 87.3248 75.1422 87.2627 74.9976 87.2006C75.1656 87.0027 75.3336 86.8047 75.5612 86.6113Z" fill="#212529"/>
<path d="M79.2546 85.5017C79.0835 85.2385 78.9123 84.9752 78.7827 84.6855C78.9542 84.8013 79.0843 84.9434 79.2542 85.1667C79.3033 85.3141 79.3126 85.3803 79.3051 85.4603C79.2884 85.4742 79.2546 85.5017 79.2546 85.5017Z" fill="#212529"/>
<path d="M105.589 81.0839C105.382 81.1587 105.138 81.1894 104.854 81.1803C105.06 81.107 105.306 81.0734 105.589 81.0839Z" fill="#212529"/>
<path d="M51.1948 87.2168C51.4207 87.2179 51.6465 87.2191 51.9389 87.271C52.0059 87.3556 52.0062 87.3894 52.0066 87.4232C51.7625 87.4472 51.5185 87.4712 51.2353 87.4056C51.1958 87.283 51.1953 87.2499 51.1948 87.2168Z" fill="#212529"/>
<path d="M52.0591 87.4204C52.0061 87.3903 52.0057 87.3564 52.0065 87.2718C52.1119 87.0958 52.2162 86.9706 52.3765 86.7834C52.4651 86.71 52.4976 86.6988 52.5591 86.7044C52.5882 86.7212 52.6474 86.7534 52.6474 86.7534C52.5584 86.9442 52.4694 87.1349 52.3516 87.3747C52.2524 87.4215 52.1821 87.4191 52.0591 87.4204Z" fill="#212529"/>
<path d="M58.7346 92.7051C58.7843 92.9228 58.7766 93.1475 58.7528 93.4378C58.7169 93.2396 58.697 92.9758 58.7346 92.7051Z" fill="#212529"/>
<path d="M51.1661 87.1769C51.1952 87.2501 51.1956 87.2832 51.1967 87.3661C51.0772 87.4157 50.9572 87.4154 50.7775 87.4205C50.7383 87.2136 50.7589 87.0014 50.8276 86.7695C50.963 86.8788 51.0503 87.0078 51.1661 87.1769Z" fill="#212529"/>
<path d="M79.7724 86.2749C79.6088 86.0526 79.4452 85.8303 79.2681 85.5543C79.2546 85.5006 79.2884 85.4731 79.342 85.4822C79.4667 85.541 79.5379 85.5908 79.609 85.6405C79.6438 85.7236 79.6785 85.8067 79.7488 85.9717C79.7803 86.1274 79.7763 86.2011 79.7724 86.2749Z" fill="#212529"/>
<path d="M55.8899 86.8965C55.9846 86.9987 56.0793 87.1009 56.174 87.2031C56.0451 87.2966 55.9162 87.3902 55.77 87.3991C55.7985 87.1751 55.8442 87.0358 55.8899 86.8965Z" fill="#212529"/>
<path d="M79.7818 86.3214C79.7765 86.2011 79.7804 86.1274 79.7863 85.998C79.8983 86.1046 80.0082 86.2667 80.1221 86.4844C80.0955 86.5485 80.065 86.557 79.9887 86.5785C79.8924 86.5169 79.8418 86.4425 79.7818 86.3214Z" fill="#212529"/>
<path d="M78.7308 84.3312C78.5896 84.2801 78.4701 84.1781 78.3623 84.0234C78.5002 84.074 78.6264 84.1771 78.7308 84.3312Z" fill="#212529"/>
<path d="M55.859 86.8755C55.8443 87.0359 55.7986 87.1753 55.7325 87.3667C55.6835 87.4151 55.6549 87.4113 55.5865 87.3903C55.5477 87.2094 55.5486 87.0458 55.5464 86.8208C55.5761 86.7554 55.609 86.7513 55.6915 86.7402C55.7607 86.7802 55.7896 86.8206 55.859 86.8755Z" fill="#212529"/>
<path d="M75.9283 82.5723C75.9482 82.7162 75.9682 82.8601 75.9453 83.0293C75.856 82.9309 75.8096 82.8072 75.8042 82.6279C75.8728 82.5723 75.9006 82.5723 75.9283 82.5723Z" fill="#212529"/>
<path d="M75.9285 82.5177C75.9009 82.5724 75.8732 82.5724 75.804 82.5749C75.7389 82.4286 75.7153 82.28 75.739 82.1055C75.8337 82.2074 75.881 82.3352 75.9285 82.5177Z" fill="#212529"/>
<path d="M20.9968 79.2743C20.8801 79.329 20.7509 79.3346 20.5581 79.3257C20.6578 79.2826 20.821 79.2539 20.9968 79.2743Z" fill="#212529"/>
<path d="M79.614 85.5824C79.538 85.5913 79.4669 85.5416 79.3589 85.4688C79.3128 85.3797 79.3035 85.3136 79.293 85.1973C79.4008 85.2726 79.5099 85.3982 79.614 85.5824Z" fill="#212529"/>
<path d="M94.4053 88.0328C94.4061 87.9318 94.4568 87.8191 94.5556 87.6934C94.5543 87.7939 94.5047 87.9075 94.4053 88.0328Z" fill="#212529"/>
<path d="M52.3304 92.7539C52.3586 92.8025 52.3303 92.8397 52.2527 92.8775C52.2427 92.8451 52.2662 92.7998 52.3304 92.7539Z" fill="#212529"/>
<path d="M98.3666 87.4505C98.0682 87.2488 97.7983 87.0823 97.4657 86.8771C97.4657 86.7691 97.4657 86.55 97.4201 86.297C97.3733 85.351 97.372 84.4391 97.4187 83.4173C97.44 83.0623 97.4133 82.8171 97.3866 82.5719C97.3797 82.4118 97.3728 82.2516 97.3776 81.9674C97.7257 81.7461 98.0621 81.6487 98.3668 81.5605C98.3668 83.2526 98.3576 84.7725 98.3812 86.292C98.3836 86.4423 98.5866 86.5895 98.6964 86.7382C98.8716 87.1273 99.0468 87.5165 99.1577 87.9819C99.0547 88.0754 99.0159 88.0926 98.9771 88.1099C98.9771 88.1099 98.9494 88.1009 98.9583 88.035C98.867 87.8871 98.7669 87.8052 98.6668 87.7233C98.5763 87.6441 98.4857 87.5648 98.3666 87.4505Z" fill="#212529"/>
<path d="M98.6973 86.6638C98.5867 86.5894 98.3837 86.4422 98.3814 86.2919C98.3578 84.7724 98.367 83.2525 98.367 81.5605C98.0623 81.6486 97.7259 81.746 97.3677 81.908C97.2009 81.874 97.0558 81.7754 96.9106 81.6767C96.916 81.5966 96.9215 81.5164 96.9269 81.4363C97.5962 81.3747 98.2656 81.3131 98.9931 81.2461C98.4445 83.1115 98.7772 84.8604 98.6973 86.6638Z" fill="#212529"/>
<path d="M97.3451 82.6094C97.4136 82.8177 97.4403 83.0628 97.4208 83.3428C97.3509 83.1338 97.3271 82.89 97.3451 82.6094Z" fill="#212529"/>
<path d="M98.6699 87.7734C98.7671 87.8062 98.8672 87.8882 98.9497 88.0245C98.8456 87.9934 98.7592 87.908 98.6699 87.7734Z" fill="#212529"/>
<path d="M98.999 88.1413C99.0164 88.092 99.0551 88.0746 99.1569 88.0469C99.1535 88.0821 99.087 88.1277 98.999 88.1413Z" fill="#212529"/>
<path d="M84.916 81.8147C85.4647 81.3194 85.7545 81.9238 86.0206 82.1569C86.5787 82.6459 86.2517 83.9044 85.6211 84.2185C85.5075 83.5854 85.3897 82.9288 85.1959 82.2096C85.0519 82.0362 84.984 81.9255 84.916 81.8147Z" fill="#212529"/>
<path d="M84.8516 81.8044C84.9838 81.9265 85.0518 82.0372 85.1399 82.1929C85.153 82.6135 85.146 82.9889 85.0648 83.3193C84.9104 82.8526 85.1032 82.3071 84.2476 82.0092C84.334 82.8047 84.4049 83.4572 84.4758 84.1097C84.4523 84.1217 84.4199 84.1504 84.4065 84.1434C83.5362 83.6884 84.1013 82.9058 84.0112 82.283C83.9382 81.7784 84.38 81.7319 84.8516 81.8044Z" fill="#212529"/>
<path d="M110.474 85.2961C110.474 85.6418 110.45 85.911 110.479 86.1744C110.553 86.8388 110.284 87.0615 109.61 86.8493C109.61 85.1428 109.61 83.4295 109.61 81.6738C110.176 81.4968 110.527 81.5588 110.486 82.3385C110.435 83.2955 110.474 84.2572 110.474 85.2961Z" fill="#212529"/>
<path d="M32.9639 84.1807C32.9213 83.9141 32.9582 83.47 32.8232 83.4103C32.0496 83.068 32.3648 82.6043 32.5909 82.1215C32.6888 81.9124 32.7623 81.692 33.0599 81.4473C33.7091 83.2776 34.3582 85.1079 35.0336 87.0122C34.5551 87.0122 34.1432 87.0122 33.6602 87.0122C34.0805 86.0841 33.4463 85.4427 33.0124 84.6346C32.9684 84.4193 32.9662 84.3 32.9639 84.1807Z" fill="#212529"/>
<path d="M90.7849 84.5726C90.6083 84.63 90.415 84.6332 90.1494 84.6235C90.3075 84.5798 90.5379 84.5491 90.7849 84.5726Z" fill="#212529"/>
<path d="M104.325 86.793C104.303 86.7293 104.34 86.6738 104.359 86.6465C104.464 86.4462 104.636 86.2669 104.624 86.1012C104.557 85.1881 104.439 84.2787 104.352 83.3669C104.337 83.215 104.379 83.0561 104.405 82.9022C104.477 82.4809 104.554 82.0605 104.646 81.543C104.948 81.5584 105.379 81.5805 105.736 81.5989C105.736 83.4085 105.736 85.1724 105.736 87.1401C105.243 87.0394 104.794 86.9481 104.325 86.793Z" fill="#212529"/>
<path d="M14.0293 83.0724C14.0419 82.6901 14.0544 82.3077 14.0225 81.888C14.4681 81.7338 14.9584 81.6171 15.3514 81.5234C15.3514 83.432 15.3514 85.2361 15.3514 87.0721C14.9386 87.0721 14.5555 87.0721 14.2711 87.0721C14.1976 86.4831 14.1333 85.9684 14.0727 85.3915C14.0764 85.3292 14.0838 85.3249 14.1441 85.3042C14.3891 84.5276 14.6305 83.7673 14.0322 83.0697C14.0322 83.0677 14.0293 83.0724 14.0293 83.0724Z" fill="#212529"/>
<path d="M16.1478 83.0574C16.1352 82.4186 16.5014 82.5211 16.8872 82.6911C17.7409 83.0674 17.6578 83.8194 17.6026 84.5385C17.5488 85.2391 17.0323 85.5311 16.3543 85.8844C16.3986 85.557 16.4213 85.389 16.457 85.095C16.3955 84.3263 16.8296 83.5988 16.1478 83.0574Z" fill="#212529"/>
<path d="M12.2849 82.817C12.6593 82.8664 13.1328 82.1499 13.3624 83.0021C13.2911 83.1199 13.2543 83.157 13.1635 83.2103C12.6185 83.8982 12.6227 84.5467 13.2383 85.196C13.3027 85.2682 13.3421 85.3073 13.3815 85.3464C13.4066 85.4726 13.4318 85.5987 13.4577 85.7288C12.291 85.7883 11.4964 84.729 11.8925 83.6679C11.9948 83.3942 12.1403 83.1365 12.2849 82.817Z" fill="#212529"/>
<path d="M78.1493 85.7439C77.9494 85.6029 77.7535 85.402 77.4181 85.0581C77.3879 85.6244 77.3654 86.0458 77.3324 86.5403C77.2371 86.0273 77.1522 85.4413 77.0674 84.8552C77.3085 84.8685 77.6315 84.7914 77.7711 84.9166C77.9693 85.0943 78.0325 85.421 78.1493 85.7439Z" fill="#212529"/>
<path d="M77.2484 82.084C77.3213 82.3726 77.2888 82.7001 77.3748 82.9933C77.4111 83.1173 77.6967 83.1689 77.9219 83.2257C77.7664 83.4135 77.5581 83.629 77.3497 83.8445C77.2467 83.6149 77.0699 83.389 77.0581 83.1549C77.0407 82.8094 77.1408 82.458 77.2484 82.084Z" fill="#212529"/>
<path d="M68.9452 83.864C68.9835 83.6067 69.0212 83.4117 69.0589 83.2168C69.2495 83.3335 69.5809 83.4262 69.6059 83.5711C69.7087 84.1675 69.7125 84.7803 69.7639 85.3862C69.8105 85.9366 69.8716 86.4857 69.9422 87.1941C69.8512 87.2133 69.4743 87.3972 69.3638 87.2953C69.097 87.0492 68.8681 86.6902 68.7834 86.3387C68.6744 85.8861 68.6854 85.3943 68.7127 84.9232C68.732 84.5876 68.8633 84.2584 68.9452 83.864Z" fill="#212529"/>
<path d="M67.7979 86.4247C67.8779 86.5951 67.9579 86.7656 68.11 87.0898C67.9086 87.1541 67.4409 87.3413 67.4218 87.3035C67.2351 86.9353 67.0352 86.5337 67.0161 86.1332C66.9982 85.7586 67.2404 85.455 67.7577 85.8226C67.801 86.0843 67.7994 86.2545 67.7979 86.4247Z" fill="#212529"/>
<path d="M62.8317 86.8771C62.7299 85.8183 62.6672 84.7855 62.6824 83.7538C62.6847 83.5977 63.0495 83.4469 63.3831 83.1875C63.3831 84.4853 63.3997 85.5151 63.3616 86.5429C63.3569 86.6686 63.0585 86.7836 62.8317 86.8771Z" fill="#212529"/>
<path d="M54.0753 84.159C53.8332 84.2994 53.6112 84.3777 53.2955 84.4592C53.1192 84.4146 53.0366 84.3669 52.9541 84.3192C53.1461 83.9194 53.3381 83.5197 53.608 83.0839C53.6859 83.0479 53.7628 83.0469 53.7628 83.0469C53.8736 83.3969 53.9845 83.7469 54.0753 84.159Z" fill="#212529"/>
<path d="M53.7906 83.0066C53.7629 83.0468 53.686 83.0478 53.6475 83.046C53.7031 82.8457 53.7974 82.6472 53.9472 82.4277C53.9413 82.5932 53.8798 82.7798 53.7906 83.0066Z" fill="#212529"/>
<path d="M53.7129 86.9265C53.7251 86.8257 53.7852 86.7149 53.9018 86.6055C53.8924 86.7101 53.8266 86.8133 53.7129 86.9265Z" fill="#212529"/>
<path d="M38.7772 86.6532C38.4075 86.8729 38.0174 87.0302 37.5635 87.2134C37.5635 85.22 37.5635 83.4709 37.5635 81.5605C37.9527 81.6344 38.3369 81.7074 38.725 81.8402C38.6498 81.9653 38.5012 82.0314 38.502 82.0958C38.5161 83.3139 38.548 84.5318 38.627 85.7791C38.7043 86.0693 38.7306 86.33 38.7772 86.6532Z" fill="#212529"/>
<path d="M40.9018 81.6051C41.2042 81.6016 41.4413 81.6016 41.6072 81.6016C41.6072 83.3628 41.6072 85.0709 41.6072 86.8477C41.2908 86.9021 40.9655 86.9581 40.562 87.0276C40.6428 86.4497 40.7176 85.937 40.7847 85.4232C40.8121 85.2134 40.8506 84.9994 40.8362 84.7905C40.7667 83.7867 40.6771 82.7842 40.6113 81.7801C40.6079 81.728 40.7579 81.666 40.9018 81.6051Z" fill="#212529"/>
<path d="M38.7871 83.2637C38.9472 83.3715 39.092 83.5378 39.248 83.7521C39.0968 83.6408 38.9343 83.4815 38.7871 83.2637Z" fill="#212529"/>
<path d="M39.0357 81.9277C39.0199 82.0317 38.9555 82.1352 38.843 82.2487C38.7897 82.193 38.7845 82.1272 38.7879 82.0126C38.8601 81.9515 38.9236 81.9393 39.0357 81.9277Z" fill="#212529"/>
<path d="M52.7085 85.5287C52.7085 85.5287 52.6843 85.591 52.6568 85.6104C52.4436 85.4944 52.098 85.3594 52.0977 85.2237C52.0956 84.188 52.1608 83.1522 52.2701 82.1055C52.3421 82.897 52.3489 83.6995 52.3503 84.6252C52.4661 85.0085 52.5873 85.2686 52.7085 85.5287Z" fill="#212529"/>
<path d="M52.4058 86.0879C52.4771 86.2374 52.4947 86.4023 52.5213 86.6274C52.4977 86.6988 52.4653 86.7101 52.3827 86.733C52.339 86.5309 52.3456 86.3171 52.4058 86.0879Z" fill="#212529"/>
<path d="M52.4342 81.786C52.5065 81.7589 52.5385 81.7633 52.6186 81.7738C52.5951 81.8823 52.5235 81.9846 52.4037 82.0979C52.3683 82.0116 52.3811 81.9145 52.4342 81.786Z" fill="#212529"/>
<path d="M52.5792 85.7949C52.5968 85.8262 52.584 85.8764 52.5292 85.9337C52.4926 85.8911 52.5132 85.8488 52.5792 85.7949Z" fill="#212529"/>
<path d="M21.599 86.6432C21.6802 87.0418 21.6088 87.2784 21.1279 87.2374C20.7348 87.2039 20.3365 87.2306 19.9229 87.2306C20.3178 85.2916 20.2707 83.4518 19.9831 81.5273C20.4922 81.5273 21.0946 81.5273 21.598 81.5273C21.1102 83.2181 21.2627 84.8988 21.5131 86.605C21.5721 86.6286 21.6005 86.6292 21.599 86.6432Z" fill="#212529"/>
<path d="M28.7035 81.9682C28.6187 82.0737 28.5123 82.1296 28.513 82.1844C28.5296 83.6476 28.5573 85.1106 28.6366 86.6088C28.7461 86.8052 28.8022 86.9666 28.8946 87.2329C28.3141 87.2329 27.8208 87.266 27.3377 87.211C27.2068 87.196 27.1067 86.9142 26.9911 86.6783C26.9898 86.6016 27.01 86.6123 27.01 86.6123C27.3089 86.2693 27.4785 84.5259 27.1779 84.4546C26.6378 84.3264 26.0399 84.4386 25.3658 84.437C25.2995 84.1806 25.3335 83.9375 25.4219 83.7183C25.986 84.032 26.4952 84.2054 27.0033 83.7318C27.0047 83.7276 27.0136 83.7265 27.0743 83.7079C27.3041 83.0828 27.5813 82.466 26.9668 81.934C26.9682 81.9332 26.9642 81.9344 26.9642 81.9344C27.0507 81.7714 27.1229 81.4789 27.226 81.4676C27.692 81.4169 28.1676 81.4338 28.6369 81.4666C28.679 81.4695 28.7007 81.7608 28.7035 81.9682Z" fill="#212529"/>
<path d="M25.3675 83.6951C25.3334 83.9382 25.2994 84.1813 25.3094 84.461C25.3561 85.1425 25.3588 85.7873 25.3625 86.5058C25.0963 86.7119 24.8293 86.8443 24.5467 86.9845C24.5467 85.4629 24.5574 84.1026 24.5375 82.7426C24.5336 82.4796 24.4103 82.2183 24.2762 81.9452C24.2589 81.8089 24.2842 81.5942 24.3605 81.5744C24.6407 81.5019 24.9377 81.4942 25.291 81.5246C25.355 81.7553 25.3564 81.9235 25.3583 82.1644C25.3616 82.7231 25.3645 83.2091 25.3675 83.6951Z" fill="#212529"/>
<path d="M52.755 85.506C52.5874 85.2688 52.4661 85.0087 52.3501 84.6871C52.515 84.5817 52.6747 84.5378 52.8962 84.5371C53.0234 84.7196 53.0889 84.8589 53.1544 84.9983C53.0367 85.1599 52.919 85.3214 52.755 85.506Z" fill="#212529"/>
<path d="M53.1903 84.9587C53.0886 84.8592 53.0231 84.7199 52.9449 84.52C52.9321 84.4595 52.9431 84.389 52.9486 84.3535C53.0365 84.3657 53.1191 84.4135 53.2453 84.4793C53.2682 84.6379 53.2474 84.7784 53.1903 84.9587Z" fill="#212529"/>
<path d="M25.3578 82.0927C25.3563 81.9245 25.3548 81.7563 25.3525 81.5254C25.4641 81.5823 25.5764 81.702 25.695 81.8825C25.7013 81.9435 25.6935 81.9434 25.6482 81.9514C25.5212 82.0038 25.4395 82.0483 25.3578 82.0927Z" fill="#212529"/>
<path d="M87.1953 93.0439C87.5866 92.7757 87.9776 92.6248 88.1851 93.1331C88.2563 93.3074 88.1782 93.6272 88.047 93.7707C87.9445 93.8828 87.5571 93.9165 87.4686 93.8233C87.3033 93.6491 87.2631 93.3575 87.1953 93.0439Z" fill="#212529"/>
<path d="M90.9033 92.8203C91.0543 93.1178 91.1319 93.4087 91.2095 93.6996C90.9339 93.7466 90.6325 93.8798 90.3925 93.8085C90.2469 93.7653 90.0602 93.3031 90.1314 93.2097C90.2802 93.0143 90.5876 92.9386 90.9033 92.8203Z" fill="#212529"/>
<path d="M30.3747 93.1781C30.7008 93.0157 31.0178 92.8903 31.3455 92.8499C31.4351 92.8389 31.6716 93.1264 31.6427 93.202C31.5389 93.4732 31.3985 93.8665 31.1841 93.9328C30.6754 94.0901 30.2891 93.8902 30.3747 93.1781Z" fill="#212529"/>
<path d="M81.136 94.1015C80.4675 93.8823 80.5104 93.328 80.701 92.9807C80.8203 92.7632 81.3813 92.6993 81.7276 92.7331C81.8671 92.7467 82.0396 93.1991 82.0627 93.4635C82.1159 94.0723 81.6593 94.1151 81.136 94.1015Z" fill="#212529"/>
<path d="M21.9629 94.0205C21.2473 94.1117 20.9363 93.8692 21.0062 93.192C21.0809 92.468 21.6252 92.6688 22.0302 92.6974C22.1917 92.7088 22.4515 92.952 22.4646 93.1066C22.494 93.4557 22.6712 93.9494 21.9629 94.0205Z" fill="#212529"/>
<path d="M75.7819 93.6272C75.4045 93.7651 75.0266 93.8938 74.6672 93.8547C74.5738 93.8445 74.3947 93.2126 74.5124 93.0415C74.6563 92.8322 75.0711 92.7216 75.3691 92.7207C75.9728 92.7189 75.7327 93.2303 75.7819 93.6272Z" fill="#212529"/>
<path d="M96.5742 94.0124C96.1217 93.1424 96.2476 92.7171 96.9101 92.6707C97.3785 92.6379 97.7535 92.6682 97.7406 93.3189C97.7292 93.895 97.5479 94.185 96.9415 94.1072C96.8361 94.0936 96.732 94.0698 96.5742 94.0124Z" fill="#212529"/>
<path d="M93.1637 93.4634C93.1099 92.9108 93.2564 92.6224 93.8142 92.6618C94.1991 92.6889 94.5904 92.6599 94.6161 93.2005C94.6361 93.6229 94.6118 94.0357 94.0729 94.0981C93.6436 94.1477 93.1729 94.1895 93.1637 93.4634Z" fill="#212529"/>
<path d="M103.75 92.792C103.941 93.9127 103.8 94.1444 103.073 94.1092C102.573 94.0849 102.453 93.7994 102.439 93.3686C102.425 92.9177 102.562 92.6328 103.069 92.6668C103.28 92.681 103.49 92.7166 103.75 92.792Z" fill="#212529"/>
<path d="M55.7242 93.7377C55.7433 93.2813 55.5115 92.7243 56.177 92.6877C56.5027 92.6698 56.9701 92.7609 57.1327 92.9797C57.2769 93.1736 57.1229 93.8866 57.0402 93.897C56.6174 93.9503 56.175 93.8503 55.7242 93.7377Z" fill="#212529"/>
<path d="M6.69256 92.7865C6.64739 93.2524 6.61503 93.704 6.41397 94.0619C6.35903 94.1597 5.71067 94.0754 5.4961 93.8899C5.32592 93.7427 5.28724 93.255 5.40409 93.027C5.50582 92.8285 5.89972 92.7565 6.17861 92.6786C6.31663 92.64 6.48642 92.7139 6.69256 92.7865Z" fill="#212529"/>
<path d="M11.6525 93.2024C11.7859 92.4175 12.3612 92.6265 12.729 92.739C12.9169 92.7964 13.1209 93.3232 13.0478 93.5531C12.9789 93.77 12.5725 93.9579 12.2861 94.0132C11.72 94.1226 11.6179 93.7289 11.6525 93.2024Z" fill="#212529"/>
<path d="M115.994 93.1956C116.024 93.6905 115.916 94.0551 115.406 93.9789C115.151 93.9407 114.781 93.7502 114.723 93.5526C114.654 93.3202 114.796 92.8331 114.971 92.7623C115.329 92.6179 115.837 92.5077 115.994 93.1956Z" fill="#212529"/>
<path d="M34.7122 93.9528C33.5082 94.0468 33.4048 93.9289 33.7048 92.7168C34.001 92.7396 34.3094 92.7633 34.6758 92.8759C34.7265 93.2941 34.7194 93.6235 34.7122 93.9528Z" fill="#212529"/>
<path d="M34.7714 93.9391C34.7195 93.6216 34.7267 93.2923 34.7405 92.8906C35.214 93.1554 35.0795 93.5371 34.7714 93.9391Z" fill="#212529"/>
<path d="M43.9402 94.0079C43.4126 94.124 42.8641 94.3082 42.7135 93.6285C42.654 93.3602 42.7611 92.8349 42.9111 92.7858C43.2571 92.6725 43.6759 92.7792 44.0651 92.7966C44.0416 93.1884 44.018 93.5801 43.9402 94.0079Z" fill="#212529"/>
<path d="M77.6469 93.8469C77.397 92.7885 77.5735 92.5616 78.4926 92.6844C79.1903 92.7776 78.9037 93.2826 78.8671 93.7271C78.4057 93.8158 78.0263 93.8314 77.6469 93.8469Z" fill="#212529"/>
<path d="M77.6641 93.9062C78.0261 93.832 78.4056 93.8164 78.8531 93.7949C78.5863 94.394 78.1306 94.1569 77.6641 93.9062Z" fill="#212529"/>
<path d="M59.8453 92.8555C59.9666 93.1257 60.11 93.4132 60.0402 93.634C60.0037 93.7498 59.5718 93.8277 59.3602 93.7703C59.2378 93.7371 59.0785 93.317 59.1476 93.2193C59.2764 93.0374 59.5599 92.9638 59.8453 92.8555Z" fill="#212529"/>
<path d="M18.9761 93.9122C18.5949 93.8343 18.2389 93.7802 17.978 93.5942C17.8925 93.5333 17.9876 92.9684 18.1161 92.9161C18.3882 92.8054 18.7367 92.8804 19.0538 92.8792C19.0486 93.2144 19.0435 93.5496 18.9761 93.9122Z" fill="#212529"/>
<path d="M36.8922 94.1058C36.8225 93.6421 36.8217 93.1857 36.839 92.6745C38.0738 92.5436 38.1226 92.5945 38.0735 93.5117C38.0284 94.3536 37.4002 94.0405 36.8922 94.1058Z" fill="#212529"/>
<path d="M53.9624 93.9105C53.7808 93.9727 53.6123 94.0004 53.4614 93.9612C53.1967 93.8923 52.7503 93.8186 52.7243 93.6821C52.67 93.3963 52.8394 93.0684 52.9492 92.7031C54.0634 92.6619 54.0634 92.6619 53.9624 93.9105Z" fill="#212529"/>
<path d="M72.3385 94.0266C72.1625 94.0787 72.0154 94.0806 71.7871 94.0246C71.6617 93.5483 71.6175 93.1296 71.5732 92.711C71.7914 92.6966 72.0095 92.6821 72.3211 92.7063C72.5126 92.7612 72.6106 92.7774 72.7086 92.7937C72.7086 92.7937 72.7196 92.8141 72.7286 92.8218C72.6141 93.2117 72.4907 93.594 72.3385 94.0266Z" fill="#212529"/>
<path d="M71.5142 92.7266C71.6177 93.1296 71.6619 93.5482 71.7318 94.023C71.6827 94.094 71.6081 94.1087 71.4769 94.1133C71.4319 93.6494 71.4434 93.1958 71.5142 92.7266Z" fill="#212529"/>
<path d="M72.6993 92.7523C72.6107 92.7775 72.5127 92.7612 72.3867 92.7011C72.4691 92.6751 72.5795 92.6929 72.6993 92.7523Z" fill="#212529"/>
<path d="M14.1443 85.304C14.0709 84.6223 14.0578 83.92 14.0386 83.1445C14.6307 83.7671 14.3894 84.5274 14.1443 85.304Z" fill="#212529"/>
<path d="M13.1634 83.2109C13.2243 83.8088 13.2273 84.4191 13.2218 85.0964C12.6226 84.5472 12.6183 83.8988 13.1634 83.2109Z" fill="#212529"/>
<path d="M25.3584 82.164C25.4398 82.0468 25.5215 82.0024 25.6498 81.9531C25.691 82.1343 25.682 82.3203 25.6807 82.5064C25.6721 83.6945 25.6727 83.6945 26.929 83.7233C26.4953 84.2056 25.9861 84.0323 25.422 83.7186C25.3646 83.2087 25.3617 82.7227 25.3584 82.164Z" fill="#212529"/>
<path d="M27.0741 83.7076C26.9968 83.1779 26.9802 82.6295 26.9644 82.0078C27.5811 82.4657 27.3038 83.0825 27.0741 83.7076Z" fill="#212529"/>
</g>
<defs>
<clipPath id="clip0_188_5471">
<rect width="120" height="120" fill="white"/>
</clipPath>
</defs>
</svg>
