<svg width="140" height="105" viewBox="0 0 140 105" fill="none" xmlns="http://www.w3.org/2000/svg">
<g clip-path="url(#clip0_188_4186)">
<path d="M35.877 74.4757C42.638 74.4497 49.399 74.4044 56.16 74.4017C72.4484 74.3952 88.7369 74.4086 105.279 74.5298C105.634 74.7365 105.748 74.8027 105.901 75.024C106.054 76.0582 106.291 76.9121 106.295 77.7671C106.325 84.6159 106.255 91.4656 106.35 98.3131C106.375 100.099 105.898 100.67 104.047 100.665C81.7521 100.604 59.4568 100.606 37.1617 100.663C35.3999 100.668 34.9479 100.127 34.9653 98.4283C35.0458 90.5602 35.0016 82.6909 35.1257 74.815C35.4586 74.6972 35.6678 74.5865 35.877 74.4757ZM88.2766 84.059C87.8595 84.1891 87.4424 84.3192 86.9652 84.0787C86.9652 83.2206 86.9652 82.3625 86.9652 81.4722C84.6921 80.5985 84.1382 82.4146 83.3695 83.6995C82.5798 85.0192 81.9657 86.444 81.233 87.906C79.447 85.4912 79.2766 81.9051 75.6145 81.0541C75.3865 85.5301 75.1852 89.4839 74.9779 93.5527C75.6883 93.5527 76.3678 93.5527 77.3053 93.5527C77.3053 90.7954 77.3053 88.1618 77.3053 85.5282C77.4884 85.4811 77.6716 85.434 77.8547 85.3868C78.4064 86.5955 78.9712 87.7983 79.5055 89.0146C79.913 89.9424 79.8102 91.5461 81.3666 91.0951C81.9764 90.9184 82.3093 89.6372 82.679 88.8188C83.1249 87.8317 83.4758 86.8017 83.8679 85.7903C84.5732 88.1238 84.8511 90.3118 85.3537 92.447C85.4726 92.9519 86.2929 93.4936 86.8845 93.6408C87.9248 93.8996 88.0938 93.1998 88.1688 92.2752C88.413 91.9216 88.6572 91.5679 89.1485 91.3959C89.4535 91.7062 89.74 92.0374 90.0663 92.3233C92.2721 94.256 95.4054 94.579 97.9701 93.1503C100.159 91.9309 101.306 89.6697 100.919 87.3383C100.43 84.392 98.3959 82.3229 95.3223 81.4197C93.3627 80.0554 89.8087 81.4572 88.7342 84.0821C88.7342 84.0821 88.6081 84.0965 88.2766 84.059ZM53.1674 86.9356C52.953 86.6877 52.7386 86.4398 52.4952 85.8315C52.4169 85.2259 52.3386 84.6203 52.1797 83.3908C51.5402 84.3486 51.2402 84.6631 51.0945 85.0377C50.0978 87.601 50.8688 90.4952 53.008 92.3482C55.2087 94.2545 58.3515 94.5611 60.9339 93.1215C63.3779 91.7591 64.1495 89.7705 63.5342 86.4204C63.0641 83.8613 60.4007 81.657 57.9607 81.8077C54.2094 82.0392 53.5369 82.7567 53.4324 86.6329C53.4285 86.7774 53.3982 86.9212 53.1674 86.9356ZM49.8431 82.7758C49.9438 82.4401 50.0445 82.1044 50.1452 81.7687C49.5479 81.6589 48.8163 81.2741 48.3772 81.4884C46.7341 82.2903 45.1867 83.2882 43.4812 84.284C43.4173 83.3543 43.3552 82.4507 43.2788 81.3383C42.4057 81.4139 41.6808 81.4766 41.2089 81.5175C41.2089 85.6606 41.2089 89.4705 41.2089 93.4562C42.0054 93.5388 42.6778 93.6084 43.4816 93.6917C43.5799 92.2116 43.6629 90.9628 43.7417 89.7757C45.7597 91.1386 47.6461 92.4209 49.5416 93.6897C50.7762 94.5162 51.3664 93.9193 51.7462 92.6182C50.9069 92.1437 50.0721 91.7243 49.2922 91.22C47.5513 90.0943 44.8487 89.1329 45.3453 86.8655C45.6839 85.3192 48.0718 84.2216 49.8431 82.7758ZM64.8116 89.1962C65.8508 92.336 67.6464 93.6533 71.213 93.6168C72.1088 93.6077 72.9988 93.0355 73.8915 92.7221C73.0655 92.4263 72.2584 91.9625 71.41 91.8672C69.1178 91.6099 67.4352 90.2918 67.0447 88.236C66.6594 86.2078 67.5648 84.7709 69.9726 83.746C71.0261 83.2976 72.1347 82.9783 73.9559 82.3432C72.8395 81.6796 72.2088 80.9723 71.6458 81.0226C67.072 81.4314 64.5402 84.3724 64.8116 89.1962Z" fill="#03AEEF"/>
<path d="M77.8742 11.8182C71.7211 13.8898 66.0248 16.6942 61.8294 21.9027C59.7085 20.5527 57.7272 19.0737 55.5607 17.9524C48.2802 14.1842 40.9727 16.2014 36.4154 22.9437C35.9758 21.9697 35.4865 21.1112 35.4735 20.2454C35.3987 15.2932 35.5074 10.3378 35.3996 5.38674C35.3611 3.61445 35.8248 3.01822 37.6908 3.02347C60.4177 3.08738 83.1449 3.06856 105.874 3.27543C105.875 8.31919 105.875 13.1587 105.875 18.1478C104.092 16.4685 102.694 14.7496 100.935 13.5681C94.6583 9.35217 87.6388 9.0095 80.4486 10.2101C79.5266 10.364 78.7293 11.2639 77.8742 11.8182Z" fill="#EC018C"/>
<path d="M73.0499 35.8795C73.3852 35.9183 73.7205 35.9572 74.3806 35.9029C74.8985 35.1594 75.0695 34.5015 75.2889 33.8602C75.8058 32.3492 76.5078 31.0833 78.4142 31.0424C79.9441 31.0096 81.1798 31.6415 81.2669 33.0895C81.3529 34.519 81.2175 36.3703 80.3797 37.3594C78.7865 39.2403 76.7138 40.7688 74.6637 42.1888C73.3893 43.0715 72.4114 42.3025 72.1729 40.711C71.4265 35.7284 70.1103 30.8791 67.0728 26.805C65.8111 25.1128 66.2259 24.3052 67.518 23.2693C71.4789 20.0942 76.0103 18.1491 81.1149 17.0279C82.1499 16.8808 82.9986 16.6782 83.8553 16.6354C87.4805 16.4547 91.0838 16.5175 94.6004 18.0634C95.2364 18.3821 95.7872 18.5808 96.338 18.7794C96.7285 19.1102 97.119 19.4409 97.5488 20.0558C98.0493 20.9806 98.5106 21.6213 98.9718 22.2619C98.9718 22.2619 98.9265 22.2818 98.9157 22.4416C98.9482 23.028 98.9069 23.4852 99.0486 23.8761C99.9393 26.3331 100.512 28.7808 99.8014 31.4272C99.2484 33.4874 98.9303 35.6107 98.5079 37.706C98.5079 37.706 98.4963 37.6637 98.3684 37.7125C98.0065 38.0298 97.7122 38.2659 97.5472 38.5717C93.1117 46.7891 85.9256 51.6962 77.5471 55.1335C76.0733 55.7382 74.4803 56.0523 73.0595 56.4664C73.0595 54.0497 73.1196 51.9679 73.0379 49.8917C72.9851 48.5503 73.5293 48.0164 74.8092 47.6511C79.6904 46.258 83.5097 43.3722 85.9582 38.8972C88.0885 35.0039 87.009 29.8463 83.7937 27.6986C79.5546 24.867 76.277 25.339 72.8994 29.2675C71.2346 31.2037 71.3182 34.8757 73.0499 35.8795Z" fill="#EC008C"/>
<path d="M34.2109 39.3026C34.4807 39.2335 34.976 39.0762 34.9883 39.1076C40.6763 53.6642 52.1239 59.8504 66.9449 61.1625C67.1484 61.1806 67.3425 61.3063 67.9726 61.5458C66.7777 64.9587 65.6284 68.3695 64.3516 71.7318C64.1851 72.1701 63.3628 72.6234 62.8434 72.6245C53.4491 72.6429 44.0547 72.5929 34.5654 72.2979C34.4154 71.7802 34.3603 71.5221 34.3052 71.264C34.301 61.3666 34.2967 51.4692 34.3829 41.2277C34.3859 40.3566 34.2984 39.8296 34.2109 39.3026Z" fill="#EC028B"/>
<path d="M107.083 33.3158C107.024 45.262 106.968 57.2081 106.903 69.1543C106.88 73.3141 107.373 72.6497 103.5 72.6589C91.9154 72.6862 80.3311 72.6841 68.7469 72.6881C68.3974 72.6883 68.0479 72.6298 67.791 72.6068C68.8761 69.0076 69.8818 65.4657 71.0619 61.9829C71.2356 61.4702 72.201 61.0111 72.8594 60.9089C86.0898 58.8552 96.3924 52.3164 103.298 40.7976C104.678 38.495 105.23 35.6956 106.352 33.0137C106.722 33.0399 106.902 33.1779 107.083 33.3158ZM83.3465 59.0589C80.162 59.9422 76.9346 60.7018 73.8181 61.7815C72.838 62.121 71.9434 63.1997 71.3989 64.1606C70.8897 65.0592 70.9865 66.2792 70.6541 67.3052C70.2046 68.693 69.5999 70.0306 69.0127 71.5137C69.6723 71.6391 69.9511 71.7382 70.2299 71.7384C81.4489 71.7485 92.6679 71.7265 103.887 71.776C105.649 71.7838 105.9 70.8958 105.895 69.4457C105.862 60.0481 105.881 50.6503 105.871 41.2525C105.87 40.7098 105.764 40.1673 105.708 39.6247C100.393 48.5209 93.0216 54.8671 83.3465 59.0589Z" fill="#ED1289"/>
<path d="M105.872 3.07176C83.1452 3.06911 60.418 3.08794 37.691 3.02403C35.8251 3.01878 35.3613 3.615 35.3999 5.3873C35.5076 10.3383 35.399 15.2938 35.4737 20.246C35.4868 21.1117 35.976 21.9702 36.2786 22.9961C35.6335 24.4453 34.9551 25.7305 34.3227 26.7617C34.354 25.9694 34.3393 25.431 34.3247 24.8927C34.3164 17.766 34.3081 10.6393 34.3795 3.20416C34.4648 2.63707 34.4704 2.37847 34.476 2.11987C34.9642 2.04235 35.4523 1.89718 35.9405 1.89702C58.9461 1.88939 81.9518 1.89434 105.164 1.98488C105.37 2.0719 105.428 2.21955 105.481 2.32754C105.647 2.64761 105.76 2.85969 105.872 3.07176Z" fill="#EC0082"/>
<path d="M68.5503 49.2109C68.5543 52.088 68.5543 54.7683 68.5543 57.6847C63.5019 57.6419 59.0714 56.6568 54.9352 54.6177C47.7016 51.0516 41.7649 46.2049 40.0056 37.7948C39.5648 35.6875 39.3654 33.446 39.5457 31.3075C40.1726 23.8736 46.8211 19.6597 53.867 22.1378C55.2236 22.6149 56.4514 23.4526 57.7498 24.1017C59.1616 24.8075 59.1895 25.6549 58.4943 27.0545C55.3273 33.4305 56.1531 40.2154 60.8022 44.0677C62.5812 45.5418 65.034 46.1832 67.1092 47.3317C67.7136 47.6661 68.0741 48.4412 68.5503 49.2109ZM59.5392 55.3625C61.671 55.721 63.7951 56.1543 65.941 56.3757C66.3749 56.4205 67.2811 55.687 67.3053 55.2734C67.4399 52.9704 67.3699 50.6555 67.3699 49.3144C64.185 47.1908 61.2194 45.889 59.1815 43.717C54.647 38.8842 54.9041 33.1637 57.2824 27.3229C57.5562 26.6504 57.6378 25.3763 57.2444 25.0388C54.2656 22.4837 48.0545 21.5589 44.8896 23.8826C40.9148 26.8008 40.1641 30.6093 40.5637 35.3559C41.4333 45.6874 51.193 52.9193 59.5392 55.3625Z" fill="#ED158A"/>
<path d="M35.0019 74.821C35.0015 82.6899 35.0457 90.5593 34.9652 98.4274C34.9478 100.126 35.3998 100.667 37.1615 100.662C59.4566 100.605 81.752 100.603 104.047 100.664C105.898 100.669 106.374 100.098 106.35 98.3122C106.255 91.4646 106.325 84.6149 106.294 77.7662C106.291 76.9112 106.054 76.0572 106.06 75.0105C106.515 74.8206 106.834 74.8229 107.154 74.8253C107.154 83.6298 107.154 92.4342 107.154 101.408C82.8367 101.408 58.5563 101.408 34.0166 101.408C34.0166 92.6463 34.0166 83.9281 34.2156 75.0111C34.6103 74.8152 34.8061 74.8181 35.0019 74.821Z" fill="#01A7EF"/>
<path d="M73.0266 35.7017C71.3176 34.8762 71.234 31.2042 72.8988 29.2679C76.2764 25.3394 79.554 24.8674 83.7931 27.6991C87.0084 29.8468 88.0879 35.0044 85.9576 38.8976C83.5091 43.3727 79.6898 46.2584 74.8086 47.6515C73.5287 48.0168 72.9845 48.5508 73.0373 49.8922C73.119 51.9684 73.0589 54.0501 73.0589 56.4669C74.4797 56.0527 76.0727 55.7386 77.5465 55.134C85.925 51.6967 93.1111 46.7895 97.5465 38.5722C97.7116 38.2664 98.0059 38.0303 98.3888 37.7191C97.4128 39.7499 96.6043 42.093 95.1073 43.8492C89.1329 50.8578 81.6182 55.5001 72.5953 57.589C72.3993 57.6344 72.1781 57.5712 71.9117 57.5552C71.9117 54.4177 71.8323 51.3089 71.996 48.213C72.021 47.7409 73.1142 47.1004 73.8108 46.9248C78.706 45.6908 82.6382 43.1656 85.0611 38.644C87.226 34.6039 86.1724 30.1994 82.6579 28.0804C80.1419 26.5634 77.3124 26.6569 75.0742 28.3312C72.8021 30.0308 72.1025 32.4611 73.0266 35.7017Z" fill="#ED1388"/>
<path d="M80.9319 17.0467C76.0099 18.15 71.4785 20.0951 67.5177 23.2702C66.2255 24.3061 65.8108 25.1137 67.0724 26.8059C70.11 30.88 71.4262 35.7292 72.1726 40.7119C72.411 42.3034 73.3889 43.0724 74.6633 42.1897C76.7134 40.7697 78.7862 39.2411 80.3793 37.3603C81.2171 36.3712 81.3525 34.5199 81.2666 33.0904C81.1795 31.6424 79.9437 31.0105 78.4139 31.0433C76.5075 31.0842 75.8055 32.3501 75.2885 33.8611C75.0691 34.5024 74.8981 35.1603 74.5434 35.8446C74.5494 34.6149 74.4467 33.2305 74.9455 32.1151C75.7832 30.2421 78.0954 29.5009 79.9612 30.1689C81.8308 30.8382 82.7839 32.5437 82.4971 34.7066C81.891 39.2783 76.4602 43.7497 71.5773 43.5221C70.817 36.855 69.2682 30.398 64.6206 24.9706C67.7727 21.3119 71.6817 19.051 76.0317 17.5015C77.3643 17.0268 78.8173 16.89 80.4593 16.6621C80.8147 16.8078 80.8908 16.9147 80.9319 17.0467Z" fill="#ED1488"/>
<path d="M105.874 3.27387C105.76 2.85757 105.648 2.64549 105.631 2.25567C105.813 2.01028 105.899 1.94264 105.985 1.875C106.291 2.57135 106.849 3.26256 106.863 3.96484C106.988 10.0768 107.014 16.1908 106.948 22.4917C106.663 22.6947 106.5 22.7102 106.336 22.7257C104.191 15.0703 98.3746 11.7991 91.1832 11.036C86.9429 10.586 82.557 11.5081 78.0557 11.8149C78.7299 11.2623 79.5273 10.3624 80.4492 10.2085C87.6394 9.00793 94.6589 9.3506 100.935 13.5665C102.694 14.748 104.092 16.467 105.876 18.1462C105.876 13.1572 105.876 8.31763 105.874 3.27387Z" fill="#ED0E87"/>
<path d="M67.7881 42.5994C67.2305 42.8507 66.5679 43.1729 66.0982 42.9926C62.7037 41.6894 60.6725 38.5208 60.8518 34.5159C60.9371 32.6088 61.4995 30.723 61.9546 28.2324C65.8718 32.6901 66.7599 37.5892 67.7881 42.5994ZM61.7299 32.8896C61.5504 38.0151 63.1292 41.0791 66.443 41.753C65.7342 37.9791 65.4082 34.1595 62.5793 30.807C62.2147 31.6616 62.0251 32.1059 61.7299 32.8896Z" fill="#EE1789"/>
<path d="M81.1145 17.0254C80.8908 16.9114 80.8146 16.8045 80.6138 16.6781C85.5823 15.0894 90.55 14.8563 95.2445 17.7849C94.9585 17.9242 94.7367 17.9326 94.5148 17.941C91.0834 16.5151 87.4801 16.4523 83.8549 16.633C82.9982 16.6758 82.1495 16.8784 81.1145 17.0254Z" fill="#ED1488"/>
<path d="M98.6367 37.6455C98.9299 35.61 99.248 33.4867 99.8009 31.4265C100.511 28.7801 99.9389 26.3324 99.0482 23.8754C98.9064 23.4845 98.9477 23.0272 98.9245 22.418C100.496 23.8062 100.552 25.7964 100.674 27.8416C100.879 31.2777 100.257 34.505 98.6367 37.6455Z" fill="#ED1388"/>
<path d="M98.959 22.1067C98.5101 21.6217 98.0488 20.981 97.5977 20.1758C98.0541 20.6578 98.5004 21.3044 98.959 22.1067Z" fill="#ED1388"/>
<path d="M34.8377 38.5702C34.511 38.3272 34.2775 37.9151 34.0439 37.503C34.2304 37.4239 34.4169 37.3447 34.6034 37.2656C34.7126 37.6441 34.8217 38.0226 34.8377 38.5702Z" fill="#F46FBE"/>
<path d="M106.314 22.886C106.5 22.7118 106.663 22.6963 106.95 22.6699C107.072 23.0597 107.072 23.4604 107.072 24.4969C106.619 23.6525 106.456 23.3486 106.314 22.886Z" fill="#F68CC8"/>
<path d="M107.133 33.1588C106.902 33.1769 106.721 33.0389 106.433 32.8642C106.461 32.5685 106.596 32.3097 106.732 32.0508C106.882 32.3681 107.033 32.6855 107.133 33.1588Z" fill="#F68EC9"/>
<path d="M94.6001 18.0601C94.7368 17.9317 94.9587 17.9233 95.3468 17.9004C95.7624 18.1001 96.0118 18.3144 96.2994 18.6524C95.7869 18.5775 95.2361 18.3788 94.6001 18.0601Z" fill="#ED1388"/>
<path d="M107.096 74.6669C106.835 74.8205 106.515 74.8182 106.037 74.8284C105.748 74.7994 105.634 74.7332 105.482 74.5572C105.966 74.485 106.502 74.4979 107.096 74.6669Z" fill="#33C1F3"/>
<path d="M35.1261 74.8129C34.8066 74.817 34.6108 74.8141 34.2681 74.8102C34.5999 74.6603 35.0787 74.5113 35.7174 74.418C35.6681 74.5843 35.4589 74.6951 35.1261 74.8129Z" fill="#33C1F3"/>
<path d="M34.166 39.4551C34.2983 39.8303 34.3858 40.3573 34.3928 41.0268C34.2486 40.6486 34.1849 40.1277 34.166 39.4551Z" fill="#F46FBE"/>
<path d="M34.255 25.0625C34.3398 25.4294 34.3544 25.9678 34.2708 26.6072C34.1767 26.2168 34.1808 25.7254 34.255 25.0625Z" fill="#F369BA"/>
<path d="M34.2378 71.3906C34.3601 71.5244 34.4152 71.7825 34.4181 72.1682C34.3009 72.0355 34.2358 71.7752 34.2378 71.3906Z" fill="#F46FBE"/>
<path d="M34.3622 2.20508C34.4708 2.37668 34.4651 2.63529 34.3843 3.00061C34.2886 2.83558 34.2683 2.56383 34.3622 2.20508Z" fill="#F369BA"/>
<path d="M105.881 1.83404C105.899 1.94365 105.812 2.01129 105.577 2.14868C105.428 2.21844 105.37 2.07079 105.363 1.99179C105.496 1.87255 105.636 1.83231 105.881 1.83404Z" fill="#F369BA"/>
<path d="M87.8281 92.333C88.0934 93.1965 87.9244 93.8962 86.8841 93.6374C86.2925 93.4903 85.4722 92.9485 85.3533 92.4436C84.8507 90.3084 84.5728 88.1204 83.8675 85.7869C83.4754 86.7983 83.1245 87.8283 82.6786 88.8154C82.3089 89.6339 81.976 90.915 81.3662 91.0917C79.8098 91.5427 79.9126 89.939 79.5051 89.0113C78.9708 87.795 78.406 86.5921 77.8543 85.3835C77.6712 85.4306 77.488 85.4777 77.3049 85.5248C77.3049 88.1584 77.3049 90.792 77.3049 93.5493C76.3674 93.5493 75.688 93.5493 74.9775 93.5493C75.1848 89.4805 75.3861 85.5267 75.6141 81.0508C79.2762 81.9017 79.4466 85.4879 81.2326 87.9027C81.9653 86.4406 82.5794 85.0158 83.3691 83.6961C84.1378 82.4113 84.6917 80.5951 86.9648 81.4689C86.9648 82.3591 86.9648 83.2172 86.9536 84.46C87.2376 87.3407 87.5329 89.8369 87.8281 92.333Z" fill="#EAF8FD"/>
<path d="M53.3802 87.0637C53.3982 86.9196 53.4284 86.7759 53.4323 86.6314C53.5368 82.7551 54.2094 82.0377 57.9606 81.8061C60.4007 81.6555 63.0641 83.8598 63.5341 86.4189C64.1495 89.7689 63.3778 91.7576 60.9338 93.12C58.3515 94.5596 55.2086 94.2529 53.0079 92.3467C50.8688 90.4937 50.0978 87.5995 51.0945 85.0362C51.2401 84.6616 51.5401 84.347 52.1796 83.3892C52.3385 84.6187 52.4168 85.2243 52.4713 86.1904C52.2779 88.5412 52.8152 90.159 54.8029 91.0081C56.8469 91.8813 58.8447 91.8335 60.5154 90.2922C62.0217 88.9025 61.9131 87.1093 61.2377 85.1569C59.2087 82.4384 56.1805 82.2994 55.1877 84.8996C54.8344 85.825 55.5613 87.2597 56.0539 88.3443C56.1792 88.6202 57.8095 88.6195 57.8666 88.4497C58.1294 87.6673 58.0804 86.7802 58.1754 85.4957C58.7539 85.8653 59.434 86.2997 60.1538 86.8937C59.6241 88.1091 59.298 89.6066 58.4149 90.093C57.5823 90.5517 55.9847 90.2535 55.0564 89.7148C54.2548 89.2497 53.9208 87.9786 53.3802 87.0637Z" fill="#E8F7FD"/>
<path d="M95.3787 81.7012C98.3962 82.3228 100.43 84.3919 100.919 87.3382C101.307 89.6696 100.159 91.9308 97.9703 93.1502C95.4056 94.5788 92.2723 94.2558 90.0666 92.3232C89.7403 92.0373 89.4537 91.7061 88.9839 91.1536C87.6671 88.6732 87.4755 86.4053 88.6083 84.0964C88.6083 84.0964 88.7344 84.082 88.9343 84.0719C89.2516 84.7819 89.501 85.5092 89.4615 86.2205C89.349 88.2461 89.7228 89.9798 91.7244 90.9727C93.6821 91.9438 96.1051 91.683 97.6469 90.3328C99.1877 88.9834 99.348 87.0335 98.0699 85.0142C97.6486 84.3807 97.3058 83.7869 96.7938 83.4512C95.3898 82.5305 93.4062 83.0255 92.3885 84.495C91.3629 85.9759 91.8707 87.3118 93.0704 88.3281C93.4745 88.6705 94.4585 88.6699 94.969 88.4125C95.2585 88.2666 95.1723 87.2816 95.1624 86.6761C95.1576 86.3831 94.9384 86.0936 94.8163 85.8026C94.9414 85.6609 95.0665 85.5193 95.1916 85.3776C95.8358 85.7948 96.48 86.2119 97.1496 86.8085C97.212 89.1298 96.3383 90.2951 94.5502 90.4891C92.736 90.6858 91.0091 89.3495 90.6413 87.4642C90.0701 84.5365 91.7062 82.5462 95.3787 81.7012Z" fill="#E7F7FD"/>
<path d="M49.6934 82.8473C48.0719 84.2193 45.684 85.3169 45.3453 86.8632C44.8488 89.1306 47.5514 90.092 49.2922 91.2176C50.0722 91.7219 50.907 92.1413 51.7463 92.6159C51.3665 93.917 50.7762 94.5138 49.5417 93.6874C47.6462 92.4186 45.7598 91.1362 43.7418 89.7734C43.663 90.9605 43.58 92.2093 43.4817 93.6894C42.6779 93.6061 42.0055 93.5365 41.209 93.4539C41.209 89.4682 41.209 85.6582 41.209 81.5152C41.6809 81.4743 42.4058 81.4115 43.2789 81.3359C43.3553 82.4484 43.4174 83.352 43.4812 84.2817C45.1868 83.2859 46.7342 82.288 48.3772 81.4861C48.8164 81.2718 49.5479 81.6566 50.1452 81.7663C50.0445 82.102 49.9439 82.4378 49.6934 82.8473Z" fill="#F0FAFE"/>
<path d="M64.7865 89.0099C64.54 84.3699 67.0718 81.4289 71.6456 81.0201C72.2086 80.9698 72.8394 81.6771 73.9558 82.3406C72.1345 82.9758 71.026 83.2951 69.9724 83.7435C67.5646 84.7684 66.6592 86.2053 67.0445 88.2334C67.435 90.2892 69.1177 91.6073 71.4098 91.8647C72.2583 91.96 73.0654 92.4238 73.8913 92.7195C72.9986 93.033 72.1086 93.6052 71.2128 93.6143C67.6463 93.6508 65.8506 92.3335 64.7865 89.0099Z" fill="#EFF9FD"/>
<path d="M95.3506 81.5584C91.7062 82.5442 90.0701 84.5345 90.6413 87.4622C91.0091 89.3474 92.736 90.6838 94.5502 90.487C96.3383 90.2931 97.2119 89.1278 97.2856 86.7367C97.6211 86.0483 97.8461 85.609 98.0712 85.1698C99.3479 87.0315 99.1876 88.9814 97.6468 90.3307C96.105 91.681 93.682 91.9418 91.7244 90.9707C89.7227 89.9778 89.3489 88.244 89.4614 86.2185C89.5009 85.5072 89.2516 84.7799 88.9756 84.0217C89.8089 81.4551 93.3629 80.0532 95.3506 81.5584Z" fill="#19ACF1"/>
<path d="M61.2503 85.3145C61.9134 87.1102 62.022 88.9034 60.5156 90.2932C58.845 91.8345 56.8471 91.8823 54.8032 91.0091C52.8155 90.16 52.2782 88.5422 52.4861 86.3716C52.7388 86.4392 52.9532 86.6871 53.274 86.9999C53.9211 87.9795 54.255 89.2507 55.0566 89.7158C55.985 90.2545 57.5825 90.5526 58.4152 90.094C59.2982 89.6076 59.6243 88.1101 60.2987 86.825C60.686 86.1687 60.9681 85.7416 61.2503 85.3145Z" fill="#0EA5F0"/>
<path d="M88.4422 84.0781C87.4751 86.4057 87.6667 88.6737 88.86 91.0633C88.6571 91.5683 88.4129 91.9219 87.9985 92.3062C87.5331 89.8406 87.2379 87.3444 86.9839 84.649C87.4422 84.3196 87.8594 84.1895 88.4422 84.0781Z" fill="#16ABF1"/>
<path d="M87.7053 82.0097C87.6825 82.023 87.7281 81.9964 87.7053 82.0097V82.0097Z" fill="#16ABF1"/>
<path d="M83.5095 59.0182C93.0216 54.8675 100.393 48.5213 105.708 39.625C105.764 40.1676 105.87 40.7102 105.871 41.2529C105.881 50.6506 105.862 60.0484 105.895 69.446C105.9 70.8961 105.649 71.7841 103.887 71.7763C92.6679 71.7268 81.4488 71.7489 70.2298 71.7388C69.951 71.7385 69.6723 71.6394 69.0127 71.5141C69.5999 70.031 70.2045 68.6934 70.6541 67.3055C70.9864 66.2796 70.8897 65.0595 71.3988 64.1609C71.9433 63.2 72.838 62.1214 73.8181 61.7818C76.9346 60.7021 80.162 59.9425 83.5095 59.0182Z" fill="#EC008C"/>
<path d="M59.3726 55.2957C51.1928 52.9183 41.4331 45.6865 40.5634 35.3549C40.1639 30.6084 40.9146 26.7999 44.8894 23.8816C48.0543 21.5579 54.2653 22.4827 57.2442 25.0379C57.6376 25.3754 57.556 26.6495 57.2822 27.3219C54.9039 33.1627 54.6468 38.8832 59.1813 43.716C61.2192 45.8881 64.1847 47.1898 67.3697 49.3134C67.3697 50.6545 67.4397 52.9695 67.3051 55.2725C67.2809 55.686 66.3747 56.4195 65.9408 56.3747C63.7949 56.1533 61.6708 55.7201 59.3726 55.2957Z" fill="#EC008C"/>
<path d="M61.7836 32.7195C62.026 32.1055 62.2155 31.6612 62.5802 30.8066C65.4091 34.1591 65.7351 37.9788 66.4439 41.7527C63.13 41.0787 61.5513 38.0147 61.7836 32.7195Z" fill="#EC008B"/>
<path d="M61.2377 85.1572C60.9679 85.7409 60.6857 86.168 60.2589 86.6648C59.434 86.3 58.754 85.8656 58.1755 85.496C58.0804 86.7805 58.1294 87.6676 57.8666 88.45C57.8096 88.6198 56.1792 88.6205 56.0539 88.3446C55.5613 87.2599 54.8344 85.8253 55.1878 84.8999C56.1805 82.2997 59.2087 82.4387 61.2377 85.1572Z" fill="#0FAEF0"/>
<path d="M98.0696 85.013C97.8459 85.6098 97.6209 86.049 97.2598 86.558C96.4797 86.2106 95.8355 85.7935 95.1913 85.3763C95.0662 85.518 94.9411 85.6596 94.816 85.8013C94.9381 86.0924 95.1573 86.3818 95.1621 86.6748C95.172 87.2804 95.2582 88.2653 94.9687 88.4113C94.4582 88.6686 93.4742 88.6692 93.07 88.3269C91.8704 87.3106 91.3626 85.9747 92.3882 84.4937C93.4059 83.0242 95.3895 82.5292 96.7935 83.4499C97.3055 83.7857 97.6483 84.3794 98.0696 85.013Z" fill="#0FAEF0"/>
</g>
<defs>
<clipPath id="clip0_188_4186">
<rect width="140" height="105" fill="white"/>
</clipPath>
</defs>
</svg>
