<svg width="120" height="30" viewBox="0 0 120 30" fill="none" xmlns="http://www.w3.org/2000/svg">
<g clip-path="url(#clip0_178_1514)">
<path d="M43.9248 5.29105L41.4598 11.9896L37.0804 23.927L34.8514 29.9739H27.6661L28.6364 27.2893L34.2745 11.9896H25.7517C24.5979 11.9896 23.6014 12.7194 23.2343 13.7619L20.3759 21.5291C20.3234 21.6594 20.2972 21.8158 20.2972 21.9722C20.2972 22.702 20.9003 23.3015 21.6346 23.3015H26.5909L24.1259 30H21.6346C17.1766 30 13.5577 26.4031 13.5577 21.9722C13.5577 21.086 13.715 20.2259 13.9773 19.444L14.0297 19.2615C14.0297 19.2354 14.0559 19.2094 14.0559 19.1833L16.9143 11.364C18.2517 7.84535 21.6608 5.34318 25.6469 5.31712H43.9248V5.29105ZM18.1731 0H10.9878L0 30H7.18531L18.1731 0ZM117.561 11.9896L120.026 5.29105H111.32L113.26 0H106.075L99.0472 19.1573C99.0472 19.1833 99.021 19.2094 99.021 19.2354L98.9423 19.4179C98.6801 20.2259 98.5227 21.0599 98.5227 21.9461C98.5227 26.3771 102.142 29.9739 106.6 29.9739H112.815L115.28 23.2754H106.6C105.865 23.2754 105.262 22.6759 105.262 21.9461C105.262 21.7897 105.288 21.6334 105.341 21.503L108.855 11.9896H117.561ZM89.0297 5.29105H75.7867L73.5577 11.364L70.6993 19.1573C70.6993 19.1833 70.6731 19.2094 70.6731 19.2354L70.6206 19.4179C70.3584 20.2259 70.201 21.0599 70.201 21.9461C70.201 26.3771 73.8199 29.9739 78.278 29.9739H91.521L93.986 23.2754H78.3042C77.5699 23.2754 76.9668 22.6759 76.9668 21.9461C76.9668 21.7897 76.993 21.6334 77.0454 21.503L80.5332 11.9896H89.0559C89.7902 11.9896 90.3934 12.5891 90.3934 13.3189C90.3934 13.4231 90.3671 13.5274 90.3409 13.6316L89.5542 15.7689H82.7098L80.7692 20.8254H94.9038L96.6084 16.1338C96.9493 15.2737 97.1066 14.3093 97.1066 13.3189C97.1066 8.88792 93.4878 5.29105 89.0297 5.29105ZM61.3374 5.29105H48.0944L45.8916 11.338L39.0734 30H46.2587L52.8147 11.9896H61.3374C62.0717 11.9896 62.6748 12.5891 62.6748 13.3189C62.6748 13.4492 62.6486 13.6056 62.5962 13.7359L56.6434 30H63.8287L68.9161 16.1338C69.257 15.2737 69.4143 14.3093 69.4143 13.3189C69.4143 8.88792 65.7954 5.29105 61.3374 5.29105Z" fill="#212529"/>
</g>
<defs>
<clipPath id="clip0_178_1514">
<rect width="120" height="30" fill="white"/>
</clipPath>
</defs>
</svg>
