<svg width="200" height="34" viewBox="0 0 200 34" fill="none" xmlns="http://www.w3.org/2000/svg">
<g clip-path="url(#clip0_188_3027)">
<path d="M29.827 1.5847C32.1614 3.031 33.2119 4.8208 33.1465 7.62318C32.9499 16.0414 33.0693 24.467 32.9124 33.052C28.4635 29.1197 24.1158 25.0784 19.8838 20.9184C13.4914 14.6345 7.17958 8.26773 0.833496 1.93619C1.39486 1.80715 1.95596 1.56695 2.51761 1.56567C11.5613 1.54499 20.6051 1.55472 29.827 1.5847Z" fill="#212529"/>
<path d="M0.806718 2.11328C7.17976 8.26557 13.4915 14.6323 19.884 20.9162C24.116 25.0763 28.4637 29.1176 32.8886 33.2307C33.0176 33.2495 33.0667 33.3964 33.072 33.4736C23.4524 33.5689 13.8274 33.5869 3.96696 33.4617C2.76536 32.3874 1.79917 31.4564 0.832984 30.5253C0.815243 21.1144 0.797502 11.7035 0.806718 2.11328Z" fill="#212529"/>
<path d="M199.966 23.7972C196.692 26.727 192.772 27.1369 189.856 25.0577C189.444 24.7638 188.939 24.6015 188.477 24.3783C188.666 24.0347 188.856 23.691 189.046 23.3474C189.749 23.4868 190.636 23.4031 191.123 23.8062C192.785 25.1824 194.654 24.8974 196.423 24.5152C197.816 24.2139 198.641 23.1189 198.475 21.4782C198.321 19.9516 197.431 19.2298 196.059 18.9409C194.757 18.6668 193.419 18.5259 192.151 18.1455C190.043 17.5135 189.178 16.18 189.232 13.972C189.284 11.8491 190.469 10.1716 192.494 9.81801C194.437 9.47883 196.468 9.29164 198.224 10.547C198.612 10.8245 198.775 11.4198 199.042 11.8687C198.498 11.8817 197.947 11.9598 197.413 11.8951C195.946 11.7172 194.41 11.1131 193.051 11.3969C192.175 11.5797 191.21 12.9315 190.925 13.9416C190.617 15.0322 191.286 16.2132 192.608 16.5671C193.828 16.8936 195.142 16.9547 196.289 17.4352C197.515 17.9486 198.594 18.8161 199.838 19.607C199.957 20.9969 199.976 22.3087 199.966 23.7972Z" fill="#212529"/>
<path d="M84.2311 18.9339C84.2311 21.4297 84.2311 23.7323 84.2311 26.1535C83.3049 26.1535 82.5191 26.1535 81.5861 26.1535C81.5861 23.0458 81.5861 19.9955 81.5861 16.9453C81.4747 16.9121 81.3632 16.879 81.2518 16.8458C80.428 18.5108 79.6819 20.2221 78.7403 21.8169C78.3888 22.4122 77.5543 23.1229 76.9885 23.0833C76.3095 23.0358 75.4319 22.3824 75.0809 21.7461C74.151 20.0604 73.4585 18.2425 72.3442 16.548C72.3442 19.7043 72.3442 22.8605 72.3442 26.1438C71.3983 26.1438 70.6125 26.1438 69.7202 26.1438C69.7202 20.6861 69.7202 15.2614 69.7202 9.74903C70.6861 9.74903 71.5601 9.74903 72.4033 9.74903C73.8897 12.8042 75.3664 15.8396 77.0212 19.2411C78.2675 16.5483 79.3693 14.105 80.5256 11.688C81.5417 9.564 81.5687 9.57699 84.2311 9.76632C84.2311 12.7414 84.2311 15.7411 84.2311 18.9339Z" fill="#212529"/>
<path d="M98.454 18.5004C97.937 18.8928 97.4334 19.2642 96.9123 19.2909C95.3285 19.3722 93.7379 19.3204 92.0382 19.3204C92.0382 20.7299 92.0382 21.9917 92.0382 23.4721C94.435 23.4721 96.8927 23.4721 99.4803 23.4721C99.4803 24.4768 99.4803 25.2665 99.4803 26.1667C96.0282 26.1667 92.594 26.1667 89.0024 26.1667C89.0024 20.7835 89.0024 15.3605 89.0024 9.79883C92.432 9.79883 95.9097 9.79883 99.5016 9.79883C99.5016 10.5595 99.5016 11.3047 99.5016 12.2668C97.1032 12.2668 94.6457 12.2668 92.0581 12.2668C92.0581 13.7839 92.0581 15.0886 92.0581 16.5485C94.1042 16.5485 96.1289 16.5485 98.328 16.5485C98.3785 17.2304 98.419 17.7761 98.454 18.5004Z" fill="#212529"/>
<path d="M173.076 16.3494C173.075 19.4202 173.101 22.3151 173.036 25.2079C173.028 25.5536 172.525 25.8881 172.252 26.2278C172.017 25.9156 171.579 25.6051 171.576 25.2909C171.534 20.1593 171.546 15.0272 171.546 9.89521C171.723 9.76477 171.899 9.63434 172.076 9.50391C172.629 9.99313 173.397 10.3758 173.698 10.9898C175.078 13.8037 176.322 16.6846 177.626 19.5359C177.917 20.1716 178.256 20.7852 178.715 21.6888C180.267 18.1149 181.698 14.7743 183.173 11.4533C183.617 10.4517 183.927 9.09848 185.76 9.98002C185.76 15.0441 185.78 20.1753 185.713 25.3053C185.709 25.6259 185.028 25.9376 184.662 26.2534C184.391 25.8405 183.895 25.4336 183.884 25.0137C183.812 22.3143 183.846 19.612 183.846 16.9107C183.846 16.3016 183.846 15.6925 183.466 14.9819C182.42 17.3502 181.425 19.7437 180.296 22.0715C179.947 22.7901 179.233 23.3297 178.686 23.9513C178.147 23.411 177.419 22.9637 177.103 22.3141C175.814 19.6719 174.652 16.9676 173.076 14.278C173.076 14.9096 173.076 15.5412 173.076 16.3494Z" fill="#212529"/>
<path d="M53.4588 26.2752C51.4867 26.2752 49.706 26.2752 47.8101 26.2752C47.8101 20.7023 47.8101 15.278 47.8101 9.75781C48.6207 9.75781 49.3654 9.75781 50.3195 9.75781C50.3195 14.2734 50.3195 18.8022 50.3195 23.5442C53.1072 23.5442 55.6934 23.5442 58.3669 23.5442C58.3669 24.5065 58.3669 25.2546 58.3669 26.2752C56.8 26.2752 55.2252 26.2752 53.4588 26.2752Z" fill="#212529"/>
<path d="M163.452 17.0023C164.342 17.0032 165.059 16.9221 165.744 17.0361C166.147 17.1031 166.499 17.4799 166.874 17.7175C166.473 17.9935 166.082 18.4897 165.67 18.5081C163.763 18.5933 161.85 18.5457 159.779 18.5457C159.779 20.5848 159.779 22.4756 159.779 24.7297C161.928 24.7297 164.137 24.6809 166.34 24.7631C166.91 24.7843 167.465 25.216 168.028 25.4591C167.494 25.731 166.967 26.2214 166.426 26.2379C163.751 26.319 161.072 26.2748 158.237 26.2748C158.237 20.7577 158.237 15.3963 158.237 9.67747C161.213 9.67747 164.248 9.65631 167.282 9.71597C167.536 9.72097 167.779 10.2697 168.028 10.5658C167.692 10.7778 167.36 11.1657 167.02 11.1735C164.663 11.2272 162.303 11.2018 159.781 11.2018C159.781 13.1116 159.781 14.8732 159.781 17.0023C160.906 17.0023 162.086 17.0023 163.452 17.0023Z" fill="#212529"/>
<path d="M131.877 25.6673C131.246 25.3145 130.729 25.0601 130.248 24.7494C130.047 24.6197 129.924 24.37 129.764 24.1738C130.36 23.1871 130.998 22.8511 131.921 23.7511C133.472 25.2632 135.412 24.8945 137.18 24.52C138.569 24.2257 139.411 23.1363 139.244 21.4917C139.082 19.8941 138.278 19.103 136.697 18.9117C135.444 18.7601 134.185 18.5215 132.976 18.1601C130.929 17.5481 129.873 15.9118 130.001 13.797C130.122 11.8188 131.721 9.8979 133.694 9.71574C135.975 9.50501 138.318 9.38107 140.604 11.7543C139.572 11.828 138.93 11.9781 138.319 11.8958C137.032 11.7222 135.769 11.2812 134.483 11.2161C132.614 11.1216 131.66 12.6323 131.809 14.0532C131.917 15.0822 133.196 16.1643 134.202 16.8607C134.91 17.3512 136.031 17.2673 136.975 17.3819C139.366 17.6722 140.987 19.3091 141.143 21.6346C141.268 23.506 139.884 25.6354 137.8 25.9388C135.918 26.2129 133.942 25.834 131.877 25.6673Z" fill="#212529"/>
<path d="M109.99 18.9218C108.845 18.6734 107.842 18.4898 106.877 18.1833C104.509 17.4308 103.575 15.957 103.854 13.538C104.109 11.3359 105.669 9.69822 107.905 9.71299C109.514 9.72363 111.142 10.1062 112.715 10.5087C113.113 10.6107 113.331 11.4226 113.632 11.9083C113.085 11.8979 112.531 11.9377 111.991 11.8675C110.585 11.6843 109.176 11.243 107.784 11.2984C106.312 11.3569 105.582 12.6147 105.482 13.9634C105.393 15.1706 105.954 16.2346 107.265 16.587C108.424 16.8984 109.595 17.2058 110.78 17.3695C113.096 17.6896 114.455 18.8152 114.612 20.6959C114.863 23.7071 113.899 25.5714 111.474 26.0581C109.023 26.5501 106.492 26.6928 104.361 24.9376C104.011 24.6486 103.925 24.0345 103.717 23.5706C104.236 23.5563 104.78 23.4324 105.267 23.5481C106.711 23.8908 108.114 24.552 109.568 24.675C111.658 24.8519 112.903 23.7252 113.07 21.9664C113.235 20.2185 112.532 19.4885 109.99 18.9218Z" fill="#212529"/>
<path d="M61.5381 22.0182C61.5381 17.855 61.5381 13.8838 61.5381 9.78906C62.457 9.78906 63.2423 9.78906 64.1298 9.78906C64.1298 15.2578 64.1298 20.6788 64.1298 26.188C63.2896 26.188 62.5457 26.188 61.5381 26.188C61.5381 24.8581 61.5381 23.5341 61.5381 22.0182Z" fill="#212529"/>
<path d="M117.69 11.5867C117.416 10.9454 117.196 10.4382 116.977 9.93092C117.129 9.76644 117.281 9.60197 117.434 9.4375C118.024 9.87795 118.834 10.1936 119.165 10.7814C120.323 12.8429 121.316 14.9982 122.563 17.5024C123.433 15.8149 124.054 14.3175 124.933 12.9929C125.719 11.8078 125.551 9.56782 128.307 9.7782C127.7 11.0555 127.322 12.1331 126.721 13.0656C124.492 16.5244 122.831 20.1209 123.453 24.4021C123.507 24.7779 123.538 25.209 123.405 25.5444C123.294 25.8245 122.921 26.1823 122.674 26.1747C122.424 26.167 122.17 25.7667 121.951 25.5099C121.886 25.4333 121.905 25.2558 121.93 25.1337C122.995 19.8867 119.805 15.9817 117.69 11.5867Z" fill="#212529"/>
<path d="M149.761 11.2789C149.471 11.9933 149.253 12.6618 149.247 13.3322C149.213 17.0607 149.261 20.7902 149.199 24.518C149.189 25.0913 148.755 25.6575 148.518 26.227C148.243 25.6307 147.739 25.0381 147.729 24.4375C147.661 20.1393 147.693 15.8394 147.693 11.2048C146.431 11.2048 145.305 11.2685 144.193 11.1692C143.818 11.1358 143.48 10.6884 143.126 10.4301C143.484 10.1753 143.838 9.70643 144.201 9.69941C147.208 9.64121 150.216 9.64772 153.223 9.69973C153.547 9.70532 153.863 10.1258 154.182 10.3538C153.853 10.6366 153.546 11.1253 153.191 11.1639C152.114 11.2808 151.019 11.2233 149.761 11.2789Z" fill="#212529"/>
</g>
<defs>
<clipPath id="clip0_188_3027">
<rect width="200" height="34" fill="white"/>
</clipPath>
</defs>
</svg>
