<svg width="120" height="120" viewBox="0 0 120 120" fill="none" xmlns="http://www.w3.org/2000/svg">
<path d="M14.0799 51.8825C13.6198 52.1401 13.4541 52.5635 13.675 52.95C13.8958 53.3365 14.3376 53.3917 14.7977 53.134C15.2578 52.8763 15.5339 52.3058 15.3498 51.9745C15.1658 51.6616 14.5584 51.6064 14.0799 51.8825ZM14.0063 53.907C13.6014 54.1279 13.4725 54.4776 13.6566 54.8273C13.8406 55.1585 14.2271 55.2138 14.6136 54.9929C15.0001 54.772 15.2394 54.2935 15.0922 53.999C14.9449 53.7046 14.4112 53.6862 14.0063 53.907ZM13.859 51.4592C13.3989 51.7168 12.9572 51.6616 12.7363 51.2751C12.5155 50.8702 12.6811 50.4837 13.1412 50.2076C13.6014 49.9315 14.2087 49.9684 14.4112 50.3181C14.5952 50.6493 14.3191 51.2015 13.859 51.4592ZM12.0553 50.5205C11.6504 50.7414 11.2823 50.6862 11.0983 50.3549C10.9142 50.0236 11.0431 49.6739 11.448 49.4346C11.8529 49.2138 12.3866 49.2322 12.5339 49.5266C12.6995 49.8211 12.4603 50.2812 12.0553 50.5205ZM13.2333 68.8886C11.1167 68.8886 9.05534 68.1524 7.3989 66.8089C5.76087 65.4653 4.63817 63.588 4.21485 61.5082C3.79154 59.4285 4.12283 57.2567 5.11669 55.3794C6.11056 53.5021 7.7486 52.0297 9.69952 51.2199C10.2333 50.999 10.8406 50.9622 11.4112 51.1279C11.9633 51.2935 12.4603 51.6616 12.7915 52.1401C13.1228 52.6187 13.2701 53.2076 13.2149 53.7966C13.1596 54.3855 12.902 54.9193 12.4971 55.3426C12.2578 55.5819 11.9633 55.7659 11.6504 55.9131C11.4664 56.0052 11.2455 56.0972 11.0615 56.226C10.4725 56.5757 9.99399 57.0727 9.66271 57.6616C9.31301 58.2506 9.12896 58.9131 9.11056 59.5941C9.09215 60.2751 9.23939 60.9561 9.55228 61.5635C9.86516 62.1708 10.3069 62.6861 10.859 63.0911C11.4112 63.4776 12.0553 63.7352 12.7363 63.8089C13.4173 63.8825 14.0983 63.7904 14.7241 63.5512C15.3498 63.2935 15.9204 62.8886 16.3621 62.3733C16.8038 61.8579 17.0983 61.2322 17.2455 60.5696C17.2823 60.2935 17.3191 60.0174 17.3376 59.7414C17.3376 59.4653 17.3928 59.1892 17.4664 58.9131C17.6688 58.3426 18.0553 57.8641 18.5707 57.5512C19.086 57.2383 19.6934 57.1279 20.2823 57.2199C20.8713 57.3119 21.4234 57.6248 21.8099 58.0849C22.1964 58.545 22.4173 59.134 22.4173 59.723C22.4173 62.1524 21.4418 64.4898 19.7302 66.2199C18.0001 67.9131 15.6627 68.8702 13.2333 68.8886ZM42.7547 52.7843C42.6811 52.7843 42.5891 52.8027 42.5339 52.8579C42.4603 52.9131 42.4234 52.9684 42.3866 53.042L39.2762 62.4101H39.2394L36.129 53.042C36.1106 52.9684 36.0553 52.8947 35.9817 52.8579C35.9081 52.8027 35.8345 52.7843 35.7609 52.7843H30.9204C30.8099 52.7843 30.7179 52.8211 30.6443 52.8947C30.5707 52.9684 30.5339 53.0604 30.5339 53.1708V66.6984C30.5339 66.8088 30.5707 66.9009 30.6443 66.9745C30.7179 67.0481 30.8099 67.0849 30.9204 67.0849H33.8468C33.9572 67.0849 34.0492 67.0481 34.1228 66.9745C34.1964 66.9009 34.2333 66.8088 34.2333 66.6984V58.1033C34.2333 58.0849 34.2333 58.0481 34.2517 58.0297C34.2701 58.0113 34.2701 57.9929 34.2885 57.9745C34.3069 57.9561 34.3253 57.9377 34.3621 57.9377C34.3805 57.9377 34.4173 57.9193 34.4357 57.9193C34.4725 57.9193 34.5277 57.9377 34.5461 57.9561C34.583 57.9745 34.6014 58.0113 34.6198 58.0481L37.5461 66.8273C37.5645 66.9009 37.6198 66.9745 37.6934 67.0113C37.767 67.0665 37.8406 67.0849 37.9142 67.0849H40.5461C40.6198 67.0849 40.7118 67.0665 40.767 67.0113C40.8406 66.9561 40.8774 66.9009 40.9142 66.8273L43.8406 58.0481C43.859 58.0113 43.8774 57.9745 43.9142 57.9561C43.951 57.9377 43.9879 57.9193 44.0247 57.9193C44.0799 57.9193 44.1167 57.9377 44.1535 57.9745C44.1903 58.0113 44.2087 58.0665 44.2087 58.1033V66.6984C44.2087 66.8088 44.2455 66.9009 44.3191 66.9745C44.3928 67.0481 44.4848 67.0849 44.5952 67.0849H47.5216C47.632 67.0849 47.7241 67.0481 47.7977 66.9745C47.8713 66.9009 47.9081 66.8088 47.9081 66.6984V53.1708C47.9081 53.0604 47.8713 52.9684 47.7977 52.8947C47.7241 52.8211 47.632 52.7843 47.5216 52.7843H42.7547ZM65.6688 61.8947C65.6688 63.496 66.6995 64.4714 67.859 64.4714C68.2455 64.4714 68.6136 64.3978 68.9633 64.2506C69.313 64.1033 69.6259 63.8641 69.8652 63.588C69.9204 63.5144 70.0124 63.4776 70.1044 63.4592C70.1964 63.4408 70.2885 63.4776 70.3805 63.5328L72.2026 64.8763C72.2394 64.9131 72.2762 64.95 72.313 64.9868C72.3314 65.0236 72.3498 65.0788 72.3682 65.134C72.3682 65.1892 72.3682 65.2444 72.3498 65.2996C72.3314 65.3549 72.313 65.3917 72.2762 65.4285C71.2087 66.68 69.7179 67.361 67.7854 67.361H67.6014C64.5277 67.361 62.0431 65.0788 62.0431 62.042V61.5819C62.0431 58.545 64.5277 56.2628 67.6014 56.2628H67.7854C69.7179 56.2628 71.2087 56.9438 72.2762 58.1954C72.313 58.2322 72.3314 58.2874 72.3498 58.3242C72.3682 58.3794 72.3682 58.4346 72.3682 58.4714C72.3682 58.5266 72.3498 58.5819 72.313 58.6187C72.2946 58.6555 72.2578 58.7107 72.2026 58.7291L70.3805 60.0727C70.3069 60.1279 70.2149 60.1647 70.1228 60.1463C70.0308 60.1279 69.9388 60.0911 69.8836 60.0174C69.6259 59.7414 69.3314 59.5021 68.9817 59.3549C68.632 59.2076 68.2639 59.1156 67.8774 59.134C66.7179 59.134 65.6872 60.1095 65.6872 61.7107V61.8947H65.6688ZM74.2087 53.1156C74.2087 53.0052 74.2455 52.9131 74.3191 52.8395C74.3928 52.7659 74.4848 52.7291 74.5952 52.7291H80.8529C84.0369 52.7291 86.2087 54.588 86.2087 57.5696V57.772C86.2087 60.772 84.0921 62.6677 80.8529 62.6677H77.9081V66.68C77.9081 66.7904 77.8713 66.8825 77.7977 66.9561C77.7241 67.0297 77.632 67.0665 77.5216 67.0665H74.5952C74.4848 67.0665 74.3928 67.0297 74.3191 66.9561C74.2455 66.8825 74.2087 66.7904 74.2087 66.68V53.1156ZM80.2455 59.6125C81.5155 59.6125 82.4909 58.8395 82.4909 57.6984V57.6248C82.4909 56.5389 81.5707 55.7659 80.3375 55.7659H77.9081V59.5941H80.2455V59.6125ZM49.859 64.1954C49.859 65.9806 51.3314 67.3794 53.4296 67.3794C55.0492 67.3794 55.9142 66.68 56.6688 66.1095C56.7056 66.3487 56.7609 66.5696 56.8161 66.8089C56.8345 66.8825 56.8897 66.9561 56.9633 67.0113C57.0369 67.0665 57.1106 67.0849 57.2026 67.0849H59.7425C59.8529 67.0849 59.9449 67.0481 60.0185 66.9745C60.0922 66.9009 60.129 66.8088 60.129 66.6984V60.6984C60.129 57.9745 58.3253 56.226 55.4909 56.226H55.1964C53.6136 56.226 52.0492 56.5941 50.6504 57.3303C50.5952 57.3487 50.5584 57.3855 50.5216 57.4223C50.4848 57.4592 50.4664 57.5144 50.448 57.5696C50.4296 57.6248 50.4296 57.68 50.448 57.7352C50.448 57.7904 50.4664 57.8457 50.5032 57.8825L51.6443 59.7046C51.6995 59.7782 51.7731 59.8334 51.8652 59.8702C51.9572 59.8886 52.0492 59.8886 52.1412 59.8518C53.2455 59.3549 54.129 59.1708 54.9204 59.1708C55.9695 59.1708 56.5768 59.7966 56.5768 60.8641H55.8406C51.7179 60.8457 49.859 61.8395 49.859 64.1954ZM52.9879 64.0481C52.9879 63.1463 54.4418 62.8518 56.2271 62.8518H56.5768V64.0113C56.2823 64.3242 55.9326 64.5635 55.5461 64.7291C55.1596 64.8947 54.7363 64.9868 54.313 64.9868C53.632 64.9684 52.9879 64.6739 52.9879 64.0481ZM87.0369 64.1954C87.0369 65.9806 88.5093 67.3794 90.6075 67.3794C92.2271 67.3794 93.0921 66.68 93.8467 66.1095C93.8836 66.3487 93.9388 66.5696 93.994 66.8089C94.0124 66.8825 94.0676 66.9561 94.1412 67.0113C94.2149 67.0665 94.2885 67.0849 94.3805 67.0849H96.9204C97.0308 67.0849 97.1228 67.0481 97.1964 66.9745C97.2701 66.9009 97.3069 66.8088 97.3069 66.6984V60.6984C97.3069 57.9745 95.5032 56.226 92.6688 56.226H92.3928C90.8099 56.226 89.2639 56.5941 87.8652 57.3303C87.8099 57.3487 87.7731 57.3855 87.7363 57.4223C87.6995 57.4592 87.6811 57.5144 87.6627 57.5696C87.6443 57.6248 87.6443 57.68 87.6627 57.7352C87.6627 57.7904 87.6811 57.8457 87.7179 57.8825L88.859 59.7046C88.9142 59.7782 88.9879 59.8334 89.0799 59.8702C89.1719 59.8886 89.2639 59.8886 89.356 59.8518C90.4603 59.3549 91.3437 59.1708 92.1351 59.1708C93.1842 59.1708 93.7915 59.7966 93.7915 60.8641H93.0553C88.8958 60.8457 87.0369 61.8395 87.0369 64.1954ZM90.1658 64.0481C90.1658 63.1463 91.6198 62.8518 93.405 62.8518H93.7547V64.0113C93.4602 64.3242 93.1105 64.5635 92.7241 64.7291C92.3375 64.8947 91.9142 64.9868 91.4909 64.9868C90.8283 64.9684 90.1658 64.6739 90.1658 64.0481ZM103.196 63.0358L104.761 56.7046C104.779 56.6125 104.834 56.5389 104.89 56.5021C104.963 56.4469 105.037 56.4285 105.129 56.4285H107.761C107.853 56.4285 107.926 56.4653 108 56.5021C108.074 56.5573 108.111 56.6309 108.129 56.7046L109.712 63.0358C109.73 63.0727 109.749 63.1095 109.785 63.1463C109.822 63.1647 109.859 63.1831 109.914 63.1831C109.969 63.1831 110.006 63.1647 110.043 63.1279C110.08 63.0911 110.098 63.0542 110.117 63.0174L110.945 56.7598C110.963 56.6677 111 56.5757 111.074 56.5205C111.147 56.4653 111.239 56.4285 111.331 56.4285H114.074C114.129 56.4285 114.184 56.4469 114.239 56.4653C114.295 56.4837 114.331 56.5205 114.368 56.5757C114.405 56.6125 114.423 56.6677 114.442 56.723C114.46 56.7782 114.46 56.8334 114.442 56.8886L112.325 66.772C112.307 66.8641 112.252 66.9377 112.196 66.9929C112.123 67.0481 112.031 67.0849 111.939 67.0849H108.515C108.423 67.0849 108.35 67.0665 108.276 67.0113C108.203 66.9561 108.166 66.8825 108.129 66.8089L106.473 61.0297H106.399L104.742 66.8089C104.724 66.8825 104.669 66.9561 104.595 67.0113C104.522 67.0665 104.448 67.0849 104.356 67.0849H100.914C100.822 67.0849 100.73 67.0481 100.675 66.9929C100.601 66.9377 100.565 66.8641 100.546 66.772L98.4664 56.8886C98.448 56.8334 98.448 56.7782 98.4664 56.723C98.4848 56.6677 98.5032 56.6125 98.54 56.5757C98.5768 56.5389 98.632 56.5021 98.6688 56.4653C98.724 56.4469 98.7793 56.4285 98.8345 56.4285H101.595C101.687 56.4285 101.779 56.4653 101.853 56.5205C101.927 56.5757 101.963 56.6677 101.982 56.7598L102.81 63.0174C102.81 63.0727 102.847 63.1095 102.884 63.1279C102.92 63.1647 102.957 63.1831 103.012 63.1831C103.049 63.1831 103.104 63.1647 103.123 63.1463C103.16 63.1095 103.196 63.0727 103.196 63.0358Z" fill="#212529"/>
</svg>
