<svg width="894" height="174" viewBox="0 0 894 174" fill="none" xmlns="http://www.w3.org/2000/svg">
<path d="M607.022 158.222C606.274 158.222 605.662 157.996 605.183 157.546C604.705 157.125 604.347 156.208 604.107 154.796C603.898 153.384 603.794 151.22 603.794 148.305L604.78 150.649C602.897 153.263 600.535 155.081 597.696 156.103C594.886 157.095 591.568 157.591 587.742 157.591H579.403C576.145 157.591 573.485 156.509 571.422 154.345C569.39 152.151 568.374 148.846 568.374 144.428C568.374 141.663 568.822 139.334 569.719 137.441C570.615 135.518 572.005 133.97 573.888 132.798C575.771 131.596 578.178 130.724 581.107 130.184C584.036 129.643 587.533 129.372 591.598 129.372H606.753L603.345 132.437V125.766C603.345 124.444 603.121 123.572 602.673 123.151C602.254 122.731 601.313 122.52 599.848 122.52H587.204C584.185 122.52 581.869 122.595 580.255 122.746C578.671 122.896 577.565 123.196 576.937 123.647C576.309 124.068 575.966 124.684 575.906 125.495C575.786 127.058 575.502 128.215 575.054 128.966C574.606 129.718 573.634 130.093 572.14 130.093C569.629 130.093 568.374 128.471 568.374 125.225C568.374 121.649 569.853 119.049 572.812 117.427C575.771 115.774 580.36 114.947 586.577 114.947H600.476C604.302 114.947 606.992 115.864 608.546 117.697C610.1 119.53 610.878 122.701 610.878 127.208V153.894C610.878 156.779 609.592 158.222 607.022 158.222ZM579.672 150.378H587.742C593.392 150.378 597.397 149.236 599.758 146.952C602.15 144.638 603.345 141.002 603.345 136.044L603.883 136.585H591.598C587.653 136.585 584.529 136.78 582.228 137.171C579.956 137.531 578.327 138.252 577.341 139.334C576.384 140.416 575.906 142.024 575.906 144.158C575.906 146.081 576.235 147.599 576.892 148.71C577.58 149.822 578.506 150.378 579.672 150.378Z" fill="#152356"/>
<path d="M510.304 157.591V114.947H540.523C545.545 114.947 549.475 116.044 552.315 118.238C555.155 120.402 556.574 123.422 556.574 127.299C556.574 129.252 556.231 130.95 555.543 132.392C554.856 133.835 553.839 135.007 552.494 135.908C555.214 138.132 556.574 141.213 556.574 145.149C556.574 147.734 555.932 149.958 554.646 151.821C553.361 153.684 551.523 155.112 549.132 156.103C546.741 157.095 543.871 157.591 540.523 157.591H510.304ZM517.837 150.018H539.896C545.993 150.018 549.042 148.575 549.042 145.69C549.042 143.376 548.37 141.753 547.024 140.822C545.709 139.86 543.453 139.379 540.254 139.379H517.837V150.018ZM517.837 131.806H540.254C543.901 131.806 546.292 131.491 547.428 130.86C548.564 130.199 549.132 128.861 549.132 126.848C549.132 123.963 546.053 122.52 539.896 122.52H517.837V131.806Z" fill="#152356"/>
<path d="M479.645 158.222C476.895 158.222 475.52 156.87 475.52 154.165V122.52H462.608C459.678 122.52 458.214 121.258 458.214 118.734C458.214 116.209 459.678 114.947 462.608 114.947H496.772C499.702 114.947 501.166 116.209 501.166 118.734C501.166 121.258 499.702 122.52 496.772 122.52H483.949V154.165C483.949 155.397 483.561 156.374 482.784 157.095C482.007 157.846 480.96 158.222 479.645 158.222Z" fill="#152356"/>
<path d="M427.455 157.591C421.716 157.591 417.143 157.08 413.736 156.058C410.358 155.006 407.922 153.278 406.427 150.874C404.963 148.44 404.23 145.149 404.23 141.002V131.536C404.23 127.389 404.963 124.113 406.427 121.709C407.922 119.275 410.358 117.547 413.736 116.525C417.143 115.473 421.716 114.947 427.455 114.947H440.099C442.46 114.947 444.403 115.353 445.927 116.164C447.482 116.946 448.633 118.163 449.38 119.816C450.127 121.438 450.501 123.512 450.501 126.036C450.501 127.659 450.172 128.906 449.514 129.778C448.887 130.649 447.96 131.085 446.734 131.085C445.539 131.085 444.612 130.679 443.955 129.868C443.297 129.027 442.968 127.87 442.968 126.397C442.968 124.894 442.729 123.873 442.251 123.332C441.773 122.791 440.846 122.52 439.471 122.52H427.455C422.942 122.52 419.564 122.746 417.322 123.196C415.081 123.617 413.586 124.489 412.839 125.811C412.121 127.133 411.763 129.132 411.763 131.806V140.732C411.763 143.376 412.121 145.375 412.839 146.727C413.586 148.049 415.081 148.936 417.322 149.387C419.564 149.807 422.942 150.018 427.455 150.018H439.471C440.876 150.018 441.803 149.762 442.251 149.251C442.729 148.741 442.968 147.734 442.968 146.231C442.968 144.819 443.282 143.677 443.91 142.805C444.538 141.904 445.449 141.453 446.645 141.453C447.81 141.453 448.737 141.889 449.425 142.76C450.142 143.602 450.501 144.879 450.501 146.592C450.501 149.086 450.127 151.16 449.38 152.813C448.633 154.435 447.482 155.637 445.927 156.419C444.403 157.2 442.46 157.591 440.099 157.591H427.455Z" fill="#152356"/>
<path d="M347.297 173.999C344.846 173.999 343.62 172.467 343.62 169.401V118.644C343.62 115.759 344.905 114.316 347.476 114.316C348.821 114.316 349.748 114.737 350.256 115.579C350.794 116.42 351.063 117.863 351.063 119.906V122.611L349.718 120.808C351.601 118.734 353.977 117.246 356.847 116.345C359.746 115.413 363.079 114.947 366.845 114.947H369.445C375.184 114.947 379.743 115.473 383.12 116.525C386.498 117.577 388.919 119.32 390.384 121.754C391.848 124.158 392.58 127.419 392.58 131.536V141.002C392.58 145.12 391.848 148.395 390.384 150.829C388.919 153.234 386.513 154.961 383.165 156.013C379.847 157.065 375.364 157.591 369.714 157.591H351.152V169.401C351.152 172.467 349.867 173.999 347.297 173.999ZM351.152 150.018H369.714C374.138 150.018 377.441 149.808 379.623 149.387C381.805 148.936 383.255 148.05 383.972 146.727C384.689 145.375 385.048 143.377 385.048 140.732V131.807C385.048 129.132 384.674 127.134 383.927 125.811C383.21 124.489 381.73 123.617 379.488 123.197C377.277 122.746 373.929 122.521 369.445 122.521H366.845C361.435 122.521 357.459 123.632 354.919 125.856C352.408 128.05 351.152 131.476 351.152 136.134V150.018Z" fill="#152356"/>
<path d="M305.387 157.591C299.648 157.591 295.075 157.08 291.668 156.058C288.29 155.006 285.854 153.278 284.36 150.874C282.895 148.44 282.163 145.149 282.163 141.002V131.536C282.163 127.389 282.895 124.113 284.36 121.709C285.854 119.275 288.29 117.547 291.668 116.525C295.075 115.473 299.648 114.947 305.387 114.947H307.988C313.727 114.947 318.285 115.473 321.663 116.525C325.04 117.577 327.461 119.32 328.926 121.754C330.391 124.158 331.123 127.419 331.123 131.536V136.404H289.695V140.732C289.695 143.376 290.054 145.375 290.771 146.727C291.518 148.049 293.013 148.936 295.255 149.387C297.496 149.807 300.874 150.018 305.387 150.018H319.197C320.602 150.018 321.528 149.762 321.976 149.251C322.455 148.741 322.694 147.734 322.694 146.231C322.694 144.729 323.023 143.557 323.68 142.715C324.368 141.874 325.309 141.453 326.505 141.453C327.73 141.483 328.657 141.949 329.285 142.85C329.912 143.722 330.226 144.969 330.226 146.592C330.226 149.086 329.853 151.16 329.105 152.813C328.358 154.435 327.207 155.637 325.653 156.419C324.129 157.2 322.186 157.591 319.824 157.591H305.387ZM289.74 128.831H323.546C323.217 126.187 322.156 124.504 320.362 123.782C319.286 123.362 317.687 123.046 315.565 122.836C313.473 122.626 310.947 122.52 307.988 122.52H305.387C302.159 122.52 299.484 122.641 297.362 122.881C295.269 123.091 293.73 123.422 292.744 123.873C290.95 124.624 289.949 126.277 289.74 128.831Z" fill="#152356"/>
<path d="M227.682 158.222C225.171 158.222 223.916 156.78 223.916 153.895V118.734C223.916 115.789 225.112 114.316 227.503 114.316C230.133 114.316 231.448 115.789 231.448 118.734V131.266H261.757V118.734C261.757 115.789 263.013 114.316 265.523 114.316C268.034 114.316 269.289 115.789 269.289 118.734V153.895C269.289 156.78 268.034 158.222 265.523 158.222C263.013 158.222 261.757 156.78 261.757 153.895V138.839H231.448V153.895C231.448 156.78 230.193 158.222 227.682 158.222Z" fill="#152356"/>
<path d="M193.346 158.222C190.596 158.222 189.222 156.87 189.222 154.165V122.52H176.309C173.38 122.52 171.915 121.258 171.915 118.734C171.915 116.209 173.38 114.947 176.309 114.947H210.474C213.403 114.947 214.867 116.209 214.867 118.734C214.867 121.258 213.403 122.52 210.474 122.52H197.651V154.165C197.651 155.397 197.262 156.374 196.485 157.095C195.708 157.846 194.662 158.222 193.346 158.222Z" fill="#152356"/>
<path d="M118.747 173.999C116.296 173.999 115.07 172.467 115.07 169.401V118.644C115.07 115.759 116.356 114.316 118.926 114.316C120.271 114.316 121.198 114.737 121.706 115.579C122.244 116.42 122.513 117.863 122.513 119.906V122.611L121.168 120.808C123.051 118.734 125.427 117.246 128.297 116.345C131.196 115.413 134.529 114.947 138.295 114.947H140.896C146.634 114.947 151.193 115.473 154.57 116.525C157.948 117.577 160.369 119.32 161.834 121.754C163.298 124.158 164.031 127.419 164.031 131.536V141.002C164.031 145.12 163.298 148.395 161.834 150.829C160.369 153.234 157.963 154.961 154.615 156.013C151.297 157.065 146.814 157.591 141.165 157.591H122.603V169.401C122.603 172.467 121.317 173.999 118.747 173.999ZM122.603 150.018H141.165C145.588 150.018 148.891 149.808 151.073 149.387C153.255 148.936 154.705 148.05 155.422 146.727C156.14 145.375 156.498 143.377 156.498 140.732V131.807C156.498 129.132 156.125 127.134 155.377 125.811C154.66 124.489 153.18 123.617 150.939 123.197C148.727 122.746 145.379 122.521 140.896 122.521H138.295C132.885 122.521 128.91 123.632 126.369 125.856C123.858 128.05 122.603 131.476 122.603 136.134V150.018Z" fill="#152356"/>
<path d="M97.4275 158.222C96.6802 158.222 96.0674 157.996 95.5892 157.546C95.111 157.125 94.7523 156.208 94.5132 154.796C94.3039 153.384 94.1993 151.22 94.1993 148.305L95.1857 150.649C93.3026 153.263 90.9413 155.081 88.1017 156.103C85.292 157.095 81.9742 157.591 78.1482 157.591H69.8088C66.5508 157.591 63.8905 156.509 61.8281 154.345C59.7956 152.151 58.7793 148.846 58.7793 144.428C58.7793 141.663 59.2277 139.334 60.1244 137.441C61.0211 135.518 62.411 133.97 64.2941 132.798C66.1771 131.596 68.5833 130.724 71.5126 130.184C74.4418 129.643 77.939 129.372 82.0041 129.372H97.1584L93.7509 132.437V125.766C93.7509 124.444 93.5268 123.572 93.0784 123.151C92.66 122.731 91.7184 122.52 90.2538 122.52H77.6102C74.5913 122.52 72.2748 122.595 70.6607 122.746C69.0765 122.896 67.9706 123.196 67.3429 123.647C66.7152 124.068 66.3714 124.684 66.3116 125.495C66.1921 127.058 65.9081 128.215 65.4598 128.966C65.0114 129.718 64.04 130.093 62.5455 130.093C60.0347 130.093 58.7793 128.471 58.7793 125.225C58.7793 121.649 60.2589 119.049 63.218 117.427C66.1771 115.774 70.7653 114.947 76.9825 114.947H90.8815C94.7074 114.947 97.3976 115.864 98.9519 117.697C100.506 119.53 101.283 122.701 101.283 127.208V153.894C101.283 156.779 99.998 158.222 97.4275 158.222ZM70.0778 150.378H78.1482C83.7975 150.378 87.8028 149.236 90.1641 146.952C92.5553 144.638 93.7509 141.002 93.7509 136.044L94.289 136.585H82.0041C78.0585 136.585 74.935 136.78 72.6334 137.171C70.3618 137.531 68.7328 138.252 67.7464 139.334C66.7899 140.416 66.3116 142.024 66.3116 144.158C66.3116 146.081 66.6404 147.599 67.298 148.71C67.9855 149.822 68.9121 150.378 70.0778 150.378Z" fill="#152356"/>
<path d="M4.21491 158.222C1.70412 158.222 0.44873 156.779 0.44873 153.894V114.947H45.8222V153.894C45.8222 156.779 44.5668 158.222 42.056 158.222C39.5452 158.222 38.2898 156.779 38.2898 153.894V122.52H7.98109V153.894C7.98109 156.779 6.72569 158.222 4.21491 158.222Z" fill="#152356"/>
<path d="M868.264 58.4209C862.525 58.4209 857.952 57.91 854.545 56.8882C851.167 55.8364 848.731 54.1084 847.237 51.7043C845.772 49.2701 845.04 45.9794 845.04 41.8323V32.3659C845.04 28.2188 845.772 24.9431 847.237 22.539C848.731 20.1048 851.167 18.3768 854.545 17.3551C857.952 16.3032 862.525 15.7773 868.264 15.7773H870.865C876.604 15.7773 881.162 16.3032 884.54 17.3551C887.917 18.4069 890.338 20.1499 891.803 22.5841C893.268 24.9882 894 28.2488 894 32.3659V41.8323C894 45.9494 893.268 49.225 891.803 51.6592C890.338 54.0634 887.917 55.7913 884.54 56.8431C881.162 57.895 876.604 58.4209 870.865 58.4209H868.264ZM868.264 50.8478H870.865C875.348 50.8478 878.696 50.6374 880.908 50.2167C883.15 49.7659 884.629 48.8794 885.347 47.5571C886.094 46.2048 886.468 44.2064 886.468 41.5618V32.6364C886.468 29.9618 886.094 27.9634 885.347 26.6411C884.629 25.3188 883.15 24.4473 880.908 24.0266C878.696 23.5758 875.348 23.3504 870.865 23.3504H868.264C863.751 23.3504 860.373 23.5758 858.132 24.0266C855.89 24.4473 854.395 25.3188 853.648 26.6411C852.931 27.9634 852.572 29.9618 852.572 32.6364V41.5618C852.572 44.2064 852.931 46.2048 853.648 47.5571C854.395 48.8794 855.89 49.7659 858.132 50.2167C860.373 50.6374 863.751 50.8478 868.264 50.8478Z" fill="#152356"/>
<path d="M832.706 23.3504H808.764C807.329 23.3504 806.388 23.5908 805.939 24.0716C805.491 24.5224 805.267 25.5141 805.267 27.0468V54.7245C805.267 57.6095 804.011 59.052 801.501 59.052C798.99 59.052 797.734 57.6095 797.734 54.7245V28.0385C797.734 23.5307 798.511 20.3602 800.066 18.5271C801.62 16.6939 804.31 15.7773 808.136 15.7773H832.706C835.755 15.7773 837.279 17.0395 837.279 19.5639C837.279 22.0882 835.755 23.3504 832.706 23.3504Z" fill="#152356"/>
<path d="M759.244 58.4209C753.505 58.4209 748.932 57.91 745.525 56.8882C742.147 55.8364 739.711 54.1084 738.216 51.7043C736.752 49.2701 736.02 45.9794 736.02 41.8323V32.3659C736.02 28.2188 736.752 24.9431 738.216 22.539C739.711 20.1048 742.147 18.3768 745.525 17.3551C748.932 16.3032 753.505 15.7773 759.244 15.7773H761.845C767.584 15.7773 772.142 16.3032 775.52 17.3551C778.897 18.4069 781.318 20.1499 782.783 22.5841C784.248 24.9882 784.98 28.2488 784.98 32.3659V41.8323C784.98 45.9494 784.248 49.225 782.783 51.6592C781.318 54.0634 778.897 55.7913 775.52 56.8431C772.142 57.895 767.584 58.4209 761.845 58.4209H759.244ZM759.244 50.8478H761.845C766.328 50.8478 769.676 50.6374 771.888 50.2167C774.13 49.7659 775.609 48.8794 776.327 47.5571C777.074 46.2048 777.448 44.2064 777.448 41.5618V32.6364C777.448 29.9618 777.074 27.9634 776.327 26.6411C775.609 25.3188 774.13 24.4473 771.888 24.0266C769.676 23.5758 766.328 23.3504 761.845 23.3504H759.244C754.731 23.3504 751.353 23.5758 749.111 24.0266C746.87 24.4473 745.375 25.3188 744.628 26.6411C743.911 27.9634 743.552 29.9618 743.552 32.6364V41.5618C743.552 44.2064 743.911 46.2048 744.628 47.5571C745.375 48.8794 746.87 49.7659 749.111 50.2167C751.353 50.6374 754.731 50.8478 759.244 50.8478Z" fill="#152356"/>
<path d="M683.818 58.4191V19.5622C683.818 16.6171 685.074 15.1445 687.585 15.1445C690.095 15.1445 691.351 16.6171 691.351 19.5622V32.6347H710.63C714.067 32.6347 716.967 33.1456 719.328 34.1673C721.719 35.159 723.543 36.6166 724.798 38.5399C726.053 40.4331 726.681 42.7621 726.681 45.5269C726.681 48.2616 726.053 50.5906 724.798 52.514C723.572 54.4072 721.764 55.8497 719.373 56.8414C716.982 57.8331 714.067 58.359 710.63 58.4191H683.818ZM691.351 50.8461H709.823C712.304 50.8461 714.471 50.5456 716.324 49.9445C718.207 49.3134 719.149 47.9912 719.149 45.9777C719.149 44.3248 718.79 43.0927 718.073 42.2813C717.385 41.4399 716.354 40.8839 714.979 40.6134C713.604 40.343 711.885 40.2077 709.823 40.2077H691.351V50.8461Z" fill="#152356"/>
<path d="M627.993 59.0502C625.482 59.0502 624.227 57.6077 624.227 54.7228V19.5622C624.227 16.6171 625.422 15.1445 627.813 15.1445C630.444 15.1445 631.759 16.6171 631.759 19.5622V32.0938H662.068V19.5622C662.068 16.6171 663.323 15.1445 665.834 15.1445C668.345 15.1445 669.6 16.6171 669.6 19.5622V54.7228C669.6 57.6077 668.345 59.0502 665.834 59.0502C663.323 59.0502 662.068 57.6077 662.068 54.7228V39.6668H631.759V54.7228C631.759 57.6077 630.503 59.0502 627.993 59.0502Z" fill="#152356"/>
<path d="M555.662 59.0505C552.553 59.0505 550.999 57.7884 550.999 55.264C550.999 52.7397 552.553 51.4775 555.662 51.4775C556.05 51.4775 556.409 51.207 556.738 50.6661C557.067 50.1252 557.425 49.1184 557.814 47.6459C558.502 45.0013 559.473 42.6873 560.728 40.7039C561.984 38.7205 563.807 37.1578 566.198 36.0158C565.033 34.363 563.508 31.478 561.625 27.3609C560.997 25.9485 560.131 24.8065 559.025 23.935C557.949 23.0635 556.887 22.6277 555.841 22.6277C554.377 22.6277 553.196 22.2972 552.299 21.636C551.432 20.9448 550.999 20.0132 550.999 18.8412C550.999 16.3169 552.494 15.0547 555.483 15.0547C557.963 15.0547 560.205 15.4754 562.208 16.3169C564.24 17.1583 565.884 18.3754 567.14 19.9682C569.083 22.4925 570.682 25.4526 571.937 28.8485C572.445 30.2609 572.968 31.3428 573.506 32.0941C574.044 32.8153 574.582 33.206 575.121 33.2661H577.9V19.292C577.9 18.0599 578.274 17.0682 579.021 16.3169C579.798 15.5355 580.83 15.1448 582.115 15.1448C583.251 15.1448 584.177 15.5355 584.895 16.3169C585.612 17.0982 585.941 18.0899 585.881 19.292V33.2661H588.706C589.244 33.206 589.767 32.8303 590.275 32.1391C590.813 31.4179 591.366 30.321 591.934 28.8485C592.472 27.3158 593.159 25.8132 593.996 24.3407C594.833 22.8381 595.79 21.3956 596.866 20.0132C598.151 18.4505 599.81 17.2334 601.842 16.3619C603.905 15.4904 606.117 15.0547 608.478 15.0547C611.407 15.0547 612.872 16.3169 612.872 18.8412C612.872 21.3656 611.318 22.6277 608.209 22.6277C607.043 22.6277 605.908 23.0485 604.802 23.8899C603.726 24.7314 602.874 25.8583 602.246 27.2708C600.423 31.2676 598.868 34.1526 597.583 35.9257C600.154 37.1578 602.082 38.7656 603.367 40.749C604.652 42.7024 605.579 45.0013 606.147 47.6459C606.475 48.9081 606.774 49.8697 607.043 50.5309C607.312 51.1619 607.821 51.4775 608.568 51.4775C609.793 51.4775 610.81 51.8381 611.617 52.5594C612.454 53.2806 612.872 54.1822 612.872 55.264C612.872 56.7366 612.379 57.7283 611.392 58.2391C610.436 58.7801 609.285 59.0505 607.94 59.0505C606.117 59.0505 604.548 58.705 603.232 58.0138C601.947 57.3526 600.946 56.3759 600.228 55.0837C599.421 53.7314 598.734 51.9433 598.166 49.7195C597.628 47.4956 596.701 45.4671 595.386 43.634C593.682 41.1998 590.514 39.8324 585.881 39.5319V54.7231C585.881 55.9853 585.507 57.022 584.76 57.8335C584.043 58.6448 583.071 59.0505 581.846 59.0505C580.71 59.0505 579.768 58.6448 579.021 57.8335C578.274 57.022 577.9 55.9853 577.9 54.7231V39.5319C575.449 39.6821 573.462 40.1029 571.937 40.7941C570.443 41.4552 569.262 42.2816 568.395 43.2733C567.289 44.5055 566.512 45.9029 566.064 47.4656C565.645 49.0283 565.257 50.5759 564.898 52.1086C564.569 53.6412 564.001 54.9635 563.194 56.0754C562.567 56.977 561.655 57.6982 560.459 58.2391C559.294 58.7801 557.694 59.0505 555.662 59.0505Z" fill="#152356"/>
<path d="M494.454 58.4209V15.7773H524.673C529.695 15.7773 533.625 16.8742 536.465 19.068C539.305 21.2317 540.724 24.252 540.724 28.1286C540.724 30.082 540.381 31.7799 539.693 33.2224C539.006 34.6649 537.989 35.8369 536.644 36.7385C539.364 38.9623 540.724 42.0426 540.724 45.9794C540.724 48.5639 540.082 50.7877 538.796 52.6509C537.511 54.5141 535.673 55.9416 533.282 56.9333C530.89 57.925 528.021 58.4209 524.673 58.4209H494.454ZM501.986 50.8478H524.046C530.143 50.8478 533.192 49.4053 533.192 46.5203C533.192 44.2064 532.519 42.5836 531.174 41.652C529.859 40.6903 527.602 40.2095 524.404 40.2095H501.986V50.8478ZM501.986 32.6364H524.404C528.051 32.6364 530.442 32.3209 531.578 31.6898C532.714 31.0286 533.282 29.6913 533.282 27.6779C533.282 24.7929 530.203 23.3504 524.046 23.3504H501.986V32.6364Z" fill="#152356"/>
<path d="M476.721 59.052C475.974 59.052 475.361 58.8266 474.883 58.3758C474.405 57.9551 474.046 57.0385 473.807 55.626C473.598 54.2136 473.493 52.0499 473.493 49.1349L474.48 51.4789C472.597 54.0934 470.235 55.9115 467.396 56.9333C464.586 57.925 461.268 58.4209 457.442 58.4209H449.103C445.845 58.4209 443.184 57.339 441.122 55.1753C439.09 52.9815 438.073 49.6758 438.073 45.2582C438.073 42.4934 438.522 40.1644 439.418 38.2711C440.315 36.3478 441.705 34.8001 443.588 33.6281C445.471 32.426 447.877 31.5545 450.807 31.0136C453.736 30.4727 457.233 30.2022 461.298 30.2022H476.452L473.045 33.2675V26.596C473.045 25.2737 472.821 24.4022 472.372 23.9815C471.954 23.5608 471.012 23.3504 469.548 23.3504H456.904C453.885 23.3504 451.569 23.4255 449.955 23.5758C448.37 23.726 447.265 24.0266 446.637 24.4773C446.009 24.8981 445.665 25.5141 445.606 26.3255C445.486 27.8882 445.202 29.0452 444.754 29.7965C444.305 30.5478 443.334 30.9235 441.839 30.9235C439.329 30.9235 438.073 29.3007 438.073 26.0551C438.073 22.4789 439.553 19.8794 442.512 18.2566C445.471 16.6038 450.059 15.7773 456.276 15.7773H470.175C474.001 15.7773 476.691 16.6939 478.246 18.5271C479.8 20.3602 480.577 23.5307 480.577 28.0385V54.7245C480.577 57.6095 479.292 59.052 476.721 59.052ZM449.372 51.2084H457.442C463.091 51.2084 467.097 50.0665 469.458 47.7825C471.849 45.4685 473.045 41.8323 473.045 36.8737L473.583 37.4146H461.298C457.352 37.4146 454.229 37.61 451.927 38.0007C449.656 38.3613 448.027 39.0825 447.04 40.1644C446.084 41.2463 445.606 42.854 445.606 44.9877C445.606 46.911 445.934 48.4286 446.592 49.5406C447.279 50.6525 448.206 51.2084 449.372 51.2084Z" fill="#152356"/>
<path d="M381.139 74.8274C378.688 74.8274 377.463 73.2948 377.463 70.2295V19.472C377.463 16.587 378.748 15.1445 381.319 15.1445C382.664 15.1445 383.59 15.5653 384.099 16.4067C384.637 17.2482 384.906 18.6906 384.906 20.7342V23.4388L383.561 21.6357C385.444 19.5622 387.82 18.0746 390.689 17.173C393.589 16.2414 396.921 15.7756 400.688 15.7756H403.288C409.027 15.7756 413.585 16.3015 416.963 17.3533C420.341 18.4052 422.762 20.1482 424.226 22.5824C425.691 24.9865 426.423 28.2471 426.423 32.3642V41.8305C426.423 45.9476 425.691 49.2233 424.226 51.6575C422.762 54.0616 420.355 55.7896 417.008 56.8414C413.69 57.8932 409.206 58.4191 403.557 58.4191H384.995V70.2295C384.995 73.2948 383.71 74.8274 381.139 74.8274ZM384.995 50.8461H403.557C407.981 50.8461 411.284 50.6357 413.466 50.215C415.648 49.7642 417.097 48.8777 417.815 47.5554C418.532 46.2031 418.891 44.2046 418.891 41.5601V32.6347C418.891 29.9601 418.517 27.9616 417.77 26.6394C417.053 25.3171 415.573 24.4456 413.331 24.0248C411.119 23.5741 407.772 23.3487 403.288 23.3487H400.688C395.278 23.3487 391.302 24.4606 388.761 26.6844C386.251 28.8782 384.995 32.3041 384.995 36.9622V50.8461Z" fill="#152356"/>
<path d="M321.643 59.052C319.132 59.052 317.876 57.6095 317.876 54.7245V15.7773H363.25V54.7245C363.25 57.6095 361.995 59.052 359.484 59.052C356.973 59.052 355.718 57.6095 355.718 54.7245V23.3504H325.409V54.7245C325.409 57.6095 324.153 59.052 321.643 59.052Z" fill="#152356"/>
<path d="M282.006 58.4209C276.267 58.4209 271.693 57.91 268.286 56.8882C264.908 55.8364 262.472 54.1084 260.978 51.7043C259.513 49.2701 258.781 45.9794 258.781 41.8323V32.3659C258.781 28.2188 259.513 24.9431 260.978 22.539C262.472 20.1048 264.908 18.3768 268.286 17.3551C271.693 16.3032 276.267 15.7773 282.006 15.7773H294.649C297.01 15.7773 298.953 16.183 300.478 16.9944C302.032 17.7758 303.183 18.9929 303.93 20.6457C304.677 22.2685 305.051 24.3421 305.051 26.8665C305.051 28.4893 304.722 29.7364 304.065 30.6079C303.437 31.4794 302.51 31.9152 301.285 31.9152C300.089 31.9152 299.163 31.5095 298.505 30.6981C297.847 29.8566 297.519 28.6996 297.519 27.2271C297.519 25.7245 297.279 24.7027 296.801 24.1618C296.323 23.6209 295.396 23.3504 294.021 23.3504H282.006C277.492 23.3504 274.114 23.5758 271.873 24.0266C269.631 24.4473 268.136 25.3188 267.389 26.6411C266.672 27.9634 266.313 29.9618 266.313 32.6364V41.5618C266.313 44.2064 266.672 46.2048 267.389 47.5571C268.136 48.8794 269.631 49.7659 271.873 50.2167C274.114 50.6374 277.492 50.8478 282.006 50.8478H294.021C295.426 50.8478 296.353 50.5924 296.801 50.0815C297.279 49.5706 297.519 48.5639 297.519 47.0613C297.519 45.6488 297.832 44.5069 298.46 43.6354C299.088 42.7338 299.999 42.283 301.195 42.283C302.361 42.283 303.287 42.7188 303.975 43.5903C304.692 44.4317 305.051 45.7089 305.051 47.4219C305.051 49.9162 304.677 51.9898 303.93 53.6426C303.183 55.2654 302.032 56.4675 300.478 57.2488C298.953 58.0302 297.01 58.4209 294.649 58.4209H282.006Z" fill="#152356"/>
<path d="M212.403 59.052C211.656 59.052 211.043 58.8266 210.565 58.3758C210.087 57.9551 209.728 57.0385 209.489 55.626C209.28 54.2136 209.175 52.0499 209.175 49.1349L210.161 51.4789C208.278 54.0934 205.917 55.9115 203.077 56.9333C200.268 57.925 196.95 58.4209 193.124 58.4209H184.784C181.526 58.4209 178.866 57.339 176.804 55.1753C174.771 52.9815 173.755 49.6758 173.755 45.2582C173.755 42.4934 174.203 40.1644 175.1 38.2711C175.997 36.3478 177.387 34.8001 179.27 33.6281C181.153 32.426 183.559 31.5545 186.488 31.0136C189.417 30.4727 192.915 30.2022 196.98 30.2022H212.134L208.727 33.2675V26.596C208.727 25.2737 208.502 24.4022 208.054 23.9815C207.636 23.5608 206.694 23.3504 205.229 23.3504H192.586C189.567 23.3504 187.25 23.4255 185.636 23.5758C184.052 23.726 182.946 24.0266 182.318 24.4773C181.691 24.8981 181.347 25.5141 181.287 26.3255C181.168 27.8882 180.884 29.0452 180.435 29.7965C179.987 30.5478 179.016 30.9235 177.521 30.9235C175.01 30.9235 173.755 29.3007 173.755 26.0551C173.755 22.4789 175.234 19.8794 178.194 18.2566C181.153 16.6038 185.741 15.7773 191.958 15.7773H205.857C209.683 15.7773 212.373 16.6939 213.927 18.5271C215.482 20.3602 216.259 23.5307 216.259 28.0385V54.7245C216.259 57.6095 214.974 59.052 212.403 59.052ZM185.053 51.2084H193.124C198.773 51.2084 202.778 50.0665 205.14 47.7825C207.531 45.4685 208.727 41.8323 208.727 36.8737L209.265 37.4146H196.98C193.034 37.4146 189.911 37.61 187.609 38.0007C185.337 38.3613 183.708 39.0825 182.722 40.1644C181.765 41.2463 181.287 42.854 181.287 44.9877C181.287 46.911 181.616 48.4286 182.274 49.5406C182.961 50.6525 183.888 51.2084 185.053 51.2084Z" fill="#152356"/>
<path d="M156.957 59.052C154.446 59.052 153.191 57.5794 153.191 54.6343V23.3504H135.436C133.434 23.3504 132.103 23.5908 131.446 24.0716C130.818 24.5525 130.504 25.5442 130.504 27.0468V46.1597C130.504 49.0447 130.116 51.4038 129.339 53.2369C128.561 55.04 127.351 56.3773 125.707 57.2488C124.063 58.0903 121.926 58.511 119.295 58.511C117.741 58.511 116.471 58.2255 115.484 57.6545C114.498 57.0836 114.005 56.0768 114.005 54.6343C114.005 52.11 115.589 50.8478 118.757 50.8478C120.372 50.8478 121.477 50.5924 122.075 50.0815C122.673 49.5706 122.972 48.624 122.972 47.2416V28.0385C122.972 24.853 123.316 22.3737 124.003 20.6007C124.691 18.8276 125.886 17.5805 127.59 16.8592C129.324 16.138 131.7 15.7773 134.719 15.7773H160.723V54.5442C160.723 57.5494 159.468 59.052 156.957 59.052Z" fill="#152356"/>
<path d="M100.418 59.0502C97.9075 59.0502 96.6522 57.4875 96.6522 54.3621V26.5041L65.8502 58.4191H58.811V19.5622C58.811 16.6171 60.0664 15.1445 62.5772 15.1445C65.088 15.1445 66.3434 16.7072 66.3434 19.8326V48.0513L97.4144 15.7756H104.185V54.6326C104.185 57.5777 102.929 59.0502 100.418 59.0502Z" fill="#152356"/>
<path d="M23.2248 58.4207C17.4559 58.4207 12.8827 57.8798 9.50511 56.7979C6.12751 55.7161 3.69145 53.928 2.19694 51.4337C0.732312 48.9394 0 45.5586 0 41.2912V17.1295C0 12.9223 0.702422 9.5715 2.10727 7.0772C3.51211 4.5829 5.79872 2.77979 8.96709 1.66787C12.1355 0.555959 16.35 0 21.6107 0H35.8684C38.2297 0 40.1726 0.420726 41.697 1.26218C43.2513 2.07357 44.402 3.26062 45.1493 4.82332C45.8965 6.38601 46.2702 8.26425 46.2702 10.458C46.2702 14.2446 45.0148 16.1378 42.504 16.1378C41.1589 16.1378 40.2174 15.7171 39.6794 14.8756C39.1413 14.0041 38.8275 12.8321 38.7378 11.3596C38.6482 9.94715 38.4389 8.97047 38.1101 8.42953C37.8112 7.85855 36.8547 7.57306 35.2407 7.57306H21.6107C17.6652 7.57306 14.6761 7.81347 12.6436 8.2943C10.6409 8.77513 9.28094 9.72176 8.56357 11.1342C7.87609 12.5166 7.53235 14.5751 7.53235 17.3098V41.1109C7.53235 43.8757 7.90598 45.9642 8.65324 47.3767C9.4005 48.7591 10.895 49.6907 13.1368 50.1715C15.3786 50.6223 18.7412 50.8477 23.2248 50.8477H35.2407C36.8547 50.8477 37.8112 50.5622 38.1101 49.9912C38.4389 49.4202 38.6482 48.4435 38.7378 47.0611C38.8873 45.3482 39.246 44.1311 39.8139 43.4098C40.4117 42.6586 41.3084 42.2829 42.504 42.2829C43.8192 42.313 44.7757 42.7938 45.3735 43.7254C45.9713 44.6269 46.2702 46.0694 46.2702 48.0529C46.2702 50.2466 45.8965 52.1249 45.1493 53.6876C44.402 55.2202 43.2513 56.3922 41.697 57.2036C40.1726 58.015 38.2297 58.4207 35.8684 58.4207H23.2248Z" fill="#152356"/>
</svg>
