<svg width="894.000000" height="174.000000" viewBox="0 0 894 174" fill="none" xmlns="http://www.w3.org/2000/svg" xmlns:xlink="http://www.w3.org/1999/xlink">
	<desc>
			Created with Pixso.
	</desc>
	<defs/>
	<path id="Vector" d="M607.021 158.223C606.274 158.223 605.662 157.996 605.184 157.545C604.705 157.125 604.347 156.209 604.107 154.797C603.898 153.383 603.793 151.221 603.793 148.305L604.78 150.648C602.897 153.264 600.536 155.082 597.696 156.104C594.886 157.096 591.568 157.59 587.743 157.59L579.403 157.59C576.145 157.59 573.485 156.51 571.422 154.346C569.39 152.152 568.374 148.846 568.374 144.428C568.374 141.664 568.822 139.334 569.719 137.441C570.615 135.518 572.005 133.971 573.888 132.799C575.771 131.596 578.178 130.725 581.107 130.184C584.036 129.643 587.533 129.373 591.598 129.373L606.752 129.373L603.345 132.438L603.345 125.766C603.345 124.443 603.121 123.572 602.673 123.152C602.254 122.73 601.312 122.52 599.848 122.52L587.205 122.52C584.186 122.52 581.869 122.596 580.255 122.746C578.671 122.896 577.565 123.197 576.937 123.646C576.31 124.068 575.966 124.684 575.906 125.496C575.786 127.059 575.502 128.215 575.054 128.967C574.605 129.717 573.634 130.094 572.14 130.094C569.629 130.094 568.374 128.471 568.374 125.225C568.374 121.648 569.853 119.049 572.812 117.426C575.771 115.773 580.359 114.947 586.577 114.947L600.476 114.947C604.302 114.947 606.992 115.863 608.546 117.697C610.101 119.529 610.877 122.701 610.877 127.209L610.877 153.895C610.877 156.779 609.592 158.223 607.021 158.223ZM579.672 150.379L587.743 150.379C593.392 150.379 597.397 149.236 599.758 146.953C602.149 144.639 603.345 141.002 603.345 136.043L603.883 136.584L591.598 136.584C587.653 136.584 584.529 136.779 582.228 137.17C579.956 137.531 578.327 138.252 577.341 139.334C576.384 140.416 575.906 142.023 575.906 144.158C575.906 146.08 576.235 147.598 576.892 148.711C577.58 149.822 578.506 150.379 579.672 150.379Z" fill="#FFFFFF" fill-opacity="1.000000" fill-rule="evenodd"/>
	<path id="Vector" d="M510.304 157.59L510.304 114.947L540.523 114.947C545.545 114.947 549.476 116.045 552.315 118.238C555.155 120.402 556.574 123.422 556.574 127.299C556.574 129.252 556.23 130.949 555.543 132.393C554.856 133.834 553.839 135.008 552.494 135.908C555.214 138.133 556.574 141.213 556.574 145.148C556.574 147.734 555.932 149.957 554.646 151.82C553.361 153.684 551.523 155.111 549.132 156.104C546.741 157.096 543.871 157.59 540.523 157.59L510.304 157.59ZM517.836 150.018L539.896 150.018C545.993 150.018 549.042 148.576 549.042 145.689C549.042 143.377 548.37 141.754 547.024 140.822C545.709 139.859 543.453 139.379 540.254 139.379L517.836 139.379L517.836 150.018ZM517.836 131.807L540.254 131.807C543.901 131.807 546.292 131.49 547.428 130.859C548.564 130.199 549.132 128.861 549.132 126.848C549.132 123.963 546.053 122.52 539.896 122.52L517.836 122.52L517.836 131.807Z" fill="#FFFFFF" fill-opacity="1.000000" fill-rule="evenodd"/>
	<path id="Vector" d="M479.645 158.223C476.896 158.223 475.521 156.869 475.521 154.164L475.521 122.52L462.608 122.52C459.678 122.52 458.214 121.258 458.214 118.734C458.214 116.209 459.678 114.947 462.608 114.947L496.772 114.947C499.702 114.947 501.166 116.209 501.166 118.734C501.166 121.258 499.702 122.52 496.772 122.52L483.949 122.52L483.949 154.164C483.949 155.396 483.561 156.373 482.784 157.096C482.006 157.846 480.96 158.223 479.645 158.223Z" fill="#FFFFFF" fill-opacity="1.000000" fill-rule="evenodd"/>
	<path id="Vector" d="M427.455 157.59C421.716 157.59 417.143 157.08 413.735 156.059C410.358 155.006 407.922 153.279 406.427 150.875C404.963 148.439 404.23 145.148 404.23 141.002L404.23 131.535C404.23 127.389 404.963 124.113 406.427 121.709C407.922 119.275 410.358 117.547 413.735 116.525C417.143 115.473 421.716 114.947 427.455 114.947L440.099 114.947C442.46 114.947 444.403 115.354 445.927 116.164C447.482 116.945 448.632 118.162 449.38 119.816C450.127 121.438 450.5 123.512 450.5 126.037C450.5 127.658 450.172 128.906 449.514 129.777C448.887 130.648 447.96 131.086 446.734 131.086C445.539 131.086 444.612 130.68 443.955 129.867C443.297 129.027 442.968 127.869 442.968 126.396C442.968 124.895 442.729 123.873 442.251 123.332C441.772 122.791 440.846 122.52 439.471 122.52L427.455 122.52C422.942 122.52 419.564 122.746 417.322 123.197C415.081 123.617 413.586 124.488 412.839 125.811C412.122 127.133 411.763 129.131 411.763 131.807L411.763 140.732C411.763 143.377 412.122 145.375 412.839 146.727C413.586 148.049 415.081 148.936 417.322 149.387C419.564 149.807 422.942 150.018 427.455 150.018L439.471 150.018C440.876 150.018 441.803 149.762 442.251 149.252C442.729 148.74 442.968 147.734 442.968 146.23C442.968 144.818 443.282 143.678 443.91 142.805C444.538 141.904 445.449 141.453 446.645 141.453C447.811 141.453 448.737 141.889 449.425 142.76C450.142 143.602 450.5 144.879 450.5 146.592C450.5 149.086 450.127 151.16 449.38 152.812C448.632 154.436 447.482 155.637 445.927 156.418C444.403 157.199 442.46 157.59 440.099 157.59L427.455 157.59Z" fill="#FFFFFF" fill-opacity="1.000000" fill-rule="evenodd"/>
	<path id="Vector" d="M347.296 174C344.846 174 343.62 172.467 343.62 169.402L343.62 118.645C343.62 115.76 344.905 114.316 347.476 114.316C348.821 114.316 349.748 114.736 350.256 115.578C350.794 116.42 351.063 117.863 351.063 119.906L351.063 122.611L349.718 120.807C351.601 118.734 353.977 117.246 356.847 116.346C359.746 115.414 363.079 114.947 366.845 114.947L369.445 114.947C375.184 114.947 379.743 115.473 383.12 116.525C386.498 117.576 388.919 119.32 390.383 121.754C391.848 124.158 392.581 127.42 392.581 131.535L392.581 141.002C392.581 145.119 391.848 148.395 390.383 150.83C388.919 153.234 386.513 154.961 383.165 156.014C379.847 157.064 375.364 157.592 369.714 157.592L351.152 157.592L351.152 169.402C351.152 172.467 349.867 174 347.296 174ZM351.152 150.018L369.714 150.018C374.138 150.018 377.441 149.807 379.623 149.387C381.805 148.936 383.255 148.049 383.972 146.727C384.689 145.375 385.048 143.377 385.048 140.732L385.048 131.807C385.048 129.133 384.674 127.133 383.927 125.811C383.21 124.488 381.73 123.617 379.488 123.197C377.276 122.746 373.929 122.521 369.445 122.521L366.845 122.521C361.435 122.521 357.459 123.633 354.918 125.855C352.408 128.051 351.152 131.477 351.152 136.135L351.152 150.018Z" fill="#FFFFFF" fill-opacity="1.000000" fill-rule="evenodd"/>
	<path id="Vector" d="M305.387 157.59C299.648 157.59 295.075 157.08 291.667 156.059C288.29 155.006 285.854 153.279 284.359 150.875C282.895 148.439 282.163 145.148 282.163 141.002L282.163 131.535C282.163 127.389 282.895 124.113 284.359 121.709C285.854 119.275 288.29 117.547 291.667 116.525C295.075 115.473 299.648 114.947 305.387 114.947L307.988 114.947C313.727 114.947 318.285 115.473 321.663 116.525C325.04 117.576 327.461 119.32 328.926 121.754C330.391 124.158 331.123 127.418 331.123 131.535L331.123 136.404L289.695 136.404L289.695 140.732C289.695 143.377 290.054 145.375 290.771 146.727C291.518 148.049 293.013 148.936 295.254 149.387C297.496 149.807 300.874 150.018 305.387 150.018L319.197 150.018C320.602 150.018 321.528 149.762 321.977 149.252C322.455 148.74 322.694 147.734 322.694 146.23C322.694 144.729 323.022 143.557 323.68 142.715C324.368 141.873 325.309 141.453 326.505 141.453C327.73 141.482 328.657 141.949 329.285 142.85C329.912 143.723 330.226 144.969 330.226 146.592C330.226 149.086 329.853 151.16 329.105 152.812C328.358 154.436 327.207 155.637 325.653 156.418C324.128 157.199 322.186 157.59 319.824 157.59L305.387 157.59ZM289.74 128.832L323.546 128.832C323.217 126.188 322.156 124.504 320.362 123.783C319.286 123.361 317.687 123.047 315.565 122.836C313.473 122.625 310.947 122.52 307.988 122.52L305.387 122.52C302.159 122.52 299.484 122.641 297.362 122.881C295.27 123.092 293.73 123.422 292.744 123.873C290.95 124.623 289.949 126.277 289.74 128.832Z" fill="#FFFFFF" fill-opacity="1.000000" fill-rule="evenodd"/>
	<path id="Vector" d="M227.682 158.223C225.171 158.223 223.916 156.779 223.916 153.895L223.916 118.734C223.916 115.789 225.112 114.316 227.503 114.316C230.133 114.316 231.448 115.789 231.448 118.734L231.448 131.266L261.757 131.266L261.757 118.734C261.757 115.789 263.013 114.316 265.523 114.316C268.034 114.316 269.29 115.789 269.29 118.734L269.29 153.895C269.29 156.779 268.034 158.223 265.523 158.223C263.013 158.223 261.757 156.779 261.757 153.895L261.757 138.838L231.448 138.838L231.448 153.895C231.448 156.779 230.193 158.223 227.682 158.223Z" fill="#FFFFFF" fill-opacity="1.000000" fill-rule="evenodd"/>
	<path id="Vector" d="M193.346 158.223C190.597 158.223 189.222 156.869 189.222 154.164L189.222 122.52L176.309 122.52C173.38 122.52 171.915 121.258 171.915 118.734C171.915 116.209 173.38 114.947 176.309 114.947L210.474 114.947C213.403 114.947 214.867 116.209 214.867 118.734C214.867 121.258 213.403 122.52 210.474 122.52L197.65 122.52L197.65 154.164C197.65 155.396 197.262 156.373 196.485 157.096C195.708 157.846 194.662 158.223 193.346 158.223Z" fill="#FFFFFF" fill-opacity="1.000000" fill-rule="evenodd"/>
	<path id="Vector" d="M118.747 174C116.296 174 115.07 172.467 115.07 169.402L115.07 118.645C115.07 115.76 116.355 114.316 118.926 114.316C120.271 114.316 121.198 114.736 121.706 115.578C122.244 116.42 122.513 117.863 122.513 119.906L122.513 122.611L121.168 120.807C123.051 118.734 125.427 117.246 128.297 116.346C131.196 115.414 134.529 114.947 138.295 114.947L140.896 114.947C146.634 114.947 151.193 115.473 154.57 116.525C157.948 117.576 160.369 119.32 161.833 121.754C163.298 124.158 164.031 127.42 164.031 131.535L164.031 141.002C164.031 145.119 163.298 148.395 161.833 150.83C160.369 153.234 157.963 154.961 154.615 156.014C151.297 157.064 146.814 157.592 141.165 157.592L122.603 157.592L122.603 169.402C122.603 172.467 121.317 174 118.747 174ZM122.603 150.018L141.165 150.018C145.588 150.018 148.891 149.807 151.073 149.387C153.255 148.936 154.705 148.049 155.422 146.727C156.14 145.375 156.498 143.377 156.498 140.732L156.498 131.807C156.498 129.133 156.125 127.133 155.377 125.811C154.66 124.488 153.181 123.617 150.938 123.197C148.727 122.746 145.379 122.521 140.896 122.521L138.295 122.521C132.885 122.521 128.91 123.633 126.369 125.855C123.858 128.051 122.603 131.477 122.603 136.135L122.603 150.018Z" fill="#FFFFFF" fill-opacity="1.000000" fill-rule="evenodd"/>
	<path id="Vector" d="M97.4272 158.223C96.6802 158.223 96.0674 157.996 95.5894 157.545C95.1108 157.125 94.7524 156.209 94.5132 154.797C94.3037 153.383 94.1992 151.221 94.1992 148.305L95.1855 150.648C93.3027 153.264 90.9414 155.082 88.1016 156.104C85.292 157.096 81.9741 157.59 78.1484 157.59L69.8086 157.59C66.5508 157.59 63.8906 156.51 61.8281 154.346C59.7954 152.152 58.7793 148.846 58.7793 144.428C58.7793 141.664 59.2275 139.334 60.1245 137.441C61.021 135.518 62.4111 133.971 64.2939 132.799C66.1772 131.596 68.5835 130.725 71.5127 130.184C74.4419 129.643 77.939 129.373 82.0039 129.373L97.1582 129.373L93.751 132.438L93.751 125.766C93.751 124.443 93.5269 123.572 93.0786 123.152C92.6602 122.73 91.7183 122.52 90.2539 122.52L77.6104 122.52C74.5913 122.52 72.2749 122.596 70.6606 122.746C69.0767 122.896 67.9707 123.197 67.3428 123.646C66.7153 124.068 66.3716 124.684 66.3115 125.496C66.1919 127.059 65.9082 128.215 65.46 128.967C65.0112 129.717 64.04 130.094 62.5454 130.094C60.0347 130.094 58.7793 128.471 58.7793 125.225C58.7793 121.648 60.2588 119.049 63.2178 117.426C66.1772 115.773 70.7651 114.947 76.9824 114.947L90.8813 114.947C94.7075 114.947 97.3975 115.863 98.9517 117.697C100.506 119.529 101.283 122.701 101.283 127.209L101.283 153.895C101.283 156.779 99.998 158.223 97.4272 158.223ZM70.0776 150.379L78.1484 150.379C83.7974 150.379 87.8027 149.236 90.1641 146.953C92.5552 144.639 93.751 141.002 93.751 136.043L94.2891 136.584L82.0039 136.584C78.0586 136.584 74.9351 136.779 72.6333 137.17C70.3618 137.531 68.7329 138.252 67.7466 139.334C66.79 140.416 66.3115 142.023 66.3115 144.158C66.3115 146.08 66.6406 147.598 67.2979 148.711C67.9854 149.822 68.9121 150.379 70.0776 150.379Z" fill="#FFFFFF" fill-opacity="1.000000" fill-rule="evenodd"/>
	<path id="Vector" d="M4.21484 158.223C1.7041 158.223 0.44873 156.779 0.44873 153.895L0.44873 114.947L45.8223 114.947L45.8223 153.895C45.8223 156.779 44.5669 158.223 42.0562 158.223C39.5454 158.223 38.29 156.779 38.29 153.895L38.29 122.52L7.98096 122.52L7.98096 153.895C7.98096 156.779 6.72559 158.223 4.21484 158.223Z" fill="#FFFFFF" fill-opacity="1.000000" fill-rule="evenodd"/>
	<path id="Vector" d="M868.264 58.4199C862.525 58.4199 857.952 57.9102 854.544 56.8887C851.167 55.8359 848.731 54.1094 847.236 51.7051C845.772 49.2695 845.04 45.9785 845.04 41.832L845.04 32.3652C845.04 28.2188 845.772 24.9434 847.236 22.5391C848.731 20.1055 851.167 18.377 854.544 17.3555C857.952 16.3027 862.525 15.7773 868.264 15.7773L870.865 15.7773C876.604 15.7773 881.162 16.3027 884.54 17.3555C887.917 18.4062 890.338 20.1504 891.803 22.584C893.268 24.9883 894 28.248 894 32.3652L894 41.832C894 45.9492 893.268 49.2246 891.803 51.6602C890.338 54.0625 887.917 55.791 884.54 56.8438C881.162 57.8945 876.604 58.4199 870.865 58.4199L868.264 58.4199ZM868.264 50.8477L870.865 50.8477C875.348 50.8477 878.696 50.6367 880.908 50.2168C883.15 49.7656 884.629 48.8789 885.347 47.5566C886.094 46.2051 886.467 44.207 886.467 41.5625L886.467 32.6367C886.467 29.9609 886.094 27.9629 885.347 26.6406C884.629 25.3184 883.15 24.4473 880.908 24.0273C878.696 23.5762 875.348 23.3496 870.865 23.3496L868.264 23.3496C863.751 23.3496 860.373 23.5762 858.131 24.0273C855.89 24.4473 854.395 25.3184 853.648 26.6406C852.931 27.9629 852.572 29.9609 852.572 32.6367L852.572 41.5625C852.572 44.207 852.931 46.2051 853.648 47.5566C854.395 48.8789 855.89 49.7656 858.131 50.2168C860.373 50.6367 863.751 50.8477 868.264 50.8477Z" fill="#FFFFFF" fill-opacity="1.000000" fill-rule="evenodd"/>
	<path id="Vector" d="M832.706 23.3496L808.764 23.3496C807.329 23.3496 806.388 23.5898 805.939 24.0723C805.491 24.5215 805.267 25.5137 805.267 27.0469L805.267 54.7246C805.267 57.6094 804.011 59.0527 801.5 59.0527C798.99 59.0527 797.734 57.6094 797.734 54.7246L797.734 28.0391C797.734 23.5312 798.512 20.3594 800.066 18.5273C801.62 16.6934 804.31 15.7773 808.136 15.7773L832.706 15.7773C835.755 15.7773 837.279 17.0391 837.279 19.5645C837.279 22.0879 835.755 23.3496 832.706 23.3496Z" fill="#FFFFFF" fill-opacity="1.000000" fill-rule="evenodd"/>
	<path id="Vector" d="M759.244 58.4199C753.505 58.4199 748.932 57.9102 745.524 56.8887C742.147 55.8359 739.711 54.1094 738.216 51.7051C736.752 49.2695 736.02 45.9785 736.02 41.832L736.02 32.3652C736.02 28.2188 736.752 24.9434 738.216 22.5391C739.711 20.1055 742.147 18.377 745.524 17.3555C748.932 16.3027 753.505 15.7773 759.244 15.7773L761.845 15.7773C767.583 15.7773 772.142 16.3027 775.52 17.3555C778.897 18.4062 781.318 20.1504 782.783 22.584C784.248 24.9883 784.98 28.248 784.98 32.3652L784.98 41.832C784.98 45.9492 784.248 49.2246 782.783 51.6602C781.318 54.0625 778.897 55.791 775.52 56.8438C772.142 57.8945 767.583 58.4199 761.845 58.4199L759.244 58.4199ZM759.244 50.8477L761.845 50.8477C766.328 50.8477 769.676 50.6367 771.888 50.2168C774.13 49.7656 775.609 48.8789 776.327 47.5566C777.074 46.2051 777.447 44.207 777.447 41.5625L777.447 32.6367C777.447 29.9609 777.074 27.9629 776.327 26.6406C775.609 25.3184 774.13 24.4473 771.888 24.0273C769.676 23.5762 766.328 23.3496 761.845 23.3496L759.244 23.3496C754.731 23.3496 751.353 23.5762 749.111 24.0273C746.87 24.4473 745.375 25.3184 744.628 26.6406C743.911 27.9629 743.552 29.9609 743.552 32.6367L743.552 41.5625C743.552 44.207 743.911 46.2051 744.628 47.5566C745.375 48.8789 746.87 49.7656 749.111 50.2168C751.353 50.6367 754.731 50.8477 759.244 50.8477Z" fill="#FFFFFF" fill-opacity="1.000000" fill-rule="evenodd"/>
	<path id="Vector" d="M683.818 58.4199L683.818 19.5625C683.818 16.6172 685.074 15.1445 687.584 15.1445C690.095 15.1445 691.351 16.6172 691.351 19.5625L691.351 32.6348L710.63 32.6348C714.067 32.6348 716.967 33.1465 719.328 34.168C721.719 35.1582 723.542 36.6172 724.798 38.5391C726.053 40.4336 726.681 42.7617 726.681 45.5273C726.681 48.2617 726.053 50.5898 724.798 52.5137C723.572 54.4062 721.764 55.8496 719.373 56.8418C716.981 57.834 714.067 58.3594 710.63 58.4199L683.818 58.4199ZM691.351 50.8457L709.823 50.8457C712.304 50.8457 714.471 50.5449 716.324 49.9453C718.207 49.3125 719.149 47.9902 719.149 45.9785C719.149 44.3242 718.79 43.0918 718.073 42.2812C717.385 41.4395 716.354 40.8848 714.979 40.6133C713.604 40.3438 711.885 40.207 709.823 40.207L691.351 40.207L691.351 50.8457Z" fill="#FFFFFF" fill-opacity="1.000000" fill-rule="evenodd"/>
	<path id="Vector" d="M627.993 59.0508C625.482 59.0508 624.227 57.6074 624.227 54.7227L624.227 19.5625C624.227 16.6172 625.422 15.1445 627.813 15.1445C630.444 15.1445 631.759 16.6172 631.759 19.5625L631.759 32.0938L662.068 32.0938L662.068 19.5625C662.068 16.6172 663.323 15.1445 665.834 15.1445C668.345 15.1445 669.6 16.6172 669.6 19.5625L669.6 54.7227C669.6 57.6074 668.345 59.0508 665.834 59.0508C663.323 59.0508 662.068 57.6074 662.068 54.7227L662.068 39.666L631.759 39.666L631.759 54.7227C631.759 57.6074 630.503 59.0508 627.993 59.0508Z" fill="#FFFFFF" fill-opacity="1.000000" fill-rule="evenodd"/>
	<path id="Vector" d="M555.662 59.0508C552.553 59.0508 550.999 57.7891 550.999 55.2637C550.999 52.7402 552.553 51.4766 555.662 51.4766C556.05 51.4766 556.409 51.207 556.738 50.666C557.067 50.125 557.425 49.1191 557.814 47.6465C558.501 45.002 559.473 42.6875 560.729 40.7031C561.984 38.7207 563.807 37.1582 566.198 36.0156C565.033 34.3633 563.508 31.4785 561.625 27.3613C560.998 25.9492 560.13 24.8066 559.024 23.9355C557.949 23.0645 556.888 22.627 555.841 22.627C554.376 22.627 553.196 22.2969 552.299 21.6367C551.433 20.9453 550.999 20.0137 550.999 18.8418C550.999 16.3164 552.494 15.0547 555.482 15.0547C557.963 15.0547 560.205 15.4746 562.208 16.3164C564.24 17.1582 565.884 18.375 567.14 19.9688C569.083 22.4922 570.682 25.4531 571.937 28.8477C572.445 30.2617 572.968 31.3418 573.506 32.0938C574.044 32.8145 574.583 33.2051 575.121 33.2656L577.9 33.2656L577.9 19.293C577.9 18.0605 578.274 17.0684 579.021 16.3164C579.798 15.5352 580.83 15.1445 582.115 15.1445C583.25 15.1445 584.177 15.5352 584.895 16.3164C585.612 17.0977 585.941 18.0898 585.881 19.293L585.881 33.2656L588.706 33.2656C589.244 33.2051 589.767 32.8301 590.275 32.1387C590.813 31.418 591.366 30.3203 591.934 28.8477C592.472 27.3164 593.159 25.8125 593.996 24.3398C594.833 22.8379 595.79 21.3965 596.866 20.0137C598.151 18.4512 599.81 17.2344 601.842 16.3613C603.905 15.4902 606.117 15.0547 608.478 15.0547C611.407 15.0547 612.872 16.3164 612.872 18.8418C612.872 21.3652 611.318 22.627 608.209 22.627C607.043 22.627 605.908 23.0488 604.802 23.8906C603.726 24.7305 602.874 25.8574 602.246 27.2715C600.423 31.2676 598.868 34.1523 597.583 35.9258C600.154 37.1582 602.082 38.7656 603.367 40.748C604.652 42.7031 605.579 45.002 606.146 47.6465C606.476 48.9082 606.774 49.8691 607.043 50.5312C607.312 51.1621 607.82 51.4766 608.568 51.4766C609.793 51.4766 610.81 51.8379 611.617 52.5586C612.454 53.2812 612.872 54.1816 612.872 55.2637C612.872 56.7363 612.379 57.7285 611.393 58.2383C610.436 58.7793 609.285 59.0508 607.94 59.0508C606.117 59.0508 604.547 58.7051 603.232 58.0137C601.947 57.3535 600.946 56.375 600.229 55.084C599.421 53.7305 598.734 51.9434 598.166 49.7188C597.628 47.4961 596.701 45.4668 595.386 43.6348C593.683 41.1992 590.514 39.832 585.881 39.5312L585.881 54.7227C585.881 55.9844 585.507 57.0215 584.76 57.834C584.043 58.6445 583.071 59.0508 581.846 59.0508C580.71 59.0508 579.769 58.6445 579.021 57.834C578.274 57.0215 577.9 55.9844 577.9 54.7227L577.9 39.5312C575.449 39.6816 573.461 40.1035 571.937 40.7949C570.443 41.4551 569.262 42.2812 568.395 43.2734C567.289 44.5059 566.512 45.9023 566.064 47.4648C565.646 49.0273 565.257 50.5762 564.898 52.1094C564.569 53.6406 564.001 54.9629 563.194 56.0762C562.566 56.9766 561.655 57.6973 560.459 58.2383C559.293 58.7793 557.694 59.0508 555.662 59.0508Z" fill="#FFFFFF" fill-opacity="1.000000" fill-rule="evenodd"/>
	<path id="Vector" d="M494.454 58.4199L494.454 15.7773L524.673 15.7773C529.695 15.7773 533.625 16.875 536.465 19.0684C539.305 21.2324 540.724 24.252 540.724 28.1289C540.724 30.082 540.38 31.7793 539.693 33.2227C539.006 34.6641 537.989 35.8379 536.644 36.7383C539.364 38.9629 540.724 42.043 540.724 45.9785C540.724 48.5645 540.082 50.7871 538.796 52.6504C537.511 54.5137 535.673 55.9414 533.282 56.9336C530.891 57.9258 528.021 58.4199 524.673 58.4199L494.454 58.4199ZM501.986 50.8477L524.045 50.8477C530.143 50.8477 533.192 49.4062 533.192 46.5195C533.192 44.207 532.52 42.584 531.174 41.6523C529.859 40.6895 527.603 40.209 524.404 40.209L501.986 40.209L501.986 50.8477ZM501.986 32.6367L524.404 32.6367C528.051 32.6367 530.442 32.3203 531.578 31.6895C532.714 31.0293 533.282 29.6914 533.282 27.6777C533.282 24.793 530.203 23.3496 524.045 23.3496L501.986 23.3496L501.986 32.6367Z" fill="#FFFFFF" fill-opacity="1.000000" fill-rule="evenodd"/>
	<path id="Vector" d="M476.721 59.0527C475.974 59.0527 475.361 58.8262 474.883 58.375C474.405 57.9551 474.046 57.0391 473.807 55.627C473.598 54.2129 473.493 52.0508 473.493 49.1348L474.479 51.4785C472.597 54.0938 470.235 55.9121 467.396 56.9336C464.586 57.9258 461.268 58.4199 457.442 58.4199L449.103 58.4199C445.845 58.4199 443.185 57.3398 441.122 55.1758C439.089 52.9824 438.073 49.6758 438.073 45.2578C438.073 42.4941 438.521 40.1641 439.418 38.2715C440.315 36.3477 441.705 34.8008 443.588 33.6289C445.471 32.4258 447.877 31.5547 450.807 31.0137C453.736 30.4727 457.233 30.2031 461.298 30.2031L476.452 30.2031L473.045 33.2676L473.045 26.5957C473.045 25.2734 472.821 24.4023 472.373 23.9824C471.954 23.5605 471.012 23.3496 469.548 23.3496L456.904 23.3496C453.885 23.3496 451.569 23.4258 449.955 23.5762C448.371 23.7266 447.265 24.0273 446.637 24.4766C446.009 24.8984 445.666 25.5137 445.605 26.3262C445.486 27.8887 445.202 29.0449 444.754 29.7969C444.305 30.5469 443.334 30.9238 441.839 30.9238C439.329 30.9238 438.073 29.3008 438.073 26.0547C438.073 22.4785 439.553 19.8789 442.512 18.2559C445.471 16.6035 450.059 15.7773 456.276 15.7773L470.175 15.7773C474.001 15.7773 476.691 16.6934 478.246 18.5273C479.8 20.3594 480.577 23.5312 480.577 28.0391L480.577 54.7246C480.577 57.6094 479.292 59.0527 476.721 59.0527ZM449.372 51.209L457.442 51.209C463.091 51.209 467.097 50.0664 469.458 47.7832C471.849 45.4688 473.045 41.832 473.045 36.873L473.583 37.4141L461.298 37.4141C457.353 37.4141 454.229 37.6094 451.927 38C449.656 38.3613 448.027 39.082 447.041 40.1641C446.084 41.2461 445.605 42.8535 445.605 44.9883C445.605 46.9102 445.935 48.4277 446.592 49.541C447.279 50.6523 448.206 51.209 449.372 51.209Z" fill="#FFFFFF" fill-opacity="1.000000" fill-rule="evenodd"/>
	<path id="Vector" d="M381.139 74.8281C378.688 74.8281 377.463 73.2949 377.463 70.2305L377.463 19.4727C377.463 16.5879 378.748 15.1445 381.319 15.1445C382.664 15.1445 383.59 15.5645 384.099 16.4062C384.637 17.248 384.906 18.6914 384.906 20.7344L384.906 23.4395L383.561 21.6348C385.443 19.5625 387.82 18.0742 390.689 17.1738C393.589 16.2422 396.921 15.7754 400.688 15.7754L403.288 15.7754C409.027 15.7754 413.585 16.3008 416.963 17.3535C420.34 18.4043 422.762 20.1484 424.226 22.582C425.691 24.9863 426.423 28.248 426.423 32.3633L426.423 41.8301C426.423 45.9473 425.691 49.2227 424.226 51.6582C422.762 54.0625 420.355 55.7891 417.008 56.8418C413.69 57.8926 409.207 58.4199 403.557 58.4199L384.995 58.4199L384.995 70.2305C384.995 73.2949 383.71 74.8281 381.139 74.8281ZM384.995 50.8457L403.557 50.8457C407.981 50.8457 411.284 50.6348 413.466 50.2148C415.648 49.7637 417.098 48.877 417.815 47.5547C418.532 46.2031 418.891 44.2051 418.891 41.5605L418.891 32.6348C418.891 29.9609 418.517 27.9609 417.77 26.6387C417.053 25.3164 415.573 24.4453 413.331 24.0254C411.119 23.5742 407.771 23.3496 403.288 23.3496L400.688 23.3496C395.277 23.3496 391.302 24.4609 388.761 26.6836C386.25 28.8789 384.995 32.3047 384.995 36.9629L384.995 50.8457Z" fill="#FFFFFF" fill-opacity="1.000000" fill-rule="evenodd"/>
	<path id="Vector" d="M321.643 59.0527C319.132 59.0527 317.876 57.6094 317.876 54.7246L317.876 15.7773L363.25 15.7773L363.25 54.7246C363.25 57.6094 361.995 59.0527 359.484 59.0527C356.973 59.0527 355.718 57.6094 355.718 54.7246L355.718 23.3496L325.409 23.3496L325.409 54.7246C325.409 57.6094 324.153 59.0527 321.643 59.0527Z" fill="#FFFFFF" fill-opacity="1.000000" fill-rule="evenodd"/>
	<path id="Vector" d="M282.005 58.4199C276.267 58.4199 271.693 57.9102 268.286 56.8887C264.908 55.8359 262.472 54.1094 260.978 51.7051C259.513 49.2695 258.781 45.9785 258.781 41.832L258.781 32.3652C258.781 28.2188 259.513 24.9434 260.978 22.5391C262.472 20.1055 264.908 18.377 268.286 17.3555C271.693 16.3027 276.267 15.7773 282.005 15.7773L294.649 15.7773C297.01 15.7773 298.953 16.1836 300.478 16.9941C302.032 17.7754 303.183 18.9922 303.93 20.6465C304.677 22.2676 305.051 24.3418 305.051 26.8672C305.051 28.4883 304.722 29.7363 304.064 30.6074C303.437 31.4785 302.51 31.916 301.285 31.916C300.089 31.916 299.163 31.5098 298.505 30.6973C297.847 29.8574 297.519 28.6992 297.519 27.2266C297.519 25.7246 297.279 24.7031 296.801 24.1621C296.323 23.6211 295.396 23.3496 294.021 23.3496L282.005 23.3496C277.492 23.3496 274.114 23.5762 271.873 24.0273C269.631 24.4473 268.136 25.3184 267.389 26.6406C266.672 27.9629 266.313 29.9609 266.313 32.6367L266.313 41.5625C266.313 44.207 266.672 46.2051 267.389 47.5566C268.136 48.8789 269.631 49.7656 271.873 50.2168C274.114 50.6367 277.492 50.8477 282.005 50.8477L294.021 50.8477C295.426 50.8477 296.353 50.5918 296.801 50.082C297.279 49.5703 297.519 48.5645 297.519 47.0605C297.519 45.6484 297.833 44.5078 298.46 43.6348C299.088 42.7344 300 42.2832 301.195 42.2832C302.361 42.2832 303.288 42.7188 303.975 43.5898C304.692 44.4316 305.051 45.709 305.051 47.4219C305.051 49.916 304.677 51.9902 303.93 53.6426C303.183 55.2656 302.032 56.4668 300.478 57.248C298.953 58.0293 297.01 58.4199 294.649 58.4199L282.005 58.4199Z" fill="#FFFFFF" fill-opacity="1.000000" fill-rule="evenodd"/>
	<path id="Vector" d="M212.403 59.0527C211.656 59.0527 211.043 58.8262 210.565 58.375C210.086 57.9551 209.728 57.0391 209.489 55.627C209.279 54.2129 209.175 52.0508 209.175 49.1348L210.161 51.4785C208.278 54.0938 205.917 55.9121 203.077 56.9336C200.268 57.9258 196.95 58.4199 193.124 58.4199L184.784 58.4199C181.526 58.4199 178.866 57.3398 176.804 55.1758C174.771 52.9824 173.755 49.6758 173.755 45.2578C173.755 42.4941 174.203 40.1641 175.1 38.2715C175.997 36.3477 177.387 34.8008 179.27 33.6289C181.153 32.4258 183.559 31.5547 186.488 31.0137C189.417 30.4727 192.915 30.2031 196.979 30.2031L212.134 30.2031L208.727 33.2676L208.727 26.5957C208.727 25.2734 208.502 24.4023 208.054 23.9824C207.636 23.5605 206.694 23.3496 205.229 23.3496L192.586 23.3496C189.567 23.3496 187.25 23.4258 185.636 23.5762C184.052 23.7266 182.946 24.0273 182.318 24.4766C181.691 24.8984 181.347 25.5137 181.287 26.3262C181.167 27.8887 180.884 29.0449 180.436 29.7969C179.987 30.5469 179.016 30.9238 177.521 30.9238C175.01 30.9238 173.755 29.3008 173.755 26.0547C173.755 22.4785 175.234 19.8789 178.193 18.2559C181.153 16.6035 185.741 15.7773 191.958 15.7773L205.857 15.7773C209.683 15.7773 212.373 16.6934 213.927 18.5273C215.482 20.3594 216.259 23.5312 216.259 28.0391L216.259 54.7246C216.259 57.6094 214.974 59.0527 212.403 59.0527ZM185.053 51.209L193.124 51.209C198.773 51.209 202.778 50.0664 205.14 47.7832C207.531 45.4688 208.727 41.832 208.727 36.873L209.265 37.4141L196.979 37.4141C193.034 37.4141 189.911 37.6094 187.609 38C185.337 38.3613 183.708 39.082 182.722 40.1641C181.766 41.2461 181.287 42.8535 181.287 44.9883C181.287 46.9102 181.616 48.4277 182.273 49.541C182.961 50.6523 183.888 51.209 185.053 51.209Z" fill="#FFFFFF" fill-opacity="1.000000" fill-rule="evenodd"/>
	<path id="Vector" d="M156.957 59.0527C154.446 59.0527 153.191 57.5801 153.191 54.6348L153.191 23.3496L135.436 23.3496C133.434 23.3496 132.104 23.5898 131.446 24.0723C130.818 24.5527 130.504 25.5449 130.504 27.0469L130.504 46.1602C130.504 49.0449 130.116 51.4043 129.338 53.2363C128.562 55.0391 127.351 56.377 125.707 57.248C124.063 58.0898 121.926 58.5117 119.295 58.5117C117.741 58.5117 116.471 58.2246 115.484 57.6543C114.498 57.084 114.005 56.0762 114.005 54.6348C114.005 52.1094 115.589 50.8477 118.757 50.8477C120.372 50.8477 121.478 50.5918 122.075 50.082C122.673 49.5703 122.972 48.623 122.972 47.2422L122.972 28.0391C122.972 24.8535 123.316 22.373 124.003 20.6016C124.69 18.8281 125.886 17.5801 127.59 16.8594C129.324 16.1387 131.7 15.7773 134.719 15.7773L160.724 15.7773L160.724 54.5449C160.724 57.5488 159.468 59.0527 156.957 59.0527Z" fill="#FFFFFF" fill-opacity="1.000000" fill-rule="evenodd"/>
	<path id="Vector" d="M100.418 59.0508C97.9077 59.0508 96.6523 57.4883 96.6523 54.3613L96.6523 26.5039L65.8501 58.4199L58.811 58.4199L58.811 19.5625C58.811 16.6172 60.0664 15.1445 62.5771 15.1445C65.0879 15.1445 66.3433 16.707 66.3433 19.832L66.3433 48.0508L97.4146 15.7754L104.185 15.7754L104.185 54.6328C104.185 57.5781 102.929 59.0508 100.418 59.0508Z" fill="#FFFFFF" fill-opacity="1.000000" fill-rule="evenodd"/>
	<path id="Vector" d="M23.2246 58.4199C17.4561 58.4199 12.8828 57.8789 9.50488 56.7988C6.12744 55.7168 3.69141 53.9277 2.19678 51.4336C0.732422 48.9395 0 45.5586 0 41.291L0 17.1289C0 12.9219 0.702637 9.57227 2.10742 7.07812C3.51221 4.58203 5.79883 2.7793 8.96729 1.66797C12.1353 0.556641 16.3501 0 21.6108 0L35.8682 0C38.2295 0 40.1724 0.419922 41.6968 1.26172C43.2515 2.07422 44.4019 3.25977 45.1494 4.82422C45.8965 6.38672 46.27 8.26367 46.27 10.459C46.27 14.2441 45.0146 16.1387 42.5039 16.1387C41.1592 16.1387 40.2173 15.7168 39.6792 14.875C39.1411 14.0039 38.8276 12.832 38.7378 11.3594C38.6479 9.94727 38.439 8.9707 38.1104 8.42969C37.811 7.85938 36.8545 7.57227 35.2407 7.57227L21.6108 7.57227C17.665 7.57227 14.6763 7.8125 12.6436 8.29492C10.6411 8.77539 9.28076 9.72266 8.56348 11.1348C7.87598 12.5156 7.53223 14.5742 7.53223 17.3105L7.53223 41.1113C7.53223 43.875 7.90576 45.9648 8.65332 47.377C9.40039 48.7598 10.895 49.6914 13.1367 50.1719C15.3784 50.623 18.7412 50.8477 23.2246 50.8477L35.2407 50.8477C36.8545 50.8477 37.811 50.5625 38.1104 49.9902C38.439 49.4199 38.6479 48.4434 38.7378 47.0605C38.8872 45.3477 39.2461 44.1309 39.814 43.4102C40.4116 42.6582 41.3086 42.2832 42.5039 42.2832C43.8193 42.3125 44.7759 42.793 45.3735 43.7246C45.9712 44.627 46.27 46.0703 46.27 48.0527C46.27 50.2461 45.8965 52.125 45.1494 53.6875C44.4019 55.2207 43.2515 56.3926 41.6968 57.2031C40.1724 58.0156 38.2295 58.4199 35.8682 58.4199L23.2246 58.4199Z" fill="#FFFFFF" fill-opacity="1.000000" fill-rule="evenodd"/>
</svg>
