<svg width="120" height="120" viewBox="0 0 120 120" fill="none" xmlns="http://www.w3.org/2000/svg">
<g clip-path="url(#clip0_190_7286)">
<path fill-rule="evenodd" clip-rule="evenodd" d="M15.3184 85.8808L17.5029 78.4506H21.2649L22.215 81.6256L24.9442 78.4357H28.9372L26.8592 85.8739L23.8417 85.8845L24.9442 82.0471L21.4424 85.8845H19.9588L18.8781 81.7794L17.6635 85.8845L15.3184 85.8808ZM41.8937 78.4344L51.1628 78.4506L50.6063 80.8499H47.4238L46.1165 85.8808L43.183 85.8845L44.4026 80.8711H41.2699L41.8937 78.4344ZM66.7546 78.4481V80.1757H66.7596L66.3985 81.6132H69.576C69.576 81.6132 70.3479 81.4793 70.3921 80.7752C70.4289 80.1521 69.8486 80.1956 69.8486 80.1956L66.7552 80.1844V78.45L71.542 78.4475C71.542 78.4475 73.5908 78.6025 73.3916 80.3756C73.1861 82.1473 71.3029 82.7126 71.3029 82.7126C71.3029 82.7126 71.1884 82.8259 71.2774 82.8925C71.3664 82.9579 72.0699 83.0905 72.1589 83.7535C72.2479 84.4178 71.928 84.9009 71.928 85.1019C71.928 85.2993 71.9485 85.6977 72.2006 85.8739H69.1757C69.1757 85.8739 68.6359 85.7911 68.682 85.2339C68.7268 84.683 68.7523 84.198 68.7523 84.198C68.7523 84.198 68.7075 83.6197 67.8963 83.6888L65.6844 83.667L65.0544 85.8814H62.2797L64.392 78.4488L66.7546 78.4481ZM87.7644 78.4481H90.6032L89.228 83.8388H93.8996L93.3573 85.887H85.8245L87.7644 78.4481ZM102.976 78.4419L104.68 85.8845H101.726L101.414 84.5946L101.403 84.5697H97.8247L97.8123 84.5809L96.9482 85.8808L94.4468 85.8845L99.4975 78.4419L100.476 80.6358L99.0113 82.8047L99.0536 82.8203H100.952L100.986 82.8166L100.476 80.6358L99.4975 78.4419H102.976ZM35.5549 80.0954C36.4558 80.0954 37.3429 80.5412 37.483 81.188C37.9107 83.2567 35.7043 84.1426 35.9633 84.0125C34.6939 84.6419 32.7653 84.4402 32.5387 83.1359C32.3239 81.8821 33.292 80.6476 34.1069 80.3531C34.6647 80.1521 35.1247 80.0668 35.5549 80.0954L35.5612 80.0761L35.5717 78.1475C34.9884 78.1593 34.3316 78.2315 33.8137 78.333C31.5893 78.7594 28.786 80.7802 29.2796 83.3383C29.6955 85.5004 32.6283 86.6608 35.9166 86.0252C39.0001 85.4331 41.019 83.0587 40.5851 80.9527C40.168 78.9151 37.7544 78.1475 35.5717 78.1475V79.8153L35.5549 80.0954ZM57.1138 80.0954C58.0134 80.0954 58.9036 80.5412 59.0356 81.188C59.4714 83.2567 57.2626 84.1426 57.5259 84.0125C56.2547 84.6419 54.3241 84.4402 54.0994 83.1359C53.8815 81.8821 54.8502 80.6476 55.667 80.3531C56.2229 80.1521 56.6892 80.0668 57.1138 80.0954L57.12 80.0761L57.1325 78.1475C56.5412 78.1617 55.952 78.2237 55.3707 78.333C53.1482 78.7594 50.3405 80.7802 50.8341 83.3383C51.2494 85.5004 54.1897 86.6608 57.4724 86.0252C60.559 85.4331 62.581 83.0587 62.1452 80.9527C61.7269 78.9151 59.3145 78.1475 57.1325 78.1475L57.1318 79.8153L57.1138 80.0954ZM80.5515 80.0761C81.4511 80.1259 82.3326 80.5412 82.4702 81.188C82.9004 83.2567 80.6934 84.1426 80.9586 84.0125C79.6868 84.6419 77.7569 84.4402 77.5309 83.1359C77.3142 81.8821 78.2798 80.6476 79.0985 80.3531C79.7683 80.1097 80.0298 80.0419 80.5515 80.0761L80.5639 78.1475C79.9727 78.162 79.3835 78.224 78.8021 78.333C76.5834 78.7594 73.7782 80.7802 74.2694 83.3383C74.6852 85.5004 77.623 86.6608 80.9082 86.0252C83.9917 85.4331 86.0137 83.0587 85.5749 80.9527C85.159 78.9151 82.7454 78.1475 80.5639 78.1475V79.8153L80.5515 80.0761ZM60.0323 26.1416C72.5723 26.1416 82.4434 36.2418 82.4434 48.544C82.4434 60.919 72.4073 70.9483 60.0323 70.9483C47.6573 70.9483 37.628 60.919 37.628 48.544C37.628 36.169 47.6579 26.1416 60.0323 26.1416ZM59.9825 53.2411L53.7147 32.448L45.5998 59.0701H47.1225C47.1225 59.0701 48.1478 54.4389 49.8088 51.6723C50.7159 50.1726 52.1122 48.9443 53.9799 48.9792C55.2959 49.0028 56.434 49.7237 57.8571 51.7097C58.7125 52.9043 60.0298 55.9436 60.0298 55.9436C60.0298 55.9436 61.3471 52.9087 62.2056 51.7097C63.6232 49.7237 64.7624 49.0028 66.081 48.9792C67.9449 48.9437 69.3469 50.1726 70.2502 51.6748C71.9149 54.4383 72.9371 59.0695 72.9371 59.0695H74.463L66.3431 32.4474L60.0753 53.2411L60.0329 53.2791L59.9825 53.2411Z" fill="#212529"/>
</g>
<defs>
<clipPath id="clip0_190_7286">
<rect width="120" height="120" fill="white"/>
</clipPath>
</defs>
</svg>
