<svg width="100" height="115" viewBox="0 0 100 115" fill="none" xmlns="http://www.w3.org/2000/svg">
<g clip-path="url(#clip0_190_7198)">
<path d="M0.107422 92.2051H3.84275L12.4741 103.696V92.2051H16.4785V110.784H13.0386L4.1171 99.0522V110.782H0.107422L0.107422 92.2051ZM28.3677 102.613C28.1356 100.829 27.0804 99.6135 25.4053 99.6135C23.7434 99.6135 22.6618 100.805 22.34 102.613H28.3677ZM18.4227 103.805V103.752C18.4227 99.7168 21.298 96.4071 25.4053 96.4071C30.1061 96.4071 32.2692 100.066 32.2692 104.059C32.2692 104.385 32.2429 104.747 32.2191 105.121H22.406C22.8017 106.932 24.052 107.888 25.8432 107.888C27.1965 107.888 28.162 107.464 29.2699 106.439L31.5491 108.47C30.2486 110.099 28.3413 111.094 25.7904 111.094C21.5539 111.094 18.4227 108.123 18.4227 103.805ZM34.77 106.776V100.093H33.0817V96.6666H34.77V93.0577H38.7638V96.6666H42.0877V100.093H38.7638V106.116C38.7638 107.048 39.1622 107.488 40.0512 107.488C40.7977 107.488 41.4545 107.305 42.0349 106.995V110.199C41.1855 110.705 40.2068 111.017 38.8667 111.017C36.4319 111.017 34.77 110.046 34.77 106.776ZM73.9144 103.752V103.699C73.9144 101.361 72.3317 99.7962 70.4614 99.7962C68.5911 99.7962 67.0479 101.358 67.0479 103.699V103.752C67.0479 106.093 68.5937 107.657 70.4614 107.657C72.329 107.657 73.9144 106.119 73.9144 103.752ZM63.0936 96.6666H67.1006V98.6974C68.0661 97.3788 69.4062 96.4097 71.4928 96.4097C74.7771 96.4097 77.9083 98.9807 77.9083 103.699V103.752C77.9083 108.47 74.8298 111.044 71.4928 111.044C69.3561 111.044 68.0397 110.075 67.1006 108.949V115H63.0936V96.6666ZM90.362 103.752V103.699C90.362 101.361 88.7793 99.7962 86.909 99.7962C85.0387 99.7962 83.4849 101.358 83.4849 103.699V103.752C83.4849 106.093 85.0413 107.657 86.909 107.657C88.7766 107.657 90.362 106.119 90.362 103.752ZM79.5412 96.6666H83.5482V98.6974C84.5137 97.3788 85.8538 96.4097 87.9404 96.4097C91.2246 96.4097 94.3559 98.9807 94.3559 103.699V103.752C94.3559 108.47 91.2774 111.044 87.9404 111.044C85.8037 111.044 84.4873 110.075 83.5482 108.949V115H79.5412V96.6666ZM54.9661 103.066L52.5181 97.0822L50.0727 103.066H54.9661ZM50.7533 92.2051H54.3989L62.0885 110.784H57.8784L56.1769 106.649H48.8724L47.1842 110.784H43.0531L50.7533 92.2051Z" fill="#212529"/>
<path d="M0.106934 -0.000976562V78.28H36.5976V31.3114H57.4505V78.2826H93.9412V-0.000976562H0.106934Z" fill="#212529"/>
<path d="M99.8926 99.8195H99.4178V97.1823H99.4019L98.476 99.8195H98.1779L97.252 97.1823H97.2388V99.8195H96.764V96.666H97.4974L98.3336 99.0569L99.1698 96.666H99.8926V99.8195ZM96.1968 97.0791H95.3079V99.8195H94.833L94.8304 97.0791H93.9414V96.666H96.1968V97.0791Z" fill="#212529"/>
</g>
<defs>
<clipPath id="clip0_190_7198">
<rect width="100" height="115" fill="white"/>
</clipPath>
</defs>
</svg>
