<svg width="120" height="20" viewBox="0 0 120 20" fill="none" xmlns="http://www.w3.org/2000/svg">
<g clip-path="url(#clip0_178_1312)">
<path d="M5.77496 19.7537H0V0.322984H9.99248L21.4576 14.8287V0.322984H27.2325V19.7537H17.4458L5.77496 4.99643V19.7537ZM54.8801 13.7402C54.8801 16.44 54.3983 17.3715 53.5988 18.2637C52.3734 19.5931 50.5886 19.9946 47.1525 19.9946H37.2864C33.8575 19.9946 32.0636 19.5931 30.8401 18.2637C30.0406 17.3715 29.557 16.44 29.557 13.7402V6.24554C29.557 3.54568 30.0406 2.61599 30.8401 1.72198C32.0654 0.399714 33.8503 0 37.2864 0H47.1525C50.5814 0 52.3734 0.399714 53.5988 1.73091C54.3983 2.62313 54.8801 3.5546 54.8801 6.25446V13.7402ZM46.9089 15.0714C48.2299 15.0714 48.6955 14.9946 49.0113 14.7145C49.3272 14.4343 49.4372 14.106 49.4372 12.964V7.03426C49.4372 5.89222 49.3073 5.55318 49.0113 5.28551C48.7154 5.01784 48.2299 4.92862 46.9089 4.92862H37.5372C36.218 4.92862 35.7524 5.00357 35.4384 5.28551C35.1244 5.56745 35.0107 5.88865 35.0107 7.03426V12.964C35.0107 14.106 35.1406 14.4486 35.4384 14.7145C35.7362 14.9804 36.218 15.0714 37.5372 15.0714H46.9215M63.2899 0.31763V19.7537H57.2407V0.322984H63.2773M73.4773 0.322984H81.4486L70.6909 9.41113L82.8237 19.7609H74.2948L63.2773 9.61991L73.4773 0.322984ZM83.9444 0.322984H89.9829V19.7537H83.9372M112.992 19.7537L111.206 16.3633H99.5278L97.761 19.7537H91.0837L101.794 0.322984H109.3L120 19.7537H112.998M101.628 12.1485H109.136L105.382 5.1142L101.628 12.1485Z" fill="#212529"/>
</g>
<defs>
<clipPath id="clip0_178_1312">
<rect width="120" height="20" fill="white"/>
</clipPath>
</defs>
</svg>
