<svg width="120" height="71" viewBox="0 0 120 71" fill="none" xmlns="http://www.w3.org/2000/svg">
<path d="M70.0975 51.034C70.0975 51.4224 70.0975 51.7331 70.0198 52.1214C69.9421 52.4321 69.8643 52.7428 69.7866 53.0535C69.7089 53.3642 69.5534 53.5972 69.4757 53.8302C69.3202 54.0632 69.2425 54.2185 69.1648 54.3739C68.9316 54.6846 68.6984 54.9953 68.3875 55.3059C68.0766 55.6166 67.7656 55.8496 67.4547 56.0827C67.0661 56.3157 66.6774 56.471 66.2111 56.5487C65.7447 56.704 65.2006 56.704 64.6565 56.704C64.1124 56.704 63.5683 56.6264 63.1019 56.5487C62.6355 56.3933 62.2469 56.238 61.8582 56.005C61.5473 55.772 61.2364 55.4613 61.0809 55.0729C60.9255 54.6846 60.77 54.2962 60.77 53.8302C60.77 53.0535 60.9255 52.2768 61.2364 51.6554C61.5473 50.9563 61.936 50.4126 62.4023 49.8689C62.5578 49.6359 62.791 49.4806 63.0242 49.2476C63.2574 49.0145 63.5683 48.8592 63.9569 48.7039C64.2678 48.5485 64.6565 48.3932 65.1229 48.3155C65.5892 48.2378 66.0556 48.1602 66.5997 48.1602C67.7656 48.1602 68.6984 48.3932 69.3202 48.9369C69.7866 49.4029 70.0975 50.1796 70.0975 51.034ZM67.9988 51.1117C67.9988 50.8787 67.9988 50.6456 67.9211 50.4903C67.8434 50.2573 67.7657 50.1019 67.6102 49.9466C67.4547 49.7913 67.2993 49.6359 67.0661 49.5582C66.8329 49.4806 66.5997 49.4029 66.2111 49.4029C65.8224 49.4029 65.5115 49.4806 65.2006 49.6359C64.8897 49.7913 64.5788 49.9466 64.3456 50.1796C64.1124 50.4126 63.8792 50.6456 63.646 50.9563C63.4128 51.267 63.2574 51.5777 63.1796 51.8884C63.0242 52.1991 62.9464 52.5098 62.8687 52.8981C62.791 53.2088 62.791 53.5195 62.791 53.8302C62.791 54.0632 62.791 54.2962 62.8687 54.4516C62.9464 54.6846 63.0242 54.8399 63.1796 54.9953C63.3351 55.1506 63.4905 55.2283 63.7237 55.3836C63.9569 55.4613 64.1901 55.539 64.501 55.539C64.8897 55.539 65.2006 55.4613 65.5115 55.3059C65.8224 55.1506 66.1333 54.9953 66.3665 54.7622C66.5997 54.5292 66.8329 54.2962 67.0661 53.9855C67.2215 53.6748 67.4547 53.3642 67.5325 53.0535C67.6879 52.7428 67.7657 52.4321 67.8434 52.0437C67.9211 51.6554 67.9988 51.3447 67.9988 51.1117Z" fill="#212529"/>
<path d="M78.026 52.7428C78.026 52.9758 78.026 53.2088 77.9483 53.4418C77.8706 53.6748 77.8706 53.9079 77.7151 54.2185C77.6374 54.4516 77.4819 54.6846 77.4042 54.9176C77.2488 55.1506 77.0933 55.3836 76.9378 55.539C76.5492 56.005 76.1605 56.238 75.6942 56.471C75.3055 56.6264 74.7614 56.704 74.2173 56.704C73.9841 56.704 73.8287 56.704 73.5955 56.6264C73.44 56.6264 73.2068 56.5487 73.0514 56.471C72.8959 56.3934 72.7405 56.3157 72.585 56.1603C72.4295 56.005 72.3518 55.8496 72.2741 55.6943L71.9632 56.5487H70.0977C70.1754 56.238 70.3309 56.005 70.3309 55.772C70.4086 55.539 70.4863 55.3059 70.564 55.0729L72.8182 48.1602H74.6837L73.6732 51.3447C74.0619 51.034 74.3728 50.801 74.7614 50.7233C75.1501 50.6457 75.461 50.568 75.6942 50.568C76.1605 50.568 76.4715 50.6456 76.7824 50.801C77.0933 50.9563 77.3265 51.1117 77.4819 51.3447C77.6374 51.5777 77.7929 51.8107 77.7929 52.0437C78.026 52.3544 78.026 52.5098 78.026 52.7428ZM76.0828 53.0535C76.0828 52.8981 76.0828 52.7428 76.0828 52.5874C76.0828 52.4321 76.0051 52.2767 75.9274 52.1991C75.8496 52.0437 75.6942 51.9661 75.5387 51.8884C75.3833 51.8884 75.1501 51.8107 74.9169 51.8107C74.606 51.8107 74.295 51.8884 73.9841 52.1214C73.6732 52.3544 73.44 52.6651 73.2068 53.1311C73.0514 53.3642 72.9736 53.6748 72.8959 53.9079C72.8959 54.1409 72.8182 54.3739 72.8182 54.6069C72.8182 54.7622 72.8182 54.8399 72.8959 54.9953C72.9736 55.1506 73.0514 55.2283 73.1291 55.3059C73.2068 55.3836 73.3623 55.4613 73.5178 55.539C73.6732 55.6166 73.8287 55.6166 74.0619 55.6166C74.3728 55.6166 74.6837 55.539 74.9169 55.3836C75.1501 55.2283 75.3832 54.9953 75.5387 54.7622C75.6942 54.5292 75.8496 54.2185 75.9274 53.9079C76.0828 53.6748 76.0828 53.3642 76.0828 53.0535Z" fill="#212529"/>
<path d="M84.1667 52.0431C84.089 52.0431 84.0113 52.0431 83.9335 52.0431C83.8558 52.0431 83.7004 52.0431 83.6226 52.0431C83.0008 52.0431 82.5344 52.1984 82.2235 52.4314C81.9126 52.6644 81.6017 53.1305 81.4462 53.6742L80.5135 56.6257H78.6479L80.0471 52.1984C80.1248 52.0431 80.1248 51.8101 80.2025 51.577C80.2803 51.344 80.358 51.0333 80.4357 50.8003H82.3012L81.9903 51.8101C82.3012 51.4217 82.6899 51.111 83.0785 50.9557C83.4672 50.8003 83.8558 50.7227 84.3222 50.7227C84.3999 50.7227 84.3999 50.7227 84.4776 50.7227C84.5554 50.7227 84.5554 50.7227 84.6331 50.7227L84.1667 52.0431Z" fill="#212529"/>
<path d="M86.032 56.6273H84.1665L86.032 50.8019H87.8975L86.032 56.6273ZM88.2862 49.6368H86.3429L86.8093 48.3164H88.7525L88.2862 49.6368Z" fill="#212529"/>
<path d="M90.5402 58.801H88.7524L90.1516 56.7815L88.9079 50.8008H90.9289L91.3952 55.1504L93.9603 50.8008H95.9813L90.5402 58.801Z" fill="#212529"/>
<path d="M101.811 56.6273H99.79L102.433 48.3164H104.454L101.811 56.6273Z" fill="#212529"/>
<path d="M111.76 52.3542C111.76 52.5096 111.76 52.6649 111.683 52.8979C111.605 53.1309 111.605 53.2863 111.527 53.4416L110.517 56.6262H108.651L109.662 53.6746C109.739 53.5193 109.739 53.3639 109.817 53.2086C109.895 53.0533 109.895 52.8979 109.895 52.7426C109.895 52.5096 109.817 52.3542 109.662 52.1989C109.506 52.0435 109.273 51.9659 108.962 51.9659C108.651 51.9659 108.418 52.0435 108.185 52.1212C107.952 52.1989 107.796 52.3542 107.641 52.5096C107.485 52.6649 107.408 52.8979 107.252 53.0533C107.174 53.2863 107.097 53.4416 107.019 53.6746L106.086 56.7038H104.221L105.698 52.0435C105.775 51.8882 105.775 51.7328 105.853 51.4998C105.931 51.2668 106.008 51.1115 106.008 50.8785H107.874L107.641 51.5775C107.952 51.3445 108.263 51.1115 108.574 51.0338C108.962 50.8785 109.351 50.8008 109.817 50.8008C110.439 50.8008 110.905 50.9561 111.294 51.2668C111.527 51.4222 111.76 51.8105 111.76 52.3542Z" fill="#212529"/>
<path d="M119.999 52.2771C119.999 52.4325 119.999 52.5878 119.922 52.7432H118.056C118.056 52.5878 118.134 52.5102 118.134 52.3548C118.134 52.1218 118.056 51.9664 117.901 51.8111C117.745 51.6558 117.512 51.5781 117.201 51.5781C116.968 51.5781 116.735 51.6558 116.579 51.7334C116.424 51.8111 116.191 51.8888 116.035 52.0441C115.88 52.1995 115.724 52.3548 115.647 52.5102C115.569 52.6655 115.413 52.8985 115.336 53.0539C115.18 53.2869 115.103 53.5976 115.025 53.8306C114.947 54.1413 114.947 54.3743 114.947 54.6073C114.947 54.7626 114.947 54.8403 115.025 54.9956C115.103 55.151 115.103 55.2287 115.18 55.3063C115.258 55.384 115.413 55.4617 115.491 55.5393C115.647 55.617 115.802 55.617 115.958 55.617C116.424 55.617 116.735 55.4617 117.046 55.2287C117.357 54.9956 117.512 54.685 117.668 54.2966H119.533C119.3 55.0733 118.834 55.617 118.289 56.0054C117.668 56.3937 116.89 56.5491 115.802 56.5491C115.336 56.5491 114.947 56.4714 114.558 56.3937C114.247 56.3161 113.937 56.083 113.703 55.9277C113.47 55.6947 113.315 55.4617 113.237 55.2287C113.159 54.9956 113.082 54.685 113.082 54.3743C113.082 53.8306 113.159 53.2869 113.392 52.8208C113.626 52.3548 113.937 51.8888 114.325 51.5781C114.714 51.2674 115.18 50.9567 115.647 50.8014C116.113 50.646 116.735 50.5684 117.357 50.5684C117.745 50.5684 118.056 50.5684 118.367 50.646C118.678 50.7237 118.989 50.8014 119.222 50.9567C119.455 51.1121 119.689 51.2674 119.844 51.5004C119.922 51.7334 119.999 52.0441 119.999 52.2771Z" fill="#212529"/>
<path d="M95.6708 40.7829C93.1057 40.7829 91.007 39.0741 90.3852 36.6663V27.3457H86.3433V34.4138V36.3556C86.6542 39.1518 88.131 41.5596 90.3852 43.113C91.862 44.1228 93.7275 44.7442 95.6708 44.7442C96.4481 44.7442 97.2254 44.6665 97.9249 44.4335V40.3169C97.2254 40.6276 96.5258 40.7829 95.6708 40.7829Z" fill="#212529"/>
<path d="M103.755 27.3457H99.7129V44.5888H103.755V27.3457Z" fill="#212529"/>
<path d="M84.2446 27.3457H80.2026V44.5888H84.2446V27.3457Z" fill="#212529"/>
<path d="M84.1668 25.1713C84.1668 22.6858 86.1878 20.6663 88.6751 20.6663C91.1625 20.6663 93.1834 22.6858 93.1834 25.1713H97.1476C97.1476 20.511 93.3389 16.7051 88.6751 16.7051C84.0114 16.7051 80.2026 20.511 80.2026 25.1713H84.1668Z" fill="#212529"/>
<path d="M69.3981 27.3457C64.5788 27.3457 60.6924 31.2293 60.6924 36.0449C60.6924 36.2779 60.6924 36.511 60.6924 36.744V47.2296H64.7343V46.0646V43.3461V36.977V34.9575C65.2007 32.8604 67.0662 31.2293 69.3203 31.2293C71.9631 31.2293 74.0618 33.3264 74.0618 35.9673C74.0618 38.6081 71.9631 40.7052 69.3203 40.7052C68.2321 40.7052 67.2994 40.3945 66.5221 39.7732V44.2004C67.3771 44.5111 68.3098 44.6665 69.3203 44.6665C74.1395 44.6665 78.026 40.7829 78.026 35.9673C78.026 31.1516 74.1395 27.3457 69.3981 27.3457Z" fill="#212529"/>
<path d="M49.8883 44.6652C45.0691 44.6652 41.1826 40.7816 41.1826 35.966C41.1826 35.733 41.1826 35.4999 41.1826 35.2669V24.7812H45.2245V25.9463V28.6648V35.0339V37.0534C45.6909 39.1505 47.5564 40.7816 49.8106 40.7816C52.4534 40.7816 54.552 38.6845 54.552 36.0436C54.552 33.4028 52.4534 31.3057 49.8106 31.3057C48.7224 31.3057 47.7896 31.6164 47.0123 32.2377V27.8104C47.8673 27.4998 48.8001 27.3444 49.8106 27.3444C54.6298 27.3444 58.5162 31.228 58.5162 36.0436C58.5162 40.8593 54.6298 44.6652 49.8883 44.6652Z" fill="#212529"/>
<path d="M22.9163 12.1992C13.9774 12.1992 6.6709 19.4227 6.6709 28.4326C6.6709 37.4425 13.8997 44.666 22.9163 44.666C31.9329 44.666 39.1617 37.4425 39.1617 28.4326C39.1617 19.4227 31.9329 12.1992 22.9163 12.1992ZM22.9163 40.7047C16.1539 40.7047 10.6351 35.19 10.6351 28.4326C10.6351 21.6752 16.1539 16.1605 22.9163 16.1605C29.6787 16.1605 35.1975 21.6752 35.1975 28.4326C35.1975 35.19 29.6787 40.7047 22.9163 40.7047Z" fill="#212529"/>
<path d="M49.7328 34.3349L26.4918 36.0436L27.9686 35.733C28.8236 35.2669 29.1346 34.1795 28.5905 33.3251C28.3573 33.0144 28.0464 32.7814 27.7354 32.7038L30.6891 31.1503C31.5442 30.6843 31.8551 29.5969 31.311 28.7425C30.8446 28.0435 29.8341 27.8104 29.1346 28.1988L0.530216 43.1894C0.0638405 43.4224 -0.169347 44.0438 0.14157 44.5098C0.374757 44.9759 0.996591 45.2089 1.46297 44.8982L2.55118 44.3545L2.86209 44.9759L17.8638 37.131C17.8638 37.4417 17.9416 37.6747 18.097 37.9854C18.5634 38.6845 19.5739 38.9175 20.2734 38.5291L20.973 38.0631C21.5171 38.6068 22.2944 38.9175 23.1494 38.9175C23.2271 38.9175 23.2271 38.9175 23.3049 38.9175H23.3826C23.4603 38.9175 23.4603 38.9175 23.5381 38.9175L47.2455 36.665C48.2559 36.5873 49.1887 35.966 49.6551 35.0339L49.8105 34.8009C50.1214 34.5679 49.966 34.3349 49.7328 34.3349Z" fill="#212529"/>
</svg>
