<svg width="80" height="22" viewBox="0 0 80 22" fill="none" xmlns="http://www.w3.org/2000/svg">
<path d="M55.614 0.611917C55.4462 0.55706 55.051 0.442123 54.4312 0.264493C53.8114 0.086863 53.124 -0.00195312 52.3634 -0.00195312C51.2944 -0.00195312 50.4364 0.217472 49.7895 0.651098C49.1427 1.08734 48.8179 1.83704 48.8179 2.90021V12.6725" fill="#0078E6"/>
<path d="M20.3153 3.14771C19.2327 2.16552 17.966 1.39753 16.518 0.83852C15.07 0.279508 13.53 0 11.898 0C10.2388 0 8.69071 0.279508 7.25624 0.83852C5.82177 1.39753 4.56323 2.16813 3.48061 3.14771C2.398 4.1299 1.54544 5.28711 0.928344 6.62194C0.308546 7.95678 0 9.417 0 10.9974C0 12.5778 0.308546 14.038 0.928344 15.3728C1.54814 16.7077 2.398 17.8675 3.48061 18.8471C4.56323 19.8293 5.82177 20.5999 7.25624 21.1563C8.69071 21.7153 10.2388 21.9948 11.898 21.9948C13.53 21.9948 15.07 21.7153 16.518 21.1563C17.966 20.5972 19.2327 19.8266 20.3153 18.8471C21.3979 17.8649 22.2478 16.7077 22.8676 15.3728C23.4874 14.038 23.7959 12.5804 23.7959 10.9974C23.7959 9.417 23.4874 7.95939 22.8676 6.62194C22.2478 5.28711 21.3979 4.1299 20.3153 3.14771ZM16.4747 13.0427C16.2365 13.6697 15.8901 14.2078 15.4408 14.6571C14.9915 15.1064 14.4638 15.4616 13.8575 15.7203C13.2512 15.9789 12.599 16.1095 11.8953 16.1095C11.1645 16.1095 10.5014 15.9815 9.91136 15.7203C9.32133 15.4616 8.79897 15.1064 8.34968 14.6571C7.9004 14.2078 7.55396 13.6697 7.31578 13.0427C7.07761 12.4158 6.95581 11.734 6.95581 10.9974C6.95581 10.2607 7.0749 9.58157 7.31578 8.95203C7.55396 8.3251 7.9004 7.78698 8.34968 7.33769C8.79897 6.88839 9.32133 6.53313 9.91136 6.27452C10.5014 6.01591 11.1618 5.8853 11.8953 5.8853C12.599 5.8853 13.2512 6.01591 13.8575 6.27452C14.4611 6.53313 14.9888 6.88839 15.4408 7.33769C15.8901 7.78698 16.2365 8.3251 16.4747 8.95203C16.7129 9.57896 16.8347 10.2607 16.8347 10.9974C16.8347 11.734 16.7129 12.4158 16.4747 13.0427ZM43.9867 10.057C43.2966 9.5659 42.5089 9.19235 41.6239 8.93374C40.7389 8.67513 39.8159 8.47661 38.8605 8.34077L35.0199 7.8105C34.1187 7.67466 33.4447 7.51009 32.9955 7.3194C32.5462 7.12871 32.3215 6.80218 32.3215 6.33721C32.3215 5.87485 32.5678 5.49869 33.0604 5.21396C33.553 4.92662 34.4326 4.78556 35.6966 4.78556C36.8225 4.78556 37.8266 4.86654 38.7144 5.03111C39.5994 5.19568 40.36 5.37853 40.9933 5.58228C41.6266 5.78603 42.1327 5.99763 42.5117 6.21705C42.8906 6.43648 43.1233 6.58537 43.2072 6.66635C43.2641 6.64023 43.3967 6.55664 43.6078 6.4208C43.8189 6.28497 44.0436 6.09428 44.2817 5.84873C44.5199 5.60318 44.731 5.31062 44.9151 4.96842C45.0964 4.62883 45.1884 4.23961 45.1884 3.80337C45.1884 3.2313 45.026 2.74804 44.704 2.35099C44.3792 1.95654 43.9515 1.62218 43.4156 1.35051C42.4873 0.888149 41.383 0.54595 40.1028 0.329136C38.8226 0.112323 37.2962 0.00261077 35.5234 0.00261077C33.7776 0.00261077 32.2728 0.185465 31.0089 0.553786C29.7422 0.922107 28.7029 1.42627 27.8855 2.06626C27.0681 2.70625 26.4727 3.45595 26.0911 4.31536C25.7122 5.17478 25.5227 6.10734 25.5227 7.11565C25.5227 8.31465 25.7473 9.3099 26.1966 10.1014C26.6459 10.8929 27.2576 11.5381 28.0317 12.0423C28.8057 12.5464 29.6989 12.9278 30.7111 13.1864C31.7234 13.445 32.7789 13.6436 33.8751 13.7794L36.0701 14.0249C37.1094 14.1608 37.8781 14.3306 38.3706 14.5369C38.8632 14.7407 39.1095 15.1168 39.1095 15.6602C39.1095 16.1774 38.8145 16.5379 38.2245 16.7442C37.6345 16.948 36.7603 17.0499 35.6073 17.0499C34.595 17.0499 33.6315 16.9741 32.7167 16.8252C31.8019 16.6763 30.9872 16.4987 30.27 16.2949C29.5527 16.0912 28.9329 15.8718 28.4133 15.6419C27.8936 15.4094 27.5201 15.2135 27.2955 15.0489L24.8894 19.3016C25.114 19.4662 25.5146 19.7039 26.0911 20.0173C26.6676 20.3308 27.42 20.6312 28.3483 20.9159C29.2767 21.2033 30.3809 21.4541 31.6611 21.6735C32.9413 21.8903 34.411 22 36.0701 22C39.2476 22 41.7376 21.36 43.5401 20.0774C45.34 18.7974 46.2413 17.0107 46.2413 14.7224C46.2413 13.6331 46.0383 12.7058 45.6296 11.943C45.2263 11.175 44.6769 10.5481 43.9867 10.057ZM79.391 11.9378C78.9823 11.175 78.4356 10.5481 77.7454 10.057C77.0553 9.5659 76.2677 9.19235 75.3826 8.93374C74.4976 8.67513 73.5746 8.47661 72.6192 8.34077L68.7786 7.8105C67.8774 7.67466 67.2034 7.51009 66.7542 7.3194C66.3049 7.12871 66.0802 6.80218 66.0802 6.33721C66.0802 5.87485 66.3265 5.49869 66.8191 5.21396C67.3117 4.92662 68.1913 4.78556 69.4553 4.78556C70.5812 4.78556 71.5853 4.86654 72.4731 5.03111C73.3581 5.19568 74.1187 5.37853 74.752 5.58228C75.3853 5.78603 75.8914 5.99763 76.2704 6.21705C76.6493 6.43648 76.882 6.58537 76.9659 6.66635C77.0228 6.64023 77.1554 6.55664 77.3665 6.4208C77.5776 6.28497 77.8023 6.09428 78.0404 5.84873C78.2786 5.60318 78.4897 5.31062 78.6738 4.96842C78.8551 4.62883 78.9471 4.23961 78.9471 3.80337C78.9471 3.2313 78.7847 2.74804 78.4627 2.35099C78.1379 1.95654 77.7102 1.62218 77.1743 1.35051C76.246 0.888149 75.1417 0.54595 73.8615 0.329136C72.5813 0.112323 71.0548 0.00261077 69.2821 0.00261077C67.5363 0.00261077 66.0342 0.185465 64.7676 0.553786C63.5009 0.922107 62.4616 1.42627 61.6442 2.06626C60.8268 2.70625 60.2314 3.45595 59.8498 4.31536C59.4709 5.17478 59.2814 6.10734 59.2814 7.11565C59.2814 8.31465 59.506 9.3099 59.9553 10.1014C60.4046 10.8929 61.0163 11.5381 61.7904 12.0423C62.5644 12.5464 63.4576 12.9278 64.4698 13.1864C65.4821 13.445 66.5376 13.6436 67.6338 13.7794L69.8288 14.0249C70.8681 14.1608 71.6368 14.3306 72.1294 14.5369C72.6219 14.7407 72.8682 15.1168 72.8682 15.6602C72.8682 16.1774 72.5732 16.5379 71.9832 16.7442C71.3932 16.948 70.519 17.0499 69.366 17.0499C68.3537 17.0499 67.3902 16.9741 66.4754 16.8252C65.5606 16.6763 64.7459 16.4987 64.0287 16.2949C63.3114 16.0912 62.6916 15.8718 62.172 15.6419C61.6523 15.4094 61.2788 15.2135 61.0542 15.0489L58.6481 19.3016C58.8727 19.4662 59.2733 19.7039 59.8498 20.0173C60.4263 20.3308 61.1787 20.6312 62.107 20.9159C63.0354 21.2033 64.1396 21.4541 65.4198 21.6735C66.7 21.8903 68.1697 22 69.8288 22C73.0063 22 75.4963 21.36 77.2988 20.0774C79.0987 18.7974 80 17.0107 80 14.7224C80.0027 13.6279 79.7997 12.7005 79.391 11.9378ZM48.8396 21.8302H55.5924V9.97601L48.8396 21.8302Z" fill="black"/>
</svg>
