<svg width="120" height="65" viewBox="0 0 120 65" fill="none" xmlns="http://www.w3.org/2000/svg">
<g clip-path="url(#clip0_188_3932)">
<path d="M51.3186 36.3048H51.3378C51.5401 35.9952 51.8013 35.7278 52.1065 35.5176C52.5201 35.261 52.9991 35.1283 53.4865 35.1354C53.8458 35.1182 54.2041 35.187 54.5311 35.3359C54.8582 35.4849 55.1445 35.7097 55.3661 35.9915C55.8658 36.6641 55.8889 37.589 55.8889 38.3113V44.1203C55.9133 44.4663 55.8677 44.8137 55.7549 45.1419C55.642 45.4701 55.464 45.7725 55.2316 46.0312C55.0146 46.2517 54.753 46.424 54.4641 46.5366C54.1752 46.6493 53.8656 46.6997 53.5557 46.6847C53.0257 46.6915 52.5056 46.5426 52.0604 46.2566C51.7764 46.0824 51.5242 45.8614 51.3147 45.6031V51.0988H49.0469V35.2997H51.3147L51.3186 36.3048ZM51.3186 42.9699C51.2982 43.1724 51.3197 43.3769 51.3819 43.5708C51.444 43.7647 51.5454 43.9439 51.6799 44.0974C51.7907 44.212 51.9239 44.303 52.0712 44.3648C52.2186 44.4266 52.3771 44.4578 52.5371 44.4566C52.6866 44.4636 52.8358 44.437 52.9735 44.3788C53.1113 44.3206 53.2341 44.2322 53.3327 44.1203C53.5472 43.8702 53.6535 43.546 53.6287 43.2184V38.6781C53.6543 38.4981 53.6411 38.3147 53.5901 38.1402C53.5391 37.9656 53.4514 37.8037 53.3327 37.6654C53.2343 37.553 53.1116 37.464 52.9739 37.4052C52.8361 37.3463 52.6868 37.319 52.5371 37.3253C52.3752 37.3256 52.2152 37.3598 52.0676 37.4256C51.9199 37.4915 51.7878 37.5875 51.6799 37.7074C51.5457 37.8603 51.4445 38.0388 51.3823 38.2321C51.3202 38.4253 51.2985 38.6291 51.3186 38.831V42.9699Z" fill="#212529"/>
<path d="M60.1941 35.2988L62.0315 42.2353H62.1199L63.5267 35.2988H65.7907L62.7157 47.9755C62.5581 48.629 62.3543 49.7106 61.674 50.3641C60.9936 51.0176 60.1134 51.0635 59.41 51.0635H58.8103L58.7642 48.9692H59.1947C59.3979 48.9854 59.602 48.9504 59.7881 48.8676C59.9741 48.7848 60.1362 48.6567 60.2595 48.4953C60.4673 48.1658 60.6059 47.7979 60.6669 47.4137L61.0321 45.95L57.7456 35.2988H60.1941Z" fill="#212529"/>
<path d="M67.1052 38.4535C67.0779 37.5845 67.386 36.7382 67.9662 36.0878C68.3118 35.7603 68.7206 35.5058 69.1678 35.3397C69.6151 35.1735 70.0915 35.0991 70.5685 35.1209C71.4238 35.0977 72.2566 35.3951 72.9017 35.954C73.2163 36.2518 73.464 36.6125 73.6283 37.0124C73.7926 37.4122 73.8698 37.8422 73.8549 38.2738V38.5987C73.8671 39.1127 73.7339 39.6199 73.4705 40.0624C73.2529 40.3938 72.9468 40.6585 72.5865 40.8268C72.9647 40.973 73.2883 41.232 73.5128 41.5682C73.8194 42.0448 73.9698 42.6043 73.9433 43.1695V43.4599C73.9353 44.2918 73.6223 45.0922 73.0631 45.7109C72.3575 46.3642 71.4206 46.7132 70.457 46.6816C69.5804 46.6829 68.7308 46.3802 68.0546 45.8256C67.7549 45.536 67.5164 45.1896 67.3534 44.807C67.1903 44.4243 67.1059 44.0131 67.1052 43.5975V43.1695H69.2769V43.3911C69.2729 43.6465 69.3616 43.8948 69.5268 44.0905C69.7776 44.3354 70.1151 44.4725 70.4666 44.4725C70.8181 44.4725 71.1556 44.3354 71.4064 44.0905C71.5993 43.8143 71.6953 43.4825 71.6793 43.1465V42.944C71.6898 42.7888 71.6648 42.6332 71.6062 42.4889C71.5476 42.3446 71.457 42.2154 71.3411 42.1109C71.0969 41.9168 70.7926 41.8128 70.48 41.8166H69.6844V39.879H70.4109C70.5789 39.8855 70.7465 39.8568 70.9027 39.795C71.059 39.7331 71.2004 39.6393 71.318 39.5197C71.5036 39.2822 71.5989 38.9871 71.5871 38.6866V38.5758C71.5844 38.2773 71.4906 37.9868 71.318 37.7426C71.218 37.6184 71.0901 37.5191 70.9446 37.4527C70.7991 37.3864 70.64 37.3548 70.48 37.3604C70.3098 37.3536 70.1402 37.3843 69.9834 37.4504C69.8265 37.5164 69.6863 37.6163 69.5729 37.7426C69.4711 37.8547 69.3925 37.9856 69.3417 38.1279C69.2909 38.2702 69.2689 38.4211 69.2769 38.5719V38.7324H67.1052V38.4535Z" fill="#212529"/>
<path d="M76.6611 38.9033C76.6611 38.0243 76.7303 36.7861 77.772 35.9071C78.4321 35.3988 79.2434 35.123 80.0783 35.123C80.9132 35.123 81.7244 35.3988 82.3846 35.9071C83.4262 36.7861 83.4954 38.0243 83.4954 38.9033V42.8664C83.4954 43.7454 83.4262 44.9837 82.3846 45.8627C81.7244 46.3709 80.9132 46.6467 80.0783 46.6467C79.2434 46.6467 78.4321 46.3709 77.772 45.8627C76.7303 44.9837 76.6611 43.7454 76.6611 42.8664V38.9033ZM81.2353 38.7657C81.2625 38.3629 81.1424 37.9638 80.897 37.6421C80.6753 37.438 80.3843 37.3246 80.0821 37.3246C79.78 37.3246 79.4889 37.438 79.2672 37.6421C79.0219 37.9638 78.9018 38.3629 78.929 38.7657V43.0002C78.8964 43.4107 79.0168 43.8188 79.2672 44.1467C79.4902 44.3484 79.7807 44.4602 80.0821 44.4602C80.3835 44.4602 80.6741 44.3484 80.897 44.1467C81.1475 43.8188 81.2678 43.4107 81.2353 43.0002V38.7657Z" fill="#212529"/>
<path d="M90.1603 35.3007C90.9787 35.2728 91.7758 35.5634 92.382 36.1109C92.8538 36.6484 93.1181 37.3351 93.1277 38.0485V38.5988C93.16 39.1959 92.9667 39.7834 92.5857 40.246C92.3447 40.506 92.0401 40.6995 91.7016 40.8078C92.1186 40.94 92.483 41.1994 92.7433 41.5492C93.0722 42.0177 93.2394 42.5795 93.2199 43.1505V43.6664C93.2266 44.0595 93.1491 44.4495 92.9927 44.8105C92.8364 45.1716 92.6046 45.4955 92.3128 45.7607C91.5902 46.4143 90.7061 46.4792 89.8681 46.4792H86.4087V35.3007H90.1603ZM88.6881 39.8867H89.6875C89.8564 39.9091 90.0282 39.8877 90.1865 39.8248C90.3447 39.7619 90.4839 39.6595 90.5908 39.5275C90.7906 39.2707 90.8879 38.9494 90.8637 38.6256V38.4001C90.8795 38.1123 90.7816 37.8298 90.5908 37.6128C90.4699 37.5027 90.3268 37.4196 90.171 37.3688C90.0153 37.3181 89.8504 37.3009 89.6875 37.3185H88.6881V39.8867ZM88.6881 44.4346H89.7336C89.9143 44.4498 90.0962 44.4232 90.2649 44.3569C90.4336 44.2906 90.5846 44.1864 90.7061 44.0524C90.89 43.8328 90.9798 43.55 90.9559 43.2652V42.86C90.9708 42.5585 90.8737 42.2619 90.683 42.0269C90.5587 41.9057 90.4095 41.8125 90.2456 41.7538C90.0818 41.6951 89.9071 41.6722 89.7336 41.6868H88.6881V44.4346Z" fill="#212529"/>
<path d="M100.604 45.3667H100.558C100.348 45.6901 100.089 45.9789 99.7891 46.2227C99.4194 46.5199 98.9532 46.6721 98.4783 46.6508C97.8506 46.6795 97.2352 46.4706 96.7563 46.0661C96.0529 45.4125 95.9414 44.3998 95.9414 43.4979C95.9414 42.6876 95.9875 41.4685 96.6448 40.7042C97.3905 39.8252 98.659 39.7373 99.3355 39.7373C99.4931 39.7373 99.9236 39.7373 100.627 39.8022V38.6328C100.643 38.4641 100.626 38.2938 100.576 38.1319C100.525 37.9699 100.444 37.8193 100.335 37.6888C100.218 37.5657 100.077 37.4682 99.9198 37.4024C99.763 37.3366 99.5941 37.304 99.4239 37.3067C99.2525 37.3032 99.0825 37.3377 98.9262 37.4078C98.77 37.4779 98.6314 37.5817 98.5206 37.7118C98.3472 37.9151 98.2435 38.1681 98.2246 38.4341H96.0721C96.0491 37.5395 96.3836 36.6724 97.0023 36.0225C97.6966 35.4014 98.6057 35.0713 99.5392 35.1015C100.434 35.0772 101.303 35.4008 101.961 36.0034C102.285 36.358 102.535 36.7738 102.695 37.2261C102.855 37.6785 102.921 38.1581 102.891 38.6366V46.4482H100.627L100.604 45.3667ZM100.604 41.6061C100.341 41.5614 100.075 41.5384 99.8083 41.5373C99.5753 41.5181 99.341 41.5507 99.1223 41.6326C98.9036 41.7146 98.7059 41.8439 98.5437 42.0112C98.2934 42.3482 98.1721 42.7628 98.2016 43.1806C98.1873 43.5041 98.266 43.8249 98.4284 44.1055C98.5173 44.2661 98.649 44.3992 98.809 44.4902C98.969 44.5812 99.1512 44.6266 99.3355 44.6214C100.016 44.6214 100.604 44.1743 100.604 43.1806V41.6061Z" fill="#212529"/>
<path d="M110.317 46.4659V41.8798H109.318L107.78 46.4659H105.32L107.158 41.5359C106.815 41.362 106.513 41.117 106.274 40.8174C105.939 40.2921 105.765 39.6812 105.774 39.0594V38.1154C105.767 37.7224 105.845 37.3324 106.001 36.9714C106.157 36.6103 106.389 36.2864 106.681 36.0211C107.404 35.3676 108.288 35.2988 109.126 35.2988H112.585V46.4659H110.317ZM110.317 37.0989H109.279C109.115 37.09 108.951 37.1168 108.798 37.1776C108.646 37.2383 108.508 37.3314 108.395 37.4505C108.27 37.5764 108.174 37.7284 108.115 37.8956C108.056 38.0629 108.035 38.2411 108.053 38.4174V38.9142C108.039 39.2157 108.136 39.5121 108.326 39.7473C108.452 39.8676 108.602 39.9598 108.766 40.0178C108.931 40.0758 109.106 40.0982 109.279 40.0836H110.317V37.0989Z" fill="#212529"/>
<path d="M117.732 64.8194V60.2333H116.737L115.199 64.8194H112.75L114.584 59.8855C114.242 59.7124 113.941 59.4672 113.704 59.167C113.369 58.6417 113.195 58.0308 113.204 57.409V56.4651C113.197 56.072 113.275 55.682 113.431 55.321C113.588 54.9599 113.819 54.636 114.111 54.3707C114.834 53.7172 115.718 53.6484 116.556 53.6484H120.015V64.8194H117.732ZM117.732 55.4523H116.69C116.527 55.443 116.364 55.4681 116.212 55.5261C116.06 55.5841 115.921 55.6735 115.806 55.7886C115.682 55.9153 115.588 56.0676 115.529 56.2347C115.471 56.4017 115.45 56.5795 115.468 56.7555V57.2523C115.453 57.5539 115.55 57.8505 115.741 58.0855C115.866 58.2062 116.015 58.2988 116.179 58.3569C116.343 58.4149 116.517 58.4371 116.69 58.4218H117.732V55.4523Z" fill="#212529"/>
<path d="M44.4304 58.1538C44.6273 58.1851 44.829 58.1488 45.0023 58.0509C45.1756 57.9529 45.3101 57.7991 45.3837 57.6149C45.5377 57.2706 45.6362 56.9043 45.6758 56.5295L45.8142 55.7231C45.8733 55.2084 46.0509 54.7141 46.3331 54.2785C46.8097 53.625 47.5554 53.5371 48.2819 53.5371H48.8162V55.448H48.5164C48.4089 55.4454 48.3019 55.4639 48.2016 55.5026C48.1013 55.5413 48.0097 55.5994 47.9321 55.6735C47.7818 55.9015 47.6955 56.1654 47.6823 56.4378L47.567 57.2709C47.5462 57.7012 47.462 58.1261 47.3171 58.5321C47.2209 58.7584 47.064 58.954 46.8636 59.0977L48.9046 64.8303H46.5983L44.9724 60.0455H43.7078V64.8189H41.4399V53.6479H43.7078V58.1538H44.4304Z" fill="#212529"/>
<path d="M51.0459 57.2509C51.0459 56.372 51.1151 55.1337 52.1529 54.2547C52.813 53.7465 53.6243 53.4707 54.4592 53.4707C55.2941 53.4707 56.1054 53.7465 56.7655 54.2547C57.811 55.1337 57.8764 56.372 57.8764 57.2509V61.2141C57.8764 62.0931 57.811 63.3313 56.7655 64.2103C56.1054 64.7186 55.2941 64.9943 54.4592 64.9943C53.6243 64.9943 52.813 64.7186 52.1529 64.2103C51.1151 63.3313 51.0459 62.0931 51.0459 61.2141V57.2509ZM55.62 57.1172C55.6526 56.7067 55.5322 56.2986 55.2818 55.9707C55.0582 55.7687 54.767 55.6568 54.465 55.6568C54.1629 55.6568 53.8717 55.7687 53.6482 55.9707C53.3977 56.2986 53.2773 56.7067 53.3099 57.1172V61.3517C53.2827 61.7545 53.4028 62.1535 53.6482 62.4753C53.8709 62.6788 54.1624 62.7918 54.465 62.7918C54.7675 62.7918 55.059 62.6788 55.2818 62.4753C55.5271 62.1535 55.6473 61.7545 55.62 61.3517V57.1172Z" fill="#212529"/>
<path d="M65.2909 59.8893H65.3447L67.7471 53.6484H69.8304V64.8194H67.701V58.4715L65.7791 63.2219H64.8258L62.9039 58.4715V64.8232H60.7744V53.6484H62.8578L65.2909 59.8893Z" fill="#212529"/>
<path d="M72.9478 53.6484H79.6514V64.8194H77.3874V55.6778H75.2118V64.8194H72.9478V53.6484Z" fill="#212529"/>
<path d="M87.2548 63.7148H87.2086C86.9991 64.0385 86.7397 64.3274 86.4399 64.5709C86.0686 64.8677 85.6012 65.0198 85.1253 64.9989C84.4974 65.0285 83.8818 64.8194 83.4033 64.4142C82.7037 63.7607 82.5884 62.7479 82.5884 61.846C82.5884 61.0358 82.6345 59.8205 83.2918 59.0523C84.0375 58.1772 85.306 58.0854 85.9632 58.0854C86.3947 58.0862 86.8257 58.1092 87.2548 58.1542V56.9848C87.2721 56.8145 87.2548 56.6426 87.204 56.4791C87.1531 56.3156 87.0698 56.164 86.9588 56.0332C86.8408 55.9155 86.6997 55.8232 86.5443 55.7621C86.3889 55.7009 86.2225 55.6722 86.0555 55.6777C85.8835 55.6737 85.7127 55.708 85.5558 55.7781C85.3988 55.8482 85.2596 55.9523 85.1484 56.0828C84.975 56.2847 84.8713 56.5365 84.8524 56.8013H82.7037C82.6913 56.3592 82.7667 55.9189 82.9256 55.5057C83.0846 55.0926 83.324 54.7147 83.6301 54.3936C84.3243 53.7695 85.2353 53.4378 86.1708 53.4688C87.0653 53.4445 87.9341 53.768 88.5924 54.3707C88.9163 54.7255 89.1653 55.1415 89.3244 55.5938C89.4835 56.0461 89.5496 56.5257 89.5188 57.0039V64.8193H87.2548V63.7148ZM87.2548 59.9543C86.9931 59.9108 86.7282 59.8891 86.4629 59.8893C86.2297 59.8693 85.9949 59.9011 85.7755 59.9824C85.5561 60.0637 85.3577 60.1925 85.1945 60.3594C84.9443 60.6978 84.8231 61.1136 84.8524 61.5326C84.8386 61.8548 84.9173 62.1742 85.0792 62.4537C85.1672 62.6152 85.2987 62.7494 85.4588 62.8411C85.6189 62.9329 85.8016 62.9787 85.9863 62.9734C86.6667 62.9734 87.2548 62.5225 87.2548 61.5326V59.9543Z" fill="#212529"/>
<path d="M92.6357 53.6484H94.9036V58.1543H97.2099V53.6484H99.4739V64.8194H97.2099V60.1798H94.9036V64.8194H92.6357V53.6484Z" fill="#212529"/>
<path d="M104.859 53.6484V59.8893L107.646 55.0319V53.6561H109.91V64.827H107.646V58.5823L104.859 63.4397V64.8117H102.595V53.6484H104.859Z" fill="#212529"/>
<path d="M44.7533 35.2988C43.9538 35.2988 43.0159 35.3905 42.3086 36.002C41.5091 36.709 41.4399 37.6607 41.4399 38.4326V46.4583H43.7078V38.8148C43.7005 38.4754 43.8212 38.1455 44.046 37.89C44.1826 37.7478 44.3507 37.6392 44.5368 37.5729C44.723 37.5065 44.9221 37.4842 45.1185 37.5078H47.0827V35.2988H44.7533Z" fill="#212529"/>
<path d="M5.96944 35.2956H0C0.742048 43.3642 4.48998 50.8659 10.5084 56.3286C16.5267 61.7913 24.3811 64.8206 32.5302 64.8222H35.5015V58.9177H32.5302C25.9558 58.9177 19.6121 56.5084 14.7121 52.1504C9.81199 47.7925 6.6994 41.7917 5.96944 35.2956ZM29.5628 5.9332V-0.00195312C21.9567 0.68928 14.8346 4.00806 9.43389 9.37774C4.03318 14.7474 0.695227 21.8286 0 29.391H5.96944C6.64399 23.4004 9.34653 17.8157 13.6336 13.5533C17.9206 9.29088 23.5376 6.60387 29.5628 5.9332ZM35.5015 -0.00195312V5.9332C41.5266 6.60387 47.1436 9.29088 51.4306 13.5533C55.7177 17.8157 58.4202 23.4004 59.0948 29.391H65.0642C64.369 21.8286 61.031 14.7474 55.6303 9.37774C50.2296 4.00806 43.1075 0.68928 35.5015 -0.00195312Z" fill="#212529"/>
<path d="M29.4127 11.8223L25.2114 15.9994C26.5924 17.3684 27.6878 18.9952 28.4345 20.7863C29.1812 22.5775 29.5646 24.4976 29.5626 26.4366V53.0129H35.5013V26.4366C35.503 23.7222 34.966 21.0341 33.9212 18.5264C32.8765 16.0186 31.3444 13.7404 29.4127 11.8223Z" fill="#212529"/>
</g>
<defs>
<clipPath id="clip0_188_3932">
<rect width="120" height="65" fill="white"/>
</clipPath>
</defs>
</svg>
