<svg width="140" height="76" viewBox="0 0 140 76" fill="none" xmlns="http://www.w3.org/2000/svg">
<g clip-path="url(#clip0_188_3951)">
<path d="M59.8715 42.4505H59.8939C60.13 42.0884 60.4346 41.7758 60.7908 41.53C61.2732 41.23 61.8322 41.0749 62.4007 41.0831C62.8199 41.063 63.2379 41.1434 63.6195 41.3176C64.001 41.4917 64.3351 41.7546 64.5936 42.084C65.1766 42.8705 65.2035 43.9519 65.2035 44.7964V51.5885C65.232 51.9931 65.1789 52.3993 65.0472 52.783C64.9155 53.1668 64.7079 53.5203 64.4367 53.8228C64.1835 54.0806 63.8783 54.282 63.5413 54.4137C63.2043 54.5455 62.843 54.6045 62.4815 54.5869C61.8632 54.5949 61.2563 54.4208 60.737 54.0864C60.4056 53.8827 60.1115 53.6243 59.867 53.3223V59.748H57.2212V41.2752H59.867L59.8715 42.4505ZM59.8715 50.2435C59.8477 50.4803 59.8729 50.7194 59.9454 50.9461C60.0179 51.1728 60.1362 51.3823 60.293 51.5617C60.4223 51.6958 60.5777 51.8022 60.7496 51.8744C60.9216 51.9466 61.1065 51.9832 61.2931 51.9817C61.4675 51.99 61.6416 51.9589 61.8023 51.8908C61.963 51.8227 62.1062 51.7194 62.2214 51.5885C62.4715 51.2961 62.5956 50.9171 62.5667 50.5339V45.2254C62.5965 45.0149 62.5812 44.8005 62.5216 44.5964C62.4621 44.3922 62.3598 44.203 62.2214 44.0412C62.1065 43.9098 61.9634 43.8058 61.8027 43.737C61.642 43.6681 61.4678 43.6362 61.2931 43.6435C61.1042 43.6439 60.9176 43.6839 60.7453 43.7609C60.573 43.8379 60.4189 43.9502 60.293 44.0904C60.1365 44.2691 60.0184 44.4779 59.9459 44.7038C59.8734 44.9298 59.8481 45.1681 59.8715 45.4041V50.2435Z" fill="#231F20"/>
<path d="M70.2267 41.2734L72.3703 49.3837H72.4734L74.1147 41.2734H76.7561L73.1685 56.0954C72.9846 56.8595 72.747 58.1241 71.9532 58.8882C71.1595 59.6523 70.1325 59.7059 69.3119 59.7059H68.6123L68.5585 57.2572H69.0608C69.2978 57.2761 69.5359 57.2353 69.753 57.1385C69.9701 57.0417 70.1592 56.8919 70.3029 56.7031C70.5454 56.3179 70.7071 55.8877 70.7783 55.4385L71.2043 53.7271L67.3701 41.2734H70.2267Z" fill="#231F20"/>
<path d="M78.2895 44.9614C78.2578 43.9455 78.6172 42.9559 79.2941 42.1954C79.6973 41.8125 80.1742 41.515 80.696 41.3207C81.2177 41.1264 81.7736 41.0394 82.33 41.0649C83.3279 41.0378 84.2996 41.3855 85.0521 42.039C85.4192 42.3872 85.7082 42.8089 85.8999 43.2765C86.0915 43.744 86.1817 44.2467 86.1642 44.7514V45.1312C86.1784 45.7323 86.023 46.3252 85.7158 46.8427C85.4619 47.2302 85.1047 47.5396 84.6844 47.7363C85.1257 47.9073 85.5032 48.2101 85.7651 48.6032C86.1228 49.1606 86.2982 49.8147 86.2674 50.4755V50.8151C86.258 51.7878 85.8929 52.7236 85.2404 53.4471C84.4173 54.2109 83.3242 54.619 82.2 54.5821C81.1773 54.5835 80.1861 54.2296 79.3972 53.5811C79.0475 53.2425 78.7693 52.8375 78.5791 52.3901C78.3889 51.9427 78.2904 51.4619 78.2895 50.976V50.4755H80.8232V50.7347C80.8186 51.0333 80.9221 51.3236 81.1147 51.5524C81.4074 51.8387 81.8011 51.9991 82.2112 51.9991C82.6213 51.9991 83.015 51.8387 83.3076 51.5524C83.5327 51.2294 83.6446 50.8415 83.626 50.4487V50.2119C83.6382 50.0304 83.609 49.8485 83.5407 49.6798C83.4724 49.5111 83.3666 49.36 83.2314 49.2378C82.9465 49.0109 82.5916 48.8893 82.2269 48.8937H81.2986V46.6282H82.1462C82.3422 46.6357 82.5377 46.6023 82.72 46.5299C82.9023 46.4576 83.0673 46.348 83.2045 46.2081C83.421 45.9304 83.5322 45.5854 83.5184 45.234V45.1044C83.5153 44.7555 83.4058 44.4158 83.2045 44.1303C83.0878 43.985 82.9386 43.8689 82.7689 43.7913C82.5991 43.7137 82.4135 43.6768 82.2269 43.6834C82.0283 43.6754 81.8304 43.7113 81.6474 43.7886C81.4644 43.8658 81.3009 43.9825 81.1686 44.1303C81.0497 44.2613 80.9581 44.4144 80.8988 44.5808C80.8396 44.7472 80.8139 44.9236 80.8232 45.0999V45.2876H78.2895V44.9614Z" fill="#231F20"/>
<path d="M89.438 45.4883C89.438 44.4606 89.5187 43.0128 90.734 41.985C91.5041 41.3908 92.4506 41.0684 93.4247 41.0684C94.3987 41.0684 95.3452 41.3908 96.1153 41.985C97.3306 43.0128 97.4113 44.4606 97.4113 45.4883V50.1222C97.4113 51.1499 97.3306 52.5977 96.1153 53.6255C95.3452 54.2197 94.3987 54.5421 93.4247 54.5421C92.4506 54.5421 91.5041 54.2197 90.734 53.6255C89.5187 52.5977 89.438 51.1499 89.438 50.1222V45.4883ZM94.7745 45.3275C94.8062 44.8565 94.6661 44.3899 94.3799 44.0137C94.1212 43.7751 93.7817 43.6425 93.4291 43.6425C93.0766 43.6425 92.7371 43.7751 92.4784 44.0137C92.1922 44.3899 92.052 44.8565 92.0838 45.3275V50.2786C92.0458 50.7585 92.1863 51.2357 92.4784 51.6191C92.7385 51.8549 93.0775 51.9856 93.4291 51.9856C93.7808 51.9856 94.1198 51.8549 94.3799 51.6191C94.672 51.2357 94.8125 50.7585 94.7745 50.2786V45.3275Z" fill="#231F20"/>
<path d="M105.187 41.2756C106.142 41.243 107.072 41.5828 107.779 42.2229C108.329 42.8514 108.638 43.6543 108.649 44.4884V45.1319C108.687 45.83 108.461 46.5169 108.017 47.0578C107.735 47.3618 107.38 47.5881 106.985 47.7147C107.472 47.8693 107.897 48.1726 108.2 48.5816C108.584 49.1293 108.779 49.7863 108.756 50.4539V51.0571C108.764 51.5167 108.674 51.9727 108.491 52.3948C108.309 52.817 108.039 53.1957 107.698 53.5058C106.855 54.2699 105.824 54.3459 104.846 54.3459H100.81V41.2756H105.187ZM103.469 46.6378H104.635C104.832 46.6639 105.033 46.6389 105.217 46.5654C105.402 46.4918 105.564 46.3721 105.689 46.2177C105.922 45.9175 106.036 45.5418 106.008 45.1632V44.8995C106.026 44.5631 105.912 44.2327 105.689 43.979C105.548 43.8503 105.381 43.7531 105.199 43.6937C105.018 43.6344 104.825 43.6144 104.635 43.6349H103.469V46.6378ZM103.469 51.9553H104.689C104.9 51.973 105.112 51.9419 105.309 51.8644C105.506 51.7869 105.682 51.665 105.824 51.5084C106.038 51.2516 106.143 50.921 106.115 50.5879V50.1143C106.133 49.7616 106.019 49.4149 105.797 49.1401C105.652 48.9984 105.478 48.8894 105.286 48.8208C105.095 48.7522 104.892 48.7254 104.689 48.7424H103.469V51.9553Z" fill="#231F20"/>
<path d="M117.371 53.0436H117.317C117.073 53.4218 116.77 53.7595 116.421 54.0446C115.989 54.392 115.445 54.57 114.891 54.545C114.159 54.5787 113.441 54.3344 112.882 53.8614C112.062 53.0973 111.932 51.9131 111.932 50.8585C111.932 49.9112 111.985 48.4858 112.752 47.5921C113.622 46.5643 115.102 46.4616 115.891 46.4616C116.075 46.4616 116.578 46.4616 117.398 46.5375V45.1702C117.417 44.9729 117.397 44.7739 117.338 44.5845C117.28 44.3951 117.184 44.219 117.057 44.0665C116.921 43.9225 116.756 43.8085 116.573 43.7315C116.39 43.6546 116.193 43.6165 115.995 43.6196C115.795 43.6155 115.596 43.6559 115.414 43.7379C115.232 43.8198 115.07 43.9412 114.941 44.0933C114.738 44.331 114.617 44.6269 114.595 44.9378H112.084C112.057 43.8919 112.448 42.878 113.169 42.1182C113.979 41.3919 115.04 41.006 116.129 41.0413C117.173 41.0129 118.186 41.3912 118.954 42.0958C119.333 42.5104 119.624 42.9965 119.811 43.5254C119.997 44.0543 120.075 44.6152 120.04 45.1746V54.3082H117.398L117.371 53.0436ZM117.371 48.6466C117.065 48.5944 116.754 48.5675 116.443 48.5662C116.171 48.5438 115.898 48.5818 115.643 48.6777C115.387 48.7735 115.157 48.9247 114.968 49.1203C114.676 49.5143 114.534 49.9991 114.568 50.4877C114.552 50.8658 114.644 51.2409 114.833 51.569C114.937 51.7568 115.09 51.9124 115.277 52.0188C115.464 52.1252 115.676 52.1783 115.891 52.1723C116.685 52.1723 117.371 51.6495 117.371 50.4877V48.6466Z" fill="#231F20"/>
<path d="M128.703 54.3304V48.9682H127.537L125.744 54.3304H122.874L125.017 48.566C124.617 48.3627 124.265 48.0763 123.986 47.7259C123.595 47.1117 123.393 46.3975 123.403 45.6704V44.5667C123.395 44.1071 123.485 43.6512 123.668 43.229C123.85 42.8068 124.121 42.4281 124.461 42.118C125.304 41.3539 126.336 41.2734 127.313 41.2734H131.349V54.3304H128.703ZM128.703 43.3781H127.493C127.301 43.3677 127.109 43.3991 126.931 43.4701C126.753 43.5411 126.593 43.65 126.461 43.7892C126.315 43.9364 126.203 44.1142 126.134 44.3097C126.065 44.5052 126.04 44.7136 126.062 44.9197V45.5006C126.045 45.8532 126.158 46.1998 126.38 46.4748C126.527 46.6154 126.702 46.7231 126.894 46.791C127.086 46.8588 127.29 46.885 127.493 46.868H128.703V43.3781Z" fill="#231F20"/>
<path d="M137.354 75.7879V70.4258H136.193L134.399 75.7879H131.542L133.682 70.0191C133.282 69.8167 132.932 69.5301 132.655 69.1791C132.264 68.5648 132.062 67.8506 132.072 67.1235V66.0198C132.064 65.5603 132.154 65.1043 132.337 64.6821C132.519 64.26 132.79 63.8813 133.13 63.5711C133.973 62.807 135.004 62.7266 135.982 62.7266H140.018V75.7879H137.354ZM137.354 64.8357H136.139C135.949 64.8248 135.759 64.8542 135.581 64.922C135.403 64.9898 135.242 65.0944 135.108 65.2289C134.963 65.377 134.852 65.5551 134.784 65.7504C134.716 65.9458 134.692 66.1537 134.713 66.3594V66.9403C134.696 67.293 134.809 67.6397 135.031 67.9145C135.177 68.0557 135.351 68.1639 135.542 68.2318C135.733 68.2997 135.937 68.3256 136.139 68.3077H137.354V64.8357Z" fill="#231F20"/>
<path d="M51.8356 67.9956C52.0652 68.0323 52.3006 67.9898 52.5028 67.8753C52.705 67.7607 52.8619 67.5809 52.9477 67.3655C53.1274 66.9629 53.2424 66.5347 53.2885 66.0965L53.45 65.1536C53.519 64.5518 53.7261 63.9738 54.0554 63.4645C54.6115 62.7004 55.4814 62.5977 56.329 62.5977H56.9523V64.8319H56.6026C56.4771 64.8288 56.3523 64.8506 56.2353 64.8958C56.1183 64.9411 56.0114 65.0089 55.9209 65.0955C55.7455 65.3622 55.6449 65.6708 55.6294 65.9892L55.4949 66.9634C55.4707 67.4665 55.3724 67.9633 55.2034 68.438C55.0911 68.7025 54.9081 68.9313 54.6742 69.0993L57.0555 75.802H54.3648L52.4679 70.2075H50.9925V75.7886H48.3467V62.7272H50.9925V67.9956H51.8356Z" fill="#231F20"/>
<path d="M59.5537 66.9395C59.5537 65.9118 59.6344 64.464 60.8452 63.4362C61.6154 62.842 62.5618 62.5195 63.5359 62.5195C64.51 62.5195 65.4564 62.842 66.2266 63.4362C67.4463 64.464 67.5226 65.9118 67.5226 66.9395V71.5733C67.5226 72.6011 67.4463 74.0489 66.2266 75.0766C65.4564 75.6709 64.51 75.9933 63.5359 75.9933C62.5618 75.9933 61.6154 75.6709 60.8452 75.0766C59.6344 74.0489 59.5537 72.6011 59.5537 71.5733V66.9395ZM64.8902 66.7831C64.9282 66.3032 64.7878 65.826 64.4956 65.4426C64.2348 65.2064 63.895 65.0756 63.5426 65.0756C63.1902 65.0756 62.8505 65.2064 62.5897 65.4426C62.2975 65.826 62.157 66.3032 62.1951 66.7831V71.7342C62.1633 72.2052 62.3034 72.6718 62.5897 73.0479C62.8495 73.286 63.1897 73.4181 63.5426 73.4181C63.8956 73.4181 64.2357 73.286 64.4956 73.0479C64.7818 72.6718 64.922 72.2052 64.8902 71.7342V66.7831Z" fill="#231F20"/>
<path d="M76.1725 70.0236H76.2353L79.0381 62.7266H81.4687V75.7879H78.9843V68.3658L76.7421 73.9201H75.6299L73.3877 68.3658V75.7924H70.9033V62.7266H73.3339L76.1725 70.0236Z" fill="#231F20"/>
<path d="M85.106 62.7266H92.9268V75.7879H90.2855V65.0993H87.7473V75.7879H85.106V62.7266Z" fill="#231F20"/>
<path d="M101.797 74.498H101.743C101.499 74.8764 101.196 75.2141 100.846 75.4989C100.413 75.8459 99.868 76.0238 99.3128 75.9994C98.5803 76.0339 97.862 75.7895 97.3037 75.3157C96.4876 74.5516 96.353 73.3674 96.353 72.3129C96.353 71.3655 96.4068 69.9446 97.1737 69.0464C98.0437 68.0231 99.5235 67.9159 100.29 67.9159C100.794 67.9168 101.297 67.9437 101.797 67.9963V66.629C101.817 66.4299 101.797 66.2288 101.738 66.0377C101.679 65.8465 101.581 65.6692 101.452 65.5163C101.314 65.3787 101.15 65.2708 100.968 65.1993C100.787 65.1278 100.593 65.0943 100.398 65.1007C100.197 65.096 99.9981 65.1361 99.815 65.218C99.6318 65.3 99.4694 65.4218 99.3397 65.5744C99.1374 65.8105 99.0164 66.1049 98.9944 66.4145H96.4876C96.4731 65.8975 96.561 65.3827 96.7465 64.8996C96.932 64.4165 97.2112 63.9747 97.5683 63.5993C98.3783 62.8695 99.4411 62.4818 100.533 62.5179C101.576 62.4895 102.59 62.8679 103.358 63.5725C103.736 63.9874 104.026 64.4737 104.212 65.0026C104.397 65.5315 104.474 66.0921 104.438 66.6513V75.7893H101.797V74.498ZM101.797 70.101C101.492 70.0501 101.183 70.0247 100.873 70.025C100.601 70.0016 100.327 70.0388 100.071 70.1339C99.8154 70.2289 99.5839 70.3795 99.3935 70.5746C99.1016 70.9704 98.9602 71.4565 98.9944 71.9464C98.9783 72.3231 99.0701 72.6966 99.2589 73.0234C99.3617 73.2123 99.515 73.3691 99.7019 73.4764C99.8887 73.5836 100.102 73.6372 100.317 73.6311C101.111 73.6311 101.797 73.1038 101.797 71.9464V70.101Z" fill="#231F20"/>
<path d="M108.075 62.7266H110.721V67.9949H113.412V62.7266H116.053V75.7879H113.412V70.3632H110.721V75.7879H108.075V62.7266Z" fill="#231F20"/>
<path d="M122.336 62.7266V70.0236L125.587 64.3442V62.7355H128.228V75.7969H125.587V68.4954L122.336 74.1748V75.779H119.694V62.7266H122.336Z" fill="#231F20"/>
<path d="M52.2123 41.2734C51.2795 41.2734 50.1853 41.3807 49.3602 42.0956C48.4274 42.9223 48.3467 44.035 48.3467 44.9376V54.3214H50.9925V45.3844C50.984 44.9875 51.1248 44.6018 51.3871 44.3031C51.5465 44.1368 51.7425 44.0099 51.9597 43.9323C52.1769 43.8547 52.4092 43.8287 52.6383 43.8562H54.9298V41.2734H52.2123Z" fill="#231F20"/>
<path d="M6.96435 41.269H0C0.865722 50.7031 5.23831 59.4742 12.2598 65.8614C19.2812 72.2486 28.4446 75.7906 37.9519 75.7925H41.4184V68.8887H37.9519C30.2818 68.8887 22.8808 66.0716 17.1641 60.9762C11.4473 55.8808 7.81597 48.8645 6.96435 41.269ZM34.4899 6.9376V-0.00195312C25.6162 0.806258 17.307 4.68668 11.0062 10.9651C4.70538 17.2435 0.811098 25.523 0 34.3652H6.96435C7.75133 27.3608 10.9043 20.831 15.9059 15.8473C20.9074 10.8635 27.4605 7.72178 34.4899 6.9376ZM41.4184 -0.00195312V6.9376C48.4477 7.72178 55.0009 10.8635 60.0024 15.8473C65.004 20.831 68.157 27.3608 68.9439 34.3652H75.9083C75.0972 25.523 71.2029 17.2435 64.9021 10.9651C58.6012 4.68668 50.2921 0.806258 41.4184 -0.00195312Z" fill="#98002E"/>
<path d="M34.3151 13.8223L29.4136 18.7063C31.0247 20.307 32.3026 22.2091 33.1738 24.3033C34.045 26.3976 34.4923 28.6427 34.49 30.9097V61.9836H41.4184V30.9097C41.4204 27.736 40.7939 24.5931 39.575 21.6609C38.3561 18.7288 36.5687 16.065 34.3151 13.8223Z" fill="#98002E"/>
</g>
<defs>
<clipPath id="clip0_188_3951">
<rect width="140" height="76" fill="white"/>
</clipPath>
</defs>
</svg>
