<svg width="140" height="36" viewBox="0 0 140 36" fill="none" xmlns="http://www.w3.org/2000/svg">
<path d="M138.231 18.7402H123.258V18.2298C123.761 18.1974 124.166 18.1407 124.474 18.0597C124.798 17.9787 125.041 17.849 125.203 17.6708C125.381 17.4925 125.503 17.2495 125.567 16.9416C125.632 16.6338 125.665 16.2368 125.665 15.7507V3.40343C125.665 2.91732 125.632 2.52033 125.567 2.21246C125.519 1.90459 125.405 1.66153 125.227 1.48329C125.049 1.30505 124.798 1.17542 124.474 1.0944C124.166 1.01338 123.761 0.95667 123.258 0.924262V0.365234H137.987L138.036 4.35135H137.38C137.25 3.7194 137.104 3.21709 136.942 2.8444C136.78 2.45551 136.545 2.15574 136.237 1.9451C135.946 1.73445 135.549 1.59672 135.046 1.5319C134.56 1.46709 133.928 1.43468 133.151 1.43468H129.408C129.035 1.43468 128.784 1.49139 128.654 1.60482C128.541 1.71824 128.484 1.9775 128.484 2.3826V8.5319H132.737C133.305 8.5319 133.766 8.49949 134.123 8.43468C134.479 8.36986 134.763 8.24834 134.974 8.0701C135.2 7.87565 135.371 7.60829 135.484 7.26801C135.597 6.92773 135.703 6.47403 135.8 5.9069H136.456V12.3479H135.8C135.703 11.7645 135.597 11.3027 135.484 10.9625C135.371 10.606 135.209 10.3386 134.998 10.1604C134.787 9.96593 134.504 9.8363 134.147 9.77149C133.791 9.70667 133.321 9.67426 132.737 9.67426H128.484V16.5284C128.484 16.8039 128.5 17.0064 128.533 17.1361C128.565 17.2657 128.622 17.3629 128.703 17.4277C128.832 17.5088 129.14 17.5817 129.626 17.6465C130.129 17.6951 130.72 17.7194 131.401 17.7194H132.178C133.167 17.7194 133.993 17.6708 134.658 17.5736C135.338 17.4763 135.913 17.29 136.383 17.0145C136.869 16.7391 137.291 16.3664 137.647 15.8965C138.004 15.4266 138.352 14.8108 138.692 14.0493H139.494L138.231 18.7402Z" fill="#212529"/>
<path d="M114.62 8.79926V3.40343C114.62 2.90111 114.588 2.50412 114.523 2.21246C114.474 1.90459 114.361 1.66153 114.182 1.48329C114.02 1.30505 113.777 1.18352 113.453 1.11871C113.129 1.03769 112.7 0.972873 112.165 0.924262V0.365234H119.87V0.924262C119.335 0.972873 118.906 1.03769 118.582 1.11871C118.258 1.18352 118.007 1.30505 117.828 1.48329C117.666 1.66153 117.561 1.90459 117.512 2.21246C117.464 2.50412 117.439 2.90111 117.439 3.40343V15.7507C117.439 16.2368 117.464 16.6338 117.512 16.9416C117.577 17.2333 117.699 17.4682 117.877 17.6465C118.055 17.8247 118.298 17.9544 118.606 18.0354C118.93 18.1164 119.351 18.1812 119.87 18.2298V18.7402H112.165V18.2298C112.7 18.1974 113.129 18.1488 113.453 18.084C113.777 18.003 114.02 17.8652 114.182 17.6708C114.361 17.4601 114.474 17.1766 114.523 16.8201C114.588 16.4636 114.62 15.9937 114.62 15.4104V10.0145H106.186V15.7507C106.186 16.2368 106.21 16.6338 106.259 16.9416C106.324 17.2333 106.445 17.4682 106.623 17.6465C106.802 17.8247 107.053 17.9544 107.377 18.0354C107.701 18.1164 108.122 18.1812 108.641 18.2298V18.7402H100.912V18.2298C101.463 18.1974 101.9 18.1488 102.224 18.084C102.548 18.003 102.791 17.8652 102.953 17.6708C103.132 17.4601 103.245 17.1766 103.294 16.8201C103.342 16.4636 103.366 15.9937 103.366 15.4104V3.40343C103.366 2.90111 103.334 2.50412 103.269 2.21246C103.221 1.90459 103.107 1.66153 102.929 1.48329C102.767 1.30505 102.524 1.18352 102.2 1.11871C101.876 1.03769 101.446 0.972873 100.912 0.924262V0.365234H108.641V0.924262C108.106 0.972873 107.677 1.03769 107.353 1.11871C107.029 1.18352 106.777 1.30505 106.599 1.48329C106.437 1.66153 106.324 1.90459 106.259 2.21246C106.21 2.50412 106.186 2.90111 106.186 3.40343V8.79926H114.62Z" fill="#212529"/>
<path d="M95.9919 6.24653C95.8622 5.79283 95.7326 5.40394 95.603 5.07986C95.4733 4.73958 95.3356 4.43982 95.1898 4.18056C95.0601 3.90509 94.9062 3.66204 94.728 3.45139C94.5659 3.24074 94.3715 3.02199 94.1446 2.79514C93.5937 2.22801 92.9618 1.80671 92.2488 1.53125C91.552 1.23958 90.8067 1.09375 90.0127 1.09375C89.0081 1.09375 88.0926 1.28819 87.2662 1.67708C86.456 2.06597 85.7592 2.625 85.1759 3.35417C84.6088 4.06713 84.1713 4.93403 83.8634 5.95486C83.5555 6.9757 83.4016 8.10995 83.4016 9.35764C83.4016 10.978 83.6203 12.3958 84.0578 13.6111C84.4953 14.8264 85.1192 15.7743 85.9294 16.4549C87.1446 17.4271 88.5949 17.9132 90.2801 17.9132C91.4305 17.9132 92.4919 17.6944 93.4641 17.2569C94.4363 16.8194 95.4409 16.1065 96.478 15.1181L96.9641 15.6042C96.1215 16.7222 95.0439 17.5891 93.7314 18.2049C92.4351 18.8206 90.993 19.1285 89.4051 19.1285C88.0277 19.1285 86.772 18.9016 85.6377 18.4479C84.5034 17.9942 83.5312 17.3623 82.721 16.5521C81.9108 15.7257 81.2789 14.7373 80.8252 13.5868C80.3877 12.4363 80.1689 11.1563 80.1689 9.74653C80.1689 8.14236 80.4444 6.70023 80.9953 5.42014C81.5463 4.12384 82.3564 3.03819 83.4259 2.16319C84.2685 1.48264 85.2164 0.956019 86.2696 0.583333C87.3229 0.194444 88.3842 0 89.4537 0C90.831 0 92.1921 0.226852 93.537 0.680556C93.9907 0.842593 94.3553 0.923611 94.6308 0.923611C94.9062 0.923611 95.1412 0.842593 95.3356 0.680556C95.5463 0.518519 95.6921 0.291667 95.7731 0H96.3564L96.6238 6.24653H95.9919Z" fill="#212529"/>
<path d="M74.496 5.90625H73.8154C73.702 5.50116 73.5886 5.14468 73.4752 4.83681C73.3779 4.52894 73.2564 4.25347 73.1106 4.01042C72.9809 3.75116 72.8351 3.52431 72.6731 3.32986C72.511 3.11921 72.3247 2.90046 72.114 2.67361C71.1418 1.65278 70.0076 1.14236 68.7113 1.14236C67.8525 1.14236 67.1557 1.36921 66.621 1.82292C66.1025 2.27662 65.8432 2.89236 65.8432 3.67014C65.8432 4.43171 66.1592 5.14468 66.7911 5.80903C67.4231 6.47338 68.4601 7.20255 69.9022 7.99653C71.7495 9.00116 73.0782 9.98148 73.8883 10.9375C74.7147 11.8935 75.1279 12.9387 75.1279 14.0729C75.1279 14.7859 74.9821 15.4502 74.6904 16.066C74.3988 16.6817 74.0018 17.2164 73.4995 17.6701C72.9971 18.1238 72.3976 18.4803 71.7008 18.7396C71.0041 18.9988 70.2587 19.1285 69.4647 19.1285C68.8976 19.1285 68.3386 19.0799 67.7877 18.9826C67.2367 18.8854 66.702 18.7234 66.1835 18.4965C65.908 18.3993 65.6569 18.3264 65.43 18.2778C65.2032 18.213 65.0168 18.1806 64.871 18.1806C64.6603 18.1806 64.4821 18.2697 64.3363 18.4479C64.1904 18.6262 64.1094 18.8449 64.0932 19.1042H63.4856L62.6592 13.2222H63.2911C63.9879 14.9236 64.7819 16.1713 65.6731 16.9653C66.5643 17.7431 67.6418 18.1319 68.9057 18.1319C69.9265 18.1319 70.7448 17.8484 71.3606 17.2813C71.9925 16.7141 72.3085 15.9688 72.3085 15.0451C72.3085 14.6887 72.268 14.3727 72.187 14.0972C72.1221 13.8218 72.0249 13.5868 71.8953 13.3924C71.5712 12.8738 71.0527 12.3391 70.3397 11.7882C69.643 11.2373 68.8004 10.6863 67.812 10.1354C67.0342 9.73033 66.3698 9.32523 65.8189 8.92014C65.268 8.51505 64.8143 8.09375 64.4578 7.65625C64.1175 7.21875 63.8664 6.76505 63.7043 6.29514C63.5423 5.82523 63.4613 5.31482 63.4613 4.76389C63.4613 3.22454 63.996 2.02546 65.0654 1.16667C65.5191 0.793982 66.0214 0.510417 66.5724 0.315972C67.1233 0.105324 67.6661 0 68.2008 0C68.687 0 69.1731 0.056713 69.6592 0.170139C70.1615 0.267361 70.6719 0.413195 71.1904 0.607639C71.4497 0.721065 71.6846 0.802083 71.8953 0.850695C72.1059 0.899306 72.2842 0.923611 72.43 0.923611C72.8837 0.923611 73.1754 0.615741 73.305 0H73.8883L74.496 5.90625Z" fill="#212529"/>
<path d="M58.7847 18.7402H54.3125L47.7014 10.1847L46.1701 10.2576V15.7507C46.1701 16.2368 46.1944 16.6338 46.2431 16.9416C46.3079 17.2495 46.4294 17.5007 46.6076 17.6951C46.7859 17.8733 47.037 18.003 47.3611 18.084C47.6852 18.1488 48.1146 18.1974 48.6493 18.2298V18.7402H40.9688V18.2298C41.4873 18.1812 41.9005 18.1164 42.2083 18.0354C42.5324 17.9544 42.7755 17.8166 42.9375 17.6222C43.0995 17.4277 43.2049 17.1604 43.2535 16.8201C43.3021 16.4636 43.3264 15.9937 43.3264 15.4104V3.40343C43.3264 2.91732 43.3021 2.52843 43.2535 2.23676C43.2049 1.92889 43.0995 1.68584 42.9375 1.5076C42.7755 1.32935 42.5324 1.19973 42.2083 1.11871C41.9005 1.03769 41.4873 0.972873 40.9688 0.924262V0.365234H48.625C49.9861 0.365234 51.2014 0.551577 52.2708 0.924262C53.3565 1.28074 54.1586 1.76685 54.6771 2.3826C55.0174 2.75528 55.2685 3.19278 55.4306 3.6951C55.5926 4.18121 55.6736 4.70783 55.6736 5.27496C55.6736 6.53885 55.2766 7.53537 54.4826 8.26454C53.7049 8.99371 52.4329 9.53653 50.6667 9.89301L56.3785 16.9416C56.7674 17.3953 57.1319 17.7113 57.4722 17.8895C57.8287 18.0678 58.2662 18.1812 58.7847 18.2298V18.7402ZM46.1701 9.23676C46.8183 9.22056 47.3773 9.19625 47.8472 9.16385C48.3333 9.13144 48.7546 9.08283 49.1111 9.01801C49.4838 8.93699 49.8241 8.83977 50.1319 8.72635C50.4398 8.61292 50.7558 8.46709 51.0799 8.28885C51.5822 8.01338 51.9711 7.60829 52.2465 7.07357C52.522 6.52264 52.6597 5.8988 52.6597 5.20204C52.6597 3.88954 52.2465 2.93352 51.4201 2.33398C50.61 1.71824 49.3137 1.41037 47.5313 1.41037C46.9803 1.41037 46.6157 1.48329 46.4375 1.62912C46.2593 1.75875 46.1701 2.01801 46.1701 2.4069V9.23676Z" fill="#212529"/>
<path d="M28.1503 0C29.4628 0 30.7105 0.275463 31.8933 0.826389C33.0924 1.37732 34.1051 2.13889 34.9315 3.11111C35.6121 3.9375 36.1387 4.90162 36.5114 6.00347C36.8841 7.10533 37.0704 8.2882 37.0704 9.55208C37.0704 10.9618 36.8436 12.2581 36.3899 13.441C35.9524 14.6076 35.3285 15.6123 34.5183 16.4549C33.7244 17.2975 32.7683 17.9537 31.6503 18.4236C30.5484 18.8935 29.3332 19.1285 28.0044 19.1285C26.6595 19.1285 25.4281 18.8935 24.31 18.4236C23.1919 17.9537 22.2359 17.2975 21.4419 16.4549C20.648 15.5961 20.0322 14.5752 19.5947 13.3924C19.1572 12.2095 18.9385 10.9051 18.9385 9.47917C18.9385 8.08565 19.1653 6.80556 19.619 5.63889C20.0727 4.47222 20.7047 3.4757 21.5149 2.64931C22.3251 1.80671 23.2892 1.15857 24.4072 0.704861C25.5415 0.234954 26.7892 0 28.1503 0ZM27.9072 0.972222C27.1457 0.972222 26.4165 1.15046 25.7197 1.50694C25.023 1.84722 24.4153 2.32523 23.8968 2.94097C23.6213 3.26505 23.3702 3.67014 23.1433 4.15625C22.9327 4.64236 22.7463 5.17708 22.5843 5.76042C22.4223 6.32755 22.3007 6.93519 22.2197 7.58333C22.1387 8.23148 22.0982 8.87963 22.0982 9.52778C22.0982 11.1968 22.3169 12.6794 22.7544 13.9757C23.1919 15.272 23.7996 16.2442 24.5774 16.8924C25.5496 17.7188 26.7001 18.1319 28.0288 18.1319C28.7255 18.1319 29.3818 18.0023 29.9975 17.7431C30.6294 17.4838 31.1804 17.1192 31.6503 16.6493C33.1572 15.1748 33.9107 12.7604 33.9107 9.40625C33.9107 7.80208 33.6838 6.37616 33.2301 5.12847C32.7926 3.88079 32.1769 2.91667 31.3829 2.23611C30.3621 1.39352 29.2035 0.972222 27.9072 0.972222Z" fill="#212529"/>
<path d="M5.68245 15.7507C5.68245 16.253 5.71486 16.6662 5.77968 16.9902C5.84449 17.2981 5.96602 17.5412 6.14426 17.7194C6.3387 17.8976 6.60607 18.0273 6.94634 18.1083C7.28662 18.1731 7.73222 18.2136 8.28315 18.2298V18.7402H0.505371V18.2298C1.04009 18.1812 1.45329 18.1164 1.74495 18.0354C2.05282 17.9544 2.28778 17.8166 2.44982 17.6222C2.61185 17.4277 2.70907 17.1604 2.74148 16.8201C2.79009 16.4636 2.8144 15.9937 2.8144 15.4104V3.40343C2.8144 2.90111 2.79009 2.50412 2.74148 2.21246C2.69287 1.90459 2.58755 1.66963 2.42551 1.5076C2.26347 1.32935 2.02852 1.19973 1.72065 1.11871C1.41278 1.03769 1.00769 0.972873 0.505371 0.924262V0.365234H7.82134C9.19866 0.365234 10.4382 0.559679 11.5401 0.948568C12.6581 1.33746 13.5007 1.84787 14.0679 2.47982C14.7646 3.30621 15.113 4.27843 15.113 5.39648C15.113 6.3201 14.87 7.17889 14.3838 7.97287C13.9139 8.75065 13.2658 9.36639 12.4394 9.8201C11.8399 10.1442 11.1512 10.3791 10.3734 10.525C9.61185 10.6708 8.68014 10.7437 7.57829 10.7437C7.22181 10.7437 6.90583 10.7437 6.63037 10.7437C6.37111 10.7275 6.05514 10.7113 5.68245 10.6951V15.7507ZM5.68245 9.55274C6.00653 9.58514 6.27389 9.60945 6.48454 9.62565C6.71139 9.64186 6.96255 9.64996 7.23801 9.64996C10.4625 9.64996 12.0748 8.28885 12.0748 5.56662C12.0748 4.12449 11.6292 3.07125 10.738 2.4069C9.86301 1.74255 8.47759 1.41037 6.58176 1.41037C6.20907 1.41037 5.96602 1.47519 5.85259 1.60482C5.73917 1.71824 5.68245 1.9694 5.68245 2.35829V9.55274Z" fill="#212529"/>
<path fill-rule="evenodd" clip-rule="evenodd" d="M140 23.02H0V22.2422H140V23.02Z" fill="#212529"/>
<path d="M104.068 35.4785H96.5815V35.2233C96.8327 35.2071 97.0352 35.1787 97.1892 35.1382C97.3512 35.0977 97.4727 35.0329 97.5538 34.9438C97.6429 34.8547 97.7036 34.7331 97.7361 34.5792C97.7685 34.4253 97.7847 34.2268 97.7847 33.9837V27.8101C97.7847 27.5671 97.7685 27.3686 97.7361 27.2146C97.7118 27.0607 97.655 26.9392 97.5659 26.85C97.4768 26.7609 97.3512 26.6961 97.1892 26.6556C97.0352 26.6151 96.8327 26.5867 96.5815 26.5705V26.291H103.946L103.97 28.2841H103.642C103.577 27.9681 103.505 27.7169 103.424 27.5306C103.343 27.3362 103.225 27.1863 103.071 27.0809C102.925 26.9756 102.727 26.9068 102.476 26.8743C102.233 26.8419 101.917 26.8257 101.528 26.8257H99.6562C99.4699 26.8257 99.3443 26.8541 99.2795 26.9108C99.2227 26.9675 99.1944 27.0971 99.1944 27.2997V30.3743H101.321C101.605 30.3743 101.836 30.3581 102.014 30.3257C102.192 30.2933 102.334 30.2326 102.439 30.1434C102.553 30.0462 102.638 29.9125 102.694 29.7424C102.751 29.5723 102.804 29.3454 102.852 29.0618H103.181V32.2823H102.852C102.804 31.9907 102.751 31.7598 102.694 31.5896C102.638 31.4114 102.557 31.2777 102.451 31.1886C102.346 31.0914 102.204 31.0265 102.026 30.9941C101.848 30.9617 101.613 30.9455 101.321 30.9455H99.1944V34.3726C99.1944 34.5103 99.2025 34.6116 99.2187 34.6764C99.2349 34.7412 99.2633 34.7899 99.3038 34.8223C99.3686 34.8628 99.5225 34.8992 99.7656 34.9316C100.017 34.9559 100.312 34.9681 100.653 34.9681H101.042C101.536 34.9681 101.949 34.9438 102.281 34.8952C102.621 34.8466 102.909 34.7534 103.144 34.6157C103.387 34.4779 103.598 34.2916 103.776 34.0566C103.954 33.8217 104.128 33.5138 104.299 33.133H104.7L104.068 35.4785Z" fill="#212529"/>
<path d="M93.4048 35.6365L87.2677 28.0046V33.4369C87.2677 33.7933 87.2839 34.085 87.3163 34.3119C87.3568 34.5306 87.4257 34.7048 87.5229 34.8344C87.6201 34.964 87.7538 35.0572 87.9239 35.1139C88.0941 35.1706 88.3128 35.2071 88.5802 35.2233V35.4785H85.3232V35.2233C85.6068 35.199 85.8337 35.1625 86.0038 35.1139C86.182 35.0572 86.3157 34.964 86.4048 34.8344C86.5021 34.7048 86.5669 34.5306 86.5993 34.3119C86.6317 34.085 86.6479 33.7933 86.6479 33.4369V27.3362C86.5102 27.1741 86.3927 27.0445 86.2955 26.9473C86.1982 26.8419 86.101 26.765 86.0038 26.7164C85.9066 26.6596 85.8053 26.6232 85.7 26.607C85.5947 26.5827 85.4691 26.5705 85.3232 26.5705V26.291H87.693L93.0281 33.0115V28.3327C93.0281 27.4901 92.8944 26.9716 92.6271 26.7771C92.5217 26.7123 92.4043 26.6678 92.2746 26.6434C92.1531 26.611 91.9627 26.5867 91.7035 26.5705V26.291H94.9482V26.5705C94.689 26.5867 94.4945 26.6151 94.3649 26.6556C94.2434 26.6961 94.1381 26.7488 94.0489 26.8136C93.7735 26.9918 93.6357 27.4982 93.6357 28.3327V35.6365H93.4048Z" fill="#212529"/>
<path d="M80.87 27.8101C80.87 27.5509 80.8538 27.3443 80.8213 27.1903C80.797 27.0364 80.7363 26.9149 80.6391 26.8257C80.5418 26.7366 80.4041 26.6759 80.2259 26.6434C80.0476 26.611 79.8127 26.5867 79.521 26.5705V26.291H83.6408V26.5705C83.3491 26.5786 83.1142 26.6029 82.9359 26.6434C82.7577 26.6759 82.62 26.7366 82.5227 26.8257C82.4255 26.9149 82.3607 27.0404 82.3283 27.2025C82.2959 27.3564 82.2797 27.559 82.2797 27.8101V33.9837C82.2797 34.2349 82.2959 34.4415 82.3283 34.6035C82.3688 34.7575 82.4377 34.879 82.5349 34.9681C82.6321 35.0572 82.7698 35.122 82.9481 35.1625C83.1263 35.195 83.3572 35.2152 83.6408 35.2233V35.4785H79.521V35.2233C79.8127 35.2152 80.0476 35.195 80.2259 35.1625C80.4041 35.122 80.5378 35.0572 80.6269 34.9681C80.7241 34.879 80.7889 34.7575 80.8213 34.6035C80.8538 34.4496 80.87 34.243 80.87 33.9837V27.8101Z" fill="#212529"/>
<path d="M77.9366 35.4783H74.4002V35.2231C74.5217 35.2231 74.623 35.2231 74.704 35.2231C74.785 35.215 74.8498 35.2069 74.8984 35.1988C74.9552 35.1826 75.0038 35.1704 75.0443 35.1623C75.0848 35.1461 75.1253 35.1259 75.1658 35.1016C75.2306 35.0611 75.2792 35.0124 75.3116 34.9557C75.3521 34.8909 75.3724 34.8261 75.3724 34.7613C75.3724 34.5344 75.2833 34.2185 75.105 33.8134L74.5217 32.4887H70.9002L70.2561 34.105C70.2237 34.1942 70.1953 34.2873 70.171 34.3846C70.1548 34.4737 70.1467 34.5628 70.1467 34.6519C70.1467 34.8383 70.2196 34.98 70.3655 35.0773C70.5113 35.1745 70.7543 35.2231 71.0946 35.2231V35.4783H68.3359V35.2231C68.5061 35.215 68.6519 35.1866 68.7734 35.138C68.895 35.0894 69.0165 34.9881 69.138 34.8342C69.2595 34.6722 69.3892 34.4453 69.5269 34.1536C69.6727 33.8539 69.855 33.4488 70.0738 32.9384L72.954 26.1328H73.2214L76.6849 34.0078C76.7983 34.2671 76.8955 34.4737 76.9766 34.6276C77.0657 34.7815 77.1548 34.9031 77.2439 34.9922C77.333 35.0732 77.4303 35.1299 77.5356 35.1623C77.649 35.1947 77.7827 35.215 77.9366 35.2231V35.4783ZM74.3394 31.9297L72.7352 28.1016L71.1311 31.9297H74.3394Z" fill="#212529"/>
<path d="M66.763 35.4785H64.5269L61.2213 31.2007L60.4557 31.2372V33.9837C60.4557 34.2268 60.4678 34.4253 60.4921 34.5792C60.5245 34.7331 60.5853 34.8587 60.6744 34.9559C60.7635 35.0451 60.8891 35.1099 61.0512 35.1504C61.2132 35.1828 61.4279 35.2071 61.6953 35.2233V35.4785H57.855V35.2233C58.1142 35.199 58.3208 35.1666 58.4748 35.1261C58.6368 35.0856 58.7583 35.0167 58.8394 34.9195C58.9204 34.8223 58.973 34.6886 58.9973 34.5184C59.0216 34.3402 59.0338 34.1053 59.0338 33.8136V27.8101C59.0338 27.5671 59.0216 27.3726 58.9973 27.2268C58.973 27.0728 58.9204 26.9513 58.8394 26.8622C58.7583 26.7731 58.6368 26.7083 58.4748 26.6678C58.3208 26.6272 58.1142 26.5948 57.855 26.5705V26.291H61.6831C62.3637 26.291 62.9713 26.3842 63.506 26.5705C64.0488 26.7488 64.4499 26.9918 64.7091 27.2997C64.8793 27.486 65.0049 27.7048 65.0859 27.9559C65.1669 28.199 65.2074 28.4623 65.2074 28.7459C65.2074 29.3778 65.0089 29.8761 64.6119 30.2407C64.223 30.6053 63.587 30.8767 62.7039 31.0549L65.5598 34.5792C65.7543 34.8061 65.9366 34.964 66.1067 35.0532C66.285 35.1423 66.5037 35.199 66.763 35.2233V35.4785ZM60.4557 30.7268C60.7797 30.7187 61.0593 30.7065 61.2942 30.6903C61.5373 30.6741 61.7479 30.6498 61.9262 30.6174C62.1125 30.5769 62.2826 30.5283 62.4366 30.4716C62.5905 30.4149 62.7485 30.3419 62.9105 30.2528C63.1617 30.1151 63.3561 29.9125 63.4939 29.6452C63.6316 29.3697 63.7005 29.0578 63.7005 28.7094C63.7005 28.0532 63.4939 27.5752 63.0807 27.2754C62.6756 26.9675 62.0274 26.8136 61.1362 26.8136C60.8608 26.8136 60.6785 26.85 60.5894 26.923C60.5002 26.9878 60.4557 27.1174 60.4557 27.3118V30.7268Z" fill="#212529"/>
<path d="M52.0903 26.291H55.724V26.5705C55.4891 26.5867 55.2906 26.611 55.1285 26.6434C54.9665 26.6678 54.8126 26.7164 54.6667 26.7893C54.5209 26.8622 54.367 26.9675 54.2049 27.1053C54.051 27.2349 53.8565 27.4131 53.6216 27.64L50.9966 30.2528L54.2171 33.7164C54.533 34.0566 54.7882 34.324 54.9827 34.5184C55.1852 34.7129 55.3594 34.8628 55.5053 34.9681C55.6592 35.0734 55.801 35.1423 55.9306 35.1747C56.0602 35.199 56.2142 35.2152 56.3924 35.2233V35.4785H52.1754V35.2233L52.5521 35.199C52.941 35.1909 53.1355 35.0896 53.1355 34.8952C53.1355 34.8142 53.0909 34.6967 53.0018 34.5428C52.9127 34.3888 52.7871 34.2106 52.6251 34.008C52.4711 33.7974 52.2807 33.5665 52.0539 33.3153C51.8351 33.0642 51.5921 32.8049 51.3247 32.5375L49.8542 31.0792L49.5018 31.3709V33.9837C49.5018 34.2349 49.5139 34.4374 49.5382 34.5914C49.5707 34.7453 49.6274 34.8668 49.7084 34.9559C49.7975 35.0451 49.9231 35.1099 50.0851 35.1504C50.2553 35.1828 50.474 35.2071 50.7414 35.2233V35.4785H46.8403V35.2233C47.1158 35.2071 47.3345 35.1787 47.4966 35.1382C47.6586 35.0977 47.7801 35.0289 47.8612 34.9316C47.9503 34.8263 48.007 34.6886 48.0313 34.5184C48.0637 34.3402 48.0799 34.1053 48.0799 33.8136V27.8101C48.0799 27.5671 48.0637 27.3686 48.0313 27.2146C48.007 27.0607 47.9503 26.9392 47.8612 26.85C47.772 26.7609 47.6465 26.6961 47.4844 26.6556C47.3224 26.6151 47.1077 26.5867 46.8403 26.5705V26.291H50.7778V26.5705C50.4943 26.5867 50.2674 26.6151 50.0973 26.6556C49.9352 26.688 49.8097 26.7488 49.7205 26.8379C49.6314 26.927 49.5707 27.0485 49.5382 27.2025C49.5139 27.3564 49.5018 27.559 49.5018 27.8101V30.6539L51.9567 28.4178C52.3455 28.0613 52.621 27.7737 52.783 27.5549C52.9532 27.3362 53.0382 27.1498 53.0382 26.9959C53.0382 26.8581 52.9937 26.7569 52.9046 26.6921C52.8236 26.6272 52.6737 26.5867 52.4549 26.5705H52.0903V26.291Z" fill="#212529"/>
<path d="M43.5783 31.9542C43.5783 32.4889 43.5418 32.9345 43.4689 33.291C43.4041 33.6394 43.2907 33.9594 43.1286 34.2511C42.5777 35.199 41.5407 35.673 40.0175 35.673C38.8347 35.673 37.9597 35.3853 37.3925 34.8101C36.8254 34.2349 36.5418 33.3437 36.5418 32.1365V27.8101C36.5418 27.559 36.5256 27.3564 36.4932 27.2025C36.4689 27.0485 36.4122 26.927 36.3231 26.8379C36.2421 26.7488 36.1205 26.688 35.9585 26.6556C35.7965 26.6151 35.5777 26.5867 35.3022 26.5705V26.291H39.2276V26.5705C38.944 26.5948 38.7172 26.6272 38.547 26.6678C38.385 26.7002 38.2594 26.7609 38.1703 26.85C38.0812 26.9392 38.0204 27.0607 37.988 27.2146C37.9637 27.3605 37.9516 27.559 37.9516 27.8101V32.2459C37.9516 32.6834 37.9799 33.0439 38.0366 33.3275C38.0933 33.611 38.1825 33.8622 38.304 34.0809C38.6848 34.7372 39.3653 35.0653 40.3456 35.0653C40.8723 35.0653 41.3422 34.9681 41.7554 34.7737C42.1686 34.5792 42.4683 34.3159 42.6547 33.9837C42.7681 33.765 42.8451 33.5138 42.8856 33.2303C42.9342 32.9386 42.9585 32.5537 42.9585 32.0757V28.3327C42.9585 27.9843 42.9423 27.7007 42.9099 27.482C42.8775 27.2632 42.8127 27.089 42.7154 26.9594C42.6263 26.8298 42.4967 26.7366 42.3266 26.6799C42.1645 26.6232 41.9498 26.5867 41.6825 26.5705V26.291H44.8908V26.5705C44.6072 26.6029 44.3763 26.6475 44.1981 26.7042C44.0279 26.7609 43.8943 26.85 43.797 26.9716C43.7079 27.0931 43.6472 27.2632 43.6147 27.482C43.5904 27.7007 43.5783 27.9843 43.5783 28.3327V31.9542Z" fill="#212529"/>
</svg>
