<svg width="140" height="140" viewBox="0 0 140 140" fill="none" xmlns="http://www.w3.org/2000/svg">
<path d="M67.7538 125.477L80.3796 119.532L62.9014 104.213C62.6913 104.222 62.4826 104.229 62.2725 104.239L62.0776 124.859C63.9339 125.174 65.8301 125.379 67.7538 125.477Z" fill="#007CB6"/>
<path d="M62.0784 124.858L62.2732 104.238C62.017 104.25 61.7577 104.257 61.5015 104.271L44.1108 117.83C49.4219 121.29 55.5078 123.74 62.0784 124.858Z" fill="#6D99CA"/>
<path d="M32.6094 54.9792L45.1047 69.6037L47.9996 42.0645C41.923 45.2349 36.6656 49.6639 32.6094 54.9792Z" fill="#0068A3"/>
<path d="M63.8434 37.0684C58.813 37.7335 54.0404 39.1708 49.6528 41.2468L61.5253 43.8869C62.3476 41.635 63.1315 39.3656 63.8434 37.0684Z" fill="#1180BC"/>
<path d="M23.7017 81.0117C23.7017 81.038 23.7002 81.0644 23.7002 81.0908C23.7002 84.7125 24.165 88.2301 25.0272 91.6013L45.1041 69.6016L23.7017 81.0117Z" fill="#007CB6"/>
<path d="M27.2241 64.1558L45.1027 69.603L32.6073 54.9785C30.4519 57.8032 28.6432 60.8828 27.2241 64.1558Z" fill="#1180BC"/>
<path d="M45.105 69.6015L27.2264 64.1543C24.9728 69.3539 23.7148 75.0443 23.7041 81.0116L45.105 69.6015Z" fill="#0068A3"/>
<path d="M27.1415 97.8406C30.4567 94.4914 33.6062 90.9928 36.5916 87.3652L25.4678 93.1714C25.9403 94.7639 26.4925 96.3257 27.1415 97.8406Z" fill="#0070AF"/>
<path d="M36.5916 87.3628C40.8211 82.2233 44.7024 76.8127 48.2155 71.1663L45.1028 69.6016L25.0259 91.6013C25.1609 92.1287 25.3112 92.6488 25.4662 93.1689L36.5916 87.3628Z" fill="#0068A3"/>
<path d="M61.5008 104.271C51.8712 104.777 42.4717 106.1 33.3774 108.179C36.392 111.913 40.0232 115.167 44.1101 117.831L61.5008 104.271Z" fill="#0068A3"/>
<path d="M53.0927 62.7344L45.103 69.5983L48.2157 71.163C49.9309 68.4087 51.5601 65.6001 53.0927 62.7344Z" fill="#4B8BC2"/>
<path d="M61.5252 43.8823L49.6527 41.2422C49.0958 41.5059 48.5435 41.7769 47.9989 42.0597L45.104 69.5989L53.0937 62.735C56.3337 56.6769 59.1519 50.3799 61.5252 43.8823Z" fill="#6D99CA"/>
<path d="M107.722 91.8949L114.159 95.8374C115.865 91.2253 116.801 86.2704 116.802 81.1074L106.709 90.7462C107.045 91.1315 107.383 91.5139 107.722 91.8949Z" fill="#4B8BC2"/>
<path d="M103.947 111.711C104.168 111.489 104.378 111.259 104.593 111.035L99.4535 106.622C93.63 105.582 87.693 104.851 81.6639 104.439L80.3799 119.536L103.947 111.711Z" fill="#0070AF"/>
<path d="M81.6636 104.438C77.905 104.182 74.1142 104.035 70.2881 104.035C67.8105 104.035 65.3513 104.107 62.9014 104.214L80.3795 119.533L81.6636 104.438Z" fill="#4B8BC2"/>
<path d="M82.42 38.195C80.5208 37.7027 78.5755 37.3174 76.5889 37.0566C77.6137 40.3648 78.7658 43.6188 80.0176 46.8258L88.5043 47.4353L82.42 38.195Z" fill="#007CB6"/>
<path d="M88.5023 47.4396L80.0156 46.8301C81.4331 50.4664 82.9857 54.0398 84.6824 57.5369L88.5023 47.4396Z" fill="#0070AF"/>
<path d="M93.9337 119.333C97.6309 117.235 101 114.667 103.948 111.709L80.3813 119.533L93.9337 119.333Z" fill="#1180BC"/>
<path d="M84.6846 57.5334C85.5452 59.3076 86.4457 61.0613 87.3754 62.7975L109.717 57.5569C109.634 57.4309 109.549 57.3063 109.465 57.1803L88.5045 47.4375L84.6846 57.5334Z" fill="#006095"/>
<path d="M95.6797 76.4829C98.9964 81.3412 102.597 86.0031 106.461 90.4525L108.463 76.3672L95.6797 76.4829Z" fill="#0070AF"/>
<path d="M94.1619 42.9715C90.5384 40.8925 86.5942 39.2765 82.4214 38.1953L88.5041 47.4371L94.1619 42.9715Z" fill="#6D99CA"/>
<path d="M90.1445 67.7324C91.8904 70.7124 93.7328 73.6338 95.6796 76.4849L108.462 76.3691L90.1445 67.7324Z" fill="#1180BC"/>
<path d="M109.464 57.1811C105.58 51.3954 100.339 46.5167 94.1612 42.9727L88.5034 47.4382L109.464 57.1811Z" fill="#1180BC"/>
<path d="M90.1446 67.7336L108.462 76.3703L110.037 58.0406C109.933 57.878 109.821 57.7212 109.715 57.5586L87.374 62.7992C88.2653 64.4635 89.1919 66.1059 90.1446 67.7336Z" fill="#6D99CA"/>
<path d="M67.7539 125.479C68.5808 125.521 69.4123 125.549 70.2514 125.549C78.8977 125.549 86.9901 123.274 93.932 119.334L80.3796 119.533L67.7539 125.479Z" fill="#006095"/>
<path d="M106.461 90.4533C106.546 90.55 106.627 90.6481 106.711 90.7448L116.804 81.106C116.804 81.1016 116.804 81.0958 116.804 81.0914C116.804 78.9963 116.651 76.9334 116.356 74.916L108.463 76.3694L106.461 90.4533Z" fill="#1180BC"/>
<path d="M116.354 74.9149C115.462 68.8055 113.263 63.0917 110.037 58.0371L108.461 76.3668L116.354 74.9149Z" fill="#0070AF"/>
<path d="M113.341 97.8892C113.631 97.2138 113.903 96.5281 114.159 95.8351L107.722 91.8926C109.541 93.9378 111.411 95.9421 113.341 97.8892Z" fill="#007CB6"/>
<path d="M104.834 107.675C103.051 107.296 101.258 106.941 99.4536 106.619L104.593 111.032C104.713 110.906 104.834 110.783 104.952 110.655C105.707 109.848 106.443 109.025 107.135 108.166C106.372 107.992 105.602 107.838 104.834 107.675Z" fill="#006095"/>
<path fill-rule="evenodd" clip-rule="evenodd" d="M28.2476 100.193C29.2708 102.236 30.449 104.192 31.7745 106.05C44.2621 103.111 57.1303 101.623 70.2884 101.623C83.4219 101.623 96.2701 103.107 108.741 106.035C110.051 104.197 111.22 102.261 112.234 100.24C94.3187 82.3274 81.1591 60.5049 73.9349 36.7837C72.7199 36.6885 71.4926 36.6328 70.2515 36.6328C68.9874 36.6328 67.7387 36.6899 66.5022 36.7881C59.2872 60.4947 46.1445 82.2923 28.2476 100.193Z" fill="white"/>
<path fill-rule="evenodd" clip-rule="evenodd" d="M70.158 94.1288C56.2512 94.1288 43.11 97.1337 31.4492 102.468C53.9316 88.6406 69.0212 65.4395 70.1196 38.9375C71.2149 65.3442 86.1986 88.4765 108.549 102.322C96.9666 97.0795 83.9373 94.1288 70.158 94.1288Z" fill="#1A171B"/>
<path d="M57.3159 93.1359C56.6363 89.4175 56.2973 87.5583 55.6177 83.8399C57.5568 83.5161 58.531 83.3813 60.4839 83.1645C61.6789 83.0312 62.67 83.2231 63.3941 83.6861C64.1305 84.1549 64.5293 84.8054 64.5922 85.6522C64.6551 86.499 64.3621 87.2067 63.7531 87.7825C63.1517 88.3509 62.2895 88.704 61.1757 88.8285C60.2139 88.9355 59.7322 88.997 58.7733 89.1318C59.0004 90.6101 59.1154 91.3485 59.3425 92.8268C58.5309 92.9396 58.1259 93.0011 57.3159 93.1359ZM58.5202 87.4909C59.4391 87.362 59.9009 87.3034 60.8229 87.1994C61.8692 87.0807 62.4491 86.6104 62.3724 85.8603C62.2957 85.1087 61.6114 84.7483 60.533 84.8699C59.5833 84.9768 59.1093 85.0384 58.1628 85.1702C58.3054 86.0976 58.3775 86.562 58.5202 87.4909Z" fill="white"/>
<path d="M66.6312 92.1382C66.4287 88.3685 66.329 86.4844 66.1265 82.7147C68.0871 82.6195 69.0674 82.5975 71.0295 82.6078C72.2322 82.6136 73.1895 82.9184 73.8507 83.4619C74.5211 84.0128 74.8341 84.7043 74.7896 85.5526C74.7451 86.4009 74.3647 87.069 73.6866 87.57C73.0177 88.0652 72.1172 88.3158 70.9988 88.3099C70.0323 88.3055 69.5475 88.3099 68.5811 88.3319C68.6194 89.8248 68.6393 90.572 68.6762 92.0649C67.8569 92.084 67.4489 92.0986 66.6312 92.1382ZM68.5366 86.6734C69.4632 86.6514 69.9265 86.647 70.8546 86.6499C71.907 86.6529 72.5406 86.2544 72.5605 85.4998C72.5789 84.7453 71.9469 84.3087 70.8638 84.3043C69.9096 84.3014 69.4309 84.3058 68.4767 84.3278C68.5013 85.2669 68.5135 85.7357 68.5366 86.6734Z" fill="white"/>
<path d="M77.2852 91.133C76.3325 90.1279 75.8753 88.9222 75.9735 87.4967C76.0732 86.0579 76.7037 84.9108 77.9034 84.0947C79.1138 83.2728 80.6372 82.9593 82.3753 83.1878C83.4753 83.3314 84.4173 83.6786 85.215 84.2061C85.0769 84.9767 85.0063 85.362 84.8683 86.1327C84.1227 85.5188 83.2084 85.1335 82.1314 84.9928C81.0852 84.8566 80.1785 85.0543 79.4253 85.5627C78.6812 86.0638 78.2762 86.767 78.1872 87.6666C78.0998 88.5662 78.3713 89.3339 78.965 89.9756C79.5603 90.6187 80.3442 90.9909 81.3383 91.1213C82.4336 91.2663 83.394 91.1418 84.2485 90.7228C84.1074 91.4934 84.0368 91.8773 83.8972 92.6479C83.0089 92.9644 82.0486 93.0493 80.9793 92.9101C79.4498 92.7094 78.2333 92.1307 77.2852 91.133Z" fill="white"/>
<path d="M20.2072 90.5189L10.3152 91.754L9.77675 87.8275C9.52516 85.9918 10.438 84.7801 12.0334 84.5809C13.6305 84.3816 14.8516 85.3266 15.1032 87.1624L15.5557 90.4691L20.1197 89.8992L20.2072 90.5189ZM14.9498 90.5438L14.5049 87.2913C14.2993 85.7925 13.4341 85.0365 12.1194 85.2006C10.82 85.3632 10.1879 86.3068 10.3919 87.8041L10.8368 91.0566L14.9498 90.5438Z" fill="#1A171B"/>
<path d="M17.9966 78.7551C16.9136 79.5404 15.6418 79.854 14.169 79.6928C12.7101 79.5346 11.5457 78.9544 10.6759 77.9567C9.80755 76.9428 9.44552 75.7678 9.6066 74.4287C9.76615 73.0897 10.3951 72.0348 11.4797 71.2363C12.5644 70.4364 13.8361 70.1228 15.2936 70.2825C16.7525 70.4422 17.9307 71.0224 18.799 72.0348C19.6673 73.0472 20.0171 74.209 19.856 75.5466C19.698 76.8857 19.0813 77.9552 17.9966 78.7551ZM19.2347 75.4807C19.3728 74.3306 19.0629 73.3241 18.2927 72.4465C17.5226 71.5674 16.5086 71.0605 15.2199 70.9199C13.9313 70.7792 12.8221 71.0546 11.8648 71.7447C10.9075 72.4348 10.3675 73.349 10.231 74.4976C10.0929 75.6477 10.4043 76.6542 11.1745 77.5318C11.9446 78.4108 12.9586 78.9192 14.2473 79.0584C15.5359 79.1991 16.6436 78.9222 17.6024 78.2336C18.5566 77.5435 19.0966 76.6293 19.2347 75.4807Z" fill="#1A171B"/>
<path d="M21.5036 66.836L12.1348 63.5659L12.3603 62.9784L21.1523 66.0463L23.1435 60.8438L23.7188 61.0445L21.5036 66.836Z" fill="#1A171B"/>
<path d="M26.0104 57.0439L17.9133 52.568L16.123 55.5216L15.5938 55.2286L19.5027 48.7793L20.0319 49.0723L18.2416 52.0259L26.3387 56.5018L26.0104 57.0439Z" fill="#1A171B"/>
<path d="M28.9008 52.3767L24.3813 42.7935L24.7864 42.3555L35.2843 45.4717L34.8317 45.961L31.7543 45.0542L28.0387 49.0729L29.3611 51.8771L28.9008 52.3767ZM27.7641 48.5499L31.1683 44.8681L25.2205 43.1202L27.7641 48.5499Z" fill="#1A171B"/>
<path d="M39.899 42.1336L30.3491 36.9589L30.9336 36.5472L39.6029 41.2458L37.4597 31.9556L38.0335 31.5527L40.3822 41.7966L39.899 42.1336Z" fill="#1A171B"/>
<path d="M45.0815 38.5824L45.123 28.0747L45.6829 27.8359L53.8858 34.8229L53.2614 35.0896L50.8544 33.0473L45.732 35.2361L45.7213 38.3113L45.0815 38.5824ZM45.7059 34.6515L50.4003 32.6473L45.7458 28.7047L45.7059 34.6515Z" fill="#1A171B"/>
<path d="M33.0492 126.506C32.8497 125.211 33.1719 123.992 34.0464 122.832C34.9208 121.673 36.0299 120.993 37.3708 120.777C38.7192 120.548 39.9742 120.841 41.1309 121.635C42.0099 122.24 42.6343 122.971 42.9856 123.833L42.5699 124.385C42.2063 123.447 41.6095 122.702 40.7765 122.129C39.7824 121.445 38.6886 121.196 37.4981 121.399C36.3153 121.593 35.3473 122.202 34.5894 123.206C33.8316 124.211 33.534 125.28 33.7088 126.423C33.8914 127.555 34.4851 128.467 35.4915 129.16C36.4518 129.82 37.472 130.119 38.5735 130.056L38.1486 130.619C37.1115 130.644 36.0959 130.313 35.1018 129.629C33.9451 128.834 33.2578 127.79 33.0492 126.506Z" fill="#1A171B"/>
<path d="M43.0533 132.629C42.5823 131.411 42.6375 130.159 43.2266 128.861C43.8096 127.576 44.7285 126.681 45.9819 126.177C47.2491 125.677 48.5316 125.69 49.8264 126.225C51.1212 126.761 51.9941 127.64 52.4788 128.865C52.9636 130.09 52.9069 131.341 52.3239 132.627C51.7409 133.912 50.8159 134.821 49.5487 135.319C48.2815 135.818 47.0174 135.799 45.7242 135.262C44.4294 134.725 43.538 133.852 43.0533 132.629ZM45.9727 134.712C47.0834 135.172 48.1818 135.182 49.2863 134.734C50.3894 134.287 51.1933 133.506 51.7102 132.371C52.2257 131.235 52.2717 130.143 51.8591 129.067C51.4464 127.993 50.6885 127.233 49.5778 126.773C48.4671 126.313 47.3687 126.304 46.2657 126.751C45.1627 127.199 44.3573 127.977 43.8433 129.114C43.3279 130.249 43.2819 131.342 43.6945 132.418C44.1041 133.493 44.862 134.252 45.9727 134.712Z" fill="#1A171B"/>
<path d="M55.3174 138.352L57.0003 128.961L57.66 129.069L60.6224 134.484L65.3014 130.319L65.9335 130.422L64.2505 139.813L63.6031 139.707L65.1158 131.268L60.7113 135.188L60.2895 135.119L57.4728 130.019L55.9602 138.459L55.3174 138.352Z" fill="#1A171B"/>
<path d="M69.6868 140.006L69.2588 130.487L73.4024 130.317C75.3385 130.238 76.5243 131.211 76.5934 132.748C76.6624 134.284 75.5701 135.364 73.6341 135.443L70.1455 135.587L70.3434 139.979L69.6868 140.006ZM70.1179 135.002L73.5497 134.862C75.1314 134.797 75.9951 134.04 75.9383 132.775C75.8815 131.524 74.9519 130.84 73.3717 130.906L69.9399 131.047L70.1179 135.002Z" fill="#1A171B"/>
<path d="M79.373 139.472L81.55 129.171L82.1467 129.039L88.7726 137.415L88.1068 137.561L86.16 135.112L80.6893 136.309L80.0527 139.323L79.373 139.472ZM80.7845 135.73L85.7979 134.634L82.0332 129.903L80.7845 135.73Z" fill="#1A171B"/>
<path d="M92.9243 135.954L88.6641 127.343L89.1918 127.105L99.1098 131.958L95.3359 124.331L95.9281 124.064L100.188 132.675L99.6728 132.908L89.7364 128.047L93.5164 135.686L92.9243 135.954Z" fill="#1A171B"/>
<path d="M106.961 128.349L104.188 124.826L97.8608 122.968L98.4975 122.511L104.083 124.15L103.997 118.563L104.6 118.129L104.701 124.438L107.484 127.971L106.961 128.349Z" fill="#1A171B"/>
<path d="M85.23 34.52L88.7584 25.6094L92.6367 27.01C94.45 27.6649 95.1388 29.004 94.5681 30.4427C93.999 31.8814 92.5492 32.4631 90.7359 31.8082L87.4698 30.6288L85.8421 34.7398L85.23 34.52ZM87.6892 30.0823L90.9016 31.2426C92.3805 31.7774 93.4881 31.4067 93.956 30.2215C94.4193 29.0509 93.8471 28.0722 92.3682 27.5389L89.1558 26.3785L87.6892 30.0823Z" fill="#1A171B"/>
<path d="M92.6216 37.3217L97.5292 29.0293L103.334 32.1631L103.034 32.673L97.7977 29.8483L95.9813 32.9162L100.311 35.253L100.01 35.7614L95.6806 33.4246L93.493 37.121L98.9253 40.0541L98.6246 40.5639L92.6216 37.3217Z" fill="#1A171B"/>
<path d="M101.205 42.5031L106.953 35.4443L104.131 33.3463L104.506 32.8848L110.672 37.4632L110.296 37.9261L107.473 35.8281L101.725 42.8869L101.205 42.5031Z" fill="#1A171B"/>
<path d="M104.903 45.3102L112.189 38.8066L115.205 41.8877C116.5 43.2092 116.517 44.6831 115.361 45.7145C114.321 46.6434 112.968 46.6771 111.753 45.694L110.535 51.065L110.009 50.5273L111.205 45.1944L108.774 42.7096L105.35 45.7658L104.903 45.3102ZM109.223 42.3111L111.753 44.8941C112.804 45.968 113.947 46.1204 114.904 45.2647C115.831 44.4384 115.769 43.3191 114.719 42.2467L112.189 39.6623L109.223 42.3111Z" fill="#1A171B"/>
<path d="M112.376 51.4616C112.698 50.2002 113.479 49.1922 114.728 48.4318C115.964 47.6773 117.25 47.4267 118.585 47.6787C119.927 47.9425 120.983 48.6384 121.742 49.7738C122.501 50.9093 122.708 52.1062 122.394 53.3794C122.078 54.6525 121.299 55.6605 120.062 56.4151C118.824 57.1696 117.526 57.4274 116.185 57.1637C114.843 56.9 113.806 56.2085 113.048 55.073C112.289 53.9361 112.06 52.7348 112.376 51.4616ZM113.576 54.7492C114.228 55.7235 115.131 56.3184 116.31 56.5381C117.486 56.7564 118.609 56.541 119.703 55.8744C120.795 55.2078 121.475 54.3273 121.763 53.2153C122.052 52.1033 121.868 51.0689 121.216 50.0947C120.565 49.1204 119.66 48.5256 118.483 48.3058C117.307 48.086 116.184 48.3029 115.09 48.9695C113.998 49.6361 113.318 50.5166 113.031 51.6286C112.741 52.7406 112.924 53.775 113.576 54.7492Z" fill="#1A171B"/>
<path d="M116.166 59.9274L125.363 56.25L125.616 56.8272L116.985 60.279L119.225 65.3863L118.66 65.6119L116.166 59.9274Z" fill="#1A171B"/>
<path d="M118.768 66.0766L128.422 63.6973L130.088 69.8609L129.495 70.0074L127.993 64.4489L124.421 65.3294L125.664 69.9253L125.07 70.0719L123.828 65.4759L119.524 66.5366L121.083 72.3047L120.489 72.4512L118.768 66.0766Z" fill="#1A171B"/>
<path d="M121.665 73.867C122.366 73.111 123.425 72.6642 124.83 72.544L130.518 72.0547L130.577 72.6788L124.888 73.1682C122.506 73.3718 121.214 74.6992 121.4 76.6639C121.584 78.6139 123.101 79.6995 125.485 79.4944L131.174 79.0051L131.232 79.6277L125.543 80.1171C124.14 80.2372 123.027 79.9779 122.182 79.3552C121.351 78.7296 120.881 77.8418 120.775 76.7181C120.668 75.5782 120.964 74.6244 121.665 73.867Z" fill="#1A171B"/>
<path d="M121.345 81.6758L131.264 82.6208L131.198 83.2566L125.755 86.4549L130.43 90.6172L130.365 91.2252L120.446 90.2802L120.51 89.6576L129.425 90.5059L125.025 86.5882L125.068 86.1824L130.194 83.1438L121.279 82.2955L121.345 81.6758Z" fill="#1A171B"/>
<path fill-rule="evenodd" clip-rule="evenodd" d="M124.081 113.011C125.415 113.473 126.741 113.949 128.058 114.443C128.27 114.522 128.479 114.608 128.691 114.689C129.827 115.121 130.961 115.558 132.084 116.013C132.598 116.221 133.103 116.444 133.613 116.658C134.431 116.999 135.252 117.336 136.063 117.691C137.386 118.27 138.698 118.864 140 119.477C139.983 119.465 139.965 119.453 139.948 119.442C138.731 118.658 137.527 117.859 136.333 117.045C135.7 116.611 135.077 116.163 134.45 115.72C133.891 115.328 133.33 114.941 132.777 114.541C131.929 113.926 131.093 113.296 130.258 112.666C129.949 112.433 129.634 112.204 129.327 111.968C128.356 111.224 127.397 110.464 126.446 109.697C126.29 109.571 126.13 109.448 125.974 109.322C124.933 108.48 123.907 107.623 122.892 106.754C122.83 106.701 122.767 106.651 122.706 106.599C121.637 105.682 120.58 104.751 119.536 103.808C119.53 103.803 119.526 103.798 119.526 103.798C117.406 101.878 115.345 99.9092 113.343 97.8873C96.4865 80.8718 83.7334 60.1174 76.589 37.0555C75.2252 32.6544 74.0669 28.1697 73.1204 23.6133C73.1127 23.5767 73.1035 23.54 73.0974 23.5034C72.8013 22.075 72.5313 20.6377 72.2782 19.1961C72.2582 19.0832 72.2352 18.9719 72.2153 18.8591C71.9806 17.5053 71.7735 16.1443 71.5771 14.7788C71.5479 14.5781 71.5126 14.3774 71.485 14.1767C71.3071 12.9035 71.1567 11.6216 71.0125 10.3381C70.9803 10.0466 70.9389 9.75943 70.9082 9.46641C70.7763 8.22695 70.672 6.98016 70.5738 5.73191C70.5477 5.4008 70.5109 5.07262 70.4863 4.74004C70.3713 3.16801 70.2823 1.58864 70.2179 0.00195312C70.155 1.59011 70.0644 3.17094 69.9494 4.74737C69.9264 5.07262 69.8896 5.39494 69.8635 5.72019C69.7638 6.97723 69.6579 8.23135 69.526 9.4796C69.4968 9.75943 69.4569 10.0349 69.4247 10.3132C69.279 11.6098 69.1271 12.905 68.9476 14.1913C68.9215 14.3818 68.8878 14.5708 68.8602 14.7627C68.6623 16.1384 68.4536 17.5097 68.2174 18.8723C68.199 18.9778 68.1775 19.0832 68.1591 19.1887C67.9044 20.6377 67.6329 22.0808 67.3368 23.5151C67.3307 23.5444 67.323 23.5737 67.3168 23.6045C66.3703 28.1682 65.209 32.6587 63.8436 37.0657C56.7054 60.0998 43.9723 80.8352 27.1415 97.8375C24.0886 100.923 20.9008 103.885 17.5886 106.717C17.5717 106.732 17.5533 106.747 17.5349 106.761C16.4549 107.684 15.3611 108.593 14.255 109.488C14.1476 109.576 14.0356 109.659 13.9282 109.746C12.908 110.566 11.8802 111.376 10.8385 112.172C10.57 112.377 10.2954 112.573 10.0254 112.777C9.13104 113.451 8.23513 114.123 7.3254 114.778C6.80227 115.155 6.26839 115.518 5.74065 115.889C5.06718 116.362 4.39832 116.841 3.71564 117.304C2.48988 118.136 1.25184 118.952 0 119.752C1.3178 119.127 2.64634 118.519 3.98409 117.927C4.86774 117.536 5.76368 117.165 6.655 116.79C7.11063 116.598 7.56012 116.397 8.01729 116.21C9.19549 115.726 10.3859 115.263 11.5795 114.806C11.7574 114.739 11.9308 114.666 12.1088 114.598C18.9708 112.002 26.0692 109.853 33.3639 108.184C45.2103 105.474 57.5737 104.035 70.29 104.035C82.9817 104.035 95.3205 105.471 107.147 108.171C112.888 109.482 118.509 111.089 123.987 112.979C124.018 112.988 124.048 113 124.081 113.011ZM31.7745 106.049C30.4491 104.192 29.2709 102.236 28.2476 100.192C46.1446 82.2915 59.2873 60.4939 66.5022 36.7888C67.7402 36.6907 68.989 36.6335 70.2516 36.6335C71.4927 36.6335 72.72 36.6892 73.935 36.7844C81.1591 60.5042 94.3188 82.3281 112.234 100.24C111.219 102.262 110.051 104.197 108.741 106.036C96.2717 103.106 83.422 101.623 70.2884 101.623C57.1303 101.622 44.2622 103.11 31.7745 106.049Z" fill="#1A171B"/>
</svg>
