<svg width="140" height="140" viewBox="0 0 140 140" fill="none" xmlns="http://www.w3.org/2000/svg">
<g clip-path="url(#clip0_188_4663)">
<path d="M140.622 71.9186C140.052 75.8825 139.663 79.6256 138.883 83.2856C133.203 109.95 117.237 127.505 91.5722 136.372C90.5279 136.733 89.365 136.75 87.78 136.873C88.1314 136.227 88.8776 135.389 89.8009 135.08C117.403 125.836 134.387 106.993 137.699 78.075C140.906 50.0761 129.328 28.0822 105.335 13.1357C100.242 9.96336 94.2676 8.20043 88.6806 5.83259C87.4568 5.31391 87.4197 5.40134 87.7381 4.22266C94.4909 4.85173 100.385 7.88441 106.012 11.2709C124.276 22.263 135.378 38.345 139.212 59.339C139.782 62.4555 139.851 65.6633 140.387 68.9478C140.622 69.931 140.622 70.7952 140.622 71.9186Z" fill="#731818"/>
<path d="M1.33875 79.6369C1.21309 79.4503 1.08742 79.2638 0.791916 79.0499C0.622071 73.6169 0.622071 68.2113 0.62207 62.5141C0.815165 62.1265 1.00826 62.0305 1.4646 61.8653C2.13712 61.8638 2.54641 61.9315 2.94653 62.3064C2.95636 68.2873 2.97537 73.9611 2.78741 79.6359C2.16656 79.6369 1.75266 79.6369 1.33875 79.6369Z" fill="#690202"/>
<path d="M86.0291 3.21248C86.3629 5.09232 85.3684 4.92535 83.909 4.77049C78.4407 4.19021 72.9502 3.81824 67.0527 3.27932C66.4308 3.26016 66.2243 3.32985 66.0178 3.39954C55.9702 4.32573 46.3832 6.81888 37.5027 11.7436C37.3351 11.8365 36.9876 11.605 36.5488 11.3671C37.1051 10.5342 37.7302 9.65089 38.5837 9.21523C53.588 1.55721 69.382 -0.0276659 86.0291 3.21248Z" fill="#701414"/>
<path d="M36.2018 11.1133C35.5739 12.102 34.8339 13.2373 33.7948 13.9124C22.2939 21.3843 13.6396 31.2759 7.85808 44.1086C7.54505 44.5053 7.4876 44.6462 7.46764 44.8024C7.46764 44.8024 7.46652 44.8 7.304 44.8595C6.81974 44.6316 6.49801 44.3442 6.17627 44.0568C11.8671 29.7905 21.7243 19.1514 34.7467 11.2792C35.075 11.0807 35.5462 11.1185 36.2018 11.1133Z" fill="#721818"/>
<path d="M6.0268 44.1914C6.49804 44.342 6.81978 44.6294 7.30482 44.8576C6.01298 50.3969 4.55783 55.9955 3.02923 61.7954C2.54649 61.929 2.13721 61.8613 1.53076 61.7064C2.71752 56.8293 4.12341 52.0455 5.46646 47.2441C5.72855 46.3072 5.74665 45.302 6.0268 44.1914Z" fill="#731919"/>
<path d="M80.8668 137.129C82.5109 137.084 84.1549 137.039 85.748 137.291C85.5471 137.736 85.397 137.884 85.2469 138.031C84.6949 138.135 84.1428 138.238 83.188 138.299C82.5694 138.383 82.3537 138.51 82.138 138.636C81.3688 138.738 80.5995 138.84 79.4289 138.888C78.8275 138.929 78.6275 139.024 78.4274 139.119C41.5049 143.677 7.49299 117.886 1.77332 81.8411C1.67579 81.0193 1.52702 80.6495 1.37824 80.2797C1.34043 80.1746 1.30262 80.0695 1.30176 79.8011C1.7526 79.6377 2.16651 79.6377 2.78736 79.6367C7.69663 110.377 31.035 133.377 61.9678 137.298C67.7052 138.025 73.6181 137.369 79.8804 137.395C80.4962 137.335 80.6815 137.232 80.8668 137.129Z" fill="#701414"/>
<path d="M1.35449 80.4824C1.5269 80.6489 1.67568 81.0187 1.79954 81.5975C1.6267 81.433 1.47878 81.0594 1.35449 80.4824Z" fill="#751C1C"/>
<path d="M78.5972 139.152C78.6274 139.023 78.8275 138.927 79.1977 138.855C79.1676 138.981 78.9672 139.084 78.5972 139.152Z" fill="#772121"/>
<path d="M85.41 138.062C85.3969 137.883 85.547 137.735 85.8534 137.551C86.041 137.628 86.0723 137.742 86.0023 138.001C85.7917 138.128 85.6824 138.111 85.41 138.062Z" fill="#772121"/>
<path d="M82.3306 138.658C82.354 138.509 82.5697 138.382 82.9778 138.277C82.9545 138.426 82.7387 138.553 82.3306 138.658Z" fill="#772121"/>
<path d="M34.1434 53.9743C34.1434 53.9743 34.1349 53.7313 34.4777 53.6009C38.309 53.4692 41.8019 53.3678 45.2831 53.5257C46.367 53.5748 47.4192 54.3254 48.486 54.7548C46.0391 61.9444 43.5923 69.1339 41.111 76.4248C38.0648 75.9111 38.2685 74.0611 38.9244 72.0575C40.6798 66.6955 42.4692 61.3447 44.3255 55.747C42.763 55.747 41.5568 55.747 40.1923 55.747C38.4796 61.0005 36.5816 66.305 35.0435 71.712C33.9023 75.7237 35.6322 78.2004 40.1179 79.4279C38.5798 84.6117 37.0415 89.7963 35.392 95.3556C50.9075 95.3556 66.19 95.3556 81.8806 95.6638C83.3048 95.8351 84.3209 95.6982 85.337 95.5614C89.7193 96.0422 95.9108 92.4023 97.6019 87.9707C99.3535 83.3808 100.732 78.6487 102.473 73.3756C103.955 74.186 105.22 74.9976 106.579 75.5917C108.4 76.3873 110.275 77.5459 112.162 77.6178C118.757 77.8689 125.367 77.7198 132.342 77.9181C132.9 78.2186 133.088 78.3238 133.276 78.429C133.26 78.8961 133.244 79.3632 133.062 80.1035C132.857 80.4363 132.772 80.5245 132.788 80.5505C132.858 80.6659 132.958 80.7635 133.047 80.8675C128.832 109.803 101.644 137.111 64.0169 133.7C29.3463 130.558 9.01841 101.751 7.28955 78.5197C10.8102 78.5197 14.3165 78.517 17.8228 78.5203C22.9815 78.525 26.0995 76.5996 27.9769 71.7005C29.8204 66.8901 31.3248 61.9497 33.1831 56.7451C33.4301 56.2241 33.4721 56.0244 33.514 55.8247C33.514 55.8247 33.5022 55.5877 33.7009 55.3451C33.9809 54.7264 34.0621 54.3504 34.1434 53.9743Z" fill="#711717"/>
<path d="M128.199 75.1786C126.198 74.7628 124.001 74.7169 122.27 73.7959C121.189 73.2209 120.81 71.3255 120.116 70.0226C121.18 69.5375 122.224 68.9971 123.318 68.5937C123.778 68.424 124.417 68.6967 124.844 68.4939C125.386 68.2367 125.796 67.7003 126.262 67.2842C125.841 66.9373 125.399 66.2691 125.003 66.2959C122.542 66.4622 119.986 66.4423 117.668 67.1554C115.543 67.8091 114.369 69.5225 115.847 71.9574C116.404 72.8745 116.738 73.9267 117.604 75.8961C114.727 75.2891 112.534 75.1132 110.584 74.3306C108.805 73.6164 108.803 72.3826 110.617 71.265C112.006 70.4093 113.217 69.2635 114.507 68.2466C114.405 67.9138 114.304 67.581 114.203 67.2482C112.135 67.0287 110.067 66.8092 108.119 66.6024C106.578 68.2784 108.096 72.0119 103.635 71.3326C106.553 59.6937 111 48.5629 114.638 36.8568C106.688 36.8568 98.9334 36.3567 91.28 37.023C85.6677 37.5116 82.098 41.5812 80.8662 47.1463C80.2711 49.8349 78.9464 50.4208 76.3678 50.3961C62.7914 50.2657 49.213 50.335 35.313 50.335C35.8574 48.4676 36.3367 46.8234 37.0996 44.2066C35.1744 44.9255 33.4587 45.0723 32.6307 46.0061C31.6937 47.063 31.5532 48.826 31.1435 50.0509C26.8435 50.3371 22.7901 50.5976 18.743 50.9351C18.6496 50.9429 18.6287 51.821 18.5565 52.4433C22.377 52.4433 25.9753 52.4433 29.9476 52.4433C29.7232 53.3865 29.6119 54.1495 29.3608 54.8633C27.3106 60.6929 25.2263 66.5105 23.1697 72.3379C22.2698 74.8876 20.3262 76.2451 17.7992 76.3881C14.1075 76.597 10.3952 76.4418 6.45151 76.4418C5.68892 67.4276 6.75687 58.7814 9.61663 50.3708C13.5461 38.814 20.1996 29.0343 29.8292 21.5512C35.7799 16.9271 41.933 12.4631 49.724 11.0589C53.5961 10.361 57.2946 8.70409 61.1657 7.99453C63.8142 7.50908 66.6623 8.20148 69.3564 7.85839C76.4701 6.95245 83.3897 7.90635 89.9337 10.4514C95.5356 12.6301 101.151 15.17 106.121 18.5036C122.111 29.2287 130.845 44.5423 132.995 63.9135C132.938 64.3818 133.007 64.5388 133.076 64.6957C133.117 67.8342 133.158 70.9727 133.02 74.4475C132.693 74.8848 132.597 75.0218 132.551 75.1947C131.471 75.2289 130.391 75.2631 128.995 75.1524C128.519 75.0646 128.359 75.1216 128.199 75.1786Z" fill="#711717"/>
<path d="M98.239 75.279C97.279 78.39 96.4503 81.5492 95.3314 84.602C93.0577 90.8054 90.2952 93.2128 82.8797 92.6295C80.6798 92.5036 78.9126 92.6266 77.1454 92.7497C65.3092 92.7922 53.473 92.8346 41.3566 92.6044C40.9134 91.8461 40.7504 91.3606 40.5874 90.8751C41.5936 87.3452 42.5746 83.8078 43.6181 80.2889C44.0466 78.8438 44.4073 78.1328 46.6075 78.0941C49.1425 78.0494 51.6409 75.9257 54.6072 74.6676C55.5567 74.6421 56.0543 74.6538 56.5519 74.6654C56.6636 77.1172 58.244 77.7218 60.3457 77.7109C69.8612 77.6615 79.3768 77.6218 89.2333 77.7084C89.6249 77.8833 89.6756 77.9283 89.7263 77.9733C89.6476 77.8645 89.569 77.7556 89.4903 77.6467C90.8427 77.0886 92.1951 76.5304 93.8743 75.9011C94.339 75.7569 94.4524 75.6559 94.541 75.5272C94.8252 75.2684 95.1095 75.0097 95.796 74.7038C96.8785 74.8642 97.5588 75.0716 98.239 75.279Z" fill="#701616"/>
<path d="M78.6647 53.319C76.9721 58.6616 75.2978 64.0102 73.5768 69.3437C72.9688 71.2282 72.2465 73.0758 71.5763 74.9402C71.1741 74.8579 70.772 74.7756 70.3698 74.6934C70.4813 73.5192 70.488 72.3234 70.725 71.1751C71.3048 68.3646 70.5988 67.3466 67.6937 67.183C66.1433 67.0956 64.5743 67.0134 63.037 67.1653C62.3667 67.2315 61.755 67.8912 61.321 68.9394C63.007 69.1928 64.693 69.4463 66.7892 69.7614C66.2664 71.9076 65.7922 73.8539 65.2285 76.1677C63.5703 76.0264 61.9789 75.8908 60.3875 75.7552C60.3486 75.3731 60.3098 74.9911 60.271 74.609C61.686 74.0802 63.1009 73.5513 64.5113 73.0242C63.8044 71.088 61.3522 71.0011 56.8258 72.8169C56.6009 72.7907 56.6381 72.821 56.6381 72.821C56.7017 71.2594 57.2737 68.583 56.7369 68.3382C54.8777 67.4905 52.6366 67.4552 50.5289 67.2167C50.3187 67.1929 49.9131 67.865 49.8206 68.2655C49.7742 68.4665 50.1766 68.8934 50.4652 69.0304C53.448 70.446 53.6802 71.6541 51.0359 73.7311C49.7045 74.7768 48.0099 75.3602 46.4796 76.1526C46.2294 75.9901 45.9792 75.8275 45.729 75.665C48.1845 67.9581 50.64 60.2513 53.1893 52.25C61.3156 52.25 69.5748 52.25 78.1543 52.5504C78.5379 53.0069 78.6013 53.163 78.6647 53.319Z" fill="#711717"/>
<path d="M84.0159 52.2037C85.8963 52.1552 87.7767 52.1066 90.1013 52.3302C93.1712 52.4097 95.7969 52.2171 98.4225 52.0245C98.8287 51.9541 99.2349 51.8838 99.9188 52.0138C100.373 52.1039 100.55 51.9937 100.727 51.8834C102.449 51.7268 104.17 51.5702 106.38 51.3691C104.502 57.0053 102.765 62.2196 100.74 67.7037C99.7265 68.1356 98.9994 68.2979 98.2724 68.4602C98.2724 68.4602 98.3137 68.4561 98.2714 68.2526C97.7709 67.7907 97.3127 67.5322 96.8545 67.2738C95.0056 67.098 93.1534 66.7751 91.3093 66.8159C90.5275 66.8331 89.7626 67.6138 88.99 68.0475C89.1074 68.2971 89.2247 68.5467 89.3421 68.7962C91.0793 69.0203 92.8165 69.2444 94.5536 69.4684C94.5597 69.7895 94.5657 70.1105 94.5718 70.4315C93.0614 70.6444 91.5511 70.8572 89.1493 71.1956C90.0378 72.3342 90.7007 73.1838 91.7363 74.511C89.5006 75.0444 86.8966 75.6658 83.6027 76.4517C84.8634 73.0567 89.5731 71.2277 86.5941 68.2317C85.0124 66.6409 81.4781 66.9916 78.5005 66.4015C79.8015 62.4311 81.3203 57.7959 83.1681 52.944C83.67 52.5527 83.843 52.3782 84.0159 52.2037Z" fill="#711818"/>
<path d="M110.014 39.8092C109.568 41.2806 109.246 42.8038 108.652 44.2131C107.224 47.6068 104.853 49.8385 100.927 49.8477C95.3544 49.8608 89.782 49.851 83.9385 49.851C85.5104 46.0019 85.9969 41.2504 91.3608 39.4726C91.6408 39.5232 91.9104 39.5267 91.9104 39.5267L92.0738 39.2817C97.4875 39.1982 102.901 39.1147 108.683 39.255C109.372 39.589 109.693 39.6991 110.014 39.8092Z" fill="#711818"/>
<path d="M78.5494 68.5469C79.9054 68.9638 81.0733 69.5329 82.354 70.1569C82.0996 72.8955 80.0663 74.2367 77.7865 75.203C77.4329 75.3529 75.9658 74.1014 76.0499 73.8622C76.673 72.0893 77.5584 70.4086 78.5494 68.5469Z" fill="#731B1B"/>
<path d="M48.592 54.534C47.4196 54.3259 46.3674 53.5753 45.2835 53.5262C41.8023 53.3683 38.3094 53.4697 34.5312 53.4921C34.7276 53.1381 35.2075 52.447 35.7006 52.4376C40.1128 52.3528 44.5273 52.3882 49.2181 52.3882C48.9982 53.2011 48.8479 53.7568 48.592 54.534Z" fill="#7F3131"/>
<path d="M98.2936 68.7082C98.9992 68.2976 99.7263 68.1353 100.618 67.8984C99.998 70.1699 99.2134 72.516 98.3337 75.0706C97.5583 75.0718 96.878 74.8644 95.9805 74.6506C96.6138 72.7483 97.4644 70.8524 98.2936 68.7082Z" fill="#701414"/>
<path d="M98.1279 51.9785C95.797 52.2196 93.1714 52.4123 90.374 52.4083C92.7459 52.1178 95.2895 52.0239 98.1279 51.9785Z" fill="#690202"/>
<path d="M77.418 92.827C78.9118 92.629 80.679 92.506 82.6092 92.5732C81.0785 92.8097 79.3849 92.8558 77.418 92.827Z" fill="#690101"/>
<path d="M56.6082 74.4115C56.0539 74.6549 55.5563 74.6432 54.8105 74.6118C55.1177 73.996 55.6729 73.4 56.433 72.8113C56.6379 72.8186 56.6007 72.7884 56.5792 72.7773C56.5934 73.2297 56.6292 73.6931 56.6082 74.4115Z" fill="#711717"/>
<path d="M85.06 95.5413C84.3206 95.7003 83.3046 95.8372 82.1514 95.759C82.9372 95.5357 83.8603 95.5275 85.06 95.5413Z" fill="#6D0909"/>
<path d="M40.5005 91.123C40.7498 91.3617 40.9128 91.8472 41.0719 92.5345C40.8501 92.2808 40.6321 91.8254 40.5005 91.123Z" fill="#690101"/>
<path d="M96.9478 67.4414C97.3123 67.5329 97.7705 67.7914 98.2572 68.2689C97.871 68.1947 97.4562 67.9015 96.9478 67.4414Z" fill="#701414"/>
<path d="M33.9993 54.1113C34.0624 54.3521 33.9812 54.7282 33.7547 55.2409C33.6912 55.0006 33.7731 54.6236 33.9993 54.1113Z" fill="#7F3131"/>
<path d="M110.028 39.5951C109.694 39.6984 109.373 39.5883 108.967 39.3257C109.269 39.2427 109.655 39.3122 110.028 39.5951Z" fill="#690101"/>
<path d="M80.7044 137.111C80.6816 137.231 80.4963 137.335 80.1475 137.423C80.1699 137.303 80.3559 137.199 80.7044 137.111Z" fill="#772121"/>
<path d="M133.096 80.7244C132.958 80.7645 132.858 80.667 132.788 80.5516C132.772 80.5256 132.857 80.4374 132.992 80.3295C133.088 80.2811 133.146 80.5803 133.096 80.7244Z" fill="#670202"/>
<path d="M133.308 78.2212C133.088 78.3258 132.901 78.2206 132.63 77.9753C132.812 77.8939 133.076 77.9526 133.308 78.2212Z" fill="#670202"/>
<path d="M94.4282 75.5625C94.4518 75.6591 94.3384 75.76 94.0942 75.877C94.0676 75.7821 94.177 75.6734 94.4282 75.5625Z" fill="#701414"/>
<path d="M132.712 75.2111C132.597 75.0207 132.694 74.8836 132.959 74.7324C133.009 74.8643 132.941 75.0464 132.712 75.2111Z" fill="#660000"/>
<path d="M128.342 75.2186C128.358 75.1216 128.519 75.0646 128.729 75.1008C128.778 75.194 128.486 75.2586 128.342 75.2186Z" fill="#660000"/>
<path d="M66.1851 3.45375C66.2244 3.33005 66.4309 3.26036 66.8045 3.20898C66.7651 3.32079 66.5587 3.41428 66.1851 3.45375Z" fill="#731818"/>
<path d="M133.107 64.5489C133.007 64.5393 132.938 64.3824 132.96 64.1693C133.051 64.1131 133.138 64.4015 133.107 64.5489Z" fill="#660000"/>
<path d="M33.3914 55.9258C33.4724 56.0266 33.4304 56.2263 33.2647 56.5233C33.1834 56.4219 33.2259 56.2233 33.3914 55.9258Z" fill="#7F3131"/>
<path d="M100.554 51.8477C100.551 51.9931 100.374 52.1033 100.122 52.0701C100.158 51.8885 100.269 51.8505 100.554 51.8477Z" fill="#690202"/>
<path d="M83.8101 52.1934C83.8433 52.3809 83.6704 52.5554 83.3147 52.7786C83.2892 52.6116 83.4465 52.396 83.8101 52.1934Z" fill="#690202"/>
<path d="M78.855 53.2151C78.6013 53.1604 78.5379 53.0044 78.4429 52.5977C78.6226 52.6026 78.834 52.8581 78.855 53.2151Z" fill="#670202"/>
<path d="M7.55174 44.7234C7.48761 44.646 7.54506 44.5051 7.7239 44.3008C7.79014 44.379 7.73282 44.5199 7.55174 44.7234Z" fill="#731919"/>
<path d="M91.9251 39.2565C92.0741 39.2796 91.9107 39.5246 91.9107 39.5246C91.9107 39.5246 91.6411 39.521 91.574 39.4454C91.5069 39.3698 91.776 39.2334 91.9251 39.2565Z" fill="#690101"/>
<path d="M89.5032 77.709C89.5685 77.7562 89.6472 77.865 89.7259 77.9739C89.6752 77.9289 89.6245 77.8838 89.5129 77.7501C89.452 77.6614 89.5166 77.7707 89.5032 77.709Z" fill="#660000"/>
</g>
<defs>
<clipPath id="clip0_188_4663">
<rect width="140" height="140" fill="white"/>
</clipPath>
</defs>
</svg>
