<svg width="140" height="37" viewBox="0 0 140 37" fill="none" xmlns="http://www.w3.org/2000/svg">
<g clip-path="url(#clip0_188_3444)">
<path fill-rule="evenodd" clip-rule="evenodd" d="M0 0.636719H36.7955V37.0045H0V0.636719Z" fill="black"/>
<path fill-rule="evenodd" clip-rule="evenodd" d="M1.06396 1.6875H35.731V35.9523H1.06396V1.6875Z" fill="#FFF200"/>
<path fill-rule="evenodd" clip-rule="evenodd" d="M2.90311 29.0306L7.42538 33.5869L18.0209 22.9619L28.9709 33.8058L33.5593 29.3149L22.7192 18.6024L24.8031 16.6089V12.3588L26.1111 11.2636V14.5933L27.7959 15.9514L32.8272 10.9786L34.4451 12.2053C35.3986 8.72213 29.879 0.813351 25.3129 5.19487L19.9925 10.4086L21.079 11.7014L18.3746 14.3083L15.7594 11.7667L17.1335 10.5393L11.304 4.9752C6.91556 1.40385 2.41559 6.83804 2.26025 12.1392L3.85583 10.8251L8.7541 16.0396L10.505 14.5941V11.3951L11.5908 12.2053V16.39L13.7185 18.4929L2.90311 29.0306Z" fill="black"/>
<path fill-rule="evenodd" clip-rule="evenodd" d="M46.1937 4.99561V8.15046H47.5678C49.4518 7.8001 48.9419 5.1271 47.5678 4.99561H46.1937ZM42.2928 1.86281V16.1474H46.1937V11.5029L49.5187 16.1474H54.1294L50.0293 10.4298C54.773 8.15125 52.9998 1.92894 48.0123 1.86359L42.2928 1.86281ZM60.3356 9.00472C61.6213 9.00472 62.6625 9.96842 62.6625 11.1518C62.6625 12.3344 61.6206 13.2988 60.3356 13.2988C59.0722 13.2988 58.0303 12.3344 58.0303 11.1518C58.0303 9.96842 59.0722 9.00472 60.3356 9.00472ZM59.5152 5.84987C60.5794 5.84987 61.5767 6.20023 62.3964 6.76948V6.22228H66.2089L66.2312 16.1466H62.3741L62.3964 15.5333C61.5767 16.1025 60.5794 16.4316 59.5152 16.4316C56.6777 16.4316 54.3508 14.0657 54.3508 11.1518C54.3508 8.23785 56.6785 5.84987 59.5152 5.84987ZM68.249 6.22228H72.3053V16.1466H68.249V6.22228ZM70.2875 0.547958C71.4633 0.547958 72.416 1.51166 72.416 2.67297C72.416 3.83429 71.4633 4.79799 70.2875 4.79799C69.091 4.79799 68.1375 3.8335 68.1375 2.67297C68.1383 1.51244 69.091 0.547958 70.2875 0.547958ZM101.077 6.22228H105.133V16.1466H101.077V6.22228ZM103.094 0.547958C104.291 0.547958 105.244 1.51166 105.244 2.67297C105.244 3.83429 104.291 4.79799 103.094 4.79799C101.919 4.79799 100.966 3.8335 100.966 2.67297C100.966 1.51244 101.919 0.547958 103.094 0.547958ZM73.0589 6.22228V9.37713H74.4553V16.1466H78.3793V9.37713H82.0588V16.1466H86.1151V9.33382H88.6419V6.26637H86.0035V4.05396C85.9374 3.24379 87.866 2.91469 88.5311 3.57211V0.329079C84.8071 -0.832239 81.7927 1.24947 81.8142 4.46967V6.22228H78.3562V4.05396C78.3116 3.24379 79.9972 2.91469 80.9714 3.57211V0.329079C77.7349 -0.612573 74.2777 0.942413 74.3 4.44763V6.20023L73.0589 6.22228ZM94.4267 16.4316C97.9071 16.4096 99.192 14.9861 99.9463 12.9044H96.4222C94.8258 14.92 92.4982 13.4524 92.6097 11.8092H100.058C100.058 7.77805 97.8848 5.87191 94.4275 5.87191C90.9703 5.87191 88.798 8.28195 88.798 11.2179C88.798 14.1539 91.324 16.4537 94.4267 16.4316ZM93.1187 9.46531C93.1633 8.2599 95.8232 8.2599 96 9.46531H93.1187ZM122.045 16.4316C125.547 16.4096 126.834 14.9861 127.587 12.9044H124.04C122.445 14.92 120.117 13.4524 120.228 11.8092H127.677C127.677 7.77805 125.527 5.87191 122.046 5.87191C118.588 5.87191 116.417 8.28195 116.417 11.2179C116.417 14.1539 118.942 16.4537 122.045 16.4316ZM120.737 9.46531C120.782 8.2599 123.442 8.2599 123.619 9.46531H120.737ZM115.352 6.4199L114.154 8.82993C112.647 8.36934 111.184 8.45752 111.229 8.87323C111.273 9.1362 111.029 9.59601 113.379 9.92511C116.88 10.4723 116.593 16.9135 110.719 16.4316C109.101 16.3222 107.793 15.9057 106.707 15.2703L108.015 12.6847C109.855 13.5831 111.628 14.109 111.761 13.2107C111.916 12.0934 109.832 12.4879 108.569 11.5454C106.308 10.1652 107.593 5.89317 111.295 5.84908C112.603 5.76247 113.955 5.98135 115.352 6.4199ZM129.228 6.22228V16.1466H133.019V10.0779C133.129 8.56617 136.144 8.3032 136.166 10.0779V16.1466H140V9.92511C139.912 6.44194 136.21 4.75469 132.862 6.9671V6.22228H129.228ZM44.5312 22.2154L42.0044 36.9378H49.1642C54.0186 36.9378 56.0133 30.9792 52.5553 28.9416C55.5035 26.2466 53.9963 22.1941 50.8267 22.1501L44.5312 22.2154ZM47.4348 31.0005L46.925 33.4326H48.5875C50.4714 33.52 50.25 31.0005 49.1642 31.0005H47.4348ZM48.2768 25.7206L47.8562 27.6929L48.366 27.7141C49.8955 27.8015 50.7821 25.7206 48.9419 25.7206H48.2768ZM54.1732 36.9598H58.5178L59.8258 34.3742H64.7464L65.4777 37.0039H69.4893L66.0098 22.3028H61.9089L54.1732 36.9598ZM61.2446 31.2855H63.949L63.0847 27.4071L61.2446 31.2855ZM70.8642 37.0039H74.8767L75.8955 27.7803L81.6366 36.9598H85.9366L87.7322 22.2146H83.7205L82.5901 31.4382L76.8483 22.1705H72.7036L70.8642 37.0039ZM90.6142 22.1713L87.7991 36.9598H92.033L93.1633 31.4382L96.9535 36.9598H102.517L97.0866 29.2038L104.025 22.1493H98.6383L93.8946 27.363L94.6482 22.1493L90.6142 22.1713Z" fill="black"/>
</g>
<defs>
<clipPath id="clip0_188_3444">
<rect width="140" height="37" fill="white"/>
</clipPath>
</defs>
</svg>
