<svg width="140" height="140" viewBox="0 0 140 140" fill="none" xmlns="http://www.w3.org/2000/svg">
<g clip-path="url(#clip0_178_1128)">
<path d="M122.458 124.803V123.436H16.224V124.803H122.458ZM12.3811 98.084H2.05811V99.7073H3.36255C3.69883 99.7073 4.21959 100.24 4.21959 100.577V104.502H10.5559V99.7058H12.3811V98.084ZM42.955 119.441V113.015H39.5312V115.765C39.5312 116.712 39.0823 117.819 38.2652 117.819H34.5393C34.203 117.819 33.7026 117.351 33.7026 117.017V109.826C33.7026 109.489 33.9597 109.228 34.296 109.228H35.3527C35.689 109.228 36.2025 109.767 36.2025 110.103V111.468H39.3583V105.019H36.2766V106.355C36.2766 106.691 35.7166 107.291 35.3803 107.291H34.2967C33.9604 107.291 33.7033 106.909 33.7033 106.571V100.411C33.7033 100.075 34.2037 99.7087 34.54 99.7087H38.1679C38.6378 99.7087 39.0518 100.137 39.0518 100.607V103.557H42.2345V98.084H25.1975V99.7073H26.502C26.8382 99.7073 27.3583 100.24 27.3583 100.577V117.066C27.3583 117.402 26.8579 117.819 26.5216 117.819H25.2186V119.44L42.955 119.441ZM49.2906 106.273L56.3619 119.441H62.603V100.516C62.603 100.179 63.1035 99.7073 63.4398 99.7073H64.7435V98.084H57.7433V99.7073H59.0536C59.3899 99.7073 59.891 100.177 59.891 100.513V111.63L52.296 98.084H44.417V99.7073H45.7208C46.0578 99.7073 46.5785 100.215 46.5785 100.551V117.041C46.5785 117.378 46.0774 117.819 45.7418 117.819H44.4381V119.44H51.4383V117.819H50.1287C49.7917 117.819 49.2913 117.381 49.2913 117.045L49.2906 106.273ZM69.6497 105.814L66.1699 117.116C66.0407 117.464 65.8373 117.821 65.501 117.821H64.1428V119.442H70.6614L70.6476 117.821H69.3461C69.0098 117.821 68.6561 117.457 68.7527 117.12L70.1334 112.085C70.1654 111.954 70.2511 111.837 70.3862 111.837H73.035V109.871L71.127 109.873C70.9912 109.873 70.8307 109.74 70.872 109.606L71.9441 105.814H69.6497Z" fill="#212529"/>
<path d="M73.0359 111.836H75.4901C75.6252 111.836 75.7429 111.952 75.7741 112.084L77.1555 117.12C77.2536 117.456 76.8984 117.821 76.5629 117.821H75.2592L75.2461 119.441H85.9351V117.821H84.5777C84.2414 117.821 84.0373 117.464 83.908 117.115L78.3104 98.084H68.8931V99.7073H69.9586C70.9405 99.7109 71.3168 100.422 71.1221 101.124L69.6492 105.813H71.9436L72.9822 102.222L75.0899 109.602C75.1328 109.738 74.9425 109.871 74.8074 109.871H73.0345V111.836H73.0359ZM101.988 114.468L101.989 100.585C101.989 100.248 102.507 99.7087 102.843 99.7087H104.141V98.0854H97.641V99.7087H98.9447C99.281 99.7087 99.7974 100.261 99.7974 100.597L99.796 114.543C99.7531 118.37 92.8735 118.771 92.8307 114.387V100.569C92.8307 100.232 93.3471 99.7087 93.6834 99.7087H94.9813V98.0854H84.3438V99.7087H85.649C85.9853 99.7087 86.5017 100.241 86.5017 100.579V114.533C86.5009 121.411 101.988 121.776 101.988 114.468ZM114.151 100.559C114.151 100.222 114.675 99.7073 115.013 99.7073H116.319V98.084H105.651V99.7073H106.956C107.292 99.7073 107.813 100.215 107.813 100.551V117.041C107.813 117.377 107.313 117.819 106.977 117.819H105.916V119.44H122.455V112.989H119.029V115.739C119.029 116.685 118.582 117.818 117.765 117.818H114.986C114.648 117.818 114.149 117.325 114.149 116.988L114.151 100.559Z" fill="#212529"/>
<path d="M129.095 119.442H134.42V117.821H133.116C132.78 117.821 132.264 117.347 132.264 117.011V100.071C132.264 99.8693 132.423 99.7117 132.625 99.7117C134.177 99.7712 134.846 100.275 134.846 102.396V104.375H137.942V98.0847H120.25V104.375H123.346V102.396C123.346 100.275 124.014 99.7712 125.565 99.7117C125.767 99.7117 125.928 99.8693 125.928 100.071V117.009C125.928 117.346 125.412 117.82 125.075 117.82H123.772V119.44L129.095 119.442ZM11.2216 109.086C11.4824 109.086 11.8404 109.348 11.9886 109.622L12.0097 109.642L16.3247 119.44H23.7214V117.82H23.2021C22.7576 117.82 22.5339 117.261 22.2644 116.796L17.7773 108.888C20.5162 108.888 21.8896 106.731 21.9223 103.858C21.8896 100.957 20.5961 98.0833 17.2173 98.0833H12.3815V99.7058H12.9626C15.9383 99.7058 15.9818 107.447 12.9626 107.447H10.5563V104.501H4.22003V117.073C4.22003 117.41 3.72033 117.818 3.38405 117.818H2.08105V119.439H12.7062V117.818H11.3938C11.0575 117.818 10.5571 117.38 10.5571 117.044L10.5636 109.085H11.2914H11.2216V109.086ZM70.436 70.5918L63.929 81.8648C63.7169 82.228 63.1722 81.9186 63.3116 81.5424L68.7284 69.1058L57.9391 50.4194L43.1544 50.423C43.1733 50.6177 43.3055 50.8748 43.3346 50.946L62.3115 83.8172C62.427 83.99 62.6507 84.2282 62.9427 84.2312H77.0105C77.2959 84.2282 77.5225 84.0409 77.5981 83.9188L96.5968 50.9888C96.6578 50.8922 96.7871 50.601 96.9469 50.2109H82.2123L70.0089 71.3283L70.436 70.5918Z" fill="#212529"/>
<path d="M80.0909 50.2912H96.7945C96.9176 50.2919 97.0362 50.245 97.1256 50.1602C97.2149 50.0755 97.268 49.9595 97.2738 49.8365C97.2942 49.4167 97.1983 48.9511 96.992 48.5836L77.9766 15.6863C77.7623 15.3304 77.3861 15.1786 76.9874 15.1968H63.0343C62.6435 15.1866 62.2194 15.3522 61.9898 15.6827L61.9673 15.7175L43.0507 48.5851C42.8226 48.9925 42.6839 49.5358 42.6534 49.9999C42.645 50.1268 42.6874 50.2517 42.7711 50.3474C42.8549 50.443 42.9732 50.5014 43.1001 50.5098L43.1313 50.5105H59.9576L69.5957 67.1197C69.638 67.1923 69.6986 67.2525 69.7714 67.2943C69.8443 67.3362 69.9269 67.3581 70.0109 67.3579C70.0949 67.3578 70.1774 67.3356 70.2501 67.2935C70.3228 67.2514 70.3832 67.191 70.4252 67.1183L80.0582 50.3551C80.0711 50.3349 80.082 50.3135 80.0909 50.2912ZM79.199 49.9266L70.0083 65.9198L60.7631 49.9869L70.0097 33.9725L79.199 49.9266ZM59.9075 49.5511H43.6956C43.745 49.3702 43.8024 49.2213 43.8881 49.0536L62.7801 16.2274L62.8854 16.1686C62.9253 16.1511 62.9791 16.1548 63.019 16.1548C63.0873 16.1562 77.0404 16.1548 77.0702 16.1519C77.0863 16.1493 77.1028 16.1511 77.118 16.1571C77.1332 16.1631 77.1465 16.1731 77.1566 16.186L96.1539 49.0543C96.2018 49.1472 96.2359 49.23 96.2628 49.331H79.9623L70.4252 32.7734C70.3831 32.7005 70.3225 32.64 70.2496 32.5979C70.1768 32.5558 70.0941 32.5336 70.0099 32.5335C69.9258 32.5335 69.8431 32.5555 69.7701 32.5975C69.6972 32.6395 69.6365 32.6999 69.5943 32.7727L59.9075 49.5511Z" fill="#CF7F00"/>
<path d="M57.7986 49.6127H60.3668L70.0093 33.0137L79.484 49.4798L82.0856 49.4812L71.2549 30.7243L76.7349 18.2711C76.8794 17.9363 76.2962 17.6654 76.1037 17.9958L57.7986 49.6127ZM61.9582 83.9844C62.1732 84.3621 62.5218 84.5894 62.9532 84.6367L62.9794 84.6396H77.0886C77.4648 84.6265 77.8578 84.4304 78.0648 84.1094L97.0991 51.1161C97.1761 50.9462 97.2197 50.3702 97.2436 50.092L96.2893 50.0085L96.2384 50.5809L96.2174 50.7254L77.2622 83.5821C77.2384 83.6114 77.2085 83.6353 77.1747 83.6522C77.1409 83.6692 77.1039 83.6786 77.0661 83.6801H63.0367C62.9372 83.6721 62.8377 83.59 62.7905 83.508L43.8274 50.66C43.7733 50.5407 43.7279 50.4176 43.6916 50.2918C43.6762 50.1655 43.6112 50.0505 43.511 49.9722C43.4108 49.8938 43.2836 49.8584 43.1574 49.8738C43.0311 49.8892 42.9161 49.9541 42.8377 50.0543C42.7593 50.1545 42.724 50.2817 42.7394 50.408C42.7524 50.5133 42.7808 50.6375 42.8185 50.7363L42.9645 51.0849L61.9582 83.9844Z" fill="#CF7F00"/>
</g>
<defs>
<clipPath id="clip0_178_1128">
<rect width="140" height="140" fill="white"/>
</clipPath>
</defs>
</svg>
