<svg width="200" height="46" viewBox="0 0 200 46" fill="none" xmlns="http://www.w3.org/2000/svg">
<g clip-path="url(#clip0_190_7246)">
<path d="M5.31028 45.9421C2.26412 45.9421 0.137553 45.0128 0.137553 45.0128V42.3411C0.137553 42.3411 3.35614 43.3866 5.25281 43.3866C6.91957 43.3866 8.58634 43.0962 8.58634 41.0052C8.58634 39.4371 7.43685 39.0886 5.99998 38.682L4.67806 38.3335C2.95382 37.8108 0.0800781 37.1138 0.0800781 33.5709C0.0800781 29.6214 3.24119 28.634 6.51725 28.634C9.44846 28.634 11.1152 29.6214 11.1152 29.6214V32.235C11.1152 32.235 8.93119 31.1896 6.4023 31.1896C4.33321 31.1896 3.01129 31.5962 3.01129 33.3967C3.01129 34.9648 4.21826 35.3133 5.65513 35.7199L7.26442 36.1845C9.16109 36.7073 11.575 37.8108 11.575 40.9472C11.6325 44.8967 8.75877 45.9421 5.31028 45.9421ZM22.7251 45.9421C19.5065 45.9421 15.0235 44.8967 15.0235 37.2881C15.0235 29.8537 19.564 28.634 22.7251 28.634C25.7138 28.634 30.4267 29.6795 30.4267 37.2881C30.4267 45.0128 25.7713 45.9421 22.7251 45.9421ZM22.7251 30.9573C21.0009 30.9573 18.1271 31.48 18.1271 37.2881C18.1271 43.1542 21.4607 43.5608 22.7251 43.5608C24.2769 43.5608 27.3231 42.9219 27.3231 37.2881C27.2656 31.4219 24.3919 30.9573 22.7251 30.9573ZM34.45 45.6517V23.4648H37.5536V45.6517H34.45ZM52.9568 45.6517L52.6695 43.5027C52.6695 43.5027 50.7728 46.0002 47.2668 46.0002C44.738 46.0002 41.9792 45.0709 41.9792 40.8891C41.9792 36.2426 46.2898 35.3714 48.9336 35.3714H52.5545V33.9194C52.5545 31.7704 51.2901 31.2477 49.106 31.2477C46.4622 31.2477 43.3586 32.4093 43.3586 32.4093V29.8537C43.3586 29.8537 46.1748 28.6921 49.5658 28.6921C53.1867 28.6921 55.6582 30.028 55.6582 34.4421V45.7098H52.9568V45.6517ZM52.5545 37.23L49.5658 37.2881C46.7496 37.3462 45.0253 38.1012 45.0253 40.7729C45.0253 42.9219 46.3473 43.5608 48.014 43.5608C50.313 43.5608 52.5545 41.4118 52.5545 41.4118V37.23ZM66.9232 31.48C65.084 31.48 63.6472 33.5128 63.6472 33.5128V45.6517H60.5435V28.9244H63.0149L63.4173 31.2477C63.4173 31.2477 64.4518 28.634 67.2681 28.634C68.8774 28.634 69.5096 29.0987 69.5096 29.0987V31.9446C69.5096 31.9446 68.5325 31.48 66.9232 31.48ZM94.1088 45.6517H89.7982L87.2118 36.7653C86.5221 34.384 85.545 30.4926 85.545 30.4926C85.545 30.4926 84.5105 34.4421 83.8208 36.7073L81.2919 45.6517H76.9813L72.6132 28.9244H76.1766L78.1883 38.5078C78.6481 40.7148 79.1653 44.1997 79.1653 44.1997C79.1653 44.1997 79.7976 40.7148 80.4873 38.5078L83.3035 28.9244H87.7866L90.6028 38.5078C91.235 40.6568 91.9247 44.1997 91.9247 44.1997C91.9247 44.1997 92.442 41.0052 92.9593 38.5078L94.9709 28.9244H98.4769L94.1088 45.6517ZM102.385 45.6517V28.8664H105.489V45.6517H102.385ZM121.927 45.6517V34.2098C121.927 32.1189 121.064 31.3638 118.938 31.3638C116.179 31.3638 113.478 33.4547 113.478 33.4547V45.6517H110.374V28.9244H112.788L113.42 31.3058C113.42 31.3058 116.179 28.634 119.685 28.634C122.731 28.634 125.03 29.9699 125.03 34.2679V45.6517H121.927ZM141.238 45.6517L140.893 43.5608C140.893 43.5608 139.169 46.0002 135.548 46.0002C132.962 46.0002 128.709 44.8386 128.709 37.3462C128.709 29.7376 133.996 28.6921 136.18 28.6921C139.169 28.6921 140.548 30.3765 140.548 30.3765V23.4648H143.652V45.6517H141.238ZM140.548 32.8159C140.548 32.8159 138.824 31.1315 136.468 31.1315C134.169 31.1315 131.812 32.0608 131.812 37.2881C131.812 42.8058 134.226 43.4446 136.18 43.4446C138.422 43.4446 140.548 41.528 140.548 41.528V32.8159ZM153.25 45.9421C150.204 45.9421 148.078 45.0128 148.078 45.0128V42.3411C148.078 42.3411 151.296 43.3866 153.193 43.3866C154.86 43.3866 156.526 43.0962 156.526 41.0052C156.526 39.4371 155.377 39.0886 153.94 38.682L152.618 38.3335C150.894 37.8108 148.02 37.1138 148.02 33.5709C148.02 29.6214 151.181 28.634 154.457 28.634C157.388 28.634 159.055 29.6214 159.055 29.6214V32.235C159.055 32.235 156.871 31.1896 154.342 31.1896C152.273 31.1896 150.951 31.5962 150.951 33.3967C150.951 34.9648 152.158 35.3133 153.595 35.7199L155.204 36.1845C157.101 36.7073 159.515 37.8108 159.515 40.9472C159.573 44.8967 156.756 45.9421 153.25 45.9421Z" fill="#212529"/>
<path d="M174.114 18.7611C174.286 18.703 174.401 18.703 174.516 18.6449C177.677 17.7156 180.723 16.4959 183.827 15.2181C186.816 13.9404 189.747 12.4303 192.391 10.2813C195.034 8.07421 197.161 5.22825 198.368 1.7434C198.54 1.27875 198.885 0.523704 198.885 0.000976562C194.747 5.75098 178.252 6.33178 178.252 6.33178L182.16 2.73077C166.527 2.78886 155.607 9.46815 150.606 13.0692C156.986 13.7661 162.791 16.4959 167.332 20.6197C169.573 19.9227 171.872 19.4 174.114 18.7611ZM199.92 18.1803C199.92 18.1803 184.746 17.0187 168.941 22.1298C171.01 24.3368 172.792 26.8924 174.171 29.6222C182.447 25.0338 194 19.0515 199.92 18.1803ZM175.206 32.0616C176.183 34.5591 176.815 37.2308 177.102 40.0187L191.586 24.9757L175.206 32.0616Z" fill="#212529"/>
</g>
<defs>
<clipPath id="clip0_190_7246">
<rect width="200" height="46" fill="white"/>
</clipPath>
</defs>
</svg>
