<svg width="80" height="90" viewBox="0 0 80 90" fill="none" xmlns="http://www.w3.org/2000/svg">
<g clip-path="url(#clip0_188_3558)">
<path d="M64.1997 65.6283C63.2808 65.8633 62.3664 66.118 61.4416 66.3277C60.5949 66.5198 59.737 66.6634 58.8596 66.795C59.4069 66.4297 59.9853 66.1084 60.549 65.7636C62.7271 64.4316 64.7041 62.8399 66.5197 61.0633C68.3094 59.312 69.9364 57.4183 71.3563 55.3511C72.89 53.1182 74.1916 50.7597 75.1871 48.2542C76.5093 44.9265 77.3884 41.4826 77.7313 37.9062C77.9477 35.6484 77.9661 33.392 77.7709 31.1436C77.5181 28.2303 76.963 25.3643 76.0037 22.5868C75.2751 20.4769 74.4407 18.4125 73.3121 16.4764C73.2123 16.3052 73.0213 16.1861 72.8558 16.0204C72.8187 15.9459 72.7984 15.8938 72.7756 15.8042C72.6418 15.3299 72.5105 14.893 72.376 14.4217C72.2935 14.1768 72.2143 13.9663 72.1284 13.7192C72.0187 13.4386 71.9156 13.1948 71.8085 12.9181C71.7355 12.7492 71.6664 12.6131 71.5932 12.4426C71.3841 12.0877 71.1791 11.7673 70.9517 11.4213C70.7564 11.2263 70.5836 11.0569 70.3976 10.8598C70.2606 10.7067 70.1367 10.5813 69.9868 10.4296C69.7447 10.2676 69.5288 10.1321 69.2972 9.9664C69.0507 9.78151 68.8199 9.62676 68.5638 9.4446C68.18 9.22449 67.8214 9.03178 67.4277 8.82571C67.2272 8.71743 67.0616 8.62252 66.8868 8.4946C66.7473 8.29388 66.6301 8.11406 66.4848 7.9603C64.921 6.30584 63.1001 4.94784 61.2544 3.63291C60.3027 2.95489 59.2326 2.43819 58.2071 1.86419C57.8863 1.6846 57.5364 1.55596 57.2407 1.39844C58.2916 1.5905 59.3085 1.75902 60.3097 1.99299C61.6129 2.29751 62.9036 2.65399 64.2156 3.01655C64.6072 3.28331 65.0043 3.49428 65.3549 3.7643C67.8148 5.6584 69.9483 7.87882 71.8136 10.3377C74.3589 13.6927 76.3974 17.3265 77.7796 21.3129C78.9717 24.7511 79.6717 28.2774 79.9086 31.9004C79.9192 32.0628 80.0338 32.2186 80.1 32.3775C80.1 32.8418 80.1 33.3061 80.0701 33.8361C79.6191 34.5937 79.8107 35.3388 79.8663 36.0663C79.8811 36.2606 80.0188 36.4456 80.1 36.6349C80.1 36.6789 80.1 36.7229 80.0749 36.8241C79.9334 37.176 79.7509 37.4628 79.7138 37.767C79.6241 38.5012 79.6456 39.2494 79.5454 39.9817C79.1801 42.6525 78.5001 45.2439 77.5816 47.785C76.7306 50.1393 75.6573 52.3814 74.3786 54.5287C73.0985 56.6782 71.6031 58.679 69.9094 60.5264C68.2447 62.342 66.5745 64.1588 64.3983 65.4132C64.3174 65.4598 64.2652 65.5555 64.1997 65.6283Z" fill="#212529"/>
<path d="M64.2153 3.01562C66.2199 3.67137 68.2772 4.26667 70.2502 5.06579C72.0714 5.80339 73.7953 6.77399 75.5767 7.61166C76.1893 7.89976 76.3744 8.44702 76.5814 8.98773C77.6084 11.6716 78.3619 14.4351 78.875 17.2556C79.1865 18.9679 79.3867 20.7014 79.5935 22.4305C79.7351 23.6141 79.8 24.8066 79.906 25.9946C79.9137 26.0809 79.977 26.1624 80.0571 26.2421C80.0997 28.2532 80.0997 30.2685 80.0997 32.3302C80.0335 32.2177 79.9189 32.0619 79.9083 31.8995C79.6714 28.2765 78.9714 24.7502 77.7793 21.3119C76.3971 17.3255 74.3586 13.6918 71.8133 10.3367C69.9479 7.87789 67.8145 5.65747 65.3546 3.76337C65.004 3.49335 64.6069 3.28238 64.2153 3.01562Z" fill="#212529"/>
<path d="M46.0561 0.0976562C46.2001 0.163488 46.2975 0.281373 46.4011 0.28699C47.3024 0.335863 48.2048 0.364611 49.1635 0.423031C49.2801 0.435567 49.3401 0.424413 49.4 0.413259C49.5407 0.410579 49.6813 0.4079 49.8797 0.425385C49.9596 0.462542 49.9828 0.477864 50.0071 0.491518C50.0071 0.491518 50.0014 0.493197 50.0183 0.52237C50.1907 0.62987 50.3385 0.734428 50.5031 0.781422C50.9326 0.904082 51.3801 0.970697 51.8016 1.11391C55.2691 2.29194 58.4519 4.00099 61.3717 6.19161C61.5075 6.29352 61.592 6.46241 61.66 6.60339C61.0796 6.48684 60.5396 6.36701 59.9638 6.23035C59.1871 6.05266 58.4461 5.89179 57.6821 5.69857C57.2061 5.58173 56.7531 5.49725 56.2881 5.38282C56.145 5.23174 56.0327 5.07564 55.8797 4.99556C55.2478 4.66468 54.6063 4.35152 53.9635 4.04147C51.6577 2.9292 49.2152 2.21894 46.7159 1.70549C43.5867 1.06265 40.422 0.925618 37.2373 1.18083C34.8395 1.373 32.4716 1.763 30.203 2.54491C28.2587 3.21505 26.3698 4.04566 24.4716 4.84087C24.1421 4.97891 23.8882 5.29385 23.5647 5.53971C23.3869 5.58777 23.2437 5.6232 23.0625 5.66138C22.3163 5.85468 21.6081 6.04523 20.8606 6.2309C20.2433 6.41783 19.6651 6.60964 19.0479 6.80393C18.6486 6.92471 18.2885 7.04299 17.8977 7.17931C17.6064 7.29679 17.3457 7.39625 17.0545 7.50132C16.9829 7.51392 16.9421 7.5209 16.9111 7.49539C17.1651 7.19715 17.3786 6.89367 17.6579 6.67149C20.3635 4.51992 23.3289 2.80229 26.5428 1.50555C27.0299 1.30902 27.5144 1.10624 28.0002 0.906357C28.0436 0.900618 28.0871 0.894879 28.194 0.90257C28.4384 0.879778 28.6193 0.843555 28.8002 0.807333C29.6785 0.703609 30.5543 0.562994 31.4358 0.504453C32.9084 0.406641 34.3848 0.362944 35.8592 0.289582C35.945 0.285313 36.0277 0.219577 36.1058 0.140051C39.1353 0.0976562 42.1707 0.0976563 45.2651 0.102954C45.3241 0.108252 45.3631 0.111205 45.3631 0.111205L45.3999 0.0976562C45.604 0.0976562 45.8082 0.0976562 46.0561 0.0976562Z" fill="#212529"/>
<path d="M35.4465 90.099C35.3003 88.8633 35.198 87.6278 35.1036 86.3917C35.0863 86.1654 35.1011 85.9366 35.1011 85.7821C35.4732 85.6408 35.9286 85.6101 36.0593 85.3902C36.3847 84.8426 36.6832 84.2268 36.7766 83.6065C37.0625 81.7062 37.2469 79.7909 37.4745 77.8496C39.661 77.8496 41.886 77.8496 44.1999 77.8496C44.1999 78.0375 44.1999 78.2264 44.1999 78.4154C44.1999 80.5097 44.1956 82.6041 44.2047 84.6984C44.206 85.0015 44.272 85.3044 44.313 85.6494C44.6915 85.6494 45.018 85.6494 45.4333 85.6494C45.2855 87.1422 45.1433 88.5784 45.0005 90.0568C44.531 90.099 44.062 90.099 43.5465 90.0534C43.4665 89.3063 43.3952 88.6039 43.4133 87.9037C43.4251 87.4443 43.1992 87.3311 42.8291 87.33C41.0856 87.3246 39.3421 87.3297 37.5986 87.3256C37.2201 87.3247 37.103 87.4919 37.0887 87.8656C37.0601 88.6114 36.9666 89.3547 36.8999 90.099C36.431 90.099 35.962 90.099 35.4465 90.099ZM39.5881 79.5061C39.4926 79.5853 39.3267 79.6542 39.3129 79.7455C39.2234 80.3382 39.1692 80.936 39.0994 81.5316C39.0105 82.2894 38.9603 83.055 38.8133 83.8018C38.6931 84.4129 38.4556 85.0015 38.2566 85.6434C39.356 85.6434 40.4659 85.6264 41.5748 85.6519C42.006 85.6618 42.1104 85.4972 42.1067 85.1021C42.0906 83.3891 42.1006 81.6758 42.0982 79.9627C42.098 79.8211 42.0759 79.6796 42.0612 79.5052C41.2411 79.5052 40.4613 79.5052 39.5881 79.5061Z" fill="#212529"/>
<path d="M0.100098 74.3042C3.23099 74.2578 6.36189 74.2578 9.61914 74.2578C9.655 74.8689 9.69026 75.4697 9.72887 76.1275C8.45858 76.1275 7.26712 76.1275 6.02553 76.1275C6.02553 79.8642 6.02553 83.5501 6.02553 87.2815C5.24021 87.2815 4.50441 87.2815 3.71681 87.2815C3.71681 83.5925 3.71681 79.9066 3.71681 76.139C2.50958 76.139 1.35171 76.139 0.146963 76.139C0.100098 75.5428 0.100098 74.9467 0.100098 74.3042Z" fill="#212529"/>
<path d="M64.2388 65.6321C64.2649 65.5538 64.317 65.4582 64.3979 65.4115C66.5741 64.1572 68.2444 62.3403 69.909 60.5247C71.6027 58.6774 73.0981 56.6766 74.3782 54.527C75.6569 52.3797 76.7302 50.1377 77.5812 47.7833C78.4997 45.2422 79.1797 42.6509 79.5451 39.98C79.6452 39.2477 79.6237 38.4996 79.7134 37.7653C79.7505 37.4611 79.933 37.1744 80.0745 36.8555C80.0997 37.4274 80.0997 38.0236 80.0997 38.6661C80.0342 38.7821 79.9175 38.8474 79.9111 38.922C79.8313 39.8509 79.7853 40.7829 79.6947 41.7107C79.5948 42.7335 79.4564 43.7525 79.338 44.7736C79.3153 44.9688 79.3076 45.1657 79.2729 45.4226C79.2345 45.5065 79.2179 45.5307 79.2029 45.5559C79.0022 46.9118 78.8015 48.2677 78.5633 49.6822C78.3594 50.235 78.2427 50.7528 78.0169 51.2188C77.3708 52.5523 76.7167 53.8846 75.9958 55.1793C75.4354 56.1856 74.8147 57.1661 74.1399 58.1008C73.3678 59.1703 72.5501 60.2149 71.6716 61.1998C70.7204 62.2663 69.8676 63.4509 68.5506 64.1467C68.4447 64.2026 68.3822 64.3393 68.2995 64.4384C67.4613 64.7052 66.6257 64.9804 65.7838 65.2355C65.2871 65.3861 64.7804 65.5047 64.2388 65.6321Z" fill="#212529"/>
<path d="M80.1001 36.5871C80.0189 36.4442 79.8812 36.2592 79.8664 36.0649C79.8108 35.3374 79.6192 34.5923 80.0702 33.8809C80.1001 34.7544 80.1001 35.6475 80.1001 36.5871Z" fill="#212529"/>
<path d="M45.3748 0.0976562C45.3998 0.0976562 45.3631 0.111341 45.3631 0.111341C45.3631 0.111341 45.3241 0.108358 45.3119 0.103007C45.2998 0.0976563 45.3498 0.0976562 45.3748 0.0976562Z" fill="#212529"/>
<path d="M36.8887 68.3212C35.1896 68.2527 33.4874 68.2268 31.7923 68.1032C30.2081 67.9877 28.6316 67.7686 27.0086 67.5328C26.6643 67.3577 26.3549 67.2626 26.0635 67.1291C25.0827 66.6797 24.1006 66.232 23.1331 65.7557C21.1255 64.7674 19.2731 63.5207 17.5471 62.1254C16.097 60.9532 14.7699 59.6233 13.4564 58.2971C12.6322 57.465 11.8803 56.549 11.1902 55.6033C9.75573 53.6376 8.45621 51.5886 7.42447 49.3758C6.21699 46.7862 5.31696 44.0953 4.75574 41.3092C4.22212 38.6602 3.89844 35.9759 4.10001 33.2598C4.2048 31.8479 4.22809 30.4227 4.44603 29.0277C5.18728 24.2831 6.77382 19.828 9.32395 15.7281C9.43966 15.542 9.63918 15.4071 9.80287 15.2812C9.80777 15.3581 9.80944 15.4021 9.79109 15.4763C9.7268 15.6872 9.68254 15.8678 9.62464 16.088C9.56802 16.4605 9.52504 16.7934 9.46437 17.1615C9.41241 17.4666 9.37815 17.7365 9.33258 18.0452C9.30035 18.3916 9.27941 18.6992 9.24602 19.0437C9.22987 19.3541 9.22618 19.6275 9.21702 19.9404C9.2059 20.0858 9.20025 20.1918 9.16283 20.3095C8.98663 20.5155 8.7994 20.6912 8.70412 20.9067C6.88322 25.0256 6.00454 29.3608 5.93291 33.8324C5.90145 35.7968 6.15093 37.7763 6.405 39.7321C6.83135 43.0141 7.90017 46.1242 9.35934 49.0872C10.5357 51.476 11.9843 53.7023 13.7147 55.7541C15.1395 57.4436 16.6621 59.0262 18.3884 60.4054C22.0728 63.3489 26.1683 65.5084 30.7361 66.8121C34.8454 67.9849 39.0218 68.2315 43.2502 67.9261C46.9068 67.6619 50.3977 66.7045 53.7524 65.2624C57.3443 63.7183 60.5639 61.6033 63.412 58.9436C65.3924 57.0941 67.1346 55.0466 68.6329 52.7887C70.4118 50.1078 71.7555 47.2348 72.7132 44.1756C73.5609 41.4679 74.0613 38.6965 74.1823 35.8703C74.2724 33.7632 74.2759 31.645 73.853 29.5629C73.5059 27.8535 73.0881 26.1581 72.708 24.4198C72.8379 23.9121 72.9613 23.4413 73.0894 22.9282C73.0905 22.7161 73.087 22.5462 73.1023 22.3417C73.1457 22.0987 73.1703 21.8905 73.2127 21.6483C73.2596 21.4065 73.2885 21.1986 73.3485 21.0042C73.4509 21.1045 73.5554 21.1804 73.5882 21.2796C74.0328 22.6253 74.553 23.954 74.8825 25.3273C75.2852 27.0057 75.6341 28.7114 75.8075 30.425C76.0023 32.3501 76.1132 34.3046 76.0064 36.2326C75.8985 38.1808 75.5727 40.131 75.1763 42.0467C74.4566 45.5251 73.1223 48.782 71.3658 51.8861C69.7398 54.7596 67.7148 57.323 65.3775 59.6334C64.1245 60.8721 62.7194 61.9768 61.2947 63.0245C58.6514 64.9683 55.851 66.651 52.6373 67.5403C52.5494 67.5647 52.4787 67.6501 52.4 67.707C51.9816 67.7773 51.5657 67.8782 51.1443 67.9118C50.0736 67.9973 49.0009 68.0625 47.9281 68.1177C46.457 68.1934 44.9856 68.2767 43.5133 68.3129C41.3725 68.3655 39.2307 68.379 37.0256 68.3891C36.9386 68.3514 36.9142 68.3354 36.8887 68.3212Z" fill="#212529"/>
<path d="M0.622522 38.9144C0.617006 38.4159 0.61149 37.9174 0.6371 37.3548C0.650967 37.1377 0.633709 36.9845 0.61645 36.8313C0.612593 35.2108 0.608735 33.5902 0.636833 31.9061C0.65171 31.6572 0.63463 31.472 0.617551 31.2868C0.614722 30.9853 0.611892 30.6838 0.629107 30.3209C0.667 30.2369 0.682858 30.213 0.696727 30.1878C0.6994 30.1159 0.702073 30.0441 0.734601 29.9207C0.748862 29.7477 0.733269 29.6261 0.717676 29.5046C0.71427 29.3013 0.710864 29.0979 0.727283 28.8344C0.765383 28.7512 0.781771 28.727 0.79627 28.7015C0.799117 28.5987 0.801965 28.496 0.837686 28.3344C0.879009 28.0221 0.88746 27.7688 0.89591 27.5154C0.898847 27.4434 0.901785 27.3713 0.940867 27.2455C1.04821 27.0496 1.16581 26.9129 1.18355 26.7644C1.39569 24.9891 1.83136 23.2688 2.4151 21.5793C3.76738 17.6657 5.6907 14.0525 8.19163 10.7404C9.53831 8.95683 11.0209 7.28885 12.6511 5.75712C13.3838 5.06867 14.1918 4.45722 14.9818 3.83089C15.2614 3.60926 15.5891 3.44719 15.8949 3.25793C15.8949 3.25793 15.8965 3.26442 15.912 3.25271C15.9518 3.22385 15.9751 3.20536 15.9973 3.18552C17.6397 2.79627 19.282 2.40645 20.9249 2.01926C21.0197 1.99691 21.1196 1.99592 21.2388 2.01795C20.782 2.27461 20.2751 2.45333 19.8301 2.72965C17.7394 4.02778 15.7717 5.48999 14.0323 7.23026C12.9932 8.26994 11.9466 9.30997 10.9962 10.4272C9.45055 12.2443 8.1071 14.2039 6.9425 16.2913C5.81825 18.3065 4.88672 20.4032 4.17004 22.5792C2.63695 27.2341 2.03867 32.0142 2.38562 36.9129C2.59771 39.9074 3.1527 42.8308 4.07279 45.6811C5.0856 48.8187 6.47654 51.787 8.31821 54.5433C9.70839 56.6238 11.201 58.6189 13.0157 60.3606C13.7444 61.06 14.4596 61.776 15.2221 62.4379C16.9119 63.9047 18.635 65.3315 20.7064 66.267C20.8193 66.318 20.9028 66.4329 21 66.5181C20.0059 66.3115 19.0087 66.1181 18.0187 65.8938C17.299 65.7308 16.5888 65.5268 15.8183 65.3199C15.7394 65.2806 15.7152 65.2645 15.6897 65.2503C15.6897 65.2503 15.6442 65.2436 15.6047 65.2102C14.8323 64.6156 14.0802 64.0771 13.3703 63.4886C11.6416 62.0554 10.1616 60.3793 8.76397 58.6414C7.02932 56.4843 5.55742 54.1544 4.33447 51.67C2.84015 48.6342 1.6305 45.5125 1.16943 42.1408C1.11136 41.7161 0.936894 41.3071 0.816355 40.8907C0.810311 40.8176 0.804268 40.7444 0.813218 40.5996C0.790933 40.2198 0.753655 39.9117 0.716377 39.6036C0.710728 39.4367 0.705079 39.2697 0.687304 39.0426C0.659201 38.9585 0.641649 38.9359 0.622522 38.9144Z" fill="#212529"/>
<path d="M21.0357 66.5357C20.9033 66.4321 20.8198 66.3172 20.7069 66.2662C18.6355 65.3307 16.9124 63.9039 15.2226 62.4371C14.4601 61.7751 13.7449 61.0592 13.0161 60.3597C11.2015 58.618 9.70887 56.623 8.31869 54.5425C6.47702 51.7862 5.08608 48.8179 4.07327 45.6803C3.15318 42.83 2.59819 39.9066 2.3861 36.9121C2.03915 32.0134 2.63743 27.2333 4.17052 22.5784C4.8872 20.4024 5.81873 18.3056 6.94298 16.2905C8.10758 14.2031 9.45104 12.2435 10.9967 10.4264C11.9471 9.30915 12.9937 8.26912 14.0328 7.22944C15.7722 5.48917 17.7398 4.02696 19.8306 2.72883C20.2756 2.45251 20.7825 2.27379 21.2806 2.02308C22.0798 1.82832 22.8543 1.63169 23.6398 1.49931C24.9615 1.27658 26.2901 1.09375 27.6163 0.897416C27.7135 0.883032 27.8146 0.895082 27.9572 0.900875C27.5148 1.1068 27.0302 1.30957 26.5431 1.5061C23.3292 2.80284 20.3638 4.52047 17.6583 6.67204C17.3789 6.89422 17.1655 7.1977 16.89 7.52425C16.506 7.73389 16.1533 7.88275 15.7659 8.03442C15.4618 8.17801 15.1923 8.3188 14.8923 8.47066C14.7081 8.56298 14.5543 8.64421 14.3668 8.73024C14.0889 8.89476 13.8447 9.05448 13.5677 9.22089C13.2877 9.4134 13.0406 9.5992 12.7629 9.79823C12.5546 9.97219 12.3769 10.1329 12.1714 10.3112C11.9896 10.5137 11.8357 10.6986 11.6537 10.9006C11.5113 11.1046 11.397 11.2915 11.2545 11.4981C11.1023 11.7983 10.9783 12.0786 10.8343 12.3858C10.7308 12.6274 10.6474 12.8422 10.543 13.0836C10.4499 13.3272 10.3779 13.5443 10.2833 13.7908C10.1886 14.0599 10.1163 14.2996 10.0241 14.5672C9.93597 14.8122 9.8678 15.0295 9.79964 15.2467C9.63915 15.4054 9.43964 15.5404 9.32393 15.7264C6.77379 19.8264 5.18726 24.2814 4.44601 29.026C4.22807 30.4211 4.20477 31.8462 4.09999 33.2581C3.89842 35.9742 4.2221 38.6585 4.75572 41.3076C5.31694 44.0937 6.21697 46.7845 7.42445 49.3742C8.45619 51.5869 9.75571 53.6359 11.1902 55.6017C11.8803 56.5474 12.6322 57.4633 13.4564 58.2954C14.7699 59.6216 16.097 60.9515 17.5471 62.1238C19.2731 63.5191 21.1255 64.7657 23.133 65.754C24.1006 66.2303 25.0827 66.6781 26.0634 67.1274C26.3549 67.2609 26.6643 67.3561 26.9811 67.5008C25.7432 67.3537 24.4872 67.1894 23.237 66.9898C22.5102 66.8738 21.7926 66.7012 21.0357 66.5357Z" fill="#212529"/>
<path d="M52.4448 67.7116C52.4786 67.6487 52.5493 67.5632 52.6372 67.5389C55.8509 66.6496 58.6513 64.9669 61.2946 63.0231C62.7193 61.9754 64.1244 60.8707 65.3774 59.632C67.7147 57.3216 69.7397 54.7582 71.3657 51.8846C73.1222 48.7806 74.4565 45.5237 75.1762 42.0453C75.5726 40.1296 75.8984 38.1794 76.0063 36.2312C76.1131 34.3032 76.0022 32.3487 75.8074 30.4236C75.634 28.71 75.2851 27.0043 74.8824 25.3259C74.553 23.9526 74.0327 22.6238 73.5881 21.2782C73.5553 21.179 73.4508 21.1031 73.3431 20.9657C73.2991 20.8406 73.2915 20.7662 73.2891 20.648C73.2906 20.3694 73.287 20.1346 73.2887 19.8566C73.2902 19.6111 73.2864 19.4087 73.288 19.165C73.2684 18.8864 73.2436 18.649 73.2212 18.3694C73.1822 18.0596 73.1406 17.7918 73.0982 17.4853C73.0353 17.2075 72.9733 16.9684 72.9122 16.686C72.8997 16.4422 72.8862 16.2416 72.8727 16.041C73.0213 16.1843 73.2123 16.3034 73.3121 16.4746C74.4407 18.4107 75.2751 20.4751 76.0038 22.585C76.963 25.3625 77.5181 28.2285 77.771 31.1418C77.9661 33.3902 77.9478 35.6466 77.7313 37.9044C77.3885 41.4808 76.5093 44.9247 75.1872 48.2524C74.1916 50.7579 72.8901 53.1164 71.3564 55.3493C69.9365 57.4165 68.3094 59.3102 66.5198 61.0615C64.7042 62.8381 62.7272 64.4298 60.5491 65.7618C59.9853 66.1066 59.4069 66.4278 58.8175 66.7872C58.1609 66.9372 57.5253 67.0813 56.8824 67.1778C55.5861 67.3724 54.2861 67.5434 52.9867 67.7172C52.824 67.7389 52.6555 67.7185 52.4448 67.7116Z" fill="#212529"/>
<path d="M61.9063 80.1869C62.4649 81.8104 63.0172 83.3948 63.5972 85.0586C63.8064 84.4601 63.9996 83.9043 64.195 83.3492C64.8006 81.6289 65.3995 79.9062 66.0257 78.1934C66.0828 78.0372 66.3098 77.8509 66.4701 77.839C67.0485 77.7963 67.6322 77.8222 68.3057 77.8222C68.753 80.9678 69.1982 84.0987 69.6561 87.3187C68.9019 87.3187 68.2269 87.3298 67.5532 87.305C67.4662 87.3018 67.3254 87.1198 67.3119 87.0085C67.1301 85.5057 66.9685 84.0005 66.7964 82.4966C66.7613 82.1896 66.7033 81.8851 66.5735 81.5445C66.4167 82.0345 66.2679 82.5271 66.1014 83.0139C65.6385 84.3674 65.174 85.7205 64.6905 87.0668C64.65 87.1794 64.4655 87.3073 64.3422 87.3133C63.7938 87.3402 63.2412 87.3516 62.6951 87.3073C62.5543 87.2959 62.3666 87.0849 62.311 86.9273C61.6946 85.1806 61.1001 83.4264 60.4985 81.6746C60.4888 81.6463 60.4635 81.6232 60.4109 81.5485C60.1555 83.4859 59.9058 85.3797 59.6528 87.2989C58.9828 87.2989 58.3235 87.2989 57.6069 87.2989C58.0632 84.133 58.5164 80.9892 58.9728 77.8221C59.6489 77.8221 60.2301 77.8326 60.8107 77.8183C61.1926 77.8089 61.2068 78.1218 61.2894 78.3426C61.5117 78.9374 61.6989 79.5451 61.9063 80.1869Z" fill="#212529"/>
<path d="M0.810547 40.9355C0.937289 41.3073 1.11175 41.7164 1.16983 42.1411C1.6309 45.5128 2.84054 48.6345 4.33487 51.6703C5.55782 54.1547 7.02971 56.4846 8.76437 58.6416C10.162 60.3796 11.642 62.0557 13.3707 63.4889C14.0806 64.0774 14.8327 64.6159 15.583 65.2042C13.5781 64.5468 11.5231 63.9429 9.54407 63.1525C7.96317 62.521 6.46892 61.6736 4.95243 60.8913C4.75078 60.7872 4.56611 60.522 4.50647 60.2969C3.88867 57.9655 3.26084 55.6355 2.71214 53.2876C2.29047 51.4833 1.94932 49.6589 1.62681 47.8341C1.40267 46.5658 1.25641 45.2833 1.10252 44.0039C0.981579 42.9985 0.90219 41.9882 0.810547 40.9355Z" fill="#212529"/>
<path d="M15.8555 3.26172C15.5893 3.44709 15.2615 3.60916 14.9819 3.8308C14.1919 4.45713 13.3839 5.06857 12.6512 5.75703C11.0211 7.28876 9.53842 8.95673 8.19174 10.7403C5.69081 14.0524 3.76749 17.6656 2.41521 21.5793C1.83147 23.2687 1.39581 24.989 1.18366 26.7643C1.16592 26.9128 1.04832 27.0495 0.946777 27.2098C0.980822 26.4472 1.01765 25.663 1.1163 24.8865C1.25173 23.8206 1.41762 22.7577 1.59995 21.6985C1.89192 20.0024 2.13989 18.2949 2.52981 16.6204C3.13428 14.0246 3.86505 11.4578 4.49465 8.86729C4.71761 7.94992 5.4067 7.53075 6.12055 7.12176C8.60079 5.70073 11.2494 4.65906 13.9672 3.78298C14.5756 3.58684 15.1993 3.43684 15.8555 3.26172Z" fill="#212529"/>
<path d="M30.3917 87.3273C28.9817 87.3273 27.6206 87.3273 26.23 87.3273C26.23 84.1461 26.23 81.0209 26.23 77.8575C26.3829 77.8453 26.5266 77.8242 26.6704 77.824C28.003 77.8214 29.3361 77.8002 30.668 77.8308C31.4628 77.8491 32.2386 78.0121 32.873 78.5427C34.1484 79.6094 33.7498 81.6822 32.1913 82.3159C32.5984 82.5919 33.0554 82.847 33.4466 83.1783C34.2461 83.8554 34.1793 85.8012 33.1859 86.5494C32.3502 87.1789 31.4137 87.2717 30.3917 87.3273ZM29.4444 85.7432C29.9221 85.7077 30.4023 85.6919 30.8767 85.6313C31.3459 85.5714 31.755 85.1477 31.7985 84.7334C31.8631 84.1187 31.6356 83.5604 31.1731 83.4127C30.2847 83.129 29.3661 83.1106 28.4312 83.2074C28.4312 84.0573 28.4312 84.8734 28.4312 85.7432C28.7571 85.7432 29.0526 85.7432 29.4444 85.7432ZM29.1202 81.6874C29.6498 81.6551 30.1907 81.6783 30.706 81.5754C31.2642 81.464 31.5168 81.0499 31.4996 80.4999C31.4851 80.0392 31.1212 79.5729 30.6162 79.5348C29.8968 79.4806 29.1702 79.521 28.4422 79.521C28.4422 80.2689 28.4422 80.9635 28.4422 81.6851C28.6658 81.6851 28.8476 81.6851 29.1202 81.6874Z" fill="#212529"/>
<path d="M16.9999 86.2349C16.9999 84.4048 16.9999 82.6238 16.9999 80.7631C16.5722 81.3707 16.1909 81.9181 15.8038 82.4612C14.7154 83.9883 13.6315 85.5186 12.5239 87.032C12.4121 87.1848 12.1568 87.2991 11.9593 87.3136C11.4322 87.3522 10.9004 87.3267 10.3354 87.3267C10.3354 84.1559 10.3354 81.0301 10.3354 77.8631C10.9689 77.8631 11.6049 77.8631 12.2553 77.8631C12.2553 79.9961 12.2553 82.112 12.2553 84.2486C12.6458 83.6706 13.0225 83.0798 13.4325 82.5126C14.5144 81.0158 15.6091 79.5281 16.7054 78.0415C16.7744 77.948 16.899 77.8371 17.0007 77.8341C17.6457 77.8153 18.2915 77.8245 18.9681 77.8245C18.9681 81.0003 18.9681 84.1261 18.9681 87.2894C18.3354 87.2894 17.711 87.2894 16.9999 87.2894C16.9999 86.9602 16.9999 86.6221 16.9999 86.2349Z" fill="#212529"/>
<path d="M49.3721 77.9887C52.3308 76.8579 55.3839 78.1358 56.0014 81.3326C56.2817 82.7837 56.1779 84.2109 55.3665 85.4753C54.5924 86.6816 53.4927 87.4185 51.9742 87.5473C50.4123 87.6797 49.0766 87.3184 47.9986 86.1801C47.2906 85.4323 46.9108 84.5045 46.8192 83.5025C46.6815 81.9946 46.8484 80.5318 47.7841 79.2451C48.1912 78.6855 48.6997 78.2709 49.3721 77.9887ZM49.1007 83.1839C49.1989 83.5759 49.2762 83.9745 49.3996 84.3585C49.6781 85.2252 50.454 85.7953 51.2744 85.8497C52.3724 85.9226 53.1816 85.2557 53.4937 84.4569C53.7912 83.6954 53.8703 82.8969 53.7873 82.0974C53.6971 81.2287 53.4351 80.4174 52.7457 79.7941C51.8382 78.9735 49.9641 79.2342 49.4733 80.5023C49.1399 81.3638 49.1009 82.2117 49.1007 83.1839Z" fill="#212529"/>
<path d="M74.7126 77.623C75.5201 77.6251 76.2678 77.6141 77.0154 77.8609C78.0299 78.1957 78.6381 79.1108 78.6876 80.0549C78.7683 81.5973 78.7516 83.1444 78.8067 84.6884C78.8351 85.4872 78.9309 86.2835 78.9921 87.0813C78.9994 87.176 78.9808 87.2727 78.9724 87.3955C78.2611 87.3955 77.5698 87.3955 76.8625 87.3955C76.7995 87.0926 76.7403 86.8083 76.6805 86.5209C76.2658 86.7851 75.8866 87.1127 75.4458 87.2911C74.1917 87.7986 72.9157 87.7699 71.8948 86.8434C70.9796 86.0129 70.7989 84.466 71.6257 83.299C72.4188 82.1796 73.6348 81.8597 74.9081 81.6866C75.4456 81.6136 75.9894 81.5863 76.6534 81.5273C76.5753 81.0676 76.5228 80.6091 76.4154 80.1635C76.282 79.6101 75.8213 79.4509 75.3221 79.4104C74.4035 79.3359 73.5465 79.5279 72.83 80.1293C72.5639 80.3527 72.3916 80.2898 72.2126 80.0584C72.0823 79.89 71.9571 79.7175 71.8332 79.5444C71.4292 78.9805 71.4321 78.8474 72.022 78.4621C72.8181 77.9422 73.6975 77.6368 74.7126 77.623ZM75.8585 83.0686C75.2478 83.2315 74.6168 83.3438 74.0324 83.5727C73.5206 83.7731 73.2283 84.4214 73.3059 84.9057C73.3943 85.4574 73.7066 85.7861 74.3476 85.9055C74.9717 86.0218 75.5 85.7439 75.9922 85.4017C76.8537 84.8029 76.559 83.9288 76.5876 83.0686C76.3419 83.0686 76.1469 83.0686 75.8585 83.0686Z" fill="#212529"/>
<path d="M68.3374 64.4415C68.3823 64.3402 68.4447 64.2035 68.5507 64.1476C69.8676 63.4517 70.7205 62.2672 71.6717 61.2007C72.5502 60.2158 73.3678 59.1712 74.1399 58.1017C74.8147 57.167 75.4355 56.1865 75.9958 55.1802C76.7167 53.8855 77.3708 52.5532 78.017 51.2197C78.2427 50.7537 78.3595 50.2359 78.5544 49.7227C78.4491 50.5041 78.3414 51.31 78.1762 52.1041C77.7989 53.9182 77.4163 55.7318 76.991 57.5353C76.7375 58.61 76.4065 59.6673 76.0894 60.7263C76.0511 60.8541 75.8992 60.9723 75.7712 61.0465C73.7002 62.2481 71.5529 63.2931 69.2962 64.1108C68.9893 64.2221 68.6822 64.3328 68.3374 64.4415Z" fill="#212529"/>
<path d="M0.710449 39.6465C0.753923 39.911 0.791201 40.2191 0.810149 40.5622C0.762631 40.2948 0.733442 39.9925 0.710449 39.6465Z" fill="#212529"/>
<path d="M0.865278 27.543C0.887845 27.7693 0.879395 28.0226 0.843826 28.2968C0.822559 28.0684 0.82841 27.8192 0.865278 27.543Z" fill="#212529"/>
<path d="M0.611478 31.3301C0.634997 31.4732 0.652076 31.6584 0.642965 31.8631C0.612863 31.7125 0.60895 31.5423 0.611478 31.3301Z" fill="#212529"/>
<path d="M28.7607 0.800781C28.6196 0.843606 28.4387 0.880191 28.2271 0.899521C28.3712 0.853024 28.5461 0.823783 28.7607 0.800781Z" fill="#212529"/>
<path d="M0.61068 36.873C0.634112 36.9852 0.651371 37.1384 0.64321 37.3096C0.613362 37.1898 0.608934 37.0519 0.61068 36.873Z" fill="#212529"/>
<path d="M0.711611 29.543C0.733619 29.6252 0.749211 29.7467 0.740754 29.8843C0.712868 29.7943 0.709032 29.6883 0.711611 29.543Z" fill="#212529"/>
<path d="M15.9725 3.18555C15.9751 3.20439 15.9518 3.22307 15.9086 3.25264C15.8979 3.23053 15.9172 3.20449 15.9725 3.18555Z" fill="#212529"/>
<path d="M36.8999 68.3415C36.9143 68.3344 36.9387 68.3505 36.9789 68.3823C36.9598 68.4051 36.9315 68.3941 36.8999 68.3415Z" fill="#212529"/>
<path d="M15.7007 65.2711C15.7152 65.2641 15.7393 65.2804 15.7789 65.3128C15.7598 65.3343 15.7319 65.3228 15.7007 65.2711Z" fill="#212529"/>
<path d="M79.2246 45.546C79.218 45.5317 79.2346 45.5073 79.2668 45.4668C79.2885 45.4859 79.2769 45.5143 79.2246 45.546Z" fill="#212529"/>
<path d="M0.624023 38.9376C0.641932 38.9357 0.659484 38.9586 0.68652 39.0013C0.666289 39.0092 0.642176 38.9897 0.624023 38.9376Z" fill="#212529"/>
<path d="M0.675694 30.1992C0.682916 30.2136 0.667058 30.2377 0.635436 30.2772C0.613169 30.2584 0.624149 30.2305 0.675694 30.1992Z" fill="#212529"/>
<path d="M0.774782 28.7129C0.782055 28.7277 0.765668 28.7522 0.733344 28.7925C0.710549 28.7731 0.721787 28.7446 0.774782 28.7129Z" fill="#212529"/>
<path d="M61.7007 6.60203C61.5923 6.46433 61.5077 6.29544 61.3719 6.19354C58.4521 4.00292 55.2693 2.29387 51.8019 1.11584C51.3803 0.972619 50.9328 0.906004 50.5033 0.783343C50.3387 0.73635 50.191 0.631791 50.0195 0.521484C51.5087 0.653708 53.0138 0.818548 54.5192 0.981001C54.6512 0.995245 54.7849 0.993835 54.9777 1.02039C55.0599 1.05854 55.0836 1.0739 55.1088 1.08716C55.2803 1.09112 55.4518 1.09509 55.6799 1.1221C55.7572 1.1616 55.7794 1.17585 55.803 1.18791C55.9423 1.19049 56.0817 1.19308 56.2794 1.21579C56.3608 1.25407 56.3853 1.27023 56.4111 1.28439C56.5482 1.2883 56.6854 1.29221 56.8802 1.31583C56.961 1.3535 56.9854 1.36945 57.0111 1.3834C57.0533 1.38608 57.0954 1.38876 57.1687 1.39737C57.5364 1.55527 57.8863 1.68391 58.2072 1.8635C59.2327 2.4375 60.3027 2.95421 61.2544 3.63222C63.1001 4.94715 64.9211 6.30515 66.4848 7.95961C66.6301 8.11337 66.7473 8.29319 66.8523 8.48833C66.7193 8.47872 66.6115 8.44169 66.4852 8.37523C66.2462 8.26701 66.0257 8.1882 65.7881 8.07763C65.2867 7.85965 64.8023 7.67344 64.2903 7.46331C63.9788 7.36751 63.6949 7.29562 63.3912 7.19157C62.949 7.04665 62.5267 6.93388 62.0876 6.79102C61.9475 6.70796 61.8241 6.65499 61.7007 6.60203Z" fill="#212529"/>
<path d="M66.5037 8.4043C66.6114 8.44133 66.7192 8.47837 66.8615 8.52099C67.0616 8.62148 67.2271 8.71639 67.3774 8.8444C67.0184 8.92169 66.6747 9.0041 66.3308 9.00446C59.218 9.01195 52.1053 9.00819 44.9925 9.01771C44.7285 9.01806 44.4646 9.12996 44.1549 9.19509C43.3988 9.15885 42.6883 9.0814 41.9782 9.0845C40.9518 9.08899 39.9257 9.15185 38.8754 9.16159C38.6119 9.0923 38.3724 9.0157 38.1329 9.01537C33.1355 9.00842 28.1381 9.01015 23.1407 9.0101C20.4921 9.01008 17.8434 9.01795 15.1949 8.99745C14.9294 8.9954 14.6652 8.82091 14.4004 8.72645C14.5542 8.64522 14.7079 8.56399 14.9355 8.49291C15.3039 8.54006 15.5985 8.60933 15.8932 8.60942C32.4883 8.61462 49.0835 8.61406 65.6787 8.61392C65.8119 8.61392 65.9524 8.63776 66.0767 8.60404C66.2262 8.56346 66.3619 8.4731 66.5037 8.4043Z" fill="#212529"/>
<path d="M72.3792 14.4552C72.5105 14.892 72.6418 15.3289 72.7302 15.8033C68.3011 15.8412 63.915 15.8376 59.5289 15.8507C59.2509 15.8516 58.9733 15.9818 58.6654 16.0368C58.1553 15.5703 57.6752 15.1188 57.2217 14.639C57.5179 14.559 57.7874 14.463 58.0572 14.4625C62.8312 14.4531 67.6052 14.4554 72.3792 14.4552Z" fill="#212529"/>
<path d="M70.9743 11.4453C71.1793 11.7657 71.3843 12.0861 71.5467 12.4408C66.1804 12.4751 60.8567 12.4706 55.5331 12.4848C55.1845 12.4857 54.8363 12.629 54.4536 12.6961C53.9131 12.4116 53.4071 12.1371 52.9165 11.8301C53.1896 11.7263 53.4471 11.5935 53.7048 11.5929C59.1351 11.5809 64.5654 11.5862 69.9956 11.5778C70.3219 11.5773 70.6481 11.4915 70.9743 11.4453Z" fill="#212529"/>
<path d="M44.2007 9.18953C44.4646 9.12962 44.7285 9.01773 44.9925 9.01737C52.1053 9.00785 59.2181 9.01161 66.3309 9.00412C66.6747 9.00376 67.0185 8.92135 67.4125 8.85742C67.8214 9.0304 68.18 9.22311 68.5175 9.45552C68.1504 9.53139 67.8044 9.59876 67.4584 9.59911C61.0964 9.60544 54.7344 9.60132 48.3725 9.61258C48.1139 9.61304 47.8555 9.74261 47.5562 9.80775C46.9242 9.67897 46.3351 9.54404 45.7414 9.43313C45.2305 9.3377 44.7145 9.26968 44.2007 9.18953Z" fill="#212529"/>
<path d="M58.6953 16.0511C58.9731 15.981 59.2507 15.8508 59.5287 15.8499C63.9148 15.8368 68.3009 15.8404 72.7325 15.84C72.7982 15.8921 72.8185 15.9441 72.8556 16.0187C72.8859 16.2417 72.8994 16.4423 72.8644 16.6866C68.4267 16.7308 64.0376 16.7347 59.6485 16.7237C59.3817 16.7231 59.1152 16.6041 58.8646 16.5119C58.8189 16.3393 58.7571 16.1952 58.6953 16.0511Z" fill="#212529"/>
<path d="M71.8124 12.9492C71.9155 13.1931 72.0186 13.4369 72.0791 13.7188C67.0681 13.7585 62.0998 13.7569 57.1315 13.7708C56.8531 13.7716 56.575 13.9004 56.2662 13.9551C55.9056 13.6911 55.5756 13.4417 55.2896 13.1807C55.6626 13.1357 55.9917 13.0736 56.3209 13.0732C61.2094 13.067 66.0979 13.0708 70.9864 13.0638C71.2618 13.0634 71.5371 12.9891 71.8124 12.9492Z" fill="#212529"/>
<path d="M70.9519 11.4205C70.6482 11.4923 70.322 11.5782 69.9957 11.5787C64.5654 11.587 59.1351 11.5817 53.7048 11.5937C53.4471 11.5943 53.1897 11.7271 52.8826 11.8237C52.4211 11.6321 52.0092 11.4152 51.6196 11.1672C51.8945 11.0876 52.147 10.9971 52.3996 10.9967C58.1083 10.9887 63.8171 10.9921 69.5258 10.9861C69.8209 10.9858 70.116 10.9213 70.4111 10.8867C70.5838 11.0561 70.7566 11.2255 70.9519 11.4205Z" fill="#212529"/>
<path d="M56.2964 13.97C56.5746 13.9008 56.8527 13.772 57.1311 13.7713C62.0994 13.7573 67.0677 13.7589 72.0853 13.7559C72.2139 13.9651 72.2931 14.1755 72.3756 14.4204C67.6048 14.4551 62.8307 14.4528 58.0568 14.4622C57.787 14.4627 57.5174 14.5587 57.191 14.6236C56.855 14.4146 56.5757 14.1923 56.2964 13.97Z" fill="#212529"/>
<path d="M47.5967 9.81152C47.8551 9.74211 48.1135 9.61254 48.3721 9.61208C54.7341 9.60082 61.0961 9.60494 67.4581 9.59861C67.8041 9.59826 68.15 9.53089 68.5424 9.48242C68.8196 9.62488 69.0504 9.77963 69.2554 9.97424C68.9161 10.0422 68.6026 10.0945 68.2891 10.0948C62.2166 10.0996 56.1441 10.0958 50.0717 10.1072C49.8132 10.1077 49.5551 10.2368 49.2579 10.3013C48.6783 10.1348 48.1375 9.97318 47.5967 9.81152Z" fill="#212529"/>
<path d="M71.8085 12.9166C71.5371 12.9893 71.2618 13.0636 70.9865 13.064C66.0979 13.071 61.2094 13.0672 56.3209 13.0734C55.9917 13.0738 55.6626 13.1359 55.2596 13.1696C54.9531 13.0154 54.7204 12.8608 54.4878 12.7062C54.8362 12.6291 55.1844 12.4858 55.5329 12.4849C60.8566 12.4708 66.1803 12.4752 71.5507 12.4755C71.6664 12.6117 71.7355 12.7477 71.8085 12.9166Z" fill="#212529"/>
<path d="M49.2974 10.3056C49.5556 10.2364 49.8138 10.1072 50.0722 10.1067C56.1447 10.0954 62.2172 10.0991 68.2897 10.0943C68.6032 10.094 68.9166 10.0417 69.2716 10.0039C69.5291 10.1297 69.745 10.2653 69.9387 10.4398C69.5713 10.5169 69.2262 10.5877 68.8809 10.5881C63.0778 10.5949 57.2747 10.5903 51.4717 10.6018C51.2134 10.6023 50.9555 10.7316 50.659 10.7959C50.1795 10.6292 49.7384 10.4674 49.2974 10.3056Z" fill="#212529"/>
<path d="M50.6968 10.8014C50.9549 10.7321 51.2128 10.6029 51.4711 10.6023C57.2741 10.5909 63.0773 10.5955 68.8804 10.5886C69.2256 10.5882 69.5707 10.5174 69.9642 10.4668C70.1364 10.5795 70.2602 10.7049 70.3973 10.858C70.1154 10.9203 69.8204 10.9848 69.5253 10.9851C63.8165 10.9911 58.1078 10.9877 52.399 10.9957C52.1464 10.9961 51.8939 11.0866 51.5828 11.1596C51.2484 11.0565 50.9726 10.9289 50.6968 10.8014Z" fill="#212529"/>
<path d="M49.3674 0.409018C49.3406 0.426643 49.2806 0.437909 49.2104 0.431293C49.245 0.409827 49.2896 0.406242 49.3674 0.409018Z" fill="#212529"/>
<path d="M49.9967 0.474018C49.9828 0.480946 49.9596 0.46547 49.9214 0.434989C49.94 0.41257 49.967 0.423113 49.9967 0.474018Z" fill="#212529"/>
<path d="M55.0977 1.06591C55.0835 1.07317 55.0597 1.05766 55.021 1.02635C55.0396 1.00446 55.067 1.01533 55.0977 1.06591Z" fill="#212529"/>
<path d="M55.7916 1.16858C55.779 1.17455 55.7568 1.16015 55.7212 1.13049C55.7376 1.11375 55.7624 1.12475 55.7916 1.16858Z" fill="#212529"/>
<path d="M56.4003 1.26367C56.3853 1.27125 56.3609 1.25493 56.3208 1.22247C56.3403 1.19918 56.3689 1.21032 56.4003 1.26367Z" fill="#212529"/>
<path d="M57.0002 1.3609C56.9853 1.36856 56.9609 1.35245 56.9209 1.32034C56.9403 1.29683 56.9688 1.30776 57.0002 1.3609Z" fill="#212529"/>
<path d="M23.5996 5.52767C23.8884 5.29445 24.1423 4.97951 24.4718 4.84147C26.37 4.04625 28.2589 3.21565 30.2032 2.54551C32.4718 1.7636 34.8397 1.37359 37.2376 1.18143C40.4223 0.926216 43.587 1.06325 46.7161 1.70609C49.2154 2.21954 51.6579 2.9298 53.9638 4.04207C54.6065 4.35212 55.2481 4.66528 55.88 4.99616C56.0329 5.07624 56.1452 5.23234 56.2489 5.39447C56.098 5.39482 55.9774 5.3359 55.8506 5.31636C54.6784 5.1358 53.5103 4.90675 52.331 4.79798C49.9951 4.58253 47.6546 4.32007 45.3128 4.28439C41.3697 4.22431 37.4219 4.2567 33.4806 4.38625C31.2258 4.46036 28.9778 4.78352 26.7312 5.03367C25.6819 5.1505 24.6431 5.36011 23.5996 5.52767Z" fill="#212529"/>
<path d="M23.5648 5.54089C24.643 5.3607 25.6818 5.15109 26.7311 5.03426C28.9777 4.78411 31.2257 4.46095 33.4805 4.38683C37.4217 4.25729 41.3696 4.2249 45.3126 4.28498C47.6544 4.32066 49.9949 4.58311 52.3308 4.79857C53.5101 4.90734 54.6782 5.13638 55.8505 5.31695C55.9773 5.33648 56.0979 5.3954 56.2608 5.425C56.7532 5.49843 57.2062 5.58291 57.6521 5.72407C57.3566 5.83393 57.0683 5.93343 56.7798 5.93364C45.8898 5.94154 34.9998 5.94037 24.1098 5.93967C23.9435 5.93966 23.7676 5.96212 23.6132 5.9169C23.4326 5.86397 23.2706 5.74828 23.1006 5.65981C23.2438 5.62438 23.3869 5.58895 23.5648 5.54089Z" fill="#212529"/>
<path d="M61.6605 6.60426C61.8243 6.65394 61.9477 6.70691 62.0654 6.82115C61.7903 6.93133 61.521 7.0229 61.2516 7.02303C47.5062 7.02998 33.7608 7.02916 20.0154 7.02895C19.8654 7.02894 19.7082 7.05373 19.5675 7.01718C19.4 6.97367 19.2468 6.87634 19.0874 6.80232C19.6656 6.61051 20.2437 6.4187 20.8837 6.26199C21.1992 6.3431 21.4529 6.42925 21.7066 6.42939C34.2087 6.43596 46.7108 6.43515 59.2129 6.43505C59.3294 6.43505 59.452 6.4561 59.561 6.42737C59.7127 6.3874 59.8542 6.30963 60 6.24805C60.54 6.36788 61.08 6.48771 61.6605 6.60426Z" fill="#212529"/>
<path d="M64.3178 7.48633C64.8022 7.67254 65.2865 7.85876 65.7508 8.09561C65.4677 8.16999 65.2045 8.21441 64.9413 8.21451C55.3506 8.21806 45.76 8.2175 36.1694 8.21749C29.6424 8.21749 23.1155 8.21964 16.5885 8.20964C16.3257 8.20924 16.063 8.09388 15.8003 8.03209C16.153 7.88323 16.5057 7.73437 16.8798 7.55721C16.9421 7.52192 16.983 7.51494 17.0865 7.52586C17.5041 7.60332 17.8591 7.71472 18.2142 7.71497C30.8555 7.72392 43.4968 7.72248 56.1381 7.72246C58.5864 7.72246 61.0347 7.72987 63.4829 7.71187C63.7618 7.70983 64.0395 7.56497 64.3178 7.48633Z" fill="#212529"/>
<path d="M59.9642 6.23108C59.8541 6.30949 59.7126 6.38726 59.561 6.42722C59.452 6.45595 59.3294 6.4349 59.2129 6.43491C46.7108 6.43501 34.2087 6.43582 21.7066 6.42924C21.4529 6.42911 21.1992 6.34296 20.9229 6.26673C21.6085 6.04596 22.3167 5.85541 23.0629 5.66211C23.2709 5.74782 23.4329 5.86352 23.6135 5.91645C23.7679 5.96166 23.9438 5.93921 24.1101 5.93922C35.0001 5.93992 45.8901 5.94109 56.7801 5.93318C57.0686 5.93297 57.3569 5.83348 57.6754 5.75597C58.4465 5.89252 59.1875 6.05339 59.9642 6.23108Z" fill="#212529"/>
<path d="M64.2902 7.4636C64.0396 7.56616 63.7619 7.71102 63.483 7.71306C61.0348 7.73105 58.5865 7.72365 56.1382 7.72365C43.4969 7.72367 30.8556 7.72511 18.2143 7.71616C17.8592 7.71591 17.5042 7.60451 17.1172 7.52143C17.3459 7.39846 17.6065 7.29901 17.9401 7.20508C18.2735 7.24956 18.5339 7.32252 18.7944 7.32261C33.4045 7.3281 48.0146 7.32804 62.6247 7.32321C62.8868 7.32312 63.1488 7.25853 63.4109 7.22403C63.6948 7.29592 63.9787 7.3678 64.2902 7.4636Z" fill="#212529"/>
<path d="M63.391 7.19041C63.1488 7.25707 62.8867 7.32166 62.6246 7.32175C48.0145 7.32658 33.4045 7.32664 18.7944 7.32115C18.5339 7.32106 18.2734 7.2481 17.9707 7.18559C18.2886 7.04375 18.6487 6.92546 19.048 6.80469C19.2465 6.87622 19.3997 6.97356 19.5672 7.01707C19.7078 7.05361 19.8651 7.02883 20.015 7.02883C33.7605 7.02904 47.5059 7.02987 61.2513 7.02291C61.5207 7.02278 61.79 6.93121 62.0818 6.85113C62.5266 6.93271 62.9489 7.04548 63.391 7.19041Z" fill="#212529"/>
<path d="M72.7015 24.4555C73.088 26.1571 73.5058 27.8525 73.853 29.5619C74.2758 31.6439 74.2724 33.7621 74.1822 35.8693C74.0613 38.6955 73.5608 41.4669 72.7132 44.1745C71.7554 47.2338 70.4118 50.1067 68.6328 52.7877C67.1346 55.0456 65.3924 57.0931 63.412 58.9426C60.5638 61.6023 57.3443 63.7172 53.7524 65.2613C50.3976 66.7035 46.9068 67.6609 43.2502 67.925C39.0218 68.2305 34.8454 67.9839 30.7361 66.8111C26.1683 65.5074 22.0728 63.3479 18.3884 60.4044C16.662 59.0252 15.1395 57.4426 13.7146 55.7531C11.9843 53.7013 10.5357 51.475 9.3593 49.0862C7.90013 46.1232 6.83131 43.0131 6.40496 39.7311C6.15089 37.7753 5.9014 35.7958 5.93287 33.8314C6.0045 29.3598 6.88318 25.0246 8.70408 20.9057C8.79935 20.6902 8.98659 20.5145 9.17074 20.3457C9.24255 20.5443 9.27464 20.7174 9.30362 20.9316C9.33895 21.2421 9.3774 21.5115 9.42262 21.8161C9.58814 22.2241 9.74688 22.597 9.90776 23.0039C9.98897 23.1765 10.068 23.315 10.1196 23.4794C9.99746 23.7309 9.88986 23.9521 9.8102 24.1828C8.64737 27.5505 8.05963 31.0192 8.11983 34.5731C8.14706 36.1811 8.2966 37.7994 8.54807 39.3886C9.07188 42.699 10.1151 45.8561 11.7068 48.8247C13.4526 52.0805 15.6154 55.0109 18.3968 57.4933C20.098 59.0116 21.8906 60.3828 23.8632 61.5366C27.3624 63.5833 31.122 64.9059 35.1254 65.5393C37.2924 65.8821 39.4834 66.0404 41.6737 65.8329C43.4921 65.6606 45.3201 65.4784 47.1078 65.1227C49.9952 64.5481 52.7234 63.491 55.3072 62.0782C57.8106 60.7095 60.1179 59.0827 62.1772 57.1092C64.0163 55.3467 65.6276 53.4118 67.0197 51.2817C68.414 49.1485 69.4733 46.8653 70.3117 44.4784C71.1241 42.1657 71.6922 39.7886 71.8177 37.337C71.9127 35.4828 72.0292 33.6129 71.8896 31.7682C71.746 29.8705 71.3037 27.995 71.0184 26.0902C71.7595 25.7164 72.3396 25.2309 72.653 24.4665C72.6693 24.4632 72.7015 24.4555 72.7015 24.4555Z" fill="#212529"/>
<path d="M72.7077 24.4181C72.7012 24.4548 72.669 24.4626 72.6028 24.4631C67.0263 24.4607 61.5158 24.4562 56.0054 24.4618C55.8017 24.4621 55.5982 24.5609 55.3526 24.605C54.2435 24.417 53.1764 24.2379 52.1221 24.0285C52.4559 23.6552 52.7769 23.312 53.1449 22.9691C59.8227 22.9692 66.4536 22.969 73.0844 22.9688C72.961 23.4396 72.8376 23.9104 72.7077 24.4181Z" fill="#212529"/>
<path d="M73.284 20.6926C73.2915 20.767 73.299 20.8415 73.3119 20.953C73.2884 21.198 73.2594 21.4059 73.1661 21.6481C67.1118 21.6826 61.1219 21.6853 55.1321 21.6751C54.888 21.6747 54.6441 21.5533 54.4189 21.461C54.7057 21.146 54.9737 20.8582 55.2858 20.582C55.6427 20.6269 55.9553 20.6888 56.268 20.6892C61.94 20.6947 67.612 20.6929 73.284 20.6926Z" fill="#212529"/>
<path d="M54.4002 21.4883C54.6441 21.5533 54.888 21.6747 55.1321 21.6751C61.122 21.6853 67.1119 21.6827 73.1482 21.682C73.1702 21.8899 73.1456 22.0982 73.0565 22.3412C66.8705 22.3762 60.749 22.3786 54.6275 22.3696C54.3405 22.3692 54.0536 22.2675 53.7817 22.1855C53.9979 21.9347 54.199 21.7115 54.4002 21.4883Z" fill="#212529"/>
<path d="M9.2583 19.0049C9.27923 18.6973 9.30017 18.3897 9.38335 18.0457C13.6747 18.0125 17.9037 18.0136 22.1328 18.0241C22.3915 18.0248 22.65 18.1007 22.8973 18.172C22.6695 18.4751 22.453 18.7479 22.1875 19.0187C17.845 19.0129 13.5517 19.0089 9.2583 19.0049Z" fill="#212529"/>
<path d="M9.48193 17.1261C9.52491 16.7932 9.56788 16.4603 9.66206 16.1172C9.9877 16.1508 10.2621 16.2322 10.5366 16.2328C14.7529 16.2409 18.9692 16.2346 23.1855 16.2443C23.6147 16.2453 24.0437 16.3273 24.4464 16.3951C24.1501 16.6893 23.8801 16.9603 23.5704 17.2172C23.2508 17.1785 22.971 17.1331 22.6912 17.1328C18.2881 17.1271 13.885 17.1273 9.48193 17.1261Z" fill="#212529"/>
<path d="M9.80273 15.2803C9.86769 15.0302 9.93586 14.8129 10.0696 14.5742C10.5154 14.5862 10.8955 14.6484 11.2757 14.649C16.2538 14.6565 21.232 14.6553 26.1944 14.6862C25.8564 14.9934 25.5343 15.2706 25.1722 15.5337C24.852 15.4949 24.5718 15.4492 24.2915 15.4489C19.4646 15.4443 14.6378 15.4453 9.81098 15.4451C9.8093 15.4012 9.80763 15.3572 9.80273 15.2803Z" fill="#212529"/>
<path d="M9.46393 17.1602C13.8847 17.1262 18.2878 17.126 22.6909 17.1317C22.9707 17.132 23.2505 17.1774 23.5549 17.2464C23.3557 17.5747 23.1321 17.8584 22.9084 18.1421C22.6498 18.1012 22.3912 18.0253 22.1325 18.0247C17.9035 18.0141 13.6744 18.0131 9.3944 18.0075C9.37771 17.7352 9.41197 17.4653 9.46393 17.1602Z" fill="#212529"/>
<path d="M9.79103 15.4758C14.6379 15.4457 19.4647 15.4447 24.2915 15.4493C24.5719 15.4496 24.8521 15.4953 25.1565 15.5637C24.9447 15.8621 24.7088 16.1168 24.4728 16.3714C24.0437 16.3269 23.6147 16.2448 23.1855 16.2439C18.9693 16.2342 14.753 16.2405 10.5367 16.2324C10.2621 16.2318 9.98778 16.1504 9.67578 16.0772C9.68248 15.8672 9.72674 15.6866 9.79103 15.4758Z" fill="#212529"/>
<path d="M9.3063 20.8908C9.27421 20.7177 9.24212 20.5445 9.20207 20.3342C9.19977 20.191 9.20542 20.0851 9.2619 19.9398C13.0479 19.9007 16.7831 19.8978 20.5182 19.9062C20.863 19.9069 21.2076 19.9787 21.5378 20.0494C21.3292 20.3556 21.1351 20.6298 20.8916 20.9019C16.9968 20.8968 13.1515 20.8938 9.3063 20.8908Z" fill="#212529"/>
<path d="M53.7664 22.2129C54.0533 22.2674 54.3402 22.369 54.6272 22.3694C60.7487 22.3784 66.8702 22.3761 73.0374 22.3758C73.0866 22.5455 73.0902 22.7153 73.0891 22.9275C66.4536 22.97 59.8227 22.9702 53.1567 22.9391C53.3365 22.6762 53.5514 22.4445 53.7664 22.2129Z" fill="#212529"/>
<path d="M21.5525 20.0184C21.2078 19.9796 20.8631 19.9079 20.5184 19.9071C16.7832 19.8988 13.048 19.9016 9.26752 19.9012C9.22585 19.6277 9.22954 19.3542 9.24569 19.0439C13.5515 19.0109 17.8449 19.0148 22.1735 19.0525C21.99 19.3969 21.7712 19.7076 21.5525 20.0184Z" fill="#212529"/>
<path d="M15.7657 8.03516C16.063 8.09415 16.3257 8.20951 16.5885 8.20991C23.1154 8.21991 29.6424 8.21776 36.1693 8.21776C45.76 8.21776 55.3506 8.21832 64.9412 8.21477C65.2044 8.21467 65.4676 8.17025 65.7679 8.12763C66.0255 8.18757 66.2459 8.26638 66.4849 8.3746C66.3618 8.47283 66.226 8.56318 66.0765 8.60376C65.9522 8.63749 65.8118 8.61364 65.6785 8.61364C49.0833 8.61378 32.4882 8.61435 15.893 8.60915C15.5984 8.60906 15.3037 8.53979 14.9658 8.48156C15.192 8.31954 15.4615 8.17875 15.7657 8.03516Z" fill="#212529"/>
<path d="M10.854 12.359C10.978 12.0786 11.102 11.7983 11.2971 11.5039C11.7316 11.521 12.095 11.579 12.4584 11.5794C18.2469 11.5851 24.0354 11.5819 29.8239 11.5878C30.119 11.5881 30.414 11.6515 30.6879 11.7141C30.3453 11.9187 30.0274 12.1013 29.7012 12.2683C29.4743 12.3846 29.2362 12.4795 28.9662 12.5649C28.6832 12.5221 28.4372 12.4776 28.1911 12.4775C22.7228 12.4735 17.2546 12.4763 11.7863 12.4695C11.4755 12.4691 11.1648 12.3975 10.854 12.359Z" fill="#212529"/>
<path d="M26.2099 14.6554C21.2318 14.6544 16.2536 14.6556 11.2755 14.6482C10.8953 14.6476 10.5151 14.5854 10.0894 14.5455C10.116 14.2995 10.1882 14.0598 10.3295 13.7907C15.6577 13.7614 20.917 13.7575 26.1762 13.7715C26.4881 13.7723 26.7996 13.9164 27.0879 14.0168C26.7797 14.2449 26.4948 14.4502 26.2099 14.6554Z" fill="#212529"/>
<path d="M12.7935 9.78469C13.0405 9.59888 13.2876 9.41307 13.5907 9.25C13.9013 9.31676 14.1557 9.399 14.4102 9.39926C21.2983 9.40627 28.1864 9.40014 35.0744 9.41682C35.483 9.41781 35.8911 9.59062 36.2597 9.68941C35.4796 9.88899 34.7394 10.0826 33.9879 10.2416C33.7214 10.1376 33.4664 10.0082 33.2112 10.0077C26.663 9.99657 20.1147 10.0013 13.5665 9.98983C13.3087 9.98938 13.0511 9.85609 12.7935 9.78469Z" fill="#212529"/>
<path d="M27.1113 13.995C26.7996 13.9176 26.4881 13.7735 26.1762 13.7727C20.917 13.7587 15.6578 13.7626 10.3521 13.7625C10.3776 13.5454 10.4496 13.3283 10.5919 13.0866C16.1672 13.0645 21.6723 13.0654 27.1773 13.074C27.4889 13.0745 27.8004 13.1386 28.0952 13.2029C27.756 13.4868 27.4336 13.7409 27.1113 13.995Z" fill="#212529"/>
<path d="M30.7094 11.6871C30.4143 11.653 30.1193 11.5896 29.8242 11.5893C24.0357 11.5835 18.2472 11.5866 12.4587 11.5809C12.0953 11.5806 11.7319 11.5226 11.3257 11.4856C11.3971 11.2931 11.5114 11.1062 11.6956 10.9121C12.0957 10.9336 12.4258 10.9869 12.7559 10.9872C18.8134 10.9922 24.8709 10.9883 30.9284 10.9997C31.1868 11.0002 31.4449 11.1297 31.6826 11.2264C31.3445 11.3982 31.0269 11.5426 30.7094 11.6871Z" fill="#212529"/>
<path d="M12.763 9.79883C13.0512 9.857 13.3088 9.9903 13.5666 9.99075C20.1148 10.0023 26.6631 9.99749 33.2113 10.0086C33.4665 10.0091 33.7216 10.1385 33.9555 10.2598C33.5571 10.4421 33.18 10.5724 32.7764 10.6746C32.4798 10.596 32.2099 10.5017 31.9398 10.5013C25.6191 10.493 19.2984 10.4972 12.9778 10.4864C12.7182 10.4859 12.4587 10.3611 12.1992 10.2943C12.3769 10.1335 12.5546 9.97279 12.763 9.79883Z" fill="#212529"/>
<path d="M28.1123 13.1729C27.8008 13.1384 27.4893 13.0744 27.1777 13.0739C21.6726 13.0652 16.1676 13.0644 10.6133 13.0599C10.6474 12.8431 10.7309 12.6283 10.8343 12.3867C11.1652 12.3983 11.4759 12.47 11.7867 12.4703C17.255 12.4772 22.7232 12.4744 28.1915 12.4783C28.4376 12.4785 28.6836 12.523 28.9503 12.5951C28.6847 12.8199 28.3985 12.9964 28.1123 13.1729Z" fill="#212529"/>
<path d="M12.1709 10.3125C12.4583 10.3618 12.7177 10.4866 12.9773 10.4871C19.298 10.4979 25.6186 10.4937 31.9393 10.502C32.2094 10.5024 32.4794 10.5967 32.7546 10.703C32.4074 10.9054 32.055 11.0521 31.7026 11.1989C31.4444 11.1294 31.1863 10.9999 30.9279 10.9994C24.8704 10.988 18.8129 10.9919 12.7554 10.9869C12.4253 10.9866 12.0952 10.9333 11.7231 10.8947C11.8352 10.6999 11.9892 10.515 12.1709 10.3125Z" fill="#212529"/>
<path d="M36.2994 9.68403C35.891 9.59117 35.4829 9.41836 35.0743 9.41737C28.1863 9.40069 21.2982 9.40681 14.4101 9.3998C14.1556 9.39955 13.9012 9.31731 13.6235 9.24385C13.8445 9.0547 14.0887 8.89499 14.3666 8.73047C14.6651 8.82012 14.9293 8.99461 15.1948 8.99667C17.8433 9.01716 20.492 9.00929 23.1406 9.00931C28.138 9.00936 33.1354 9.00764 38.1328 9.01458C38.3724 9.01491 38.6118 9.09151 38.8389 9.18002C37.9842 9.37964 37.1418 9.53183 36.2994 9.68403Z" fill="#212529"/>
<path d="M73.2889 20.6479C67.6118 20.6919 61.9398 20.6938 56.2679 20.6882C55.9551 20.6879 55.6425 20.626 55.3022 20.5513C55.4698 20.3013 55.6648 20.0927 55.9092 19.8867C61.7334 19.8928 67.5083 19.8962 73.2832 19.8996C73.2868 20.1345 73.2904 20.3693 73.2889 20.6479Z" fill="#212529"/>
<path d="M73.0992 17.5244C73.1408 17.7922 73.1823 18.0599 73.1731 18.3704C67.8096 18.4121 62.4969 18.411 57.1978 18.3794C57.469 18.0721 57.7265 17.7953 58.0319 17.5195C63.0863 17.5218 68.0928 17.5231 73.0992 17.5244Z" fill="#212529"/>
<path d="M57.1841 18.4102C62.4968 18.4112 67.8096 18.4123 73.1706 18.4127C73.2437 18.6496 73.2685 18.887 73.2424 19.1658C67.6197 19.2042 62.048 19.2014 56.4907 19.1682C56.7315 18.8954 56.9578 18.6528 57.1841 18.4102Z" fill="#212529"/>
<path d="M56.4762 19.1992C62.0479 19.2021 67.6196 19.205 73.237 19.2077C73.2865 19.41 73.2902 19.6124 73.2887 19.858C67.5086 19.8976 61.7337 19.8942 55.9243 19.8578C56.0853 19.6162 56.2808 19.4077 56.4762 19.1992Z" fill="#212529"/>
<path d="M73.0981 17.4862C68.0925 17.5236 63.086 17.5223 58.0454 17.4894C58.2904 17.1522 58.5695 16.8466 58.8486 16.541C59.1152 16.6049 59.3817 16.7238 59.6485 16.7245C64.0376 16.7355 68.4268 16.7316 72.8635 16.7305C72.9731 16.9692 73.0352 17.2083 73.0981 17.4862Z" fill="#212529"/>
<path d="M58.865 16.5121C58.5698 16.8461 58.2907 17.1517 57.9978 17.4879C57.7265 17.7952 57.469 18.072 57.1978 18.3794C56.9578 18.6525 56.7315 18.8951 56.4907 19.168C56.2809 19.4067 56.0854 19.6153 55.8751 19.8541C55.6652 20.0931 55.4701 20.3017 55.2584 20.5401C54.9738 20.8577 54.7059 21.1455 54.4191 21.4605C54.1992 21.711 53.9981 21.9342 53.7819 22.185C53.5518 22.4442 53.3369 22.6758 53.1101 22.9384C52.7773 23.3126 52.4563 23.6558 52.0938 24.0471C51.5165 24.7037 50.9807 25.3122 50.4181 25.9375C50.1803 26.1832 49.9693 26.4122 49.7394 26.6616C49.3448 26.2915 48.9755 25.9358 48.596 25.5911C47.5969 24.6834 46.5455 23.8405 45.2167 23.4599C43.0582 22.8417 40.8802 22.796 38.722 23.4462C33.5757 24.9968 29.8091 30.628 30.8774 36.3306C31.41 39.1737 32.8075 41.4986 35.0208 43.3093C37.847 45.6215 41.1197 46.1939 44.6599 45.3983C46.2168 45.0485 47.4688 44.1529 48.6427 43.1363C49.0526 42.7813 49.4365 42.3969 49.8435 42.0155C50.1124 42.2867 50.3555 42.5318 50.6101 42.808C51.6809 43.9725 52.7402 45.1059 53.8108 46.2706C54.6124 47.1445 55.4027 47.9871 56.2044 48.8606C56.8623 49.5828 57.5088 50.2741 58.1726 50.9921C58.5318 51.3951 58.8739 51.7714 59.2221 52.1546C59.1603 52.2319 59.1242 52.2863 59.0792 52.3319C54.2582 57.2219 48.3942 59.6816 41.4949 59.7347C39.6372 59.749 37.8159 59.4749 35.9787 59.067C35.8375 59.0163 35.7234 58.9937 35.6114 58.9631C30.6791 57.6147 26.599 54.9533 23.3516 51.0595C19.6639 46.6378 17.7108 41.532 17.387 35.8113C17.1902 32.3332 17.6742 28.9463 18.8014 25.6112C18.9828 25.0733 19.1463 24.5679 19.3431 24.0484C19.5221 23.7206 19.6678 23.4068 19.8404 23.0701C20.0454 22.6584 20.2237 22.2696 20.4217 21.8526C20.6082 21.5175 20.7749 21.2106 20.9416 20.9038C21.1357 20.6295 21.3297 20.3553 21.5383 20.0491C21.7716 19.7064 21.9903 19.3957 22.2229 19.0532C22.4533 18.7486 22.6697 18.4759 22.8975 18.1727C23.1325 17.8586 23.3562 17.5749 23.5951 17.2608C23.8802 16.9594 24.1502 16.6884 24.4466 16.3941C24.7089 16.1163 24.9448 15.8616 25.1965 15.5774C25.5344 15.2705 25.8566 14.9933 26.1945 14.6861C26.4952 14.4509 26.7801 14.2457 27.0883 14.0175C27.434 13.7404 27.7564 13.4863 28.0955 13.2024C28.3985 12.9961 28.6847 12.8196 28.9872 12.6138C29.2366 12.48 29.4747 12.3851 29.7016 12.2689C30.0277 12.1018 30.3457 11.9192 30.6883 11.7146C31.027 11.5416 31.3446 11.3972 31.6826 11.2254C32.0555 11.0514 32.4079 10.9047 32.7816 10.7303C33.18 10.5724 33.5571 10.4421 33.9668 10.2945C34.7395 10.0835 35.4798 9.88989 36.2598 9.69032C37.142 9.53219 37.9844 9.37999 38.8632 9.20858C39.9258 9.15142 40.952 9.08856 41.9784 9.08408C42.6885 9.08097 43.399 9.15842 44.1551 9.19466C44.7146 9.26958 45.2307 9.33761 45.7415 9.43304C46.3352 9.54395 46.9244 9.67888 47.5563 9.80766C48.138 9.97359 48.6788 10.1352 49.2585 10.3017C49.7384 10.4683 50.1795 10.6301 50.6589 10.7968C50.9731 10.9292 51.2489 11.0568 51.561 11.191C52.0092 11.4145 52.4211 11.6314 52.867 11.8555C53.4071 12.1373 53.9131 12.4117 54.4536 12.6962C54.7206 12.8608 54.9533 13.0154 55.2159 13.1813C55.5758 13.4419 55.9058 13.6913 56.2664 13.9553C56.5763 14.1921 56.8556 14.4144 57.1651 14.6517C57.6754 15.1183 58.1554 15.5698 58.6656 16.0363C58.7575 16.1955 58.8193 16.3396 58.865 16.5121ZM17.8932 32.2622C17.8977 33.7199 17.9022 35.1775 17.9053 36.7234C18.1982 38.278 18.4911 39.8327 18.7941 41.4651C19.2537 43.2015 19.9139 44.8595 20.8006 46.5057C21.5655 47.6739 22.3305 48.8422 23.1238 50.0703C24.049 51.0705 24.9743 52.0708 25.9369 53.1255C26.1448 53.3141 26.337 53.5239 26.5632 53.6877C27.4829 54.3537 28.4129 55.0056 29.3751 55.7235C30.4686 56.3147 31.5208 57.0031 32.6631 57.4795C36.8694 59.234 41.2405 59.6908 45.7404 58.9112C48.7076 58.3971 51.45 57.3038 54.0875 55.747C55.2245 54.8825 56.3615 54.0179 57.5619 53.1343C57.9045 52.8124 58.247 52.4906 58.623 52.1374C57.8842 51.3544 57.1969 50.6261 56.4767 49.8398C55.4208 48.7037 54.3648 47.5675 53.275 46.3739C52.2445 45.2517 51.2053 44.1371 50.1891 43.0023C49.9093 42.6898 49.7363 42.7245 49.4244 42.9804C48.5174 43.7243 47.6653 44.6255 46.6221 45.0984C42.672 46.889 38.8233 46.5236 35.2867 44.0191C34.2217 43.2649 33.3911 42.1863 32.4228 41.1934C32.3319 41.0368 32.2466 40.8767 32.1493 40.7241C31.344 39.4617 30.7675 38.108 30.4735 36.5586C30.1753 35.1034 30.2218 33.6442 30.4542 32.1178C30.8004 30.5908 31.3624 29.1502 32.26 27.7818C32.7604 27.1661 33.2254 26.5175 33.7691 25.9418C34.6968 24.9593 35.8072 24.2016 37.074 23.5494C38.8353 22.7391 40.6894 22.4822 42.6196 22.5643C44.3042 22.6359 45.8912 22.98 47.2692 23.982C47.897 24.4385 48.4857 24.9509 49.0664 25.4664C49.6627 25.9957 49.7688 26.0022 50.2901 25.3917C50.6551 24.9643 51.0222 24.5386 51.3948 24.1177C52.9619 22.3479 54.5314 20.5802 56.1552 18.7744C56.8046 18.0695 57.4646 17.3736 58.0917 16.6497C58.1839 16.5433 58.201 16.2248 58.1153 16.1385C57.2724 15.2907 56.4308 14.5137 55.0605 14.5352C51.4807 14.5914 47.8994 14.5541 44.3186 14.5541C38.9559 14.5541 33.5931 14.5557 28.2304 14.5521C27.5988 14.5517 27.004 14.6261 26.5197 15.0871C25.884 15.6919 25.2092 16.2593 24.6059 16.8937C24.0967 17.4291 23.6654 18.0371 23.1482 18.6546C21.9506 20.0933 21.0095 21.6887 20.1868 23.438C19.6621 24.9005 19.1373 26.3631 18.5978 27.9026C18.3658 29.3279 18.1339 30.7532 17.8932 32.2622ZM31.9127 11.7289C30.8024 12.1565 29.7553 12.6941 28.7019 13.4705C37.4502 13.4705 46.0621 13.4705 54.8132 13.4705C54.4921 13.2603 54.2884 13.1231 54.081 12.9917C52.5065 11.9937 50.8425 11.4316 48.9141 11.4597C43.8158 11.5339 38.7156 11.4783 33.6162 11.4945C33.0736 11.4962 32.5315 11.6309 31.9127 11.7289ZM55.0099 13.6479C55.0014 13.6525 54.9929 13.657 54.9843 13.6615C54.9905 13.6685 54.9967 13.6755 55.0028 13.6826C55.0084 13.6746 55.0139 13.6667 55.0099 13.6479Z" fill="white"/>
<path d="M70.9921 26.109C71.3038 27.9942 71.7461 29.8698 71.8897 31.7675C72.0293 33.6121 71.9128 35.482 71.8178 37.3362C71.6923 39.7878 71.1242 42.165 70.3118 44.4776C69.4734 46.8646 68.4141 49.1477 67.0198 51.281C65.6277 53.4111 64.0164 55.346 62.1773 57.1085C60.118 59.082 57.8107 60.7087 55.3073 62.0775C52.7235 63.4902 49.9953 64.5474 47.1079 65.122C45.3202 65.4777 43.4922 65.6598 41.6738 65.8321C39.4835 66.0397 37.2925 65.8814 35.1255 65.5385C31.1221 64.9052 27.3625 63.5825 23.8633 61.5359C21.8907 60.3821 20.0981 59.0108 18.3969 57.4925C15.6155 55.0101 13.4527 52.0798 11.7069 48.824C10.1152 45.8554 9.07198 42.6982 8.54816 39.3879C8.29669 37.7987 8.14716 36.1803 8.11992 34.5724C8.05973 31.0184 8.64746 27.5497 9.81029 24.1821C9.88996 23.9514 9.99756 23.7301 10.1417 23.5C10.395 23.7149 10.5988 23.9342 10.8163 24.1844C11.1881 24.4564 11.5463 24.6976 11.8993 24.978C11.4702 26.9297 10.9502 28.8275 10.6447 30.7586C10.1907 33.6281 10.3649 36.5102 10.8676 39.3668C11.6434 43.7761 13.3664 47.7866 16.0128 51.4235C17.7795 53.8514 19.8511 55.9732 22.2653 57.7573C25.1723 59.9056 28.3555 61.5069 31.8645 62.4951C35.4818 63.5137 39.151 63.8852 42.88 63.5339C45.9271 63.2467 48.8882 62.5291 51.7042 61.3186C55.8749 59.5259 59.4782 56.944 62.4591 53.5385C65.0859 50.5375 67.0444 47.152 68.2818 43.3675C68.9196 41.4167 69.3238 39.422 69.5366 37.3781C69.7855 34.9871 69.7943 32.6068 69.4288 30.2336C69.2334 28.9645 68.9467 27.7092 68.7464 26.4426C69.5251 26.328 70.2586 26.2185 70.9921 26.109Z" fill="#212529"/>
<path d="M71.0185 26.0892C70.2586 26.2183 69.525 26.3278 68.6997 26.4376C67.9389 26.4171 67.2699 26.3964 66.5561 26.3672C65.5081 26.2703 64.5052 26.1818 63.4676 26.0806C62.3222 25.8937 61.2114 25.7196 60.0602 25.5406C58.5818 25.2682 57.1437 25.0004 55.6818 24.7177C55.5703 24.6729 55.4827 24.6432 55.395 24.6134C55.5986 24.5606 55.8021 24.4618 56.0058 24.4616C61.5162 24.456 67.0267 24.4605 72.587 24.466C72.3397 25.23 71.7595 25.7154 71.0185 26.0892Z" fill="#212529"/>
<path d="M20.4017 21.8827C20.2235 22.2715 20.0452 22.6603 19.8032 23.0512C19.4935 23.0264 19.2476 22.9762 19.0017 22.9758C15.9696 22.9702 12.9375 22.9719 9.90549 22.9717C9.74674 22.5988 9.588 22.2259 9.46826 21.8182C11.7805 21.7836 14.0538 21.7724 16.3269 21.7884C17.6853 21.7979 19.0434 21.8499 20.4017 21.8827Z" fill="#212529"/>
<path d="M9.90771 23.0051C12.9376 22.9712 15.9697 22.9695 19.0018 22.9751C19.2477 22.9756 19.4936 23.0257 19.7765 23.0734C19.6677 23.4079 19.522 23.7218 19.2955 24.0491C16.6384 24.062 14.0621 24.0589 11.4858 24.0647C11.2579 24.0653 11.0302 24.1238 10.8024 24.1554C10.5986 23.9361 10.3949 23.7167 10.1691 23.476C10.068 23.3161 9.98892 23.1776 9.90771 23.0051Z" fill="#212529"/>
<path d="M20.4217 21.8524C19.0437 21.8478 17.6855 21.7959 16.3271 21.7864C14.054 21.7704 11.7807 21.7815 9.46172 21.781C9.37749 21.5113 9.33904 21.2418 9.30371 20.9313C13.1521 20.8933 16.9973 20.8963 20.8921 20.9014C20.7749 21.2104 20.6082 21.5173 20.4217 21.8524Z" fill="#212529"/>
<path d="M55.3529 24.6065C55.4826 24.645 55.5702 24.6747 55.6845 24.7585C55.838 25.1141 55.9398 25.4291 56.0956 25.7152C57.0699 27.5036 57.7334 29.4138 58.0522 31.4029C58.2635 32.7209 58.2296 34.0897 58.1901 35.4324C58.0971 38.5948 57.0356 41.4661 55.3242 44.1111C54.8507 44.8429 54.3095 45.5317 53.7995 46.2402C52.7401 45.1068 51.6808 43.9734 50.6205 42.7758C50.7429 42.5175 50.8578 42.3173 50.9911 42.13C52.75 39.6585 53.6296 36.9413 53.5222 33.89C53.4554 31.993 53.0532 30.2005 52.2243 28.5086C51.7636 27.5682 51.3024 26.6049 50.4448 25.9216C50.9806 25.3131 51.5164 24.7046 52.0809 24.0781C53.1767 24.2394 54.2438 24.4185 55.3529 24.6065Z" fill="#212529"/>
<path d="M63.5017 26.0961C64.5047 26.1846 65.5077 26.273 66.5558 26.4086C66.6396 26.682 66.657 26.9144 66.7202 27.1339C67.3624 29.3673 67.6645 31.6519 67.6862 33.966C67.6971 35.1318 67.6006 36.302 67.4926 37.4648C67.3121 39.4101 66.8781 41.3156 66.1884 43.1376C65.612 44.6601 64.8997 46.1392 64.1538 47.5902C62.5975 50.6175 60.3577 53.1166 57.7554 55.2909C56.0599 56.7076 54.1879 57.8834 52.1902 58.8546C50.2983 59.7744 48.3289 60.4984 46.2731 60.9313C43.7655 61.4594 41.2287 61.841 38.6488 61.5802C37.2941 61.4432 35.9282 61.3359 34.5962 61.0725C31.6073 60.4815 28.7401 59.5008 26.1566 57.8767C24.6019 56.8992 23.0792 55.8385 21.6874 54.6486C19.9613 53.1729 18.4654 51.4643 17.1853 49.5711C15.5869 47.2071 14.3623 44.6761 13.5552 41.9557C13.0346 40.2008 12.7189 38.4036 12.5528 36.5711C12.3837 34.7048 12.3923 32.8434 12.6757 31.0103C12.9645 29.1431 13.4811 27.3104 13.9421 25.457C14.6237 25.4909 15.2611 25.5303 15.8984 25.61C15.845 25.9238 15.8171 26.2051 15.7345 26.4696C14.7511 29.6202 14.3259 32.8291 14.5828 36.1297C14.7984 38.9002 15.4235 41.5602 16.4995 44.1267C17.4195 46.321 18.6712 48.3195 20.1521 50.1687C21.2562 51.5474 22.5364 52.7622 23.9212 53.8888C25.4534 55.1353 27.1083 56.1585 28.855 57.053C30.8822 58.0911 33.0513 58.7282 35.282 59.1648C35.5097 59.2094 35.7642 59.1203 36.0062 59.0933C37.8154 59.4767 39.6367 59.7509 41.4944 59.7366C48.3937 59.6835 54.2577 57.2237 59.0787 52.3338C59.1237 52.2881 59.1598 52.2338 59.2216 52.1565C58.8734 51.7733 58.5313 51.3969 58.1931 50.9616C58.7591 50.2308 59.3484 49.5793 59.8777 48.8832C61.1659 47.1891 62.1676 45.3321 62.9941 43.3782C63.7321 41.6336 64.2231 39.8133 64.4654 37.9507C64.6639 36.425 64.7522 34.8673 64.6913 33.3315C64.6316 31.8271 64.3512 30.3279 64.111 28.8354C63.9626 27.9136 63.7084 27.0086 63.5017 26.0961Z" fill="#212529"/>
<path d="M50.418 25.9369C51.3024 26.6034 51.7636 27.5668 52.2243 28.5071C53.0532 30.1991 53.4554 31.9915 53.5222 33.8885C53.6296 36.9398 52.75 39.6571 50.9911 42.1285C50.8578 42.3159 50.7429 42.516 50.609 42.7433C50.3554 42.5312 50.1123 42.2861 49.8434 42.0149C49.4364 42.3963 49.0525 42.7807 48.6426 43.1357C47.4687 44.1523 46.2166 45.0479 44.6598 45.3977C41.1196 46.1933 37.8469 45.6209 35.0207 43.3087C32.8074 41.498 31.4099 39.1731 30.8773 36.33C29.809 30.6274 33.5756 24.9962 38.7219 23.4456C40.8801 22.7954 43.0581 22.8411 45.2166 23.4593C46.5454 23.8399 47.5967 24.6828 48.5959 25.5905C48.9754 25.9352 49.3447 26.2909 49.7393 26.661C49.9692 26.4116 50.1802 26.1826 50.418 25.9369ZM41.6373 25.7466C40.9278 25.7108 40.2132 25.6026 39.5099 25.6518C36.2872 25.8769 33.8171 27.4067 32.3333 30.2179C30.687 33.337 30.8644 36.4787 32.9855 39.3564C35.125 42.259 38.0827 43.3729 41.6557 42.8221C44.098 42.4457 45.9643 41.0917 47.3435 39.1377C48.4132 37.6221 48.8776 35.8844 48.8162 33.9956C48.7512 31.9977 48.0997 30.2258 46.8267 28.7273C45.4989 27.1643 43.8114 26.0948 41.6373 25.7466Z" fill="#212529"/>
<path d="M20.2085 23.3702C21.009 21.6889 21.9501 20.0935 23.2167 18.6333C24.0656 18.5794 24.8457 18.5196 25.6257 18.519C34.9304 18.5125 44.235 18.5148 53.5397 18.5149C54.1389 18.5149 54.7402 18.4868 55.3364 18.5297C55.5963 18.5484 55.8455 18.7134 56.0995 18.8119C54.5309 20.5804 52.9614 22.3481 51.3944 24.1179C51.0217 24.5388 50.6546 24.9645 50.2897 25.3919C49.7684 26.0024 49.6623 25.9959 49.0659 25.4666C48.4852 24.9511 47.8965 24.4386 47.2688 23.9822C45.8907 22.9802 44.3037 22.6361 42.6191 22.5645C40.689 22.4824 38.8349 22.7393 37.0231 23.5244C36.7193 23.422 36.466 23.2779 36.2124 23.2773C31.274 23.2639 26.3356 23.265 21.3973 23.2718C21.001 23.2723 20.6047 23.3359 20.2085 23.3702Z" fill="white"/>
<path d="M56.1274 18.7935C55.8457 18.7136 55.5965 18.5486 55.3366 18.5299C54.7405 18.487 54.1392 18.5151 53.5399 18.5151C44.2353 18.515 34.9306 18.5127 25.626 18.5192C24.8459 18.5198 24.0659 18.5796 23.2427 18.6126C23.6653 18.0375 24.0965 17.4295 24.6057 16.8941C25.2091 16.2597 25.8839 15.6923 26.5195 15.0875C27.0038 14.6265 27.5986 14.5521 28.2302 14.5525C33.593 14.5561 38.9557 14.5545 44.3185 14.5545C47.8992 14.5545 51.4805 14.5918 55.0603 14.5356C56.4306 14.5141 57.2723 15.2911 58.1151 16.1389C58.2008 16.2252 58.1837 16.5437 58.0916 16.6501C57.4645 17.374 56.8044 18.0699 56.1274 18.7935Z" fill="white"/>
<path d="M23.0953 50.0107C22.3304 48.8425 21.5654 47.6743 20.8384 46.4715C31.6871 46.4352 42.4979 46.4334 53.3087 46.4316C54.3647 47.5678 55.4206 48.704 56.4528 49.8653C55.82 49.828 55.2111 49.7118 54.6021 49.7111C44.4759 49.6999 34.3497 49.7031 24.2235 49.7034C24.0237 49.7034 23.8131 49.6687 23.6271 49.7198C23.4373 49.772 23.2716 49.9102 23.0953 50.0107Z" fill="white"/>
<path d="M23.1094 50.0402C23.2714 49.9097 23.4371 49.7715 23.6269 49.7193C23.813 49.6682 24.0236 49.7029 24.2234 49.7029C34.3496 49.7026 44.4758 49.6994 54.6019 49.7107C55.211 49.7113 55.8199 49.8275 56.4691 49.8939C57.1967 50.626 57.8839 51.3543 58.6227 52.1373C58.2468 52.4905 57.9042 52.8123 57.5233 53.1076C57.364 52.6722 57.0152 52.7763 56.7359 52.7762C46.7346 52.7713 36.7332 52.7721 26.7318 52.7727C26.5989 52.7727 26.4524 52.7477 26.3362 52.7937C26.1784 52.8561 26.0438 52.9758 25.8992 53.0709C24.974 52.0707 24.0488 51.0704 23.1094 50.0402Z" fill="white"/>
<path d="M53.2917 46.404C42.4978 46.4345 31.687 46.4362 20.8274 46.4384C19.9136 44.8609 19.2534 43.203 18.8311 41.4186C19.1824 41.3432 19.4964 41.2924 19.8105 41.2919C23.6419 41.2864 27.4733 41.2892 31.3047 41.287C31.6874 41.2868 32.0701 41.268 32.4528 41.2578C33.3908 42.1878 34.2215 43.2663 35.2864 44.0205C38.823 46.5251 42.6717 46.8904 46.6219 45.0998C47.665 44.627 48.5172 43.7257 49.4241 42.9818C49.736 42.7259 49.909 42.6912 50.1888 43.0037C51.205 44.1385 52.2442 45.2531 53.2917 46.404Z" fill="white"/>
<path d="M35.9781 59.0672C35.7641 59.1187 35.5097 59.2078 35.2819 59.1632C33.0512 58.7266 30.8821 58.0895 28.8549 57.0514C27.1082 56.1568 25.4533 55.1337 23.9211 53.8871C22.5364 52.7606 21.2561 51.5457 20.152 50.1671C18.6711 48.3179 17.4194 46.3194 16.4994 44.1251C15.4234 41.5586 14.7983 38.8986 14.5827 36.1281C14.3258 32.8275 14.751 29.6186 15.7344 26.468C15.817 26.2034 15.8449 25.9222 15.9442 25.6045C16.9211 25.5881 17.852 25.6161 18.7829 25.644C17.6736 28.9465 17.1896 32.3335 17.3864 35.8115C17.7102 41.5322 19.6633 46.638 23.351 51.0598C26.5984 54.9535 30.6785 57.615 35.6108 58.9633C35.7228 58.9939 35.8369 59.0165 35.9781 59.0672Z" fill="#212529"/>
<path d="M53.8105 46.2714C54.3094 45.5316 54.8505 44.8428 55.324 44.1111C57.0354 41.466 58.097 38.5947 58.1899 35.4323C58.2294 34.0896 58.2633 32.7208 58.0521 31.4028C57.7332 29.4138 57.0697 27.5035 56.0954 25.7151C55.9396 25.429 55.8378 25.1141 55.7082 24.7734C57.1434 25.0021 58.5815 25.2699 60.0618 25.5811C60.151 25.7986 60.1923 25.9743 60.2458 26.1463C60.6022 27.2933 61.0104 28.4271 61.3092 29.5885C61.9355 32.0227 62.0271 34.5032 61.6806 36.982C61.3395 39.4229 60.7062 41.7891 59.5388 43.994C58.6149 45.7391 57.492 47.3431 56.1928 48.8305C55.4025 47.9879 54.6121 47.1453 53.8105 46.2714Z" fill="#212529"/>
<path d="M25.918 53.0981C26.0438 52.9757 26.1785 52.856 26.3362 52.7936C26.4525 52.7476 26.5989 52.7726 26.7319 52.7726C36.7332 52.772 46.7346 52.7712 56.736 52.7761C57.0152 52.7763 57.364 52.6721 57.4917 53.1171C56.3613 54.0177 55.2243 54.8823 54.0236 55.7325C53.6734 55.6602 53.3867 55.5519 53.1 55.5516C45.5086 55.5423 37.9171 55.5428 30.3257 55.5492C29.9967 55.5495 29.6678 55.623 29.3389 55.6625C28.4127 55.0054 27.4826 54.3535 26.563 53.6875C26.3368 53.5237 26.1445 53.314 25.918 53.0981Z" fill="white"/>
<path d="M56.2041 48.8614C57.492 47.3432 58.6149 45.7392 59.5388 43.9941C60.7062 41.7892 61.3395 39.4229 61.6807 36.982C62.0271 34.5032 61.9356 32.0228 61.3093 29.5885C61.0104 28.4271 60.6022 27.2933 60.2458 26.1464C60.1923 25.9744 60.151 25.7987 60.1021 25.5859C61.2111 25.7213 62.322 25.8955 63.4674 26.0824C63.7086 27.0077 63.9629 27.9127 64.1112 28.8344C64.3514 30.3269 64.6319 31.8262 64.6915 33.3305C64.7524 34.8663 64.6641 36.424 64.4656 37.9498C64.2233 39.8123 63.7323 41.6326 62.9943 43.3773C62.1678 45.3311 61.1662 47.1881 59.878 48.8822C59.3486 49.5783 58.7593 50.2298 58.1762 50.934C57.5086 50.275 56.862 49.5836 56.2041 48.8614Z" fill="#212529"/>
<path d="M20.1977 23.4049C20.605 23.3366 21.0012 23.273 21.3975 23.2725C26.3359 23.2657 31.2743 23.2646 36.2126 23.278C36.4663 23.2786 36.7195 23.4227 36.988 23.5343C35.807 24.2025 34.6966 24.9602 33.7689 25.9427C33.2252 26.5184 32.7601 27.167 32.1916 27.7983C31.7764 27.7837 31.4295 27.728 31.0825 27.7274C27.5222 27.721 23.9619 27.7187 20.4016 27.7281C19.8051 27.7296 19.2087 27.7921 18.6123 27.8265C19.1371 26.364 19.6618 24.9014 20.1977 23.4049Z" fill="white"/>
<path d="M29.3569 55.6933C29.6679 55.6235 29.9968 55.55 30.3258 55.5497C37.9172 55.5432 45.5086 55.5428 53.1001 55.552C53.3868 55.5524 53.6734 55.6606 53.9913 55.7448C51.4498 57.3041 48.7075 58.3974 45.7403 58.9114C41.2404 59.691 36.8693 59.2342 32.663 57.4798C31.5206 57.0033 30.4685 56.3149 29.3569 55.6933Z" fill="white"/>
<path d="M32.4373 41.2259C32.0698 41.2676 31.6871 41.2864 31.3044 41.2866C27.473 41.2888 23.6415 41.286 19.8101 41.2915C19.4961 41.2919 19.182 41.3428 18.8257 41.3793C18.4905 39.8337 18.1976 38.279 17.9517 36.6799C22.1591 36.6366 26.3197 36.6378 30.4802 36.6391C30.7669 38.109 31.3434 39.4627 32.1487 40.7251C32.2461 40.8777 32.3313 41.0378 32.4373 41.2259Z" fill="white"/>
<path d="M18.6051 27.8639C19.2089 27.791 19.8052 27.7285 20.4017 27.727C23.962 27.7176 27.5224 27.7199 31.0826 27.7263C31.4297 27.7269 31.7766 27.7826 32.1662 27.8181C31.3623 29.15 30.8003 30.5906 30.3887 32.1491C26.1829 32.1798 22.0424 32.1791 17.9019 32.1783C18.1338 30.753 18.3658 29.3277 18.6051 27.8639Z" fill="white"/>
<path d="M17.8975 32.2207C22.0423 32.1797 26.1828 32.1804 30.3725 32.1823C30.2217 33.6445 30.1752 35.1037 30.4771 36.5987C26.3202 36.6372 22.1596 36.6359 17.9529 36.6351C17.9021 35.1778 17.8976 33.7202 17.8975 32.2207Z" fill="white"/>
<path d="M31.9506 11.7167C32.5312 11.6312 33.0733 11.4965 33.6159 11.4948C38.7153 11.4786 43.8155 11.5342 48.9138 11.46C50.8422 11.4319 52.5062 11.994 54.0808 12.992C54.2881 13.1234 54.4918 13.2606 54.8129 13.4708C46.0618 13.4708 37.4499 13.4708 28.7017 13.4708C29.755 12.6944 30.8021 12.1568 31.9506 11.7167Z" fill="white"/>
<path d="M18.8011 25.6117C17.8523 25.6163 16.9213 25.5884 15.9445 25.5644C15.2613 25.5289 14.6239 25.4895 13.9082 25.4371C13.188 25.2627 12.5461 25.1013 11.9041 24.94C11.546 24.6988 11.1878 24.4576 10.8159 24.1855C11.03 24.1231 11.2577 24.0645 11.4856 24.064C14.0619 24.0582 16.6382 24.0612 19.262 24.0624C19.146 24.5683 18.9824 25.0738 18.8011 25.6117Z" fill="#212529"/>
<path d="M55.0142 13.6525C55.0134 13.6659 55.0079 13.6739 55.0024 13.6819C54.9962 13.6748 54.9901 13.6677 54.9839 13.6606C54.9924 13.6561 55.0009 13.6515 55.0142 13.6525Z" fill="white"/>
<path d="M11.8994 24.9785C12.5465 25.1007 13.1884 25.2621 13.8644 25.442C13.4816 27.3084 12.9651 29.1411 12.6763 31.0084C12.3928 32.8414 12.3842 34.7028 12.5534 36.5691C12.7195 38.4016 13.0352 40.1989 13.5558 41.9537C14.3629 44.6741 15.5875 47.2052 17.1859 49.5692C18.4659 51.4624 19.9619 53.171 21.688 54.6467C23.0798 55.8366 24.6025 56.8973 26.1572 57.8747C28.7407 59.4989 31.6078 60.4795 34.5968 61.0705C35.9288 61.3339 37.2946 61.4412 38.6494 61.5782C41.2293 61.8391 43.7661 61.4575 46.2737 60.9294C48.3295 60.4964 50.2989 59.7724 52.1908 58.8527C54.1885 57.8815 56.0604 56.7056 57.7559 55.289C60.3583 53.1146 62.5981 50.6155 64.1543 47.5882C64.9003 46.1372 65.6126 44.6581 66.189 43.1356C66.8787 41.3137 67.3126 39.4081 67.4932 37.4629C67.6011 36.3001 67.6977 35.1299 67.6867 33.964C67.665 31.6499 67.363 29.3653 66.7207 27.132C66.6576 26.9125 66.6402 26.6801 66.6013 26.4151C67.27 26.3972 67.939 26.4179 68.6546 26.4434C68.9468 27.7098 69.2334 28.9651 69.4289 30.2342C69.7943 32.6074 69.7855 34.9877 69.5366 37.3786C69.3238 39.4226 68.9196 41.4172 68.2818 43.368C67.0445 47.1525 65.086 50.5381 62.4591 53.5391C59.4783 56.9446 55.8749 59.5265 51.7043 61.3192C48.8882 62.5297 45.9272 63.2473 42.8801 63.5344C39.151 63.8858 35.4818 63.5143 31.8646 62.4956C28.3555 61.5074 25.1724 59.9062 22.2653 57.7578C19.8512 55.9738 17.7795 53.852 16.0129 51.4241C13.3665 47.7872 11.6434 43.7766 10.8676 39.3673C10.365 36.5108 10.1908 33.6287 10.6447 30.7591C10.9502 28.8281 11.4702 26.9303 11.8994 24.9785Z" fill="#212529"/>
<path d="M41.68 25.754C43.8114 26.0962 45.4989 27.1657 46.8267 28.7287C48.0997 30.2272 48.7512 31.9991 48.8162 33.9969C48.8776 35.8858 48.4132 37.6235 47.3435 39.1391C45.9643 41.0931 44.098 42.4471 41.6558 42.8235C38.0827 43.3743 35.125 42.2604 32.9855 39.3578C30.8644 36.4801 30.687 33.3384 32.3333 30.2193C33.8171 27.4081 36.2872 25.8783 39.5099 25.6532C40.2133 25.604 40.9278 25.7122 41.68 25.754ZM35.7003 37.7702C36.2485 38.2156 36.7546 38.7285 37.3526 39.094C39.429 40.3629 42.4547 40.0448 44.2591 37.9874C46.2784 35.685 46.1081 32.3784 43.96 30.2994C41.6021 28.0172 37.3817 28.2756 35.3865 31.2758C34.068 33.2587 34.2055 35.8116 35.7003 37.7702Z" fill="#212529"/>
<path d="M35.6761 37.7439C34.2052 35.8113 34.0677 33.2583 35.3863 31.2755C37.3814 28.2753 41.6018 28.0169 43.9597 30.2991C46.1078 32.3781 46.2781 35.6847 44.2588 37.9871C42.4544 40.0445 39.4287 40.3626 37.3523 39.0937C36.7543 38.7282 36.2483 38.2153 35.6761 37.7439Z" fill="#212529"/>
</g>
<defs>
<clipPath id="clip0_188_3558">
<rect width="80" height="90" fill="white"/>
</clipPath>
</defs>
</svg>
