<svg width="220" height="37" viewBox="0 0 220 37" fill="none" xmlns="http://www.w3.org/2000/svg">
<g clip-path="url(#clip0_188_3483)">
<path d="M163.226 20.412H163.499C163.805 20.4365 164.113 20.4063 164.409 20.3228H164.773L164.591 20.0554L162.043 15.6867L161.679 15.865L163.226 20.2337V20.412ZM153.127 13.012C153.578 12.794 153.975 12.4814 154.29 12.0962C154.604 11.711 154.828 11.2627 154.946 10.7831V11.4963C154.943 12.5128 155.034 13.5275 155.219 14.5276C154.989 14.1525 154.686 13.8254 154.327 13.5653C153.968 13.3052 153.56 13.1172 153.127 13.012ZM98.8999 18.8963L94.3507 12.9228L98.8999 7.03849V18.8963ZM162.953 11.5855C164.045 11.5855 164.773 12.3879 164.773 13.7252C164.836 14.1709 164.733 14.6241 164.482 15.001C164.231 15.3779 163.85 15.6531 163.408 15.7758L163.135 15.865L163.317 16.1325L165.591 20.1445L165.682 20.3228H165.864C167.239 20.0258 168.486 19.317 169.432 18.2946C170.377 17.2722 170.975 15.9869 171.141 14.6168C171.596 18.5397 174.417 20.5903 177.237 20.5903C177.974 20.6141 178.709 20.4922 179.396 20.2318C180.084 19.9713 180.712 19.5778 181.241 19.0746V20.0554H187.428V6.68186H181.423V13.1903C181.455 13.4799 181.425 13.7729 181.335 14.0506C181.244 14.3282 181.096 14.5843 180.899 14.8025C180.702 15.0207 180.461 15.1962 180.191 15.3178C179.92 15.4393 179.627 15.5042 179.33 15.5084C179.031 15.5109 178.734 15.4504 178.461 15.3311C178.187 15.2117 177.943 15.0362 177.745 14.8165C177.546 14.5968 177.398 14.3379 177.311 14.0574C177.223 13.7768 177.198 13.4812 177.237 13.1903C177.213 12.902 177.248 12.6118 177.341 12.3372C177.433 12.0626 177.582 11.8094 177.778 11.5927C177.973 11.376 178.212 11.2004 178.479 11.0766C178.745 10.9528 179.035 10.8833 179.33 10.8722H179.694L179.512 10.6048L176.873 6.14693L176.782 6.05777H176.691C173.689 6.32524 171.505 8.73247 171.141 12.1204C170.95 10.6429 170.198 9.29018 169.034 8.33184C167.871 7.3735 166.382 6.87988 164.864 6.94933C163.319 6.87 161.799 7.34552 160.587 8.28668C161.224 6.23608 163.135 5.61198 166.137 4.98789C167.866 4.63126 170.778 4.00717 170.868 0.173431V-0.00488281H165.955V0.173431C165.864 0.619214 165.318 0.797527 164.045 1.065C163.499 1.15415 162.771 1.33247 161.952 1.51078C157.949 2.4915 155.674 5.25536 155.219 9.71319C155.037 7.48428 152.672 6.14693 149.032 6.14693C147.108 6.15351 145.2 6.48529 143.391 7.12765V6.68186H137.113V13.1903C137.145 13.4799 137.115 13.7729 137.025 14.0506C136.935 14.3282 136.787 14.5843 136.59 14.8025C136.393 15.0207 136.151 15.1962 135.881 15.3178C135.611 15.4393 135.318 15.5042 135.021 15.5084C134.721 15.5109 134.425 15.4504 134.151 15.3311C133.878 15.2117 133.634 15.0362 133.435 14.8165C133.237 14.5968 133.089 14.3379 133.002 14.0574C132.914 13.7768 132.889 13.4812 132.928 13.1903C132.903 12.902 132.938 12.6118 133.031 12.3372C133.124 12.0626 133.273 11.8094 133.468 11.5927C133.664 11.376 133.902 11.2004 134.169 11.0766C134.436 10.9528 134.726 10.8833 135.021 10.8722H135.385L135.203 10.6048L132.564 6.14693L132.473 6.05777H132.382C129.016 6.32524 126.741 9.26741 126.741 13.1903C126.757 13.7292 126.818 14.266 126.923 14.7951C125.456 15.4906 123.893 15.9712 122.283 16.2216C121.1 16.2216 121.1 15.7758 121.1 15.6867C121.1 15.4192 121.1 15.0626 122.283 14.8843C124.376 14.5276 126.559 13.8144 126.559 10.7831C126.559 8.465 124.921 5.96861 120.463 5.96861C118.657 5.96614 116.877 6.39453 115.277 7.2168L115.095 7.30596L115.186 7.48428L116.642 10.4264L116.733 10.6048L116.915 10.5156C117.666 10.0109 118.552 9.73201 119.462 9.71319C120.645 9.71319 120.736 10.2481 120.736 10.4264C120.736 10.9614 120.099 11.1397 119.189 11.2289C119.061 11.2155 118.932 11.2471 118.825 11.318C117.006 11.5855 115.823 12.3879 115.368 13.7252V13.1011C115.368 8.465 112.275 5.96861 109.181 5.96861C107.624 5.93893 106.119 6.51614 104.996 7.57343V6.68186H91.8941L91.8031 6.77102L89.1646 11.318V6.68186H78.7014L78.6104 6.86018L76.7907 11.9421L74.2432 6.86018L74.3342 6.68186H67.0554L67.2374 6.94933L73.9702 18.0939L70.6948 24.6915L70.5128 24.959H77.0637L77.1547 24.8698L82.9777 11.7638V19.7879H89.3466V14.706L92.2581 19.6987L92.3491 19.7879H98.9909V24.959H105.087V13.1903C105.055 12.9007 105.085 12.6077 105.175 12.33C105.265 12.0524 105.413 11.7963 105.61 11.5781C105.807 11.3599 106.049 11.1844 106.319 11.0628C106.589 10.9413 106.882 10.8764 107.179 10.8722C107.474 10.884 107.764 10.954 108.03 11.0781C108.296 11.2022 108.534 11.3778 108.73 11.5943C108.925 11.8108 109.074 12.0638 109.167 12.338C109.261 12.6123 109.296 12.9022 109.272 13.1903C109.306 13.473 109.28 13.7595 109.196 14.032C109.112 14.3045 108.972 14.5573 108.784 14.7746C108.596 14.9918 108.365 15.1691 108.105 15.2953C107.845 15.4215 107.561 15.4941 107.27 15.5084H106.907L107.089 15.7758L109.909 20.1445L110 20.2337H110.091C112.639 19.9662 114.549 18.0939 115.277 15.4192C115.277 16.8457 115.914 20.2337 121.828 20.2337C124.285 20.2055 126.682 19.4944 128.743 18.1831C129.28 18.8324 129.96 19.3542 130.732 19.7093C131.504 20.0645 132.348 20.2437 133.201 20.2337C133.938 20.2575 134.672 20.1356 135.36 19.8752C136.048 19.6148 136.675 19.2212 137.204 18.718V19.6987H143.391V10.6939C144.901 10.1309 146.507 9.85842 148.122 9.8915C149.305 9.8915 149.851 10.159 149.851 10.7831C149.851 11.1397 149.396 11.4072 148.668 11.4072H146.03V14.8843H148.486C149.487 14.8843 149.942 15.0626 149.942 15.5084C149.942 15.9542 149.487 16.3999 148.486 16.3999C147.162 16.3317 145.878 15.9327 144.756 15.2409L144.392 15.0626V19.877L144.574 19.9662C146.012 20.4338 147.517 20.6746 149.032 20.6795C154.127 20.6795 155.947 18.4505 155.947 16.4891C156.393 17.5177 157.091 18.4223 157.98 19.1223C158.869 19.8223 159.921 20.296 161.042 20.5011L161.315 20.5903V13.7252C161.224 12.3879 161.861 11.5855 162.953 11.5855ZM219.727 19.5204L214.723 12.9228L219.181 7.03849L219.454 6.68186H212.175L212.084 6.77102L209.537 11.318V6.68186H203.168V19.7879H209.537V14.706L212.448 19.6987L212.539 19.7879H220L219.727 19.5204ZM180.604 11.6746L180.968 11.4963L179.33 6.77102V6.68186H179.239C178.796 6.52162 178.34 6.40223 177.874 6.32524L177.419 6.23608L177.601 6.59271L180.604 11.6746ZM36.2117 22.6409C36.0298 22.5517 35.4839 22.1951 35.4839 21.0361C35.4839 20.0554 36.5757 18.9855 37.8495 17.7373C39.6692 15.9542 41.6708 13.9927 41.6708 11.2289C41.6421 9.49065 41.3034 7.77076 40.67 6.14693L57.1381 13.9036L36.2117 22.6409ZM36.4847 0.797528L35.7568 0.4409L36.2117 1.065C36.2117 1.065 38.8503 4.98789 38.8503 8.465C38.8503 11.6746 37.0306 13.4578 35.3019 15.0626C33.6642 16.6674 31.9355 18.3614 31.9355 21.2144C31.9487 23.1443 32.6577 25.0074 33.9371 26.4746L34.0281 26.5638L34.1191 26.4746L63.507 14.171L63.962 13.9927L63.598 13.8144L36.4847 0.797528ZM17.105 15.6867C17.105 13.1903 21.4723 11.1397 23.11 10.4264C22.0659 11.959 21.4971 13.755 21.4723 15.5975C21.5681 17.4695 22.2336 19.2705 23.383 20.7686C21.6543 20.3228 17.105 18.5397 17.105 15.6867ZM33.1183 13.5469C34.665 11.4072 36.3027 9.17825 36.3027 7.2168C36.3027 4.09632 33.1183 0.619214 33.0273 0.4409L32.9363 0.351745L32.8453 0.4409L0.454921 13.8144L0 13.9927L0.454921 14.171L29.3879 25.5831L29.5699 25.2264C29.4789 25.1373 24.6567 20.412 24.6567 16.5782C24.6567 13.4578 26.3854 11.9421 28.1141 10.5156C29.3188 9.60138 30.3113 8.4465 31.0256 7.12765C31.3665 6.21501 31.521 5.24565 31.4806 4.27463C31.8987 4.66355 32.2283 5.13461 32.4478 5.65699C32.6673 6.17937 32.7718 6.74129 32.7543 7.30596C32.7543 8.64331 31.5715 10.3373 30.2978 12.1204C28.842 14.171 27.2953 16.2216 27.2953 18.1831C27.2953 21.8385 31.8445 26.7421 32.0265 26.9204L32.3904 26.653C32.3904 26.5638 30.2068 22.3734 30.2068 19.0746C30.2978 17.559 31.6625 15.5975 33.1183 13.5469ZM136.567 11.6746L136.931 11.4963L135.294 6.68186V6.59271H135.203C134.76 6.43247 134.303 6.31307 133.838 6.23608L133.383 6.14693L133.565 6.50355L136.567 11.6746ZM106.088 15.5084L105.724 15.6867L107.27 20.0554V20.1445H107.361C107.725 20.2337 108.18 20.3228 108.635 20.412H108.999L108.817 20.0554L106.088 15.5084ZM193.978 19.877H194.16V15.3301H196.162V19.877H202.531V6.68186H196.162V10.6939H194.16V6.68186H187.792V19.7879H193.978V19.877Z" fill="#005495"/>
<path d="M196.071 22.998C195.669 23.6034 195.142 24.1197 194.524 24.5137C192.796 25.4053 191.704 25.227 190.339 26.4752C189.682 27.1879 189.296 28.1013 189.247 29.0607C189.247 29.3282 189.156 29.5956 189.156 29.774C189.156 29.6848 189.156 29.6848 189.247 29.5956C189.338 29.4173 189.338 29.3282 189.429 29.1499C189.52 28.9715 189.611 28.8824 189.702 28.7041C189.897 28.4238 190.144 28.1819 190.43 27.9908C190.737 27.7895 191.075 27.6389 191.431 27.545C191.795 27.4559 192.068 27.3667 192.432 27.2776C192.749 27.2424 193.057 27.1518 193.342 27.0101C193.63 26.9291 193.906 26.809 194.161 26.6535C194.252 26.5643 194.434 26.4752 194.524 26.386C194.615 26.386 194.615 26.2968 194.706 26.2968L194.797 26.2077C194.979 26.0294 195.07 25.8511 195.252 25.6727L195.343 25.5836L195.434 25.4944C195.486 25.4482 195.519 25.3846 195.525 25.3161C195.626 25.1864 195.689 25.0323 195.707 24.8703V24.9595C195.707 25.0487 195.616 25.1378 195.616 25.3161C195.616 25.4053 195.525 25.4944 195.525 25.5836C195.525 25.6072 195.516 25.6299 195.499 25.6466C195.482 25.6634 195.458 25.6727 195.434 25.6727C195.428 25.7412 195.395 25.8048 195.343 25.8511C195.237 26.0672 195.116 26.2757 194.979 26.4752C194.791 26.7049 194.577 26.9142 194.343 27.0993C194.09 27.2813 193.815 27.4311 193.524 27.545C193.251 27.6342 192.887 27.7233 192.523 27.8125C192.159 27.9017 191.886 27.9908 191.522 28.08C191.227 28.1438 190.949 28.2651 190.703 28.4366C190.472 28.5923 190.259 28.7716 190.066 28.9715C189.975 29.0607 189.884 29.239 189.793 29.3282C189.697 29.4264 189.634 29.5507 189.611 29.6848C189.52 29.774 189.52 29.9523 189.429 30.0414C189.429 30.1306 189.338 30.3089 189.338 30.398C189.338 30.4872 189.247 30.6655 189.247 30.7547C189.247 30.8438 189.156 30.933 189.156 31.0221C189.156 31.2005 189.065 31.3788 189.065 31.5571V31.8246L189.247 32.0029C189.368 31.3156 189.721 30.6878 190.248 30.2197C191.158 29.5065 192.341 29.6848 193.433 29.4173C193.963 29.3168 194.465 29.1055 194.905 28.7978C195.344 28.4901 195.711 28.0932 195.98 27.6342C196.631 26.4294 196.793 25.0284 196.435 23.7113C196.253 23.6221 196.162 23.2655 196.071 22.998Z" fill="#59AA47"/>
<path d="M204.714 36.7299H207.626V34.501H208.809V36.7299H211.72V30.5781H208.809V32.5396H207.626V30.5781H204.714V36.7299Z" fill="#005496"/>
<path d="M212.084 36.7299H214.996V34.0552L216.543 36.7299H219.909L217.453 33.5203L219.636 30.5781H216.452L214.996 33.0745V30.5781H212.084V36.7299Z" fill="#005496"/>
<path d="M192.887 36.9943L192.159 34.8545L193.433 36.9051C193.261 36.9778 193.074 37.0084 192.887 36.9943Z" fill="#005496"/>
<path d="M201.257 32.806L199.801 30.3096C200.025 30.3148 200.244 30.3762 200.438 30.4879L201.257 32.806Z" fill="#005496"/>
<path d="M200.439 32.45C200.289 32.4546 200.141 32.4883 200.005 32.5493C199.869 32.6103 199.746 32.6973 199.645 32.8052C199.543 32.9131 199.464 33.0397 199.413 33.1777C199.362 33.3158 199.339 33.4624 199.347 33.6091C199.331 33.762 199.347 33.9166 199.394 34.0633C199.44 34.2101 199.517 34.346 199.619 34.4627C199.721 34.5795 199.847 34.6747 199.988 34.7425C200.128 34.8103 200.282 34.8493 200.439 34.8572C201.075 34.8572 201.53 34.4115 201.53 33.6091V30.5777H204.26V36.7295H201.439V36.1054C201.193 36.3885 200.886 36.6151 200.54 36.7692C200.194 36.9232 199.818 37.001 199.438 36.997C197.982 36.997 196.617 35.838 196.617 33.6982C196.617 31.9151 197.709 30.4886 199.256 30.3994L200.439 32.45Z" fill="#005496"/>
<path d="M193.433 30.7555C193.022 30.7113 192.606 30.7699 192.224 30.9258C191.842 31.0817 191.507 31.3299 191.249 31.6471C190.642 31.2068 189.912 30.9581 189.157 30.9338C188.964 31.5396 188.872 32.1717 188.884 32.8061C188.884 33.7868 189.066 36.3724 191.704 36.9073V33.876C191.704 33.1627 192.068 32.7169 192.614 32.7169C193.251 32.7169 193.615 33.1627 193.615 33.876C193.615 34.5001 193.342 34.8567 192.887 34.9459L193.979 36.9073C194.708 36.7407 195.354 36.3276 195.803 35.7406C196.253 35.1537 196.476 34.4303 196.436 33.6977C196.449 33.3076 196.381 32.919 196.235 32.5559C196.089 32.1928 195.869 31.863 195.587 31.5871C195.305 31.3111 194.969 31.0949 194.598 30.9518C194.228 30.8088 193.831 30.7419 193.433 30.7555Z" fill="#005496"/>
<path d="M168.867 36.6374H171.779V33.8736L173.325 36.6374H176.692L174.235 33.3387L176.419 30.3965H173.234L171.779 32.982V30.3965H168.867V36.6374Z" fill="#59AA47"/>
<path d="M166.229 34.7598L167.321 36.5429C167.503 36.4537 167.594 36.3646 167.776 36.2754L166.229 34.7598Z" fill="#59AA47"/>
<path d="M165.319 35.2961C165.173 35.2904 165.031 35.2552 164.9 35.1925C164.769 35.1299 164.653 35.0413 164.558 34.9323C164.464 34.8233 164.394 34.6963 164.353 34.5594C164.312 34.4225 164.3 34.2787 164.318 34.1371H168.958C168.958 32.7997 168.594 30.125 165.228 30.125C164.75 30.0826 164.269 30.139 163.815 30.2907C163.361 30.4423 162.945 30.6857 162.593 31.0052C162.241 31.3246 161.962 31.713 161.773 32.145C161.585 32.577 161.491 33.0431 161.498 33.513C161.471 33.9801 161.549 34.4473 161.725 34.8821C161.901 35.317 162.172 35.7091 162.518 36.0314C162.864 36.3536 163.278 36.5983 163.73 36.7484C164.182 36.8986 164.662 36.9506 165.137 36.9009C165.695 36.9142 166.251 36.8235 166.775 36.6334L165.865 35.1178C165.713 35.2442 165.518 35.3081 165.319 35.2961ZM165.319 31.7298C165.457 31.7333 165.593 31.764 165.719 31.8201C165.845 31.8762 165.958 31.9566 166.051 32.0565C166.145 32.1563 166.217 32.2736 166.263 32.4013C166.309 32.529 166.328 32.6645 166.32 32.7997H164.409C164.386 32.5398 164.469 32.2814 164.639 32.0809C164.809 31.8805 165.054 31.7543 165.319 31.7298Z" fill="#59AA47"/>
<path d="M178.876 34.4072L179.695 36.9036C179.911 36.9247 180.13 36.8941 180.332 36.8145L178.876 34.4072Z" fill="#59AA47"/>
<path d="M179.422 30.126C176.693 30.126 175.601 31.7308 175.601 33.5139C175.579 34.3204 175.866 35.1055 176.405 35.7157C176.943 36.3258 177.695 36.717 178.512 36.8127V33.4248C178.512 33.296 178.538 33.1684 178.588 33.0495C178.639 32.9305 178.712 32.8224 178.805 32.7313C178.898 32.6402 179.009 32.568 179.13 32.5187C179.251 32.4694 179.382 32.444 179.513 32.444C179.652 32.4464 179.788 32.4763 179.915 32.5321C180.041 32.5878 180.154 32.6682 180.248 32.7683C180.342 32.8684 180.414 32.9861 180.459 33.1143C180.505 33.2425 180.524 33.3785 180.514 33.5139C180.528 33.7719 180.443 34.0258 180.274 34.2243C180.105 34.4228 179.866 34.5513 179.604 34.5838L180.969 36.7236C181.698 36.557 182.344 36.1439 182.793 35.5569C183.242 34.9699 183.466 34.2466 183.425 33.5139C183.334 31.7308 182.152 30.126 179.422 30.126Z" fill="#59AA47"/>
<path d="M186.062 34.8548C186.766 34.8548 187.336 34.2959 187.336 33.6066C187.336 32.9172 186.766 32.3584 186.062 32.3584C185.359 32.3584 184.789 32.9172 184.789 33.6066C184.789 34.2959 185.359 34.8548 186.062 34.8548Z" fill="#59AA47"/>
</g>
<defs>
<clipPath id="clip0_188_3483">
<rect width="220" height="37" fill="white"/>
</clipPath>
</defs>
</svg>
